<svg xmlns="http://www.w3.org/2000/svg" viewBox="0 0 2400 1847.52"><title>timeline</title><path d="M1927.46,1805.81a.61.61,0,0,0,.13-.22l0,0,72.39-66,72.39,66,0,0a.61.61,0,0,0,.13.22l9.14,41.71h2.05l-8.67-39.52,43.34,39.52h3l-46-41.94,214.4-68.14-24,109.3-2.44.78h4.78l-.38-.35L2292,1736.74l106.65-33.91-31.72,144.69h2L2400,1705.9v-5.64h-.14l-93.38-29.69,21-95.7a.83.83,0,0,0,.14-.22s0,0,0,0l72.39-66v-2.71l-47.84-43.63L2400,1244v-5.64h-.14l-93.38-29.68,21-95.7a.61.61,0,0,0,.13-.22l0,0,72.39-66V1044l-47.84-43.63L2400,782.14v-5.65h-.15l-93.37-29.68,21-95.7a.74.74,0,0,0,.14-.23v0l72.39-66v-2.71l-47.84-43.63L2400,320.26v-5.65h-.14l-93.38-29.68,21-95.7a.74.74,0,0,0,.14-.23,0,0,0,0,0,0,0L2400,123v-2.71l-47.84-43.64L2369,0h-2l-16.46,75.06L2268.15,0h-4.78l-105.3,33.47L2121.37,0h-3l37.47,34.17-60.44,19.21L2083.73,0h-2.05l11.84,54-93.37,29.68a.75.75,0,0,0-.15,0,.75.75,0,0,0-.15,0L1906.48,54l11.84-54h-2l-11.7,53.38-60.44-19.21L1881.6,0h-3l-36.7,33.47L1736.63,0h-4.78l-82.3,75.06L1633.09,0h-2l16.79,76.61L1600,120.25l-47.84-43.64L1569,0h-2l-16.46,75.06L1468.15,0h-4.78l-105.3,33.47L1321.37,0h-3l37.47,34.17-60.44,19.21L1283.73,0h-2l11.84,54-93.37,29.68a.75.75,0,0,0-.15,0,.75.75,0,0,0-.15,0L1106.48,54l11.84-54h-2l-11.7,53.38-60.44-19.21L1081.6,0h-3l-36.7,33.47L936.63,0h-4.78l-82.3,75.06L833.09,0h-2l16.79,76.62L800,120.25,752.16,76.62,769,0h-2L750.45,75.06,668.15,0h-4.78L558.07,33.47,521.37,0h-3l37.47,34.17L495.43,53.38,483.73,0h-2.05l11.84,54L400.14,83.67h-.28L306.48,54,318.32,0h-2.05l-11.7,53.38L244.13,34.17,281.6,0h-3l-36.7,33.47L136.63,0h-4.78L49.55,75.06,33.09,0h-2L47.84,76.62,0,120.25V123l72.39,66a0,0,0,0,0,0,0,1.26,1.26,0,0,0,.13.23l21,95.7L.14,314.61H0v5.65L47.84,538.5,0,582.13v2.71l72.39,66v0a1.26,1.26,0,0,0,.13.23l21,95.7L.15,776.49H0v5.65l47.84,218.23L0,1044v2.71l72.39,66,0,0a.78.78,0,0,0,.12.22l21,95.7L.14,1238.37H0V1244l47.84,218.23L0,1505.89v2.71l72.39,66a0,0,0,0,1,0,0,1.16,1.16,0,0,0,.13.22l21,95.7L.14,1700.26H0v5.65l31.05,141.61h2L1.37,1702.83,108,1736.73l24.21,110.44-.38.35h4.79l-2.45-.78-24-109.3,214.4,68.15-46,41.93h3L324.94,1808l-8.67,39.52h2.05l9.15-41.71a.78.78,0,0,0,.12-.22l0,0,72.39-66,72.39,66,0,0a.78.78,0,0,0,.12.22l9.15,41.71h2.05L475.06,1808l43.34,39.52h3l-46-41.93,214.4-68.15-24,109.3-2.45.78h4.79l-.38-.35L692,1736.73l106.65-33.9-31.72,144.69h2l31-141.61,31,141.61h2l-31.72-144.69L908,1736.73l24.21,110.44-.38.35h4.78l-2.44-.78-24-109.3,214.4,68.14-46,41.94h3l43.34-39.52-8.67,39.52h2l9.14-41.71a.61.61,0,0,0,.13-.22l0,0,72.39-66,72.39,66,0,0a.61.61,0,0,0,.13.22l9.14,41.71h2l-8.67-39.52,43.34,39.52h3l-46-41.94,214.4-68.14-24,109.3-2.44.78h4.78l-.38-.35L1492,1736.74l106.65-33.91-31.72,144.69h2l31-141.62,31,141.62h2l-31.72-144.69L1708,1736.74l24.21,110.43-.38.35h4.78l-2.44-.78-24-109.3,214.4,68.14-46,41.94h3l43.34-39.52-8.67,39.52h2Zm.78-3.53,23.42-106.83,46.86,42.74ZM304.57,1439l-60.44-19.21,80.81-73.69Zm1.48,2.58,90.65,28.81-104.23,33.13Zm0-923.77,90.65,28.82L292.47,579.78Zm-1.48-2.57-60.44-19.21,80.81-73.69Zm94.06,32.87L350.45,767.88l-82.68-75.41L292,582ZM689.78,351.79l-24,109.31L558.07,495.35l-82.69-75.41ZM477.36,417.22,642.43,266.67l61.71,19.62-13.87,63.25Zm647.26,2.72-82.69,75.41L934.19,461.1l-24-109.31Zm-214.89-70.4-13.87-63.25,61.71-19.62,165.07,150.55Zm580.05,2.25-24,109.31-107.74,34.25-82.69-75.41Zm-212.42,65.43,165.07-150.55,61.71,19.62-13.87,63.25Zm647.26,2.72-82.69,75.41L1734.19,461.1l-24-109.31Zm-214.89-70.4-13.87-63.25,61.71-19.62,165.07,150.55Zm397.8,230.24L2003.3,546.65,2094,517.83Zm-32.47-157.42,80.81,73.69-60.44,19.21ZM2108,582l24.21,110.44-82.68,75.41-48.18-219.75Zm-33,764.09,80.81,73.69L2095.43,1439Zm32.47,157.42-104.23-33.13,90.65-28.82ZM400,815.78l72.39,66v0a1.26,1.26,0,0,0,.13.23l21,95.7-93.38,29.68h-.28l-93.38-29.68,21-95.7a1.26,1.26,0,0,0,.13-.23v0Zm-71.76,62.74,23.42-106.83,46.86,42.73ZM724.62,650.88l-82.69,75.41L534.19,692l-24-109.31Zm-214.89-70.4-13.87-63.25,61.71-19.62L722.64,648.16Zm-2.2,461.18L403.3,1008.53,494,979.71ZM475.06,884.24l80.81,73.69-60.44,19.21Zm20.8,94.87,61.71-19.62L722.64,1110l-212.91-67.68Zm-20.48-97.29,214.4-68.15L665.81,923,558.07,957.23Zm2-2.72L642.43,728.55l61.71,19.62-13.87,63.25ZM692,813l106.65-33.9L750.45,998.82l-82.68-75.41Zm.49-2.25,13.58-62,90.65,28.82Zm12.1-64.52L644.13,727l80.81-73.69Zm-64.34-18.35L474,879.45,450,770.14,533.58,694ZM471.76,878.52l-70.28-64.1,46.86-42.73ZM508,1043.91l24.21,110.44-82.68,75.41L401.37,1010Zm2.2.7,214.4,68.15-82.69,75.41-107.74-34.25Zm132.21,145.82,61.71,19.62-13.87,63.25L477.36,1341Zm63.62,20.22,90.65,28.82L692.47,1272.6Zm-1.48-2.57-60.44-19.21,80.81-73.69ZM559.77,958.79l106.65-33.9L750,1001.08l-24,109.31Zm191.89,43.84,46.86,42.73-70.28,64.1Zm.5-2.25L800,782.15l47.84,218.23L800,1044Zm337.62-417.65-24,109.31L958.07,726.29l-82.69-75.41ZM877.36,648.16l165.07-150.55,61.71,19.62-13.87,63.25ZM1126,879.44,959.77,727.85,1066.42,694,1150,770.13Zm25.67-107.75,46.86,42.73-70.28,64.1Zm-27,110.13-82.69,75.41L934.19,923l-24-109.31Zm-214.89-70.4-13.87-63.25,61.71-19.62L1122.64,879.1Zm132.7,148.07,61.71,19.62-13.87,63.25L877.36,1110Zm63.62,20.22,90.65,28.82-104.23,33.13Zm-1.48-2.57-60.44-19.21,80.81-73.69ZM955.87,727,895.43,746.2l-20.37-92.9Zm-48.34,83.73L803.3,777.59,894,748.77ZM908,813l24.21,110.44-82.68,75.41L801.37,779.07Zm-59.68,189.66,23.42,106.83-70.28-64.1Zm1.7-1.55,83.54-76.19,106.65,33.9L874,1110.39Zm57.49,271.52L803.3,1239.47,894,1210.65Zm-32.47-157.42,80.81,73.69-60.44,19.21Zm20.8,94.87,61.71-19.62L1122.64,1341,909.73,1273.3Zm-20.48-97.29,214.4-68.15-24,109.31-107.74,34.25Zm216.6-68.85,106.65-33.9-48.18,219.75-82.68-75.41Zm14.5-66.16,21-95.7a.83.83,0,0,0,.14-.22v0l72.39-66,72.39,66v0a.83.83,0,0,0,.14.22l21,95.7-93.38,29.68H1200a.45.45,0,0,0-.16,0Zm418.14-326.87-82.69,75.41L1334.19,692l-24-109.31Zm-214.89-70.4-13.87-63.25,61.71-19.62,165.07,150.55Zm-2.2,461.18-104.23-33.13L1294,979.71Zm-32.47-157.42,80.81,73.69-60.44,19.21Zm20.8,94.87,61.71-19.62L1522.64,1110l-212.91-67.68Zm-20.48-97.29,214.4-68.15-24,109.31-107.74,34.25Zm2-2.72,165.07-150.55,61.71,19.62-13.87,63.25ZM1492,813l106.65-33.9-48.18,219.75-82.68-75.41Zm.49-2.25,13.58-62,90.65,28.82Zm12.1-64.52L1444.13,727l80.81-73.69Zm-64.34-18.35L1274,879.44l-24-109.31L1333.58,694ZM1271.76,878.52l-70.28-64.1,46.86-42.73ZM1308,1043.91l24.21,110.44-82.68,75.41L1201.37,1010Zm2.2.7,214.4,68.15-82.69,75.41-107.74-34.25Zm132.21,145.82,61.71,19.62-13.87,63.25L1277.36,1341Zm63.62,20.22,90.65,28.82-104.23,33.13Zm-1.48-2.57-60.44-19.21,80.81-73.69Zm-144.8-249.29,106.65-33.9,83.54,76.19-24,109.31Zm191.89,43.84,46.86,42.73-70.28,64.1Zm.5-2.25L1600,782.14l47.84,218.24L1600,1044Zm337.62-417.65-24,109.31-107.74,34.25-82.69-75.41Zm-212.42,65.43,165.07-150.55,61.71,19.62-13.87,63.25Zm395,233.64v0a.83.83,0,0,0,.14.22l21,95.7-93.38,29.68H2000a.45.45,0,0,0-.16,0l-93.38-29.68,21-95.7a.83.83,0,0,0,.14-.22v0l72.39-66Zm-70.91-67.38,46.86-42.73,23.42,106.83Zm-76.86,67.4-82.69,75.41L1734.19,923l-24-109.31Zm-214.89-70.4-13.87-63.25,61.71-19.62L1922.64,879.1Zm194.84,165.72-60.44-19.21,80.81-73.69Zm1.48,2.57,90.65,28.82-104.23,33.13Zm-63.62-20.22,61.71,19.62-13.87,63.25L1677.36,1110Zm47.35,85.12-24,109.31-107.74,34.25-82.69-75.41Zm2.2-.7,106.65-33.9-48.18,219.75-82.68-75.41Zm36.26-165.39,23.42-106.83,46.86,42.73Zm-2.25.92L1759.77,727.85,1866.42,694,1950,770.13ZM1755.87,727l-60.44,19.21-20.37-92.9Zm-48.34,83.73L1603.3,777.59,1694,748.77ZM1708,813l24.21,110.44-82.68,75.41-48.18-219.75Zm-59.68,189.66,23.42,106.83-70.28-64.1Zm1.7-1.55,83.54-76.19,106.65,33.9L1674,1110.39Zm105.83,187.79-60.44,19.21-20.37-92.9Zm-48.34,83.73-104.23-33.13,90.65-28.82Zm-11.67-62.55,61.71-19.62L1922.64,1341l-212.91-67.68Zm63.91-20.32,106.65-33.9L1950,1232l-24,109.31Zm191.89,43.84,46.86,42.74-70.28,64.09Zm.5-2.25L2000,1013.08l47.84,218.24L2000,1275Zm96.18,2.25,23.42,106.83-70.28-64.09Zm1.7-1.55,83.54-76.19,106.65,33.9L2074,1341.33Zm-.49-2.26L2001.37,1010l106.65,33.9,24.21,110.44Zm-46.25-221.23L2094,979.71l13.58,62Zm71.76-124.29,80.81,73.69-60.44,19.21Zm-1-4.8-24-109.31L2133.58,694l106.65,33.9Zm-26.17-110L2000,813.07l-47.84-43.63L2000,551.2Zm-97.39-1.56-82.68-75.41L1892,582l106.65-33.9Zm-58-188.1,13.58-61.95,90.65,28.82Zm12.1-64.52-60.44-19.21,80.81-73.69Zm-64.34-18.35L1674,648.5l-24-109.31L1733.58,463ZM1671.76,647.58l-70.28-64.1,46.86-42.73Zm.63,3.28v0a.74.74,0,0,0,.14.23l21,95.7-93.37,29.68h-.3l-93.37-29.68,21-95.7a.74.74,0,0,0,.14-.23v0l72.39-66Zm-144.15-3.28,23.42-106.83,46.86,42.73Zm-2.25.92L1359.77,496.91,1466.42,463,1550,539.19ZM1355.87,496.05l-60.44,19.21-20.37-92.9Zm-48.34,83.73L1203.3,546.65,1294,517.83ZM1308,582l24.21,110.44-82.68,75.41-48.18-219.75Zm-60.18,187.41L1200,813.07l-47.84-43.63L1200,551.2Zm-97.39-1.56-82.68-75.41L1092,582l106.65-33.9Zm-58-188.1,13.58-61.95,90.65,28.82Zm12.1-64.52-60.44-19.21,80.81-73.69Zm-64.34-18.35L874,648.5,850,539.19,933.58,463ZM871.76,647.58l-70.28-64.1,46.86-42.73Zm.63,3.28v0a1.26,1.26,0,0,0,.13.23l21,95.7-93.37,29.68h-.3l-93.37-29.68,21-95.7a1.26,1.26,0,0,0,.13-.23v0l72.39-66Zm-144.15-3.28,23.42-106.83,46.86,42.73Zm-2.25.92L559.77,496.91,666.42,463,750,539.19ZM555.87,496.05l-60.44,19.21-20.37-92.9Zm-48.34,83.73L403.3,546.65,494,517.83ZM508,582l24.21,110.44-82.68,75.41L401.37,548.13ZM447.84,769.44,400,813.07l-47.84-43.63L400,551.21Zm-97.88.7L326,879.45,159.77,727.85,266.42,694Zm-45.39,207-60.44-19.21,80.81-73.69Zm1.48,2.57,90.65,28.82-104.23,33.13Zm92.58,30.3-48.18,219.75-82.68-75.41L292,1043.91ZM350,1232l-24,109.31-166.22-151.6,106.65-33.9Zm1.7,1.55,46.86,42.74-70.28,64.09Zm.5-2.25L400,1013.09l47.84,218.23L400,1275Zm96.18,2.25,23.42,106.83-70.28-64.09ZM450,1232l83.54-76.19,106.65,33.9L474,1341.33Zm57.49,271.52L403.3,1470.41,494,1441.6Zm-32.47-157.42,80.81,73.69L495.43,1439Zm20.8,94.87,61.71-19.62,165.07,150.55-212.91-67.68Zm-20.48-97.29,214.4-68.15-24,109.31-107.74,34.25ZM692,1274.85,798.63,1241,750.45,1460.7l-82.68-75.41Zm14.5-66.16,21-95.7a.78.78,0,0,0,.12-.22l0,0,72.39-66,72.39,66,0,0a.78.78,0,0,0,.12.22l21,95.7-93.38,29.68h-.28ZM908,1274.85l24.21,110.44-82.68,75.41L801.37,1241Zm2.2.7,214.4,68.15-82.69,75.41-107.74-34.25Zm132.21,145.82,61.71,19.62-13.87,63.25-212.91,67.68Zm63.62,20.22,90.65,28.82-104.23,33.13Zm-1.48-2.57-60.44-19.21,80.81-73.69Zm-144.8-249.29,106.65-33.9L1150,1232l-24,109.31Zm191.89,43.84,46.86,42.74-70.28,64.09Zm.5-2.25L1200,1013.08l47.84,218.24L1200,1275Zm96.18,2.25,23.42,106.83-70.28-64.09Zm1.7-1.55,83.54-76.19,106.65,33.9L1274,1341.33Zm57.49,271.52-104.23-33.13,90.65-28.82Zm-32.47-157.42,80.81,73.69L1295.43,1439Zm20.8,94.87,61.71-19.62,165.07,150.55-212.91-67.68Zm-20.48-97.29,214.4-68.15-24,109.31-107.74,34.25Zm216.6-68.85,106.65-33.9-48.18,219.75-82.68-75.41Zm14.5-66.16,21-95.7a.61.61,0,0,0,.13-.22l0,0,72.39-66,72.39,66,0,0a.61.61,0,0,0,.13.22l21,95.7-93.38,29.68h-.28ZM1708,1274.85l24.21,110.44-82.68,75.41L1601.37,1241Zm2.2.7,214.4,68.15-82.69,75.41-107.74-34.25Zm214.72,70.57-20.37,92.9-60.44-19.21Zm-82.51,75.25,61.71,19.62-13.87,63.25-212.91,67.68Zm63.62,20.22,90.65,28.82-104.23,33.13Zm.43-2,21-95.69a.76.76,0,0,0,.13-.23l0,0,72.39-66,72.39,66,0,0a.76.76,0,0,0,.13.23l21,95.69-93.38,29.68h-.28ZM2108,1505.79l24.21,110.44-82.68,75.41-48.18-219.75Zm2.2.7,214.4,68.15-82.69,75.41-107.74-34.25Zm-.49-2.25L2095.86,1441l61.71-19.62,165.07,150.55Zm-34.35-160.54,214.4-68.15-24,109.31-107.74,34.25Zm2-2.72,165.07-150.55,61.71,19.62-13.87,63.25Zm164.57-152.81-107.74-34.25-24-109.31,214.4,68.15Zm-132.2-145.81-13.87-63.25,61.71-19.62L2322.64,1110Zm-34.35-160.54,214.4-68.15-24,109.31-107.74,34.25Zm2-2.72,165.07-150.55,61.71,19.62-13.87,63.25Zm164.57-152.81L2134.19,692l-24-109.31,214.4,68.15Zm-132.2-145.81-13.87-63.25,61.71-19.62,165.07,150.55Zm-34.35-160.54,214.4-68.15-24,109.31-107.74,34.25Zm2-2.72,165.07-150.55,61.71,19.62-13.87,63.25Zm164.57-152.81-107.74-34.25-24-109.31L2324.62,189Zm-1.7,1.56L2074,417.56l-24-109.31,83.54-76.18ZM2071.76,416.64l-70.28-64.1,46.86-42.73Zm.63,3.28v0a.74.74,0,0,0,.14.23l21,95.7-93.37,29.68h-.3l-93.37-29.68,21-95.7a.74.74,0,0,0,.14-.23v0l72.39-66Zm-144.15-3.28,23.42-106.83,46.86,42.73Zm-2.25.92L1759.77,266l106.65-33.9L1950,308.25Zm-60.18-187.4-107.74,34.25L1675.38,189l214.4-68.15Zm-109.94,35-60.44,19.21-20.37-92.9Zm-48.34,83.73L1603.3,315.71,1694,286.89Zm.49,2.25,24.21,110.44-82.68,75.41-48.18-219.75ZM1647.84,538.5,1600,582.13l-47.84-43.63L1600,320.26Zm-97.39-1.56-82.68-75.41L1492,351.09l106.65-33.9Zm-58-188.1,13.58-61.95,90.65,28.82Zm12.1-64.52-60.44-19.21,80.81-73.69Zm-62.64-19.91-107.74-34.25-24-109.31L1524.62,189Zm-1.7,1.56L1274,417.56l-24-109.31,83.53-76.18ZM1271.76,416.64l-70.28-64.1,46.86-42.73Zm.63,3.28v0a.74.74,0,0,0,.14.23l21,95.7-93.37,29.68h-.3l-93.37-29.68,21-95.7a.74.74,0,0,0,.14-.23v0l72.39-66Zm-144.15-3.28,23.42-106.83,46.86,42.73Zm-2.25.92L959.77,266l106.65-33.9L1150,308.25Zm-60.18-187.4L958.07,264.41,875.38,189l214.4-68.15Zm-109.94,35-60.44,19.21-20.37-92.9Zm-48.34,83.73L803.3,315.71,894,286.89Zm.49,2.25,24.21,110.44-82.68,75.41L801.37,317.19ZM847.84,538.5,800,582.13,752.16,538.5,800,320.27Zm-97.39-1.56-82.68-75.41L692,351.09l106.65-33.9Zm-58-188.1,13.58-61.95,90.65,28.82Zm12.1-64.52-60.44-19.21,80.81-73.69Zm-62.64-19.91L534.19,230.16l-24-109.31L724.62,189Zm-1.7,1.56L474,417.56,450,308.25l83.54-76.18ZM471.76,416.64l-70.28-64.1,46.86-42.73Zm.63,3.28v0a1.26,1.26,0,0,0,.13.23l21,95.7-93.38,29.68h-.28l-93.38-29.68,21-95.7a1.26,1.26,0,0,0,.13-.23v0l72.39-66Zm-144.15-3.28,23.42-106.83,46.86,42.73Zm-2.25.92L159.77,266l106.65-33.9L350,308.25Zm-60.18-187.4L158.07,264.41,75.38,189l214.4-68.15Zm56.83,187.06L109.73,349.54,95.86,286.29l61.71-19.62Zm2,2.72-82.69,75.41L134.19,461.1l-24-109.31Zm-82.19,77.67,61.71,19.62-13.87,63.25L77.36,648.16Zm47.35,85.12L265.81,692,158.07,726.29,75.38,650.88ZM322.64,879.1,109.73,811.42,95.86,748.17l61.71-19.62Zm2,2.72-82.69,75.41L134.19,923l-24-109.31Zm-82.19,77.67,61.71,19.62-13.87,63.25L77.36,1110Zm47.35,85.12-24,109.31-107.74,34.25-82.69-75.41ZM322.64,1341,109.73,1273.3l-13.87-63.25,61.71-19.62Zm2,2.72-82.69,75.41-107.74-34.25-24-109.31Zm-82.19,77.67L304.14,1441l-13.87,63.25L77.36,1571.92Zm47.35,85.12-24,109.31-107.74,34.25-82.69-75.41Zm2.2-.7,106.65-33.9-48.18,219.75-82.68-75.41Zm14.5-66.16,21-95.7a.78.78,0,0,0,.12-.22l0,0,72.39-66,72.39,66,0,0a.78.78,0,0,0,.12.22l21,95.7-93.38,29.69h-.28ZM508,1505.79l24.21,110.44-82.68,75.41-48.18-219.75Zm2.2.7,214.4,68.15-82.69,75.41L534.19,1615.8Zm214.72,70.57L704.57,1670l-60.44-19.21ZM559.77,1420.67l106.65-33.9L750,1463l-24,109.31Zm191.89,43.84,46.86,42.74-70.28,64.09Zm.5-2.25L800,1244l47.84,218.23L800,1505.89Zm96.18,2.25,23.42,106.83-70.28-64.09ZM850,1463l83.54-76.19,106.65,33.9L874,1572.27Zm25.34,111.68,214.4-68.15-24,109.31-107.74,34.25Zm80.49,76.11L895.43,1670l-20.37-92.9Zm136.11-145,106.65-33.9-48.18,219.75-82.68-75.41Zm14.5-66.16,21-95.69a.76.76,0,0,0,.13-.23l0,0,72.39-66,72.39,66,0,0a.76.76,0,0,0,.13.23l21,95.69-93.38,29.68h-.28ZM1308,1505.79l24.21,110.44-82.68,75.41-48.18-219.75Zm2.2.7,214.4,68.15-82.69,75.41-107.74-34.25Zm214.72,70.57-20.37,92.9-60.44-19.21Zm-165.17-156.39,106.65-33.9L1550,1463l-24,109.31Zm191.89,43.84,46.86,42.74-70.28,64.09Zm.5-2.25L1600,1244l47.84,218.24L1600,1505.89Zm96.18,2.25,23.42,106.83-70.28-64.09Zm1.7-1.55,83.54-76.19,106.65,33.9L1674,1572.27Zm25.34,111.68,214.4-68.15-24,109.31-107.74,34.25Zm80.49,76.11L1695.43,1670l-20.37-92.9Zm136.11-145,106.65-33.9-48.18,219.75-82.68-75.41Zm60.18,187.41L2000,1475l47.84,218.24L2000,1736.83Zm49.32,45,46.86-42.74,23.42,106.83Zm72.53,65-24-109.31,83.54-76.19,106.65,33.9Zm216.26-68-212.91,67.68,165.07-150.55,61.71,19.62Zm106.43-33.83-104.23,33.13,13.58-62ZM2304.57,1670l-60.44-19.21,80.81-73.69Zm21.42-97.69-166.22-151.6,106.65-33.9L2350,1463Zm72.53-65-70.28,64.09,23.42-106.83Zm-48.07-46.55-82.68-75.41L2292,1274.85l106.65-33.9Zm46.25-221.23-104.23,33.13,13.58-61.95Zm-92.13-31.39-60.44-19.21,80.81-73.69Zm21.42-97.69-166.22-151.6,106.65-33.9,83.54,76.19Zm72.53-65-70.28,64.1,23.42-106.83Zm-48.07-46.54-82.68-75.41L2292,813l106.65-33.9Zm46.25-221.23-104.23,33.13,13.58-62Zm-92.13-31.39L2244.13,727l80.81-73.69ZM2326,648.5,2159.77,496.91,2266.42,463,2350,539.19Zm72.53-65-70.28,64.1,23.42-106.83Zm-48.07-46.54-82.68-75.41L2292,351.09l106.65-33.9Zm46.25-221.23-104.23,33.13,13.58-61.95Zm-92.13-31.39-60.44-19.21,80.81-73.69Zm47.09-205.45,46.86,42.73-70.28,64.1ZM2266.42,1.13,2350,77.31l-24,109.31L2159.77,35Zm-108.85,34.6,165.07,150.55L2109.73,118.6l-13.87-63.26ZM2094,56l13.58,62L2003.3,84.77Zm14.07,64.2,24.21,110.44L2049.55,306,2001.37,86.25ZM2000,89.32l47.84,218.23L2000,351.19l-47.84-43.64ZM1950.45,306l-82.68-75.41L1892,120.15l106.65-33.9Zm-44.4-250,90.65,28.82L1892.47,117.9Zm-63.62-20.22,61.71,19.61-13.87,63.26-212.91,67.68ZM1733.58,1.13,1840.23,35,1674,186.62l-24-109.31Zm-85.24,77.74,23.42,106.83-70.28-64.1ZM1672.39,189a0,0,0,0,0,0,0,.74.74,0,0,0,.14.23l21,95.7-93.38,29.68h-.28l-93.38-29.68,21-95.7a.74.74,0,0,0,.14-.23,0,0,0,0,0,0,0L1600,123ZM1551.66,78.87l46.86,42.73-70.28,64.1ZM1466.42,1.13,1550,77.31l-24,109.31L1359.77,35Zm-108.85,34.6,165.07,150.55L1309.73,118.6l-13.87-63.26ZM1294,56l13.58,62L1203.3,84.77Zm14.07,64.2,24.21,110.44L1249.55,306,1201.37,86.25ZM1200,89.32l47.84,218.23L1200,351.19l-47.84-43.64ZM1150.45,306l-82.68-75.41L1092,120.15l106.65-33.9Zm-44.4-250,90.65,28.82L1092.47,117.9Zm-63.62-20.22,61.71,19.61-13.87,63.26L877.36,186.28ZM933.58,1.13,1040.23,35,874,186.62l-24-109.31ZM848.34,78.87,871.76,185.7l-70.28-64.1Zm24,110.11a0,0,0,0,0,0,0,1.26,1.26,0,0,0,.13.23l21,95.7-93.38,29.68h-.28l-93.38-29.68,21-95.7a1.26,1.26,0,0,0,.13-.23,0,0,0,0,0,0,0L800,123ZM751.66,78.87l46.86,42.73-70.28,64.1ZM666.42,1.13,750,77.31,726,186.62,559.77,35ZM557.57,35.73,722.64,186.28,509.73,118.6,495.86,55.35ZM494,56l13.58,62L403.3,84.77ZM508,120.15l24.21,110.44L449.55,306,401.37,86.25ZM400,89.33l47.84,218.23L400,351.19l-47.84-43.63ZM350.45,306l-82.68-75.41L292,120.15l106.65-33.9ZM306.05,56,396.7,84.77,292.47,117.9ZM242.43,35.73l61.71,19.62L290.27,118.6,77.36,186.28ZM1.48,121.6,48.34,78.87,71.76,185.7ZM50.05,77.31,133.58,1.13,240.23,35,74,186.62Zm25,114.11,80.81,73.69L95.43,284.32ZM94,286.89l13.58,61.95L3.3,315.71ZM1.37,317.19,108,351.09l24.21,110.44L49.55,536.94Zm.11,266.29,46.86-42.73L71.76,647.58ZM50,539.19,133.58,463l106.65,33.9L74,648.5Zm25,114.11L155.87,727,95.43,746.2ZM94,748.77l13.58,62L3.3,777.59ZM1.37,779.07,108,813l24.21,110.44L49.55,998.82Zm.11,266.29,46.86-42.73,23.42,106.83ZM50,1001.08l83.54-76.19,106.65,33.9L74,1110.39Zm25,114.1,80.81,73.69-60.44,19.21ZM94,1210.65l13.58,61.95L3.3,1239.47ZM1.37,1241,108,1274.85l24.21,110.44L49.55,1460.7Zm.11,266.3,46.86-42.74,23.42,106.83ZM50,1463l83.54-76.19,106.65,33.9L74,1572.27Zm25,114.1,80.81,73.69L95.43,1670ZM3.3,1701.35,94,1672.54l13.58,61.94Zm106.43,33.83-13.87-63.25,61.71-19.62,165.07,150.55Zm216.26,68-166.22-151.6,106.65-33.9L350,1693.9Zm2.25-.93,23.42-106.83,46.86,42.74Zm23.92-109.08L400,1475l47.84,218.23L400,1736.83Zm49.32,45,46.86-42.74,23.42,106.83Zm72.53,65-24-109.31,83.53-76.19,106.65,33.9Zm216.26-68-212.91,67.68,165.07-150.55,61.71,19.62Zm2.2-.7,13.58-62,90.65,28.82Zm107.67-34.22h-.28l-93.38-29.69,21-95.7a1.16,1.16,0,0,0,.13-.22,0,0,0,0,1,0,0l72.39-66,72.39,66a0,0,0,0,1,0,0,1.16,1.16,0,0,0,.13.22l21,95.7Zm3.16,1.09L894,1672.53l13.58,62Zm106.43,33.83-13.87-63.25,61.71-19.62,165.07,150.55Zm216.26,68-166.22-151.6,106.65-33.9L1150,1693.9Zm2.25-.93,23.42-106.83,46.86,42.74Zm23.92-109.08L1200,1475l47.84,218.24L1200,1736.83Zm49.32,45,46.86-42.74,23.42,106.83Zm72.53,65-24-109.31,83.53-76.19,106.65,33.9Zm216.26-68-212.91,67.68,165.07-150.55,61.71,19.62Zm2.2-.7,13.58-62,90.65,28.82Zm107.67-34.23h-.28l-93.38-29.69,21-95.7a.83.83,0,0,0,.14-.22s0,0,0,0l72.39-66,72.39,66s0,0,0,0a.83.83,0,0,0,.14.22l21,95.7Zm3.16,1.1,90.65-28.82,13.58,62Zm106.43,33.83-13.87-63.25,61.71-19.62,165.07,150.55Zm50-83.57,106.65-33.9L1950,1693.9l-24,109.31Z" transform="translate(0 0)" style="fill:#fff"/></svg>