<svg id="Layer_1" xmlns="http://www.w3.org/2000/svg" viewBox="0 0 250 250"><style>.st1{fill:#6400fa}</style><path fill="none" d="M0 0h250v250H0z"/><path class="st1" d="M22.8 115.9c.4-1.4-.3-2.9-1.7-3.3H21c-.8-.3-1.6-.5-2.4-.7l.6-3.3h-2.1c-.3 1.1-.5 2.2-.7 3.2h-1.6c.2-1.1.4-2.2.6-3.2h-2.1c-.3 1.1-.5 2.2-.8 3.4H8.4c-.1.5-.1.8-.2 1.1s-.2.7-.2 1.1h.7c1.8.1 1.9.2 1.5 2-.4 2.1-.9 4.2-1.3 6.3-.1.7-.3 1.3-.4 2-.1.3-.3.6-.6.7-.6.1-1.1.2-1.7.1-.1 0-.2.1-.3.1l-.9 2.5h4.2c-.2 1.3-.4 2.3-.6 3.5h2.1l.8-3.3h1.6l-.6 3.3h2.1l.8-3.4c1.1-.1 2.2-.3 3.3-.6.8-.2 1.6-.7 2.2-1.2 1.3-1.1 2-2.7 2-4.4 0-.9-.5-1.8-1.3-2.3l-.8-.4c1.4-1.3 1.8-1.9 2-3.2zm-5.5 8.6c-.7.4-1.5.7-2.4.8-1 .1-2 .2-3 .2.3-1.6.6-3 1-4.7.9.1 1.8.1 2.6.2.7 0 1.4.1 2.1.4.8.7.9 1.9.2 2.7-.1.1-.3.2-.5.4zm.4-6.6c-1.3.8-2.7.7-4.3.8l.9-4.2c1-.1 2-.1 3 0 .7 0 1.3.5 1.5 1.2.1.9-.3 1.8-1.1 2.2zM169 116.2c-.2 0-.5.3-.6.5-.1.2-.2.4-.2.6-.7-.5-1.5-.9-2.4-1.2-1.3-.3-2.6 0-3.7.7-2.1 1.2-3.5 3.4-3.7 5.8-.2 2.1.5 4.7 2.8 5.3.6.1 1.2.1 1.8 0 .8-.2 1.6-.6 2.3-1l.3-.2v.4c-.9 2.9-3 3.4-6.2 1.3l-2.6 2.2c.6 1 1.5 1.6 2.6 1.9 1.7.3 3.4.3 5.1 0 1.2-.3 2.4-1 3.3-1.9.9-.9 1.6-2 2-3.3.2-.8.4-1.7.6-2.5s.4-1.9.6-2.8c.4-2 .8-4 1.3-6-1.3.2-2.3.1-3.3.2zm-3.7 8.1c-.7.5-1.7.4-2.2-.4-.2-.2-.3-.5-.3-.8-.2-1.1.2-2.3 1.1-3 .4-.6 1.2-.8 1.9-.5.6.3 1 1 .9 1.7-.1 1.3-.2 2.4-1.4 3zM91.8 124.1h-6.4c.2-.9.4-1.6.6-2.5h5.3c.2-1.2.4-2.3.7-3.6h-5.2c.2-.8.3-1.4.4-2.1h6.2c.3-1.3.5-2.5.8-3.8H83.6c-1.1 5.3-2.2 10.5-3.3 15.8H91c.3-1.2.5-2.5.8-3.8zM125 122c-.4 1.9-.8 3.9-1.2 5.9h4.2c.4-1.7.7-3.4 1-5.1l.5-2.5c.1-.4.2-.8.2-1.2 0-.4 0-.8-.1-1.2-.1-.5-.3-.9-.6-1.3-.4-.3-.8-.5-1.3-.6-1.3-.2-2.6.1-3.8.8-.3.2-.5.3-1 .6.4-2.1.8-3.9 1.2-5.8H120c-1.2 5.4-2.3 10.8-3.4 16.3h4.2c.1-.4.2-.9.3-1.3.3-1.6.6-3.1 1-4.7.2-.6.5-1.2 1-1.6.4-.4 1-.6 1.5-.5.7.2.5.9.4 1.5v.7zM144.3 116.4h-4.2l-.4 1.1c-1.3-1.6-3.6-2-5.4-.9-2.2 1.3-3.7 3.7-3.8 6.3-.2 2.3 1 4.8 3.4 5.3 1.3.2 2.6-.1 3.7-.9.3-.3.7-.5 1-.8.4 1.7 1.1 2 4 1.5.1-.7.3-1.3.4-2 .1-.5.4-1.2.2-1.4-.4-.5-.5-1.2-.3-1.8.1-.7.3-1.3.4-1.9.4-1.5.7-3 1-4.5zm-6.4 7.7c-.6.5-1.4.7-2.1.3-.7-.4-.9-1.1-.8-2 .1-1 .6-2 1.5-2.5.5-.4 1.1-.4 1.7-.2.5.3.8.8.9 1.3 0 .6 0 1.1-.2 1.7-.3.5-.6 1-1 1.4zM192.4 115.1c1.7-1 3.8-.4 4.8 1.3.1.1.2.3.2.5 0 .1.1.1.2.1l2.4-1.5c-.2-1.1-.9-2-1.8-2.7-1-.6-2.1-.9-3.3-.8-2.3 0-4.6 1-6.3 2.6-1.7 1.6-2.8 3.7-3.1 6-.3 2.3.5 4.6 2.1 6.2.9.7 2 1.2 3.1 1.3 1.5 0 3-.4 4.3-1.3h.4v1.2h2.4c.6-2.7 1.1-5.3 1.7-8.1h-5.6l-.5 2.2h3.1c-.3.6-.4 1.2-.7 1.4-.9.7-1.8 1.2-2.8 1.6-.9.3-1.8.2-2.6-.2-.8-.5-1.3-1.3-1.6-2.2-.5-1.9-.1-3.9 1-5.5.8-.9 1.6-1.6 2.6-2.1zM154.4 116c-1.3.1-2.6.6-3.6 1.4l-.1-1.2H147c-.8 3.9-1.6 7.8-2.5 11.7h4.3c.3-1.6.7-3.1 1-4.7.1-.7.3-1.4.5-2 .3-.5.7-.9 1.2-1.3.9-.6 1.6-.2 1.6.9 0 .5-.1 1-.2 1.4-.4 1.8-.8 3.7-1.2 5.6h4.3c.5-2.4 1.1-4.8 1.5-7.2.3-1.4.8-3.4-.6-4.3-.9-.3-1.7-.4-2.5-.3zm-3.9 1.4h.1l-.1.2v-.2zM232.9 115c.2-1.1.4-2.2.7-3.4h-3c-.4 2.1-.9 4.1-1.4 6.3-.9-1.3-2.4-1.9-4-1.8-1.6.3-2.9 1.1-3.9 2.4-1.8 2.2-2.6 5.8-.8 8.2.9 1.3 2.5 1.8 4.1 1.4 1.1-.4 2.2-.8 3.2-1.4.5 1.5 1 1.7 3.1 1.2.1-1 .8-1.9.1-3-.1-.2 0-.7.1-.9l.3-1.3c.2-.8.4-1.7.6-2.6l.9-5.1zm-6.3 10.1c-1.9 1.2-3.7.3-4-1.9-.1-1.4.5-2.8 1.6-3.7.9-1 2.4-1.1 3.5-.3.6.5.9 1.2.8 2-.2 1.4-.3 2.9-1.9 3.9zM182.6 122.4c1.3-.6 2.1-2 1.9-3.5-.1-1.3-1.1-2.4-2.4-2.7-2.7-.8-5.6-.1-7.7 1.9-2 1.9-3.1 5.5-1.4 8 1 1.3 2.5 2.1 4.1 2.1.6 0 1.1 0 1.7-.1 1.9-.4 3.6-1.4 4.8-3-1-.3-1.9-.7-2.8-.9-.3 0-.7.1-.9.3-.7.3-1.5 1-2.3.7-.6-.2-.7-1-.8-1.6 2-.2 4.1-.2 5.8-1.2zm-3.4-3.4c.5 0 1 .1 1.1.7s-.2.8-.7.9c-.7.1-1.4.2-2.2.3.4-1.3 1-1.9 1.8-1.9zM110.4 120c.6-.5 1.5-.5 2.1 0 .2.2.6.3.9.3.4-.1.8-.2 1.3-.3l2.6-.8c-.3-1.1-1-2-1.9-2.6-1-.5-2.1-.7-3.2-.6-2.1 0-4.1.9-5.5 2.5-1.5 1.6-2.1 3.8-1.8 6 .5 2.1 2.2 3.6 4.4 3.7 1.3.1 2.6-.1 3.7-.6 1.2-.6 2.3-1.5 3.1-2.6-.9-.3-1.7-.5-2.4-.8-.4-.2-.8-.3-1.2-.3-.4 0-.8.2-1.2.5-.5.4-1.2.3-1.6-.3 0-.1-.1-.1-.1-.2-.7-1.4-.3-3 .8-3.9zM56.2 116.1c-2.5 0-4.9 1.4-6.2 3.5-1.3 2.1-1.6 5.2.1 7.1 1.7 1.9 4.8 1.9 7 .7 2.3-1.2 3.8-3.5 3.9-6.1.1-1.3-.3-2.7-1.2-3.7-.9-1.1-2.2-1.6-3.6-1.5zm-.2 8.8c-.7.7-1.8.9-2.7.5-.8-.5-1.3-1.4-1.2-2.3 0-.9.2-1.8.7-2.7.5-.8 1.3-1.5 2.2-1.8 1-.3 2 .1 2.5.9.4.8.5 1.8.2 2.7-.2 1.2-.8 2.1-1.7 2.7zM208.8 122.5c-.1.8-.5 1.5-1.1 2.1-.6.6-1.4 1-2.3 1.1-.8-.1-1.4-.8-1.4-1.6v-.2c.2-1.1.4-2.2.7-3.3.3-1.4.6-2.8.9-4.3h-3c-.3 1.6-.7 3.2-1 4.8-.4 1.5-.7 3.1-.7 4.6-.1 1.3.8 2.4 2.1 2.5h.3c1.5.1 3-.4 4.2-1.3l.8-.6c.1 1.6.6 2.2 3.1 1.6.1-.7.1-1.3.2-1.9v-.9c-.1-.3-.1-.6-.1-.9.1-1.3.5-2.6.8-3.9l.8-4h-3c-.5 2.1-1 4.1-1.3 6.2zM77 116.1c-1.8-.1-3.6.7-4.9 2l.2-1.8h-2.6c-.8 3.9-1.6 7.7-2.4 11.6h3l.8-3.6c.1-.6.3-1.2.4-1.8.1-.5.2-1 .4-1.5.3-.8.9-1.4 1.6-1.8.6-.4 1.5-.8 2.2-.5.9.5.6 1.9.5 2.7-.4 2.1-.9 4.2-1.3 6.4h3c.5-2.3 1-4.5 1.4-6.7.2-1 .3-1.9.3-2.9.1-1.2-.8-2.2-1.9-2.3-.4.1-.6.1-.7.2zM238.3 123.1c1.5-.1 3-.3 4.4-.7 1.6-.4 2.5-1.9 2.3-3.5-.3-2.8-3.5-3.2-5.7-2.7-2.3.5-4.2 2-5.2 4.2-.6 1.3-.7 2.6-.5 4 .3 1.8 1.6 3.3 3.4 3.7 1.7.4 3.5 0 4.9-.9.9-.5 1.6-1.2 2.1-2.1l-2.2-.7c-.7 1.2-2.1 1.8-3.5 1.5-.6-.1-1.1-.5-1.3-1-.2-.6-.3-1.2-.3-1.8h1.6zm1.3-4.8c.5-.1 1-.1 1.6 0 .5.1.9.5.9 1 0 .6-.1 1.1-.7 1.3-.8.2-1.6.4-2.4.5h-2c.5-1.4 1.3-2.4 2.6-2.8zM45.8 119.9l2.8-.8c-.4-1.6-1.7-2.7-3.3-3-3.7-.6-7.2 1.7-8.2 5.3-.6 1.8-.3 3.7.8 5.2 1.2 1.3 2.9 1.8 4.6 1.5 2-.2 3.7-1.3 4.7-3-.7-.3-1.4-.5-2.1-.7-.4 0-.8.1-1.1.3-.4.2-.7.5-1 .7-1 .5-2.2 0-2.7-1-.1-.2-.1-.4-.2-.6-.2-1 0-2.1.4-3 1.2-2.4 3.4-2.8 5.3-.9zM34.2 118.6h2.3c.2-.8.3-1.5.5-2.3l-2.3-.1c.3-1.3.5-2.5.7-3.7h-3c-.3 1.3-.6 2.5-.9 3.7l-1.4.2-.4 2.1 1.3.3c-.4 2.3-1 4.5-1.4 6.8-.2.7 0 1.3.4 1.9.5.5 1.1.7 1.8.7 1.2.1 2.4-.2 3.5-.8v-2.3l-.8.2c-1.4.3-1.8 0-1.5-1.4.4-1.7.8-3.5 1.2-5.3zM61.6 127.9h3c.8-3.9 1.6-7.8 2.4-11.6h-3c-.8 3.9-1.6 7.7-2.4 11.6zM213.5 127.9h3c.8-3.9 1.6-7.7 2.5-11.6h-3c-.9 3.9-1.7 7.7-2.5 11.6zM22.9 128h3c.8-3.9 1.7-7.7 2.4-11.7h-3c-.8 3.9-1.6 7.7-2.4 11.7z"/><path class="st1" d="M132.1 129.1h-5.6l-9.6-.1h-.5l.3.6.3.3 3.6 4.6.3.3.3.5c-.2.3-.4.7-.7 1-.3.4-.6.7-1 1-.2 0-.4.1-.6.2-1.8 1.4-3.6 2.8-5.5 4.1l-3 2-.6.4-.4.3-.8.5-.3.2-.5.3-1.4.8-.7.3-.8.5c-.1 0-.2 0-.2.1l-.3.2-.4.2-.9.4-.5.2-3 1.1-.3.2-1.9.6-1 .3c-1.6.3-3.2.4-4.8.1-1.4-.3-2.7-1.2-3.4-2.5l-.2-.5c0-1.5-.1-2.9-.1-4.4.5-1.4.9-2.7 1.4-4.1s1.1-2.4 1.7-3.6c1.2-2.3 2.7-4.5 4.2-6.6.9-1.2 1.8-2.4 2.8-3.6 0 .1.1.1.2.1l.3.6c.2.6.4 1.3.7 1.8.1.2.4.4.6.4h3.9c-1-2.3-1.9-4.4-2.8-6.5 3.3-3.7 6.8-7.2 10.6-10.5 3.6-3.2 7.5-6.1 11.6-8.8 2.3-1.5 4.6-2.8 7.1-4 2.1-1.1 4.3-1.9 6.6-2.4 1.9-.5 3.9-.6 5.8-.2 1 .3 1.9 1 2.6 1.8.8 1.9.9 4.1.3 6.1-.5 2-1.3 4-2.2 5.8-.5 1-1.1 2.1-1.7 3.1l-.2.3-.2.3c0 .1-.1.1-.1.2l-.4.5.4.1h7.9l.1-.1c.6-.1.6-.6.8-1.1.9-2.1 1.8-4.1 2.6-6.2.7-2.1 1.1-4.3 1.1-6.5.1-1.6-.2-3.2-1-4.6-.8-1.3-1.9-2.3-3.3-2.9-1-.4-2-.6-3-.7-1.3-.1-2.6-.1-3.9 0-3.4.4-6.7 1.4-9.8 2.8-3 1.3-5.9 2.8-8.7 4.5-5.5 3.4-10.7 7.3-15.5 11.6-1.4 1.3-2.8 2.6-4.2 3.8s-3 2.8-4.5 4.1l-1.3-2.7h-4.2c.1.4.2.8.4 1.1.4 1 .9 1.9 1.3 2.9l.6 1.4c.2.5.3.9.4 1.4l-5.6 7.5c-2.5 3.6-4.6 7.5-6.1 11.7-.8 2.1-1.3 4.4-1.5 6.6-.2 1.9.2 3.9 1 5.6.9 1.6 2.4 2.8 4.1 3.3 1.1.3 2.2.5 3.3.5 3.6 0 7.2-.7 10.6-2.2l1.1-.5.5-.2.7-.3 1-.4.7-.4.4-.1.7-.4h.1l.4-.2.4-.1 1-.5.3-.3.3-.2.6-.3-.3-.4.3.4.5-.3.4-.2.7-.4 1.3-.8.6-.3.3-.2.3-.2.5-.3.3-.2 6.1-4.3.3-.2 4.1-3 4.7 5.9c.7-1.8 1.3-3.3 1.9-4.8s1.2-2.9 1.8-4.3l1.3-3.1 2.6-5.9-.2-.3-6.3.4zm-29.6 26.4l.5-.3-.5.3zm13.7-15l-.1-.1.1.1zm-4.9 3.3h.8-.8zM216.9 111.6l-.6 3h3c.2-1 .4-1.9.6-3h-3zM68 111.7h-3c-.2 1-.4 1.9-.6 2.9h3.1c.1-1 .3-1.9.5-2.9zM25.7 114.6h3c.2-1 .4-1.9.6-3h-3c-.2 1-.4 1.9-.6 3z"/></svg>