<svg id="Layer_1" xmlns="http://www.w3.org/2000/svg" viewBox="0 0 250 250"><style>.st1{fill:#6400fa}</style><path fill="none" d="M0 0h250v250H0z"/><path class="st1" d="M5 135.3v-24.2h27.9V139H8.6c-.5-.5-.9-1-1.4-1.4-.7-.8-1.5-1.6-2.2-2.3zm20.2-9.7c.9-.2 1.6-.8 1.9-1.6.2-.4.3-.8.4-1.2.2-1.2-.2-2.3-1.1-3.1-.5-.4-1-.8-1.6-1l-1.1-.5.8-3.2-2-.5c-.3 1-.5 2.1-.8 3.1l-1.5-.3.8-3.1c-.6-.2-1.3-.3-2-.5l-.8 3.2-3.9-1-.5 2.2.7.2.7.2c.5.1.9.6.8 1.1 0 .1 0 .1-.1.2 0 .2-.1.3-.1.5-.2.8-.4 1.6-.6 2.5-.3 1-.5 2-.8 3.1l-.6 2.4c-.1.3-.2.5-.5.7-.7.1-1.3-.3-1.9-.3l-1 2.2c.7.2 1.3.3 2 .5.7.1 1.3.3 1.9.5-.2 1.1-.6 2.1-.8 3.2l1.9.5.8-3.2 1.2.3.2.3v.5c-.1.4-.2.7-.3 1.1L17 136c.7.2 1.3.4 1.9.5.3-1.1.5-2.2.9-3.2l.4.1c.9.2 1.9.2 2.8.2 1.1 0 2.1-.5 2.8-1.3l.1-.1.2-.3.1-.1.4-.7h.1c.1-.2.2-.4.4-.6l-.1-.5v-.7c0-.3 0-.7-.1-1-.2-.6-.6-1.2-1.1-1.6l-.1-.1-.5-.3v-.7z"/><path class="st1" d="M26.8 130.6l.3-1.1.1.5c-.1.2-.2.4-.4.6.1 0 0 0 0 0zM17.6 132.5h.3c0 .3 0 .5-.1.7v-.5l-.2-.2zM25.2 125.7H25h.2zM25.9 126.1l-.1-.1.1.1zM26.3 131.4l.1-.1-.1.1zM26 131.9l.1-.1-.1.1zM25.2 125.6zM22.5 127.2c.8.7.8 1.8.2 2.6-.1.1-.2.2-.3.2-.4.2-.8.4-1.3.4-.8.1-1.6 0-2.4-.2-.4-.1-.9-.2-1.3-.3l-.4-.1 1.1-4.3c.3.1.6.1.8.2.9.2 1.8.5 2.6.9.3.1.6.3 1 .6zM22.9 123.7c-.4.2-.9.3-1.4.3-.7 0-1.3-.1-2-.3l-.9-.3 1-3.9 1.3.3c.7.2 1.4.5 2.1.9.6.4.9 1 .8 1.7 0 .5-.3.9-.7 1.2l-.2.1zM22.9 123.7l.1-.1-.1.1zM22.5 127.2zM220.7 111.3c-.1 1-.1 1.9-.1 3-2.7-2-5.9-3.2-9.2-3.5-3-.4-6.1.1-8.8 1.6-2.7 1.5-4.4 4.4-4.2 7.5.1 3.3 1.9 5.5 4.8 6.8.6.3 1.2.5 1.8.7 1.7.5 3.5.9 5.2 1.4.9.2 1.8.6 2.6 1s1.1 1.3.7 2c-.2.3-.5.6-.8.7-.5.3-1.1.4-1.7.4-2.7.2-5.4-.5-7.6-1.9-.7-.4-1.3-.9-2.1-1.3l-3.8 4.7c-.8-.3-.4-1-.4-1.5v-21.7h-7.8v27.7h7.8v-3c.1-.3.2-.6.4-.8.4.4.7.7 1.1 1 3 2.1 6.6 3.3 10.3 3.4 2.8.3 5.7-.3 8.2-1.6 2.7-1.5 4.4-4.4 4.3-7.5.1-3.1-1.8-5.8-4.7-6.8-1.8-.7-3.6-1.2-5.4-1.8-1.3-.4-2.7-.8-4-1.2-.7-.2-1.1-.9-1.1-1.6.1-.7.6-1.3 1.3-1.5.4-.1.9-.2 1.4-.2 2.4 0 4.7.7 6.8 2l1.2.7 3.6-5.1.1 3.3h8.4V139h7.7v-21h8.3v-6.6h-24.3zM179.5 125.5c-.5-.6-.7-.8-.9-1-3-3.9-6.1-7.8-9.1-11.7-.7-1.2-2-1.8-3.3-1.6-1.7.2-3.4 0-5.1 0v27.6h7.6v-14.5l.3-.1c.3.3.5.6.8.9 3 3.8 6.1 7.5 8.9 11.4 1.3 1.9 2.8 2.7 5 2.4 1.2-.2 2.4.2 3.6-.2v-27.4h-7.7l-.1 14.2zM58 125.7l-2.4-1.3c.3-.2.5-.3.7-.4 2.3-1.2 3.6-3.7 3.3-6.2-.1-2.5-1.8-4.7-4.1-5.6-1.5-.6-3.1-.9-4.8-.9H37c-.3 0-.6.1-.9.1v27.5c5.7 0 11.3.1 17 0 1.9-.1 3.8-.8 5.3-2 3.1-2.3 3.7-9-.4-11.2zm-14.5-8.5h5.2c.7.1 1.5.2 2.2.5.8.3 1.3 1.2 1.2 2 0 .9-.5 1.7-1.3 2-.4.2-.8.3-1.2.3h-6c-.2-1.5-.2-3.2-.1-4.8zm8.3 15c-.5.3-1.1.4-1.7.5-2.2.1-4.4 0-6.7 0v-5.1c2.4 0 4.6-.1 6.9 0 1.4-.1 2.6.9 2.8 2.3v.1c.2 1-.3 1.9-1.3 2.2zM144.7 114c-3.7-3.1-8.7-4.2-13.4-3-7.8 1.6-12.7 9.2-11.1 17 .4 1.9 1.2 3.7 2.3 5.3 3.2 4.5 7.8 6.4 13.3 6.2 8.1-.3 14.4-6.9 14.1-13.5-.1-5.5-1.7-9.2-5.2-12zm-2.7 11.6c0 2.9-1.9 5.6-4.7 6.5-3.8 1.3-7.8-.7-9.1-4.5-.2-.4-.3-.9-.3-1.4-.6-4 1.6-7.6 5.2-8.5.6-.2 1.1-.2 1.7-.3 4 0 7.3 3.3 7.3 7.4-.1.3-.1.5-.1.8z"/><path class="st1" d="M114.7 129.2c-.8.7-1.4 1.4-2.1 1.9-2.8 2.3-7 1.8-9.2-1.1-.3-.4-.6-.8-.8-1.2-.8-1.6-1-3.5-.7-5.2.3-2.5 1.9-4.6 4.3-5.5 2.4-1 5.2-.4 7.1 1.5.4.4.8.9 1.1 1.4l5.8-4.5c-2.9-4.9-9.6-7-15.6-5.4-7.8 2-12.4 10-10.4 17.7 1.2 4.6 4.6 8.3 9 9.9 5.8 2 13.3.5 17.2-5.5l-2.9-2.1-2.8-1.9zM94.2 111.2H70.1v6.7h8.3v20.9H86v-21h8.2v-6.6zM61.6 111.2v27.6h7.7v-27.6c-2.6 0-5.1-.1-7.7 0zM151.2 138.8h7.6v-27.5h-7.6v27.5z"/></svg>