<svg version="1.1" id="Layer_1" xmlns="http://www.w3.org/2000/svg" x="0" y="0" viewBox="0 0 250 250" xml:space="preserve"><style>.st1{fill-rule:evenodd;clip-rule:evenodd;fill:#6400fa}</style><path fill="none" d="M0 0h250v250H0z"/><path class="st1" d="M79.4 87.6c2-.5 4-.5 6-.3 2.2.3 4.4 1 6.3 2.3v5.2c-1.2-.9-2.4-1.7-3.8-2.3-1.8-.8-3.8-1.1-5.8-.9-.9.1-1.9.3-2.7.8-.5.3-1 .7-1.3 1.3-.4.7-.4 1.5-.3 2.3.1.7.5 1.3 1 1.7.7.6 1.5.9 2.4 1.3 1.8.6 3.5 1.3 5.3 1.9 1.5.6 3 1.3 4.2 2.4 1.2 1 2 2.4 2.3 3.9.3 1.5.4 3.2-.1 4.7-.4 1.4-1.2 2.6-2.3 3.6-1.2 1-2.6 1.7-4.1 2.1-2 .5-4.1.6-6.2.4-2.6-.3-5.2-1-7.3-2.5v-5.3c2.6 2.1 5.8 3.4 9.2 3.5 1.4 0 2.9-.1 4.2-.8.7-.4 1.3-1 1.6-1.7.3-.8.3-1.8 0-2.6s-1-1.5-1.7-1.9c-1.3-.8-2.8-1.2-4.2-1.7-1.7-.6-3.5-1.2-5.1-2.1-1.2-.7-2.3-1.6-3.1-2.8-1-1.6-1.3-3.6-1.1-5.4.2-1.7 1-3.4 2.3-4.6 1.3-1.5 2.8-2.2 4.3-2.5zM197.6 88.9c2-1.3 4.5-1.8 6.9-1.7 3 0 6 .8 8.5 2.4v5.2c-1.1-.8-2.2-1.6-3.5-2.1-2.1-1-4.6-1.3-6.9-1-1.2.2-2.6.8-3.2 1.9-.7 1.3-.4 3 .7 4 .9.8 2 1.1 3 1.5 1.7.6 3.5 1.3 5.2 1.9 1.5.6 3 1.4 4.2 2.7 1.1 1.1 1.7 2.6 1.9 4.1.2 1.6.2 3.4-.5 4.9-.5 1.3-1.5 2.5-2.7 3.3-1.4 1-3 1.5-4.6 1.8-2.3.4-4.7.3-6.9-.2-1.9-.4-3.7-1.1-5.3-2.2v-5.3c2 1.6 4.4 2.8 7 3.3 1.1.2 2.3.2 3.4.2 1.1-.1 2.3-.3 3.3-1 .8-.5 1.3-1.3 1.5-2.2.2-1 0-2.2-.7-3-.6-.7-1.5-1.2-2.4-1.6-1.4-.6-2.9-1.1-4.3-1.6s-2.8-1-4-1.7c-1.2-.7-2.2-1.6-2.9-2.8-.7-1.1-1-2.5-1.1-3.8-.1-1.2.1-2.4.5-3.6.5-1.4 1.6-2.6 2.9-3.4zM230.1 87.9c1.4-.5 2.9-.8 4.4-.7 3.1-.1 6.2.7 8.8 2.3.1 0 .1.2.1.3v5.1c-1.2-.9-2.5-1.7-3.9-2.3-1.8-.7-3.7-1-5.6-.9-1 .1-1.9.3-2.8.8-.6.3-1.1.9-1.4 1.5-.5 1.3-.2 2.9.9 3.8 1.2 1 2.7 1.3 4.1 1.9 1.7.6 3.4 1.2 5 1.9 1.5.7 2.9 1.7 3.8 3 1 1.4 1.5 3.2 1.4 5 0 1.6-.4 3.1-1.3 4.4-.9 1.3-2.2 2.3-3.6 3-1.5.7-3.2 1-4.9 1.1-1.9.1-3.8-.1-5.6-.5-1.7-.4-3.3-1.1-4.8-2.1-.1-1.8 0-3.6 0-5.3 2.6 2.1 5.9 3.4 9.2 3.5 1.4 0 3-.1 4.3-.8.7-.4 1.2-.9 1.5-1.7.3-.9.3-1.8 0-2.7-.3-.8-.9-1.4-1.7-1.9-1.3-.8-2.8-1.2-4.3-1.8-1.7-.6-3.5-1.2-5.1-2.1-1.3-.7-2.5-1.7-3.2-3-.8-1.4-1.1-3-1-4.6.1-1.5.5-2.9 1.4-4.1 1.2-1.6 2.7-2.6 4.3-3.1zM125.7 87.1c6.8 6.5 13.6 13 20.5 19.5V87.5h4.9v30.4c-4.6-4.5-9.2-8.9-13.8-13.4-2.2-2.1-4.4-4.3-6.7-6.5v19.4h-4.9V87.1zM5 87.6h7.8c1.8 0 3.7-.1 5.5.2 1.7.3 3.4.9 4.8 2.1 1.1.9 1.8 2.2 2.2 3.6.4 1.6.4 3.2-.1 4.8-.5 1.6-1.7 3.1-3.4 3.7.3.2.6.3.9.4 1.5.8 2.7 2.1 3.3 3.6.5 1.2.6 2.5.5 3.7-.1 1.6-.6 3.2-1.7 4.5-1.2 1.5-2.9 2.3-4.7 2.8-1.5.4-3.1.4-4.7.4H5V87.6zM9.9 92v8.2h6c1.3-.1 2.6-.3 3.6-1.2.7-.6 1.1-1.6 1.1-2.5.1-1-.1-2.1-.8-3-.6-.7-1.5-1.1-2.4-1.3-1-.2-2.1-.2-3.1-.2H9.9zm0 12.4v8.7h6.4c1.2 0 2.5-.2 3.5-.9.9-.6 1.5-1.5 1.7-2.5.2-1.1.1-2.3-.5-3.3-.5-.8-1.3-1.4-2.2-1.7-.8-.3-1.6-.4-2.5-.4-2.1.1-4.2.1-6.4.1zM37.3 87.6h5.1V103c0 1.8-.1 3.7.4 5.4.3 1.4 1.1 2.9 2.3 3.8 1.2.9 2.7 1.2 4.2 1.2s3.1-.3 4.3-1.2c1-.8 1.7-1.9 2.1-3.1.5-1.4.6-2.9.6-4.4V87.6h5.1v17.8c0 2.4-.4 5-1.6 7.1-1 1.9-2.7 3.4-4.7 4.3-2.2 1-4.7 1.3-7.2 1.1-1.7-.1-3.4-.6-4.9-1.4-1.1-.6-2.1-1.4-2.9-2.3-1-1.1-1.6-2.5-2.1-3.9-.5-1.6-.7-3.3-.6-5-.1-5.9-.1-11.8-.1-17.7zM106.3 87.6h5.1v29.9h-5.1c0-10-.1-19.9 0-29.9zM164.5 87.6h18.1v4.5h-13.1v7.2h11.7v4.4h-11.7v9.2h13.1v4.6h-18.1V93.3v-5.7zM44.4 132.5c6.8 6.4 13.6 12.8 20.3 19.2v-18.8h4.8v29.9c-6.8-6.5-13.5-13-20.3-19.6v19.1h-4.9c.1-9.8.1-19.8.1-29.8zM86.8 133.6c1.9-.9 4.1-1.2 6.2-1.1 2.8.1 5.6.9 8 2.4v5.2c-1.2-.9-2.5-1.7-3.8-2.2-1.8-.7-3.8-1-5.8-.9-.9.1-1.9.3-2.7.8-.6.4-1.1.9-1.4 1.6-.4 1.1-.2 2.5.7 3.4.7.7 1.6 1.1 2.5 1.4 1.8.6 3.6 1.3 5.3 1.9 1.4.5 2.8 1.2 4 2.2 1.1 1 2 2.2 2.4 3.7.4 1.5.5 3 .1 4.5-.3 1.4-1 2.7-2.1 3.7-1.1 1.1-2.5 1.8-4 2.2-1.8.5-3.8.6-5.7.5-2-.1-3.9-.6-5.8-1.3-.8-.3-1.6-.7-2.3-1.2v-5.2c2.6 2.1 5.8 3.4 9.2 3.4 1.4 0 2.9-.1 4.2-.8.7-.4 1.4-1.1 1.6-1.9.2-.8.2-1.7-.1-2.5-.3-.8-1-1.4-1.8-1.9-1.3-.7-2.7-1.2-4.1-1.7-1.6-.6-3.2-1.1-4.7-1.9-1.3-.7-2.6-1.7-3.4-3-.8-1.3-1.1-2.9-1.1-4.4 0-1.4.4-2.9 1.2-4.1.9-1.3 2.1-2.2 3.4-2.8zM25 133h5.1v29.4H25V133zM115.4 133h5v29.4h-5V133zM135.1 133h11.7c3 0 6.1.8 8.6 2.6 2.1 1.5 3.6 3.7 4.5 6.1.7 2 1 4.1 1 6.2 0 3-.7 6.1-2.4 8.6-1.4 2.1-3.5 3.8-5.8 4.7-1.8.7-3.8 1.1-5.8 1.1h-11.7c-.1-9.7-.1-19.5-.1-29.3zm5.1 4.4v20.5h4.8c1 0 2 0 2.9-.1 1.9-.2 3.7-.9 5.1-2.2 1.2-1.1 2-2.6 2.4-4.2.4-1.6.5-3.2.4-4.8-.1-1.5-.4-2.9-1-4.2-.6-1.3-1.5-2.4-2.6-3.2-1.3-1-2.9-1.4-4.5-1.6-1-.1-2-.1-2.9-.1-1.6-.1-3.1-.1-4.6-.1zM171.4 133h18v4.4h-13v7.1h11.7v4.3h-11.7v9.1h13v4.5h-18V133zM204.4 133h11c1.8 0 3.7.3 5.3 1.1 1.3.6 2.5 1.6 3.2 2.8.9 1.5 1.3 3.2 1.2 4.9 0 1.7-.3 3.5-1.2 5.1-.7 1.1-1.7 2-2.9 2.6-.9.4-1.8.6-2.8.8 3.5 4 7.1 8.1 10.6 12.1h-5.7c-3.4-4-6.9-8-10.3-11.9h-3.5v11.9h-5c.1-9.8.1-19.6.1-29.4zm5 4.3v9h5.8c1.3 0 2.7-.4 3.7-1.3.7-.6 1.1-1.5 1.2-2.4.2-1.1 0-2.3-.6-3.3-.6-.9-1.6-1.5-2.6-1.8-1.1-.3-2.2-.2-3.3-.2h-4.2z"/></svg>