<svg id="Layer_1" xmlns="http://www.w3.org/2000/svg" viewBox="0 0 250 250"><style>.st1{fill:#6400fa}</style><path fill="none" d="M0 0h250v250H0z"/><path class="st1" d="M245 133.8V149c0 2 0 2.1-2 2.1h-7c-2 0-2 0-2-2.1v-27.5c0-6.2-3.4-10.2-9.5-10.9-2.6-.3-5.3-.3-7.9 0-6.1.7-9.4 4.6-9.4 10.7v26.3c0 3.7 0 3.2-3.2 3.2h-6.1c-1.8 0-1.9-.1-1.9-2v-6.6c0-7.3.1-14.7 0-22-.2-12 10.1-20.8 20.2-21 4.2-.1 8.6-.3 12.6.6 8.6 2 14.1 7.6 16 16.4.2 1 .3 2.1.3 3.2-.1 4.9-.1 9.6-.1 14.4zM60.6 125c0-11-6.9-20.7-17.2-24.4-2.1-.7-2.6-2.3-1.4-4.1.3-.3.7-.6 1.1-.6 1.9-.1 3.8-.2 5.6-.2 1.4.1 2.9.2 4.3.1 5-.6 10.1.2 14.6 2.4 9.8 4.6 15.4 12.4 16.9 23.1 1.4 8.8-1.5 17.7-7.7 24-6.1 6.8-15.2 10.1-24.2 8.9-1-.1-2-.1-2.9.1-3.1.5-6.2.3-9.2-.6-3.6-1.2-5.8-4.8-5.1-8.6.6-3.5 1.4-7 2.1-10.4.1-.4.2-.9.3-1.3.1-.8-.3-.9-1-.6-.9.6-1.8 1.1-2.7 1.8-.5.5-1.2.4-1.7 0-.1-.1-.1-.2-.2-.3-2-2.6-2.1-2.8.7-4.6 1.7-1.1 3.4-2.3 5.1-3.4 2.9-1.9 4.9-1.4 6.9 1.5 1.3 2 2.6 4.1 3.9 6.1 1 1.6 1 1.6-.6 2.7-2.8 1.9-2.1 1.7-3.8-.8-.5-.7-1.1-1.3-1.7-1.9-.3.8-.6 1.6-.9 2.5-.6 2.8-1.1 5.6-1.7 8.4-.5 1.5 0 3.1 1.2 4.1 1.3 1 2.7.8 4 .1 10-5 14.9-13.1 15.3-24zm10.4 2c.1-8.3-2-13.9-6-18.7-2.6-3.2-6.1-5.5-10-6.9-.3 0-.7 0-1 .1.2.2.3.5.5.7 1.3 1.4 2.7 2.7 3.9 4.1 3.6 4.3 5.8 9.5 6.4 15 1.2 9.2-1.9 18.4-8.4 24.9-.4.4-.7.8-1.1 1.2-.1.1-.1.3-.1.4.1.1.3.1.4.1l1.5-.6c9-4.7 13.4-12.3 13.9-20.3zm9.6-.4c0-8.4-2.4-14.1-6.8-19.1-2.3-2.5-5-4.4-8.1-5.7-.2-.1-.5.1-.8.1l.3.6c.3.4.8.8 1.1 1.1 11.7 11.5 11.9 30.4.4 42.2l-.8.8c-.3.3-.6.5-.8.8-.1.1-.1.3-.1.4.1.1.2.1.4.1.5-.2 1-.4 1.4-.6 9-4.8 13.3-12.4 13.8-20.7zM175.1 101.1h11.8c2 0 2.1 0 2.1 2v7.3c0 1.8-.1 1.9-2 1.9h-20.9c-4.5-.2-8.5 2.6-9.9 6.9-.2.4-.3.9-.4 1.3 0 3.6-.4 7.3.1 10.8.7 5.2 4.8 8.3 10 8.4h20.2c2.8 0 2.8 0 2.8 2.9v6.4c0 2-.1 2.1-2.1 2.1h-21.4c-9.1-.1-15.3-4.6-19.1-12.6-1.4-2.8-2.1-5.9-2-9 .1-3.8-.2-7.7.6-11.3 1.8-8.6 7-14.4 15.7-16.7 1.3-.3 2.5-.4 3.8-.3 3.7-.1 7.2-.1 10.7-.1zM126.3 151c-4.2 0-8.5.1-12.7 0-4.4-.2-8.1-2.2-11.3-5.2-4.5-4.1-7-9.9-7.1-16-.2-4.2-.4-8.4.7-12.4 2.2-8 7.1-13.6 15.4-15.8 1.3-.3 2.5-.4 3.8-.4h22.3c2.2 0 2.3 0 2.3 2.3v6.6c0 2.2 0 2.3-2.4 2.3h-18.9c-8.1 0-12 3.9-12 12v5.2c-.1 5.6 4.5 10.2 10.1 10.3h21.8c1.1-.1 1.5.4 1.5 1.5 0 2.7-.1 5.4 0 8.2 0 1.3-.5 1.7-1.7 1.7h-11.6l-.2-.3z"/><path class="st1" d="M5 124.4c.6-10.4 5.4-19.1 14.8-25 1.4-.9 2.9-1.6 4.4-2.3 2.6-1.3 5.7-.8 7.8 1.1 2.3 1.8 3.3 4.9 2.6 7.7-.7 3.5-1.4 7-2 10.5 0 .5 0 1 .1 1.4.4-.1.8-.3 1.2-.5.5-.3.9-.6 1.3-.8.7-.3 1.9-1 2.1-.8.8.9 1.5 1.9 2 3 .1.2-.4.8-.7 1-2.4 1.6-4.7 3.3-7.2 4.8-1.7 1.2-4.1.8-5.4-.9-.1-.1-.1-.2-.2-.3-1.7-2.4-3.2-5-4.8-7.4-.5-.8-.3-1.2.4-1.7 2.5-2 2.7-2 4.4.7.4.7 1 1.3 1.5 1.9.4-.8.7-1.6.9-2.4.7-3 1.3-6.1 2-9.1.5-1.4 0-3-1.2-3.9-1.2-.9-2.8-1.1-4.1-.3-8.5 4-13.5 10.7-15.1 20-1.9 12.5 5.4 24.5 17.3 28.6.6.2 1.6.8 1.7 1.2 0 1.1-.3 2.2-.7 3.3-.1.2-1 .2-1.4.1-3.5-1-6.8-2.7-9.6-5C9.4 143.1 5.3 135 5 124.4z"/></svg>