<svg version="1.1" id="Layer_1" xmlns="http://www.w3.org/2000/svg" x="0" y="0" viewBox="0 0 250 250" xml:space="preserve"><style>.st1{fill:#6400fa}</style><path fill="none" d="M0 0h250v250H0z"/><path class="st1" d="M41.6 88.6C21.7 88.3 5 105.1 5 125.1c.2 20 16.4 36.2 36.4 36.4 20.2-.4 36.3-15.8 36.4-36.3S61.9 89 41.6 88.6zm14.6 20c2.5.2 4.3 2.5 4.1 4.9s-2.5 4.3-4.9 4.1c-2.5-.3-4.3-2.5-4.1-5 .1-2.5 2.4-4.3 4.9-4zm2.2 32.1c-5.2 4.9-12.5 6.8-19.5 5-11.4-2.8-18.4-14.3-15.6-25.8s14.3-18.4 25.8-15.6c.9.2 1.9.5 2.8.9.4.2.9.4 1.3.6 1.2.6 1.4 1.2 0 1.9-1.8.8-3 2.5-3.3 4.4-.2 1.7-1 1.8-2.3 1.3-2.7-.9-5.6-.7-8.1.4-6.3 2.6-9.3 10.5-6.3 16.3 3.6 6.9 11.1 9.1 17.4 5.2.8-.5 1.5-1.2 2.3-1.7 2.4-1.5 4.9-1.3 6.4.7s1.1 4.8-.9 6.4zM163 88.7c-12.9-.1-22.6 9.5-22.5 22.4s9.2 22.2 22.3 22.3 22.4-9 22.5-22S176 88.8 163 88.7zm-.2 35.7c-7.6-.1-13-5.6-13-13.4s5.6-13.3 13.1-13.3 13 5.7 13 13.5-5.5 13.3-13.1 13.2zM245 95.1c0-6.3 1.1-5.5-5.6-5.6-2.9 0-3 .2-3 3.1v18.1c-.1.7-.3 1.4-.5 2.1-.6-.4-1.2-.9-1.7-1.3-.2-.2-.4-.4-.6-.7-6-7-12-13.9-18-20.9-.8-.9-1.7-1.9-2.8-1.2-.6.3-.7 1.6-.8 2.5-.1 6.4 0 12.8 0 19.2V127c0 6.3-.9 5.7 5.9 5.7 2.7 0 2.9-.2 2.9-3v-16.3c.1-1 .2-2 .4-3 .9.6 1.7 1.3 2.5 2.1 5.8 6.4 11.5 12.8 17.3 19.2 1 .8 2.1 1.5 3.2 2l.9-3.6v-.9c-.1-11.3-.1-22.7-.1-34.1zM134 124.1c-.2-1.2-.8-1.5-2-1.2-1.7.5-3.5.9-5.3 1.1-3.6.5-7.3-.7-10-3.2-4.2-3.9-5.3-11.2-2.6-16.4s8-7.5 14.3-6.4c1.5.3 3.8 1 4.3.4.9-1 .7-3 .9-4.7 0-.4 0-.8.1-1.1.2-1.5-.4-2.3-1.9-2.7-7.6-2.2-14.6-1-20.8 4-7 5.6-9.5 16-6.3 25.1 3 8.6 10.6 13.7 21.1 13.9 1.5-.1 3-.2 4.4-.5 5.6-1.3 4.5-1.3 4.1-5.5 0-1-.1-1.9-.3-2.8zM196.5 89.5c-3 0-3 0-3 3.1v34.6c0 6.2-.8 5.6 5.7 5.6 2.7 0 2.9-.2 2.9-3v-18.6-16.3c-.1-6.1.5-5.3-5.6-5.4zM113.2 152.4c-.6-2.1-2.6-3.5-4.8-3.4-2.3 0-4.3 1.3-4.7 3.5-.3 2.5-.4 4.9-.4 7.4.1.6.6 1.1 1.1 1.3.4.1 1-.5 1.4-.9s.7-1.4 1.3-1.7c1.5-.7 2.9.1 3.9 1.6.3.5.9.7 1.4 1.1.3-.5.9-.9 1-1.5.1-.9.1-1.9 0-2.9h.2c0-1.4-.1-2.9-.4-4.5zm-4.7 3.8c-1.2 0-2.4 0-2.4-1.7s1-3 2.4-2.9 2.3 1.4 2.4 3-1.3 1.5-2.4 1.6zM240.9 149.6c-1.5-.2-3-.3-4.6-.2-.9-.1-1.7.5-1.8 1.4v4.7c0 1.5-.1 3.1.1 4.6 0 .5.7.9 1.1 1.3.5-.4.9-.8 1.2-1.3.2-.3.1-.8.1-1.1.4-1.6 1.3-1.8 2.4-.7.8.8 1.3 2 2.1 2.7.6.4 1.6.3 2.4.4 0-.7-.2-1.3-.5-1.9-1.1-1.4-1.2-2.4-.1-4 1.9-2.6.5-5.4-2.4-5.9zm.3 3.7c-.1.8-1.3 1.4-2.4 2.6-.8-1.2-1.5-1.8-1.6-2.6-.3-1.4.6-1.8 1.9-1.7 1.1.1 2.3.5 2.1 1.7zM193.7 149.1c-5.6.1-5.6.1-5.6 5.8v4.3c0 .9-.1 2.1 1.3 2.1s1.4-1 1.4-2c-.1-1.8 0-3.6.2-5.4.4-1 1.2-1.8 2.2-2.2 1.4-.4 2 .8 2.2 2 .1.9.2 1.9.3 2.8 0 1.2.1 2.5.2 3.7.1.4.9.9 1.4 1 .3 0 1-.7 1-1 .1-2.7-.1-5.3-.4-8-.5-1.9-2.3-3.2-4.2-3.1zM159.2 149.1c-3.4 0-6.2 2.7-6.2 6.1 0 3.5 2.8 6.2 6.3 6.2h.2c3.3 0 5.9-2.7 5.9-5.9v-.2c0-3.3-2.7-6.1-6.2-6.2.1 0 .1 0 0 0zm-.3 10c-2-.3-3.4-2.1-3.3-4.1.1-2 1.7-3.5 3.6-3.4h.2c2 .2 3.5 2 3.3 4-.2 2-1.8 3.4-3.8 3.5zM142.5 149.1c-1.7.1-4-.3-4.8.7-.9 1.1-.6 3.4-.8 5.1v.3c-.1 1.5 0 3 .1 4.6.1.6.8 1.1 1.2 1.6.4-.5 1.2-1 1.2-1.5.2-1.6.1-3.2.1-4.9s.5-3.1 2.4-3.3c1.4-.2 2.3 1 2.5 3.2.1 1.7 0 3.4.1 5.1 0 .5.7.9 1.1 1.4.5-.4 1.4-.9 1.4-1.4.1-2.5 0-4.9-.2-7.4-.4-2.1-2.2-3.5-4.3-3.5zM181.3 151.4c-.1-.7-.7-1.8-1.1-1.9-1.4-.2-1.3 1.1-1.3 2-.1.8 0 1.5 0 2.3.1 1.1-.1 2.3-.4 3.4-.5.9-1.4 1.4-2.4 1.6-.6 0-1.5-1-1.8-1.8-.3-1-.4-2-.4-3.1 0-1 0-2.1-.1-3.1-.1-.5-.8-.9-1.1-1.4-.5.5-1.3.9-1.4 1.4-.1 2.3 0 4.6.3 6.8.2 2 1.9 3.5 3.9 3.7 1.6.1 3.2.1 4.8-.1.5-.1 1.1-1 1.2-1.5.1-1.4.1-2.9.1-4.3-.1-1.3-.2-2.6-.3-4zM125.4 149.1c-5.3.4-5.3.4-5.3 5.8v.3c-.1 1.4-.1 2.9.1 4.3.1.6.8 1.2 1.3 1.8.5-.6.9-1.2 1.2-1.9.1-.8.1-1.5.1-2.3-.1-1.1 0-2.3.3-3.4.5-1 1.3-1.7 2.3-2 .6-.1 1.6 1 2 1.9.3.9.4 1.8.4 2.8 0 1.1 0 2.3.1 3.4.1.6.8 1 1.3 1.5.4-.4 1.1-.9 1.1-1.3.1-2.4.1-4.8-.1-7.1-.5-2.3-2.5-3.9-4.8-3.8zM225.4 158.9c-.7-.3-1.4-.7-2.1-1.1.5-.5 1.1-1 1.7-1.5.5-.3 1.2-.1 1.7-.3.4-.2.7-.6.8-1 0-.3-.4-.8-.8-1s-.8 0-1.1-.2c-.6-.4-1.1-.8-1.7-1.3l1.8-.9c.4-.1 1 .2 1.4 0 .4-.2.7-.5.9-.9.1-.4-.1-.8-.4-1-1.5-.9-3.4-1-4.9-.2-1.5.6-2.3 2.2-1.8 3.8.2.8.2 1.6 0 2.4-1.3 3.6.2 5.7 4.7 5.7.7-.1 1.5-.3 2.1-.6.4-.2.6-.9.8-1.3-.5-.3-1-.6-1.5-.8-.5-.1-1.1.4-1.6.2zM211.6 158.7c-1.4.6-3 .2-3.9-1-1.3-1.5-1.2-3.8.3-5.1.9-.8 2.1-1.1 3.2-.8.5.1.9.5 1.3.5.7 0 1.3-.1 2-.3-.3-.6-.4-1.4-.8-1.8-2.2-1.5-5.1-1.4-7.2.2-2.1 1.6-2.9 4.4-2.1 6.9.7 2.2 3.3 4 6.4 4.1.9-.3 1.9-.6 2.7-1.1.5-.3.7-1.1 1-1.7-.7-.2-1.3-.3-2-.4-.2 0-.6.3-.9.5z"/></svg>