<svg version="1.1" id="Layer_1" xmlns="http://www.w3.org/2000/svg" x="0" y="0" viewBox="0 0 250 250" xml:space="preserve"><style>.st1{fill:#6400fa}</style><path fill="none" d="M0 0h250v250H0z"/><path class="st1" d="M5 60.4v129.2h240V60.4H5zm94.6 74.1H46.7c.1 2.8.3 5.5.7 8.2.4 2.1 2.2 3.8 4.4 4 2.2.4 4.4.5 6.6.6 9.5.1 19 0 28.5 0h1.5V160h-2c-11.1-.1-22.2-.1-33.2-.3-4.2.1-8.4-1.2-11.8-3.6-3.6-2.6-5.8-6.7-6.2-11.1-.6-5.3-.8-10.6-.9-15.9-.1-6-.1-11.9.1-17.8.2-8.4 4.1-13.6 12.3-15.9 3.6-1 7.3-1.6 11-1.7 9.5-.2 19 .1 28.5.3 2 .1 3.9.5 5.8 1.2 4.5 1.7 6.8 5.4 7.2 9.9.5 6.8.5 13.6.6 20.4-.1 2.9-.2 5.9-.2 9zm11.8 15.3h49v10h-59c-.1-.2-.1-.4-.1-.6 0-7.1 0-14.1.1-21.2.1-2.1.4-4.2 1-6.2 1-4 4.3-7.1 8.4-7.8 4.1-.7 8.3-1.1 12.5-1.1 6.9-.2 13.8 0 20.7 0 4.5 0 6-1.4 6-5.9 0-2.1 0-4.2-.1-6.3-.1-3.8-1.6-5.2-5.4-5.3H122V93.6c.5 0 1-.1 1.4-.1 7.2 0 14.5-.1 21.7.1 4.3.1 8.3 1.2 11.3 4.6 2.4 2.7 3.7 6.2 3.8 9.8.3 5.3.2 10.6-.3 15.9-.5 5.9-4.3 9.2-10.1 9.9-1.9.2-3.8.3-5.7.4h-24.3c-1.3 0-2.6.1-3.8.3-2.6.4-4.3 1.7-4.4 4.4-.4 3.5-.2 7.1-.2 10.9zM216 103.6c-1 2.2-2.2 4.2-3.6 6.1-11.6 16.2-23.2 32.5-34.9 48.7-.7 1.1-1.9 1.7-3.2 1.6-3.9-.1-7.8 0-11.9 0l39.6-54.9h-39.9V93.6h1.6c15.1 0 30.2.2 45.3-.1 6.4-.1 9.1 5.3 7 10.1z"/><path class="st1" d="M82.6 105.4c-.5 0-1-.1-1.6-.1-5.6 0-11.2 0-16.8.1-3.8 0-7.6.1-11.3.4-2.8.1-5.1 2.3-5.5 5.1-.4 4.1-.4 8.2-.6 12.5H88v-12.2c0-4-1.5-5.5-5.4-5.8z"/></svg>