<svg version="1.1" id="Layer_1" xmlns="http://www.w3.org/2000/svg" x="0" y="0" viewBox="0 0 250 250" xml:space="preserve"><style>.st1{fill:#6400fa}</style><path fill="none" d="M0 0h250v250H0z"/><path class="st1" d="M144.1 115.6c-2.5 0-5 .6-7.2 1.8 0-6.4 0-12.3.2-14.3l-13.5 2.4v1.2l1.4.2c1.8.4 2.4 1.4 2.8 3.8.4 4.8.2 30.6 0 34.8 3.7.9 7.5 1.3 11.3 1.4 10.7 0 17.1-6.6 17.1-17.1 0-8.2-5.2-14.3-12.1-14.2zm-4.6 29.1c-.8 0-1.6 0-2.4-.2-.2-2.8-.4-14.7-.2-25.1 1-.4 2-.6 3-.6 4.4 0 6.8 5.2 6.8 11.7 0 7.9-3 14.2-7.2 14.2zM72.9 103.9H37.5v1.8l2 .2c2.6.4 3.6 2 4 5.8.5 8.8.5 17.7 0 26.6-.4 3.8-1.4 5.6-4 5.8l-2 .4v1.6h22.7v-1.6l-2.4-.4c-2.6-.2-3.6-2-4-5.8-.2-2.6-.4-6.8-.4-12.1l4.8.2c3 0 4.4 2.4 5 5.8H65V118h-1.8c-.6 3.4-2 5.8-5 5.8l-4.8.2c0-6.8.2-13.3.4-17.1h7c5.4 0 8.3 3.4 10.3 9.4l2-.6-.2-11.8z"/><path class="st1" d="M84.4 115.1c10.1 0 15.1 6.8 15.1 15.9 0 8.6-5.6 15.9-15.7 15.9s-15.1-6.8-15.1-15.9c0-8.7 5.6-15.9 15.7-15.9zm-.6 2c-4.4 0-5.6 6-5.6 13.9 0 7.6 2 13.9 6 13.9 4.6 0 5.8-6 5.8-13.9 0-7.6-2-13.9-6.2-13.9zM158.8 131.2c0-8.3 5.2-16.1 15.5-16.1 8.4 0 12.5 6.2 12.5 14.5h-18.7c-.2 7.4 3.4 12.9 10.7 12.9 2.5.1 4.9-.7 6.8-2.2l.8 1c-2.9 3.7-7.4 5.7-12.1 5.6-9.1 0-15.5-6.4-15.5-15.7zm9.2-3.8l9.4-.2c0-4-.6-10-4-10s-5.1 5.6-5.4 10.2zM210.7 116.8c-3-1.1-6.1-1.7-9.3-1.6-7.4 0-12.1 4.4-12.1 9.7 0 5.2 3.4 7.4 8.2 9 5 1.8 6.4 3.2 6.4 5.6s-1.8 4.6-5 4.6c-3.8 0-6.6-2.2-8.9-8.3l-1.4.4.2 8.9c3.4 1.2 7 1.8 10.7 1.8 7.8 0 12.9-4 12.9-10.3 0-4.2-2.2-6.6-7.4-8.7-5.6-2.2-7.6-3.6-7.6-6.2-.1-2.3 1.6-4.3 3.9-4.4h.3c3.6 0 6 2.2 7.8 7.6l1.4-.4-.1-7.7zM125.6 116c-3.4-2-9.4-1-12.7 6.2l.2-7-13.5 2.6v1.1l1.4.2c1.8.2 2.6 1.2 2.8 3.8.3 5.8.3 11.7 0 17.5-.2 2.4-1 3.6-2.8 3.8l-1.4.2v1.6h18.7v-1.6l-2.4-.2c-2-.2-2.6-1.4-2.8-3.8-.4-5.4-.4-10.9-.2-16.3 1-1.4 5.4-2.6 9.4 0l3.3-8.1z"/></svg>