<svg version="1.1" id="Layer_1" xmlns="http://www.w3.org/2000/svg" x="0" y="0" viewBox="0 0 250 250" xml:space="preserve"><style>.st1{fill:#6400fa}</style><path fill="none" d="M0 0h250v250H0z"/><path class="st1" d="M13.2 192.1v-27h4.4l17.1 21.2v-21.2h4.1v27h-4.4l-17.1-21.2v21.2h-4.1zM46.6 192.3v-27h22.1v3.9h-17v7.5h15.8v3.9H51.7v7.5h17.7v4.2H46.6zM97.1 165.3H72.4v4.1h10.1v22.8h4.7v-22.8h9.9zM98.8 165h5.8l6 21.4 6.5-21.4h5.5l6.6 21.6L135 165h5.5l-8.7 27.2h-5.2l-7-20.5-6.3 20.5h-5.6zM158.6 164.2c-8.3 0-15 4-15 14.5 0 8 4.6 14.5 15 14.5 9.8 0 15-6.5 15-14.5.1-10.1-6.7-14.5-15-14.5zm0 24.7c-6.7 0-9.6-4.6-9.6-10.2 0-7.4 4.3-10.2 9.6-10.2s9.6 3.1 9.6 10.2c0 5.7-3.3 10.2-9.6 10.2zM203.8 187.4c0-2.8.6-7.4-3.6-8.2 0 0 4.3-1 4.3-7.5S197 165 197 165h-17.7v27.2h5.5v-10.7h8.8c2.1-.4 4.1.9 4.6 2.9 0 .2.1.4.1.7.5 4.4-.1 5.7.9 7.1h5.7c-.7-1.5-1.1-3.1-1.1-4.8zm-8.9-10h-10v-8H195c2.2.1 3.9 1.9 3.9 4.1-.1 3.9-4 3.9-4 3.9zM210.7 165h5.3v13l13.2-13.2h7.3l-11.6 11.3 12.6 16.2h-7.3l-9.7-12.4-4.6 4.3v8.1h-5.2zM12.5 153.8h223.2v3.6H12.5zM34.3 57.5l-21.8.1V146h14.6v-32.8h9.8s10.9.6 10.9-12.6V74.2c-.1 0 1.6-16.7-13.5-16.7zm-1.5 17.2v21.7c0 4.5-3.2 4.5-3.2 4.5h-2.1V69.8c6.1 0 5.3 4.9 5.3 4.9zM84.7 88.5H71.1V71.8s.5-3.1-2.1-3.1-2.6 1.7-2.6 3.4v59s-.6 3.3 2.6 3.3c0 0 2 .4 2-3.2v-20.7h13.7V134s.2 12.7-16.9 12.7-17.2-14.6-17.2-17.3V73.2s-1.7-16.4 18.1-16.4c0 0 15.9-.5 15.9 14l.1 17.7zM218.9 146.7c-17 2.2-17.1-14.6-17.1-17.3V73.2s-1.8-16.4 18.1-16.4c0 0 15.9-.5 15.9 14v17.8h-13.6V71.8s.5-3.1-2.1-3.1-2.6 1.7-2.6 3.4v59s-.6 3.3 2.6 3.3c0 0 2 .2 2-3.1v-15.5h-3.3v-13.5h17.3v43.5h-7.4l-2.1-4.4c.1 0-2.6 4.7-7.7 5.3zM98.5 57.4V146h11.6V97.3l9.8 48.7h9.9l8.7-49v49h13.8V57.4h-20.5l-6.3 45.9-7.5-45.9zM185.6 146h14.9l-12-88.8h-19.3L157.1 146h15.4l2.5-24.3h8l2.6 24.3zm-9.3-36.6L179 84l2.7 25.4h-5.4z"/></svg>