<svg version="1.1" id="Layer_1" xmlns="http://www.w3.org/2000/svg" x="0" y="0" viewBox="0 0 250 250" xml:space="preserve"><style>.st1{fill:#6400fa}</style><path fill="none" d="M0 0h250v250H0z"/><path class="st1" d="M100.1 118.7l.3 1.8c.8-1.3 2.1-2 3.6-2.1.7-.1 1.4.1 2 .4v4.6h-3.2V122h-.6c-.7 0-1.3.3-1.7.9v6.5h1.2v2.5h-6.5v-2.5h.8v-7.8h-1v-2.8l5.1-.1zM18.3 117.1v6.1h1.9c1.1.2 2.2-.6 2.4-1.7v-2.1c.2-1.1-.6-2.1-1.7-2.3h-2.6zm2.5-2.8c4.1 0 6.3 1.5 6.3 5v1.3c0 3.7-2.4 5.3-6.5 5.3h-2.3v3.4h1.5v2.5h-7.3v-2.5h1.2V117h-1.2v-2.8l8.3.1zM36.7 126.8v-3c0-1.9-.7-2.7-2-2.7s-2.1.8-2.1 2.7v3c0 1.9.7 2.6 2.1 2.6s2-.8 2-2.6m4.5-2.7v2.1c0 4.2-2.6 5.9-6.5 5.9-3.7 0-6.6-1.7-6.6-5.6v-2.3c0-4.1 2.9-5.8 6.6-5.8 3.8 0 6.5 1.6 6.5 5.7M51.6 126.4v-2.3c0-2-.5-2.6-1.7-2.6-.9.1-1.8.5-2.3 1.3v5.6c.6.5 1.3.8 2 .8 1.1.1 1.9-.8 2-2.8m-4.2 7h1.1v2.6h-6.4v-2.5h.9v-12h-1v-2.8h5l.3 2c1-1.4 2.6-2.3 4.4-2.3 2.9 0 4.4 1.5 4.4 5.2v3.3c0 3.7-2.2 5.3-5 5.3-1.3-.1-2.6-.6-3.6-1.5l-.1 2.7zM66.5 129.9c-1.1 1.3-2.7 2.1-4.4 2.2-2.7 0-4.1-1.3-4.1-4.4v-6.2h-.8v-2.8h5.3v8.5c0 1.2.5 1.7 1.5 1.7 1-.1 1.8-.6 2.4-1.3v-6.1h-1v-2.8h5.5v10.6h1v2.5h-5l-.4-1.9zM78.5 114.3v15h.8v2.5h-6.2v-2.5h.9v-12.2h-1.1v-2.8zM88.3 128.7v-3l-1.2.2c-1.9.3-2.3.8-2.3 2 0 1 .3 1.6 1.6 1.6.7-.1 1.4-.3 1.9-.8m4.5-5.8v6.4h1v2.5h-5l-.3-1.4c-1 1.1-2.3 1.7-3.8 1.7-2.6 0-4.1-1.4-4.1-3.8v-.3c0-2.7 1.8-3.5 6.3-4.3l1.4-.2v-.6c0-1.3-.5-1.8-2.1-1.8-.5 0-1 .1-1.5.3v1.4h-3.4v-3.1c1.8-.8 3.7-1.2 5.6-1.2 4.4-.1 5.9 1.5 5.9 4.4M231.7 118.3c1.7-.1 3.4.2 5 .8v3.3h-3.2v-1.3c-.6-.3-1.2-.4-1.8-.3-1.4 0-1.7.4-1.7 1.2s.4 1 1.6 1.2l1.1.2c3.7.6 4.8 1.3 4.8 4.3s-1.9 4.5-5.8 4.5c-1.8 0-3.6-.3-5.2-1.1v-3.3h3.3v1.5c.6.2 1.3.3 1.9.2 1.3 0 2-.3 2-1.2s-.3-.9-1.9-1.1l-1.1-.2c-3.3-.5-4.4-1.5-4.4-4.3 0-3.4 2.3-4.3 5.4-4.4M212.9 124.2c0-4.2 2.9-5.8 6.4-5.8 1.9-.1 3.7.3 5.4 1.3v3.8h-3.4v-2c-.5-.3-1.1-.4-1.6-.3-1.8 0-2.2 1.1-2.2 3v2.1c0 2.3.6 3.2 2.1 3.2.6 0 1.2-.1 1.8-.3v-1.5h3.4v3.4c-1.7.8-3.6 1.2-5.4 1.1-4 0-6.4-1.9-6.4-5.9l-.1-2.1zM183 128.7v-3l-1.2.2c-1.9.3-2.2.8-2.2 2 0 1 .3 1.6 1.6 1.6.6-.1 1.3-.3 1.8-.8m4.5-5.8v6.4h1.1v2.5h-5l-.4-1.4c-1 1.1-2.3 1.7-3.8 1.6-2.5 0-4.1-1.4-4.1-3.8v-.2c0-2.7 1.8-3.5 6.3-4.3l1.4-.3v-.6c0-1.3-.5-1.8-2.1-1.8-.5 0-1 .1-1.5.2v1.4H176v-3.2c1.8-.8 3.7-1.2 5.6-1.2 4.3.2 5.9 1.8 5.9 4.7M131.4 114.3v2.8h-1.2v12.2h1.2v2.5h-7.2v-2.5h1.4v-9.4l-3 8.4h-2.4l-3.2-8.4v9.4h1.3v2.5h-5.9v-2.5h1.2v-12.2h-1.2v-2.8h6.6l2.8 7.9 3-7.9zM136.8 123.9h3.9v-.6c0-1.8-.6-2.3-1.9-2.3s-2 .6-2 2.4v.5zm7.9-.3v2.6h-7.9v.4c0 2.1.8 2.8 2.6 2.8.7 0 1.3-.1 1.9-.3v-1.4h3.4v3c-1.6 1-3.5 1.5-5.4 1.4-4.4 0-6.9-1.8-6.9-5.8v-2.2c0-3.4 2-5.8 6.4-5.8s5.9 1.7 5.9 5.3M146.4 124.2c0-4.2 2.9-5.8 6.4-5.8 1.9-.1 3.7.4 5.4 1.3v3.8h-3.4v-2c-.5-.3-1.1-.4-1.6-.3-1.8 0-2.2 1.1-2.2 3v2.1c0 2.3.6 3.2 2.1 3.2.6 0 1.2-.1 1.8-.3v-1.5h3.4v3.1c-1.6.9-3.5 1.4-5.4 1.3-4 0-6.4-1.9-6.4-5.9v-2zM165.1 114.3v6.3c1-1.4 2.6-2.2 4.3-2.2 2.5 0 3.9 1.2 3.9 4.3v6.7h.8v2.5h-6.4v-2.5h1.2v-6c0-1.2-.4-1.6-1.3-1.6-1 .1-1.9.5-2.5 1.3v6.3h1.2v2.5h-6.5v-2.5h.9V117h-1v-2.8l5.4.1zM194.7 118.7l.4 2c1.1-1.4 2.7-2.2 4.4-2.3 2.5 0 3.9 1.2 3.9 4.3v6.6h.8v2.5h-6.4v-2.5h1.2v-6c0-1.2-.4-1.6-1.3-1.6-1 .1-1.9.5-2.5 1.3v6.3h1.2v2.5h-6.5v-2.5h.9v-7.7h-1v-2.8l4.9-.1zM210.8 118.7v10.6h1v2.5h-6.3v-2.5h.9v-7.8h-1.1v-2.8zM206.6 114h4.2v3.8h-4.2z"/></svg>