<svg version="1.1" id="Layer_1" xmlns="http://www.w3.org/2000/svg" x="0" y="0" viewBox="0 0 250 250" xml:space="preserve"><style>.st1{fill:#6400fa}</style><path fill="none" d="M0 0h250v250H0z"/><path class="st1" d="M41.9 90.3c1.4.2 2.8.3 4.1.6 9.3 1.6 17.4 7 22.6 14.8 3.3 4.8 5.3 10.4 5.8 16.3 1 10.6-2.9 21-10.8 28.3-5.5 5.3-12.5 8.6-20.1 9.3l-1.7.2h-4.2l-1.8-.2c-7.1-.8-13.8-3.7-19.1-8.5C10.9 146 7 139 5.6 131.4c-.3-1.4-.4-2.9-.6-4.3v-4l.3-2.7C7.4 105.6 18.7 93.7 33.4 91c1.4-.3 2.8-.4 4.3-.6l4.2-.1zm-7.5 22v34.4c3.6.8 7.3.8 10.8 0v-34.3h10.2c.7-3.1.7-6.3 0-9.5H24.1c-.7 3.1-.7 6.4 0 9.5l10.3-.1zM245 137.1h-4v-.9-5.8c0-.7-.1-1.4-.4-2-.5-1.3-1.7-2.2-3.1-2.2-1.4.1-2.7 1.1-3.1 2.5-.1.6-.2 1.1-.2 1.7v6.6h-4.1v-14.1h3.3l.7 1.1c2.7-2.4 6.8-2.1 9.2.6.8.9 1.3 2 1.5 3.2l.3 1-.1 8.3zM162.8 136.9V133h1.6c1.5 0 2.7-1.2 2.7-2.7s-1.2-2.7-2.7-2.7h-7.5V114h6.1c3.7-.1 6.8 2.9 6.8 6.6 0 1.3-.3 2.5-1 3.6l-.1.3c2.8 2.7 3.6 5.8 1.6 9.2-1.5 2.6-4.5 3.8-7.5 3.2zm-1.7-19v5.2c.8 0 1.7-.1 2.5-.2 1.4-.4 2.2-1.8 1.8-3.1-.3-1-1.2-1.8-2.2-1.9h-2.1zM137.8 112.6h4.4v11c.7-.3 1.5-.6 2.3-.9 3.9-1.1 8 1.2 9.1 5.1l.3 1.5c.2 2.6 0 5.1 0 7.8h-4.3v-.8-5.9c.1-1.4-.6-2.8-1.7-3.6-1.1-.8-2.5-.8-3.6-.2-1.2.6-2 1.9-2 3.2v7.2h-4.4l-.1-24.4zM93.6 137v-18.3h-6.3v-4.6h17.3v4.5h-6.3V137h-4.7zM120 131.3h-10.4c.5 2.4 3 3 5.7 1.5l3 2c-1 1.8-4.9 3.8-8.6 2.1-3.8-1.6-5.6-6-4-9.9 1.6-3.8 6-5.6 9.9-4 3.2 1.3 5.1 4.8 4.4 8.3zm-10.4-2.6h6.5c-.3-1.5-1.7-2.6-3.3-2.6-1.6 0-2.9 1.1-3.2 2.6zM219.9 137.4c-3.7.1-7-2.5-7.8-6.2-.7-4.1 2.1-8 6.3-8.7h.1c3.4-.6 6.8 1 8.4 4 1.9 3.7.4 8.2-3.3 10.1-1 .5-2.1.8-3.1.8h-.6zm3.6-7.4c.1-2-1.5-3.8-3.5-3.9-2.1 0-3.8 1.8-3.8 3.9 0 2 1.6 3.6 3.6 3.8 2 0 3.7-1.7 3.7-3.8 0 .1 0 0 0 0zM174.3 122.9h4.2v6.7c-.1 1.1.3 2.2 1.1 2.9.8.9 2.1 1.1 3.2.6 1.3-.5 2.1-1.8 2.1-3.1.1-2.1 0-4.2 0-6.2v-.9h4.3c-.1 3 .3 5.9-.3 8.8-.8 3.4-3.9 5.8-7.5 5.8-3.4-.2-6.3-2.7-7-6-.1-.5-.1-1.1-.1-1.6v-6.4-.6zM191.9 137v-24.4h4.1V137h-4.1zM202.8 137h-4.1v-24.4h4.1V137zM133.3 132.7l1.8 3.2c-3.1 2.3-7.4 2-10.2-.7-2.9-2.7-3.1-7.2-.5-10.1 2.8-3.1 7.8-3.7 10.8-1.1l-1.9 3.3c-1-.9-2.3-1.3-3.6-1-1 .2-1.8.7-2.4 1.5-1 1.4-.9 3.3.2 4.6 1.5 1.6 3.6 1.7 5.8.3zM209.7 137h-4.2v-14.1h4.2V137zM209.7 118.6h-4.2V114h4.2v4.6z"/></svg>