<svg version="1.1" id="Layer_1" xmlns="http://www.w3.org/2000/svg" x="0" y="0" viewBox="0 0 250 250" xml:space="preserve"><style>.st1{fill:#6400fa}</style><path fill="none" d="M0 0h250v250H0z"/><path class="st1" d="M46.2 121.8h12.2v-5H46.2V99.6h15v-5.1H40.5v50.2h20.7v-5.1h-15v-17.8zM88.5 111.1v-3c0-.1-.1-.3-.1-.4-1.7-1-3.2-2.4-4.2-4.1 1.3 1 2.8 1.8 4.3 2.4l.1-.1-.4-.3c-2.5-1.7-4.6-3.9-6-6.5-.7-1.4-1.2-2.9-1.5-4.4 0-.1-.1-.3-.1-.4h-.3c-1.9-.4-3.9-.4-5.8-.1-3.4.5-6.2 2.8-7.4 6-.8 2-1.1 4.1-1.1 6.3v26.1c0 1.8.2 3.6.8 5.3.9 3.4 3.7 6.1 7.2 6.9 2.4.6 4.8.5 7.2-.1 2.6-.7 4.8-2.4 6-4.9.9-1.9 1.5-4 1.5-6.1v-7.1-.3h-5.3V133c0 .9-.1 1.8-.3 2.6-.3 2.1-1.9 3.8-4 4.2-.8.1-1.6.2-2.3.1-2.1-.1-4-1.5-4.6-3.6-.4-1.1-.6-2.4-.6-3.6V106c0-1 .1-1.9.3-2.9.3-1.8 1.5-3.2 3.2-3.9 1-.4 2-.5 3-.4 2.1 0 4 1.4 4.6 3.4.3.8.5 1.7.5 2.6.1 1.8.1 3.6.1 5.5v.6h5.2zM12.5 99.6h9.3v45.1h5.6V99.6h9.2v-5.1H12.5v5.1zM233.7 123.3c-1.5-1.5-3.1-2.8-4.8-4.1-1.7-1.3-3.4-2.6-5.1-4-1.5-1.2-2.7-2.7-3.5-4.4-1.4-3.2-1.4-6.9.1-10.2.7-1.7 2.2-2.9 4-3.3 1-.3 2.1-.3 3.1-.3 2.6.1 4.8 1.7 5.8 4.1.6 1.5.9 3 .9 4.6v1.9h3.1v-2.8c-.1-1.6-.4-3.2-1-4.7-1-2.8-3.3-4.9-6.1-5.7-1.8-.5-3.7-.6-5.6-.3-3.3.4-6.2 2.5-7.4 5.6-.7 1.8-1.1 3.7-1.2 5.6-.3 3.9 1 7.8 3.8 10.6 1.5 1.5 3.1 2.9 4.8 4.1 1.8 1.3 3.5 2.6 5.2 4 1.6 1.2 2.8 2.9 3.6 4.7 1.3 3.1 1.1 6.6-.3 9.7-.8 1.8-2.4 3-4.3 3.4-1.4.3-2.8.3-4.2 0-2-.4-3.7-1.7-4.5-3.5-.4-.9-.7-1.8-.9-2.8-.2-1.6-.3-3.2-.2-4.8v-.7h-3.1v3c0 2.1.4 4.2 1.1 6.1 1 2.7 3.3 4.8 6.1 5.5 1.9.5 4 .6 5.9.3 3.3-.4 6.2-2.6 7.4-5.8.8-2 1.1-4.1 1.1-6.2.1-3.5-1.2-7-3.8-9.6zM200.7 139.3v-9.2c0-1.3-.2-2.6-.6-3.8-.9-2.8-3.3-4.9-6.2-5.5h-.2v-.1h.2c1.5-.4 3-1.1 4.1-2.2 1.5-1.5 2.4-3.4 2.5-5.5.2-1.8.2-3.6.2-5.3 0-1.5-.1-3-.2-4.4-.1-1.7-.7-3.3-1.6-4.6-1.9-2.8-4.7-3.8-8-3.9l-.2 1.1-.5 1.7c.1.1.3.1.5.2.9.1 1.7.3 2.6.5 1.9.7 3.4 2.4 3.7 4.4.3 1 .4 2.1.4 3.2 0 2.3 0 4.6-.1 6.8 0 1.4-.5 2.8-1.3 3.9-1 1.4-2.6 2.3-4.4 2.5-.9.2-1.9.2-2.8.3h-6.1v-11.2l-.3.1-2.7 1.7-.3.3V145h3.3v-22.4h6.1c1.1 0 2.2.2 3.3.4 2.4.4 4.2 2.2 4.8 4.6.3 1 .4 2.1.4 3.2.1 2.7 0 5.4 0 8 0 1.3.1 2.7.3 4 .1.8.4 1.6.8 2.3h3.4c-.3-.7-.5-1.3-.7-2-.3-1.5-.4-2.6-.4-3.8zM128 133.3c.1.1.3.3.5.4h14.4c.2 0 .4 0 .7-.1.8-.9 1.5-1.7 2.3-2.6.2-.2.3-.4.3-.7-.3-1.3-.6-2.5-.9-3.8l-6.5-29.4c-.2-.9-.4-1.8-.6-2.8h-4.8c0 .1-.1.3-.1.4-.6 2.7-1.2 5.3-1.8 8.1-1.6 7.2-3.1 14.4-4.7 21.6-.4 1.8-.8 3.7-1.2 5.5v.5l1.1 1.1c.2.7.7 1.3 1.3 1.8zm7.5-34.8h.1l7.3 32.3h-14.7c2.5-10.8 4.9-21.5 7.3-32.3zM109.7 121.8l-5.3-4.1c-.2-.1-.4-.3-.6-.4h-4.5l-.1-3.4c-1-.5-1.9-1-2.8-1.4s-1.8-1-2.7-1.4V145h5.6v-22.6H110c-.1-.4-.2-.5-.3-.6zM207.2 144.8h3.2V94.5h-3.2v50.3zM111.2 119.3l-.2.3c-.1 0-.1 0-.2-.1-1.5-.8-3-1.5-4.6-2.3-.3-.2-.7-.2-1 0 2.2 1 4.4 2 6.5 3.1 1.8.9 3.5 1.9 5.2 2.9l.3.1V95.1c0-.2 0-.4-.1-.7l-5.5.1v22.6h-3.7l.1.2 3.2 2zM157.1 122l.4-.3.1-.8 2-.2 3.7-1.9c.5-.3 1.1-.5 1.7-.8l.3-.2h-.9l-3.8 1.9-.2-.3 2.3-1.4c-.2 0-.3-.1-.5-.1h-4.7V97.5H174v-3.1h-19.7c0 .2-.1.4-.1.6v28.6l2.9-1.6zM122.6 128.1zM157.6 125.6l-1.5 1.3-1.8 1.7v15.6c0 .2 0 .4.1.6H174v-3.1h-16.4v-16.1zM117.2 128.5c-1.8-1.8-3.6-3.5-5.6-5.1v21.4h5.6v-16.3zM95.6 107.9l3.2 2.9.3.2V94.5h-5.6v11.3c.4.4.8.9 1.2 1.3l.9.8z"/><path class="st1" d="M94.8 111.3l3.8 2 .6.3 2.5 1.2h.1l.2.1 2.5 1.2.1.1 1.3.7 3.9 1.9.6.3.1-.1-.5-.2-2.2-1.4-2.9-1.8-.1-.1-2.6-1.8-.1-.1h-.1l-.1-.1-.1.3.1-.3-2.5-1.9-.1-.1-.1-.1h-.1l-.1-.1-.1-.1-.2-.2-2.5-2.1-.5-.4-.1-.1-.1-.1-.1-.2-.8-.8-3.7-4.3-.1-.1-.1-.2-.1-.1-.1-.2-.1-.1-.1-.2v-.1l-.1-.1-.1-.2-.1-.1v-.1l-1-1.8v-.2l-.1-.2-.2-.3-.1-.2v-.1l-.1-.1v-.1l-.1-.1v-.1l-.1-.3-.1-.2v-.1l-.1-.1v-.1c0-.1-.1-.2-.1-.3-1-2.5-1.4-5.1-1.5-7.7V87l-.2.2c-.1.1-.2.2-.2.4-1 2.1-1.3 4.5-.9 6.8.1 1 .3 1.9.5 2.9.3.8.6 1.6.9 2.3.3.6.6 1.1.9 1.6l.1.1.1.1.1.1.5.7H88l-.6-.3-1.6-1.3-.1-.1-1.9-2.1V98l-1.1-1.8-.1-.1-.1-.2-.1-.2c-.9-1.5-1.3-3.1-1.3-4.8H81l-.2 1.9c0 .7.1 1.3.1 2 .1 1.1.5 2.2 1 3.3v.1l.1.2 1.3 2.3c.6.9 1.3 1.8 2.1 2.5l1.1 1.1.1.1v-.1.1l.2.2 2 1.4h.2l.3.2 1 .6v.1l-.9-.1c-1.2-.6-2.4-1.1-3.6-1.7-.3-.2-.7-.4-1-.7l-.1.1 1.2 1.2c.8.7 1.7 1.3 2.5 2l.4.2.2.1c.7.4 1.4.9 2.1 1.3 1.3.7 2.6 1.3 3.7 2zM145 140.8l.9 4h3.3l-1.8-7.9-.2.2-2 3.1-.2.6zM179.6 109.7h.1v-.1h.1l.1-.1h.1l.1-.1 2.2-1.3.4-.3c1.5-.9 2.9-2 4-3.4l-2.8 1.5-.2.1h-.1l-.1.1h-.1l-1 .4-1.1.2v-.1l1.4-.8h.1l.1-.1h.1v-.1h.1l.1-.1h.2l.1-.1.1-.1 1.9-1.6h.1l1.1-1.1 1.7-2.2.1-.1v-.1l.1-.1.1-.2 1.4-2.7.5-1.7.2-1.6c0-.8-.1-1.6-.1-2.3l-.2-.4c0 1.2-.3 2.4-.8 3.4-.4 1.1-1 2.1-1.8 3l-.2.3-.1.1-.3.3h.1-.1l-.1.1-2.4 2.5-1.3 1-.1-.1.1-.1.2-.2-.3.2.3-.2.1-.1c0-.1-.1-.2 0-.2s0 .1 0 .2l.2-.3.1-.2c.6-.8 1-1.6 1.3-2.6l.1-.3.1-.3.1-.2v-.2l.1-.3.1-.1v-.3l.1-.3v-.2h.1v-.5l.1-.4v-.3l.1-.5V91c0-1.5-.5-2.9-1.4-4.1v1.4c0 1.2-.1 2.3-.1 3.5l-.1.8-.1.6.1.2-.1-.2v.1l-.3 1.4-1 3.1-.1.3-.1.2-.1.2-.1.3-.1.1-.2.6c.1 0 .1-.1.2-.2l-.2.2-.2.4-.1.2-.1.2-.1.1v.1l-.1.1v.1l-2 3c-.1.2-.3.3-.4.5l-.4.5-.1.2-.1.1c.1 0 .1.1.1.1 0 .1.1.1.1.2 0-.1 0-.2-.1-.2 0-.1-.1-.1-.1-.1l-3.8 4-.4.4-.1.1c-.8.7-1.5 1.3-2.3 1.9-1 .8-2 1.6-3.1 2.4l-4.2 2.9-2.1 1.3-1.2.8v.1l2.6-1.2.9-.5.2-.1 4.1-2 .2-.1c1.1-.6 2.2-1.1 3.3-1.6.9-.4 1.7-.9 2.5-1.4-.1 0-.2-.1-.2-.2l.2.2h.1l.1-.1 3.6-2h.1l.1-.2zm8.1-11.4zm-4.4 3.8l-.1.1.1-.1zM126.3 140.3c0-.2 0-.3-.1-.5l-1.9-2.9-.2-.3-.1.1-1.8 8.1h3c.4-1.5.7-3 1.1-4.5zM163.3 120.6c0 .3.2.2.3.2h7.3c.1 0 .2 0 .3-.1v-3h-4.1l-3.8 2.9zM156.6 126.1z"/><path class="st1" d="M150.7 149.4l-.4-.1h-.2l-.3-.1h-.2l-3.5-1.3-.1-.1h-.1l-.1-.1-.2-.1-.1-.1h-.1l-.1-.1-.1-.1h-.1l-1.8-1.9-.9 1.3-.2.5h-.2v-.2l.2-.5c.2-.6.4-1.3.7-1.9.6-1.4 1.3-2.8 2-4.2l.1-.1v-.1l.1-.1v-.1l.1-.1.1-.2.1-.1v-.1l.1-.1.1-.2.1-.1v-.1l.1-.1.1-.1v-.1l.1-.1v-.1l.1-.1.1-.1v-.1l.1-.1.1-.1.6-.8c.1-.2.2-.3.3-.5l2.2-3 .1-.1v-.1l.1-.1.1-.1.1-.1.1-.1.1-.1.2-.2.1-.1.1-.1.1-.1.1-.1.1-.1.2-.2.1-.1.1-.1.4-.4c.8-.8 1.5-1.6 2.2-2.4l.8-.9 1.1-1 .1-.1.1-.1.1-.1.1-.1.1-.1.1-.1.1-.1 3.4-3 .5-.4 2.6-2.1 3.8-2.9 1.1-.8.5-.3-.1-.1-.6.3.1.1-.1-.1-2.9 1.4-2.6 1.3-2.8 1.4-.6.3-.2.1-.2.1-.2.1-.1.1-.3.2-.9.4-2.5 1.6-.4.2c-.4.3-.9.6-1.4 1-1.4 1.2-2.8 2.3-4.1 3.5-.1.1-.2.1-.3.2L146 131c-.6.6-1.2 1.3-1.7 1.9-.2.2-.3.4-.5.6l-.1.1-.3.2-.1.2-.4.4c-.7.7-1.5 1.1-2.4 1.4l-.2.1.2-.1-1.3-.1-1.9-.3c-.7 0-1.3-.1-2-.1-.4 0-.8.1-1.2.1-.8.1-1.5.2-2.2.4-.9.2-1.9-.1-2.6-.7-.1-.1-.3-.2-.4-.4-.4-.4-.8-.7-1.1-1.1l-2.7-3-.4-.4-1.4-1.9-.1-.1-.1-.1-.1-.1-.1-.1-.7-.7c-1.6-1.2-3.1-2.5-4.7-3.7l-.3-.1-3.4-2-3.3-1.7v.2-.2l-2-1-.2-.1-.2-.1h-.1l-.6-.3-2-1-1.6-.7v.1l.5.4 3.3 2.4 2.2 1.8.2.2.2.2 1 .9 2 1.7 2.6 2.3 4 4.1.4.5.6.6.2.2.3.3.5.6.3.3 2.7 3.6 1.9 2.9c.7 1.4 1.6 2.8 2.1 4.3.8 2.2 1.5 4.4 2.2 6.6.5.7.8 1.4 1 2.1.1.4.2.7.2 1.1.1.7-.1 1.3-.4 1.9-.2.4-.6.5-.9.7-1.5.6-1.4 2.1-.9 3.3.1.2.4.4.6.6l-.1-1.5 1.1-1.1.1.1c-.2.6-.1 1.2.1 1.7.3.6.3 1.2 1 1.6-.3-.8-.2-1.6.3-2.3-.1-.5-.1-1 0-1.5.4.5.2 1.3.9 1.4.2.8.1 1-.5 1.4.5.1 1.1-.2 1.2-.7v-.1c.2-.6.1-1.2-.2-1.7-.3-.4-.5-.9-.7-1.3-.1-.2-.2-.4-.2-.7 0-1 .1-2 .2-3l.8.6-.1-2.6.2.1.2.1-.6-2.1.2.1.8 2.4-.6.1.2 2.4-.9-.3v1.2h3.3l-.6-3.7h-.7l.7-2.1c.1.7-.1 1.4-.4 2l.7-.2c0 .1.1.2.1.3.1 1.3.3 2.6.7 3.9v.1c-.1.8-.2 1.6-.3 2.3s-.5 1.5-1.5 1.6c-.1 0-.2.1-.3.1-.7.3-1.1.9-1.1 1.7 0 .1 0 .3-.1.4-.1.6.2 1.2.7 1.4-.2-.5-.1-1 .1-1.5l1.1-.9c-.3 1.2-.1 2.5.7 3.4-.1-.7.1-1.5.6-2.1l.1-1.5c.5.4.2 1.2.9 1.5 0 .5.2 1-.2 1.4h.4l.1-.1.2-.2c0-.3.1-.6.2-.9.2-.4.2-.8 0-1.2-.2-.4-.4-.9-.6-1.3-.2-.4-.3-.8-.2-1.2 0-.5.1-1 .2-1.5s.3-.9.5-1.5l.3.6c.1-.2.1-.5.1-.8.1-1.1.2-2.1.5-3.1.1-.2.1-.5.1-.8v-.2l.1-.2v-.3l.2-.3v.7l-.1.7v.2l-.1.8-.1.7-.1.8c0 .2-.1.4-.1.6 0 .1.1.3.2.4l1.4-.2h.2l.5-.1c1.6-.2 3.3-.6 4.9-1-.6-.3-1.1-.7-1.7-1.1-.6-.6-1.1-1.2-1.6-1.9l.3.2c1.1.9 2.3 1.6 3.6 2 .6.3 1.2.3 1.8 0h.1l.3-.2h.1l.2-.1h.1l.1-.1.2-.1.3-.1.3-.1c1.2-.4 2.3-1 3.4-1.6l-3.5-.3-.6-.4zm8.3-28.2zM133.2 139l-.7-.8.1-.1.9.3.5.1c.2 0 .4 0 .3.2l-.7-.1-.4.4zm3.7 2.6l-1.1 1.2-.3-.2-.1-.1-.1-.1-.1-.1-.2-.3-.1-.1-.1-.1c-.4-.4-.8-.9-1.3-1.3.6-.3 1.1-.8 1.4-1.3l.3-.5.3.6c.1.2.1 0 .2 0l.1-.3h.1l-.1.2c-.2 1-.3 2-.2 2.9l1.1-.7.4-.4.1.1-.3.5zm1.7-2.9l-.1.1-.3.2-.3-.4-.6.1v-.1l.9-.2c.2-.1.4-.1.6-.2s.2.1.3.1l-.1.2-.4.2zm5.4 11v0zM186.2 97.5h1.6c.6-1 1.1-1.9 1.7-2.8v-.3h-2.8l-.3 1.8-.2 1.3zM84.6 98.6c.7.9 1.6 1.6 2.3 2.4l.2.3.1-.1-.2-.2c-.7-1.2-1.3-2.4-1.6-3.8-.9-1.1-2-1.9-3.3-2.4l.3.7c.8 1.1 1.4 2.1 2.2 3.1z"/><path class="st1" d="M131.3 153.2l-1-2.3-.5-1-.1-.3-.1-.3v-.1l-.1-.2v-.1c-.3-1.3-.7-2.5-1.2-3.7l-.6 1-.1.1-.1.1-1.6 1.2.1.7-.1-.7-.2.1-1.6.8-.7.3-2.5.7-1.7.2-1.7.1h-.7v.1l1 .5.1.1 1.2.6h.1l.1.1 1.4.6c.3.1.6.2.9.4.7.4 1.5.4 2.2 0h.1l.2-.1 1.8-.9h.1l.1-.1.2-.1.7-.5.5-.5.3-.2-.4.7-.2.1c-.8 1-1.9 1.8-3 2.4v.1l3.3.7 1.1.2c.8.2 1.7.3 2.6.3l.1-1.1zm-10.6-3.6zM135.1 162zM183.5 105.6zM182.8 97.8c0-.1.1-.2.1-.2l.6-.1.9-2.8c-.2-.1-.3-.1-.5-.2h-4.4v9.5c1-1.3 1.9-2.6 2.7-4.1.4-.6.6-1.3.6-2.1z"/></svg>