<svg id="Layer_1" xmlns="http://www.w3.org/2000/svg" viewBox="0 0 250 250"><style>.st1{fill:#6400fa}</style><path fill="none" d="M0 0h250v250H0z"/><path class="st1" d="M106.3 138.9v5.5l-3.7 4.2H89.3c-5-2.3-6.1-6.1-2.6-10.7l2.3.8-1.1 3.7c1 2.7 2.8 3.5 5.4 3.3s4.9 0 7.1 0c2.3-1.5 2.6-3.5 2.2-6.3l-2.9-3.7h-9.8l-3.6-4v-12.3l3.3-3.2h8.8l2.2-3.7 2.5.8-1.2 3.9 1.9 2.3v12.1l-1.6 1.8c1.5 2 2.9 3.8 4.1 5.5zm-17-17.8v9.1l2.3 2.5c1.3-.1 2.7-.1 4 0 2.5.3 4.4-.5 5.4-2.9V121l-1.7-1.8h-8.1l-1.9 1.9zM26 110.4h2.9v7.9c1.8.6 3.4.1 5.3.4l.2 2.3h-5.2v7h5v2.9h-5v7.6l-2.9.2v-7.4c-2.3-.6-4.4-.2-6.6-.3v7.6h-2.9V131h-5.2v-2.9h5v-7h-4.9l-.2-2.5h5.3v-8.1h2.9v8H26v-8.1zm-6.3 17.4c2.1.3 4.2.3 6.2 0v-6.7h-6.2v6.7zM174.7 129.1v4.7l2.6 2.3h7.5l4.1-1.9 1.4 2.3-4.2 2.6h-10.7l-4.2-4.1v-15.1l4.2-3.7h11.5l3.6 4.3v7.8c0 .2-.3.5-.6.9h-15.2zm2.3-9.9l-2.2 1.9v5h12.1v-4.6l-1.8-2.3H177zM62.7 120.1l3.8-3.8h11c1.8.3 2.7 2.2 3.8 3.8v9.1H65.7v3.8c.5 1.5 1.8 2.8 3.3 3.3h7.1l3.8-1.9 1.8 2-4.2 2.8H67.3c-2.1-.9-3.7-2.6-4.7-4.6l.1-14.5zm3 6h12.8V122c-.8-2.2-2.4-2.9-4.6-2.8-1.8.1-3.7 0-5.9 0l-2.3 2.4v4.5zM108.7 134.8v-5.6c.5-2.2 2.5-2.9 3.9-4.1h12.2c.7-.9.1-2 .4-3.4l-3.1-2.4c-3.4.1-7.3-.8-10.9 1.7l-1.5-2.5 4-2.2h10.8l3.5 3.7v16.9l-4.5 2.3h-9.9c-2.6-.6-3.4-2.9-4.9-4.4zm6.5 1.5c3.3-.2 6.8.7 9.8-1.6v-6.1c-3.2-1.5-6.6-1.2-10.3-1.1l-3 2.4c-.5 3.4.7 5.3 3.5 6.4zM219.9 117.4c4-2.1 7.9-.7 11.5-1.2 2.4.7 3.6 2.5 5 3.9v18.5h-3.3v-15.4c-.1-1.8-1.3-3.4-3-3.9h-6.5l-3.5 1.7v17.6h-2.9v-30.9h2.7v9.7zM132.3 125.8V120l4.2-3.7h8.8l4.1 2.2-1.4 2.5c-3.1-2.1-6.6-1.9-10.2-1.7l-2.5 2.4v3.1c.6.4 1.2.6 1.9.8 2.4.3 4.8.5 7.2.6 2.2-.2 4.3 1 5.4 2.9v5.6c-1.3 1.7-2.3 3.8-4.8 4.5h-8.9l-4.1-2.6c.4-.9.8-1.5 1.1-2.3 1.8.7 3.6 1.3 5.5 1.8 1.8.2 3.7.2 5.5.1 2-1.5 3.4-3.1 2.7-5.8-.9-1-2.1-1.2-3.4-1.3-2.4-.1-4.8-.3-7.2-.6-1.7-.1-3.2-1.2-3.9-2.7zM39.2 129.1V117H42v8.8c-.1 1.6.5 3.1 1.6 4.2 1.7 1.9 3.3 3.8 5.1 5.9l6.2-7.7V117h3.5v11.7c-2.5 3.7-5.3 7.2-8.3 10.4h-2.8c-2.9-3-5.7-6.4-8.1-10zM212.7 118.6c-.7 1-1.2 1.7-1.6 2.3l-3.4-1.6H200l-2.4 2.6V133c.6.6 1.1 1.2 1.5 1.9.6 1 1.8 1.5 2.9 1.5 3.1.2 6.2.1 8.9-2.1l2 2.2-4 2.9h-9.5a8.7 8.7 0 0 1-4.8-4.8V120l3.8-3.7h10.5l3.8 2.3zM159.5 133.3l2.3 3h5c.1.9.1 1.8.2 2.9-2.2.1-4.4 0-6.9 0l-4.3-4.8v-15.1l-3.4-.2-.1-2.2h3.2c.7-1.9 0-3.9.4-5.9h3.4v5.7h7v2.3h-6.8v14.3z"/></svg>