<svg id="Layer_1" xmlns="http://www.w3.org/2000/svg" xmlns:xlink="http://www.w3.org/1999/xlink" viewBox="0 0 100 100"><style>.st0{fill:none}.st1{fill:#fff}.st2{fill:#56408b}.st5{fill:#d77edb}.st6{fill:#5ddaf4}.st13,.st9{fill:#525d7a;enable-background:new}.st9{opacity:.2}.st13{opacity:.1}.st14{fill:#623fe9}.st15{opacity:.3;fill:#231f20;enable-background:new}.st17,.st19{fill:#525d7a}.st19{opacity:.15;enable-background:new}.st27{fill:#7866a2}.st28{opacity:.2}.st29{opacity:.15}</style><pattern y="100" width="72" height="72" patternUnits="userSpaceOnUse" id="k" viewBox="4.2 -74.2 72 72" overflow="visible"><path class="st0" d="M4.2-74.2h72v72h-72z"/><path class="st0" d="M4.2-74.2h72v72h-72z"/><path class="st0" d="M4.2-74.2h72v72h-72z"/><path class="st1" d="M71.1-1.2l-.2-.1 1.1-3 .2.1zm-5.1.1l-.6-3.3h.3l.6 3.3zm-14.9.8h-.3l.1-3h.3zm-16-1.5l-1.4-2 .2-.2 1.5 2.1zm-16 .2l-.2-.2 1.3-2 .2.2zM7.8-.3L6.1-2.6l.3-.2L8-.5zm50.8.3l-.2-.2 2-3 .2.2zm16.2-50.3h3v.3h-3zm.1 17.6l-.2-.3 2-1.5.2.3zM6.1-61.2l-.2-.3 2.8-2 .2.3zm-1 56l-.2-.3 2.3-1.7.2.2zm68-61l-.1-.3 3.2-.8.1.4zm-.5 12.7l-.2-.2 2.5-1.8.2.3z"/><path class="st1" d="M74.8-50.3h3v.3h-3zm-.4 7.8l-2.7-1.7.2-.3 2.7 1.8zm.5 9.8l-.2-.3 2-1.5.2.3zm-.7 10.5l-2.8-2.3.2-.2 2.8 2.2zm2.1 11l-4.3-.7.1-.4 4.2.8zm-11.9 0l-.2-.3 2.2-1.7.2.2zm7.4-18.1h3v.3h-3zM60.9-56.5L59-59.3l.3-.2 1.8 2.8zm-30-1.5l-1.6-2.6.2-.2 1.6 2.6zm15.3-4.5l-.3-.1 1.9-2.7.2.2zM71.1-1.2l-.2-.1 1.1-3 .2.1zm-5.1.1l-.6-3.3h.3l.6 3.3zM59.9-26L58-28.8l.3-.2 1.8 2.8zm-8.4-28.5L49.9-57l.2-.2 1.7 2.6zM51.1-.3h-.3l.1-3h.3zm-7.4-3.4l-.3-.2 1.9-2.7.2.2zm-8.6 1.9l-1.4-2 .2-.2 1.5 2.1zm18.4-31.4l-.3-.2 2.4-2.7.2.2zM19.1-1.6l-.2-.2 1.3-2 .2.2zm-6.7-1.6l-.3-.1.9-4.2.3.1zM7.8-.3L6.1-2.6l.3-.2L8-.5zm22.4-3.8h-.3l.1-3h.3zM13.7-67.2l-3.5-1.5.1-.3 3.5 1.5zm-6 13.9l-.3-.1.2-3.2h.3zm4.7 26.8l-1.5-3.8.3-.1 1.5 3.7zm-4-9.3l-.3-.1 2.3-3.8.2.2zM30.1-67l-.2-.2 2.3-2.5.2.2zm9.6.3l-3.3-2.8.2-.2 3.3 2.7zm16.8-.8l-3.3-2 .1-.2 3.3 2zm-2.9 7.2l-.2-.1 2-3.3.2.2zm9-4.4l-.1-.3 5-2.2.1.2zm5 5.2l-.2-.2 2.5-1.8.2.3zm-46-9.8h.3v3h-.3zm-6.1 5.6v-.3l3.3-.5v.3zm7.9 7.1l-.5-3.2.3-.1.5 3.3zm.7-7.6l-.1-.3 3.5-.8.1.3zM12.4-52.5l-.2-.2 2.7-2 .2.2zm-1.7 42.4h-.3l.2-4h.3zm-.3-8.2l-.2-.2 2.2-2.5.2.2zm13.7 10l-2.5-3.5.3-.1 2.5 3.5zm6.3-35.4l-.2-.3 2.5-1.7.2.2zm30.3 3.5L58-41.7l.1-.3 2.7 1.5zM29.8-34l-3.8-.7v-.3l3.8.7zm2.8 11l-.2-.2 2-1.5.2.2zm-.7 10.5l-2.7-2.2.2-.3 2.7 2.3zm3.3 4.3l-2-1.3.2-.2 2 1.2zm-5.7-11.3h3v.3h-3zm10.9-33.7l-.2-.3 2.5-1.7.2.2zm2.1 3.2h3v.3h-3zm-.3 7.8L39.4-44l.2-.2 2.8 1.7zm-1.3 13.1h-.3l.8-2.5h.3zm1 7.1l-2.7-2.2.2-.3 2.7 2.3zm.6 8l-2-1.2.1-.3 2 1.3zM63-29.7h3v.3h-3zm-35.3.5L25.2-31l.2-.2 2.5 1.7zM30-53.8h3v.3h-3zm-9.8 16.3l-2.5-1.7.2-.3 2.5 1.8zM15-34.3h3v.3h-3zm3.4 7.8l-.2-.2 2.7-1.8.2.3zm32-14.5l-.2-.2 2.4-1.6.1.3zm2.5-5.7l-2.4-1.8.2-.3 2.4 1.9zm4.8-2.9h-.3l.2-3h.3zM51.4-8.3l-3.1-.1.1-.3 3 .1zm.2-4.1l-2.3-1.9.2-.2 2.3 1.8zm5.9-2.9l-1.1-3 .2-.1 1.2 3zm-8.6-13.4l-.2-.3 2.5-1.7.2.2zM51-23l-3.3-1 .1-.2 3.3 1zm8.9 15.5l-2.7-1.7.2-.3 2.7 1.8zM67.4-33l-2.7-1.7.2-.3 2.7 1.8zm-4 12.5l-.2-.2 2-1.5.2.2zM25.6-44.3l-3-.1v-.3l3.1.1zm.3-4.1l-2.4-1.9.2-.2 2.4 1.8zm37.6 3.5l-2.7-.6v-.3l2.7.6zM18.4-15.1l-.5-3.2.3-.1.5 3.3zm1.7-5.1l-.1-.3 3.5-.8.1.3zm19.7-40.3l-4-.7v-.3l4 .7zm-3 23.4l-.5-3.5h.3l.5 3.5zM67.5-51L65-52.2l.1-.3 2.5 1.3zm-51.3-6.7l-3.3-2.8.2-.2 3.3 2.7zm-10.8 15l-.2-.3 2.5-1.7.2.2zm11.5-5.8l-.2-.2 2-1.5.2.2zm27.5-20.7l-.2-.2 1.8-2.7.3.2zM67.7-39l-.3-.1 1.9-2.7.2.2zM37-47.8h-.3l.7-2.8h.3zM23.5-15.3h-.3l.7-2.8h.3zm9.4-14.4l-.2-.3 2-1.5.2.3zM2.8-50.3h3v.3h-3zm.1 17.6l-.2-.3 2-1.5.2.3zm68.2-40.5l-.2-.1 1.1-3 .2.1zm-5.1.1l-.6-3.3h.3l.6 3.3zm-14.9.8h-.3l.1-3h.3zm-16-1.5l-1.4-2 .2-.2 1.5 2.1zm-16 .2l-.2-.2 1.3-2 .2.2zM7.8-72.3l-1.7-2.3.3-.2L8-72.5zM8.3-22l-3.8-.7.1-.3 3.7.7zm63 5.3l-1.9-2.8.2-.2 1.9 2.9zM27.1-38l-.2-.1.6-2.8.3.1zm18.8 2.5l-.2-.2 2-1.5.2.2zM58.6-72l-.2-.2 2-3 .2.2zm0 72l-.2-.2 2-3 .2.2zM1.1-66.2l-.1-.3 3.2-.8.1.4z"/><path class="st1" d="M2.8-50.3h3v.3h-3zm.1 17.6l-.2-.3 2-1.5.2.3zm1.4 21.5L0-11.9l.1-.4 4.2.8zm66.8-62l-.2-.1 1.1-3 .2.1zm-5.1.1l-.6-3.3h.3l.6 3.3zm-14.9.8h-.3l.1-3h.3zm-16-1.5l-1.4-2 .2-.2 1.5 2.1zm-16 .2l-.2-.2 1.3-2 .2.2zM7.8-72.3l-1.7-2.3.3-.2L8-72.5zm50.8.3l-.2-.2 2-3 .2.2z"/></pattern><path class="st0" d="M0 0h100v100H0z"/><path class="st0" d="M100 59.1c.3 12.8-3.6 32-50 31.8-31.2-.1-50-8.5-50-31.8S16.4 9 41.1 9 99.5 35.9 100 59.1z"/><path class="st2" d="M67.1 56.5h24.7c.3 0 .5.2.5.5v19.3H66.6V57c0-.3.2-.5.5-.5-.1 0-.1 0 0 0z"/><linearGradient id="SVGID_1_" gradientUnits="userSpaceOnUse" x1="66.56" y1="-562.345" x2="92.28" y2="-562.345" gradientTransform="translate(0 620)"><stop offset="0" stop-color="#623fe9"/><stop offset="1" stop-color="#976fe4"/></linearGradient><path d="M92.3 58.8V57c0-.3-.3-.6-.6-.6H67.1c-.3 0-.6.3-.6.6v1.9l25.8-.1z" fill="url(#SVGID_1_)"/><path class="st1" d="M68.5 57.7c0 .2-.1.3-.3.3-.2 0-.3-.1-.3-.3 0-.2.1-.3.3-.3.1 0 .3.1.3.3zm1.1 0c0 .2-.1.3-.3.3-.2 0-.3-.1-.3-.3 0-.2.1-.3.3-.3.1 0 .3.1.3.3zm1.1 0c0 .2-.1.3-.3.3-.2 0-.3-.1-.3-.3 0-.2.1-.3.3-.3.1 0 .3.1.3.3z"/><path d="M91.1 56.5h-1.5c.7 0 1.2.3 1.2.6v19.3h1.6V57c-.1-.3-.7-.5-1.3-.5z" opacity=".1" fill="#191c3c"/><path class="st1" d="M68.2 60.7h.8v.3h-.8zm0 1.1h.8v.3h-.8zm0 1.2h.8v.3h-.8zm0 1.2h.8v.3h-.8zm0 1.1h.8v.3h-.8zm0 1.2h.8v.3h-.8zm0 1.2h.8v.3h-.8zm0 1.1h.8v.3h-.8zm0 1.2h.8v.3h-.8zm0 1.1h.8v.3h-.8zm0 1.2h.8v.3h-.8zm0 1.1h.8v.3h-.8zm0 1.2h.8v.3h-.8zm2.5-13.9h10.4v.3H70.7z"/><path class="st5" d="M81.6 60.7H83v.3h-1.4z"/><path class="st6" d="M70.7 61.8h1.1v.3h-1.1z"/><path class="st1" d="M73 61.8h3.1v.3H73zM71.7 63H75v.3h-3.3z"/><path class="st6" d="M75.5 63h2v.3h-2z"/><path class="st1" d="M70.7 64.2h2.7v.3h-2.7zm3.4 0h5.5v.3h-5.5z"/><path class="st5" d="M80.3 64.2h1.5v.3h-1.5z"/><path class="st1" d="M82.7 64.2h2.1v.3h-2.1zm-10.8 1.1h4.6v.3h-4.6z"/><path class="st6" d="M76.7 65.3h1v.3h-1z"/><path class="st1" d="M78.1 65.3h.5v.3h-.5zm.9 0h2v.3h-2zm-8.3 1.2h3.5v.3h-3.5z"/><path class="st5" d="M74.7 66.5h1.4v.3h-1.4z"/><path class="st1" d="M70.7 67.7H79v.3h-8.3zm9.2 0H82v.3h-2.1zm2.9 0h3.7v.3h-3.7z"/><path class="st6" d="M72.4 68.8h1.8v.3h-1.8z"/><path class="st1" d="M74.9 68.8h3.2v.3h-3.2z"/><path class="st5" d="M70.7 70h2.6v.3h-2.6z"/><path class="st1" d="M74.1 70h9.6v.3h-9.6zm-2.2 1.1h7v.3h-7z"/><path class="st6" d="M79.4 71.1h1.7v.3h-1.7z"/><path class="st1" d="M82 71.1h6.4v.3H82zm-11.3 1.2h5v.3h-5z"/><path class="st5" d="M76.5 72.3H80v.3h-3.5z"/><path class="st1" d="M71.7 73.4H78v.3h-6.3zm6.7 0h5.7v.3h-5.7z"/><path class="st6" d="M70.7 74.6h1.1v.3h-1.1z"/><path class="st1" d="M72.7 74.6h4.2v.3h-4.2zm4.8 0h3.8v.3h-3.8zM28.6 45.8h26.7c.7 0 1.3.6 1.3 1.3v29.2H27.3V47c0-.7.6-1.3 1.3-1.2 0-.1 0-.1 0 0z"/><linearGradient id="SVGID_2_" gradientUnits="userSpaceOnUse" x1="27.29" y1="-572.045" x2="56.55" y2="-572.045" gradientTransform="translate(0 620)"><stop offset="0" stop-color="#623fe9"/><stop offset=".21" stop-color="#7853e7"/><stop offset=".44" stop-color="#8963e5"/><stop offset=".7" stop-color="#946ce4"/><stop offset="1" stop-color="#976fe4"/></linearGradient><path d="M56.5 50.2v-3.4c0-.6-.4-1-1-1H28.3c-.6 0-1 .4-1 1v3.4h29.2z" fill="url(#SVGID_2_)"/><path class="st2" d="M32.8 51h18.1c.8 0 1.5.7 1.5 1.5v6c0 .8-.7 1.5-1.5 1.5H32.8c-.8 0-1.5-.7-1.5-1.5v-6c.1-.9.7-1.5 1.5-1.5z"/><path class="st1" d="M30.7 48c0 .3-.3.6-.6.6s-.6-.3-.6-.6.3-.6.6-.6.6.3.6.6zm2 0c0 .3-.3.6-.6.6s-.6-.3-.6-.6.3-.6.6-.6.6.2.6.6zm1.9 0c0 .3-.3.6-.6.6s-.6-.3-.6-.6.3-.6.6-.6c.4 0 .6.3.6.6z"/><path d="M55.5 45.8h-1.3c.6 0 1 .4 1 1v29.5h1.3V46.8c0-.6-.4-1-1-1z" opacity=".2" fill="#414042"/><path class="st2" d="M31.5 61.1h21v.3h-21zm0 2.7h21v.3h-21zm4 2.7h7.3v.3h-7.3zm8.4 0h8.6v.3h-8.6zm-12.4 0h3.3v.3h-3.3zm15.6 2.7h5.4v.3h-5.4zm-15.6 0h13.8v.3H31.5zm0 2.6h14.9v.3H31.5zm0 2.7h13.1v.3H31.5z"/><path class="st9" d="M68 76.3h.1c1-.1 1.8-.7 2.1-1.7.2-.5.3-1 .3-1.5.1-5.2 0-10.3 0-15.5v-1.3h-.6s-.1 0-.1.1h-2.4c-.2 0-.4.1-.5.3-.1.1-.1.2-.1.3v19.3H68zM50.3 45.8H41s0-.1-.1-.1v6.8s0 .1.1.1v9.9s-.1 0-.1.1v7.6c-.1 1.2-.1 2.5.1 3.7 0 1.2.8 2.2 2 2.4l.2.1h8.1V46.8c0-.6-.4-1-1-1z"/><linearGradient id="SVGID_3_" gradientUnits="userSpaceOnUse" x1="48.087" y1="-543.458" x2="62.947" y2="-595.838" gradientTransform="translate(0 620)"><stop offset="0" stop-color="#56408b"/><stop offset=".03" stop-color="#5a4390"/><stop offset=".32" stop-color="#7456b4"/><stop offset=".58" stop-color="#8764cf"/><stop offset=".82" stop-color="#936cde"/><stop offset="1" stop-color="#976fe4"/></linearGradient><path d="M66.5 76.3H44.7c-1.5 0-2.7-1.3-2.7-2.8v-47c0-1.5 1.2-2.8 2.8-2.8h21.7c1.5 0 2.8 1.2 2.8 2.8v47c0 1.5-1.3 2.8-2.8 2.8z" fill="url(#SVGID_3_)"/><linearGradient id="SVGID_4_" gradientUnits="userSpaceOnUse" x1="41.98" y1="-570.61" x2="69.13" y2="-570.61" gradientTransform="translate(0 620)"><stop offset="0" stop-color="#623fe9"/><stop offset=".17" stop-color="#616cec"/><stop offset=".35" stop-color="#5f93ef"/><stop offset=".52" stop-color="#5eb2f1"/><stop offset=".69" stop-color="#5ec8f3"/><stop offset=".85" stop-color="#5dd6f4"/><stop offset="1" stop-color="#5ddaf4"/></linearGradient><path fill="url(#SVGID_4_)" d="M42 29.8h27.1V69H42z"/><path class="st2" d="M57.6 72.4c0 1.1-.9 2-2 2s-2-.9-2-2 .9-2 2-2 2 .9 2 2z"/><path d="M44.5 23.7h2.3c-1.4 0-2.5 1.1-2.5 2.5v47.5c0 1.4 1.1 2.5 2.5 2.5h-2.3c-1.4 0-2.5-1.1-2.5-2.5V26.2c0-1.3 1.1-2.4 2.5-2.5z" opacity=".06" fill="#fff"/><path class="st13" d="M66.7 23.7h-2.3c1.4 0 2.5 1.1 2.5 2.5v47.6c0 1.4-1.1 2.5-2.4 2.5h2.3c1.4 0 2.5-1.1 2.5-2.5V26.2c-.2-1.3-1.3-2.4-2.6-2.5z"/><path class="st2" d="M51.7 26.7h5.2v.3h-5.2zm5.8 0h1.4v.3h-1.4z"/><path class="st14" d="M22 73.8c0 1.3-1.1 2.4-2.4 2.4-1.3 0-2.4-1.1-2.4-2.4 0-1.3 1.1-2.4 2.4-2.4 1.3 0 2.4 1 2.4 2.4z"/><path class="st1" d="M19.4 74.5l-.8-.7.3-.3.5.5 1-1 .2.3z"/><path class="st15" d="M17.2 73.8c0 .7.3 1.4.9 1.9 1-.8 1.2-2.3.3-3.4l-.3-.3c-.5.4-.9 1.1-.9 1.8z"/><path class="st6" d="M18.3 74.8c-.6 1.2-2.1 1.7-3.3 1.2-1.2-.6-1.7-2.1-1.2-3.3.6-1.2 2.1-1.7 3.3-1.2 1.3.7 1.8 2.1 1.2 3.3z"/><path class="st1" d="M16 73.5l.3-.5.4.2-.3.5.6.3-.2.4-.5-.3-.3.6-.4-.2.3-.5-.5-.3.2-.4.4.2z"/><path class="st15" d="M14.9 71.6c-.4.2-.8.6-1 1.1-.5 1.1-.1 2.5.9 3.2 1.2-.7 1.6-2.2.9-3.4-.2-.4-.5-.7-.8-.9z"/><path class="st5" d="M15.7 73.7c0 1.4-1.1 2.5-2.5 2.5s-2.5-1.1-2.5-2.5 1.1-2.5 2.5-2.5 2.5 1.1 2.5 2.5z"/><path class="st1" d="M12.4 74.3l-.2.2-.7-.7.7-.7.2.2-.5.4.5.6zm1.5-1.8l-1 2.5h-.4l1-2.4.4-.1zm.5 1.3l-.4-.4.2-.2.7.7-.7.7-.2-.3.4-.5z"/><path class="st6" d="M38.8 74.5h.5c.1 0 .2-.1.2-.2v-.6c0-.1-.1-.2-.2-.2h-.4c-.1 0-.1 0-.1-.1v-.3l.2-.1c.1-.1.1-.2 0-.2l-.4-.4c-.1-.1-.2-.1-.2 0l-.3.3h-.3c-.1 0-.1-.1-.1-.1v-.4c0-.1-.1-.2-.2-.2H37c-.1 0-.2.1-.2.2v.4c0 .1 0 .1-.1.1h-.3l-.3-.3c-.1-.1-.2-.1-.2 0l-.4.4c-.1.1-.1.2 0 .2l.3.3v.3c0 .1-.1.1-.1.1h-.4c-.1 0-.2.1-.2.2v.6c0 .1.1.2.2.2h.4c.1 0 .1 0 .1.1v.3l-.3.3c-.1.1-.1.2 0 .2l.4.4c.1.1.2.1.2 0l.3-.3h.3c.1 0 .1.1.1.1v.2c0 .1.1.2.2.2h.6c.1 0 .2-.1.2-.2v-.4c0-.1 0-.1.1-.1h.3l.3.3c.1.1.2.1.3 0l.4-.4c.1-.1.1-.2 0-.2l-.3-.3v-.2l-.1-.2zm-2.3-.6c.1-.5.5-.8 1-.7h.1c.4.2.6.5.5.9-.1.5-.5.8-1 .7-.4 0-.7-.5-.6-.9z"/><path class="st14" d="M35.9 73.6h.7c.1 0 .3-.1.3-.3v-.9c0-.1-.1-.3-.3-.3H36c-.1 0-.2-.1-.2-.2s0-.1-.1-.2v-.3l.4-.4c.1-.1.1-.3 0-.4l-.7-.7c-.1-.1-.3-.1-.4 0l-.4.4c-.1.1-.2.1-.2 0l-.2-.1c-.1 0-.1-.1-.1-.2v-.6c0-.1-.1-.3-.3-.3H33c-.1 0-.3.1-.3.3v.6c0 .1-.1.2-.2.2l-.2.1H32l-.4-.4c-.1-.1-.3-.1-.4 0l-.7.7c-.1.1-.1.3 0 .4l.4.4c.1.1.1.2 0 .2 0 .1-.1.1-.1.2s-.1.1-.2.1H30c-.1 0-.3.1-.3.3v.9c0 .1.1.3.3.3h.6c.1 0 .2.1.2.2l.1.2c.1.1.1.2 0 .3l-.4.4c-.1.1-.1.3 0 .4l.7.7c.1.1.3.1.4 0l.4-.4h.3l.2.1c.1 0 .1.1.1.2v.5c0 .1.1.3.2.3h1c.1 0 .2-.1.2-.3v-.6c0-.1.1-.2.2-.2l.2-.1h.3l.4.4c.1.1.3.1.4 0l.7-.7c.1-.1.1-.3 0-.4l-.4-.4c-.1-.1-.1-.2 0-.2 0 0 0-.1.1-.2zm-3.7-1c.1-.7.8-1.2 1.5-1.1.1 0 .2 0 .2.1.6.2.9.8.8 1.5-.1.7-.8 1.2-1.5 1.1-.7-.2-1.2-.9-1-1.6z"/><path d="M74.5 73.3h16.3c.2 0 .3.2.3.3v2.2c0 .2-.2.3-.3.3H74.5c-.2 0-.3-.2-.3-.3v-2.2c0-.1.2-.3.3-.3z" fill="#e6e7e8"/><path class="st1" d="M91.2 73.9v1h-17v-1c0-.3.2-.5.5-.6h15.9c.4 0 .6.3.6.6z"/><path class="st17" d="M75.2 73.3h.2v.4h-.2zm.7 0h.2v.4h-.2zm.8 0h.2v.4h-.2zm.7 0h.2v.4h-.2zm.8 0h.2v.7h-.2zm.7 0h.2v.4h-.2zm.8 0h.2v.4h-.2zm.7 0h.2v.4h-.2zm.8 0h.2v.4h-.2zm.7 0h.2v.7h-.2zm.8 0h.2v.4h-.2zm.8 0h.2v.4h-.2zm.7 0h.2v.4h-.2zm.8 0h.2v.4H85zm.7 0h.2v.7h-.2zm.8 0h.2v.4h-.2zm.7 0h.2v.4h-.2zm.8 0h.2v.4H88zm.8 0h.2v.4h-.2zm.7 0h.2v.7h-.2zm.8 0h.2v.4h-.2z"/><path class="st9" d="M69.2 42v-8.5h-6.3c-1.1-.1-2.2-.1-3.3.1l-.2.1c-.2.1-.5.3-.6.5v.1c-.1.1-.1.3-.2.4-.2.9-.2 1.7-.1 2.6v2.8s0 .1.1.1v.1c0 .4.1.7.4 1 .3.3.6.5 1 .5 1.4.2 2.7.2 4.1.1l5.1.1z"/><linearGradient id="SVGID_5_" gradientUnits="userSpaceOnUse" x1="59.05" y1="-582.745" x2="85.6" y2="-582.745" gradientTransform="translate(0 620)"><stop offset="0" stop-color="#d77edb"/><stop offset=".15" stop-color="#cd79dc"/><stop offset=".42" stop-color="#b26adf"/><stop offset=".75" stop-color="#8753e5"/><stop offset="1" stop-color="#623fe9"/></linearGradient><path d="M61 33h22.6c1.1 0 2 .9 2 2v4.5c0 1.1-.9 2-2 2H61c-1.1 0-2-.9-2-2V35c0-1.1.9-2 2-2z" fill="url(#SVGID_5_)"/><path class="st19" d="M84.5 33.2c.1.2.2.5.2.7v4.9c0 1-.8 1.8-1.8 1.8h-23c-.3 0-.5-.1-.7-.2.3.6.9 1.1 1.6 1.1h23c1 0 1.8-.8 1.8-1.8v-4.9c0-.7-.4-1.3-1.1-1.6z"/><path class="st1" d="M62.2 34.1h4.3c.5 0 .9.4.9.9v4.3c0 .5-.4.9-.9.9h-4.3c-.5 0-.9-.4-.9-.9V35c0-.5.4-.9.9-.9zm6.1 1.1h15.2v.3H68.3zm5.5 1.9h9.7v.3h-9.7zm-5.5 0h4.3v.3h-4.3zm0 1.8h8v.3h-8z"/><linearGradient id="SVGID_6_" gradientUnits="userSpaceOnUse" x1="42.98" y1="-572.58" x2="68.06" y2="-572.58" gradientTransform="translate(0 620)"><stop offset="0" stop-color="#5ddaf4"/><stop offset=".15" stop-color="#5ebaf2"/><stop offset=".44" stop-color="#6086ee"/><stop offset=".68" stop-color="#615feb"/><stop offset=".88" stop-color="#6248ea"/><stop offset="1" stop-color="#623fe9"/></linearGradient><path d="M45 43.4h21.1c1.1 0 2 .9 2 2v4c0 1.1-.9 2-2 2H45c-1.1 0-2-.9-2-2v-4c0-1.1.9-2 2-2z" fill="url(#SVGID_6_)"/><path class="st19" d="M67.1 43.5c.1.2.1.5.2.7v4.6c0 .9-.8 1.7-1.7 1.7H43.8c-.2 0-.5-.1-.7-.2.3.6.9 1 1.5 1h21.7c.9 0 1.7-.8 1.7-1.7V45c.1-.7-.3-1.3-.9-1.5z"/><path class="st1" d="M46 44.3h4c.5 0 .9.4.9.9v4c0 .5-.4.9-.9.9h-4c-.5 0-.9-.4-.9-.9v-4c0-.4.4-.9.9-.9zm5.7 1.1h14.4v.3H51.7zm5.2 1.8h9.2v.3h-9.2zm-5.2 0h4v.3h-4zm0 1.7h7.6v.3h-7.6z"/><linearGradient id="SVGID_7_" gradientUnits="userSpaceOnUse" x1="39" y1="-562.415" x2="65.55" y2="-562.415" gradientTransform="translate(0 620)"><stop offset="0" stop-color="#623fe9"/><stop offset=".31" stop-color="#6e4ae8"/><stop offset=".88" stop-color="#8f68e5"/><stop offset="1" stop-color="#976fe4"/></linearGradient><path d="M41 53.3h22.6c1.1 0 2 .9 2 2v4.5c0 1.1-.9 2-2 2H41c-1.1 0-2-.9-2-2v-4.5c0-1.1.9-2 2-2z" fill="url(#SVGID_7_)"/><path class="st19" d="M64.5 53.5c.1.2.2.5.2.7v4.9c0 1-.8 1.8-1.8 1.8h-23c-.3 0-.5-.1-.7-.2.3.6.9 1.1 1.6 1.1h23c1 0 1.8-.8 1.8-1.8v-4.9c-.1-.7-.5-1.3-1.1-1.6z"/><path class="st1" d="M42.2 54.4h4.3c.5 0 .9.4.9.9v4.3c0 .5-.4.9-.9.9h-4.3c-.5 0-.9-.4-.9-.9v-4.3c0-.4.4-.9.9-.9zm6 1.1h15.2v.3H48.2zm5.5 1.9h9.7v.3h-9.7zm-5.5 0h4.3v.3h-4.3zm0 1.9h8v.3h-8z"/><linearGradient id="SVGID_8_" gradientUnits="userSpaceOnUse" x1="85.629" y1="-543.791" x2="94.709" y2="-549.951" gradientTransform="translate(0 620)"><stop offset="0" stop-color="#623fe9"/><stop offset=".31" stop-color="#6e4ae8"/><stop offset=".88" stop-color="#8f68e5"/><stop offset="1" stop-color="#976fe4"/></linearGradient><path d="M85.5 70.1h9.2c.1 0 .2.1.2.2V76c0 .1-.1.2-.2.2h-9.2c-.1 0-.2-.1-.2-.2v-5.7c0-.1.1-.2.2-.2z" fill="url(#SVGID_8_)"/><linearGradient id="SVGID_9_" gradientUnits="userSpaceOnUse" x1="85.35" y1="-545.538" x2="94.94" y2="-545.538" gradientTransform="translate(0 620)"><stop offset="0" stop-color="#623fe9"/><stop offset=".49" stop-color="#6441e9"/><stop offset=".68" stop-color="#6b47e8"/><stop offset=".82" stop-color="#7752e7"/><stop offset=".93" stop-color="#8861e5"/><stop offset="1" stop-color="#976fe4"/></linearGradient><path d="M94.9 76.1l-4.6-3.3c-.1-.1-.3-.1-.4 0l-4.6 3.3c.1.1.2.1.3.2h9c.1 0 .3-.1.3-.2z" fill="url(#SVGID_9_)"/><linearGradient id="SVGID_10_" gradientUnits="userSpaceOnUse" x1="85.35" y1="-548.168" x2="94.94" y2="-548.168" gradientTransform="translate(0 620)"><stop offset="0" stop-color="#623fe9"/><stop offset=".08" stop-color="#6945e8"/><stop offset=".43" stop-color="#825ce6"/><stop offset=".75" stop-color="#926ae5"/><stop offset="1" stop-color="#976fe4"/></linearGradient><path d="M85.3 70.2l4.7 3.3c.1.1.3.1.4 0l4.6-3.3c-.1-.1-.2-.1-.3-.1h-9c-.1-.1-.3 0-.4.1z" fill="url(#SVGID_10_)"/><path class="st9" d="M31.9 75.5v-5.3l-.2-.2h-.3c-.2.1-.8.7-.8.9s.2.2.3.4c.3.9-.3.4-.6.7l-.1.1c-.1 0-.1.1-.2.2-.1.2-.2.5-.1.7.1.3.1.4.1.4.1.1.1.1.2.1l.1.1c.3.2.7-.5.6.5 0 .1-.3.2-.3.3s-.2.2-.1.4c.2.3.4.6.7.8.4.1 0 0 .5 0l.2-.1z"/><path d="M23.1 69.9h7.3c.5 0 .9.4.9.8v4.6c0 .5-.4.8-.9.8h-7.3c-.5 0-.9-.4-.9-.8v-4.6c.1-.4.5-.8.9-.8z" fill="#f5f7f9"/><path d="M30.7 70h-.4c.3 0 .5.2.5.5v5.3c0 .3-.2.5-.5.5h.4c.3 0 .5-.2.5-.5v-5.3c0-.3-.2-.5-.5-.5z" opacity=".2" fill="#babeca"/><path class="st14" d="M28.7 74.1h-4.8c-.1-1.3.9-2.5 2.2-2.5s2.5.9 2.5 2.2c.1.1.1.2.1.3z"/><path class="st2" d="M24.7 75.3l2.6-2.6 2.5 2.6z"/><path class="st27" d="M22.6 75.3l2.6-2.6 2.5 2.6z"/><g class="st28"><path class="st17" d="M73.3 63l-.5 2.9-1.9 7.9h.2l-.1.3-.3.3-.3-.5-2.8.9c-.3.1-.5.4-.4.6v.7H73v-1.7h-.3l.2-.7h.1c1-3.3 2.5-5.3 2.5-7.6V65l2.5-5.7 2.2 6.4 1.1 8.1h.2v.9H81v1l.2.5h2.1l.3-.5v-1h-.5v-.9h.3l-1-8.9L82 59v-.5c0-.1 0-.3.1-.4v-.4c0-.3-.1-.5-.1-.8l-.1-.5h-7L73.3 63z"/></g><path class="st6" d="M77.7 43.1c-.1-.1-.3-.2-.3-.3-.1-.2-.2-.4-.2-.5l-.3-.6c0-.1-.1-.2-.1-.3-.3-.4-.8-.7-1.4-.7-.4 0-1.2-.2-1.2.3 0 .1 0 .2.1.3.1.3.4.4.4.8 0 .2 0 .4.1.6.1.2.4.3.5.6.1.2.1.5.1.7 0 .1 0 .1.1.2s.2.1.3.2c.2.1.4.3.5.6.1.2.2.5.2.7.2.4.4.7.7 1.1-.1-.2-.1-.4.1-.6.1-.1.3-.1.4-.3.2-.2.2-.5.2-.8v-1.2c0-.3 0-.6-.2-.8z"/><path class="st1" d="M80.8 73.3h1.6v2h-1.6zM71.9 75l-2.4.1.9-1 .3-1 1.6.5z"/><path class="st5" d="M74.5 55.2L72.7 63l-.5 2.9-1.9 7.9h2.1c1-3.3 2.5-5.3 2.5-7.6V65l3.1-7.3c.3-.2.6-.6.6-1v-1.5h-4.1z"/><path class="st5" d="M80.9 55.2l.4 1.7c.2.5.2 1.1 0 1.6v.5l.5 6 1 8.9h-2.2l-1.1-8.1-2.6-7.5v-3.1h4z"/><path class="st9" d="M81.8 64.9l-.5-6v-.5c.2-.5.2-1.1 0-1.6l-.3-1h-.6l.1 1c.2.5.2 1.1 0 1.6l.3.5.5 6 1 8.9h.6l-1.1-8.9z"/><path class="st1" d="M83.1 45.8l.8.1-1.9-3.5-.6-.3-.4-.7h.6V41l-.6-1.4c.1-.1.1-.1.2-.1l.7 1.2h.1l-.4-1.5h.3l.3 1.3h.1l-.2-1.3h.2l.2 1.2h.1l.1-.8h.1l.2 1.7v.8l2.3 3.8c.2.4.2.9-.2 1.2-.2.2-.4.3-.7.3l-1.5.1.2-1.7z"/><g class="st29"><path class="st17" d="M85.4 46c0 .3-.1.5-.3.7-.2.2-.4.3-.7.3H83v.6l1.5-.1c.2 0 .5-.1.7-.3.3-.4.4-.8.2-1.2z"/></g><path class="st1" d="M72.2 45.8l-.8.1 1.8-3.5.6-.3.5-.7h-.6V41l.6-1.4c-.1-.1-.1-.1-.2-.1l-.7 1.2h-.2l.4-1.5h-.3l-.3 1.3h-.2l.2-1.3h-.2l-.2 1.2h-.1l-.1-.8h-.1l-.2 1.7v.8L69.8 46c-.2.4-.1.9.2 1.2.2.2.4.3.7.3l1.5.1v-1.8z"/><g class="st29"><path class="st17" d="M71.1 46.8c-.2 0-.5-.1-.7-.3-.3-.3-.4-.8-.2-1.2l-.4.7c-.2.4-.2.9.2 1.2.2.2.4.3.7.3l1.5.1v-.7l-1.1-.1z"/></g><path class="st9" d="M81 55.8l-.1-.6h-6.3l-.3.9c1.8-.3 5.9-.2 6.7-.3z"/><path class="st14" d="M76.7 45l-2.4 2.6-.3.8c0 .3-.1.6 0 .9l.4 2.3c0 1.2-.2 2.4-.5 3.6 0 0 7.4.2 7.3 0-.6-.9-.8-2-.8-3.1l.5-4.4-2.4-2.7h-1.8z"/><path class="st13" d="M80.4 52l.5-4.4-2.4-2.6h-.7l2.4 2.6-.5 4.4c0 1.1.3 2.2.8 3.1-.5.1-1 .2-1.5.1.7.1 1.5 0 2.2-.1-.6-.9-.8-2-.8-3.1z"/><path class="st14" d="M72.3 74.5v1.7h-5.8v-.7c0-.3.2-.5.4-.6l2.8-.9.4.6h2.2z"/><path class="st2" d="M66.5 75.7h5.8v.5h-5.8z"/><path class="st14" d="M80.5 76.2h2.1l.3-.5v-1h-2.6v1z"/><path class="st2" d="M82.6 76.2l.3-.5h-2.5l.1.5z"/><path class="st14" d="M78.5 43.7l1.8 1.3 2.8.6v2.1h-1.7l-1.5-.3-1.4-2.4zm-1.8.8l-1.8.5-2.7.6v2.1h1.6l1.5-.3 2.3-2.5z"/><path class="st9" d="M74.7 55.2c.3-1.3.5-2.7.4-4.1l-.4-2.3c0-.3 0-.6.1-.9l.1-.4c.1-.2 0-.4-.2-.5h-2.5v.8h1.7l.5-.1-.3.8c-.1.3-.1.6-.1.9l.4 2.3c0 1.2-.2 2.4-.5 3.6l.8-.1z"/><path class="st1" d="M77.6 45.2c-.5 0-.9-.4-.9-.9V43h1.9v1.4c-.1.4-.5.8-1 .8z"/><path class="st1" d="M75 40.5c-.1.4-.2.9-.2 1.4l.1.3-.3.5c-.1.1-.1.2 0 .3h.4v.9c0 .2.2.4.4.4h.4c.8 0 1.6-.4 2-1.1l.4-.7-.2-2.1c-.9-.6-2.1-.6-3 .1z"/><g class="st29"><path class="st17" d="M79.6 49.5c0-.1 0-.2.1-.3 0-.1.1-.2.2-.2 0 .2 0 .4.1.6.1-.4.3-.7.5-1 .1-.1.2-.1.2-.2s.1-.3.1-.4v-.4L78.5 45H78c.3-.2.5-.5.5-.8v-1.3H78l.2-.4-.2-2.1c-.9-.7-2.2-.7-3.1 0-.1.2-.1.4-.1.6l.6.3c.3 0 .6-.1.8.2.1.2.2.5.1.8v.4c.1.6.8.6.8 1.2 0 .2-.1.5-.1.7v.4h.1-.1c0 .1.1.2.1.2.2.1.3.2.5.2.3.1.4.5.3.8 0 .2-.1.3-.1.5s.1.3.2.5c.2.2.6.1.8.3.2.2.3.5.2.8-.1.3-.1.5-.1.8 0 .2.1.3.1.5.1.2 0 .4-.2.5.4-.2.7-.3.8-.6z"/></g><path class="st6" d="M81.4 46.8c0-.1-.1-.1-.1-.2-.2-.2-.5-.4-.5-.7v-.6c0-.3-.1-.5-.3-.7-.1-.1-.3-.2-.4-.3v-.4c0-.3-.1-.6-.3-.8-.2-.3-.4-.4-.4-.8s.1-.5-.1-.7l-.3-.3c-.1-.1-.1-.3-.1-.5-.3-1.4-1.9-1.4-3-1.3-.3 0-.6 0-.8.1-.1 0-.3.1-.3.3v.3c.2.5.6.9 1.2 1 .3 0 .6-.1.8.2.1.2.2.5.1.8v.4c.1.6.8.6.8 1.2 0 .2-.1.5-.1.7 0 .2 0 .5.2.6.2.1.3.2.5.2.3.1.4.5.3.8 0 .2-.1.3-.1.5s0 .3.2.5.6.1.8.3c.2.2.3.5.2.8-.1.3-.1.5-.1.8 0 .2.1.3.1.5s0 .3-.1.4c.2 0 .4-.2.5-.4 0-.1 0-.2.1-.3 0-.1.1-.2.2-.2 0 .2 0 .4.1.6.1-.4.3-.7.5-1 .1-.1.2-.1.2-.2s.1-.3.1-.4c.2-.4.3-.9.1-1.2z"/><g class="st28"><path class="st17" d="M79.7 49.7c.2-.1.1-.4.1-.6 0-.2 0-.5.1-.6.2-.5 0-1.1-.5-1.3l-.1-.2c-.1-.1-.1-.1-.1-.2-.1-.4 0-1-.3-1.3-.2-.2-.4-.3-.6-.5-.3-.4 0-1-.2-1.5s-.5-.5-.7-.8c-.2-.3-.3-.7-.2-1.1.1-.2.1-.3 0-.5-.1-.1-.2-.2-.3-.2-.6-.2-1.7.1-1.8-.8v-.3c-.1 0-.2.1-.3.3v.3c.2.5.6.9 1.2 1 .3 0 .6-.1.8.2.1.2.2.5.1.8v.4c.1.6.8.6.8 1.2 0 .2-.1.5-.1.7 0 .2 0 .5.2.6.2.1.3.2.5.2.3.1.4.5.3.8 0 .2-.1.3-.1.5s0 .3.2.5.6.1.8.3c.2.2.3.5.2.8-.1.3-.1.5-.1.8 0 .2.1.3.1.5s0 .3-.1.4c.2 0 .4-.1.5-.3-.2-.2-.3-.1-.4-.1zm1.3-1.2l.1-.1-.1.1z"/></g><path d="M80.4 49.6c.1-.1.1-.3.2-.5-.1.1-.2.3-.2.5zm-.5-.1c0 .1-.1.1-.1.2.1 0 .1-.1.1-.2l.1-.2c0 .1-.1.1-.1.2zm1.5-2.7c0-.1-.1-.1-.1-.2-.2-.2-.5-.4-.5-.7v-.6c0-.3-.1-.5-.3-.7-.1-.1-.3-.2-.4-.3v-.4c0-.3-.1-.6-.3-.8-.2-.3-.4-.4-.4-.8s.1-.5-.1-.7l-.3-.3c-.1-.1-.1-.3-.1-.5-.3-1.4-1.9-1.4-3-1.3-.3 0-.6 0-.8.1-.1 0-.3.1-.3.3v.1c.1-.1.1-.1.2-.1.3-.1.5-.1.8-.1 1.1-.1 2.7-.1 3 1.3 0 .2.1.3.1.5l.3.3c.1.1 0 .4 0 .7s.2.5.4.8c.2.2.3.5.3.8v.4c.1.1.3.2.4.3.2.2.3.4.3.7v.6c.1.3.3.5.5.7l.1.2c.2.4.1.9-.2 1.3 0 .1-.1.2-.1.3l.1-.1c0-.1.1-.3.1-.4.4-.5.5-1 .3-1.4z" fill="#9ee9f8"/><g class="st28"><path class="st17" d="M38.1 57.3l-1.5.1-3.3.6c-1.6.4-4.6-.5-4.6-.5l-.6-.3c-.1.1-.2.3-.3.4l-.2.4-.3.3-.3.3-.3.3-.3.2-.2.2-.2.2-.2.1-.1.1-.4.3h-.1c-.9.5-1.8 1.1-2.6 1.7l3.8 3.8c.2.2.2.5.1.8l-3.7 7.2-.3-.1-.1.3.3.5.1-.2 1 1 2.2.2v.6l-.4.2h-3.3v-6.7c.3-1 .8-2 1.3-3l-1.3-.8v-9.9c1.4-1.2 2.6-2.3 2.6-2.3.8-.5 1.9-.7 2.8-.3l.3-.3h-.1s-.1 0-.1-.1l-.1-.1c-.1-.1-.1-.3 0-.4v-.4c0-.1-.1-.2-.1-.2.1-.1.2-.1.3-.2V51l.2-.2.1-.1s.1-.1.1-.2c.2-.2.3-.4.4-.7 0-.1.1-.3.2-.4.4-.3.8-.5 1.3-.5.5-.1 1.1-.4 1.6-.2.2.1.3.2.4.3.3.2.6.5.9.8.1.1.1.3.2.4.1.1.3.1.4.3l.1.1v.3c0 .2-.1.3-.1.5l-.3.8c-.3 0-.4 0-.4-.2-.2.1-.4.2-.6.2l-.1 1.3-.4-.2-.6.7c-.4.5-1.2.5-1.7.1l-.4-.3-.6.6 2.8 1.4 5.9.2.9-1.1.7-2.3c.1.2.2.5.2.8l-.2 1.3c0-.1 0 2.1-.8 2.6z"/></g><path transform="rotate(-48.69 27.813 53.407)" class="st1" d="M26.4 52.5h2.8v1.7h-2.8z"/><path class="st19" d="M27.4 52.6l.9 1.5 1.1-1.2-1.3-1.1z"/><path class="st1" d="M27.3 52.7l1.6 1.4c.5.4 1.3.4 1.7-.1l.6-.6.4.2.1-1.3c.4 0 .8-.2 1-.6l-.3-.3-1.3-1.2c-.5-.4-1.3-.4-1.7.1l-2.1 2.4zm-5.2 20.1l-.4 1 .7 1.1h-2.5V74l.7-1.4zm-13.8-.1l-.8.7.1 1.2-2-1 .4-.7 1.2-.9z"/><path class="st2" d="M21.3 61.1l4.4 4.4c.2.2.2.5.1.8l-3.7 7.2-1.8-.4s1.6-5.4 2.5-6.7l-5.4-3.5 3.9-1.8z"/><path class="st19" d="M21.5 73.3s1.6-5.7 2.5-7L18.7 62l-1.2 1 5.4 3.5c-.9 1.3-2.5 6.7-2.5 6.7l1.1.1z"/><path class="st2" d="M17.8 58.6c-.9.3-1.7.8-2.3 1.6l-.9 2.2-3.6 4.4s-2.2 1.1-4.6 5.3l1.5 1.3 4.7-4.7 6-5.2 2.1-2.4-2.9-2.5z"/><path class="st27" d="M6.9 72.2c2.4-4.2 4.6-5.3 4.6-5.3l3.6-4.4.9-2.2c.5-.7 1.2-1.2 2.1-1.5l-.2-.2c-.9.3-1.7.8-2.3 1.6l-.9 2.2-3.7 4.4s-2.2 1.1-4.6 5.3l1.5 1.3.1-.1-1.1-1.1z"/><path class="st1" d="M27.6 54.3l3.2 1.6 5.9.2.9-1.1.7-2.3c.2.2.2.5.2.8l-.2 1.3-.3 1.3-.6.9-7 .5-3-1.2.2-2z"/><path d="M21 62l-.4.3c-1.8-.3-3.3-1.5-3.9-3.3.4-.2 1-.4 1-.4L21 62z" opacity=".3" fill="#525d7a"/><path class="st6" d="M27 53c-.9-.3-2-.2-2.8.3 0 0-5 4.7-6.7 5.1 0 0 .6 3.7 3.7 4 1-.9 2.1-1.7 3.3-2.4 1.9-1.1 3.3-2.9 3.8-5.1L27 53z"/><path d="M17.7 58.7c1.7-.4 6.7-5.1 6.7-5.1.8-.5 1.8-.6 2.7-.3L27 53c-.9-.3-2-.2-2.8.3 0 0-5 4.7-6.7 5.1.2 1.2.8 2.2 1.6 3.1-.7-.9-1.2-1.8-1.4-2.8z" fill="#7de1f6"/><path class="st19" d="M27.4 55.1c-.7 1.9-2.1 3.5-3.8 4.5-1.3.7-2.4 1.5-3.5 2.5.4.2.7.2 1.1.3 1-.9 2.1-1.7 3.3-2.4 1.7-1 3.1-2.6 3.6-4.5.1-.2-.6-.7-.7-.4z"/><path class="st2" d="M20.1 74.3l.4.4h1l.6-.7 1 1.1 2.2.1v.6l-.4.3h-5.2v-1.8zm-12.5-.7l.4 1.1.4.5 1 .4v.4l-.5.2H6.8l-1.8-2 .9-1.4.3.2v.4l.6.5z"/><path class="st6" d="M25.4 56.2l2.6 1 .8-2-2.6-1c-.5-.2-1.2 0-1.4.6-.3.5 0 1.1.6 1.4 0-.1 0-.1 0 0z"/><pattern id="SVGID_11_" xlink:href="#k" patternTransform="matrix(.33 0 0 .33 -5444.046 -5591.46)"/><path d="M28.8 55.2l-.5-.2-1.3-2c-.9-.3-2-.2-2.8.3 0 0-5 4.7-6.7 5.1 0 0 .6 3.7 3.7 4 1-.9 2.1-1.7 3.3-2.4 1.3-.7 2.3-1.7 3-3l.5.2.8-2z" fill="url(#SVGID_11_)"/><path class="st19" d="M25.6 55.6c-.5-.2-.7-.7-.6-1.2-.4.4-.4 1.1.1 1.5.1.1.2.2.3.2l2.6 1 .2-.6-2.6-.9z"/><path class="st1" d="M28.7 55.4l2.4.6h6.3l.9-1.1.7-2.3c.1.2.2.5.2.8l-.2 1.3-.3 1.3c0 .1 0 .1-.1.2-.1.3-.3.6-.5.8h-1.6c-.2 0-.3 0-.5.1l-3.4.6c-1.2.1-2.3 0-3.5-.3l-1-.4.6-1.6z"/><path class="st19" d="M38.9 54.2l-.2 1.3c0 .1 0 .1-.1.2-.1.3-.3.6-.5.8l-1.6.1H36l-3.4.6c-1.2.1-2.3 0-3.5-.3l-1-.3-.1.4 1.1.3c1.1.3 2.3.4 3.5.3l3.4-.5h2.2c.2-.2.4-.5.5-.8 0-.1.1-.1.1-.2l.2-1.3.2-1.3v-.3l-.3 1z"/><path d="M19.7 75.8l2.5-.9h-2.5zM5.1 74l.7.7h1.8L6.2 74l-.6-.7z" fill="#f6f6f6"/><g class="st29"><path class="st17" d="M32.4 51.4l-1.3-1.2c-.5-.4-1.3-.4-1.7.1l-2.1 2.4.3.3h.1c.1-.1.2-.2.2-.3.1-.2.2-.4.4-.6.2-.1.4-.1.6-.1h.1s.1.1.1 0c0-.3 0-.6.3-.7h.3l.1.1c.1.1.1.2.1.3 0 .2-.1.3-.1.5s0 .5-.1.5c.2 0 .2-.3.3-.4s.4-.3.6-.5.2-.4.5-.5 1 .3 1.2.6c.2-.1.3-.2.4-.4l-.3-.1z"/></g><path class="st2" d="M27.4 50.9l.1-.2c.2-.2.3-.4.4-.7 0-.1.1-.3.2-.4.4-.3.8-.5 1.3-.5.5-.1 1.1-.4 1.6-.2.2.1.3.2.5.3.3.2.6.5.9.8.1.1.1.3.2.4.1.1.3.1.3.3.1.3.1.6 0 .9l-.3.8c-.2-.1-.3-.3-.4-.5s-.9-.8-1.2-.6-.3.4-.5.5-.5.3-.6.5-.1.4-.3.4c.1 0 .1-.5.1-.6 0-.2 0-.3.1-.5 0-.1 0-.2-.1-.3l-.1-.1h-.2c-.3.1-.3.4-.3.7h-.3c-.2 0-.4 0-.6.1-.2.2-.3.3-.4.6 0 .1-.1.2-.2.3h-.5c-.3-.2 0-.6 0-.8 0-.1-.1-.2-.1-.2.1-.1.3-.1.3-.2s0-.4-.1-.4c.1 0 .1-.1.2-.1v-.3z"/><path class="st27" d="M29.8 52v-.2.2c0 .2 0 .6-.1.6h.1V52zm-2.8-.2v.2c.1 0 .1-.1.2-.1v-.4c-.1.1-.2.1-.3.2 0 0 .1 0 .1.1zm.2-.4l.2-.1.1-.2c.2-.2.3-.4.4-.7 0-.1.1-.3.2-.4.4-.3.8-.5 1.3-.5.5-.1 1.1-.4 1.6-.2.2.1.3.1.5.3.3.2.6.5.9.8.1.1.1.3.2.4.1.1.3.1.3.3 0 .1.1.1.1.2.1-.2 0-.4-.1-.6l-.3-.3c-.1-.1-.2-.2-.2-.4-.2-.3-.5-.6-.9-.8-.2-.2-.3-.2-.5-.3-.5-.2-1.1.1-1.6.2s-.9.2-1.3.5c-.1.1-.2.2-.2.4-.1.2-.2.5-.4.7l-.1.2-.1.1s-.1.1-.2.1c.1-.1.2.2.1.3zm-.2.8s0-.1 0 0-.1.2 0 .4v-.4z"/></svg>