<svg xmlns="http://www.w3.org/2000/svg" xmlns:xlink="http://www.w3.org/1999/xlink" viewBox="0 0 100.01 100"><defs><linearGradient id="a" x1="71.99" y1="-590.83" x2="56.63" y2="-576.68" gradientTransform="translate(0 620)" gradientUnits="userSpaceOnUse"><stop offset="0" stop-color="#623fe9"/><stop offset=".02" stop-color="#6440e9"/><stop offset=".41" stop-color="#805ae6"/><stop offset=".75" stop-color="#9169e5"/><stop offset="1" stop-color="#976fe4"/></linearGradient><linearGradient id="b" x1="60.89" y1="-547.18" x2="71.07" y2="-565.47" gradientTransform="translate(0 620)" gradientUnits="userSpaceOnUse"><stop offset="0" stop-color="#623fe9"/><stop offset=".25" stop-color="#6844e8"/><stop offset=".59" stop-color="#7954e7"/><stop offset=".97" stop-color="#946de4"/><stop offset="1" stop-color="#976fe4"/></linearGradient><linearGradient id="c" x1="760.18" y1="1521.39" x2="770.36" y2="1503.1" gradientTransform="rotate(90 1147.9 447.56)" xlink:href="#b"/><linearGradient id="d" x1="760.17" y1="-928.48" x2="770.36" y2="-946.77" gradientTransform="matrix(0 1 1 0 969.17 -700.34)" gradientUnits="userSpaceOnUse"><stop offset="0" stop-color="#976fe4"/><stop offset=".03" stop-color="#946de4"/><stop offset=".41" stop-color="#7954e7"/><stop offset=".75" stop-color="#6844e8"/><stop offset="1" stop-color="#623fe9"/></linearGradient><linearGradient id="e" x1="37.42" y1="-560.78" x2="57.33" y2="-560.78" xlink:href="#b"/><pattern id="f" width="57.6" height="57.6" patternTransform="matrix(.35 0 0 .35 40.33 -26.22)" patternUnits="userSpaceOnUse"><path fill="none" d="M0 0h57.6v57.6H0z"/><path fill="none" d="M0 0h57.6v57.6H0z"/><path fill="none" d="M0 0h57.6v57.6H0z"/><path fill="none" stroke="#fff" stroke-width=".5" d="M52.5 3.6h3m-17.4 0h3m-17.4 0h3m-17.4 0h3m33 7.2h3m-17.4 0h3m-17.4 0h3m-17.4 0h3M52.5 18h3m-17.4 0h3m-17.4 0h3M9.3 18h3m33 7.2h3m-17.4 0h3m-17.4 0h3m-17.4 0h3m47.4 7.2h3m-17.4 0h3m-17.4 0h3m-17.4 0h3m33 7.2h3m-17.4 0h3m-17.4 0h3m-17.4 0h3m47.4 7.2h3m-17.4 0h3m-17.4 0h3m-17.4 0h3m33 7.2h3m-17.4 0h3m-17.4 0h3M2.1 54h3M54 2.1v3m-14.4-3v3m-14.4-3v3m-14.4-3v3m36 4.2v3m-14.4-3v3M18 9.3v3m-14.4-3v3M54 16.5v3m-14.4-3v3m-14.4-3v3m-14.4-3v3m36 4.2v3m-14.4-3v3m-14.4-3v3m-14.4-3v3M54 30.9v3m-14.4-3v3m-14.4-3v3m-14.4-3v3m36 4.2v3m-14.4-3v3m-14.4-3v3m-14.4-3v3M54 45.3v3m-14.4-3v3m-14.4-3v3m-14.4-3v3m36 4.2v3m-14.4-3v3m-14.4-3v3m-14.4-3v3"/></pattern><linearGradient id="g" x1="9.3" y1="-554.14" x2="9.82" y2="-567.61" gradientTransform="translate(0 620)" gradientUnits="userSpaceOnUse"><stop offset="0" stop-color="#623fe9"/><stop offset=".03" stop-color="#6244e9"/><stop offset=".37" stop-color="#6084ee"/><stop offset=".65" stop-color="#5eb3f1"/><stop offset=".87" stop-color="#5dcff3"/><stop offset="1" stop-color="#5ddaf4"/></linearGradient><linearGradient id="h" x1="16.82" y1="-557.69" x2="17.25" y2="-576.5" gradientTransform="translate(0 620)" gradientUnits="userSpaceOnUse"><stop offset="0" stop-color="#56408b"/><stop offset=".15" stop-color="#694997"/><stop offset="1" stop-color="#d77edb"/></linearGradient></defs><path fill="none" d="M0 0h100v100H0z"/><path d="M100 59.14c.27 12.8-3.57 32-50 31.84-31.25-.13-50-8.55-50-31.84S16.41 9 41.11 9 99.5 35.86 100 59.14z" fill="none"/><path d="M71.85 28.72H57.19s1.2 3.89 0 5.1c-1 1-3.41-1.06-4.46 0a3.53 3.53 0 0 0 0 4.46c1.05 1 3.41-1 4.46 0 1.2 1.2 0 5.1 0 5.1s3.9 1.2 5.1 0c1.05-1-1-3.41 0-4.46a3.53 3.53 0 0 1 4.46 0c1 1-1 3.41 0 4.46 1.2 1.2 5.1 0 5.1 0z" fill="url(#a)"/><path d="M57.19 28.72s.1.33.22.83h13.77v14c.41-.1.67-.18.67-.18V28.72z" fill="#525d7a" opacity=".1"/><path d="M72.85 71.82V57.16s-3.9 1.2-5.1 0c-1-1.06 1-3.42 0-4.47a3.55 3.55 0 0 0-4.46 0c-1 1 1.05 3.41 0 4.47s-5.1 0-5.1 0-1.2 3.89 0 5.1c1.05 1 3.41-1.06 4.46 0a3.55 3.55 0 0 1 0 4.46c-1 1-3.41-1-4.46 0-1.2 1.2 0 5.1 0 5.1z" fill="url(#b)"/><path d="M71.85 57.41v13.41H57.93c.13.59.26 1 .26 1h14.66V57.16s-.41.12-1 .25z" fill="#525d7a" opacity=".2"/><path d="M75.09 71.82h14.66s-1.2-3.9 0-5.1c1-1.06 3.41 1 4.46 0a3.57 3.57 0 0 0 0-4.47c-1-1-3.41 1.06-4.46 0-1.2-1.2 0-5.1 0-5.1s-3.9-1.2-5.1 0 1 3.42 0 4.47a3.55 3.55 0 0 1-4.46 0c-1-1 1-3.41 0-4.47-1.2-1.2-5.1 0-5.1 0z" fill="url(#c)"/><path d="M89.49 70.82h-13.4v-14c-.59.13-1 .25-1 .25v14.75h14.66s-.13-.46-.26-1z" fill="#525d7a" opacity=".2"/><path d="M39.65 71.82H25s1.2-3.9 0-5.1c-1-1-3.41 1-4.46 0a3.55 3.55 0 0 1 0-4.46c1-1 3.41 1 4.46 0 1.2-1.2 0-5.1 0-5.1s3.9-1.2 5.1 0c1 1-1.05 3.41 0 4.46a3.55 3.55 0 0 0 4.46 0c1-1-1-3.41 0-4.46 1.2-1.2 5.1 0 5.1 0z" fill="url(#d)"/><path d="M25.24 70.82h13.41v-14c.59.13 1 .26 1 .26v14.74H25s.12-.46.24-1z" fill="#525d7a" opacity=".2"/><path d="M39.82 57.11h-.07c-.14 0-.48-.14-.92-.24a9.93 9.93 0 0 0-2.61-.26V67.5h3.61z" style="isolation:isolate" fill="#2b2046" opacity=".3"/><path d="M37.42 66.82h14.66s-1.2-3.9 0-5.1c1.05-1 3.41 1 4.46 0a3.55 3.55 0 0 0 0-4.46c-1-1-3.41 1-4.46 0-1.2-1.2 0-5.1 0-5.1s-3.9-1.2-5.1 0c-1 1 1.05 3.41 0 4.46a3.55 3.55 0 0 1-4.46 0c-1.06-1 1-3.41 0-4.46-1.21-1.2-5.1 0-5.1 0z" fill="url(#e)"/><path d="M38.58 65.64V51.82c-.68.14-1.16.29-1.16.29v14.71h14.66s-.15-.49-.29-1.17z" fill="#525d7a" opacity=".2"/><path fill="#d77edb" d="M83.51 57.62l1.78 4.37 4.21 6.75 2.06-.93-4.24-7.96-3.15-10.1-.66 7.87z"/><path fill="#fff" d="M82.85 68.57h1.88v1.94h-1.88z"/><path d="M79.29 46.14l2.44 14.16 1.08 9h2s.19-8.38-.4-9.48l.4-9.7a6.11 6.11 0 0 0 .19-3 2.14 2.14 0 0 0-.52-1l-.11-.12z" fill="#f8aa8f"/><path d="M85.51 62.35a9.83 9.83 0 0 0-.44-2.69v-7l-.92-3-.66 7.87 1.8 4.4z" style="isolation:isolate" fill="#525d7a" opacity=".2"/><path d="M79.29 46.14l2.44 14.16 1.08 9h2s.19-8.38-.4-9.48l.4-9.7a6.11 6.11 0 0 0 .19-3 2.14 2.14 0 0 0-.52-1l-.11-.12z" fill="#d77edb"/><path fill="#fff" d="M82.59 69.26h-.16l-1.27 1.22-2.02.76v.53h5.9l.32-.49v-1.45l-.32-.21h-.31l-.73.74-1.45-.02.04-1.08z"/><path fill="#56408b" d="M84.73 69.62l-.73.74-1.45-.02.04-1.08h-.16l-1.27 1.22-1.99.75h6.19v-1.4l-.32-.21h-.31z"/><path fill="#fff" d="M82.76 33.59h1.93v1.88h-1.93z"/><path d="M82.77 34.23a2.49 2.49 0 0 0 1.56-1l-1.7.36z" style="isolation:isolate" fill="#525d7a" opacity=".15"/><path d="M82.26 29.49l-.09 1a3 3 0 0 1-.77 1s.07.27.26.29v1.36a.67.67 0 0 0 .66.66H83a2.55 2.55 0 0 0 2.43-1.8l.49-1.53-.71-1.47-1.8-.1a1.11 1.11 0 0 0-1.15.59z" fill="#fff"/><path d="M83.18 33.82a2.56 2.56 0 0 0 2.19-1.74l.49-1.53-.71-1.5-1.8-.1a1.13 1.13 0 0 0-1.09.5l-.05.51a3.54 3.54 0 0 0 .67.41 2.17 2.17 0 0 1 .35.15.88.88 0 0 1 .23.41.17.17 0 0 0 .07.16c.1.24.45.41.45.68a.44.44 0 0 1-.19.29l-.26.23a.73.73 0 0 0 0 .58.76.76 0 0 1 0 .59c-.04.19-.23.28-.35.36z" fill="#525d7a" opacity=".15"/><path d="M82.18 28.67c-.41.48-.05 1.1.34 1.46a3 3 0 0 0 .78.49l.35.14a1.27 1.27 0 0 1 .23.41.87.87 0 0 0 .07.17c.1.24.45.41.44.68a.38.38 0 0 1-.18.29 1 1 0 0 0-.26.23.73.73 0 0 0 0 .58.76.76 0 0 1 0 .59c-.09.16-.31.26-.44.4s-.3.28-.44.43-.24.6-.43.82a3.84 3.84 0 0 1-.82.56 1.05 1.05 0 0 0-.53.89c.55-.19 1.23.09 1.7-.26.08-.06.15-.14.23-.21A3.93 3.93 0 0 1 84 36a1.59 1.59 0 0 0 .58-.48 1.7 1.7 0 0 0 .71 0 2.32 2.32 0 0 0 1-.26 2.28 2.28 0 0 0 .58-.62l.25-.35.23-.33a3 3 0 0 0 .51-2.06 4.43 4.43 0 0 0-.86-1.69L86.12 29a2.11 2.11 0 0 0-.36-.43 1.4 1.4 0 0 0-.44-.22 5.05 5.05 0 0 0-1.69-.13 2 2 0 0 0-1.45.45z" fill="#623fe9"/><path d="M80.25 37.71l-2.73-.39a2.44 2.44 0 0 1-1.31-.65l-4.6-4.36-.55-.31-1.56-.63-.86-.67c-.25-.23-.1-.41.13-.39l.67.56.32.13.18-.11-1.07-1.05c0-.08.18-.21.26-.21l1 .92.22-.2-1.1-1.2c-.14-.2.24-.27.59.06l.71 1 .2-.08-.66-1.37c.06-.09.27.08.37.14.37.2.9 1.28.9 1.28l.36.11.21-.34-.08-.45.59.61-.07.94 4.26 4 3.83.88z" fill="#fff"/><path d="M77.73 36.91a2.67 2.67 0 0 1-1.32-.66l-4.59-4.36-.55-.35-1.49-.54-.32-.16-.67-.56c-.23 0-.38.16-.13.39l.86.67 1.56.63.55.35 4.6 4.36a2.44 2.44 0 0 0 1.31.65l2.73.39v-.44zm4.37-8.09a1.54 1.54 0 0 1 1-.6 1.53 1.53 0 0 0-.87.45.79.79 0 0 0-.23.33.34.34 0 0 1 .1-.18zm.58 7.23a4.22 4.22 0 0 0 .75-.65c.16-.25.15-.6.31-.87s.28-.31.39-.49.32-.28.39-.45a.72.72 0 0 0-.1-.57.69.69 0 0 1-.08-.58 1.09 1.09 0 0 1 .22-.26.37.37 0 0 0 .15-.31c0-.27-.4-.4-.53-.62l-.08-.16a1.29 1.29 0 0 0-.28-.38 2.22 2.22 0 0 0-.37-.09 3.06 3.06 0 0 1-.71-.33 3.16 3.16 0 0 0 .56.33l.35.14a1.27 1.27 0 0 1 .23.41.87.87 0 0 0 .07.17c.1.24.45.41.44.68a.38.38 0 0 1-.18.29 1 1 0 0 0-.26.23.73.73 0 0 0 0 .58.76.76 0 0 1 0 .59c-.09.16-.31.26-.44.4s-.3.28-.44.43-.24.6-.43.82a3.84 3.84 0 0 1-.82.56 1.05 1.05 0 0 0-.53.89 2.9 2.9 0 0 1 .93-.07 1.25 1.25 0 0 1 .46-.69z" fill="#525d7a" opacity=".15"/><path d="M84.42 46.06l-.06-.06-5.07.16.23 1.3c1.91-.47 4 2.18 5.51 1.13a6 6 0 0 0-.09-1.46 2.09 2.09 0 0 0-.52-1.07z" style="isolation:isolate" fill="#525d7a" opacity=".2"/><path d="M84.8 34.59a2.6 2.6 0 0 1 1.68 2l-1.92 6.47.54 3.7c-1.69 1.5-4.19-1-6.33.58l2.07-8.22a2.12 2.12 0 0 1-.3-1.81l.06-.2 2.11-1.7z" fill="#56408b"/><path d="M81.08 38.82l-.39.06.15.24-2.07 8.22a3.5 3.5 0 0 1 .49-.29l2-7.93a1.49 1.49 0 0 1-.18-.3zm-.35 8a31 31 0 0 0 3.17.46 26 26 0 0 0-3.17-.46z" opacity=".2" fill="#525d7a"/><path d="M84.36 35.88l-2.31.1-1.45 1.17-.06.2a2.14 2.14 0 0 0 .15 1.57l3.19-.57z" style="isolation:isolate" fill="#525d7a" opacity=".2"/><path fill="#56408b" d="M84.36 35.47l-3.92.16-.19 2.35 4.31.32-.2-2.83z"/><path d="M86.48 36.63a2.6 2.6 0 0 0-1.68-2l-2.09.86-.11.09-2.16.09-.19 2.33h.21a2.12 2.12 0 0 0 .38 1.17l-2.07 8.23c2.14-1.59 4.64.92 6.33-.58l-.54-3.7z" fill="url(#f)"/><path d="M87.81 32.64a1.31 1.31 0 0 0-.21-.82 1.91 1.91 0 0 0-.32-.24 1.46 1.46 0 0 0-1.8.13 3.15 3.15 0 0 0-.76.6 1.78 1.78 0 0 0-.28.38.45.45 0 0 0 0 .42 11.09 11.09 0 0 0 .41 1.5 1.49 1.49 0 0 0 1.14 1 5.42 5.42 0 0 0 .17 2.53 3.39 3.39 0 0 0 .41-.65l.59-1a6.49 6.49 0 0 0 .61-1.34 7.83 7.83 0 0 0 .04-2.51z" fill="#623fe9"/><path d="M87.81 32.64v-.72a4.42 4.42 0 0 0-.81-1.71L86.12 29a2.11 2.11 0 0 0-.36-.43 1.4 1.4 0 0 0-.44-.22 5.05 5.05 0 0 0-1.69-.13 2 2 0 0 0-1.45.51.8.8 0 0 0-.18.27 2.19 2.19 0 0 1 1.33-.42 4.87 4.87 0 0 1 1.7.11 1.78 1.78 0 0 1 .44.21 1.65 1.65 0 0 1 .36.43l.85 1.25a4.39 4.39 0 0 1 .83 1.71 1.09 1.09 0 0 1 0 .36 2 2 0 0 1 0 .35 8.18 8.18 0 0 1 0 2.42 3.24 3.24 0 0 1-.19.52 4.64 4.64 0 0 0 .37-.89 7.66 7.66 0 0 0 .12-2.41z" fill="#8165ed"/><path fill="#fff" d="M20.262 68.778l.925-1.438 1.37.881-.924 1.438z"/><path fill="#56408b" d="M25.74 52.56l-1.04 8.2-4.29 7.85 1.93.68 5.4-6.48 2.21-7.12-4.21-3.13z"/><path d="M24.8 71.82h-2.12l-3.48-1.39-.2-.53 1.24-1.71.19.17v.79l1.71.59.62-.59.56 1.12.52.46 1.67.32a1.13 1.13 0 0 1 .29.72z" fill="#56408b"/><path d="M24.8 71.82h.95a.92.92 0 0 0-.15-.51h-2.48L19.54 70l-.22-.5-.32.5.25.53 3.48 1.34zM23.13 70l-.56-.17-.04.14.69.21-.09-.18zm.28.4l-.56-.18-.04.14.86.27-.26-.23zm-.47-.78l-.54-.17-.13.11.76.24-.09-.18zm9.573-28.826l3.526-2.092 1.485 2.502-3.526 2.093zM32.21 68.61H34v1.71h-1.79z" fill="#fff"/><path d="M27.59 57.82l1.26 1.38L30 55.69l-4.21-3.13-.22 1.73a9.79 9.79 0 0 0 2.02 3.53z" style="isolation:isolate" fill="#161023" opacity=".3"/><path d="M25 52.9a9.59 9.59 0 0 0 3.18 4l4.56 3.36-.74 8.8h2.36a57.43 57.43 0 0 1 1.7-7.06 7.28 7.28 0 0 0 .16-1.74 3 3 0 0 0-.4-1.71l-.75-1.29-2-2.14-1.9-2.12v-1.46H25z" fill="#56408b"/><path d="M35.82 58.55l-.75-1.29-2-2.14-1.9-2.12h-.83l1.89 2.11 2 2.14.77 1.3a3 3 0 0 1 .4 1.71 7.08 7.08 0 0 1-.18 1.74 58.94 58.94 0 0 0-1.69 7h.83a59 59 0 0 1 1.7-7 7.28 7.28 0 0 0 .16-1.74 2.94 2.94 0 0 0-.4-1.71z" style="isolation:isolate" fill="#161023" opacity=".3"/><path d="M34.86 69L37 70.43l1.07.33a.56.56 0 0 1 .39.53v.33h-6.6l-.31-.48v-2h.31l.48.66h.9z" fill="#56408b"/><path d="M38.36 71a.54.54 0 0 1 .08.28v.33h-6.58l-.31-.48v-.63l.31.48zm-3.3-1.18v-.15h.81l.22.15h-1.03zm-.38-.48h.73l.22.16h-.95v-.16zm.78.78v-.15h.86l.22.15h-1.08zm4.82-30.79l-.49 1.49h-.37a1.34 1.34 0 0 1-.11 1.27l-.6-.21-.37.59a.92.92 0 0 1-1.27.29H37l-.57-.42a2.45 2.45 0 0 1-.71-3.16L36.93 37s3.07.48 3.35 2.33z" fill="#fff"/><path d="M40.21 39.06l-.06-.15v-.09a2.32 2.32 0 0 0-.59-.73l-.07-.09h-.16a6.12 6.12 0 0 0-2.24-1l-1.15 1.8-.21.36-.22.42c.12-.21.49-.32.69-.46a.84.84 0 0 1 .92-.12.78.78 0 0 1 .23.88 1.14 1.14 0 0 1-.42.59 1.2 1.2 0 0 1-.62.27h-.24a.75.75 0 0 0-.57.21 2.44 2.44 0 0 0 .94 1.39l.57.42a.77.77 0 0 0 .32.14 1 1 0 0 0 .83-.36l.16-.22h-.13c-.17 0-.24.2-.43.19a.54.54 0 0 1-.18 0 1.84 1.84 0 0 1-.58-.69c-.23-.35.08-.61.2-.82a2.63 2.63 0 0 1 .43-.5c.15-.16.15-.29.23-.38a.36.36 0 0 1 .29-.11.82.82 0 0 0 .46-.1 1.06 1.06 0 0 0 .23-.19 1.42 1.42 0 0 1 .24-.25.17.17 0 0 1 .14 0c.11 0 .12.15.19.22a1.13 1.13 0 0 0 .3.24 1.48 1.48 0 0 0 .29.12l.19-.6a2.56 2.56 0 0 0 .02-.39z" fill="#525d7a" opacity=".15"/><path d="M37.35 39.38a.76.76 0 0 0-.3-.86.87.87 0 0 0-.91.18 2 2 0 0 0-.46.57 1 1 0 0 1-.17.27h-.22a.54.54 0 0 1-.47-.15v-.09c0-.13 0-.22.14-.3a.64.64 0 0 0 .22-.38 2.53 2.53 0 0 0 0-.55.87.87 0 0 1 .17-.52c.08-.09.2-.13.27-.23a1 1 0 0 0 .15-.33 1.33 1.33 0 0 1 .3-.62 1.46 1.46 0 0 1 .38-.18 2.11 2.11 0 0 1 .35 0 1.33 1.33 0 0 0 .38-.18 1 1 0 0 1 .44-.17 1.08 1.08 0 0 1 .36.11h.43a2 2 0 0 1 .48.12 1 1 0 0 1 .36.17 1.28 1.28 0 0 1 .23.29c.16.2.34.19.49.4s.27.43.41.62a3.25 3.25 0 0 1 .4.5c.1.21.1.49.27.65s.13.09.16.16a.21.21 0 0 1 0 .24c-.23.35-.78.25-1.12.16l-.3-.1a1.34 1.34 0 0 1-.31-.22c-.07-.07-.09-.21-.2-.21h-.14a1.18 1.18 0 0 0-.23.27 1 1 0 0 1-.21.21.89.89 0 0 1-.45.12.42.42 0 0 0-.28.14c-.08.09-.13.3-.2.4a3.21 3.21 0 0 0-.39.52c-.11.22-.4.5-.15.84a1.92 1.92 0 0 0 .58.59H38c.19 0 .25-.19.41-.22s.25.09.33.16a.77.77 0 0 1 .22.22.21.21 0 0 1 .04.02 1.68 1.68 0 0 1-.55.81 1.36 1.36 0 0 1-.33.14l-.38.11a1.22 1.22 0 0 1-.6 0 1.41 1.41 0 0 1-.24-.13 5.32 5.32 0 0 1-1.06-.83 1.81 1.81 0 0 1-.48-1.1.8.8 0 0 1 .77-.68h.24a1.35 1.35 0 0 0 1-.93z" fill="#56408b"/><path d="M38.38 42.82l-.38.11a1.18 1.18 0 0 1-.59 0 1.15 1.15 0 0 1-.25-.12A4.66 4.66 0 0 1 36.1 42a1.8 1.8 0 0 1-.4-1.32.79.79 0 0 1 .08-.26.83.83 0 0 0-.42.59 1.85 1.85 0 0 0 .41 1.32 5.32 5.32 0 0 0 1.06.83 1.41 1.41 0 0 0 .24.13 1.22 1.22 0 0 0 .6 0l.38-.11a1.36 1.36 0 0 0 .33-.14 1.07 1.07 0 0 0 .26-.26l.06-.07a1.73 1.73 0 0 1-.32.11z" fill="#2b2046" opacity=".2"/><path d="M35.3 39.32a5 5 0 0 0 0-.55.8.8 0 0 1 .16-.52c.09-.1.21-.14.28-.24a.81.81 0 0 0 .14-.33 1.36 1.36 0 0 1 .31-.61.89.89 0 0 1 .38-.18.7.7 0 0 0 .35-.06 1.08 1.08 0 0 0 .38-.17 1 1 0 0 1 .43-.17 1.21 1.21 0 0 1 .37.11 1.55 1.55 0 0 0 .43 0l.48.12a1.22 1.22 0 0 1 .36.18 3.11 3.11 0 0 1 .23.28c.16.21.34.2.49.41s.26.42.41.62a3.81 3.81 0 0 1 .4.5c.07.14.09.31.15.46a.27.27 0 0 0 .07-.08.21.21 0 0 0 0-.24c0-.07-.1-.11-.16-.16-.1-.21-.19-.43-.27-.65a3.25 3.25 0 0 0-.4-.5c-.14-.19-.27-.42-.41-.62s-.33-.2-.49-.4a1.28 1.28 0 0 0-.23-.29 1 1 0 0 0-.36-.17 2 2 0 0 0-.48-.12H38c-.13 0-.21-.12-.36-.11a1 1 0 0 0-.44.17 1.33 1.33 0 0 1-.38.18h-.35a1.46 1.46 0 0 0-.38.18 1.33 1.33 0 0 0-.3.62 1 1 0 0 1-.15.33c-.07.1-.19.14-.27.23a.87.87 0 0 0-.17.52 2.53 2.53 0 0 1 0 .55.64.64 0 0 1-.2.39c-.09.08-.18.17-.14.3v.09a.49.49 0 0 0 .36.15.51.51 0 0 0 .08-.22z" fill="#7866a2"/><path d="M31.17 53v-1.45H25v1.33a9.11 9.11 0 0 0 .47 1c1.68.22 3.92-.88 5.7-.88z" style="isolation:isolate" fill="#2b2046" opacity=".3"/><path d="M34.11 39.82l-2.67.35a3.83 3.83 0 0 0-1.35.44 3.85 3.85 0 0 0-1.58 1.69L24 52c1.61 2.63 5.69-.58 8.16.34l2.49-6.09a9.88 9.88 0 0 0 .74-3.76z" fill="#623fe9"/><path d="M25.68 53c1.49.13 3.41-.74 5-.86-1.49-.09-3.41.78-5 .86zm8.43-13.18l.57 2.65a9.88 9.88 0 0 1-.74 3.76l-2.44 6a2.57 2.57 0 0 1 .61.14l2.49-6.09a9.88 9.88 0 0 0 .74-3.76z" opacity=".2" fill="#312075"/><path fill="#623fe9" d="M33.35 42.97l.76 4.25H31l-1.97-4.13 4.32-.12z"/><path d="M29.53 44.05L31 47.22h1l-.76-1.59a3.12 3.12 0 0 0-1.71-1.58z" style="isolation:isolate" fill="#312075" opacity=".2"/><path d="M31.28 47.22l.51 2.34.73.88a1.42 1.42 0 0 0 .24.25L34.33 52l2.94 2.67.86 1.56.25 2.1a.34.34 0 0 0 .34 0l.11-1.41h.3l.7 1.91a.27.27 0 0 0 .3 0l-.44-2.13 1 2.13c.07 0 .29.07.34 0l-.72-2.38.08-.2 1.3 1.59c.1 0 .27-.18.29-.28l-1.59-2.67.06-.41.69-.08a.63.63 0 0 0 .55-.62l-1.43-.08-1.42-.14-4.69-5.11-.22-1.19z" fill="#fff"/><path d="M38.63 55.82l-.86-1.55-2.94-2.67-1.57-1.27a1.88 1.88 0 0 1-.24-.25l-.73-.88-.44-2h-.57l.51 2.34.73.88a1.42 1.42 0 0 0 .24.25L34.33 52l2.94 2.67.86 1.56.25 2.1a.34.34 0 0 0 .34 0l.08-1z" fill="#525d7a" opacity=".15"/><path d="M10.89 64.9h-.08a1.9 1.9 0 0 1-2 0 8.41 8.41 0 0 1-2-1.23 4.12 4.12 0 0 1-1.44-2.52 1 1 0 0 1 .11-.65.72.72 0 0 1 .83-.17 2.31 2.31 0 0 1 .74.54.83.83 0 0 0 .32.2.29.29 0 0 0 .39-.07c.1-.18-.07-.39-.23-.52-.37-.31-.71-.48-1.1-.76a3.59 3.59 0 0 1-1.2-1.28 1.9 1.9 0 0 1-.05-1.72 1.35 1.35 0 0 1 .35-.4 1.25 1.25 0 0 1 .93-.09c.32.06.62.18.94.22.75.07 1-.46 1-1.15 0-.46-.16-.91-.19-1.38a2.14 2.14 0 0 1 1.1-2 1.52 1.52 0 0 1 2 .75c.29.84-.36 1.78.07 2.59a2.38 2.38 0 0 0 .71.77c.41.26 1 0 1.49 0a.41.41 0 0 1 .3.1.4.4 0 0 1 .09.21 1.75 1.75 0 0 1-.54 1.62c-.5.45-1.36.68-1.57 1.39-.13.44-.07 1.54.63 1.43.26 0 .43-.3.69-.39a.71.71 0 0 1 .82.45 1.24 1.24 0 0 1 0 1 3.9 3.9 0 0 1-.92 1.25 7.72 7.72 0 0 1-2.19 1.81z" fill="url(#g)"/><path fill="#56408b" d="M9.68 54.67h.35v17.1h-.35z"/><path fill="#56408b" d="M9.85 59.86l-2.11-2.1.25-.25 1.86 1.87 1.86-1.87.24.25-2.1 2.1zm0 3.99l-2.11-2.11.25-.24 1.86 1.86 1.86-1.86.24.24-2.1 2.11z"/><path d="M18.89 59.82l-.11.06a2.69 2.69 0 0 1-2.78-.06 11.81 11.81 0 0 1-2.76-1.72 5.8 5.8 0 0 1-2-3.53 1.33 1.33 0 0 1 .14-.9 1 1 0 0 1 1.17-.24 3.37 3.37 0 0 1 1 .75 1.2 1.2 0 0 0 .45.29.41.41 0 0 0 .48-.16c.14-.25-.1-.54-.33-.73-.51-.43-1-.68-1.53-1.06A5.09 5.09 0 0 1 11 50.69a2.65 2.65 0 0 1-.07-2.39 1.47 1.47 0 0 1 .49-.56 1.78 1.78 0 0 1 1.3-.14 11.86 11.86 0 0 0 1.31.31c1.05.11 1.46-.63 1.44-1.6 0-.65-.22-1.28-.26-1.93a3 3 0 0 1 1.53-2.84 2.15 2.15 0 0 1 2.84 1c.4 1.17-.52 2.49.09 3.62a3.33 3.33 0 0 0 1 1.08c.57.36 1.4-.06 2.08 0a.56.56 0 0 1 .41.14.48.48 0 0 1 .13.3 2.48 2.48 0 0 1-.77 2.24c-.7.64-1.9 1-2.2 2-.18.61-.1 2.15.88 2 .36 0 .61-.42 1-.54a1 1 0 0 1 1.09.59 1.65 1.65 0 0 1 0 1.34A5.39 5.39 0 0 1 22 57a11 11 0 0 1-3.11 2.82z" fill="url(#h)"/><path fill="#56408b" d="M17.26 45.49h.35v26.28h-.35z"/><path fill="#56408b" d="M17.43 52.65l-2.89-2.9.24-.24 2.65 2.65 2.66-2.65.24.24-2.9 2.9zm0 5.57l-2.89-2.9.24-.24 2.65 2.65 2.66-2.65.24.24-2.9 2.9z"/></svg>