<svg xmlns="http://www.w3.org/2000/svg" xmlns:xlink="http://www.w3.org/1999/xlink" viewBox="0 0 100 100"><defs><linearGradient id="a" x1="18.75" y1="50" x2="45.14" y2="46.43" gradientUnits="userSpaceOnUse"><stop offset="0" stop-color="#5ddaf4"/><stop offset="0.33" stop-color="#5fa2f0"/><stop offset="0.79" stop-color="#615beb"/><stop offset="1" stop-color="#623fe9"/></linearGradient><linearGradient id="b" x1="38.89" y1="51.65" x2="65.54" y2="51.65" gradientUnits="userSpaceOnUse"><stop offset="0" stop-color="#623fe9"/><stop offset="0.03" stop-color="#6247ea"/><stop offset="0.19" stop-color="#6073ed"/><stop offset="0.35" stop-color="#5f98ef"/><stop offset="0.52" stop-color="#5eb5f1"/><stop offset="0.68" stop-color="#5ecaf3"/><stop offset="0.84" stop-color="#5dd6f4"/><stop offset="1" stop-color="#5ddaf4"/></linearGradient><linearGradient id="c" x1="50.76" y1="63.94" x2="53.2" y2="50.32" gradientUnits="userSpaceOnUse"><stop offset="0" stop-color="#623fe9"/><stop offset="0.2" stop-color="#7348e7"/><stop offset="0.58" stop-color="#a060e2"/><stop offset="1" stop-color="#d77edb"/></linearGradient><linearGradient id="d" x1="6.54" y1="62.25" x2="15.09" y2="62.25" gradientUnits="userSpaceOnUse"><stop offset="0" stop-color="#5ddaf4"/><stop offset="1" stop-color="#56408b"/></linearGradient><linearGradient id="e" x1="12.48" y1="68.13" x2="21.04" y2="52.61" gradientUnits="userSpaceOnUse"><stop offset="0" stop-color="#623fe9"/><stop offset="0.61" stop-color="#a965e1"/><stop offset="1" stop-color="#d77edb"/></linearGradient><linearGradient id="f" x1="61.6" y1="61.93" x2="78.54" y2="61.93" gradientTransform="translate(131.99 -8.14) rotate(90)" gradientUnits="userSpaceOnUse"><stop offset="0" stop-color="#623fe9"/><stop offset="0.13" stop-color="#624aea"/><stop offset="0.35" stop-color="#6166ec"/><stop offset="0.63" stop-color="#5f94ef"/><stop offset="0.96" stop-color="#5dd2f3"/><stop offset="1" stop-color="#5ddaf4"/></linearGradient><linearGradient id="g" x1="72.72" y1="77.05" x2="94.67" y2="65.1" gradientTransform="translate(166.72 142.52) rotate(-180)" gradientUnits="userSpaceOnUse"><stop offset="0" stop-color="#623fe9"/><stop offset="0.17" stop-color="#6641e8"/><stop offset="0.36" stop-color="#7449e7"/><stop offset="0.56" stop-color="#8a54e4"/><stop offset="0.76" stop-color="#a965e1"/><stop offset="0.97" stop-color="#d07adc"/><stop offset="1" stop-color="#d77edb"/></linearGradient><pattern id="h" width="72" height="74.8" patternTransform="translate(-16.34 -19.02) scale(0.36)" patternUnits="userSpaceOnUse" viewBox="0 0 72 74.8"><rect width="72" height="74.8" style="fill:none"/><line x1="72" y1="73.95" x2="144" y2="73.95" style="fill:none;stroke:#fff;stroke-linecap:square;stroke-width:0.30000000000000004px"/><line x1="72" y1="72.25" x2="144" y2="72.25" style="fill:none;stroke:#fff;stroke-linecap:square;stroke-width:0.30000000000000004px"/><line x1="72" y1="70.55" x2="144" y2="70.55" style="fill:none;stroke:#fff;stroke-linecap:square;stroke-width:0.30000000000000004px"/><line x1="72" y1="68.85" x2="144" y2="68.85" style="fill:none;stroke:#fff;stroke-linecap:square;stroke-width:0.30000000000000004px"/><line x1="72" y1="67.15" x2="144" y2="67.15" style="fill:none;stroke:#fff;stroke-linecap:square;stroke-width:0.30000000000000004px"/><line x1="72" y1="65.45" x2="144" y2="65.45" style="fill:none;stroke:#fff;stroke-linecap:square;stroke-width:0.30000000000000004px"/><line x1="72" y1="63.75" x2="144" y2="63.75" style="fill:none;stroke:#fff;stroke-linecap:square;stroke-width:0.30000000000000004px"/><line x1="72" y1="62.05" x2="144" y2="62.05" style="fill:none;stroke:#fff;stroke-linecap:square;stroke-width:0.30000000000000004px"/><line x1="72" y1="60.35" x2="144" y2="60.35" style="fill:none;stroke:#fff;stroke-linecap:square;stroke-width:0.30000000000000004px"/><line x1="72" y1="58.65" x2="144" y2="58.65" style="fill:none;stroke:#fff;stroke-linecap:square;stroke-width:0.30000000000000004px"/><line x1="72" y1="56.95" x2="144" y2="56.95" style="fill:none;stroke:#fff;stroke-linecap:square;stroke-width:0.30000000000000004px"/><line x1="72" y1="55.25" x2="144" y2="55.25" style="fill:none;stroke:#fff;stroke-linecap:square;stroke-width:0.30000000000000004px"/><line x1="72" y1="53.55" x2="144" y2="53.55" style="fill:none;stroke:#fff;stroke-linecap:square;stroke-width:0.30000000000000004px"/><line x1="72" y1="51.85" x2="144" y2="51.85" style="fill:none;stroke:#fff;stroke-linecap:square;stroke-width:0.30000000000000004px"/><line x1="72" y1="50.15" x2="144" y2="50.15" style="fill:none;stroke:#fff;stroke-linecap:square;stroke-width:0.30000000000000004px"/><line x1="72" y1="48.45" x2="144" y2="48.45" style="fill:none;stroke:#fff;stroke-linecap:square;stroke-width:0.30000000000000004px"/><line x1="72" y1="46.75" x2="144" y2="46.75" style="fill:none;stroke:#fff;stroke-linecap:square;stroke-width:0.30000000000000004px"/><line x1="72" y1="45.05" x2="144" y2="45.05" style="fill:none;stroke:#fff;stroke-linecap:square;stroke-width:0.30000000000000004px"/><line x1="72" y1="43.35" x2="144" y2="43.35" style="fill:none;stroke:#fff;stroke-linecap:square;stroke-width:0.30000000000000004px"/><line x1="72" y1="41.65" x2="144" y2="41.65" style="fill:none;stroke:#fff;stroke-linecap:square;stroke-width:0.30000000000000004px"/><line x1="72" y1="39.95" x2="144" y2="39.95" style="fill:none;stroke:#fff;stroke-linecap:square;stroke-width:0.30000000000000004px"/><line x1="72" y1="38.25" x2="144" y2="38.25" style="fill:none;stroke:#fff;stroke-linecap:square;stroke-width:0.30000000000000004px"/><line x1="72" y1="36.55" x2="144" y2="36.55" style="fill:none;stroke:#fff;stroke-linecap:square;stroke-width:0.30000000000000004px"/><line x1="72" y1="34.85" x2="144" y2="34.85" style="fill:none;stroke:#fff;stroke-linecap:square;stroke-width:0.30000000000000004px"/><line x1="72" y1="33.15" x2="144" y2="33.15" style="fill:none;stroke:#fff;stroke-linecap:square;stroke-width:0.30000000000000004px"/><line x1="72" y1="31.45" x2="144" y2="31.45" style="fill:none;stroke:#fff;stroke-linecap:square;stroke-width:0.30000000000000004px"/><line x1="72" y1="29.75" x2="144" y2="29.75" style="fill:none;stroke:#fff;stroke-linecap:square;stroke-width:0.30000000000000004px"/><line x1="72" y1="28.05" x2="144" y2="28.05" style="fill:none;stroke:#fff;stroke-linecap:square;stroke-width:0.30000000000000004px"/><line x1="72" y1="26.35" x2="144" y2="26.35" style="fill:none;stroke:#fff;stroke-linecap:square;stroke-width:0.30000000000000004px"/><line x1="72" y1="24.65" x2="144" y2="24.65" style="fill:none;stroke:#fff;stroke-linecap:square;stroke-width:0.30000000000000004px"/><line x1="72" y1="22.95" x2="144" y2="22.95" style="fill:none;stroke:#fff;stroke-linecap:square;stroke-width:0.30000000000000004px"/><line x1="72" y1="21.25" x2="144" y2="21.25" style="fill:none;stroke:#fff;stroke-linecap:square;stroke-width:0.30000000000000004px"/><line x1="72" y1="19.55" x2="144" y2="19.55" style="fill:none;stroke:#fff;stroke-linecap:square;stroke-width:0.30000000000000004px"/><line x1="72" y1="17.85" x2="144" y2="17.85" style="fill:none;stroke:#fff;stroke-linecap:square;stroke-width:0.30000000000000004px"/><line x1="72" y1="16.15" x2="144" y2="16.15" style="fill:none;stroke:#fff;stroke-linecap:square;stroke-width:0.30000000000000004px"/><line x1="72" y1="14.45" x2="144" y2="14.45" style="fill:none;stroke:#fff;stroke-linecap:square;stroke-width:0.30000000000000004px"/><line x1="72" y1="12.75" x2="144" y2="12.75" style="fill:none;stroke:#fff;stroke-linecap:square;stroke-width:0.30000000000000004px"/><line x1="72" y1="11.05" x2="144" y2="11.05" style="fill:none;stroke:#fff;stroke-linecap:square;stroke-width:0.30000000000000004px"/><line x1="72" y1="9.35" x2="144" y2="9.35" style="fill:none;stroke:#fff;stroke-linecap:square;stroke-width:0.30000000000000004px"/><line x1="72" y1="7.65" x2="144" y2="7.65" style="fill:none;stroke:#fff;stroke-linecap:square;stroke-width:0.30000000000000004px"/><line x1="72" y1="5.95" x2="144" y2="5.95" style="fill:none;stroke:#fff;stroke-linecap:square;stroke-width:0.30000000000000004px"/><line x1="72" y1="4.25" x2="144" y2="4.25" style="fill:none;stroke:#fff;stroke-linecap:square;stroke-width:0.30000000000000004px"/><line x1="72" y1="2.55" x2="144" y2="2.55" style="fill:none;stroke:#fff;stroke-linecap:square;stroke-width:0.30000000000000004px"/><line x1="72" y1="0.85" x2="144" y2="0.85" style="fill:none;stroke:#fff;stroke-linecap:square;stroke-width:0.30000000000000004px"/><line y1="73.95" x2="72" y2="73.95" style="fill:none;stroke:#fff;stroke-linecap:square;stroke-width:0.30000000000000004px"/><line y1="72.25" x2="72" y2="72.25" style="fill:none;stroke:#fff;stroke-linecap:square;stroke-width:0.30000000000000004px"/><line y1="70.55" x2="72" y2="70.55" style="fill:none;stroke:#fff;stroke-linecap:square;stroke-width:0.30000000000000004px"/><line y1="68.85" x2="72" y2="68.85" style="fill:none;stroke:#fff;stroke-linecap:square;stroke-width:0.30000000000000004px"/><line y1="67.15" x2="72" y2="67.15" style="fill:none;stroke:#fff;stroke-linecap:square;stroke-width:0.30000000000000004px"/><line y1="65.45" x2="72" y2="65.45" style="fill:none;stroke:#fff;stroke-linecap:square;stroke-width:0.30000000000000004px"/><line y1="63.75" x2="72" y2="63.75" style="fill:none;stroke:#fff;stroke-linecap:square;stroke-width:0.30000000000000004px"/><line y1="62.05" x2="72" y2="62.05" style="fill:none;stroke:#fff;stroke-linecap:square;stroke-width:0.30000000000000004px"/><line y1="60.35" x2="72" y2="60.35" style="fill:none;stroke:#fff;stroke-linecap:square;stroke-width:0.30000000000000004px"/><line y1="58.65" x2="72" y2="58.65" style="fill:none;stroke:#fff;stroke-linecap:square;stroke-width:0.30000000000000004px"/><line y1="56.95" x2="72" y2="56.95" style="fill:none;stroke:#fff;stroke-linecap:square;stroke-width:0.30000000000000004px"/><line y1="55.25" x2="72" y2="55.25" style="fill:none;stroke:#fff;stroke-linecap:square;stroke-width:0.30000000000000004px"/><line y1="53.55" x2="72" y2="53.55" style="fill:none;stroke:#fff;stroke-linecap:square;stroke-width:0.30000000000000004px"/><line y1="51.85" x2="72" y2="51.85" style="fill:none;stroke:#fff;stroke-linecap:square;stroke-width:0.30000000000000004px"/><line y1="50.15" x2="72" y2="50.15" style="fill:none;stroke:#fff;stroke-linecap:square;stroke-width:0.30000000000000004px"/><line y1="48.45" x2="72" y2="48.45" style="fill:none;stroke:#fff;stroke-linecap:square;stroke-width:0.30000000000000004px"/><line y1="46.75" x2="72" y2="46.75" style="fill:none;stroke:#fff;stroke-linecap:square;stroke-width:0.30000000000000004px"/><line y1="45.05" x2="72" y2="45.05" style="fill:none;stroke:#fff;stroke-linecap:square;stroke-width:0.30000000000000004px"/><line y1="43.35" x2="72" y2="43.35" style="fill:none;stroke:#fff;stroke-linecap:square;stroke-width:0.30000000000000004px"/><line y1="41.65" x2="72" y2="41.65" style="fill:none;stroke:#fff;stroke-linecap:square;stroke-width:0.30000000000000004px"/><line y1="39.95" x2="72" y2="39.95" style="fill:none;stroke:#fff;stroke-linecap:square;stroke-width:0.30000000000000004px"/><line y1="38.25" x2="72" y2="38.25" style="fill:none;stroke:#fff;stroke-linecap:square;stroke-width:0.30000000000000004px"/><line y1="36.55" x2="72" y2="36.55" style="fill:none;stroke:#fff;stroke-linecap:square;stroke-width:0.30000000000000004px"/><line y1="34.85" x2="72" y2="34.85" style="fill:none;stroke:#fff;stroke-linecap:square;stroke-width:0.30000000000000004px"/><line y1="33.15" x2="72" y2="33.15" style="fill:none;stroke:#fff;stroke-linecap:square;stroke-width:0.30000000000000004px"/><line y1="31.45" x2="72" y2="31.45" style="fill:none;stroke:#fff;stroke-linecap:square;stroke-width:0.30000000000000004px"/><line y1="29.75" x2="72" y2="29.75" style="fill:none;stroke:#fff;stroke-linecap:square;stroke-width:0.30000000000000004px"/><line y1="28.05" x2="72" y2="28.05" style="fill:none;stroke:#fff;stroke-linecap:square;stroke-width:0.30000000000000004px"/><line y1="26.35" x2="72" y2="26.35" style="fill:none;stroke:#fff;stroke-linecap:square;stroke-width:0.30000000000000004px"/><line y1="24.65" x2="72" y2="24.65" style="fill:none;stroke:#fff;stroke-linecap:square;stroke-width:0.30000000000000004px"/><line y1="22.95" x2="72" y2="22.95" style="fill:none;stroke:#fff;stroke-linecap:square;stroke-width:0.30000000000000004px"/><line y1="21.25" x2="72" y2="21.25" style="fill:none;stroke:#fff;stroke-linecap:square;stroke-width:0.30000000000000004px"/><line y1="19.55" x2="72" y2="19.55" style="fill:none;stroke:#fff;stroke-linecap:square;stroke-width:0.30000000000000004px"/><line y1="17.85" x2="72" y2="17.85" style="fill:none;stroke:#fff;stroke-linecap:square;stroke-width:0.30000000000000004px"/><line y1="16.15" x2="72" y2="16.15" style="fill:none;stroke:#fff;stroke-linecap:square;stroke-width:0.30000000000000004px"/><line y1="14.45" x2="72" y2="14.45" style="fill:none;stroke:#fff;stroke-linecap:square;stroke-width:0.30000000000000004px"/><line y1="12.75" x2="72" y2="12.75" style="fill:none;stroke:#fff;stroke-linecap:square;stroke-width:0.30000000000000004px"/><line y1="11.05" x2="72" y2="11.05" style="fill:none;stroke:#fff;stroke-linecap:square;stroke-width:0.30000000000000004px"/><line y1="9.35" x2="72" y2="9.35" style="fill:none;stroke:#fff;stroke-linecap:square;stroke-width:0.30000000000000004px"/><line y1="7.65" x2="72" y2="7.65" style="fill:none;stroke:#fff;stroke-linecap:square;stroke-width:0.30000000000000004px"/><line y1="5.95" x2="72" y2="5.95" style="fill:none;stroke:#fff;stroke-linecap:square;stroke-width:0.30000000000000004px"/><line y1="4.25" x2="72" y2="4.25" style="fill:none;stroke:#fff;stroke-linecap:square;stroke-width:0.30000000000000004px"/><line y1="2.55" x2="72" y2="2.55" style="fill:none;stroke:#fff;stroke-linecap:square;stroke-width:0.30000000000000004px"/><line y1="0.85" x2="72" y2="0.85" style="fill:none;stroke:#fff;stroke-linecap:square;stroke-width:0.30000000000000004px"/><line x1="-72" y1="73.95" y2="73.95" style="fill:none;stroke:#fff;stroke-linecap:square;stroke-width:0.30000000000000004px"/><line x1="-72" y1="72.25" y2="72.25" style="fill:none;stroke:#fff;stroke-linecap:square;stroke-width:0.30000000000000004px"/><line x1="-72" y1="70.55" y2="70.55" style="fill:none;stroke:#fff;stroke-linecap:square;stroke-width:0.30000000000000004px"/><line x1="-72" y1="68.85" y2="68.85" style="fill:none;stroke:#fff;stroke-linecap:square;stroke-width:0.30000000000000004px"/><line x1="-72" y1="67.15" y2="67.15" style="fill:none;stroke:#fff;stroke-linecap:square;stroke-width:0.30000000000000004px"/><line x1="-72" y1="65.45" y2="65.45" style="fill:none;stroke:#fff;stroke-linecap:square;stroke-width:0.30000000000000004px"/><line x1="-72" y1="63.75" y2="63.75" style="fill:none;stroke:#fff;stroke-linecap:square;stroke-width:0.30000000000000004px"/><line x1="-72" y1="62.05" y2="62.05" style="fill:none;stroke:#fff;stroke-linecap:square;stroke-width:0.30000000000000004px"/><line x1="-72" y1="60.35" y2="60.35" style="fill:none;stroke:#fff;stroke-linecap:square;stroke-width:0.30000000000000004px"/><line x1="-72" y1="58.65" y2="58.65" style="fill:none;stroke:#fff;stroke-linecap:square;stroke-width:0.30000000000000004px"/><line x1="-72" y1="56.95" y2="56.95" style="fill:none;stroke:#fff;stroke-linecap:square;stroke-width:0.30000000000000004px"/><line x1="-72" y1="55.25" y2="55.25" style="fill:none;stroke:#fff;stroke-linecap:square;stroke-width:0.30000000000000004px"/><line x1="-72" y1="53.55" y2="53.55" style="fill:none;stroke:#fff;stroke-linecap:square;stroke-width:0.30000000000000004px"/><line x1="-72" y1="51.85" y2="51.85" style="fill:none;stroke:#fff;stroke-linecap:square;stroke-width:0.30000000000000004px"/><line x1="-72" y1="50.15" y2="50.15" style="fill:none;stroke:#fff;stroke-linecap:square;stroke-width:0.30000000000000004px"/><line x1="-72" y1="48.45" y2="48.45" style="fill:none;stroke:#fff;stroke-linecap:square;stroke-width:0.30000000000000004px"/><line x1="-72" y1="46.75" y2="46.75" style="fill:none;stroke:#fff;stroke-linecap:square;stroke-width:0.30000000000000004px"/><line x1="-72" y1="45.05" y2="45.05" style="fill:none;stroke:#fff;stroke-linecap:square;stroke-width:0.30000000000000004px"/><line x1="-72" y1="43.35" y2="43.35" style="fill:none;stroke:#fff;stroke-linecap:square;stroke-width:0.30000000000000004px"/><line x1="-72" y1="41.65" y2="41.65" style="fill:none;stroke:#fff;stroke-linecap:square;stroke-width:0.30000000000000004px"/><line x1="-72" y1="39.95" y2="39.95" style="fill:none;stroke:#fff;stroke-linecap:square;stroke-width:0.30000000000000004px"/><line x1="-72" y1="38.25" y2="38.25" style="fill:none;stroke:#fff;stroke-linecap:square;stroke-width:0.30000000000000004px"/><line x1="-72" y1="36.55" y2="36.55" style="fill:none;stroke:#fff;stroke-linecap:square;stroke-width:0.30000000000000004px"/><line x1="-72" y1="34.85" y2="34.85" style="fill:none;stroke:#fff;stroke-linecap:square;stroke-width:0.30000000000000004px"/><line x1="-72" y1="33.15" y2="33.15" style="fill:none;stroke:#fff;stroke-linecap:square;stroke-width:0.30000000000000004px"/><line x1="-72" y1="31.45" y2="31.45" style="fill:none;stroke:#fff;stroke-linecap:square;stroke-width:0.30000000000000004px"/><line x1="-72" y1="29.75" y2="29.75" style="fill:none;stroke:#fff;stroke-linecap:square;stroke-width:0.30000000000000004px"/><line x1="-72" y1="28.05" y2="28.05" style="fill:none;stroke:#fff;stroke-linecap:square;stroke-width:0.30000000000000004px"/><line x1="-72" y1="26.35" y2="26.35" style="fill:none;stroke:#fff;stroke-linecap:square;stroke-width:0.30000000000000004px"/><line x1="-72" y1="24.65" y2="24.65" style="fill:none;stroke:#fff;stroke-linecap:square;stroke-width:0.30000000000000004px"/><line x1="-72" y1="22.95" y2="22.95" style="fill:none;stroke:#fff;stroke-linecap:square;stroke-width:0.30000000000000004px"/><line x1="-72" y1="21.25" y2="21.25" style="fill:none;stroke:#fff;stroke-linecap:square;stroke-width:0.30000000000000004px"/><line x1="-72" y1="19.55" y2="19.55" style="fill:none;stroke:#fff;stroke-linecap:square;stroke-width:0.30000000000000004px"/><line x1="-72" y1="17.85" y2="17.85" style="fill:none;stroke:#fff;stroke-linecap:square;stroke-width:0.30000000000000004px"/><line x1="-72" y1="16.15" y2="16.15" style="fill:none;stroke:#fff;stroke-linecap:square;stroke-width:0.30000000000000004px"/><line x1="-72" y1="14.45" y2="14.45" style="fill:none;stroke:#fff;stroke-linecap:square;stroke-width:0.30000000000000004px"/><line x1="-72" y1="12.75" y2="12.75" style="fill:none;stroke:#fff;stroke-linecap:square;stroke-width:0.30000000000000004px"/><line x1="-72" y1="11.05" y2="11.05" style="fill:none;stroke:#fff;stroke-linecap:square;stroke-width:0.30000000000000004px"/><line x1="-72" y1="9.35" y2="9.35" style="fill:none;stroke:#fff;stroke-linecap:square;stroke-width:0.30000000000000004px"/><line x1="-72" y1="7.65" y2="7.65" style="fill:none;stroke:#fff;stroke-linecap:square;stroke-width:0.30000000000000004px"/><line x1="-72" y1="5.95" y2="5.95" style="fill:none;stroke:#fff;stroke-linecap:square;stroke-width:0.30000000000000004px"/><line x1="-72" y1="4.25" y2="4.25" style="fill:none;stroke:#fff;stroke-linecap:square;stroke-width:0.30000000000000004px"/><line x1="-72" y1="2.55" y2="2.55" style="fill:none;stroke:#fff;stroke-linecap:square;stroke-width:0.30000000000000004px"/><line x1="-72" y1="0.85" y2="0.85" style="fill:none;stroke:#fff;stroke-linecap:square;stroke-width:0.30000000000000004px"/></pattern></defs><title>shopping</title><rect width="100" height="100" style="fill:none"/><path d="M100,59.14c.27,12.8-3.57,32-50,31.84C18.75,90.85,0,82.43,0,59.14S16.41,9,41.11,9,99.5,35.86,100,59.14Z" style="fill:none"/><path d="M20,46.15h24a1.22,1.22,0,0,1,1.22,1.22V78a0,0,0,0,1,0,0H18.82a0,0,0,0,1,0,0V47.37A1.22,1.22,0,0,1,20,46.15Z" style="fill:#fff"/><path d="M45.27,50.14V47.07a.92.92,0,0,0-.92-.92H19.74a.92.92,0,0,0-.92.92v3.07Z" style="fill:url(#a)"/><rect x="21.39" y="53.26" width="10.49" height="10.48" style="fill:#f1f2f2"/><rect x="21.39" y="65.87" width="20.4" height="11.42" style="fill:#f1f2f2"/><path d="M21.93,48.14a.53.53,0,0,1-.53.53.53.53,0,1,1,.53-.53Z" style="fill:#fff"/><path d="M23.69,48.14a.53.53,0,1,1-.53-.52A.53.53,0,0,1,23.69,48.14Z" style="fill:#fff"/><path d="M25.46,48.14a.53.53,0,0,1-.53.53.53.53,0,1,1,.53-.53Z" style="fill:#fff"/><path d="M44.35,46.15H43.18a.92.92,0,0,1,.92.92V78h1.17V47.07A.92.92,0,0,0,44.35,46.15Z" style="fill:#414042;opacity:0.2"/><rect x="33.15" y="53.95" width="10.5" height="0.36" style="fill:#f1f2f2"/><rect x="33.15" y="55.95" width="10.5" height="0.36" style="fill:#f1f2f2"/><rect x="33.15" y="57.94" width="10.5" height="0.36" style="fill:#f1f2f2"/><rect x="33.15" y="59.94" width="10.5" height="0.36" style="fill:#f1f2f2"/><rect x="33.15" y="61.81" width="5.25" height="0.36" style="fill:#f1f2f2"/><path d="M63.41,78H41.11a2.21,2.21,0,0,1-2.22-2.22V28.71a2.22,2.22,0,0,1,2.22-2.23h22.3a2.23,2.23,0,0,1,2.22,2.23V75.77A2.22,2.22,0,0,1,63.41,78Z" style="fill:#56408b"/><rect x="38.89" y="32.42" width="26.65" height="38.46" style="fill:url(#b)"/><path d="M54.21,74.21a1.95,1.95,0,1,1-2-1.95A1.95,1.95,0,0,1,54.21,74.21Z" style="fill:#231f20;opacity:0.30000000000000004"/><path d="M41.31,26.48h2.25a2.42,2.42,0,0,0-2.42,2.43V75.57A2.42,2.42,0,0,0,43.56,78H41.31a2.42,2.42,0,0,1-2.42-2.42V28.91A2.42,2.42,0,0,1,41.31,26.48Z" style="fill:#fff;opacity:0.1"/><path d="M63.11,26.48H60.86a2.43,2.43,0,0,1,2.43,2.43V75.57A2.42,2.42,0,0,1,60.86,78h2.25a2.42,2.42,0,0,0,2.43-2.42V28.91A2.43,2.43,0,0,0,63.11,26.48Z" style="fill:#525d7a;opacity:0.1"/><rect x="48.43" y="29.39" width="5.12" height="0.36" style="fill:#413068"/><rect x="54.07" y="29.39" width="1.42" height="0.36" style="fill:#413068"/><path d="M65.63,33.06h0s0,0,0,0H38.94s0,0,0,0v0l-.08.12V35a.09.09,0,0,0,.09.08v6.75h0a2.07,2.07,0,0,0,1.9-1.29,2.59,2.59,0,0,0,.31-1.18v0a2.87,2.87,0,0,0,.31,1.18,2.05,2.05,0,0,0,3.81,0,2.59,2.59,0,0,0,.31-1.18v0a2.87,2.87,0,0,0,.31,1.18,2.05,2.05,0,0,0,3.81,0A2.59,2.59,0,0,0,50,39.4v0a2.87,2.87,0,0,0,.31,1.18,2.05,2.05,0,0,0,3.81,0,2.59,2.59,0,0,0,.31-1.18v0a2.87,2.87,0,0,0,.31,1.18,2.05,2.05,0,0,0,3.81,0,2.59,2.59,0,0,0,.31-1.18v0a2.87,2.87,0,0,0,.31,1.18,2.05,2.05,0,0,0,3.81,0,2.51,2.51,0,0,0,.29-.9,3.39,3.39,0,0,0,.33,1,2.07,2.07,0,0,0,2,1.17V35.11a.08.08,0,0,0,.08-.08V33.17Z" style="fill:#525d7a;opacity:0.2"/><path d="M38.94,41h0a2.38,2.38,0,0,1-2.22-2.52V35.44h4.44v3.07A2.39,2.39,0,0,1,38.94,41Z" style="fill:#623fe9"/><polygon points="42.73 32.31 38.92 32.31 36.72 35.44 41.16 35.44 42.73 32.31" style="fill:#8165ed"/><path d="M43.38,41h0a2.38,2.38,0,0,1-2.22-2.52V35.44H45.6v3.07A2.39,2.39,0,0,1,43.38,41Z" style="fill:#fff"/><polygon points="46.54 32.31 42.73 32.31 41.16 35.44 45.6 35.44 46.54 32.31" style="fill:#fff"/><path d="M47.82,41h0a2.38,2.38,0,0,1-2.22-2.52V35.44H50v3.07A2.39,2.39,0,0,1,47.82,41Z" style="fill:#623fe9"/><polygon points="50.35 32.31 46.54 32.31 45.6 35.44 50.04 35.44 50.35 32.31" style="fill:#8165ed"/><path d="M52.26,41h0A2.38,2.38,0,0,1,50,38.51V35.44h4.44v3.07A2.38,2.38,0,0,1,52.26,41Z" style="fill:#fff"/><polygon points="54.16 32.31 50.35 32.31 50.04 35.44 54.48 35.44 54.16 32.31" style="fill:#fff"/><path d="M56.7,41h0a2.38,2.38,0,0,1-2.22-2.52V35.44h4.44v3.07A2.38,2.38,0,0,1,56.7,41Z" style="fill:#623fe9"/><polygon points="59.3 32.31 53.92 32.31 54.48 35.44 58.92 35.44 59.3 32.31" style="fill:#8165ed"/><path d="M61.14,41h0a2.38,2.38,0,0,1-2.22-2.52V35.44h4.44v3.07A2.38,2.38,0,0,1,61.14,41Z" style="fill:#fff"/><polygon points="61.78 32.31 57.97 32.31 58.92 35.44 63.36 35.44 61.78 32.31" style="fill:#fff"/><polygon points="65.59 32.31 61.78 32.31 63.36 35.44 67.8 35.44 65.59 32.31" style="fill:#8165ed"/><path d="M65.58,41h0a2.38,2.38,0,0,1-2.22-2.52V35.44H67.8v3.07A2.38,2.38,0,0,1,65.58,41Z" style="fill:#623fe9"/><path d="M55.85,53,53.44,50.1l-3.21-.38-3,2.24L45.88,63.44l8.58,1Zm-4.93-1.71a.71.71,0,0,1,.8-.63.73.73,0,1,1-.8.63Z" style="fill:#623fe9"/><path d="M50,50.19l-2.59,2.29-.59,11.08,2.89.35,4.76.2L55.85,53,53.44,50.1,51,50.05l-.73,0Zm2.55,1.35a.71.71,0,0,1-.06.25l.09.11-.1-.08c-.11.31-.67.41-1,.37a.8.8,0,0,1-.59-.91.56.56,0,0,1,.06-.21c.1-.3.37-.65.7-.64A1.31,1.31,0,0,1,52.59,51.54Z" style="fill:#231f20;opacity:0.30000000000000004"/><path d="M56.1,52.48,53.37,49.9H50.13l-2.68,2.58V64.05H56.1ZM51,51.37a.73.73,0,1,1,.72.73A.72.72,0,0,1,51,51.37Z" style="fill:url(#c)"/><path d="M54.78,58.11a3.06,3.06,0,1,1-3.06-3A3.06,3.06,0,0,1,54.78,58.11Z" style="fill:#fff"/><path d="M51.28,56.41a.88.88,0,0,1,.23.6.84.84,0,0,1-.24.61.75.75,0,0,1-.58.26.79.79,0,0,1-.58-.25.92.92,0,0,1,0-1.22.81.81,0,0,1,1.17,0Zm2.19-.16L50.71,60H50l2.77-3.77Zm-2.55,1A.5.5,0,0,0,51,57a.45.45,0,0,0-.09-.28.29.29,0,0,0-.22-.11.28.28,0,0,0-.22.11.45.45,0,0,0-.09.28.44.44,0,0,0,.09.27.3.3,0,0,0,.23.11A.29.29,0,0,0,50.92,57.3Zm2.5,1.29a.89.89,0,0,1,.23.61.85.85,0,0,1-.24.61.74.74,0,0,1-.58.25.76.76,0,0,1-.58-.25A.89.89,0,0,1,52,59.2a.87.87,0,0,1,.24-.61.78.78,0,0,1,.58-.25A.76.76,0,0,1,53.42,58.59Zm-.35.9a.46.46,0,0,0,.08-.27.4.4,0,0,0-.09-.27.27.27,0,0,0-.44,0,.45.45,0,0,0,0,.54.28.28,0,0,0,.23.11A.25.25,0,0,0,53.07,59.49Z" style="fill:#56408b"/><path d="M53.94,47.36h-.36a1.34,1.34,0,0,0-.61-1c-.07-.07-.15-.12-.22-.18a3,3,0,0,1-.79-.8,3.14,3.14,0,0,1-.08-2.24,2.84,2.84,0,0,0-.21-2.23l.4.05c.4.48.39,1.15.17,2.24a2.85,2.85,0,0,0,0,2,2.59,2.59,0,0,0,.7.7l.23.18A1.71,1.71,0,0,1,53.94,47.36Z" style="fill:#56408b"/><path d="M51.74,50.84a.87.87,0,0,1-.34-.6,1.31,1.31,0,0,1,.27-1,3,3,0,0,1,.89-.71l.31-.2a1.38,1.38,0,0,0,.71-1h.36a1.69,1.69,0,0,1-.87,1.31l-.32.2a2.83,2.83,0,0,0-.8.63,1,1,0,0,0-.2.69.53.53,0,0,0,.2.36Z" style="fill:#56408b"/><polygon points="15.09 68.95 6.68 67.91 6.54 55.54 15.03 55.54 15.09 68.95" style="fill:url(#d)"/><polygon points="12.04 68.57 15.09 68.95 15.03 55.54 11.92 55.54 12.04 68.57" style="fill:#525d7a;opacity:0.25"/><polygon points="20 69.56 12.66 68.6 12.52 52.98 21.39 52.98 21.39 65.36 20 69.56" style="fill:url(#e)"/><path d="M20.13,69.75,6,68a.88.88,0,0,1-.77-.86L5,60.56a.89.89,0,0,1,.77-.9l18.49-2.38Zm3.61-12L5.82,60a.53.53,0,0,0-.46.54l.18,6.58a.54.54,0,0,0,.47.52l13.87,1.71Z" style="fill:#623fe9"/><rect x="6.43" y="59.74" width="0.36" height="8.17" transform="translate(-1.11 0.13) rotate(-1)" style="fill:#623fe9"/><rect x="8.75" y="60.11" width="0.36" height="8.17" transform="translate(-1.12 0.17) rotate(-1)" style="fill:#623fe9"/><rect x="8.75" y="59.49" width="0.36" height="8.79" transform="translate(-1.04 0.15) rotate(-0.93)" style="fill:#623fe9"/><rect x="11.08" y="59.1" width="0.36" height="9.41" transform="translate(-0.97 0.18) rotate(-0.87)" style="fill:#623fe9"/><rect x="13.4" y="58.85" width="0.36" height="9.88" transform="translate(-0.92 0.2) rotate(-0.83)" style="fill:#623fe9"/><rect x="15.72" y="58.61" width="0.36" height="10.5" transform="translate(-0.87 0.22) rotate(-0.78)" style="fill:#623fe9"/><rect x="20.22" y="57.92" width="0.36" height="10.27" transform="translate(-0.87 0.29) rotate(-0.8)" style="fill:#623fe9"/><rect x="18.04" y="58.21" width="0.36" height="11.12" transform="matrix(1, -0.01, 0.01, 1, -0.82, 0.24)" style="fill:#623fe9"/><rect x="5.13" y="60.1" width="18.42" height="0.36" transform="translate(-7.65 2.35) rotate(-7.4)" style="fill:#623fe9"/><rect x="5.2" y="63.35" width="16.8" height="0.36" style="fill:#623fe9"/><rect x="12.72" y="59.02" width="0.36" height="15.24" transform="translate(-54.78 71.84) rotate(-83.44)" style="fill:#623fe9"/><path d="M19.51,72l-.59-.19,5-15a1,1,0,0,1,1-.71h1v.62h-1a.42.42,0,0,0-.4.29Z" style="fill:#623fe9"/><polygon points="23.33 75.58 22.71 75.58 22.71 75.03 19.23 71.95 7.47 74.02 7.47 75.56 6.85 75.56 6.85 73.5 19.42 71.29 23.33 74.75 23.33 75.58" style="fill:#623fe9"/><path d="M27.23,56.47a.76.76,0,1,1-.76-.76A.76.76,0,0,1,27.23,56.47Z" style="fill:#56408b"/><path d="M20.52,71.62a1.2,1.2,0,1,1-1.2-1.2A1.19,1.19,0,0,1,20.52,71.62Z" style="fill:#976fe4"/><path d="M19.82,71.62a.5.5,0,0,1-1,0,.5.5,0,1,1,1,0Z" style="fill:#f6f6f6"/><path d="M24.21,76.84A1.2,1.2,0,1,1,23,75.65,1.19,1.19,0,0,1,24.21,76.84Z" style="fill:#56408b"/><path d="M8.36,76.84a1.2,1.2,0,1,1-2.39,0,1.2,1.2,0,0,1,2.39,0Z" style="fill:#56408b"/><path d="M7.18,77.17h0a.64.64,0,0,1-.64-.64V75.2H7.82v1.33A.64.64,0,0,1,7.18,77.17Z" style="fill:#976fe4"/><path d="M23,77.33h0a.63.63,0,0,1-.64-.64V75.37h1.28v1.32A.64.64,0,0,1,23,77.33Z" style="fill:#976fe4"/><path d="M7.57,76.44A.41.41,0,1,1,7.16,76,.4.4,0,0,1,7.57,76.44Z" style="fill:#fff"/><circle cx="22.98" cy="76.44" r="0.41" style="fill:#fff"/><rect x="60.36" y="45.94" width="16.94" height="31.97" rx="1.94" ry="1.94" style="fill:#56408b;opacity:0.2"/><rect x="54.08" y="53.46" width="31.97" height="16.94" rx="0.75" ry="0.75" transform="translate(8.14 131.99) rotate(-90)" style="fill:url(#f)"/><path d="M73.87,49H66.46A2.46,2.46,0,0,1,64,51.44v21a2.46,2.46,0,0,1,2.46,2.45h7.43c0-.08,0-.15,0-.23a2.45,2.45,0,0,1,2.45-2.45V51.44A2.45,2.45,0,0,1,73.87,49Zm-3.69,2.33a1.35,1.35,0,1,1-1.34,1.35A1.35,1.35,0,0,1,70.18,51.32Zm0,21.25a1.35,1.35,0,1,1,1.35-1.34A1.34,1.34,0,0,1,70.18,72.57Zm0-5.56A5.06,5.06,0,1,1,75.25,62,5.07,5.07,0,0,1,70.18,67Z" style="fill:#fff;opacity:0.42"/><path d="M67,61.33v2.3a1,1,0,0,0,1,1h.49V63.23h-.09v-1.9a.67.67,0,0,1,.66-.66.43.43,0,0,1,.43.43v1.7a1.8,1.8,0,0,0,1.8,1.79h.24a2,2,0,0,0,2-2v-2.3a1,1,0,0,0-1-1H72v1.36h.15v1.9a.66.66,0,0,1-.66.66h-.24a.43.43,0,0,1-.43-.43V61.1A1.8,1.8,0,0,0,69,59.31,2,2,0,0,0,67,61.33Z" style="fill:#fff"/><rect x="66.16" y="61.27" width="8.04" height="1.36" style="fill:#fff"/><path d="M72.85,64.49H92a2.05,2.05,0,0,1,2.06,2.05V76A2.06,2.06,0,0,1,92,78H72.85A2.06,2.06,0,0,1,70.79,76V66.54A2.05,2.05,0,0,1,72.85,64.49Z" style="fill:#525d7a;opacity:0.30000000000000004"/><rect x="71.72" y="64.49" width="23.28" height="13.54" rx="2.42" ry="2.42" transform="translate(166.72 142.52) rotate(180)" style="fill:url(#g)"/><path d="M73.89,64.49H75.3a2.16,2.16,0,0,0-2.16,2.16v9.22A2.16,2.16,0,0,0,75.3,78H73.89a2.17,2.17,0,0,1-2.17-2.16V66.65A2.17,2.17,0,0,1,73.89,64.49Z" style="fill:#525d7a;opacity:0.15"/><rect x="88.86" y="67.92" width="4.26" height="4.26" rx="0.21" ry="0.21" transform="translate(181.97 140.1) rotate(180)" style="fill:#fff"/><rect x="88.43" y="74.6" width="5.11" height="1.3" transform="translate(181.97 150.5) rotate(180)" style="fill:#56408b"/><rect x="75.3" y="74.6" width="11.86" height="1.3" transform="translate(162.46 150.5) rotate(180)" style="fill:#56408b"/><path d="M78.54,46.59a.65.65,0,0,0-.65-.65h-.21a3.58,3.58,0,0,1-.2.49A5.39,5.39,0,0,1,77,47a3.58,3.58,0,0,0-.72,1.82c0,.25,0,.49,0,.74a4.79,4.79,0,0,1-.36,1.28,10.43,10.43,0,0,1-.32,1.22c-.13.3-.34.56-.47.86a1.61,1.61,0,0,0,0,1.2,1.34,1.34,0,0,1-.24,1.12.78.78,0,0,0,.25.07h.25a1.53,1.53,0,0,0,.59-.13A2,2,0,0,0,76.3,55l.19,2.29-.23,5.28h0l.25.07h.07l.12,0a2.44,2.44,0,0,0,1.84,1.73Z" style="fill:#56408b;opacity:0.2"/><path d="M84.06,64.34h0a.75.75,0,0,0,.57.4l3.77.52.45-.17a.86.86,0,0,0,.57-.81h0a.85.85,0,0,0-.18-.53l-.35-.46Z" style="fill:#fff"/><path d="M84.06,64.22h0a.7.7,0,0,0,.54.38l3.6.5.43-.17a.83.83,0,0,0,.54-.77h0a.82.82,0,0,0-.17-.5l-.33-.44Z" style="fill:#e6e7e8"/><path d="M89.3,60.83l-.4-.34a.85.85,0,0,0-.57-.19l-6.11.33v-.86l-4.84,2.11v.17a2.45,2.45,0,0,0,2.45,2.45l1.74.13L84,64.51l5.32-1.27a1,1,0,0,0,.52-.73l0-.25A1.59,1.59,0,0,0,89.3,60.83Z" style="fill:#56408b"/><path d="M85.21,63.9,82.79,64l-1.74-.13a2.45,2.45,0,0,1-2.45-2.45v-.09l-1.22.53v.17a2.45,2.45,0,0,0,2.45,2.45l1.74.13L84,64.51l5.32-1.27a.94.94,0,0,0,.42-.42Z" style="fill:#525d7a;opacity:0.2"/><rect x="79.73" y="47.81" width="1.96" height="2.29" transform="translate(55.14 -41.92) rotate(43.04)" style="fill:#fff"/><path d="M81.22,47.85a2.45,2.45,0,0,0,.69,1.26l.31-.33Z" style="fill:#525d7a;opacity:0.15"/><path d="M84.63,45.74l-.3.9a4.75,4.75,0,0,0,0,1.2.42.42,0,0,1-.37.09l-.29.47a1.09,1.09,0,0,1-1.56.33l-.67-.46a2,2,0,0,1-.79-1.1L80.29,46l2.22-1.34,1.72-.33a1,1,0,0,1,.41.54A1.38,1.38,0,0,1,84.63,45.74Z" style="fill:#fff"/><path d="M80.92,50.14l1.39,3.46a1,1,0,0,1-.15,1l-.19.25-.27,2,1,3.86c-1.24-.23-3.43,2.64-5.68,1.88l.22-5.28-.42-5.2,1.64-3.28h1Z" style="fill:#d77edb"/><path d="M77.65,62.61l.22-5.28-.42-5.2,1.64-3.28h-.61l-1.64,3.28.42,5.2L77,62.61a2.6,2.6,0,0,0,1.1.11A2.88,2.88,0,0,1,77.65,62.61Z" style="fill:#525d7a;opacity:0.15"/><polygon points="80.6 50.87 80.72 54.66 78.33 54.66 78.01 51.31 78.5 50.6 80.6 50.87" style="fill:#d77edb"/><polygon points="79.06 50.67 78.5 50.6 78.01 51.31 78.33 54.66 79.06 54.68 78.95 52.01 79.06 50.67" style="fill:#525d7a;opacity:0.15"/><path d="M83.68,60.59l5.86,0a.25.25,0,0,0,.25-.25h0a.25.25,0,0,0-.25-.25l-5.85,0a.26.26,0,0,0-.26.25h0A.25.25,0,0,0,83.68,60.59Z" style="fill:#f5f7f9"/><path d="M89.38,60.05h0a.08.08,0,0,0,.1,0l2.38-4.19a.07.07,0,0,0,0-.1h0a.07.07,0,0,0-.1,0l-2.38,4.19A.09.09,0,0,0,89.38,60.05Z" style="fill:#dfe2ec"/><path d="M83.45,60.26a.26.26,0,0,0,.23.11l5.85,0a.26.26,0,0,0,.24-.13.3.3,0,0,1,0,.1.25.25,0,0,1-.25.25l-5.86,0a.25.25,0,0,1-.25-.25S83.44,60.28,83.45,60.26Z" style="fill:#dfe2ec"/><rect x="85.22" y="60.09" width="0.18" height="0.46" transform="translate(24.57 145.33) rotate(-89.72)" style="fill:#525d7a"/><rect x="84.68" y="60.09" width="0.18" height="0.46" transform="translate(24.03 144.78) rotate(-89.72)" style="fill:#525d7a"/><rect x="88.56" y="60.11" width="0.18" height="0.46" transform="translate(27.88 148.69) rotate(-89.72)" style="fill:#525d7a"/><path d="M80.92,50.14l1.39,3.46a1,1,0,0,1-.15,1l-.19.25-.27,2,1,3.86c-1.24-.23-3.43,2.64-5.68,1.88l.22-5.28-.42-5.2,1.64-3.28h1Z" style="fill:url(#h)"/><g style="opacity:0.15"><path d="M84.63,45.74a1.38,1.38,0,0,0,0-.92,1,1,0,0,0-.41-.54l-1.72.33L80.29,46l.36,1.22c0,.1.07.2.11.3l-1.29,1.38h-1l-1.64,3.28.23,2.77a4,4,0,0,0,.6-.42,2.26,2.26,0,0,0,.62-.72,4.93,4.93,0,0,1,.27-.67c.24-.35.72-.49.87-.88s-.2-1.05.09-1.45A1.92,1.92,0,0,1,80,50.4a4.07,4.07,0,0,0,.64-.83,2.51,2.51,0,0,0,.23-1.09.74.74,0,0,1,.14-.39.75.75,0,0,1,.48-.18,1.4,1.4,0,0,0,1-.43,7.48,7.48,0,0,0,.35-.82A1.63,1.63,0,0,1,84.28,46h.26Z" style="fill:#525d7a"/></g><path d="M84.9,44.46a3.31,3.31,0,0,0-.48-1,1.33,1.33,0,0,0-.57-.48A3.63,3.63,0,0,0,82,43a2.25,2.25,0,0,0-1.09.42l-1.07.77a3.62,3.62,0,0,0-.85.65,2.49,2.49,0,0,0-.33.65,8.43,8.43,0,0,1-.38,1,4.43,4.43,0,0,1-.47.6,3.56,3.56,0,0,0-.71,1.82c0,.25,0,.49,0,.74a4.77,4.77,0,0,1-.35,1.28c-.13.4-.15.83-.32,1.22s-.34.56-.47.86a1.61,1.61,0,0,0,0,1.2,1.41,1.41,0,0,1-.24,1.12,1.4,1.4,0,0,0,1.08-.05,2.8,2.8,0,0,0,.9-.66,2.09,2.09,0,0,0,.56-.76,4,4,0,0,1,.22-.69c.2-.37.67-.55.79-1s-.28-1,0-1.45a2.17,2.17,0,0,1,.41-.39,3.37,3.37,0,0,0,.56-.88,2.44,2.44,0,0,0,.15-1.11.62.62,0,0,1,.11-.4.74.74,0,0,1,.46-.22,1.43,1.43,0,0,0,1-.5,8.45,8.45,0,0,0,.28-.85,1.67,1.67,0,0,1,1.44-.76,1.58,1.58,0,0,0,.79-.23,1.52,1.52,0,0,0,.53-.41A.75.75,0,0,0,84.9,44.46Z" style="fill:#56408b"/><path d="M76.16,55.36a1.17,1.17,0,0,0,0-.76,1.58,1.58,0,0,1,0-1.19c.13-.3.34-.56.47-.86A10.43,10.43,0,0,0,77,51.33a4.9,4.9,0,0,0,.36-1.28c0-.25,0-.49,0-.74a3.65,3.65,0,0,1,.72-1.83,6.39,6.39,0,0,0,.47-.59c.15-.31.25-.67.38-1a2.19,2.19,0,0,1,.32-.65,3.89,3.89,0,0,1,.86-.65l1.06-.78a2.55,2.55,0,0,1,1.1-.42,3.49,3.49,0,0,1,1.87.06,1.1,1.1,0,0,1,.47.35,2.63,2.63,0,0,0-.2-.33,1.33,1.33,0,0,0-.57-.48A3.63,3.63,0,0,0,82,43a2.25,2.25,0,0,0-1.09.42l-1.07.77a3.62,3.62,0,0,0-.85.65,2.49,2.49,0,0,0-.33.65,8.43,8.43,0,0,1-.38,1,4.43,4.43,0,0,1-.47.6,3.56,3.56,0,0,0-.71,1.82c0,.25,0,.49,0,.74a4.77,4.77,0,0,1-.35,1.28c-.13.4-.15.83-.32,1.22s-.34.56-.47.86a1.61,1.61,0,0,0,0,1.2,1.41,1.41,0,0,1-.24,1.12A1.16,1.16,0,0,0,76.16,55.36Z" style="fill:#7866a2"/><path d="M80.56,54.66v2.92l4.14,1.64,1.62-.57,1.28.26.36.54v.61h-.23l-.28-.48-.56-.08-.7.56-2.41,0L82.71,60l-3.35-.55a1.13,1.13,0,0,1-.78-.78v-4Z" style="fill:#fff"/><path d="M86.49,59.75l-2.41,0H83L79.83,59a1.24,1.24,0,0,1-1-1.2l.18-3.13-.48,0v4a1.13,1.13,0,0,0,.78.78l3.35.55,1.07.12,2.41,0,.7-.56Z" style="fill:#525d7a;opacity:0.15"/><path d="M43.07,74.88l-.58-.66-.23.21v.33l-.26-.3,0,0-5.62-8.7-1.16-6.59a2.63,2.63,0,0,0,1-2.07v-.6l.16-.13,0,0,.16-.18-.35-2.37a9.2,9.2,0,0,1-.12-3.62l.39-2.24a1.44,1.44,0,0,0,0-.5c0-.15,0-.31-.06-.5v0l-.18-.68h-5.7l-.2.92a2.58,2.58,0,0,0,0,.39l.1,4.2v.06l-2.82,3.43-.65-.1a.54.54,0,0,0-.48.17l-.4.45v.41l.31.35.58-.58.68.15.11.43-.07.35h.17l.43-.62.29-.33,1.59-1.35L30,57l.47-.12v1.46l1.4,7.86L33,75.56h.29v.52l-.65-.52-.28.6-1.09.57-1.55.21a.61.61,0,0,0-.4.23h0l-.06.08h0a.42.42,0,0,0,0,.1v0a.24.24,0,0,0,0,.08.41.41,0,0,0,0,.11v.25H35.9V75.56h-.26l-.31.55H35v-.54h.2l-.57-7.23.59,1,5.46,6.14.13-.1.34.4-.11.1L40,75.56v.78l-.83.71L38,77.3a.52.52,0,0,0-.32.11h0a.3.3,0,0,0-.08.08.26.26,0,0,0-.07.11l-.1.21h3.46l2.64-2.37h0l-.48-.56Z" style="fill:#56408b;opacity:0.2"/><rect x="32.55" y="75.09" width="1.71" height="1.6" style="fill:#fff"/><rect x="40.17" y="74.4" width="1.46" height="1.6" transform="translate(120.76 106.01) rotate(139.63)" style="fill:#fff"/><polygon points="34.26 57.82 35.66 65.71 41.28 74.42 39.93 75.45 34.48 69.31 32.55 66.13 34.26 57.82" style="fill:#5ddaf4"/><polygon points="34.59 69.44 34.36 66.49 34.61 59.79 34.26 57.82 32.55 66.13 34.48 69.31 34.59 69.44" style="fill:#525d7a;opacity:0.25"/><path d="M29.7,56.16v2.19l1.39,7.86,1.17,9.35h2.19l-.71-9.07.26-7a.12.12,0,0,1,.07-.11h0a2.63,2.63,0,0,0,1.44-2.35v-.64a1.71,1.71,0,0,0-.42-1.12h0Z" style="fill:#5ddaf4"/><polygon points="30.32 58.35 30.32 57.27 29.74 57.36 29.7 58.35 31.09 66.21 32.26 75.56 32.88 75.56 31.71 66.21 30.32 58.35" style="fill:#525d7a;opacity:0.25"/><path d="M31.9,75.56l-.29.6-1.08.57L29,76.94a.63.63,0,0,0-.55.62v.25h6.7V75.56h-.26l-.31.55-2,0Z" style="fill:#623fe9"/><path d="M36.68,77.81l.09-.21a.52.52,0,0,1,.47-.3l1.14-.25.83-.71v-.78l1.08.29,1.19-1v-.44l.24-.21,1.05,1.22-2.63,2.37Z" style="fill:#623fe9"/><path d="M28.83,77.48l-.26-.31a.6.6,0,0,0-.14.39v.25h6.7v-.64l-.31.31Z" style="fill:#56408b"/><path d="M42.29,74.88l-.07.54L40,77.55H37.05l-.12-.14a.49.49,0,0,0-.16.19l-.09.21h3.46l2.63-2.37Z" style="fill:#56408b"/><rect x="30.4" y="41.64" width="2.31" height="2.05" style="fill:#fff"/><path d="M30.4,41.64v1.73h0a2.26,2.26,0,0,0,1.77-1.45l.11-.28Z" style="fill:#525d7a;opacity:0.15"/><path d="M29.53,38.09A1.73,1.73,0,0,0,28.43,40l-.23.66-.19.26a.31.31,0,0,0-.07.2v.11a.27.27,0,0,0,.26.27h.34v.74a.88.88,0,0,0,.88.88h.76a2.25,2.25,0,0,0,2-1.16l.44-.79-.42-3A3.82,3.82,0,0,0,29.53,38.09Z" style="fill:#fff"/><g style="opacity:0.15"><path d="M32.17,38.09l-.09,0-.09,0,0,0a3.52,3.52,0,0,0-2.43.06,2,2,0,0,0-1,.85,1.79,1.79,0,0,0,.4,0c.24,0,.92-.26,1.11-.05s0,.35-.08.47.1.44.1.65a4.29,4.29,0,0,1,.15.78h.26c0-.22,0-.13.17-.3a.58.58,0,0,1,.58-.22.71.71,0,0,1,.49.64c0,.73.53.74.55.71l.29-.48Z" style="fill:#525d7a"/></g><path d="M33.17,38.57a1,1,0,0,0,.09-.36.51.51,0,0,0-.42-.46c-.17,0-.39,0-.54,0s-.13-.18-.21-.29a.87.87,0,0,0-.84-.29,6.78,6.78,0,0,0-1.1.16,5.29,5.29,0,0,1-.79.08,2.52,2.52,0,0,1-.73-.1.88.88,0,0,1-.55-.46,1.85,1.85,0,0,0,0,1.23,1,1,0,0,0,1.2.54c.24,0,.92-.26,1.11,0s-.05.34-.08.47a2.49,2.49,0,0,0,0,.61,10.71,10.71,0,0,1,.21,1.13h.25a1.2,1.2,0,0,1,.23-.6.51.51,0,0,1,.94.19,1.42,1.42,0,0,1,0,.58.77.77,0,0,0,0,.45c.1.24.38.31.63.36a.43.43,0,0,0,.16,0,.35.35,0,0,0,.15-.26,8.82,8.82,0,0,0,.29-1.68A4.71,4.71,0,0,1,33.17,38.57Z" style="fill:#56408b"/><path d="M33.17,38.57a1,1,0,0,0,.09-.36.51.51,0,0,0-.42-.46c-.17,0-.39,0-.54,0s-.13-.18-.21-.29a.87.87,0,0,0-.84-.29,6.78,6.78,0,0,0-1.1.16,5.29,5.29,0,0,1-.79.08,2.52,2.52,0,0,1-.73-.1.88.88,0,0,1-.55-.46,2.65,2.65,0,0,0-.1.55.93.93,0,0,0,.49.38,2.92,2.92,0,0,0,.73.09,3.47,3.47,0,0,0,.79-.08,8.24,8.24,0,0,1,1.11-.16.89.89,0,0,1,.84.29c.07.12.07.24.21.3s.37,0,.53,0a.55.55,0,0,1,.43.46A1.54,1.54,0,0,1,33,39a5.08,5.08,0,0,0,0,1.23,6.45,6.45,0,0,1-.23,1.44.41.41,0,0,0,.1-.22,8.82,8.82,0,0,0,.29-1.68A4.71,4.71,0,0,1,33.17,38.57Z" style="fill:#7866a2"/><path d="M35.51,57.05v-.64a1.71,1.71,0,0,0-.42-1.12l-5.39.87v1.21c2.56-.55,4.51,1,5.74.12C35.44,57.43,35.51,57.11,35.51,57.05Z" style="fill:#525d7a;opacity:0.25"/><path d="M32.71,42.1l.55.74.76.53a3,3,0,0,1,1.49,2.56s.24.93.24.94a3.06,3.06,0,0,1,0,1l-.39,2.24a9,9,0,0,0,.11,3.62l.35,2.37c-1.22,1.59-3.57,0-6.65.91l.5-5.35-.1-4.2a2.6,2.6,0,0,1,.05-.39l.73-3.38Z" style="fill:#623fe9"/><path d="M35.52,53.73a9,9,0,0,1-.11-3.62l.39-2.24a3.06,3.06,0,0,0,0-1s-.23-.92-.24-.94A3,3,0,0,0,34,43.37l-.76-.53-.55-.74-.28.2L33,43l.76.53a2.94,2.94,0,0,1,1.49,2.56s.24.92.24.94a3,3,0,0,1,.05,1l-.39,2.25a9,9,0,0,0,.11,3.61l.35,2.37a1.76,1.76,0,0,1-.47.44,1.82,1.82,0,0,0,.78-.59Z" style="fill:#8165ed"/><path d="M30.94,49.39l-.23,1.13-3.82,4.63-.65-.1a.54.54,0,0,0-.48.17l-.4.45v.41l.31.35.58-.58.68.15.12.43-.08.35h.18l.42-.62.29-.33,3-2.54,2-1.57.49-2.54Z" style="fill:#fff"/><g style="opacity:0.15"><polygon points="32.8 49.23 32.42 51.25 30.4 52.83 27.5 55.59 27.05 56.43 26.97 56.78 27.15 56.78 27.57 56.16 27.86 55.83 30.86 53.29 32.88 51.72 33.37 49.18 32.8 49.23" style="fill:#525d7a"/></g><polygon points="31.41 44.9 30.71 49.39 33.6 49.39 34.47 46.14 34.32 44.9 31.41 44.9" style="fill:#623fe9"/><path d="M33.47,47l-.64,2.39h.77l1-3.27h0A1.18,1.18,0,0,0,33.47,47Z" style="fill:#525d7a;opacity:0.15"/></svg>