<svg xmlns="http://www.w3.org/2000/svg" viewBox="0 0 100 100"><defs><linearGradient id="a" x1="18.75" y1="50" x2="45.14" y2="46.43" gradientUnits="userSpaceOnUse"><stop offset="0" stop-color="#5ddaf4"/><stop offset=".33" stop-color="#5fa2f0"/><stop offset=".79" stop-color="#615beb"/><stop offset="1" stop-color="#623fe9"/></linearGradient><linearGradient id="b" x1="38.89" y1="51.65" x2="65.54" y2="51.65" gradientUnits="userSpaceOnUse"><stop offset="0" stop-color="#623fe9"/><stop offset=".03" stop-color="#6247ea"/><stop offset=".19" stop-color="#6073ed"/><stop offset=".35" stop-color="#5f98ef"/><stop offset=".52" stop-color="#5eb5f1"/><stop offset=".68" stop-color="#5ecaf3"/><stop offset=".84" stop-color="#5dd6f4"/><stop offset="1" stop-color="#5ddaf4"/></linearGradient><linearGradient id="c" x1="50.76" y1="63.94" x2="53.2" y2="50.32" gradientUnits="userSpaceOnUse"><stop offset="0" stop-color="#623fe9"/><stop offset=".2" stop-color="#7348e7"/><stop offset=".58" stop-color="#a060e2"/><stop offset="1" stop-color="#d77edb"/></linearGradient><linearGradient id="d" x1="6.54" y1="62.25" x2="15.09" y2="62.25" gradientUnits="userSpaceOnUse"><stop offset="0" stop-color="#5ddaf4"/><stop offset="1" stop-color="#56408b"/></linearGradient><linearGradient id="e" x1="12.48" y1="68.13" x2="21.04" y2="52.61" gradientUnits="userSpaceOnUse"><stop offset="0" stop-color="#623fe9"/><stop offset=".61" stop-color="#a965e1"/><stop offset="1" stop-color="#d77edb"/></linearGradient><linearGradient id="f" x1="61.6" y1="61.93" x2="78.54" y2="61.93" gradientTransform="rotate(90 70.065 61.925)" gradientUnits="userSpaceOnUse"><stop offset="0" stop-color="#623fe9"/><stop offset=".13" stop-color="#624aea"/><stop offset=".35" stop-color="#6166ec"/><stop offset=".63" stop-color="#5f94ef"/><stop offset=".96" stop-color="#5dd2f3"/><stop offset="1" stop-color="#5ddaf4"/></linearGradient><linearGradient id="g" x1="72.72" y1="77.05" x2="94.67" y2="65.1" gradientTransform="rotate(-180 83.36 71.26)" gradientUnits="userSpaceOnUse"><stop offset="0" stop-color="#623fe9"/><stop offset=".17" stop-color="#6641e8"/><stop offset=".36" stop-color="#7449e7"/><stop offset=".56" stop-color="#8a54e4"/><stop offset=".76" stop-color="#a965e1"/><stop offset=".97" stop-color="#d07adc"/><stop offset="1" stop-color="#d77edb"/></linearGradient><pattern id="h" width="72" height="74.8" patternTransform="matrix(.36 0 0 .36 -16.34 -19.02)" patternUnits="userSpaceOnUse"><path fill="none" d="M0 0h72v74.8H0z"/><path fill="none" stroke="#fff" stroke-linecap="square" stroke-width=".3" d="M72 73.95h72m-72-1.7h72m-72-1.7h72m-72-1.7h72m-72-1.7h72m-72-1.7h72m-72-1.7h72m-72-1.7h72m-72-1.7h72m-72-1.7h72m-72-1.7h72m-72-1.7h72m-72-1.7h72m-72-1.7h72m-72-1.7h72m-72-1.7h72m-72-1.7h72m-72-1.7h72m-72-1.7h72m-72-1.7h72m-72-1.7h72m-72-1.7h72m-72-1.7h72m-72-1.7h72m-72-1.7h72m-72-1.7h72m-72-1.7h72m-72-1.7h72m-72-1.7h72m-72-1.7h72m-72-1.7h72m-72-1.7h72m-72-1.7h72m-72-1.7h72m-72-1.7h72m-72-1.7h72m-72-1.7h72m-72-1.7h72m-72-1.7h72m-72-1.7h72m-72-1.7h72m-72-1.7h72m-72-1.7h72M72 .85h72M0 73.95h72m-72-1.7h72m-72-1.7h72m-72-1.7h72m-72-1.7h72m-72-1.7h72m-72-1.7h72m-72-1.7h72m-72-1.7h72m-72-1.7h72m-72-1.7h72m-72-1.7h72m-72-1.7h72m-72-1.7h72m-72-1.7h72m-72-1.7h72m-72-1.7h72m-72-1.7h72m-72-1.7h72m-72-1.7h72m-72-1.7h72m-72-1.7h72m-72-1.7h72m-72-1.7h72m-72-1.7h72m-72-1.7h72m-72-1.7h72m-72-1.7h72m-72-1.7h72m-72-1.7h72m-72-1.7h72m-72-1.7h72m-72-1.7h72m-72-1.7h72m-72-1.7h72m-72-1.7h72m-72-1.7h72m-72-1.7h72M0 9.35h72M0 7.65h72M0 5.95h72M0 4.25h72M0 2.55h72M0 .85h72m-144 73.1H0m-72-1.7H0m-72-1.7H0m-72-1.7H0m-72-1.7H0m-72-1.7H0m-72-1.7H0m-72-1.7H0m-72-1.7H0m-72-1.7H0m-72-1.7H0m-72-1.7H0m-72-1.7H0m-72-1.7H0m-72-1.7H0m-72-1.7H0m-72-1.7H0m-72-1.7H0m-72-1.7H0m-72-1.7H0m-72-1.7H0m-72-1.7H0m-72-1.7H0m-72-1.7H0m-72-1.7H0m-72-1.7H0m-72-1.7H0m-72-1.7H0m-72-1.7H0m-72-1.7H0m-72-1.7H0m-72-1.7H0m-72-1.7H0m-72-1.7H0m-72-1.7H0m-72-1.7H0m-72-1.7H0m-72-1.7H0m-72-1.7H0m-72-1.7H0m-72-1.7H0m-72-1.7H0m-72-1.7H0m-72-1.7H0"/></pattern></defs><path fill="none" d="M0 0h100v100H0z"/><path d="M100 59.14c.27 12.8-3.57 32-50 31.84-31.25-.13-50-8.55-50-31.84S16.41 9 41.11 9 99.5 35.86 100 59.14z" fill="none"/><path d="M20 46.15h24a1.22 1.22 0 0 1 1.22 1.22V78h-26.4V47.37A1.22 1.22 0 0 1 20 46.15z" fill="#fff"/><path d="M45.27 50.14v-3.07a.92.92 0 0 0-.92-.92H19.74a.92.92 0 0 0-.92.92v3.07z" fill="url(#a)"/><path fill="#f1f2f2" d="M21.39 53.26h10.49v10.48H21.39zm0 12.61h20.4v11.42h-20.4z"/><path d="M21.93 48.14a.53.53 0 0 1-.53.53.53.53 0 1 1 .53-.53zm1.76 0a.53.53 0 1 1-.53-.52.53.53 0 0 1 .53.52zm1.77 0a.53.53 0 0 1-.53.53.53.53 0 1 1 .53-.53z" fill="#fff"/><path d="M44.35 46.15h-1.17a.92.92 0 0 1 .92.92V78h1.17V47.07a.92.92 0 0 0-.92-.92z" fill="#414042" opacity=".2"/><path fill="#f1f2f2" d="M33.15 53.95h10.5v.36h-10.5zm0 2h10.5v.36h-10.5zm0 1.99h10.5v.36h-10.5zm0 2h10.5v.36h-10.5zm0 1.87h5.25v.36h-5.25z"/><path d="M63.41 78h-22.3a2.21 2.21 0 0 1-2.22-2.22V28.71a2.22 2.22 0 0 1 2.22-2.23h22.3a2.23 2.23 0 0 1 2.22 2.23v47.06A2.22 2.22 0 0 1 63.41 78z" fill="#56408b"/><path fill="url(#b)" d="M38.89 32.42h26.65v38.46H38.89z"/><path d="M54.21 74.21a1.95 1.95 0 1 1-2-1.95 1.95 1.95 0 0 1 2 1.95z" fill="#231f20" opacity=".3"/><path d="M41.31 26.48h2.25a2.42 2.42 0 0 0-2.42 2.43v46.66A2.42 2.42 0 0 0 43.56 78h-2.25a2.42 2.42 0 0 1-2.42-2.42V28.91a2.42 2.42 0 0 1 2.42-2.43z" fill="#fff" opacity=".1"/><path d="M63.11 26.48h-2.25a2.43 2.43 0 0 1 2.43 2.43v46.66A2.42 2.42 0 0 1 60.86 78h2.25a2.42 2.42 0 0 0 2.43-2.42V28.91a2.43 2.43 0 0 0-2.43-2.43z" fill="#525d7a" opacity=".1"/><path fill="#413068" d="M48.43 29.39h5.12v.36h-5.12zm5.64 0h1.42v.36h-1.42z"/><path d="M65.63 33.06H38.94l-.08.12V35a.09.09 0 0 0 .09.08v6.75a2.07 2.07 0 0 0 1.9-1.29 2.59 2.59 0 0 0 .31-1.18 2.87 2.87 0 0 0 .31 1.18 2.05 2.05 0 0 0 3.81 0 2.59 2.59 0 0 0 .31-1.18 2.87 2.87 0 0 0 .31 1.18 2.05 2.05 0 0 0 3.81 0A2.59 2.59 0 0 0 50 39.4a2.87 2.87 0 0 0 .31 1.18 2.05 2.05 0 0 0 3.81 0 2.59 2.59 0 0 0 .31-1.18 2.87 2.87 0 0 0 .31 1.18 2.05 2.05 0 0 0 3.81 0 2.59 2.59 0 0 0 .31-1.18 2.87 2.87 0 0 0 .31 1.18 2.05 2.05 0 0 0 3.81 0 2.51 2.51 0 0 0 .29-.9 3.39 3.39 0 0 0 .33 1 2.07 2.07 0 0 0 2 1.17v-6.74a.08.08 0 0 0 .08-.08v-1.86z" fill="#525d7a" opacity=".2"/><path d="M38.94 41a2.38 2.38 0 0 1-2.22-2.52v-3.04h4.44v3.07A2.39 2.39 0 0 1 38.94 41z" fill="#623fe9"/><path fill="#8165ed" d="M42.73 32.31h-3.81l-2.2 3.13h4.44l1.57-3.13z"/><path d="M43.38 41a2.38 2.38 0 0 1-2.22-2.52v-3.04h4.44v3.07A2.39 2.39 0 0 1 43.38 41z" fill="#fff"/><path fill="#fff" d="M46.54 32.31h-3.81l-1.57 3.13h4.44l.94-3.13z"/><path d="M47.82 41a2.38 2.38 0 0 1-2.22-2.52v-3.04H50v3.07A2.39 2.39 0 0 1 47.82 41z" fill="#623fe9"/><path fill="#8165ed" d="M50.35 32.31h-3.81l-.94 3.13h4.44l.31-3.13z"/><path d="M52.26 41A2.38 2.38 0 0 1 50 38.51v-3.07h4.44v3.07A2.38 2.38 0 0 1 52.26 41z" fill="#fff"/><path fill="#fff" d="M54.16 32.31h-3.81l-.31 3.13h4.44l-.32-3.13z"/><path d="M56.7 41a2.38 2.38 0 0 1-2.22-2.52v-3.04h4.44v3.07A2.38 2.38 0 0 1 56.7 41z" fill="#623fe9"/><path fill="#8165ed" d="M59.3 32.31h-5.38l.56 3.13h4.44l.38-3.13z"/><path d="M61.14 41a2.38 2.38 0 0 1-2.22-2.52v-3.04h4.44v3.07A2.38 2.38 0 0 1 61.14 41z" fill="#fff"/><path fill="#fff" d="M61.78 32.31h-3.81l.95 3.13h4.44l-1.58-3.13z"/><path fill="#8165ed" d="M65.59 32.31h-3.81l1.58 3.13h4.44l-2.21-3.13z"/><path d="M65.58 41a2.38 2.38 0 0 1-2.22-2.52v-3.04h4.44v3.07A2.38 2.38 0 0 1 65.58 41zm-9.73 12l-2.41-2.9-3.21-.38-3 2.24-1.35 11.48 8.58 1zm-4.93-1.71a.71.71 0 0 1 .8-.63.73.73 0 1 1-.8.63z" fill="#623fe9"/><path d="M50 50.19l-2.59 2.29-.59 11.08 2.89.35 4.76.2L55.85 53l-2.41-2.9-2.44-.05h-.73zm2.55 1.35a.71.71 0 0 1-.06.25l.09.11-.1-.08c-.11.31-.67.41-1 .37a.8.8 0 0 1-.59-.91.56.56 0 0 1 .06-.21c.1-.3.37-.65.7-.64a1.31 1.31 0 0 1 .94 1.11z" fill="#231f20" opacity=".3"/><path d="M56.1 52.48l-2.73-2.58h-3.24l-2.68 2.58v11.57h8.65zM51 51.37a.73.73 0 1 1 .72.73.72.72 0 0 1-.72-.73z" fill="url(#c)"/><path d="M54.78 58.11a3.06 3.06 0 1 1-3.06-3 3.06 3.06 0 0 1 3.06 3z" fill="#fff"/><path d="M51.28 56.41a.88.88 0 0 1 .23.6.84.84 0 0 1-.24.61.75.75 0 0 1-.58.26.79.79 0 0 1-.58-.25.92.92 0 0 1 0-1.22.81.81 0 0 1 1.17 0zm2.19-.16L50.71 60H50l2.77-3.77zm-2.55 1A.5.5 0 0 0 51 57a.45.45 0 0 0-.09-.28.29.29 0 0 0-.22-.11.28.28 0 0 0-.22.11.45.45 0 0 0-.09.28.44.44 0 0 0 .09.27.3.3 0 0 0 .23.11.29.29 0 0 0 .22-.08zm2.5 1.29a.89.89 0 0 1 .23.61.85.85 0 0 1-.24.61.74.74 0 0 1-.58.25.76.76 0 0 1-.58-.25.89.89 0 0 1-.25-.56.87.87 0 0 1 .24-.61.78.78 0 0 1 .58-.25.76.76 0 0 1 .6.25zm-.35.9a.46.46 0 0 0 .08-.27.4.4 0 0 0-.09-.27.27.27 0 0 0-.44 0 .45.45 0 0 0 0 .54.28.28 0 0 0 .23.11.25.25 0 0 0 .22-.06zm.87-12.08h-.36a1.34 1.34 0 0 0-.61-1c-.07-.07-.15-.12-.22-.18a3 3 0 0 1-.79-.8 3.14 3.14 0 0 1-.08-2.24 2.84 2.84 0 0 0-.21-2.23l.4.05c.4.48.39 1.15.17 2.24a2.85 2.85 0 0 0 0 2 2.59 2.59 0 0 0 .7.7l.23.18a1.71 1.71 0 0 1 .77 1.28z" fill="#56408b"/><path d="M51.74 50.84a.87.87 0 0 1-.34-.6 1.31 1.31 0 0 1 .27-1 3 3 0 0 1 .89-.71l.31-.2a1.38 1.38 0 0 0 .71-1h.36a1.69 1.69 0 0 1-.87 1.31l-.32.2a2.83 2.83 0 0 0-.8.63 1 1 0 0 0-.2.69.53.53 0 0 0 .2.36z" fill="#56408b"/><path fill="url(#d)" d="M15.09 68.95l-8.41-1.04-.14-12.37h8.49l.06 13.41z"/><path fill="#525d7a" opacity=".25" d="M12.04 68.57l3.05.38-.06-13.41h-3.11l.12 13.03z"/><path fill="url(#e)" d="M20 69.56l-7.34-.96-.14-15.62h8.87v12.38L20 69.56z"/><path d="M20.13 69.75L6 68a.88.88 0 0 1-.77-.86L5 60.56a.89.89 0 0 1 .77-.9l18.49-2.38zm3.61-12L5.82 60a.53.53 0 0 0-.46.54l.18 6.58a.54.54 0 0 0 .47.52l13.87 1.71z" fill="#623fe9"/><path fill="#623fe9" d="M6.362 59.749l.36-.007.142 8.17-.36.005zm2.316.369l.36-.006.142 8.169-.36.006z"/><path fill="#623fe9" d="M8.674 59.49l.36-.006.143 8.79-.36.005zm2.332-.385l.36-.006.143 9.41-.36.005zm2.325-.255l.36-.005.143 9.878-.36.006zm2.315-.24l.36-.004.143 10.499-.36.005zm4.511-.688l.36-.005.143 10.269-.36.005zm-2.355.348l.36-.004.111 11.12-.36.004z"/><path fill="#623fe9" d="M5.178 61.289l18.266-2.373.047.357-18.267 2.373zM5.2 63.35H22v.36H5.2zm.107 2.596l.04-.358 15.141 1.741-.041.358z"/><path d="M19.51 72l-.59-.19 5-15a1 1 0 0 1 1-.71h1v.62h-1a.42.42 0 0 0-.4.29z" fill="#623fe9"/><path fill="#623fe9" d="M23.33 75.58h-.62v-.55l-3.48-3.08-11.76 2.07v1.54h-.62V73.5l12.57-2.21 3.91 3.46v.83z"/><path d="M27.23 56.47a.76.76 0 1 1-.76-.76.76.76 0 0 1 .76.76z" fill="#56408b"/><path d="M20.52 71.62a1.2 1.2 0 1 1-1.2-1.2 1.19 1.19 0 0 1 1.2 1.2z" fill="#976fe4"/><path d="M19.82 71.62a.5.5 0 0 1-1 0 .5.5 0 1 1 1 0z" fill="#f6f6f6"/><path d="M24.21 76.84A1.2 1.2 0 1 1 23 75.65a1.19 1.19 0 0 1 1.21 1.19zm-15.85 0a1.2 1.2 0 1 1-2.39 0 1.2 1.2 0 0 1 2.39 0z" fill="#56408b"/><path d="M7.18 77.17a.64.64 0 0 1-.64-.64V75.2h1.28v1.33a.64.64 0 0 1-.64.64zm15.82.16a.63.63 0 0 1-.64-.64v-1.32h1.28v1.32a.64.64 0 0 1-.64.64z" fill="#976fe4"/><path d="M7.57 76.44a.41.41 0 1 1-.41-.44.4.4 0 0 1 .41.44z" fill="#fff"/><circle cx="22.98" cy="76.44" r=".41" fill="#fff"/><rect x="60.36" y="45.94" width="16.94" height="31.97" rx="1.94" ry="1.94" fill="#56408b" opacity=".2"/><rect x="54.08" y="53.46" width="31.97" height="16.94" rx=".75" ry=".75" transform="rotate(-90 70.065 61.925)" fill="url(#f)"/><path d="M73.87 49h-7.41A2.46 2.46 0 0 1 64 51.44v21a2.46 2.46 0 0 1 2.46 2.45h7.43v-.23a2.45 2.45 0 0 1 2.45-2.45V51.44A2.45 2.45 0 0 1 73.87 49zm-3.69 2.33a1.35 1.35 0 1 1-1.34 1.35 1.35 1.35 0 0 1 1.34-1.36zm0 21.25a1.35 1.35 0 1 1 1.35-1.34 1.34 1.34 0 0 1-1.35 1.33zm0-5.56A5.06 5.06 0 1 1 75.25 62a5.07 5.07 0 0 1-5.07 5z" fill="#fff" opacity=".42"/><path d="M67 61.33v2.3a1 1 0 0 0 1 1h.49v-1.4h-.09v-1.9a.67.67 0 0 1 .66-.66.43.43 0 0 1 .43.43v1.7a1.8 1.8 0 0 0 1.8 1.79h.24a2 2 0 0 0 2-2v-2.3a1 1 0 0 0-1-1H72v1.36h.15v1.9a.66.66 0 0 1-.66.66h-.24a.43.43 0 0 1-.43-.43V61.1A1.8 1.8 0 0 0 69 59.31a2 2 0 0 0-2 2.02z" fill="#fff"/><path fill="#fff" d="M66.16 61.27h8.04v1.36h-8.04z"/><path d="M72.85 64.49H92a2.05 2.05 0 0 1 2.06 2.05V76A2.06 2.06 0 0 1 92 78H72.85a2.06 2.06 0 0 1-2.06-2v-9.46a2.05 2.05 0 0 1 2.06-2.05z" fill="#525d7a" opacity=".3"/><rect x="71.72" y="64.49" width="23.28" height="13.54" rx="2.42" ry="2.42" transform="rotate(180 83.36 71.26)" fill="url(#g)"/><path d="M73.89 64.49h1.41a2.16 2.16 0 0 0-2.16 2.16v9.22A2.16 2.16 0 0 0 75.3 78h-1.41a2.17 2.17 0 0 1-2.17-2.16v-9.19a2.17 2.17 0 0 1 2.17-2.16z" fill="#525d7a" opacity=".15"/><rect x="88.86" y="67.92" width="4.26" height="4.26" rx=".21" ry=".21" transform="rotate(180 90.985 70.05)" fill="#fff"/><path fill="#56408b" d="M93.54 75.9h-5.11v-1.3h5.11zm-6.38 0H75.3v-1.3h11.86z"/><path d="M78.54 46.59a.65.65 0 0 0-.65-.65h-.21a3.58 3.58 0 0 1-.2.49A5.39 5.39 0 0 1 77 47a3.58 3.58 0 0 0-.72 1.82v.74a4.79 4.79 0 0 1-.36 1.28 10.43 10.43 0 0 1-.32 1.22c-.13.3-.34.56-.47.86a1.61 1.61 0 0 0 0 1.2 1.34 1.34 0 0 1-.24 1.12.78.78 0 0 0 .25.07h.25a1.53 1.53 0 0 0 .59-.13 2 2 0 0 0 .32-.18l.19 2.29-.23 5.28.25.07h.19a2.44 2.44 0 0 0 1.84 1.73z" fill="#56408b" opacity=".2"/><path d="M84.06 64.34a.75.75 0 0 0 .57.4l3.77.52.45-.17a.86.86 0 0 0 .57-.81.85.85 0 0 0-.18-.53l-.35-.46z" fill="#fff"/><path d="M84.06 64.22a.7.7 0 0 0 .54.38l3.6.5.43-.17a.83.83 0 0 0 .54-.77.82.82 0 0 0-.17-.5l-.33-.44z" fill="#e6e7e8"/><path d="M89.3 60.83l-.4-.34a.85.85 0 0 0-.57-.19l-6.11.33v-.86l-4.84 2.11v.17a2.45 2.45 0 0 0 2.45 2.45l1.74.13 2.43-.12 5.32-1.27a1 1 0 0 0 .52-.73v-.25a1.59 1.59 0 0 0-.54-1.43z" fill="#56408b"/><path d="M85.21 63.9l-2.42.1-1.74-.13a2.45 2.45 0 0 1-2.45-2.45v-.09l-1.22.53v.17a2.45 2.45 0 0 0 2.45 2.45l1.74.13 2.43-.1 5.32-1.27a.94.94 0 0 0 .42-.42z" fill="#525d7a" opacity=".2"/><path fill="#fff" d="M80.782 47.44l1.433 1.337-1.563 1.674-1.433-1.338z"/><path d="M81.22 47.85a2.45 2.45 0 0 0 .69 1.26l.31-.33z" fill="#525d7a" opacity=".15"/><path d="M84.63 45.74l-.3.9a4.75 4.75 0 0 0 0 1.2.42.42 0 0 1-.37.09l-.29.47a1.09 1.09 0 0 1-1.56.33l-.67-.46a2 2 0 0 1-.79-1.1L80.29 46l2.22-1.34 1.72-.33a1 1 0 0 1 .41.54 1.38 1.38 0 0 1-.01.87z" fill="#fff"/><path d="M80.92 50.14l1.39 3.46a1 1 0 0 1-.15 1l-.19.25-.27 2 1 3.86c-1.24-.23-3.43 2.64-5.68 1.88l.22-5.28-.42-5.2 1.64-3.28h1z" fill="#d77edb"/><path d="M77.65 62.61l.22-5.28-.42-5.2 1.64-3.28h-.61l-1.64 3.28.42 5.2-.26 5.28a2.6 2.6 0 0 0 1.1.11 2.88 2.88 0 0 1-.45-.11z" fill="#525d7a" opacity=".15"/><path fill="#d77edb" d="M80.6 50.87l.12 3.79h-2.39l-.32-3.35.49-.71 2.1.27z"/><path fill="#525d7a" opacity=".15" d="M79.06 50.67l-.56-.07-.49.71.32 3.35.73.02-.11-2.67.11-1.34z"/><path d="M83.68 60.59h5.86a.25.25 0 0 0 .25-.25.25.25 0 0 0-.25-.25h-5.85a.26.26 0 0 0-.26.25.25.25 0 0 0 .25.25z" fill="#f5f7f9"/><path d="M89.38 60.05a.08.08 0 0 0 .1 0l2.38-4.19a.07.07 0 0 0 0-.1.07.07 0 0 0-.1 0l-2.38 4.19a.09.09 0 0 0 0 .1zm-5.93.21a.26.26 0 0 0 .23.11h5.85a.26.26 0 0 0 .24-.13.3.3 0 0 1 0 .1.25.25 0 0 1-.25.25h-5.86a.25.25 0 0 1-.25-.25l.04-.08z" fill="#dfe2ec"/><path fill="#525d7a" d="M85.076 60.405v-.18l.46.002v.18zm-.543-.01l.001-.18.46.002v.18zm3.889.03v-.18l.46.002v.18z"/><path d="M80.92 50.14l1.39 3.46a1 1 0 0 1-.15 1l-.19.25-.27 2 1 3.86c-1.24-.23-3.43 2.64-5.68 1.88l.22-5.28-.42-5.2 1.64-3.28h1z" fill="url(#h)"/><path d="M84.63 45.74a1.38 1.38 0 0 0 0-.92 1 1 0 0 0-.41-.54l-1.72.33L80.29 46l.36 1.22c0 .1.07.2.11.3l-1.29 1.38h-1l-1.64 3.28.23 2.77a4 4 0 0 0 .6-.42 2.26 2.26 0 0 0 .62-.72 4.93 4.93 0 0 1 .27-.67c.24-.35.72-.49.87-.88s-.2-1.05.09-1.45a1.92 1.92 0 0 1 .49-.41 4.07 4.07 0 0 0 .64-.83 2.51 2.51 0 0 0 .23-1.09.74.74 0 0 1 .14-.39.75.75 0 0 1 .48-.18 1.4 1.4 0 0 0 1-.43 7.48 7.48 0 0 0 .35-.82 1.63 1.63 0 0 1 1.44-.66h.26z" fill="#525d7a" opacity=".15"/><path d="M84.9 44.46a3.31 3.31 0 0 0-.48-1 1.33 1.33 0 0 0-.57-.48A3.63 3.63 0 0 0 82 43a2.25 2.25 0 0 0-1.09.42l-1.07.77a3.62 3.62 0 0 0-.85.65 2.49 2.49 0 0 0-.33.65 8.43 8.43 0 0 1-.38 1 4.43 4.43 0 0 1-.47.6 3.56 3.56 0 0 0-.71 1.82v.74a4.77 4.77 0 0 1-.35 1.28c-.13.4-.15.83-.32 1.22s-.34.56-.47.86a1.61 1.61 0 0 0 0 1.2 1.41 1.41 0 0 1-.24 1.12 1.4 1.4 0 0 0 1.08-.05 2.8 2.8 0 0 0 .9-.66 2.09 2.09 0 0 0 .56-.76 4 4 0 0 1 .22-.69c.2-.37.67-.55.79-1s-.28-1 0-1.45a2.17 2.17 0 0 1 .41-.39 3.37 3.37 0 0 0 .56-.88 2.44 2.44 0 0 0 .15-1.11.62.62 0 0 1 .11-.4.74.74 0 0 1 .46-.22 1.43 1.43 0 0 0 1-.5 8.45 8.45 0 0 0 .28-.85 1.67 1.67 0 0 1 1.44-.76 1.58 1.58 0 0 0 .79-.23 1.52 1.52 0 0 0 .53-.41.75.75 0 0 0-.1-.51z" fill="#56408b"/><path d="M76.16 55.36a1.17 1.17 0 0 0 0-.76 1.58 1.58 0 0 1 0-1.19c.13-.3.34-.56.47-.86a10.43 10.43 0 0 0 .37-1.22 4.9 4.9 0 0 0 .36-1.28v-.74a3.65 3.65 0 0 1 .72-1.83 6.39 6.39 0 0 0 .47-.59c.15-.31.25-.67.38-1a2.19 2.19 0 0 1 .32-.65 3.89 3.89 0 0 1 .86-.65l1.06-.78a2.55 2.55 0 0 1 1.1-.42 3.49 3.49 0 0 1 1.87.06 1.1 1.1 0 0 1 .47.35 2.63 2.63 0 0 0-.2-.33 1.33 1.33 0 0 0-.57-.48A3.63 3.63 0 0 0 82 43a2.25 2.25 0 0 0-1.09.42l-1.07.77a3.62 3.62 0 0 0-.85.65 2.49 2.49 0 0 0-.33.65 8.43 8.43 0 0 1-.38 1 4.43 4.43 0 0 1-.47.6 3.56 3.56 0 0 0-.71 1.82v.74a4.77 4.77 0 0 1-.35 1.28c-.13.4-.15.83-.32 1.22s-.34.56-.47.86a1.61 1.61 0 0 0 0 1.2 1.41 1.41 0 0 1-.24 1.12 1.16 1.16 0 0 0 .44.03z" fill="#7866a2"/><path d="M80.56 54.66v2.92l4.14 1.64 1.62-.57 1.28.26.36.54v.61h-.23l-.28-.48-.56-.08-.7.56h-2.41L82.71 60l-3.35-.55a1.13 1.13 0 0 1-.78-.78v-4z" fill="#fff"/><path d="M86.49 59.75H83L79.83 59a1.24 1.24 0 0 1-1-1.2l.18-3.13h-.48v4a1.13 1.13 0 0 0 .78.78l3.35.55 1.07.12h2.41l.7-.56z" fill="#525d7a" opacity=".15"/><path d="M43.07 74.88l-.58-.66-.23.21v.33l-.26-.3-5.62-8.7-1.16-6.59a2.63 2.63 0 0 0 1-2.07v-.6l.16-.13.16-.18-.35-2.37a9.2 9.2 0 0 1-.12-3.62l.39-2.24a1.44 1.44 0 0 0 0-.5c0-.15 0-.31-.06-.5l-.18-.68h-5.7l-.2.92a2.58 2.58 0 0 0 0 .39l.1 4.2v.06l-2.82 3.43-.65-.1a.54.54 0 0 0-.48.17l-.4.45v.41l.31.35.58-.58.68.15.11.43-.07.35h.17l.43-.62.29-.33 1.59-1.35L30 57l.47-.12v1.46l1.4 7.86L33 75.56h.29v.52l-.65-.52-.28.6-1.09.57-1.55.21a.61.61 0 0 0-.4.23l-.06.08a.42.42 0 0 0 0 .1.24.24 0 0 0 0 .08.41.41 0 0 0 0 .11v.25h6.64v-2.23h-.26l-.31.55H35v-.54h.2l-.57-7.23.59 1 5.46 6.14.13-.1.34.4-.11.1-1.04-.32v.78l-.83.71-1.17.25a.52.52 0 0 0-.32.11.3.3 0 0 0-.08.08.26.26 0 0 0-.07.11l-.1.21h3.46l2.64-2.37-.48-.56z" fill="#56408b" opacity=".2"/><path fill="#fff" d="M32.55 75.09h1.71v1.6h-1.71zm9.415.255l-1.112.946-1.037-1.22 1.113-.945z"/><path fill="#5ddaf4" d="M34.26 57.82l1.4 7.89 5.62 8.71-1.35 1.03-5.45-6.14-1.93-3.18 1.71-8.31z"/><path fill="#525d7a" opacity=".25" d="M34.59 69.44l-.23-2.95.25-6.7-.35-1.97-1.71 8.31 1.93 3.18.11.13z"/><path d="M29.7 56.16v2.19l1.39 7.86 1.17 9.35h2.19l-.71-9.07.26-7a.12.12 0 0 1 .07-.11 2.63 2.63 0 0 0 1.44-2.35v-.64a1.71 1.71 0 0 0-.42-1.12z" fill="#5ddaf4"/><path fill="#525d7a" opacity=".25" d="M30.32 58.35v-1.08l-.58.09-.04.99 1.39 7.86 1.17 9.35h.62l-1.17-9.35-1.39-7.86z"/><path d="M31.9 75.56l-.29.6-1.08.57-1.53.21a.63.63 0 0 0-.55.62v.25h6.7v-2.25h-.26l-.31.55h-2zm4.78 2.25l.09-.21a.52.52 0 0 1 .47-.3l1.14-.25.83-.71v-.78l1.08.29 1.19-1v-.44l.24-.21 1.05 1.22-2.63 2.37z" fill="#623fe9"/><path d="M28.83 77.48l-.26-.31a.6.6 0 0 0-.14.39v.25h6.7v-.64l-.31.31zm13.46-2.6l-.07.54L40 77.55h-2.95l-.12-.14a.49.49 0 0 0-.16.19l-.09.21h3.46l2.63-2.37z" fill="#56408b"/><path fill="#fff" d="M30.4 41.64h2.31v2.05H30.4z"/><path d="M30.4 41.64v1.73a2.26 2.26 0 0 0 1.77-1.45l.11-.28z" fill="#525d7a" opacity=".15"/><path d="M29.53 38.09a1.73 1.73 0 0 0-1.1 1.91l-.23.66-.19.26a.31.31 0 0 0-.07.2v.11a.27.27 0 0 0 .26.27h.34v.74a.88.88 0 0 0 .88.88h.76a2.25 2.25 0 0 0 2-1.16l.44-.79-.42-3a3.82 3.82 0 0 0-2.67-.08z" fill="#fff"/><path d="M32.17 38.09h-.18a3.52 3.52 0 0 0-2.43.06 2 2 0 0 0-1 .85 1.79 1.79 0 0 0 .4 0c.24 0 .92-.26 1.11-.05s0 .35-.08.47.1.44.1.65a4.29 4.29 0 0 1 .15.78h.26c0-.22 0-.13.17-.3a.58.58 0 0 1 .58-.22.71.71 0 0 1 .49.64c0 .73.53.74.55.71l.29-.48z" fill="#525d7a" opacity=".15"/><path d="M33.17 38.57a1 1 0 0 0 .09-.36.51.51 0 0 0-.42-.46h-.54c-.15 0-.13-.18-.21-.29a.87.87 0 0 0-.84-.29 6.78 6.78 0 0 0-1.1.16 5.29 5.29 0 0 1-.79.08 2.52 2.52 0 0 1-.73-.1.88.88 0 0 1-.55-.46 1.85 1.85 0 0 0 0 1.23 1 1 0 0 0 1.2.54c.24 0 .92-.26 1.11 0s-.05.34-.08.47a2.49 2.49 0 0 0 0 .61 10.71 10.71 0 0 1 .21 1.13h.25a1.2 1.2 0 0 1 .23-.6.51.51 0 0 1 .94.19 1.42 1.42 0 0 1 0 .58.77.77 0 0 0 0 .45c.1.24.38.31.63.36a.43.43 0 0 0 .16 0 .35.35 0 0 0 .15-.26 8.82 8.82 0 0 0 .29-1.68 4.71 4.71 0 0 1 0-1.3z" fill="#56408b"/><path d="M33.17 38.57a1 1 0 0 0 .09-.36.51.51 0 0 0-.42-.46h-.54c-.15 0-.13-.18-.21-.29a.87.87 0 0 0-.84-.29 6.78 6.78 0 0 0-1.1.16 5.29 5.29 0 0 1-.79.08 2.52 2.52 0 0 1-.73-.1.88.88 0 0 1-.55-.46 2.65 2.65 0 0 0-.1.55.93.93 0 0 0 .49.38 2.92 2.92 0 0 0 .73.09 3.47 3.47 0 0 0 .79-.08 8.24 8.24 0 0 1 1.11-.16.89.89 0 0 1 .84.29c.07.12.07.24.21.3s.37 0 .53 0a.55.55 0 0 1 .43.46A1.54 1.54 0 0 1 33 39a5.08 5.08 0 0 0 0 1.23 6.45 6.45 0 0 1-.23 1.44.41.41 0 0 0 .1-.22 8.82 8.82 0 0 0 .29-1.68 4.71 4.71 0 0 1 .01-1.2z" fill="#7866a2"/><path d="M35.51 57.05v-.64a1.71 1.71 0 0 0-.42-1.12l-5.39.87v1.21c2.56-.55 4.51 1 5.74.12 0-.06.07-.38.07-.44z" fill="#525d7a" opacity=".25"/><path d="M32.71 42.1l.55.74.76.53a3 3 0 0 1 1.49 2.56s.24.93.24.94a3.06 3.06 0 0 1 0 1l-.39 2.24a9 9 0 0 0 .11 3.62l.35 2.37c-1.22 1.59-3.57 0-6.65.91l.5-5.35-.1-4.2a2.6 2.6 0 0 1 .05-.39l.73-3.38z" fill="#623fe9"/><path d="M35.52 53.73a9 9 0 0 1-.11-3.62l.39-2.24a3.06 3.06 0 0 0 0-1s-.23-.92-.24-.94A3 3 0 0 0 34 43.37l-.76-.53-.55-.74-.28.2.59.7.76.53a2.94 2.94 0 0 1 1.49 2.56s.24.92.24.94a3 3 0 0 1 .05 1l-.39 2.25a9 9 0 0 0 .11 3.61l.35 2.37a1.76 1.76 0 0 1-.47.44 1.82 1.82 0 0 0 .78-.59z" fill="#8165ed"/><path d="M30.94 49.39l-.23 1.13-3.82 4.63-.65-.1a.54.54 0 0 0-.48.17l-.4.45v.41l.31.35.58-.58.68.15.12.43-.08.35h.18l.42-.62.29-.33 3-2.54 2-1.57.49-2.54z" fill="#fff"/><path fill="#525d7a" d="M32.8 49.23l-.38 2.02-2.02 1.58-2.9 2.76-.45.84-.08.35h.18l.42-.62.29-.33 3-2.54 2.02-1.57.49-2.54-.57.05z" opacity=".15"/><path fill="#623fe9" d="M31.41 44.9l-.7 4.49h2.89l.87-3.25-.15-1.24h-2.91z"/><path d="M33.47 47l-.64 2.39h.77l1-3.27a1.18 1.18 0 0 0-1.13.88z" fill="#525d7a" opacity=".15"/></svg>