<svg xmlns="http://www.w3.org/2000/svg" xmlns:xlink="http://www.w3.org/1999/xlink" viewBox="0 0 100 100"><defs><filter id="b" x="40.4" y="-8626" width="30.27" height="32766" filterUnits="userSpaceOnUse" color-interpolation-filters="sRGB"><feFlood flood-color="#fff" result="bg"/><feBlend in="SourceGraphic" in2="bg"/></filter><linearGradient id="c" x1="55.41" y1="421.69" x2="55.41" y2="430.81" gradientTransform="matrix(1 .27 0 1 .12 -417.74)" gradientUnits="userSpaceOnUse"><stop offset="0" stop-color="#fff"/><stop offset=".12" stop-color="#fbfbfb"/><stop offset=".24" stop-color="#eee"/><stop offset=".37" stop-color="#d9d9d9"/><stop offset=".5" stop-color="#bcbcbc"/><stop offset=".63" stop-color="#969696"/><stop offset=".76" stop-color="#686868"/><stop offset=".89" stop-color="#323232"/><stop offset="1"/></linearGradient><linearGradient id="d" x1="96.08" y1="11.29" x2="-110.8" y2="142.43" gradientUnits="userSpaceOnUse"><stop offset="0" stop-color="#ccbfde"/><stop offset="1" stop-color="#efe8fa"/></linearGradient><filter id="f" x="40.4" y="17.85" width="30.27" height="14.12" filterUnits="userSpaceOnUse" color-interpolation-filters="sRGB"><feFlood flood-color="#fff" result="bg"/><feBlend in="SourceGraphic" in2="bg"/></filter><mask id="e" x="40.4" y="17.85" width="30.27" height="14.12" maskUnits="userSpaceOnUse"><g mask="url(#a)" filter="url(#f)"><path d="M41.32 21.77c1.44.41 3-3.08 4.62-2.67s3 3.8 4.62 4.25 2.62-6 4.62-5.47 2.87 6 4.62 6.46 2.91 0 4.62.38 2.66 2.84 4.62 3.35l1.63.44V32L40.4 23.85v-2.32z" style="mix-blend-mode:multiply" fill="url(#c)"/></g></mask><linearGradient id="g" x1="55.41" y1="421.69" x2="55.41" y2="430.81" gradientTransform="matrix(1 .27 0 1 .12 -417.74)" gradientUnits="userSpaceOnUse"><stop offset="0" stop-color="#b19ece"/><stop offset=".2" stop-color="#b4a2d0"/><stop offset=".4" stop-color="#beafd6"/><stop offset=".61" stop-color="#cfc4e1"/><stop offset=".82" stop-color="#e7e1f0"/><stop offset="1" stop-color="#fff"/></linearGradient><linearGradient id="h" x1="55.41" y1="428.21" x2="55.41" y2="420.7" gradientTransform="matrix(1 .27 0 1 .12 -417.74)" gradientUnits="userSpaceOnUse"><stop offset="0" stop-color="#a37de3"/><stop offset="1" stop-color="#3219af"/></linearGradient><linearGradient id="i" x1="81.16" y1="420.16" x2="83.23" y2="424.32" xlink:href="#h"/><linearGradient id="j" x1="74.19" y1="430.32" x2="84.64" y2="430.32" xlink:href="#h"/><linearGradient id="m" x1="74.19" y1="430.32" x2="84.64" y2="430.32" xlink:href="#h"/><linearGradient id="o" x1="74.19" y1="430.32" x2="84.64" y2="430.32" xlink:href="#h"/><linearGradient id="ad" x1="74.19" y1="430.32" x2="84.64" y2="430.32" xlink:href="#h"/><linearGradient id="af" x1="74.19" y1="430.32" x2="84.64" y2="430.32" xlink:href="#h"/><linearGradient id="ah" x1="39.72" y1="845.31" x2="58.85" y2="845.31" gradientTransform="matrix(1 .54 0 1 .25 -834.74)" xlink:href="#h"/><linearGradient id="ai" x1="39.72" y1="849.75" x2="58.85" y2="849.75" gradientTransform="matrix(1 .54 0 1 .25 -834.74)" xlink:href="#h"/><linearGradient id="aj" x1="39.72" y1="853.22" x2="58.85" y2="853.22" gradientTransform="matrix(1 .54 0 1 .25 -834.74)" xlink:href="#h"/><linearGradient id="ak" x1="39.72" y1="856.42" x2="58.85" y2="856.42" gradientTransform="matrix(1 .54 0 1 .25 -834.74)" xlink:href="#h"/><linearGradient id="al" x1="53.76" y1="443.53" x2="66.84" y2="443.53" xlink:href="#h"/><linearGradient id="an" x1="53.76" y1="445.41" x2="66.84" y2="445.41" xlink:href="#h"/><linearGradient id="ap" x1="53.76" y1="447.29" x2="66.84" y2="447.29" xlink:href="#h"/><linearGradient id="as" x1="53.76" y1="449.17" x2="66.84" y2="449.17" xlink:href="#h"/><linearGradient id="au" x1="71.41" y1="847.56" x2="71.41" y2="839.2" gradientTransform="matrix(1 .54 0 1 .25 -834.74)" xlink:href="#h"/><linearGradient id="av" x1="74.27" y1="846.76" x2="74.27" y2="838.43" gradientTransform="matrix(1 .54 0 1 .25 -834.74)" xlink:href="#h"/><linearGradient id="aw" x1="80" y1="845.24" x2="80" y2="836.9" gradientTransform="matrix(1 .54 0 1 .25 -834.74)" xlink:href="#h"/><linearGradient id="ax" x1="82.86" y1="844.49" x2="82.86" y2="836.1" gradientTransform="matrix(1 .54 0 1 .25 -834.74)" xlink:href="#h"/><linearGradient id="ay" x1="77.13" y1="845.99" x2="77.13" y2="837.67" gradientTransform="matrix(1 .54 0 1 .25 -834.74)" xlink:href="#h"/><linearGradient id="az" x1="92.56" y1="50.47" x2="99.59" y2="10.76" gradientUnits="userSpaceOnUse"><stop offset="0" stop-color="#3219af"/><stop offset=".15" stop-color="#361db1"/><stop offset=".3" stop-color="#4229b6"/><stop offset=".45" stop-color="#553dbf"/><stop offset=".6" stop-color="#715acc"/><stop offset=".76" stop-color="#957edc"/><stop offset=".91" stop-color="#c0aaf0"/><stop offset="1" stop-color="#dec9fe"/></linearGradient><linearGradient id="ba" x1="75.41" y1="43.15" x2="122.47" y2="116.04" gradientUnits="userSpaceOnUse"><stop offset="0" stop-color="#a37de3"/><stop offset="1" stop-color="#5b17cd"/></linearGradient><linearGradient id="bb" x1="75.51" y1="74.23" x2="125.35" y2="50.37" xlink:href="#ba"/><linearGradient id="bc" x1="2387.88" y1="46.92" x2="2394.91" y2="7.21" gradientTransform="matrix(-1 0 0 1 2482.91 -2.42)" xlink:href="#az"/><linearGradient id="bd" x1="22.89" y1="66.21" x2="22.61" y2="60.31" xlink:href="#d"/><linearGradient id="be" x1="23.56" y1="72.96" x2="21.29" y2="26.21" xlink:href="#h"/><linearGradient id="bf" x1="24.5" y1="91.94" x2="18.49" y2="54.56" gradientUnits="userSpaceOnUse"><stop offset="0" stop-color="#a37de3"/><stop offset=".62" stop-color="#5b17cd"/></linearGradient><linearGradient id="bg" x1="43.62" y1="95.25" x2="21.8" y2="70.41" xlink:href="#ba"/><linearGradient id="bh" x1="9.04" y1="40.16" x2="19.28" y2="54.54" xlink:href="#ba"/><linearGradient id="bi" x1="7.86" y1="37.08" x2="7.86" y2="61.4" xlink:href="#ba"/><linearGradient id="bj" x1="35.3" y1="64.52" x2="54.82" y2="83.08" gradientUnits="userSpaceOnUse"><stop offset="0" stop-color="#a37de3"/><stop offset="1" stop-color="#d5c4f2"/></linearGradient><linearGradient id="bk" x1="2226.5" y1="601.61" x2="2272.91" y2="602.43" gradientTransform="matrix(-.1 -.26 -3.82 -.05 2537.39 676.29)" xlink:href="#h"/><linearGradient id="bl" x1="2226.5" y1="601.4" x2="2272.91" y2="602.22" gradientTransform="matrix(-.1 -.26 -3.82 -.05 2537.39 676.29)" xlink:href="#h"/><linearGradient id="bm" x1="2226.5" y1="601.19" x2="2272.92" y2="602.01" gradientTransform="matrix(-.1 -.26 -3.82 -.05 2537.39 676.29)" xlink:href="#h"/><linearGradient id="bn" x1="2226.51" y1="600.99" x2="2272.92" y2="601.8" gradientTransform="matrix(-.1 -.26 -3.82 -.05 2537.39 676.29)" xlink:href="#h"/><linearGradient id="bo" x1="2226.51" y1="600.78" x2="2272.92" y2="601.6" gradientTransform="matrix(-.1 -.26 -3.82 -.05 2537.39 676.29)" xlink:href="#h"/><linearGradient id="bp" x1="2226.52" y1="600.57" x2="2272.93" y2="601.39" gradientTransform="matrix(-.1 -.26 -3.82 -.05 2537.39 676.29)" xlink:href="#h"/><linearGradient id="bq" x1="2226.52" y1="600.36" x2="2272.93" y2="601.18" gradientTransform="matrix(-.1 -.26 -3.82 -.05 2537.39 676.29)" xlink:href="#h"/><linearGradient id="br" x1="2226.52" y1="600.15" x2="2272.94" y2="600.97" gradientTransform="matrix(-.1 -.26 -3.82 -.05 2537.39 676.29)" xlink:href="#h"/><linearGradient id="bs" x1="2226.53" y1="599.95" x2="2272.94" y2="600.76" gradientTransform="matrix(-.1 -.26 -3.82 -.05 2537.39 676.29)" xlink:href="#h"/><linearGradient id="bt" x1="2226.53" y1="599.74" x2="2272.94" y2="600.56" gradientTransform="matrix(-.1 -.26 -3.82 -.05 2537.39 676.29)" xlink:href="#h"/><linearGradient id="bu" x1="2226.53" y1="599.53" x2="2272.95" y2="600.35" gradientTransform="matrix(-.1 -.26 -3.82 -.05 2537.39 676.29)" xlink:href="#h"/><linearGradient id="bv" x1="2226.54" y1="599.32" x2="2272.95" y2="600.14" gradientTransform="matrix(-.1 -.26 -3.82 -.05 2537.39 676.29)" xlink:href="#h"/><linearGradient id="bw" x1="2226.54" y1="599.11" x2="2272.95" y2="599.93" gradientTransform="matrix(-.1 -.26 -3.82 -.05 2537.39 676.29)" xlink:href="#h"/><linearGradient id="bx" x1="2226.55" y1="598.91" x2="2272.96" y2="599.72" gradientTransform="matrix(-.1 -.26 -3.82 -.05 2537.39 676.29)" xlink:href="#h"/><linearGradient id="by" x1="2226.5" y1="601.76" x2="2272.91" y2="602.57" gradientTransform="matrix(-.1 -.26 -3.82 -.05 2537.39 676.29)" xlink:href="#h"/><linearGradient id="bz" x1="2226.5" y1="601.55" x2="2272.91" y2="602.37" gradientTransform="matrix(-.1 -.26 -3.82 -.05 2537.39 676.29)" xlink:href="#h"/><linearGradient id="ca" x1="2226.5" y1="601.34" x2="2272.91" y2="602.16" gradientTransform="matrix(-.1 -.26 -3.82 -.05 2537.39 676.29)" xlink:href="#h"/><linearGradient id="cb" x1="2226.51" y1="601.13" x2="2272.92" y2="601.95" gradientTransform="matrix(-.1 -.26 -3.82 -.05 2537.39 676.29)" xlink:href="#h"/><linearGradient id="cc" x1="2226.51" y1="600.93" x2="2272.92" y2="601.74" gradientTransform="matrix(-.1 -.26 -3.82 -.05 2537.39 676.29)" xlink:href="#h"/><linearGradient id="cd" x1="2226.51" y1="600.72" x2="2272.93" y2="601.53" gradientTransform="matrix(-.1 -.26 -3.82 -.05 2537.39 676.29)" xlink:href="#h"/><linearGradient id="ce" x1="2226.52" y1="600.51" x2="2272.93" y2="601.33" gradientTransform="matrix(-.1 -.26 -3.82 -.05 2537.39 676.29)" xlink:href="#h"/><linearGradient id="cf" x1="2226.52" y1="600.3" x2="2272.93" y2="601.12" gradientTransform="matrix(-.1 -.26 -3.82 -.05 2537.39 676.29)" xlink:href="#h"/><linearGradient id="cg" x1="2226.52" y1="600.09" x2="2272.94" y2="600.91" gradientTransform="matrix(-.1 -.26 -3.82 -.05 2537.39 676.29)" xlink:href="#h"/><linearGradient id="ch" x1="2226.53" y1="599.88" x2="2272.94" y2="600.7" gradientTransform="matrix(-.1 -.26 -3.82 -.05 2537.39 676.29)" xlink:href="#h"/><linearGradient id="ci" x1="2226.53" y1="599.68" x2="2272.94" y2="600.49" gradientTransform="matrix(-.1 -.26 -3.82 -.05 2537.39 676.29)" xlink:href="#h"/><linearGradient id="cj" x1="2226.54" y1="599.47" x2="2272.95" y2="600.29" gradientTransform="matrix(-.1 -.26 -3.82 -.05 2537.39 676.29)" xlink:href="#h"/><linearGradient id="ck" x1="2226.54" y1="599.16" x2="2272.95" y2="599.97" gradientTransform="matrix(-.1 -.26 -3.82 -.05 2537.39 676.29)" xlink:href="#h"/><linearGradient id="cl" x1="2226.49" y1="601.89" x2="2272.91" y2="602.71" gradientTransform="matrix(-.1 -.26 -3.82 -.05 2537.39 676.29)" xlink:href="#h"/><linearGradient id="cm" x1="2226.5" y1="601.65" x2="2272.91" y2="602.47" gradientTransform="matrix(-.1 -.26 -3.82 -.05 2537.39 676.29)" xlink:href="#h"/><linearGradient id="cn" x1="2226.5" y1="601.44" x2="2272.91" y2="602.26" gradientTransform="matrix(-.1 -.26 -3.82 -.05 2537.39 676.29)" xlink:href="#h"/><linearGradient id="co" x1="2226.5" y1="601.23" x2="2272.92" y2="602.05" gradientTransform="matrix(-.1 -.26 -3.82 -.05 2537.39 676.29)" xlink:href="#h"/><linearGradient id="cp" x1="2226.51" y1="601.03" x2="2272.92" y2="601.84" gradientTransform="matrix(-.1 -.26 -3.82 -.05 2537.39 676.29)" xlink:href="#h"/><linearGradient id="cq" x1="2226.51" y1="600.82" x2="2272.92" y2="601.64" gradientTransform="matrix(-.1 -.26 -3.82 -.05 2537.39 676.29)" xlink:href="#h"/><linearGradient id="cr" x1="2226.51" y1="600.61" x2="2272.93" y2="601.43" gradientTransform="matrix(-.1 -.26 -3.82 -.05 2537.39 676.29)" xlink:href="#h"/><linearGradient id="cs" x1="2226.52" y1="600.4" x2="2272.93" y2="601.22" gradientTransform="matrix(-.1 -.26 -3.82 -.05 2537.39 676.29)" xlink:href="#h"/><linearGradient id="ct" x1="2226.52" y1="600.19" x2="2272.93" y2="601.01" gradientTransform="matrix(-.1 -.26 -3.82 -.05 2537.39 676.29)" xlink:href="#h"/><linearGradient id="cu" x1="2226.53" y1="599.99" x2="2272.94" y2="600.8" gradientTransform="matrix(-.1 -.26 -3.82 -.05 2537.39 676.29)" xlink:href="#h"/><linearGradient id="cv" x1="2226.53" y1="599.78" x2="2272.94" y2="600.6" gradientTransform="matrix(-.1 -.26 -3.82 -.05 2537.39 676.29)" xlink:href="#h"/><linearGradient id="cw" x1="2226.53" y1="599.57" x2="2272.95" y2="600.39" gradientTransform="matrix(-.1 -.26 -3.82 -.05 2537.39 676.29)" xlink:href="#h"/><linearGradient id="cx" x1="2226.54" y1="599.29" x2="2272.95" y2="600.11" gradientTransform="matrix(-.1 -.26 -3.82 -.05 2537.39 676.29)" xlink:href="#h"/><linearGradient id="cy" x1="2226.49" y1="602" x2="2272.9" y2="602.82" gradientTransform="matrix(-.1 -.26 -3.82 -.05 2537.39 676.29)" xlink:href="#h"/><linearGradient id="cz" x1="2226.5" y1="601.69" x2="2272.91" y2="602.5" gradientTransform="matrix(-.1 -.26 -3.82 -.05 2537.39 676.29)" xlink:href="#h"/><linearGradient id="da" x1="2226.5" y1="601.48" x2="2272.91" y2="602.3" gradientTransform="matrix(-.1 -.26 -3.82 -.05 2537.39 676.29)" xlink:href="#h"/><linearGradient id="db" x1="2226.5" y1="601.27" x2="2272.92" y2="602.09" gradientTransform="matrix(-.1 -.26 -3.82 -.05 2537.39 676.29)" xlink:href="#h"/><linearGradient id="dc" x1="2226.51" y1="601.06" x2="2272.92" y2="601.88" gradientTransform="matrix(-.1 -.26 -3.82 -.05 2537.39 676.29)" xlink:href="#h"/><linearGradient id="dd" x1="2226.51" y1="600.85" x2="2272.92" y2="601.67" gradientTransform="matrix(-.1 -.26 -3.82 -.05 2537.39 676.29)" xlink:href="#h"/><linearGradient id="de" x1="2226.51" y1="600.65" x2="2272.93" y2="601.46" gradientTransform="matrix(-.1 -.26 -3.82 -.05 2537.39 676.29)" xlink:href="#h"/><linearGradient id="df" x1="2226.52" y1="600.44" x2="2272.93" y2="601.26" gradientTransform="matrix(-.1 -.26 -3.82 -.05 2537.39 676.29)" xlink:href="#h"/><linearGradient id="dg" x1="2226.52" y1="600.23" x2="2272.93" y2="601.05" gradientTransform="matrix(-.1 -.26 -3.82 -.05 2537.39 676.29)" xlink:href="#h"/><linearGradient id="dh" x1="2226.53" y1="600.02" x2="2272.94" y2="600.84" gradientTransform="matrix(-.1 -.26 -3.82 -.05 2537.39 676.29)" xlink:href="#h"/><linearGradient id="di" x1="2226.53" y1="599.81" x2="2272.94" y2="600.63" gradientTransform="matrix(-.1 -.26 -3.82 -.05 2537.39 676.29)" xlink:href="#h"/><linearGradient id="dj" x1="2226.53" y1="599.51" x2="2272.95" y2="600.33" gradientTransform="matrix(-.1 -.26 -3.82 -.05 2537.39 676.29)" xlink:href="#h"/><linearGradient id="dk" x1="2226.49" y1="602.26" x2="2272.9" y2="603.08" gradientTransform="matrix(-.1 -.26 -3.82 -.05 2537.39 676.29)" xlink:href="#h"/><linearGradient id="dl" x1="2226.49" y1="602.02" x2="2272.9" y2="602.84" gradientTransform="matrix(-.1 -.26 -3.82 -.05 2537.39 676.29)" xlink:href="#h"/><linearGradient id="dm" x1="2226.49" y1="601.81" x2="2272.91" y2="602.63" gradientTransform="matrix(-.1 -.26 -3.82 -.05 2537.39 676.29)" xlink:href="#h"/><linearGradient id="dn" x1="2226.5" y1="601.61" x2="2272.91" y2="602.42" gradientTransform="matrix(-.1 -.26 -3.82 -.05 2537.39 676.29)" xlink:href="#h"/><linearGradient id="do" x1="2226.51" y1="600.98" x2="2272.92" y2="601.8" gradientTransform="matrix(-.1 -.26 -3.82 -.05 2537.39 676.29)" xlink:href="#h"/><linearGradient id="dp" x1="2226.52" y1="600.36" x2="2272.93" y2="601.17" gradientTransform="matrix(-.1 -.26 -3.82 -.05 2537.39 676.29)" xlink:href="#h"/><linearGradient id="dq" x1="2226.52" y1="600.15" x2="2272.94" y2="600.97" gradientTransform="matrix(-.1 -.26 -3.82 -.05 2537.39 676.29)" xlink:href="#h"/><linearGradient id="dr" x1="2226.53" y1="599.94" x2="2272.94" y2="600.76" gradientTransform="matrix(-.1 -.26 -3.82 -.05 2537.39 676.29)" xlink:href="#h"/><linearGradient id="ds" x1="2226.53" y1="599.66" x2="2272.94" y2="600.48" gradientTransform="matrix(-.1 -.26 -3.82 -.05 2537.39 676.29)" xlink:href="#h"/><linearGradient id="dt" x1="8.14" y1="55.49" x2="54.55" y2="56.31" xlink:href="#h"/><linearGradient id="du" x1="81.01" y1="71.38" x2="38.3" y2="89.14" xlink:href="#d"/><linearGradient id="dv" x1="26.98" y1="50.67" x2="51.99" y2="64.78" xlink:href="#d"/><linearGradient id="dw" x1="11.6" y1="38.34" x2="21.84" y2="52.72" xlink:href="#ba"/><linearGradient id="dx" x1="19.19" y1="60.06" x2="23.29" y2="60.06" gradientUnits="userSpaceOnUse"><stop offset="0" stop-color="#dbccf4"/><stop offset="1" stop-color="#ccbfde"/></linearGradient><linearGradient id="dy" x1="12.91" y1="36.35" x2="12.91" y2="63.13" xlink:href="#ba"/><linearGradient id="dz" x1="48.63" y1="65.95" x2="62.15" y2="66.03" gradientUnits="userSpaceOnUse"><stop offset="0" stop-color="#3219af"/><stop offset="1" stop-color="#dec9fe"/></linearGradient><linearGradient id="ea" x1="49.94" y1="78.78" x2="57.75" y2="88.18" xlink:href="#bj"/><linearGradient id="eb" x1="38.56" y1="66.16" x2="58.12" y2="84.75" xlink:href="#bj"/><linearGradient id="ec" x1="3028.83" y1="74.86" x2="2986.13" y2="92.62" gradientTransform="matrix(-1 0 0 1 3066 0)" xlink:href="#d"/><linearGradient id="ed" x1="32.84" y1="63.4" x2="59.39" y2="88.64" xlink:href="#bj"/><linearGradient id="ee" x1="36.8" y1="64.72" x2="58.61" y2="102.35" xlink:href="#ba"/><linearGradient id="ef" x1="41.98" y1="67.18" x2="38.71" y2="47.65" xlink:href="#dz"/></defs><path fill="none" d="M0 0h100v100H0z"/><path d="M100 59.14c.27 12.8-3.57 32-50 31.84-31.25-.13-50-8.55-50-31.84S16.41 9 41.11 9 99.5 35.86 100 59.14z" fill="none"/><path fill="url(#d)" d="M87.46 62.42L33.97 48.09V5l53.49 14.33v43.09z"/><path fill="#fff" d="M85.41 39.36L37.92 26.64V8.43l47.49 12.72v18.21zM67.88 54.71l-29.96-8.03V28.47l29.96 8.03v18.21z"/><g mask="url(#e)"><path d="M41.32 21.77c1.44.41 3-3.08 4.62-2.67s3 3.8 4.62 4.25 2.62-6 4.62-5.47 2.87 6 4.62 6.46 2.91 0 4.62.38 2.66 2.84 4.62 3.35l1.63.44V32L40.4 23.85v-2.32z" fill="url(#g)"/></g><path d="M41.32 24.21a.11.11 0 0 1-.11-.11v-3.7a.11.11 0 0 1 .11-.11.11.11 0 0 1 .12.11v3.7a.11.11 0 0 1-.12.11z" fill="#dbccf4"/><path fill="#32007d" d="M42.09 25.44l-1.53-.4v.73l1.53.41v-.74z"/><path d="M45.94 25.45a.11.11 0 0 1-.11-.11v-9a.11.11 0 0 1 .11-.12.12.12 0 0 1 .12.12v9.05a.11.11 0 0 1-.12.06z" fill="#dbccf4"/><path fill="#32007d" d="M46.71 26.68l-1.53-.41V27l1.53.41v-.73z"/><path d="M50.56 26.69a.11.11 0 0 1-.11-.12v-3.69a.11.11 0 1 1 .22 0v3.69a.11.11 0 0 1-.11.12z" fill="#dbccf4"/><path fill="#32007d" d="M51.33 27.92l-1.53-.41v.73l1.53.41v-.73z"/><path d="M55.18 27.92a.11.11 0 0 1-.11-.11v-9a.11.11 0 1 1 .22 0v9a.11.11 0 0 1-.11.11z" fill="#dbccf4"/><path fill="#32007d" d="M55.95 29.16l-1.53-.41v.73l1.53.41v-.73z"/><path d="M59.8 29.16a.11.11 0 0 1-.11-.11v-3.7a.11.11 0 1 1 .22 0v3.7a.11.11 0 0 1-.11.11z" fill="#dbccf4"/><path fill="#32007d" d="M60.56 30.39l-1.52-.41v.74l1.52.41v-.74z"/><path d="M64.42 30.4a.11.11 0 0 1-.11-.11v-9a.11.11 0 1 1 .22 0v9.05a.11.11 0 0 1-.11.06z" fill="#dbccf4"/><path fill="#32007d" d="M65.18 31.63l-1.52-.41v.73l1.52.41v-.73z"/><path d="M69 31.64a.11.11 0 0 1-.11-.12v-3.69a.11.11 0 1 1 .22 0v3.69a.11.11 0 0 1-.11.12z" fill="#dbccf4"/><path fill="#32007d" d="M69.8 32.87l-1.53-.41v.73l1.53.41v-.73z"/><path d="M40.4 21.53a.25.25 0 0 1-.16-.24c0-.11.07-.17.16-.15l.92.24c.62.16 1.33-.55 2-1.25s1.66-1.66 2.58-1.43c.88.24 1.65 1.23 2.4 2.2s1.43 1.84 2.19 2 1.32-1.17 1.93-2.49c.76-1.62 1.54-3.29 2.69-3s1.89 2 2.62 3.54c.64 1.4 1.24 2.72 2 2.92a7.83 7.83 0 0 0 2.34.2 8.73 8.73 0 0 1 2.27.18A5 5 0 0 1 66.67 26 5.58 5.58 0 0 0 69 27.68l1.63.44a.25.25 0 0 1 .17.24.14.14 0 0 1-.17.15L69 28.07a5.78 5.78 0 0 1-2.53-1.82 4.61 4.61 0 0 0-2.06-1.52 8.46 8.46 0 0 0-2.2-.17 8.43 8.43 0 0 1-2.42-.21c-.94-.25-1.59-1.68-2.28-3.18s-1.39-3-2.33-3.28-1.71 1.39-2.38 2.84-1.34 2.87-2.24 2.63-1.66-1.24-2.41-2.2-1.42-1.84-2.18-2c-.78-.19-1.58.6-2.34 1.37s-1.5 1.51-2.27 1.3l-.92-.24z" fill="url(#h)"/><path fill="#fff" d="M85.41 41.19l-15.78-4.22v18.2l15.78 4.23V41.19z"/><path fill="#32007d" d="M77.54 24.9l-3.02-.81v.39l3.02.81v-.39zm0 1.08l-3.02-.82v.39l3.02.81v-.38zm0-2.16l-3.02-.8v.38l3.02.81v-.39zm-1.95 2.71l-1.07-.29v.39l1.07.29v-.39z"/><path d="M79 27.94a.11.11 0 0 1-.11-.12v-3.61a.11.11 0 1 1 .22 0v3.61a.11.11 0 0 1-.11.12z" fill="#dbccf4"/><path d="M81.62 24.92a1.26 1.26 0 0 0-1.57 1.38 2.38 2.38 0 0 0 1.57 2.23c.86.23 1.57-.39 1.57-1.39a2.37 2.37 0 0 0-1.57-2.22zm0 3.19a1.82 1.82 0 0 1-1.2-1.71c0-.76.54-1.24 1.2-1.06a1.82 1.82 0 0 1 1.2 1.71c0 .76-.54 1.24-1.2 1.06z" fill="#32007d"/><path d="M83.19 30.46l-8.67-2.33a.11.11 0 0 1-.08-.13.11.11 0 0 1 .14-.08l8.66 2.32a.11.11 0 0 1 .08.14.1.1 0 0 1-.13.08z" fill="#dbccf4"/><path d="M82.82 27.05a1.08 1.08 0 0 1-.48 1 .19.19 0 0 0 0 .25c.06.12.18.19.26.13a1.4 1.4 0 0 0 .64-1.28A2.4 2.4 0 0 0 81.82 25c-.11 0-.2 0-.2.14a.27.27 0 0 0 .16.24 1.87 1.87 0 0 1 1.04 1.67z" fill="url(#i)"/><path fill="url(#j)" d="M74.75 33.05l-.16-.04v-.96l.16.04v.96zm.28.08l-.17-.05v-.96l.17.04v.97zm.27.07l-.17-.04v-.97l.17.05v.96z"/><path fill="url(#m)" d="M75.57 33.27l-.16-.04v-.96l.16.04v.96zm.27.08l-.16-.05v-.96l.16.04v.97z"/><path fill="url(#o)" d="M76.11 33.42l-.16-.04v-.97l.16.05v.96zm.28.07l-.17-.04v-.97l.17.05v.96zm.27.07l-.17-.04v-.96l.17.04v.96zm.27.08l-.16-.05v-.96l.16.04v.97z"/><path fill="url(#m)" d="M77.2 33.71l-.16-.04v-.97l.16.05v.96zm.27.07l-.16-.04v-.96l.16.04v.96zm.28.08l-.17-.05v-.96l.17.04v.97zm.27.07l-.17-.04v-.97l.17.05v.96zm.27.07l-.16-.04v-.97l.16.05V34zm.27.08l-.16-.05v-.96l.16.04v.97zm.27.07l-.16-.05v-.96l.16.04v.97zm.28.07l-.17-.04v-.97l.17.05v.96zm.27.07l-.17-.04v-.96l.17.04v.96zm.27.08l-.16-.05v-.96l.16.04v.97zm.27.07l-.16-.04v-.97l.16.05v.96z"/><path fill="url(#ad)" d="M80.19 34.51l-.16-.04v-.96l.16.04v.96zm.28.08l-.17-.05v-.96l.17.04v.97z"/><path fill="url(#af)" d="M80.74 34.66l-.17-.04v-.97l.17.04v.97zm.27.07l-.16-.04v-.97l.16.05v.96z"/><path fill="#32007d" d="M81.28 34.8l-.16-.04v-.96l.16.04v.96zm.27.08l-.16-.05v-.96l.16.04v.97zm.28.07l-.17-.04v-.97l.17.05v.96zm.27.07l-.17-.04v-.96l.17.04v.96zm.27.08l-.16-.05v-.96l.16.04v.97zm.27.07l-.16-.04v-.97l.16.04v.97zm.27.07l-.16-.04v-.97l.16.05v.96zm.28.07l-.17-.04v-.96l.17.04v.96z"/><path fill="#3219af" d="M81.14 35.82l-.21-.66-.22.55-.55-.15v1.24l1.53.4v-1.23l-.55-.15z"/><path d="M50.84 35.9l-4.28-1.15a.11.11 0 0 1-.08-.14.11.11 0 0 1 .13-.08l4.28 1.15a.11.11 0 0 1 .08.14.11.11 0 0 1-.13.08zm0 3.77l-9.37-2.51a.12.12 0 0 1-.08-.14.12.12 0 0 1 .14-.08l9.36 2.51a.11.11 0 0 1 .08.14.11.11 0 0 1-.13.08zm0 3.78l-7-1.86a.12.12 0 0 1-.08-.14.11.11 0 0 1 .14-.08l7 1.87a.1.1 0 0 1 .08.13.11.11 0 0 1-.14.08zm0 3.77l-4.28-1.15a.11.11 0 0 1-.08-.14.09.09 0 0 1 .13-.07L50.87 47a.11.11 0 0 1 .08.14.11.11 0 0 1-.11.08z" fill="#dbccf4"/><path d="M36.34 23.94a.56.56 0 0 0-.37-.52c-.2-.06-.37.09-.37.32a.57.57 0 0 0 .37.53.3.3 0 0 0 .37-.33z" fill="#32007d"/><ellipse cx="35.97" cy="19.29" rx=".34" ry=".46" transform="rotate(-26.47 35.958 19.293)" fill="#32007d"/><path d="M36.34 14.83a.57.57 0 0 0-.37-.52.3.3 0 0 0-.37.33.56.56 0 0 0 .37.52c.2.06.37-.09.37-.33z" fill="#32007d"/><path fill="#a37de3" d="M33.97 11.93l.34.08V7.46l-.34-.09v4.56zm2.37-1.65a.56.56 0 0 0-.34-.52c-.2-.06-.37.09-.37.32a.57.57 0 0 0 .37.53.3.3 0 0 0 .34-.33z"/><path d="M36.34 10.28a.56.56 0 0 0-.34-.52c-.2-.06-.37.09-.37.32a.57.57 0 0 0 .37.53.3.3 0 0 0 .34-.33z" fill="#a37de3"/><path d="M47.05 35l-6.62-1.8a.28.28 0 0 1-.19-.25.15.15 0 0 1 .19-.15l6.62 1.77a.29.29 0 0 1 .2.25.15.15 0 0 1-.2.18z" fill="url(#ah)"/><path d="M42.11 37.42L40.43 37a.28.28 0 0 1-.19-.25.15.15 0 0 1 .19-.15l1.68.45a.29.29 0 0 1 .2.26.15.15 0 0 1-.2.11z" fill="url(#ai)"/><path d="M44.38 41.8l-4-1a.29.29 0 0 1-.19-.26.14.14 0 0 1 .19-.14l4 1.06a.27.27 0 0 1 .2.25.15.15 0 0 1-.2.09z" fill="url(#aj)"/><path d="M48.68 46.73l-8.25-2.21a.28.28 0 0 1-.19-.25.15.15 0 0 1 .19-.15l8.25 2.21a.28.28 0 0 1 .2.25.15.15 0 0 1-.2.15z" fill="url(#ak)"/><path fill="#32007d" d="M43.2 32.05l-2.96-.79v.73l2.96.8v-.74zm34.31-1.82l-2.96-.79v.73l2.96.8v-.74zm-34.31 5.6l-2.96-.79v.73l2.96.79v-.73zm0 3.77l-2.96-.79v.73l2.96.79v-.73zm0 3.78l-2.96-.8v.73l2.96.8v-.73z"/><path d="M53.17 48.19a.11.11 0 0 1-.11-.12V34.7a.11.11 0 0 1 .22 0v13.37a.11.11 0 0 1-.11.12z" fill="#dbccf4"/><path fill="#32007d" d="M60.14 42.23l.64.17v-.73l-.64-.17v.73zm1.64.44l.63.17v-.73l-.63-.17v.73z"/><path fill="url(#al)" d="M63.42 43.11l.63.17v-.73l-.63-.17v.73zm1.64.44l.63.17v-.74l-.63-.16v.73z"/><path fill="#32007d" d="M55.23 42.8l.63.17v-.74l-.63-.17v.74zm1.64.43l.63.18v-.74l-.63-.17v.73zm1.64.44l.63.17v-.73l-.63-.17v.73zm1.63.44l.64.17v-.73l-.64-.17v.73zm1.64.44l.63.17v-.73l-.63-.17v.73z"/><path fill="url(#an)" d="M63.42 44.99l.63.17v-.73l-.63-.17v.73zm1.64.44l.63.17v-.73l-.63-.17v.73z"/><path fill="#32007d" d="M55.23 44.68l.63.17v-.73l-.63-.17v.73z"/><path fill="url(#ap)" d="M56.87 45.12l.63.17v-.73l-.63-.17v.73z"/><path fill="#32007d" d="M58.51 45.56l.63.17v-.74l-.63-.16v.73zm1.63.43l.64.17v-.73l-.64-.17v.73zm1.64.44l.63.17v-.73l-.63-.17v.73z"/><path fill="url(#ap)" d="M63.42 46.87l.63.17v-.73l-.63-.17v.73zm1.64.44l.63.17v-.73l-.63-.17v.73z"/><path fill="#32007d" d="M55.23 46.56l.63.17V46l-.63-.17v.73zm1.64.44l.63.17v-.73l-.63-.17V47zm1.64.44l.63.17v-.73l-.63-.17v.73zm1.63.44l.64.17v-.74l-.64-.16v.73zm1.64.43l.63.17v-.73l-.63-.17v.73z"/><path fill="url(#as)" d="M63.42 48.75l.63.17v-.73l-.63-.17v.73zm1.64.44l.63.17v-.73l-.63-.17v.73z"/><path fill="#32007d" d="M55.23 48.44l.63.17v-.73l-.63-.17v.73zm1.64.44l.63.17v-.73l-.63-.17v.73zm1.64.44l.63.17v-.73l-.63-.17v.73zm1.63.44l.64.17v-.73l-.64-.17v.73zm1.64.44l.63.17v-.73l-.63-.17v.73zm-3.53-14.18l-3.02-.81v.39l3.02.81v-.39zm0 1.07l-3.02-.81v.39l3.02.81v-.39zm-1.95.55l-1.07-.28v.39l1.07.28v-.39zm18.31 2.83l-3.13-.84v.73l3.13.84v-.73z"/><path fill="#ccbfde" d="M71.83 52.89l-.35-.09V42.72l.35.09v10.08zm2.86.77l-.35-.1V43.49l.35.09v10.08zm2.86.76l-.34-.09V44.25l.34.09v10.08zm2.86.77l-.34-.09V45.02l.34.09v10.08zm2.87.76l-.35-.09V45.79l.35.09v10.07z"/><path d="M71.4 45.76v-1.83a.19.19 0 0 1 .25-.19.36.36 0 0 1 .26.33v1.82a.19.19 0 0 1-.26.19.35.35 0 0 1-.25-.32z" fill="url(#au)"/><path d="M74.26 51v-3.43a.19.19 0 0 1 .26-.19.35.35 0 0 1 .25.32v3.39a.19.19 0 0 1-.25.19.36.36 0 0 1-.26-.28z" fill="url(#av)"/><rect x="79.98" y="47.31" width=".52" height="2.98" rx=".26" ry=".26" fill="url(#aw)"/><path d="M82.85 50.73v-1a.19.19 0 0 1 .25-.19.36.36 0 0 1 .26.33v1a.19.19 0 0 1-.26.19.36.36 0 0 1-.25-.33z" fill="url(#ax)"/><path d="M77.12 52.39V45.6a.19.19 0 0 1 .26-.18.35.35 0 0 1 .26.32v6.79a.2.2 0 0 1-.26.19.37.37 0 0 1-.26-.33z" fill="url(#ay)"/><path fill="#3219af" d="M54.97 16.51l.21.66.22-.55.55.15v-1.24l-1.53-.4v1.23l.55.15z"/><path fill="#a37de3" d="M68.82 26.13l.22.66.21-.55.55.15v-1.24l-1.53-.41v1.24l.55.15z"/><path d="M94.58 79.53a1.68 1.68 0 0 1-.56 2.7c-1 .62-3.47 2.75-4.26 2.15-.29-.22.47-.65.85-1.15a11.41 11.41 0 0 0 1.5-2.41c.23-.74.42-1.28.42-1.28z" fill="#e9e0f8"/><path d="M92 83.49c.19 1.14.28 2.16-.71 2.81s-3.72 2.42-4.87 1.23c-.7-.71 2.37-1.81 2.6-2.55a2.49 2.49 0 0 0 0-1.38z" fill="#e9e0f8"/><path d="M90.05 31.34c-.48 2 1.07-2.84 3.63-.23 1.28 1.3 2.12.73 2.17 2.86s1.19 1.52 1.54 3.27-.61 1.6-.39 2.76 1.35 1.48 1.11 3.13c-.16 1.07-.75 1.27-1 2.42-.51 2.13.69 2.37 1.19 4.44.75 3-2.8 5.86-4.87 2.81s0-10.16 0-10.16z" fill="url(#az)"/><path d="M85.1 53.82c.13 9.11-.23 12.51 2 15.71 1.93 2.81 4.82 12.18 4.82 12.18l4-2.14S91.94 67.3 92.1 64.51s-2.77-12.84-2.77-12.84l-4.08-2.28s-.16 3.32-.15 4.43z" fill="url(#ba)"/><path d="M86.88 51.26c.3 4.75-1 15.25-.61 18.54s1.87 14.37 1.87 14.37l4.56-.31s-.26-11.43-.7-14.17c-.2-1.21 2.38-8.29 2.47-11.63.14-5.06-1.36-4.52-1.25-8s-6.34 1.2-6.34 1.2z" fill="url(#bb)"/><path d="M88.09 38.08c1.37.3 1.92.36 2.18-.15s-.43-1.17-.43-1.17 1.65.33 3 .44c0 0-.35 1.88.12 2.34a15.08 15.08 0 0 0 1.83 1.26l-2 1.05-4.65-1.62zm-2.83 4.6c0-1.07-.05-1.19-.34-1.22s-6.13-1.15-6.59-1.94-3.4-7.6-3.76-7.93-1.22-1.39-1.2-1.76.62.49.87.49c0 0-.25-.82-.35-1.36-.2-1 .54-1.95 1.24-.36a4.5 4.5 0 0 1 .55 2.4c0 .86 4 7.25 4 7.25l7.3-.38.18 3.38z" fill="#c199fd"/><path d="M87 37.82a11.43 11.43 0 0 1-1.93 4.89 66 66 0 0 0-.42 7.29c-.06 1.73 1.83 2.18 3.76 1.42s4.37 1.58 5.59.16 3.41-8.65 1.82-10.1l-1.1-.68s-4 .33-5.64-1a3.35 3.35 0 0 1-1-1.69z" fill="#fff"/><path d="M86.88 48.34a.19.19 0 0 0-.19-.2.2.2 0 0 0-.2.18.19.19 0 0 0 .19.2.18.18 0 0 0 .2-.18z" fill="#b99cea" opacity=".2"/><path fill="#540dcb" d="M82.27 43.66l2.24 8.21 5.01 2.1-1.84-7.91-5.41-2.4z"/><path d="M95.75 46.13a7.6 7.6 0 0 0 .25-4.32s-.26-.35-1.46.72A5.85 5.85 0 0 0 93 45.3s-1.4 4.82-2 4.64c-3.43-1.07-5.82-1.19-6.28-1.73s-1.15-.37-1.45-.64l-.29-1.06a2.63 2.63 0 0 0-.45.37c-.57.64.45 2.6 1.23 2.85s1 .05 1.49.27c2.23 1 6.18 2.49 6.83 2.34 1.92-.44 3.67-6.21 3.67-6.21z" fill="#c199fd"/><path d="M83.9 47.86c-.22-.47-.46-1.15-.29-1.34s.36.39.65.86.83 1.15.83 1.15z" fill="#c199fd"/><path d="M88.68 41.53a.19.19 0 0 0-.19-.2.18.18 0 0 0-.2.18.19.19 0 0 0 .19.2.2.2 0 0 0 .2-.18zM87.59 43a.2.2 0 0 0-.19-.2.2.2 0 0 0 0 .39.2.2 0 0 0 .19-.19zm-.54 1.81a.19.19 0 0 0-.18-.2.19.19 0 1 0 .18.2z" fill="#32007d"/><path d="M89.53 32.36a2.15 2.15 0 0 0-.34 1.5 1.52 1.52 0 0 1-.11 1c-.32.57-.06.53 0 .85s-.17 1.26.57 1.63a5.92 5.92 0 0 0 3 .1 3.92 3.92 0 0 0 1.91-4.06c-.27-2.03-3.44-3.51-5.03-1.02z" fill="#c199fd"/><path d="M90.78 31c-1.42.24-1.83.75-1.86 1.84s1.42.89 2.38 1.34c.51.25.52.74.78.95.63.51.69 2.28.69 2.28l1.59-.11 1.09-4-2.09-2.2z" fill="url(#bc)"/><path d="M91.57 35.13c.67-.73 1.21-.67 1.44-.21s-.7 1-.7 1z" fill="#c199fd"/><path fill="#540dcb" d="M74.8 32.12l.24.53 1.09-.55-.26-.51-1.07.53z"/><path d="M76.13 31.81c.09.22.05.45-.1.5s-.32-.08-.41-.3 0-.45.1-.51.33.08.41.31z" fill="#a37de3"/><path d="M87.72 86.54a.11.11 0 0 1-.07 0c-.22-.2-.49-.58-.38-.81 0-.06.1-.15.29-.13a3 3 0 0 1 .62.2 4 4 0 0 0 1 .3.7.7 0 0 0-.09-.17c-.42-.61-.58-.84-.46-1s.27-.08.75.13a.11.11 0 0 1 .06.15.12.12 0 0 1-.15.06 1.92 1.92 0 0 0-.46-.17 5 5 0 0 0 .45.69c.08.13.18.31.08.44s-.59 0-1.29-.23a4 4 0 0 0-.57-.19h-.06s.09.34.33.55a.11.11 0 0 1-.08.2zM93.56 56h-.07a21.58 21.58 0 0 1-3.41-2.8.11.11 0 0 1 0-.16.11.11 0 0 1 .15 0 21.8 21.8 0 0 0 3.36 2.75.11.11 0 0 1 0 .15.12.12 0 0 1-.03.06z" fill="#4b00c8"/><path d="M87.52 45.58a.13.13 0 0 1-.1-.13A6.13 6.13 0 0 1 89 41.92a3.13 3.13 0 0 0 .36-.46c.14-.27-.45-.89-.93-1.4a5.73 5.73 0 0 1-.78-.94.11.11 0 0 1 0-.15.12.12 0 0 1 .16 0 5.51 5.51 0 0 0 .75.9c.6.64 1.17 1.25 1 1.66a2.62 2.62 0 0 1-.38.49 6 6 0 0 0-1.58 3.42.12.12 0 0 1-.08.14z" fill="#dbccf4"/><path d="M12 79.11a2.46 2.46 0 0 1-.6-.07L3.6 77a.7.7 0 0 1-.51-.67.68.68 0 0 1 .51-.66l6.57-1.76a6.43 6.43 0 0 1 3.26 0v-4.33a2.78 2.78 0 0 0-2.06-2.68l-6.44-1.74a1.3 1.3 0 0 1 0-2.49L12 60.45a.36.36 0 0 1 .27 0l8.73 3.8a3.58 3.58 0 0 1 2.57 3.43v6.7a2.28 2.28 0 0 1-2.84 2.19l-6.45-1.69v2A2.27 2.27 0 0 1 12 79.11zm-7.83-2.83l7.44 2a1.48 1.48 0 0 0 1.28-.28 1.46 1.46 0 0 0 .58-1.17v-2.16l-.24-.06a5.62 5.62 0 0 0-2.85 0zm10.09-2.21l6.65 1.74a1.48 1.48 0 0 0 1.27-.26 1.46 1.46 0 0 0 .58-1.17v-6.7a2.77 2.77 0 0 0-2-2.68h-.05l-8.6-3.74-7 2.18a.51.51 0 0 0 0 1l6.48 1.74a3.56 3.56 0 0 1 2.65 3.44z" fill="#e9e0f8"/><path d="M18.25 60c-2.33-.62-4.56-1.13-4.13-3.86 0 0 .49-3.53.56-4.68a70 70 0 0 0-.9-8.6 2 2 0 0 0-1-1.58l-.7-.28-7.79 1.89-1.17 1.17.18 5.71.76 5.57L3 59.87l1 3.17 8.72 2.59 10.43-2.84a.73.73 0 0 0 0-1.4z" fill="#fff"/><path fill="url(#bd)" d="M22.96 65.35l-.21.06.21-.06z"/><path d="M23.74 64.33v-1.69l-.52.14-.7 2.68.23-.06.22-.06a1.05 1.05 0 0 0 .77-1.01z" fill="url(#be)"/><path d="M23.21 62.78l-6.89 1.84a9 9 0 0 1-4.73 0l-5.3-1.41a3.68 3.68 0 0 1-2.59-4.28c.2-1.16.49-3.53.56-4.68a70 70 0 0 0-.9-8.6 2.38 2.38 0 0 1 1.73-2.75l6.38-1.73a1.82 1.82 0 0 1 1.56.3 2.33 2.33 0 0 0-2.18-.54l-.72.2-5.32 1.42a3.29 3.29 0 0 0-2.31 3s.8 6.34.5 8.45a35 35 0 0 1-1.05 4.24 5.62 5.62 0 0 0 3.75 7.27l5.87 1.62a9.16 9.16 0 0 0 4.79 0l6.39-1.71.22-.06a1.05 1.05 0 0 0 .78-1v-2.28a.72.72 0 0 1-.54.7z" fill="#e9e0f8"/><path d="M15.68 43.48l-.39-.28a1.19 1.19 0 0 0 .07.55s.32.53.32.51z" fill="#e1d4f6"/><path d="M33 84c-1.22.79-5.91.25-5.91.25-2.47 0-2.81-.19-3-1.19A4.28 4.28 0 0 1 24 82c0-.38.05-.67.05-.67l3.65.28s3.2.83 4 1c1.84.39 2.15.84 1.3 1.39z" fill="#540dcb"/><path d="M27 81c.46.5 1.16.79 1 .83-.62.14-3.89.1-3.84-.77.09-1.81-.42-1.83-.43-1.68z" fill="#fff"/><path d="M23.56 80.5c-1.72 0-7.47-3.1-6.88-4.88.23-.68 1.54-1.33 1.54-1.33l2.38 2.29s1.81 2.13 2.58 2.38 3.55 1.56.38 1.54z" fill="#540dcb"/><path d="M20.72 74.87a1.55 1.55 0 0 0 .09 1.95c.44.58-3.28-1.79-2.45-2.57.16-.14.68-.53.68-.53z" fill="#fff"/><path d="M17 37.31c-.28 1.33 0 2.58-.36 3.74-.19.7-.19 1.4-1.35 1.33a3.35 3.35 0 0 1-2.56-1 2.38 2.38 0 0 1-.42-3.38c1.14-1.61 4.41-1.78 4.41-1.78z" fill="#c199fd"/><path d="M15.68 42a5.57 5.57 0 0 0 0 2.18c.2.51-.83 1.87-2.6 1.26A2 2 0 0 1 12 42.85l1-1.75z" fill="#c199fd"/><path d="M16.85 36.21c1.2 0 .8 1.72-.1 1.67-1.59-.1-1.61 1.23-2.78 1.47s-1.08 2.18-1.08 2.18-.52.94-.84.63a8.61 8.61 0 0 1-1.46-3.52 3.31 3.31 0 0 1 .53-1.8c.12-.2.27-.12.29-.2.19-1 1.24-1.33 2.57-1.35 1.75-.03 1.58.91 2.87.92z" fill="#540dcb"/><path d="M15.46 56c3.29.82 10.85 2 11.62 4.47s-4 12.94-5.49 15c0 0-1.84-1.07-3.21-1.75L21.71 63l-10.28-4.74 1.27-3.54A18.18 18.18 0 0 0 15.46 56z" fill="url(#bf)"/><path d="M13 58.07s9.6 3.41 10.8 4.86 3.59 18 3.59 18l-4.29.6s-3.73-12.88-4-14c-.55-2.43-8.1-3.52-10.32-4.45a3.83 3.83 0 0 1-2.47-2.74L11.56 58z" fill="url(#bg)"/><path d="M13.32 40c-.27-.61-.65-.65-.92-.27s.48 1.34.48 1.34z" fill="#c199fd"/><path d="M15.91 44.1l.59.5s-1.49 4.55-1 7.75 2.46 4.2.42 5.74-2.45 0-3.73.55a6.06 6.06 0 0 1-4 .17c-1.6-.36 3-14.71 3-14.71l2.66 1.42z" fill="#fff"/><path d="M14.18 45.76l.15-.7.74 1.37s-.52-.43-.89-.67zm-.74-.72l-.11.76-1.38.47 1.49-1.23z" fill="#e1d4f6"/><path d="M14.49 45.39c-.06-.11-.26-.29-.36-.26-.62.19-.76 0-1 .11s-.14.71 0 1a.22.22 0 0 0 .1.11c.3.08.67.2.75.12s.62-.92.51-1.08z" fill="#3219af"/><path d="M13.44 45L12 46.27a3.87 3.87 0 0 1-.74-1.35 3 3 0 0 1 0-2.24l.79-.36s.16.4.48 1.16a4.4 4.4 0 0 0 .91 1.52zm.89.06l.74 1.37s1.27-1.51 1.18-2.26l-.57-.69c.1.67-.68 1.2-1.35 1.58z" fill="#fff"/><path d="M15.36 46.33c-.75 2.25-1.4 5.32-.9 7.69s5.95 5.27 5.95 5.27a12.31 12.31 0 0 0-2.14-2.83c-.64-.43-2-.33-2-4a21.83 21.83 0 0 1 1.31-5.74l-.44-1.89-.94-.78s-.67 1.75-.84 2.28z" fill="url(#bh)"/><path d="M11.55 47.19c-.43 8.12-2.11 19.61-2.11 19.61s-4.71-2.06-5.2-4.16S5.71 47.16 7.42 45a5.78 5.78 0 0 1 3.79-2.31 29.72 29.72 0 0 1 .34 4.5z" fill="url(#bi)"/><path d="M13.28 46.2a22.39 22.39 0 0 0-.9 8.64s1.16 1.26 1.13 1.16.6-1.79.6-1.79a26.57 26.57 0 0 1-.11-7.78z" fill="#3219af"/><path d="M37.75 75.69c.37 1.61 1 3.06 5 1.49a54.32 54.32 0 0 0 6.9-3.3l3.35-2.3a5.49 5.49 0 0 0-1.89-1.08c-1.35-.5-2.59-.13-4.41.36s-7.41 1.76-7.41 1.76z" fill="url(#bj)"/><path d="M76.1 63.09L34.52 52a3.88 3.88 0 0 0-2 0L8.74 58.31l-1.45-.48v1.32a.58.58 0 0 0 .43.57l42.84 11.47a3.88 3.88 0 0 0 2 0l25.26-6.76a.44.44 0 0 0 .33-.44v-1.32z" fill="#e9e0f8"/><path d="M50.56 70L7.72 58.48a.58.58 0 0 1 0-1.13l24.77-6.64a3.88 3.88 0 0 1 2 0l43.36 11.61a.45.45 0 0 1 0 .87L52.59 70a4.1 4.1 0 0 1-2.03 0z" fill="#fff"/><path d="M35.46 56.61v-.54l-.42.17-5.49-1.47a3.29 3.29 0 0 0-1.76 0l-9.11 2.44-.2-.23v.49a.29.29 0 0 0 .22.29l5.69 1.53a3.54 3.54 0 0 0 1.77 0l9.1-2.44a.28.28 0 0 0 .22-.25z" fill="#e9e0f8"/><path d="M18.68 57.26l5.69 1.53a3.54 3.54 0 0 0 1.77 0l9.1-2.44a.3.3 0 0 0 0-.57l-5.69-1.52a3.29 3.29 0 0 0-1.76 0l-9.11 2.44a.29.29 0 0 0 0 .56z" fill="#fff"/><path d="M24.33 58.57h-.08c-.1 0-.11 0 0-.07l.31-.09a.66.66 0 0 1 .24 0h.08c.1 0 .11 0 0 .07l-.31.09a.66.66 0 0 1-.24 0z" fill="url(#bk)"/><path d="M25 58.39h-.09c-.1 0-.11 0 0-.08l.3-.08h.33c.1 0 .11 0 0 .07l-.3.08a.49.49 0 0 1-.24.01z" fill="url(#bl)"/><path d="M25.68 58.21h-.08c-.1 0-.11-.06 0-.08l.31-.08h.32c.1 0 .11.06 0 .08l-.31.08a.64.64 0 0 1-.24 0z" fill="url(#bm)"/><path d="M26.36 58h-.08c-.11 0-.12-.06 0-.08l.3-.08a.65.65 0 0 1 .24 0h.09c.1 0 .11.05 0 .08l-.31.08z" fill="url(#bn)"/><path d="M27 57.84h-.09c-.1 0-.11 0 0-.07l.31-.09a.66.66 0 0 1 .24 0h.08c.1 0 .12.05 0 .07l-.3.09a.65.65 0 0 1-.24 0z" fill="url(#bo)"/><path d="M27.71 57.66h-.08c-.1 0-.11 0 0-.08l.31-.08h.32c.1 0 .11.05 0 .07l-.31.08a.49.49 0 0 1-.24.01z" fill="url(#bp)"/><path d="M28.39 57.48h-.09c-.1 0-.11-.06 0-.08l.3-.08h.33c.1 0 .11.06 0 .08l-.3.08a.65.65 0 0 1-.24 0z" fill="url(#bq)"/><path d="M29.06 57.3h-.08c-.1 0-.11-.06 0-.08l.31-.08a.65.65 0 0 1 .24 0h.08c.1 0 .11 0 0 .08l-.31.08a1 1 0 0 1-.24 0z" fill="url(#br)"/><path d="M29.74 57.11h-.08c-.11 0-.12-.05 0-.07l.3-.09a.65.65 0 0 1 .24 0h.09c.1 0 .11 0 0 .07l-.31.09a.66.66 0 0 1-.24 0z" fill="url(#bs)"/><path d="M30.42 56.93h-.09c-.1 0-.11 0 0-.08l.31-.08a.66.66 0 0 1 .24 0h.08c.11 0 .12 0 0 .07l-.3.09a.65.65 0 0 1-.24 0z" fill="url(#bt)"/><path d="M31.09 56.75h-.08c-.1 0-.11-.06 0-.08l.31-.08h.32c.1 0 .11.06 0 .08l-.31.08a.65.65 0 0 1-.24 0z" fill="url(#bu)"/><path d="M31.77 56.57h-.09c-.1 0-.11-.06 0-.08l.3-.08a.65.65 0 0 1 .24 0h.09c.1 0 .11.06 0 .08l-.3.08z" fill="url(#bv)"/><path d="M32.44 56.38h-.08c-.1 0-.11 0 0-.07l.31-.09a.66.66 0 0 1 .24 0h.08c.1 0 .11.05 0 .08l-.31.08a.66.66 0 0 1-.24 0z" fill="url(#bw)"/><path d="M33.12 56.2h-.08c-.1 0-.12 0 0-.07l.3-.09a.65.65 0 0 1 .24 0h.09c.1 0 .11.05 0 .07l-.31.09a.66.66 0 0 1-.24 0z" fill="url(#bx)"/><path d="M23.82 58.45l-.37-.09c-.1 0-.11-.06 0-.08l.31-.08a1 1 0 0 1 .24 0l.37.09c.1 0 .11.06 0 .08l-.31.08z" fill="url(#by)"/><path d="M24.5 58.27l-.37-.1c-.1 0-.11-.05 0-.07l.31-.08a.49.49 0 0 1 .24 0l.36.09c.11 0 .12 0 0 .08l-.3.08z" fill="url(#bz)"/><path d="M25.17 58.08L24.8 58c-.1 0-.11-.05 0-.07l.3-.09a.66.66 0 0 1 .24 0l.37.09c.1 0 .11 0 0 .07l-.31.09a.66.66 0 0 1-.23-.01z" fill="url(#ca)"/><path d="M25.85 57.9l-.37-.09c-.1 0-.11-.05 0-.08l.31-.08H26l.37.09c.1 0 .11.06 0 .08l-.3.08a.49.49 0 0 1-.22 0z" fill="url(#cb)"/><path d="M26.52 57.72l-.36-.09c-.11 0-.12-.06 0-.08l.3-.08h.24l.37.09c.1 0 .11.06 0 .08l-.31.08z" fill="url(#cc)"/><path d="M27.2 57.54l-.37-.09c-.1 0-.11-.06 0-.08l.31-.08a.49.49 0 0 1 .24 0l.37.09c.1 0 .11 0 0 .08l-.31.08z" fill="url(#cd)"/><path d="M27.88 57.35l-.37-.09c-.1 0-.11 0 0-.07l.31-.09a.66.66 0 0 1 .24 0l.36.09c.11 0 .12 0 0 .07l-.3.09a.65.65 0 0 1-.24 0z" fill="url(#ce)"/><path d="M28.55 57.17l-.37-.09c-.1 0-.11 0 0-.08l.3-.08a1 1 0 0 1 .24 0l.37.09c.1 0 .11.06 0 .08l-.31.08a.49.49 0 0 1-.23 0z" fill="url(#cf)"/><path d="M29.23 57l-.37-.09c-.1 0-.11-.06 0-.08l.31-.08a1 1 0 0 1 .24 0l.37.09c.1 0 .11.06 0 .08l-.3.08z" fill="url(#cg)"/><path d="M29.9 56.81l-.36-.09c-.1 0-.12-.06 0-.08l.3-.08a.49.49 0 0 1 .24 0l.37.09c.1 0 .11.05 0 .08l-.31.08z" fill="url(#ch)"/><path d="M30.58 56.62l-.37-.09c-.1 0-.11-.05 0-.07l.31-.09a.66.66 0 0 1 .24 0l.37.09c.1 0 .11.05 0 .07l-.31.09a.66.66 0 0 1-.24 0z" fill="url(#ci)"/><path d="M31.26 56.44l-.37-.09c-.1 0-.11-.05 0-.08l.31-.08h.24l.36.1c.11 0 .12.05 0 .07l-.3.08a.49.49 0 0 1-.24 0z" fill="url(#cj)"/><path d="M31.94 56.26l-.37-.09c-.1 0-.11-.06 0-.08l1-.26a.65.65 0 0 1 .24 0l.37.09c.1 0 .11 0 0 .08l-1 .26a1 1 0 0 1-.24 0z" fill="url(#ck)"/><path d="M23 58.23l-.37-.09c-.1 0-.11-.06 0-.08l.53-.14a.65.65 0 0 1 .24 0l.37.09c.1 0 .11.05 0 .08l-.53.14a1 1 0 0 1-.24 0z" fill="url(#cl)"/><path d="M23.94 58l-.37-.09c-.1 0-.11 0 0-.07l.31-.09a.66.66 0 0 1 .24 0l.37.09c.1 0 .11.05 0 .07l-.3.09a.66.66 0 0 1-.25 0z" fill="url(#cm)"/><path d="M24.61 57.8l-.36-.09c-.11 0-.12-.05 0-.08l.3-.08h.24l.37.1c.1 0 .11.05 0 .07l-.31.08a.49.49 0 0 1-.24 0z" fill="url(#cn)"/><path d="M25.29 57.62l-.37-.09c-.1 0-.11-.06 0-.08l.31-.08h.24l.37.09c.1 0 .11.06 0 .08l-.31.08a.65.65 0 0 1-.24 0z" fill="url(#co)"/><path d="M26 57.44l-.37-.09c-.1 0-.11-.06 0-.08l.31-.08a.64.64 0 0 1 .24 0l.36.09c.11 0 .12 0 0 .08l-.3.08a1 1 0 0 1-.24 0z" fill="url(#cp)"/><path d="M26.64 57.25l-.37-.09c-.1 0-.11 0 0-.07l.3-.09a.66.66 0 0 1 .24 0l.37.09c.1 0 .11 0 0 .07l-.31.09a.66.66 0 0 1-.23 0z" fill="url(#cq)"/><path d="M27.32 57.07L27 57c-.1 0-.11 0 0-.08l.31-.08a.66.66 0 0 1 .24 0l.37.09c.1 0 .11 0 0 .07l-.3.09a.66.66 0 0 1-.3-.02z" fill="url(#cr)"/><path d="M28 56.89l-.36-.09c-.1 0-.12-.06 0-.08l.3-.08h.24l.37.09c.1 0 .11.06 0 .08l-.3.08a.7.7 0 0 1-.25 0z" fill="url(#cs)"/><path d="M28.67 56.71l-.37-.09c-.1 0-.11-.06 0-.08l.31-.08a.65.65 0 0 1 .24 0l.37.09c.1 0 .11.06 0 .08l-.31.08z" fill="url(#ct)"/><path d="M29.35 56.52l-.35-.09c-.1 0-.11 0 0-.07l.31-.09a.66.66 0 0 1 .24 0l.37.09c.1 0 .11.05 0 .08l-.3.08a.66.66 0 0 1-.27 0z" fill="url(#cu)"/><path d="M30 56.34l-.37-.09c-.1 0-.11 0 0-.08l.3-.08a.66.66 0 0 1 .24 0l.37.09c.1 0 .11.05 0 .07l-.31.09a.66.66 0 0 1-.23 0z" fill="url(#cv)"/><path d="M30.7 56.16l-.37-.09c-.1 0-.11 0 0-.08l.31-.08h.24l.37.09c.1 0 .11.06 0 .08l-.31.08a.65.65 0 0 1-.24 0z" fill="url(#cw)"/><path d="M31.38 56l-.37-.1c-.1 0-.11-.05 0-.07l.74-.2a.65.65 0 0 1 .24 0l.37.09c.1 0 .11 0 0 .08l-.75.2a1 1 0 0 1-.23 0z" fill="url(#cx)"/><path d="M22.21 58l-.37-.09c-.1 0-.11 0 0-.07l1-.28a.66.66 0 0 1 .24 0l.37.09c.1 0 .11 0 0 .07l-1 .28a.65.65 0 0 1-.24 0z" fill="url(#cy)"/><path d="M23.59 57.65l-.36-.09c-.11 0-.12-.06 0-.08l.3-.08h.24l.37.09c.1 0 .11.06 0 .08l-.31.08a.64.64 0 0 1-.24 0z" fill="url(#cz)"/><path d="M24.27 57.47l-.37-.09c-.1 0-.11-.06 0-.08l.31-.08a.65.65 0 0 1 .24 0l.37.09c.1 0 .11 0 0 .08l-.31.08z" fill="url(#da)"/><path d="M25 57.28l-.37-.09c-.1 0-.11 0 0-.07l.31-.09a.66.66 0 0 1 .24 0l.36.09c.11 0 .12 0 0 .08l-.3.08a.65.65 0 0 1-.24 0z" fill="url(#db)"/><path d="M25.62 57.1l-.37-.1c-.1 0-.11 0 0-.08l.3-.08a.66.66 0 0 1 .24 0l.37.09c.1 0 .11 0 0 .07l-.31.09a.66.66 0 0 1-.23.01z" fill="url(#dc)"/><path d="M26.3 56.92l-.37-.09c-.1 0-.11 0 0-.08l.31-.08a1 1 0 0 1 .24 0l.37.09c.1 0 .11.06 0 .08l-.3.08a.65.65 0 0 1-.25 0z" fill="url(#dd)"/><path d="M27 56.74l-.36-.09c-.11 0-.12-.06 0-.08l.3-.08a.65.65 0 0 1 .24 0l.37.09c.1 0 .11.06 0 .08l-.31.08z" fill="url(#de)"/><path d="M27.65 56.55l-.37-.09c-.1 0-.11-.05 0-.07l.31-.08a.49.49 0 0 1 .24 0l.37.09c.1 0 .11.05 0 .08l-.31.08a.66.66 0 0 1-.24-.01z" fill="url(#df)"/><path d="M28.33 56.37l-.33-.09c-.1 0-.11-.05 0-.07l.31-.09a.66.66 0 0 1 .24 0l.36.09c.11 0 .12.05 0 .07l-.3.09a.65.65 0 0 1-.28 0z" fill="url(#dg)"/><path d="M29 56.19l-.37-.09c-.1 0-.11-.05 0-.08l.3-.08h.24l.37.09c.1 0 .11.06 0 .08l-.31.08a.65.65 0 0 1-.23 0z" fill="url(#dh)"/><path d="M29.68 56l-.37-.09c-.1 0-.11-.06 0-.08l.31-.08a.65.65 0 0 1 .24 0l.37.09c.1 0 .11.06 0 .08l-.3.08a1 1 0 0 1-.25 0z" fill="url(#di)"/><path d="M30.35 55.83l-.37-.1c-.1 0-.11 0 0-.07l.94-.26a.65.65 0 0 1 .24 0l.37.09c.1 0 .11 0 0 .07l-.95.26a1 1 0 0 1-.23.01z" fill="url(#dj)"/><path d="M21.38 57.82l-.38-.09c-.1 0-.11 0 0-.08l.53-.14h.24l.37.09c.1 0 .11.06 0 .08l-.53.14a.65.65 0 0 1-.23 0z" fill="url(#dk)"/><path d="M22.28 57.58l-.37-.09c-.1 0-.11-.06 0-.08l.31-.08a.49.49 0 0 1 .24 0l.37.09c.1 0 .11 0 0 .08l-.31.08a1 1 0 0 1-.24 0z" fill="url(#dl)"/><path d="M23 57.39l-.37-.09c-.1 0-.11 0 0-.07l.31-.09a.66.66 0 0 1 .24 0l.36.09c.11 0 .12 0 0 .07l-.3.09a.66.66 0 0 1-.24 0z" fill="url(#dm)"/><path d="M23.63 57.21l-.37-.09c-.1 0-.11 0 0-.08l.3-.08h.24l.37.1c.1 0 .11 0 0 .07l-.31.08a.49.49 0 0 1-.23 0z" fill="url(#dn)"/><path d="M24.31 57l-.37-.09c-.1 0-.11-.06 0-.08l3-.81h.24l.37.09c.1 0 .11.06 0 .08l-3 .81z" fill="url(#do)"/><path d="M27.69 56.12l-.37-.12c-.1 0-.11-.06 0-.08l.31-.08a.65.65 0 0 1 .24 0l.37.09c.1 0 .11 0 0 .08l-.31.08a1 1 0 0 1-.24.03z" fill="url(#dp)"/><path d="M28.37 55.93l-.37-.09c-.1 0-.11-.05 0-.07l.3-.09a.65.65 0 0 1 .24 0l.37.09c.1 0 .12 0 0 .07l-.3.09a.65.65 0 0 1-.24 0z" fill="url(#dq)"/><path d="M29 55.75l-.37-.09c-.1 0-.11 0 0-.08l.37-.08a.66.66 0 0 1 .24 0l.37.09c.1 0 .11 0 0 .07l-.31.08a.49.49 0 0 1-.3.01z" fill="url(#dr)"/><path d="M29.73 55.57l-.37-.09c-.1 0-.11-.06 0-.08l.75-.2a1 1 0 0 1 .24 0l.36.09c.11 0 .12.06 0 .08l-.74.2z" fill="url(#ds)"/><path d="M23 56l1.19.31a1.31 1.31 0 0 0 .68 0l2.25-.6a.11.11 0 0 0 0-.21l-1.18-.32a1.34 1.34 0 0 0-.69 0l-2.25.6a.11.11 0 0 0 0 .22z" fill="url(#dt)"/><path d="M75.11 61.7l-27.9-7.47a.11.11 0 0 1-.08-.14.12.12 0 0 1 .14-.08l27.9 7.48a.11.11 0 0 1 .08.13.13.13 0 0 1-.14.08zm.69 29.38a7.48 7.48 0 0 1-1.94-.25l-5.47-1.47a3.94 3.94 0 0 1-2.91-3.8v-6.8a2.2 2.2 0 0 1 2.78-2.14l6.85 1.84a2.83 2.83 0 0 0 .87.08V76a2.2 2.2 0 0 1 2.78-2.14l7 2a.51.51 0 0 1 0 1l-9 2.45v3.54a3.15 3.15 0 0 0 2.34 3l5.65 1.51a.86.86 0 0 1 .63.83.84.84 0 0 1-.63.82l-7 1.88a7.56 7.56 0 0 1-1.95.19zm-8.11-13.75a1.39 1.39 0 0 0-.87.3 1.42 1.42 0 0 0-.56 1.13v6.8a3.14 3.14 0 0 0 2.34 3l5.46 1.47a6.84 6.84 0 0 0 3.48 0l7-1.88v-.06a.08.08 0 0 0 0-.07l-5.64-1.47a3.94 3.94 0 0 1-2.9-3.8v-3.42a3.29 3.29 0 0 1-1.08-.12l-6.84-1.83a1.57 1.57 0 0 0-.39-.05zm10.5-2.81A1.42 1.42 0 0 0 76.76 76v2.44l7.87-2.13-6.07-1.69a1.18 1.18 0 0 0-.37-.1zm7.4 1.48z" fill="#e9e0f8"/><path d="M72.65 70.88l-7.05 1.89a1.14 1.14 0 0 0 0 2.2L77.08 78l.17-7-.57-.16a7.87 7.87 0 0 0-4.03.04z" fill="url(#du)"/><path d="M87.88 57.15h-.06a.65.65 0 0 0-.34 0l-.28.07-5.64 1.51a4.25 4.25 0 0 0-2.94 2.82 58.56 58.56 0 0 0-2.14 8.29c0 .57.21 4.65.32 5.67a1.73 1.73 0 0 1-2.18 1.85l-6.29-1.66-2.33-.63-.4-.07a1.12 1.12 0 0 1-.84-1.1v2.41a1.26 1.26 0 0 0 .08.43 1.13 1.13 0 0 0 .76.66l9.4 2.51a2.77 2.77 0 0 0 2-.25 3.12 3.12 0 0 0 .59-.44 2.73 2.73 0 0 0 .81-2.47 41.75 41.75 0 0 1-.78-6.6 53.77 53.77 0 0 1 1.68-8.26 4.21 4.21 0 0 1 3-3l6.11-1.56z" fill="#e9e0f8"/><path d="M89.28 59.24c.38-1.47-.58-2.07-1.11-1.93l-5.79 1.55a4.19 4.19 0 0 0-3 3 53.77 53.77 0 0 0-1.68 8.26 41.75 41.75 0 0 0 .78 6.6 2.78 2.78 0 0 1-1.4 2.91 2.87 2.87 0 0 1-.57.24l9.77-2.62A2.68 2.68 0 0 0 87 77a2.77 2.77 0 0 0 1.4-2.9 41.87 41.87 0 0 1-.78-6.6 53.63 53.63 0 0 1 1.66-8.26z" fill="#fff"/><path d="M78.54 72.65a.13.13 0 0 1-.11-.09.12.12 0 0 1 .08-.14l8.81-2.36a.12.12 0 0 1 .14.08.11.11 0 0 1-.08.14l-8.81 2.36z" fill="#e9e0f8"/><path d="M25.9 52.59a15 15 0 0 1 2.67-.07c.57.14 1.87 1.9 1.62 2.72s-1.9-.62-2.36-.87.54.53.58.78-.33.4-.8.07A13.39 13.39 0 0 0 25 54.11z" fill="#c199fd"/><path d="M25.14 52.09l1.46.44c-.42.23-.6 1.61-.6 1.61h-.56l.53.17v.37l-1.62-.19-.41-1.79z" fill="#fff"/><path d="M25.87 53.74a.14.14 0 0 0-.18-.1.16.16 0 0 0-.1.19.15.15 0 1 0 .28-.09z" fill="#5d1ace"/><path d="M28.22 51.93l-2.58 6.74a.24.24 0 0 0 .29.32L36 56.3a1.12 1.12 0 0 0 .77-.7l2.58-6.73a.24.24 0 0 0-.29-.32L29 51.23a1.17 1.17 0 0 0-.78.7z" fill="url(#dv)"/><path d="M26.13 58.68a.12.12 0 0 1-.06-.14l2.45-6.38a1.2 1.2 0 0 1 .81-.74.11.11 0 0 1 .13.08.11.11 0 0 1-.08.14 1 1 0 0 0-.65.6l-2.45 6.38a.12.12 0 0 1-.15.06z" fill="#dbccf4"/><path d="M17.13 44.88c1.05 1.54 3.54 5.43 4.31 5.86a28.82 28.82 0 0 0 3.95 1.41 2.34 2.34 0 0 0-.77 2.5s-3.77-.6-4.26-.74C19 53.55 16 50.09 16 50.09l.65-2.88z" fill="url(#dw)"/><path d="M11 49.86a.11.11 0 0 1-.11-.08l-.26-1.06a.1.1 0 0 1 0-.09l.24-.38-.25-.94a18.12 18.12 0 0 0 0-4.06.11.11 0 0 1 .1-.13.11.11 0 0 1 .12.1 18.4 18.4 0 0 1 0 4.09l.26 1a.11.11 0 0 1 0 .08l-.24.39.25 1a.12.12 0 0 1-.08.14z" fill="#4b00c8"/><path d="M19.64 59.62c-1 .59-.26.82 1 1.17s2.85.2 2.65-.32a3.73 3.73 0 0 0-2.6-1.31 2.07 2.07 0 0 0-1.05.46z" fill="url(#dx)"/><path d="M16.5 58.16s.85 1.65 1.5 1.84c.83.22 1.49 1.09 2.53.32.42-.31.69.42.69.6s1.26.5 1.35-.39a1.64 1.64 0 0 0-.41-1.32 2.12 2.12 0 0 0-1.57-.59c-1.52 0-1.63.12-1.93 0s-.75-.47-.75-.47z" fill="#c199fd"/><path d="M17.13 60.22l1.14.31.13-.68-.81-.47h.95a2.48 2.48 0 0 1 .86-.78l-.63-.24-.77-.06-.95 1v.92z" fill="#fff"/><path d="M9 44.45c1.3 1.29 1.82 7.71 3.57 8.94 1 .73 6.41 5.08 6.41 5.08a1 1 0 0 0-1 .23 2.52 2.52 0 0 0-.89 1.59s-6.3-2.63-7.58-4.14a11.74 11.74 0 0 1-2.39-9.42C7.6 44.45 8.49 44 9 44.45z" fill="url(#dy)"/><path d="M21.82 58.92a3.17 3.17 0 0 1 1.15.94c.2.28.21.51 0 .52s-.83-.47-.83-.47z" fill="#c199fd"/><path d="M10.49 57.23s-.58-.42-1.12-.84A9 9 0 0 1 7 51h.22a8.69 8.69 0 0 0 2.31 5.28c.54.42 1.1.83 1.11.83z" fill="#fff"/><path d="M14.78 52.2a.11.11 0 0 1-.11-.11 15 15 0 0 1 .89-2.92l-.18-.57a.12.12 0 0 1 .06-.14l.46-.22.49-3.65a.1.1 0 0 1 .12-.1.11.11 0 0 1 .1.13l-.49 3.71a.13.13 0 0 1-.07.09l-.43.2.17.52a.11.11 0 0 1 0 .08 14.7 14.7 0 0 0-.9 2.86.11.11 0 0 1-.11.12z" fill="#4b00c8"/><path d="M21.37 79.35a.09.09 0 0 1-.07 0 .11.11 0 0 1 0-.16s.36-.4.13-.69a.77.77 0 0 0-.37-.19c-.14 0-.26-.08-.27-.2s.12-.22.62-.47a.12.12 0 0 1 .15 0 .12.12 0 0 1-.05.15 3.11 3.11 0 0 0-.44.24h.05a1 1 0 0 1 .49.27.77.77 0 0 1-.15 1 .09.09 0 0 1-.09.05zm7.29 3.77a.48.48 0 0 1-.21-.06.79.79 0 0 1-.36-.63 1.77 1.77 0 0 0-.13.17.12.12 0 0 1-.16 0 .1.1 0 0 1 0-.15c.21-.27.29-.35.4-.32s.11.13.13.24a.59.59 0 0 0 .25.48c.14.08.22 0 .38-.28s.23-.38.42-.41a.47.47 0 0 1 .37.17.1.1 0 0 1 0 .16.12.12 0 0 1-.16 0c-.05 0-.13-.11-.18-.1s-.17.16-.25.29-.27.44-.5.44z" fill="#fff"/><path fill="#3219af" d="M51.58 63.38l-6.1-1.63 7.41-1.99 6.12 1.64-7.43 1.98z"/><path d="M52.34 60.26L48 62.31a26.3 26.3 0 0 0 5.29.85c.16 0 4.26-2 4.26-2z" fill="#fff"/><path d="M55 64.18l.31 3.39c0 .14.39.25.88.25s.88-.11.88-.25l.31-3.39z" fill="url(#dz)"/><path d="M57.25 63.91V64a3.12 3.12 0 0 0-1-.15 2.71 2.71 0 0 0-1.13.19v-.09h-.16v.27c0 .21.57.38 1.29.38s1.29-.17 1.29-.38v-.27z" fill="#3219af"/><path d="M57.51 63.91c0-.21-.58-.37-1.29-.37s-1.29.16-1.29.37.57.38 1.29.38 1.29-.17 1.29-.38z" fill="#dec9fe"/><path d="M57.32 63.86l-.24-.23h-.41a3.39 3.39 0 0 0-.9 0h-.42l-.17.18a.13.13 0 0 0 0 .06c0 .17.49.32 1.1.32s1.1-.15 1.1-.32a.14.14 0 0 0 0-.06z" fill="#3219af"/><path d="M57.12 63.7c0-.15-.4-.26-.9-.26a1.64 1.64 0 0 0-.85.17.12.12 0 0 0 0 .09c0 .14.4.26.9.26s.85-.12.85-.26z" fill="#dec9fe"/><path d="M56.81 63.6c0 .07-.17.12-.38.12s-.38 0-.38-.12.17-.13.38-.13.38.06.38.13z" fill="#3219af"/><path d="M52.63 88.32c0 .87-.29 1-.37 2s1.86.58 2.79.58 3 0 2.75-.83-2.32-.63-2.89-1.28c-.88-1-.5-1.24-.5-1.24z" fill="#a37de3"/><path d="M48.75 87.18c-.09.93-.26 2.11.08 2.35s4.12-.44 4.69-1.39-.54-.89-1.1-.81a6.87 6.87 0 0 1-2.11-.53z" fill="#a37de3"/><path d="M47.81 82a37.29 37.29 0 0 0 .57 5.43s2.82-.07 4.27-1.18c0 0 1.9-10.76 1.9-11.8 0-3.38-7.02.83-6.74 7.55z" fill="url(#ea)"/><path d="M52.71 76.62c0 1.69-.4 12.56-.4 12.56s3.21-.31 4.49-1.61c0 0 1.88-10.76 0-13.86-2.12-3.35-4.09 1.18-4.09 2.91z" fill="url(#eb)"/><path d="M42.37 95a7.49 7.49 0 0 1-1.94-.26l-7-1.87a.85.85 0 0 1 0-1.65l5.65-1.51a3.16 3.16 0 0 0 2.33-3v-3.59l-9-2.45a.51.51 0 0 1 0-1l7-2a2.14 2.14 0 0 1 1.92.38 2.19 2.19 0 0 1 .87 1.75v2.6a2.58 2.58 0 0 0 .87-.09l6.84-1.83a2.22 2.22 0 0 1 2.79 2.14v6.8a3.94 3.94 0 0 1-2.92 3.8l-5.46 1.46a7.57 7.57 0 0 1-1.95.32zm-.17-11.75v3.42a4 4 0 0 1-2.92 3.8L33.63 92s-.05 0-.05.06 0 .06.05.07l7 1.87a6.63 6.63 0 0 0 3.48 0l5.47-1.46a3.16 3.16 0 0 0 2.33-3v-6.8a1.43 1.43 0 0 0-.56-1.14 1.39 1.39 0 0 0-1.23-.24l-6.85 1.83a3.86 3.86 0 0 1-1.07.06zm-8.65-3.08l7.86 2.14v-2.45a1.41 1.41 0 0 0-.56-1.13 1.44 1.44 0 0 0-1.24-.25z" fill="#e9e0f8"/><path d="M45.53 74.37l7 1.88a1.14 1.14 0 0 1 0 2.2L41.1 81.53l-.18-7 .58-.15a7.65 7.65 0 0 1 4.03-.01z" fill="url(#ec)"/><path d="M40.15 65.28c5-.82 8-1.71 9.05-2.39a4.78 4.78 0 0 1 3.22-1c.85 0 1.61.81 1.46 1s-.77-.11-1.18 0-.77.87-1.64 1-1.05 0-1.38.1-6.08 3-8 3.21-1.53-1.92-1.53-1.92z" fill="#6400fa"/><path d="M35.07 77.81c.37 1.62 5.34 4 11 2a73.22 73.22 0 0 0 7.3-3.07L56.22 73a5.39 5.39 0 0 0-1.89-1.07c-1.35-.51-2.59-.14-4.41.36s-7.19 2.93-7.19 2.93z" fill="url(#ed)"/><path d="M37 58.55c-3.06 1.63-.46 9.59-2.46 13.13-3.64 6.48 5 8.38 6.41 7.65s1.62-3.62 3.9-4c.55-.07 3.22-.57 2-1.14-2.5-1.12-2.19-2.34-2.25-2.72-.44-2.9.89-7.26.19-9.43a3.28 3.28 0 0 0-2-2l-5.44-1.46z" fill="url(#ee)"/><path d="M37.24 58.67c-.28 2 3.29.74 5.44 1.44a1.66 1.66 0 0 1-1.47-2c.14-1.23-2-2-2-2s-.31 2.1-.79 2.34a2 2 0 0 1-1.18.22z" fill="#6400fa"/><path d="M38 54.39c.38 2.8 2.66 3.9 3.59 3.65.5-.14 1.07-1 1.27-2.2a4.37 4.37 0 0 0-.1-.86c0-.1.11-.67.1-.77a2.62 2.62 0 0 0-.56-1.43c-1.55-2.37-4.6-.44-4.3 1.61z" fill="#6400fa"/><path d="M44 75.5a.11.11 0 0 1-.05-.15 2.17 2.17 0 0 0 0-1.61.49.49 0 0 0-.47-.21 20 20 0 0 1-9.14-2.65.12.12 0 1 1 .13-.19 19.8 19.8 0 0 0 9 2.62.73.73 0 0 1 .67.31 2.37 2.37 0 0 1 0 1.82.12.12 0 0 1-.14.06z" fill="#fff"/><path d="M44.46 77.9h-.07c-.62-.43-.51-1-.35-1.58 0-.12.07-.25.11-.38a6.38 6.38 0 0 0 .36-1.7 1.22 1.22 0 0 0-.24-.85c-.13.22-.3.44-.46.47a.42.42 0 0 1-.43-.25.44.44 0 0 1 .17-.53.61.61 0 0 1 .64 0 2 2 0 0 0 .3-1.21.1.1 0 0 1 .06-.14.11.11 0 0 1 .15.06 2.28 2.28 0 0 1-.33 1.43 1.37 1.37 0 0 1 .36 1 6.57 6.57 0 0 1-.36 1.78c0 .14-.08.26-.12.38-.15.53-.23 1 .27 1.34a.1.1 0 0 1 0 .15.12.12 0 0 1-.06.03zm-.58-4.72a.34.34 0 0 0-.2.06.21.21 0 0 0-.09.26.17.17 0 0 0 .19.11s.15-.12.31-.38a.37.37 0 0 0-.21-.05z" fill="#fff"/><path d="M51.63 63.4c.95-.26 1.48-.39 1.47 0s-2.1.6-2.42.6.95-.6.95-.6z" fill="#6400fa"/><path d="M30.29 60.63h.07a.91.91 0 0 1 .33 0l.29.08 5.63 1.51A4.21 4.21 0 0 1 39.55 65a58.29 58.29 0 0 1 2.15 8.3c0 .57-.2 4.66-.31 5.68a1.73 1.73 0 0 0 2.17 1.85l6.28-1.68 2.35-.63.39-.11a1.11 1.11 0 0 0 .84-1.1v2.43a1.11 1.11 0 0 1-.09.43 1.08 1.08 0 0 1-.75.65l-9.45 2.53a2.76 2.76 0 0 1-2.05-.24 2.59 2.59 0 0 1-.59-.44 2.74 2.74 0 0 1-.81-2.47 43 43 0 0 0 .78-6.6 54.85 54.85 0 0 0-1.68-8.27 4.26 4.26 0 0 0-3-3l-6.11-1.56z" fill="#e9e0f8"/><path d="M28.9 62.72c-.39-1.47.57-2.07 1.11-1.93l5.79 1.55a4.25 4.25 0 0 1 3 3 54.85 54.85 0 0 1 1.68 8.27 43 43 0 0 1-.78 6.6 2.78 2.78 0 0 0 1.4 2.91 3.57 3.57 0 0 0 .57.23l-9.78-2.62a3 3 0 0 1-.67-.26 2.77 2.77 0 0 1-1.4-2.91 43 43 0 0 0 .78-6.6 55.34 55.34 0 0 0-1.7-8.24z" fill="#fff"/><path d="M39.85 83l-8-2.14a2.75 2.75 0 0 1-.69-.27 2.9 2.9 0 0 1-1.46-3 41.08 41.08 0 0 0 .77-6.59 56.65 56.65 0 0 0-1.68-8.24.1.1 0 0 1 .08-.13.11.11 0 0 1 .14.08A53.88 53.88 0 0 1 30.69 71a43.65 43.65 0 0 1-.78 6.62 2.67 2.67 0 0 0 1.34 2.79 2.57 2.57 0 0 0 .65.25l8 2.14a.11.11 0 0 1 .08.14.11.11 0 0 1-.13.06z" fill="#e9e0f8"/><path d="M39.64 76.13l-8.82-2.36a.12.12 0 0 1-.08-.14.11.11 0 0 1 .14-.08l8.81 2.36a.11.11 0 0 1 .08.14.11.11 0 0 1-.13.08z" fill="#e9e0f8"/><path d="M38.63 50.25c-.6.91-1.39 0-1.82 1.24s-.6.73-1.31 1.42 0 1.78.82 2 1 .66.77 1.3 1 1.21 1.28 1.16 1.34-.28 1.78.14 1.11-1 1-1.34.1-1.29.76-1.39a3 3 0 0 0 1.33-.71 1.48 1.48 0 0 0 0-2.57 6.12 6.12 0 0 1-1.69-1.26c-.5-.58-2.39-.81-2.92.01z" fill="url(#ef)"/><path d="M41.2 55c-.34.3-.5.89-.13 1.15.13.1.44-.16.44-.16s.44-.82.33-1-.56-.1-.64.01zm16.47 11c-.16-.89-.66.33-2.23-.1 0 0-.21-.05-.27-.14s0-.35 0-.49l-.28.17c-.29.18-.56 1-.56 1l-.1.12-.1.14-6.19 1s-2.8-4.73-3.67-6-2.07 2.47-1.55 3.24c1.08 1.62 2.61 5.21 4.28 5.07a65.58 65.58 0 0 0 8-2.35 3.56 3.56 0 0 1 .8.08c.92 0 1.43-.24 1.69-.65a1.24 1.24 0 0 0 .18-1.09z" fill="#6400fa"/><path d="M53.16 75.87a.16.16 0 0 1-.16-.07c-.11-.13 0-.4.28-1a.69.69 0 0 0 0-.17 6.42 6.42 0 0 0-.76 1.11.11.11 0 0 1-.19-.11c.77-1.3 1-1.34 1.09-1.27s0 .54 0 .54a2.89 2.89 0 0 0-.31.75 8.58 8.58 0 0 0 1.13-.55.13.13 0 0 1 .16 0 .11.11 0 0 1 0 .15 8.58 8.58 0 0 1-1.21.59z" fill="#a37de3"/></svg>