<svg xmlns="http://www.w3.org/2000/svg" viewBox="0 0 100 100"><defs><linearGradient id="a" x1="9.15" y1="-563.68" x2="14.63" y2="-563.68" gradientTransform="translate(0 620)" gradientUnits="userSpaceOnUse"><stop offset="0" stop-color="#d77edb"/><stop offset=".15" stop-color="#cd79dc"/><stop offset=".42" stop-color="#b26adf"/><stop offset=".75" stop-color="#8753e5"/><stop offset="1" stop-color="#623fe9"/></linearGradient></defs><path fill="none" d="M0 0h100v100H0z"/><path d="M100 59.14c.27 12.8-3.57 32-50 31.84-31.25-.13-50-8.55-50-31.84S16.41 9 41.11 9 99.5 35.86 100 59.14z" fill="none"/><path d="M40.37 48.3l-3.52 1.44A3.54 3.54 0 0 0 34.67 53l-1.16 12.72 23.49.11v-4.39a18.64 18.64 0 0 0-2.65-9.56L53.27 50A4.49 4.49 0 0 0 50 47.9l-3.06-.36-.81-.61z" fill="#413068"/><path fill="#fff" d="M40.14 48.4l.23 1.66v4.62l2.22 11.08 2.58-10 1.71-7.99-.8-.63-5.71 1.16-.23.1z"/><path fill="#623fe9" d="M42.01 52.38l-.48 8.72 1.01 4.52 1.01-4.25.31-8.99h-1.85zm5.31-10.62a1 1 0 0 0-.21-.64c-.1-.11-.24-.2-.29-.35a.67.67 0 0 1 0-.2 1 1 0 0 0-.17-.44c-.24-.31-.65-.27-.94-.49a2.06 2.06 0 0 1-.29-.3c-.1-.13-.17-.37-.31-.45a.48.48 0 0 0-.37.06c-.24.13-.5.35-.78.27s-.44-.26-.7-.31c-.6-.11-1.06.6-1.67.6a2.35 2.35 0 0 0-.53 0 .77.77 0 0 0-.43.47 2.16 2.16 0 0 1-.29.59c-.15.16-.35.24-.5.38a1.52 1.52 0 0 0-.32 1v.9a4.65 4.65 0 0 0 .64 2.25.48.48 0 0 1 .29-.17l.8-.19a3.86 3.86 0 0 1 .68-.11 2.78 2.78 0 0 1 .7.12l1.66.42a5.92 5.92 0 0 1 1.16.41 2.4 2.4 0 0 1 .82.73 6 6 0 0 1 .73-1.7 1.14 1.14 0 0 0 .16-.31 2.44 2.44 0 0 0 0-.54c0-.3.17-.59.17-.89s-.06-.36 0-.54a2.09 2.09 0 0 0 .11-.43.33.33 0 0 1-.12-.14z"/><path fill="#56408b" d="M47.15 47.56l.69 2.32-.91.49.91.78-5.25 14.61-.09-.65 3.07-17.01.55-1.17.81.61.22.02z"/><path fill="#56408b" d="M40.14 48.4l-1.86 3.01.87.65-.87 1.05 4.31 12.65-2.45-17.36z"/><path fill="#623fe9" d="M43.05 51.08l-1.89 1.44h3.61l.03-.12-1.75-1.32z"/><path d="M39.68 43.52a1.16 1.16 0 0 0-.28.87l.09 1.06a1.1 1.1 0 0 0 .24.61.59.59 0 0 0 .83.1.26.26 0 0 0 .09-.09l.08-.1-.22-2zm6.97.48a1.16 1.16 0 0 1 .28.87L46.84 46a1.18 1.18 0 0 1-.24.61.59.59 0 0 1-.83.1l-.09-.09-.08-.1.22-2z" fill="#fff"/><path d="M45.74 47.21l-5.37 1.09-.23.1v.18c.06.13.13.26.2.38l.85 1.42a1.74 1.74 0 0 0 1.52.86 1.73 1.73 0 0 0 1.5-.83l.92-1.49a3.93 3.93 0 0 0 .55-1.45z" style="isolation:isolate" fill="#191c3c" opacity=".3"/><path d="M40.11 43.16v3.74a4 4 0 0 0 .57 2.1l.86 1.42a1.77 1.77 0 0 0 1.51.86 1.71 1.71 0 0 0 1.5-.83l.92-1.45a3.59 3.59 0 0 0 .53-1.53l.23-1.36v-3.56l-6.14-.16z" fill="#fff"/><path d="M43.91 46l-.35 1.81a.22.22 0 0 1-.24.2h-.07l-.43-.17-.12.2.72.3a.22.22 0 0 0 .29-.11v-.07z" fill="#e6e7e8"/><path d="M46.25 46.22a11.66 11.66 0 0 1-.33-2.5 2.17 2.17 0 0 0-.09-.8c-.1-.22-.41-.08-.62-.13a6 6 0 0 0-.82-.27 1 1 0 0 0-.67.27 1.38 1.38 0 0 1-.36.23.89.89 0 0 1-.56 0 7.4 7.4 0 0 1-1.12-.48 1 1 0 0 0-1.11.22 1.09 1.09 0 0 0-.09.81 2.41 2.41 0 0 1 .12.84c0 .28-.21 1.9-.49 1.89l-.27-4.87 3.73-.8 3.14.74z" fill="#623fe9"/><path d="M41.16 63.73V63a.39.39 0 0 0-.07-.23l-.57-.77-1.9-.57-1.13.56a.51.51 0 0 0-.23.27l-.48 1.37-.79.71a1.61 1.61 0 0 0-.54.92c-.08.49.57.53.57.53h1.67v-.31h.78a.36.36 0 0 0 .2-.06c.22-.14.3-.49.08-.63l-.83-.55c-.06 0-.21-.06-.18-.12a.15.15 0 0 1 .2 0l1.12.77a.39.39 0 0 0 .48 0 .41.41 0 0 0 .09-.55l-.29-.41-1.06-.56a.26.26 0 0 1 .32-.08l.77.47.38.45a.41.41 0 0 0 .58 0c.15-.14.27-.37.16-.54l-.49-.7-1.26-.66a.25.25 0 0 1 .31-.09l.86.51.5.42v.07a.68.68 0 0 0 .71.56z" fill="#fff"/><path d="M36.66 63.54s-2.86 2.39.22 2.19H35.2s-.78-.84 1.75-2.67l-.17.49z" fill="#fff"/><path fill="#2b2046" d="M25.34 46.87h4.91v9.03h-4.91z"/><path fill="#e6e7e8" d="M37.96 52.93l-2.71 2.08-.1-1.93 1.93-1.88.88 1.73z"/><path fill="#623fe9" d="M31.55 51.76l3.33 1.52-3.6 12.55H19.96l3.56-14.52 1.84-.18 1.56-1.22 4.63 1.85z"/><path d="M27 49.56a4 4 0 0 1-.36 1.49l-.39 1.28v7.38l3.06.22 1-7.21s0-.64.36-.82-1.46-2.34-1.46-2.34z" fill="#fff"/><path d="M26.48 53.51l-.28 2-.2 8.22 1.77.44 2.05-9.86a2.43 2.43 0 0 1-3.16-.54z" fill="#e6e7e8"/><path fill="#4a2faf" d="M25.36 51.13l-.97 3.04 1.17.92-1.17.61.58 7.56 1.59.03-.06-13.06-1.14.9zm5.99.77l.97 2.57-1.48.48L32 56.14l-3.83 8.03-1.61-.16 4.26-12.63.53.52z"/><path d="M32.17 45.21a2 2 0 0 0-.41-1.07 2.31 2.31 0 0 0-.56-.41L29.91 43a1 1 0 0 0-.78-.19c-.13 0-.24.13-.37.16a1.29 1.29 0 0 1-.55-.08 1.83 1.83 0 0 0-1.17.38 5.51 5.51 0 0 0-.9.69 3 3 0 0 0-.69 1.68c-.07.61-.1 2.21-.1 2.21 1 .5 2.25 0 3.34-.29a11.43 11.43 0 0 0 3-1.46 1 1 0 0 0 .47-.46.89.89 0 0 0 .01-.43z" fill="#2b2046"/><path d="M27 49.56a.81.81 0 0 1 0 .22l.25.69a1.68 1.68 0 0 0 1 1l1.25.28a5.6 5.6 0 0 0 1 .14c.06-.09-.09 0 0 0 .37-.18-1.46-2.34-1.46-2.34z" style="isolation:isolate" fill="#191c3c" opacity=".3"/><path d="M32.23 45c.07.53.17 1.06.29 1.57a1 1 0 0 1 0 .25v.42a7 7 0 0 1 .28 1.09 2.81 2.81 0 0 1-.17 1.38 8.45 8.45 0 0 1-.92 2 1.42 1.42 0 0 1-1.46.11l-1.49-.51a1.68 1.68 0 0 1-1-1l-.24-.68H27a.41.41 0 0 1-.31-.14l-.23-.26a1.58 1.58 0 0 1-.39-1v-.43a.51.51 0 0 1 .56-.41l.2.08.49.51h.11v-1.1s1.08-2 2.58-2.23a.28.28 0 0 0 .26-.29v-.09a2.14 2.14 0 0 1 1.96.73z" fill="#fff"/><path d="M32 48.46l-.48-1.06.25 1.06a.38.38 0 0 1-.17.5h.06a.36.36 0 0 0 .34-.36.33.33 0 0 0 0-.14z" fill="#d1d3d4"/><path d="M28.4 49.57c-.53-1-1.22-2.17-.77-3.37.06-.17-.21-.24-.27-.07a2.65 2.65 0 0 0-.12 1.31.15.15 0 0 0-.07.12 2.57 2.57 0 0 0 1 2.17.12.12 0 0 0 .18 0 .16.16 0 0 0 .05-.16z" fill="#2b2046"/><path d="M24.83 51.79l.53-.66-2.63.25a2.61 2.61 0 0 0-2.27 1.87l-3.27 11a1.26 1.26 0 0 0 .81 1.57.83.83 0 0 0 .35.05h8.84V63.3l-6.07-.11 1.08-4.62 1.12-5.45z" fill="#623fe9"/><path d="M27.23 63.6H28a1.23 1.23 0 0 0 1.08-.6l2.07-3.49 1.65-.68-.17.49-1.12.47-.28.5.51-.33h.66l-1.53 4.28-.34.29a2.42 2.42 0 0 1-1.19.55l-2.11.34z" fill="#fff"/><path style="isolation:isolate" fill="#191c3c" opacity=".3" d="M32.1 59.51l.53-.22.17-.49-.52.22-.18.49zm-1.57 4.99l.34-.29 1.53-4.28H32l-1.71 4.78z"/><path fill="#623fe9" d="M30.29 65.83l2.85-7.96 2.41.19-1.42 7.77h-3.84z"/><rect x="36.31" y="51.23" width=".89" height=".59" rx=".27" ry=".27" transform="rotate(-43.61 36.759 51.517)" fill="#fff"/><rect x="36.4" y="51.9" width="1.5" height=".59" rx=".27" ry=".27" transform="rotate(-34.57 37.156 52.203)" fill="#fff"/><rect x="36.76" y="52.44" width="1.5" height=".59" rx=".27" ry=".27" transform="rotate(-32.21 37.509 52.742)" fill="#fff"/><path d="M37.94 52.82l-2.59 1.8a.85.85 0 0 0 .2-.93v-.58l.45-.32a.31.31 0 0 0 .1-.43.32.32 0 0 0-.44-.1l-1 .58-1.24 2.41v2.62l1.76.17.82-2.42a3.39 3.39 0 0 0 2-2.34z" fill="#fff"/><path d="M19.45 59.33c1 0-.34-1.25.73-1.29.42 0 1.07 0 .87-.33s-.77-.29-1-.61c-.4-.67 0-1.43.2-2.11s.85-2.27 1.06-3a2.53 2.53 0 0 0-.89 1.31l-1.21 4-.06.21-.07.23-1.93 6.49a1.22 1.22 0 0 0 0 .6 15.19 15.19 0 0 0 1.21-3.28c.2-.75.73-2.22 1.09-2.22z" style="isolation:isolate" fill="#3a3c4e" opacity=".4"/><path d="M26.72 50l-.13-.38-.75-.71-.31-2.48c-.33.44-.13 1-.26 1.45s-.4.72-.46 1.1c-.08.54.34 1.1.05 1.6s-1.17.78-1.19 1.31c0 .36.42.67.41 1s-.32.59-.22.89c.05.12.17.24.17.37s-.11.25-.07.38.51.24.7.08a.46.46 0 0 0 .07-.6c-.1-.19-.27-.37-.36-.57a.2.2 0 0 1 0-.23c.11-.18.48-.16.7-.27.37-.2.12-.6-.16-.86a2 2 0 0 1 .85-.26c.31 0 .65-.18.68-.4s-.26-.39-.22-.6.27-.28.44-.4.26-.42.06-.42z" fill="#2b2046"/><path d="M38.34 55.18l-.32.35-2.53-4.36a.2.2 0 0 1 0-.29h.14a.21.21 0 0 1 .19.11z" fill="#d77edb"/><path d="M38.23 55.18L35.76 51a.24.24 0 0 0-.14-.1h-.06a.24.24 0 0 1 .09.08l2.47 4.24z" fill="#e7b2e9"/><path d="M38.38 55.32a.24.24 0 0 1-.48 0 .24.24 0 0 1 .48 0z" fill="#a15fa4"/><path d="M24 63.23l-1.79-.09h-2.62v.29l-.49.16c.36-.07.72-.12 1.08-.16-.21.16-.39.33-.39.33s.24-.13.49-.24l.29-.12a4.88 4.88 0 0 0 .93-.09h3.28z" style="isolation:isolate" fill="#2c2d3b" opacity=".4"/><path fill="#56408b" d="M76.69 65.74h-5.77l-1.18-2.59-.88 2.59h-6.12V57.6h13.95v8.14z"/><path d="M65 62a.11.11 0 0 1-.09-.06.28.28 0 0 1 0-.18.43.43 0 0 0 0-.16.46.46 0 0 0-.19-.48 1 1 0 0 1-.18-.17.32.32 0 0 1 0-.35 1.61 1.61 0 0 1 .31-.38l.39-.36 1.55-1.46L65 59.71h-.06l.27-.34-1-1.82h-1.47v8.14h2.76a2.7 2.7 0 0 0 .11-1.13 2.17 2.17 0 0 0-.27-.76l-.06-.08a.17.17 0 0 1 0-.1h.06l.13-.11.21-.16a.54.54 0 0 0 .09-.75.61.61 0 0 0-.24-.18l-.17-.06z" style="isolation:isolate" fill="#191c3c" opacity=".1"/><path d="M79.46 57.24a.61.61 0 0 1 0-.27.94.94 0 0 1 .14-.26 2.59 2.59 0 0 0 .2-1.71.31.31 0 0 0-.07-.18h-.14a2.1 2.1 0 0 0-1.55.26l.21-.07a4.31 4.31 0 0 0-1.08.52 1.25 1.25 0 0 0-.5 1c0 .37.3.68.35 1a1.27 1.27 0 0 0 .08.48.74.74 0 0 0 .43.29 5.7 5.7 0 0 0 1.74.27c.18 0 .41 0 .46-.22a.45.45 0 0 0 0-.23z" fill="#fff"/><path fill="#976fe4" d="M65.29 34.84l5.69-1.73 2.58.66 1.02 12.42V57.6h-9.92l-.97-18.47 1.6-4.29z"/><path fill="#2b2046" d="M64.23 56.69H76.7v1.54H64.23z"/><path fill="#dfe2ec" d="M67.59 56.69h3.1v1.54h-3.1z"/><path d="M72.26 33l3.15.42a2 2 0 0 1 1.7 1.91l.11 6.74L75.45 48 78 59.25a5.74 5.74 0 0 1-6.19-4.32l-1.33-5.36a15.25 15.25 0 0 0 2.17-7.47L71.47 33z" fill="#623fe9"/><path d="M64.57 33.84l-3.84 2.56A1.66 1.66 0 0 0 60 38l2.23 22.2a7.76 7.76 0 0 0 7.57-6l.87-3.77.49-1.43-4-11.63z" fill="#623fe9"/><path fill="#4a2faf" d="M64.57 33.83l-.21 2.76 1.17.59-.59 1.13 5.8 10.66.24-.64-3.55-11.37-2.86-3.13z"/><path d="M72.26 33l1.23 2.39-.39.61.63.64s1 5.13-.22 7.43l-3 5.5a30.17 30.17 0 0 0 1.83-6.87l-1.19-9.77z" fill="#4a2faf"/><path d="M71.41 28.89a3 3 0 0 0-.26-1.22 2.22 2.22 0 0 0-.37-.44 2.15 2.15 0 0 0-.35-.32 3.06 3.06 0 0 0-.77-.32 8.52 8.52 0 0 0-.87-.22 6.84 6.84 0 0 0-1.43 0 4.37 4.37 0 0 0-1.07.19 3.24 3.24 0 0 0-1.44 1.55 2 2 0 0 0-.17.4 2.08 2.08 0 0 0 0 .61V31s-.1 0 0 .09a.62.62 0 0 0 .36.18 5.43 5.43 0 0 0 1.45.07 9.32 9.32 0 0 1 2.51.5l.57.2a3.55 3.55 0 0 0 .44.21 2.4 2.4 0 0 0 1.19 0 .54.54 0 0 0 .57-.5v-.84a20.17 20.17 0 0 0-.36-2.02z" fill="#413068"/><path d="M64.57 33.84l-4 2.64a1.68 1.68 0 0 0-.74 1.32l-.42 12.62 1.18 9.92h3l-.36-10.59.56-6.75z" fill="#623fe9"/><path d="M61.12 60.34v.81l-.43.45a1.56 1.56 0 0 0-.4.86l-.35 2.88a.36.36 0 0 0 .32.4h.16a.37.37 0 0 0 .36-.34l.08-1.28.21 1.32a.35.35 0 0 0 .36.3h.21a.37.37 0 0 0 .37-.36v-1.81h.05l.32 1.88a.34.34 0 0 0 .35.3h.1a.34.34 0 0 0 .36-.32v-.09l-.11-.89a.91.91 0 0 1 0-.33l.4-1.29.49.64a1 1 0 0 0 .61 1.17l-.08-2a1.31 1.31 0 0 0-.42-.89l-1-.86v-.59z" fill="#fff"/><path d="M65 29.62V34a1.31 1.31 0 0 0 .12.56L66.65 38a1.48 1.48 0 0 0 1.38.9 1.53 1.53 0 0 0 1.17-.56l1.8-2.58c.25-.3.09-.45.09-.84v-4.4c0-.38.14-.73-.19-.92l-2.35-1.41-2.92.67a.8.8 0 0 0-.63.76z" style="isolation:isolate" fill="#191c3c" opacity=".3"/><path d="M64.59 29.45v4.38a1.31 1.31 0 0 0 .12.56l1.52 3.41a1.5 1.5 0 0 0 1.37.9 1.44 1.44 0 0 0 1.17-.56l1.89-2.32a1.69 1.69 0 0 0 .34-1.07l.26-4.4c0-.38-.46-.73-.78-.92L68.13 28l-2.93.67a.79.79 0 0 0-.61.78z" fill="#fff"/><path d="M66.66 34.28a.31.31 0 0 1-.09-.38c.08-.19-.09-2-.07-2.19h-.06a8.36 8.36 0 0 1-.13 2.29.31.31 0 0 0 .1.39 1 1 0 0 0 .83.15 1 1 0 0 1-.58-.26z" style="isolation:isolate" fill="#212121" opacity=".3"/><path d="M71 31.75a1.56 1.56 0 0 1 .49-.5.43.43 0 0 1 .56.14.35.35 0 0 1 .06.24 2.36 2.36 0 0 1-.36 1s-.24.57-.74.59z" fill="#fff"/><path d="M71.42 28.78a1.55 1.55 0 0 0-.23-.91 1.64 1.64 0 0 0-.79-.44 8.12 8.12 0 0 0-3.4-.14 4.94 4.94 0 0 0-.55.15c-.18.08-.35.19-.53.25s-.51 0-.71.07-.39.51-.46.75a4.92 4.92 0 0 0-.14 1v.57h.07c.23-.06.35-.3.48-.51s.37-.4.58-.29a.93.93 0 0 1 .23.21 1.59 1.59 0 0 0 1.1.38 1.9 1.9 0 0 0 1.08-.1c.16-.07.29-.18.45-.25a1 1 0 0 1 1.29.58 1.42 1.42 0 0 1 0 .58v.6a.48.48 0 0 0 0 .17.34.34 0 0 0 .28.21 1.09 1.09 0 0 0 .36 0 5.61 5.61 0 0 0 0 .58v.21a1.22 1.22 0 0 1 0 .27 1 1 0 0 0 0 .25c0 .14.57.65.58.51 0-1-.06-1.89.38-2.17a11.9 11.9 0 0 0-.07-2.53z" fill="#413068"/><path d="M71.05 49.75a.24.24 0 0 1-.22.26.26.26 0 0 1-.31-.19.28.28 0 0 1 .21-.31h.1a.26.26 0 0 1 .22.24z" fill="#56408b"/><path d="M75.48 48.05h-.09.06l1.77-5.84v-.74c-.29.54-.9.77-1.11 1.36-.09.28 0 .43 0 .72s-.28.48-.41.79a5.94 5.94 0 0 0-.18 1.45v.74c-.1.85-.71.88-1.43.91a.46.46 0 0 0-.43.47.45.45 0 0 0 .32.41 4.15 4.15 0 0 1 1 .47c.46.37.44.76.46 1.29A10.85 10.85 0 0 0 76 52a7.55 7.55 0 0 0 1.31 3.55z" style="isolation:isolate" fill="#191c3c" opacity=".1"/><path d="M72.26 33l3.86.51a2.35 2.35 0 0 1 1.56.89l4.8 10a2.64 2.64 0 0 1 .18 1.81L80.38 55h-3.1L79 46l-3.71-7z" fill="#623fe9"/><path d="M63.67 59.62v-.75c0-.48 0-1.17-.06-2s-.14-1.78-.25-2.8-.23-2.07-.36-3.2a26.77 26.77 0 0 1-.16-3.23 22.06 22.06 0 0 1 .16-2.81 20.46 20.46 0 0 1 .4-2.32 5.42 5.42 0 0 0 0-.57 3.42 3.42 0 0 0 0-.64l.37 1.14a.76.76 0 0 1 0 .3 3 3 0 0 1-.13.54 7.81 7.81 0 0 0-.51 1.62 21.18 21.18 0 0 0-.13 2.75q0 1.62.12 3.21c.08 1.09.2 2.18.29 3.21s.18 2 .22 2.81 0 1.51 0 2v.56z" fill="#191c3c" opacity=".1"/><path d="M71 34.75l.07-1.39-.58-.43v1.7l-1.73 2V36l-1.15-.84-1.27.06-.63 1.3.56 1.25a1.51 1.51 0 0 0 2 .79 1.39 1.39 0 0 0 .56-.43l1.89-2.32a1.69 1.69 0 0 0 .28-1.06z" fill="#413068"/><path fill="#fff" d="M66.48 35.95l1.28-.05.54.5.15.89-.65.68h-.87l-.57-.5-.14-.88.26-.64z"/><path fill="#413068" d="M67.02 37.09h.63v1.19h-.63z"/><path fill="#56408b" d="M8.13 67.61h83.1v6.05H8.13z"/><path fill="#413068" d="M91.23 70.32l-83.1-1.43v-2.45h83.1v3.88z"/><path fill="#56408b" d="M5 65.35h90v2.04H5z"/><path d="M61.75 65.57H44.53a1.33 1.33 0 0 1-1.25-.8l-.43-.91h20.58l-.42.91a1.39 1.39 0 0 1-1.26.8z" fill="#dfe2ec"/><rect x="43.46" y="52.22" width="19.36" height="12.48" rx=".91" ry=".91" fill="#fff"/><path d="M54.52 58.86a1.38 1.38 0 1 1-1.39-1.37 1.39 1.39 0 0 1 1.39 1.37z" fill="#e6e7e8"/><path d="M12.69 60.15a1.14 1.14 0 0 1-1.18 0 4.47 4.47 0 0 1-1.19-.74 2.44 2.44 0 0 1-.86-1.52.51.51 0 0 1 .06-.38.47.47 0 0 1 .5-.11 1.45 1.45 0 0 1 .44.33.37.37 0 0 0 .2.12.16.16 0 0 0 .2-.07c.06-.11 0-.23-.14-.31s-.43-.29-.66-.45a2.08 2.08 0 0 1-.72-.78 1.17 1.17 0 0 1 0-1 .72.72 0 0 1 .14-.24.77.77 0 0 1 .52 0 2.68 2.68 0 0 0 .56.13c.45 0 .63-.27.62-.69a7.68 7.68 0 0 0-.11-.82 1.24 1.24 0 0 1 .66-1.22.92.92 0 0 1 1.21.44c.17.5-.22 1.07 0 1.55a1.39 1.39 0 0 0 .43.47c.24.15.6 0 .89 0h.18a.28.28 0 0 1 0 .13 1 1 0 0 1-.32 1c-.3.28-.82.41-.94.84-.08.26 0 .92.37.86.16 0 .27-.19.42-.24a.43.43 0 0 1 .48.24.73.73 0 0 1 0 .58A2.29 2.29 0 0 1 14 59a4.37 4.37 0 0 1-1.31 1.15z" fill="url(#a)"/><path fill="#56408b" d="M11.92 54.01h.29v6.14h-.29z"/><path fill="#56408b" d="M12.06 57.18l-1.29-1.29.2-.2 1.09 1.09 1.09-1.09.2.2-1.29 1.29zm0 2.39l-1.29-1.29.2-.2 1.09 1.09 1.09-1.09.2.2-1.29 1.29z"/><path d="M12.11 65.31a3.38 3.38 0 0 1-3.38-3.38v-1.77h6.75v1.77a3.37 3.37 0 0 1-3.36 3.38z" fill="#623fe9"/><path d="M14.33 60.16v1.77a3.36 3.36 0 0 1-2.8 3.33 2.81 2.81 0 0 0 .58 0 3.37 3.37 0 0 0 3.37-3.37v-1.73z" fill="#4a2faf"/><path d="M81.38 48.26a.42.42 0 0 0 .09-.16h.72l.38-1.46H78.9l-.4 2.12h1.94a1.09 1.09 0 0 0 .94-.5zm.55.19a1.23 1.23 0 0 0 .07.39l.1-.39z" style="isolation:isolate" fill="#191c3c" opacity=".3"/><path d="M77.13 48.32h3.31a1.13 1.13 0 0 0 1.14-1.12H76a1.13 1.13 0 0 0 1.13 1.12z" fill="#d1d3d4"/><path d="M77.13 48.08h3.31a1.11 1.11 0 0 0 1.11-.89 1.13 1.13 0 0 1-1.13 1.13h-3.29A1.13 1.13 0 0 1 76 47.19a1.11 1.11 0 0 0 1.13.89z" fill="#fff"/><path fill="#191c3c" d="M82.62 47.19h.57v1.47h-.57z"/><path fill="#56408b" d="M84.06 48.49h.57v1.47h-.57z"/><path fill="#56408b" d="M83.89 48.67h1.47v.57h-1.47zm-8.76-1.01h8.27v-1.45h-6.81a1.46 1.46 0 0 0-1.46 1.44z"/><path d="M76.51 46.77a1.46 1.46 0 0 0-1.35.89 1.45 1.45 0 0 1 1.45-1.45h6.79v.56z" fill="#7866a2"/><path d="M81.93 48h2.83v1.3h-1.53a1.3 1.3 0 0 1-1.3-1.3zm3.063 1.066l.313-.196 4.532 7.227-.314.196zm-.801.824l.314-.196 4.06 6.508-.315.196z" fill="#56408b"/><path fill="#56408b" d="M84.01 63.415l4.532-7.226.313.196-4.531 7.227zm1.267.091L89.337 57l.314.196-4.06 6.507z"/><path d="M89.13 56.68a.61.61 0 0 0 .61.61.6.6 0 0 0 .68-.51.61.61 0 0 0-.52-.69h-.16a.61.61 0 0 0-.61.59z" fill="#56408b"/><path fill="#56408b" d="M88.3 56.07h1.48v1.21H88.3z"/><path d="M87.69 56.68a.6.6 0 0 0 .58.62.61.61 0 0 0 .62-.6.61.61 0 0 0-.6-.62.6.6 0 0 0-.62.58z" fill="#7866a2"/><path d="M85.15 63.35a.61.61 0 1 0 1.22 0 .61.61 0 0 0-.61-.61.6.6 0 0 0-.6.6z" fill="#56408b"/><path fill="#56408b" d="M84.31 62.74h1.48v1.21h-1.48z"/><path d="M83.7 63.35a.61.61 0 0 0 1.22 0 .61.61 0 0 0-1.22 0z" fill="#7866a2"/><path d="M81.55 65.28h6.77a1.39 1.39 0 0 0-1.39-1.39h-4a1.39 1.39 0 0 0-1.39 1.39z" fill="#56408b"/><path style="isolation:isolate" fill="#191c3c" opacity=".3" d="M80.35 59.76h-4.42l-1.7 5.52h5.89l-.64-2.72.87-2.8z"/><path fill="#413068" d="M79.94 65.28h.7l-.7-2.96-2.56 2.96h2.56z"/><path fill="#56408b" d="M79.16 65.28h-3.99l1.71-5.52h3.98l-1.7 5.52z"/><path fill="#7866a2" d="M78.74 65.28h-3.99l1.7-5.52h3.99l-1.7 5.52z"/><path fill="#5ddaf4" d="M78.44 64.56h-2.95l1.26-4.07h2.94l-1.25 4.07z"/><path fill="#46a4b7" d="M75.71 64.45l1.22-3.96h-.18l-1.26 4.07h2.95l.03-.11h-2.76z"/></svg>