<svg xmlns="http://www.w3.org/2000/svg" viewBox="0 0 100 100"><path fill="none" d="M0 0h100v100H0z"/><path d="M36.06 75.91l-12-12a1.51 1.51 0 0 0-2.12 0l-4.5 4.5a1.51 1.51 0 0 0 0 2.12l12 12a1.49 1.49 0 0 0 2.12 0l4.5-4.5a1.49 1.49 0 0 0 0-2.12zm-5.56 3.44l-9.88-9.88L23 67.1l9.88 9.9z"/><path d="M93.5 17.6a5.12 5.12 0 0 0 0-7.24l-3.88-3.88a5.25 5.25 0 0 0-7.24 0l-.88.88-1.94-1.94-2.12 2.12 1.94 1.94L77 11.86l-1.94-1.94L72.94 12l2 2a5.07 5.07 0 0 0-.94 3 5.42 5.42 0 0 0 .08.8l-20 20-1.23-1.23a10.47 10.47 0 0 0-14.81 0l-4.22 4.22A19.42 19.42 0 0 1 24.45 46l-2.06.47a22.44 22.44 0 0 0-10.82 37.68l4.26 4.25a22.44 22.44 0 0 0 37.72-10.81l.45-2.06a19.44 19.44 0 0 1 5.19-9.37l4.22-4.22a10.47 10.47 0 0 0 0-14.81L62.2 45.9l20-20a7 7 0 0 0 .8.1 5.09 5.09 0 0 0 2.94-1l2 2 2.12-2.12L88.12 23l2.38-2.4 1.94 1.94 2.12-2.12-1.94-1.94zM61.31 59.82L57.09 64a22.48 22.48 0 0 0-6 10.82l-.47 2A19.42 19.42 0 0 1 18 86.28L13.7 82a19.44 19.44 0 0 1 9.37-32.68l2.05-.47a22.32 22.32 0 0 0 10.82-6l4.22-4.22a7.47 7.47 0 0 1 10.57 0L52 39.89 44.84 47H44a9 9 0 1 0 9 9 7.56 7.56 0 0 0 0-.83L60.08 48l1.23 1.23a7.47 7.47 0 0 1 0 10.59zm-13.07-8.09a6 6 0 0 1 0 8.49 6.15 6.15 0 0 1-8.48 0 6 6 0 1 1 8.48-8.49zm3.76.12A8.9 8.9 0 0 0 48.12 48L75.5 20.6l3.88 3.88zm39.38-36.37l-6.88 6.87a2.17 2.17 0 0 1-3 0l-3.88-3.88a2.12 2.12 0 0 1 0-3L84.5 8.6a2.12 2.12 0 0 1 3 0l3.88 3.88a2.12 2.12 0 0 1 0 3z"/></svg>