<svg xmlns="http://www.w3.org/2000/svg" viewBox="0 0 100 100"><path fill="none" d="M0 0h100v100H0z"/><path d="M87.5 27.5v-3A1.5 1.5 0 0 0 86 23h-9a1.5 1.5 0 0 0-1.5 1.5v3h-5.07l-5.58-11.17a1.51 1.51 0 0 0-1.35-.83h-27a1.49 1.49 0 0 0-1.34.83L29.57 27.5H24.5v-3A1.5 1.5 0 0 0 23 23h-9a1.5 1.5 0 0 0-1.5 1.5v3A7.5 7.5 0 0 0 5 35v42a7.5 7.5 0 0 0 7.5 7.5h75A7.5 7.5 0 0 0 95 77V35a7.5 7.5 0 0 0-7.5-7.5zm-9-1.5h6v1.5h-6zm-41.07-7.5h25.14l4.5 9H32.93zM15.5 26h6v1.5h-6zM8 42.5h24a22.35 22.35 0 0 0 0 27H8zm42-6A19.5 19.5 0 1 1 30.5 56 19.5 19.5 0 0 1 50 36.5zM92 77a4.49 4.49 0 0 1-4.5 4.5h-75A4.49 4.49 0 0 1 8 77v-4.5h26.75a22.38 22.38 0 0 0 30.5 0H92zm0-7.5H68a22.35 22.35 0 0 0 0-27h24zm0-30H65.25a22.38 22.38 0 0 0-30.5 0H8V35a4.49 4.49 0 0 1 4.5-4.5h75A4.49 4.49 0 0 1 92 35z"/><path d="M50 41.9A14.12 14.12 0 0 0 35.9 56a1.5 1.5 0 0 0 3 0A11.11 11.11 0 0 1 50 44.9a1.5 1.5 0 0 0 0-3zM23 33.5h-9a1.5 1.5 0 0 0 0 3h9a1.5 1.5 0 0 0 0-3z"/></svg>