<svg xmlns="http://www.w3.org/2000/svg" viewBox="0 0 100 100"><path fill="none" d="M0 0h100v100H0z"/><path d="M95 61.3c-.3-5.5-1.1-10.9-2.5-16.3-1.1-4.7-2.8-9.3-5-13.7-7.8-13.8-16.4-11.6-26.6-9-3.4.9-6.8 1.6-10.3 2h-1.2c-3.5-.4-6.9-1.1-10.3-2-10.2-2.6-18.7-4.8-26.6 9.1-2.3 4.3-4 8.9-5 13.7C6.2 50.5 5.3 56 5.1 61.4c-.2 5.7.3 9.9 1.6 12.8.9 2.4 2.9 4.2 5.4 5 2.4.6 4.9.3 7.2-.8 4.4-1.8 9.4-5.6 14.4-10.2 3.5-3.4 10-5 16.5-5s13 1.7 16.5 5c4.9 4.6 10 8.4 14.3 10.2 2.2 1 4.8 1.3 7.2.8 2.5-.8 4.5-2.7 5.4-5.2 1-2.7 1.6-6.8 1.4-12.7zm-5.4 11.2c-.4 1.3-1.4 2.3-2.7 2.8-1.6.3-3.2.1-4.6-.6-3.9-1.6-8.5-5-13-9.3-4.3-4.2-11.8-6.3-19.3-6.3s-15 2.1-19.4 6.2c-4.6 4.3-9.2 7.8-13 9.3-1.8.7-3.4 1-4.6.6-1.3-.5-2.3-1.5-2.7-2.8-.9-2.2-1.3-5.7-1.1-10.9.3-5.2 1-10.4 2.3-15.5 1-4.4 2.6-8.7 4.7-12.7 6.2-11.1 13.3-9.3 21.9-7.1 3.6 1 7.3 1.7 11 2.1h1.7c3.8-.4 7.5-1.1 11.1-2.1 8.5-2.1 15.7-4 21.9 7.1 2.1 4 3.7 8.3 4.7 12.7 1.3 5.1 2 10.3 2.3 15.5.2 5.2-.2 8.7-1.2 11z"/><path d="M39.7 39.5c-1.1-1.1-2.5-1.7-4-1.9-.1-1.5-.8-2.9-1.8-3.9l-.1-.1c-1.2-1.2-2.9-1.9-4.6-1.9-1.7 0-3.4.7-4.6 1.9-1.1 1.1-1.8 2.5-1.9 4-1.5.1-2.9.8-4 1.8l-.1.1c-1.2 1.2-1.9 2.9-1.9 4.6 0 1.7.7 3.4 1.9 4.6 1.1 1.1 2.6 1.8 4.1 1.9.1 1.5.8 3 1.9 4 1.2 1.2 2.9 1.9 4.6 1.9 1.7 0 3.4-.7 4.6-1.9 1.1-1.1 1.7-2.5 1.9-4 1.5-.1 3-.8 4-1.9 1.2-1.2 1.9-2.9 1.9-4.6 0-1.8-.7-3.4-1.9-4.6zm-2.8 6.2c-.4.5-1 .7-1.7.7h-1.6c-1.2 0-2.1.9-2.1 2.1V50c0 .6-.2 1.2-.7 1.7-.9.9-2.4.9-3.4 0-.4-.4-.7-1.1-.7-1.7v-1.6c0-1.2-1-2.1-2.1-2.1H23c-.6 0-1.2-.2-1.7-.7-.9-.9-.9-2.4 0-3.3l.1-.1c.4-.4 1-.5 1.6-.6h1.6c1.2 0 2.1-1 2.1-2.1V38c0-.6.2-1.2.7-1.7.9-.9 2.4-.9 3.4 0l.1.1c.4.4.5 1 .6 1.6v1.6c0 1.2 1 2.1 2.1 2.1h1.6c.6 0 1.2.2 1.7.7.9.9.9 2.4 0 3.3z"/><circle cx="69.5" cy="36.1" r="3.9"/><circle cx="69.5" cy="52" r="3.9"/><circle cx="61.5" cy="44.1" r="3.9"/><circle cx="77.5" cy="44.1" r="3.9"/></svg>