<svg xmlns="http://www.w3.org/2000/svg" viewBox="0 0 90 88.99"><title>blank</title><path d="M94.61,89.21,79,58.34l13.15-26a3.64,3.64,0,0,0-6.5-3.29L74.9,50.28,53.24,7.48h0a3.78,3.78,0,0,0-.86-1.1s0,0,0,0A3.76,3.76,0,0,0,51.9,6l-.17-.11-.08,0-.32-.12-.27-.11a2.7,2.7,0,0,0-.39-.08l-.31-.06h-.73l-.28,0a3.2,3.2,0,0,0-.42.1l-.24.09a2.37,2.37,0,0,0-.34.13l-.09.06L48.1,6a4.27,4.27,0,0,0-.44.3.08.08,0,0,1,0,0,3.65,3.65,0,0,0-.86,1.1h0L5.39,89.21A3.64,3.64,0,0,0,7,94.1a3.58,3.58,0,0,0,1.64.4,3.63,3.63,0,0,0,3.25-2L27.4,61.86H46.23a3.64,3.64,0,0,0,0-7.28H31.08L50,17.2,70.82,58.34,55.2,89.19a3.64,3.64,0,0,0,1.61,4.89,3.62,3.62,0,0,0,4.89-1.6L74.9,66.4,88.11,92.5a3.63,3.63,0,0,0,3.25,2A3.58,3.58,0,0,0,93,94.1,3.64,3.64,0,0,0,94.61,89.21Z" transform="translate(-5 -5.5)" style="fill:#6400fa"/></svg>