<svg xmlns="http://www.w3.org/2000/svg" xmlns:xlink="http://www.w3.org/1999/xlink" viewBox="0 0 100 100"><defs><filter id="b" x="44.75" y="-8626" width="9.99" height="32766" filterUnits="userSpaceOnUse" color-interpolation-filters="sRGB"><feFlood flood-color="#fff" result="bg"/><feBlend in="SourceGraphic" in2="bg"/></filter><mask id="a" x="44.75" y="-8626" width="9.99" height="32766" maskUnits="userSpaceOnUse"><g style="filter:url(#b)"/></mask><linearGradient id="c" x1="-8339.07" y1="-2174.94" x2="-8339.07" y2="-2198.29" gradientTransform="translate(-8289.33 -2169.17) rotate(180)" gradientUnits="userSpaceOnUse"><stop offset="0"/><stop offset="1" stop-color="#fff"/></linearGradient><filter id="e" x="12.81" y="-8626" width="33.45" height="32766" filterUnits="userSpaceOnUse" color-interpolation-filters="sRGB"><feFlood flood-color="#fff" result="bg"/><feBlend in="SourceGraphic" in2="bg"/></filter><mask id="d" x="12.81" y="-8626" width="33.45" height="32766" maskUnits="userSpaceOnUse"><g style="filter:url(#e)"/></mask><linearGradient id="f" x1="-2876.64" y1="-5112.92" x2="-2876.64" y2="-5136.27" gradientTransform="translate(-4521.39 3768.98) rotate(80)" xlink:href="#c"/><filter id="h" x="15.65" y="-8626" width="31.15" height="32766" filterUnits="userSpaceOnUse" color-interpolation-filters="sRGB"><feFlood flood-color="#fff" result="bg"/><feBlend in="SourceGraphic" in2="bg"/></filter><mask id="g" x="15.65" y="-8626" width="31.15" height="32766" maskUnits="userSpaceOnUse"><g style="filter:url(#h)"/></mask><linearGradient id="i" x1="-1680.93" y1="-4373.27" x2="-1680.93" y2="-4396.62" gradientTransform="translate(-2927.98 3702.55) rotate(60)" xlink:href="#c"/><filter id="k" x="22.63" y="-8626" width="25.09" height="32766" filterUnits="userSpaceOnUse" color-interpolation-filters="sRGB"><feFlood flood-color="#fff" result="bg"/><feBlend in="SourceGraphic" in2="bg"/></filter><mask id="j" x="22.63" y="-8626" width="25.09" height="32766" maskUnits="userSpaceOnUse"><g style="filter:url(#k)"/></mask><linearGradient id="l" x1="-809.83" y1="-3269.82" x2="-809.83" y2="-3293.17" gradientTransform="matrix(0.77, 0.64, -0.64, 0.77, -1454.56, 3095.04)" xlink:href="#c"/><filter id="n" x="32.91" y="-8626" width="16.01" height="32766" filterUnits="userSpaceOnUse" color-interpolation-filters="sRGB"><feFlood flood-color="#fff" result="bg"/><feBlend in="SourceGraphic" in2="bg"/></filter><mask id="m" x="32.91" y="-8626" width="16.01" height="32766" maskUnits="userSpaceOnUse"><g style="filter:url(#n)"/></mask><linearGradient id="o" x1="-369.48" y1="-1934.51" x2="-369.48" y2="-1957.86" gradientTransform="matrix(0.94, 0.34, -0.34, 0.94, -276.53, 2020.22)" xlink:href="#c"/><filter id="q" x="45.26" y="-8626" width="9.99" height="32766" filterUnits="userSpaceOnUse" color-interpolation-filters="sRGB"><feFlood flood-color="#fff" result="bg"/><feBlend in="SourceGraphic" in2="bg"/></filter><mask id="p" x="45.26" y="-8626" width="9.99" height="32766" maskUnits="userSpaceOnUse"><g style="filter:url(#q)"/></mask><linearGradient id="r" x1="-411.72" y1="-529.39" x2="-411.72" y2="-552.74" gradientTransform="translate(461.98 607.48)" xlink:href="#c"/><filter id="t" x="32.43" y="-8626" width="16.01" height="32766" filterUnits="userSpaceOnUse" color-interpolation-filters="sRGB"><feFlood flood-color="#fff" result="bg"/><feBlend in="SourceGraphic" in2="bg"/></filter><mask id="s" x="32.43" y="-8626" width="16.01" height="32766" maskUnits="userSpaceOnUse"><g style="filter:url(#t)"/></mask><linearGradient id="u" x1="-7818.54" y1="-3480.97" x2="-7818.54" y2="-3504.32" gradientTransform="matrix(-0.94, 0.34, -0.34, -0.94, -8500.18, -589.09)" xlink:href="#c"/><filter id="w" x="51.56" y="-8626" width="16.01" height="32766" filterUnits="userSpaceOnUse" color-interpolation-filters="sRGB"><feFlood flood-color="#fff" result="bg"/><feBlend in="SourceGraphic" in2="bg"/></filter><mask id="v" x="51.56" y="-8626" width="16.01" height="32766" maskUnits="userSpaceOnUse"><g style="filter:url(#w)"/></mask><linearGradient id="x" x1="-931.98" y1="776.51" x2="-931.98" y2="753.16" gradientTransform="matrix(0.94, -0.34, 0.34, 0.94, 672.83, -972.6)" xlink:href="#c"/><filter id="z" x="52.67" y="-8626" width="25.09" height="32766" filterUnits="userSpaceOnUse" color-interpolation-filters="sRGB"><feFlood flood-color="#fff" result="bg"/><feBlend in="SourceGraphic" in2="bg"/></filter><mask id="y" x="52.67" y="-8626" width="25.09" height="32766" maskUnits="userSpaceOnUse"><g style="filter:url(#z)"/></mask><linearGradient id="aa" x1="-1868.13" y1="1826.38" x2="-1868.13" y2="1803.03" gradientTransform="matrix(0.77, -0.64, 0.64, 0.77, 330.43, -2530.38)" xlink:href="#c"/><filter id="ac" x="53.46" y="-8626" width="31.15" height="32766" filterUnits="userSpaceOnUse" color-interpolation-filters="sRGB"><feFlood flood-color="#fff" result="bg"/><feBlend in="SourceGraphic" in2="bg"/></filter><mask id="ab" x="53.46" y="-8626" width="31.15" height="32766" maskUnits="userSpaceOnUse"><g style="filter:url(#ac)"/></mask><linearGradient id="ad" x1="-3105.88" y1="2492.04" x2="-3105.88" y2="2468.69" gradientTransform="translate(-523.72 -3875.92) rotate(-60)" xlink:href="#c"/><filter id="af" x="53.83" y="-8626" width="33.45" height="32766" filterUnits="userSpaceOnUse" color-interpolation-filters="sRGB"><feFlood flood-color="#fff" result="bg"/><feBlend in="SourceGraphic" in2="bg"/></filter><mask id="ae" x="53.83" y="-8626" width="33.45" height="32766" maskUnits="userSpaceOnUse"><g style="filter:url(#af)"/></mask><linearGradient id="ag" x1="-4497.83" y1="2694.47" x2="-4497.83" y2="2671.12" gradientTransform="translate(-1787.04 -4849.26) rotate(-80)" xlink:href="#c"/><filter id="ai" x="53.74" y="-8626" width="33.45" height="32766" filterUnits="userSpaceOnUse" color-interpolation-filters="sRGB"><feFlood flood-color="#fff" result="bg"/><feBlend in="SourceGraphic" in2="bg"/></filter><mask id="ah" x="53.74" y="-8626" width="33.45" height="32766" maskUnits="userSpaceOnUse"><g style="filter:url(#ai)"/></mask><linearGradient id="aj" x1="-5873.47" y1="2408.51" x2="-5873.47" y2="2385.16" gradientTransform="translate(-3305.97 -5330.67) rotate(-100)" xlink:href="#c"/><filter id="al" x="53.2" y="-8626" width="31.15" height="32766" filterUnits="userSpaceOnUse" color-interpolation-filters="sRGB"><feFlood flood-color="#fff" result="bg"/><feBlend in="SourceGraphic" in2="bg"/></filter><mask id="ak" x="53.2" y="-8626" width="31.15" height="32766" maskUnits="userSpaceOnUse"><g style="filter:url(#al)"/></mask><linearGradient id="am" x1="-7069.89" y1="1669.3" x2="-7069.89" y2="1645.95" gradientTransform="translate(-4899.37 -5264.25) rotate(-120)" xlink:href="#c"/><filter id="ao" x="52.28" y="-8626" width="25.09" height="32766" filterUnits="userSpaceOnUse" color-interpolation-filters="sRGB"><feFlood flood-color="#fff" result="bg"/><feBlend in="SourceGraphic" in2="bg"/></filter><mask id="an" x="52.28" y="-8626" width="25.09" height="32766" maskUnits="userSpaceOnUse"><g style="filter:url(#ao)"/></mask><linearGradient id="ap" x1="-7940.32" y1="565.59" x2="-7940.32" y2="542.24" gradientTransform="matrix(-0.77, -0.64, 0.64, -0.77, -6372.79, -4656.73)" xlink:href="#c"/><filter id="ar" x="51.07" y="-8626" width="16.01" height="32766" filterUnits="userSpaceOnUse" color-interpolation-filters="sRGB"><feFlood flood-color="#fff" result="bg"/><feBlend in="SourceGraphic" in2="bg"/></filter><mask id="aq" x="51.07" y="-8626" width="16.01" height="32766" maskUnits="userSpaceOnUse"><g style="filter:url(#ar)"/></mask><linearGradient id="as" x1="-8381.59" y1="-769.69" x2="-8381.59" y2="-793.04" gradientTransform="matrix(-0.94, -0.34, 0.34, -0.94, -7550.82, -3581.92)" xlink:href="#c"/><filter id="au" x="22.24" y="-8626" width="25.09" height="32766" filterUnits="userSpaceOnUse" color-interpolation-filters="sRGB"><feFlood flood-color="#fff" result="bg"/><feBlend in="SourceGraphic" in2="bg"/></filter><mask id="at" x="22.24" y="-8626" width="25.09" height="32766" maskUnits="userSpaceOnUse"><g style="filter:url(#au)"/></mask><linearGradient id="av" x1="-6882.99" y1="-4530.15" x2="-6882.99" y2="-4553.5" gradientTransform="matrix(-0.77, 0.64, -0.64, -0.77, -8157.79, 968.69)" xlink:href="#c"/><filter id="ax" x="15.39" y="-8626" width="31.15" height="32766" filterUnits="userSpaceOnUse" color-interpolation-filters="sRGB"><feFlood flood-color="#fff" result="bg"/><feBlend in="SourceGraphic" in2="bg"/></filter><mask id="aw" x="15.39" y="-8626" width="31.15" height="32766" maskUnits="userSpaceOnUse"><g style="filter:url(#ax)"/></mask><linearGradient id="ay" x1="-5644.62" y1="-5196.17" x2="-5644.62" y2="-5219.52" gradientTransform="translate(-7303.63 2314.23) rotate(120)" xlink:href="#c"/><filter id="ba" x="12.72" y="-8626" width="33.45" height="32766" filterUnits="userSpaceOnUse" color-interpolation-filters="sRGB"><feFlood flood-color="#fff" result="bg"/><feBlend in="SourceGraphic" in2="bg"/></filter><mask id="az" x="12.72" y="-8626" width="33.45" height="32766" maskUnits="userSpaceOnUse"><g style="filter:url(#ba)"/></mask><linearGradient id="bb" x1="-4253.46" y1="-5398.31" x2="-4253.46" y2="-5421.66" gradientTransform="translate(-6040.32 3287.57) rotate(100)" xlink:href="#c"/><filter id="bd" x="44.75" y="5" width="9.99" height="33.08" filterUnits="userSpaceOnUse" color-interpolation-filters="sRGB"><feFlood flood-color="#fff" result="bg"/><feBlend in="SourceGraphic" in2="bg"/></filter><mask id="bc" x="44.75" y="5" width="9.99" height="33.08" maskUnits="userSpaceOnUse"><g style="mask:url(#a);filter:url(#bd)"><polygon points="49.74 38.09 47.24 21.54 44.75 5 49.74 5 54.74 5 52.24 21.54 49.74 38.09" style="mix-blend-mode:multiply;fill:url(#c)"/></g></mask><linearGradient id="be" x1="-8339.07" y1="-2174.94" x2="-8339.07" y2="-2198.29" gradientTransform="translate(-8289.33 -2169.17) rotate(180)" gradientUnits="userSpaceOnUse"><stop offset="0" stop-color="#fff"/><stop offset="1" stop-color="#fff"/></linearGradient><filter id="bg" x="32.43" y="5.61" width="16.01" height="32.8" filterUnits="userSpaceOnUse" color-interpolation-filters="sRGB"><feFlood flood-color="#fff" result="bg"/><feBlend in="SourceGraphic" in2="bg"/></filter><mask id="bf" x="32.43" y="5.61" width="16.01" height="32.8" maskUnits="userSpaceOnUse"><g style="mask:url(#s);filter:url(#bg)"><polygon points="48.44 38.4 40.44 23.71 32.43 9.02 37.13 7.31 41.82 5.61 45.13 22 48.44 38.4" style="mix-blend-mode:multiply;fill:url(#u)"/></g></mask><linearGradient id="bh" x1="-7818.54" y1="-3480.97" x2="-7818.54" y2="-3504.32" gradientTransform="matrix(-0.94, 0.34, -0.34, -0.94, -8500.18, -589.09)" xlink:href="#be"/><filter id="bj" x="22.24" y="10.59" width="25.09" height="28.56" filterUnits="userSpaceOnUse" color-interpolation-filters="sRGB"><feFlood flood-color="#fff" result="bg"/><feBlend in="SourceGraphic" in2="bg"/></filter><mask id="bi" x="22.24" y="10.59" width="25.09" height="28.56" maskUnits="userSpaceOnUse"><g style="mask:url(#at);filter:url(#bj)"><polygon points="47.33 39.15 34.78 28.08 22.24 17.02 26.07 13.8 29.89 10.59 38.61 24.87 47.33 39.15" style="mix-blend-mode:multiply;fill:url(#av)"/></g></mask><linearGradient id="bk" x1="-6882.99" y1="-4530.15" x2="-6882.99" y2="-4553.5" gradientTransform="matrix(-0.77, 0.64, -0.64, -0.77, -8157.79, 968.69)" xlink:href="#be"/><filter id="bm" x="15.39" y="19.36" width="31.15" height="20.87" filterUnits="userSpaceOnUse" color-interpolation-filters="sRGB"><feFlood flood-color="#fff" result="bg"/><feBlend in="SourceGraphic" in2="bg"/></filter><mask id="bl" x="15.39" y="19.36" width="31.15" height="20.87" maskUnits="userSpaceOnUse"><g style="mask:url(#aw);filter:url(#bm)"><polygon points="46.54 40.23 30.96 34.12 15.39 28.02 17.89 23.69 20.39 19.36 33.46 29.8 46.54 40.23" style="mix-blend-mode:multiply;fill:url(#ay)"/></g></mask><linearGradient id="bn" x1="-5644.62" y1="-5196.17" x2="-5644.62" y2="-5219.52" gradientTransform="translate(-7303.63 2314.23) rotate(120)" xlink:href="#be"/><filter id="bp" x="12.72" y="30.85" width="33.45" height="10.66" filterUnits="userSpaceOnUse" color-interpolation-filters="sRGB"><feFlood flood-color="#fff" result="bg"/><feBlend in="SourceGraphic" in2="bg"/></filter><mask id="bo" x="12.72" y="30.85" width="33.45" height="10.66" maskUnits="userSpaceOnUse"><g style="mask:url(#az);filter:url(#bp)"><polygon points="46.17 41.52 29.44 41.1 12.72 40.69 13.59 35.77 14.45 30.85 30.31 36.18 46.17 41.52" style="mix-blend-mode:multiply;fill:url(#bb)"/></g></mask><linearGradient id="bq" x1="-4253.46" y1="-5398.31" x2="-4253.46" y2="-5421.66" gradientTransform="translate(-6040.32 3287.57) rotate(100)" xlink:href="#be"/><filter id="bs" x="12.81" y="42.85" width="33.45" height="10.67" filterUnits="userSpaceOnUse" color-interpolation-filters="sRGB"><feFlood flood-color="#fff" result="bg"/><feBlend in="SourceGraphic" in2="bg"/></filter><mask id="br" x="12.81" y="42.85" width="33.45" height="10.67" maskUnits="userSpaceOnUse"><g style="mask:url(#d);filter:url(#bs)"><polygon points="46.26 42.85 30.4 48.18 14.54 53.52 13.67 48.6 12.81 43.68 29.53 43.26 46.26 42.85" style="mix-blend-mode:multiply;fill:url(#f)"/></g></mask><linearGradient id="bt" x1="-2876.64" y1="-5112.92" x2="-2876.64" y2="-5136.27" gradientTransform="translate(-4521.39 3768.98) rotate(80)" xlink:href="#be"/><filter id="bv" x="15.65" y="44.08" width="31.15" height="20.87" filterUnits="userSpaceOnUse" color-interpolation-filters="sRGB"><feFlood flood-color="#fff" result="bg"/><feBlend in="SourceGraphic" in2="bg"/></filter><mask id="bu" x="15.65" y="44.08" width="31.15" height="20.87" maskUnits="userSpaceOnUse"><g style="mask:url(#g);filter:url(#bv)"><polygon points="46.8 44.08 33.72 54.51 20.64 64.94 18.14 60.62 15.65 56.29 31.22 50.18 46.8 44.08" style="mix-blend-mode:multiply;fill:url(#i)"/></g></mask><linearGradient id="bw" x1="-1680.93" y1="-4373.27" x2="-1680.93" y2="-4396.62" gradientTransform="translate(-2927.98 3702.55) rotate(60)" xlink:href="#be"/><filter id="by" x="22.63" y="45.04" width="25.09" height="28.56" filterUnits="userSpaceOnUse" color-interpolation-filters="sRGB"><feFlood flood-color="#fff" result="bg"/><feBlend in="SourceGraphic" in2="bg"/></filter><mask id="bx" x="22.63" y="45.04" width="25.09" height="28.56" maskUnits="userSpaceOnUse"><g style="mask:url(#j);filter:url(#by)"><polygon points="47.72 45.04 39 59.32 30.29 73.6 26.46 70.39 22.63 67.17 35.18 56.11 47.72 45.04" style="mix-blend-mode:multiply;fill:url(#l)"/></g></mask><linearGradient id="bz" x1="-809.83" y1="-3269.82" x2="-809.83" y2="-3293.17" gradientTransform="matrix(0.77, 0.64, -0.64, 0.77, -1454.56, 3095.04)" xlink:href="#be"/><filter id="cb" x="32.91" y="45.63" width="16.01" height="32.8" filterUnits="userSpaceOnUse" color-interpolation-filters="sRGB"><feFlood flood-color="#fff" result="bg"/><feBlend in="SourceGraphic" in2="bg"/></filter><mask id="ca" x="32.91" y="45.63" width="16.01" height="32.8" maskUnits="userSpaceOnUse"><g style="mask:url(#m);filter:url(#cb)"><polygon points="48.92 45.63 45.62 62.03 42.3 78.43 37.61 76.72 32.91 75.01 40.92 60.32 48.92 45.63" style="mix-blend-mode:multiply;fill:url(#o)"/></g></mask><linearGradient id="cc" x1="-369.48" y1="-1934.51" x2="-369.48" y2="-1957.86" gradientTransform="matrix(0.94, 0.34, -0.34, 0.94, -276.53, 2020.22)" xlink:href="#be"/><filter id="ce" x="45.26" y="45.78" width="9.99" height="33.08" filterUnits="userSpaceOnUse" color-interpolation-filters="sRGB"><feFlood flood-color="#fff" result="bg"/><feBlend in="SourceGraphic" in2="bg"/></filter><mask id="cd" x="45.26" y="45.78" width="9.99" height="33.08" maskUnits="userSpaceOnUse"><g style="mask:url(#p);filter:url(#ce)"><polygon points="50.26 45.78 52.75 62.32 55.25 78.86 50.26 78.86 45.26 78.86 47.76 62.32 50.26 45.78" style="mix-blend-mode:multiply;fill:url(#r)"/></g></mask><linearGradient id="cf" x1="-411.72" y1="-529.39" x2="-411.72" y2="-552.74" gradientTransform="translate(461.98 607.48)" xlink:href="#be"/><filter id="ch" x="51.56" y="45.46" width="16.01" height="32.8" filterUnits="userSpaceOnUse" color-interpolation-filters="sRGB"><feFlood flood-color="#fff" result="bg"/><feBlend in="SourceGraphic" in2="bg"/></filter><mask id="cg" x="51.56" y="45.46" width="16.01" height="32.8" maskUnits="userSpaceOnUse"><g style="mask:url(#v);filter:url(#ch)"><polygon points="51.56 45.46 59.56 60.15 67.57 74.84 62.87 76.55 58.18 78.26 54.87 61.86 51.56 45.46" style="mix-blend-mode:multiply;fill:url(#x)"/></g></mask><linearGradient id="ci" x1="-931.98" y1="776.51" x2="-931.98" y2="753.16" gradientTransform="matrix(0.94, -0.34, 0.34, 0.94, 672.83, -972.6)" xlink:href="#be"/><filter id="ck" x="52.67" y="44.71" width="25.09" height="28.56" filterUnits="userSpaceOnUse" color-interpolation-filters="sRGB"><feFlood flood-color="#fff" result="bg"/><feBlend in="SourceGraphic" in2="bg"/></filter><mask id="cj" x="52.67" y="44.71" width="25.09" height="28.56" maskUnits="userSpaceOnUse"><g style="mask:url(#y);filter:url(#ck)"><polygon points="52.67 44.71 65.22 55.78 77.76 66.85 73.94 70.06 70.11 73.27 61.39 58.99 52.67 44.71" style="mix-blend-mode:multiply;fill:url(#aa)"/></g></mask><linearGradient id="cl" x1="-1868.13" y1="1826.38" x2="-1868.13" y2="1803.03" gradientTransform="matrix(0.77, -0.64, 0.64, 0.77, 330.43, -2530.38)" xlink:href="#be"/><filter id="cn" x="53.46" y="43.63" width="31.15" height="20.87" filterUnits="userSpaceOnUse" color-interpolation-filters="sRGB"><feFlood flood-color="#fff" result="bg"/><feBlend in="SourceGraphic" in2="bg"/></filter><mask id="cm" x="53.46" y="43.63" width="31.15" height="20.87" maskUnits="userSpaceOnUse"><g style="mask:url(#ab);filter:url(#cn)"><polygon points="53.46 43.63 69.03 49.74 84.61 55.85 82.11 60.17 79.61 64.5 66.54 54.07 53.46 43.63" style="mix-blend-mode:multiply;fill:url(#ad)"/></g></mask><linearGradient id="co" x1="-3105.88" y1="2492.04" x2="-3105.88" y2="2468.69" gradientTransform="translate(-523.72 -3875.92) rotate(-60)" xlink:href="#be"/><filter id="cq" x="53.83" y="42.35" width="33.45" height="10.67" filterUnits="userSpaceOnUse" color-interpolation-filters="sRGB"><feFlood flood-color="#fff" result="bg"/><feBlend in="SourceGraphic" in2="bg"/></filter><mask id="cp" x="53.83" y="42.35" width="33.45" height="10.67" maskUnits="userSpaceOnUse"><g style="mask:url(#ae);filter:url(#cq)"><polygon points="53.83 42.35 70.56 42.76 87.28 43.17 86.42 48.09 85.55 53.01 69.69 47.68 53.83 42.35" style="mix-blend-mode:multiply;fill:url(#ag)"/></g></mask><linearGradient id="cr" x1="-4497.83" y1="2694.47" x2="-4497.83" y2="2671.12" gradientTransform="translate(-1787.04 -4849.26) rotate(-80)" xlink:href="#be"/><filter id="ct" x="53.74" y="30.35" width="33.45" height="10.67" filterUnits="userSpaceOnUse" color-interpolation-filters="sRGB"><feFlood flood-color="#fff" result="bg"/><feBlend in="SourceGraphic" in2="bg"/></filter><mask id="cs" x="53.74" y="30.35" width="33.45" height="10.67" maskUnits="userSpaceOnUse"><g style="mask:url(#ah);filter:url(#ct)"><polygon points="53.74 41.01 69.6 35.68 85.46 30.34 86.33 35.27 87.19 40.19 70.47 40.6 53.74 41.01" style="mix-blend-mode:multiply;fill:url(#aj)"/></g></mask><linearGradient id="cu" x1="-5873.47" y1="2408.51" x2="-5873.47" y2="2385.16" gradientTransform="translate(-3305.97 -5330.67) rotate(-100)" xlink:href="#be"/><filter id="cw" x="53.2" y="18.92" width="31.15" height="20.87" filterUnits="userSpaceOnUse" color-interpolation-filters="sRGB"><feFlood flood-color="#fff" result="bg"/><feBlend in="SourceGraphic" in2="bg"/></filter><mask id="cv" x="53.2" y="18.92" width="31.15" height="20.87" maskUnits="userSpaceOnUse"><g style="mask:url(#ak);filter:url(#cw)"><polygon points="53.2 39.79 66.28 29.35 79.36 18.92 81.86 23.24 84.35 27.57 68.78 33.68 53.2 39.79" style="mix-blend-mode:multiply;fill:url(#am)"/></g></mask><linearGradient id="cx" x1="-7069.89" y1="1669.3" x2="-7069.89" y2="1645.95" gradientTransform="translate(-4899.37 -5264.25) rotate(-120)" xlink:href="#be"/><filter id="cz" x="52.28" y="10.26" width="25.09" height="28.56" filterUnits="userSpaceOnUse" color-interpolation-filters="sRGB"><feFlood flood-color="#fff" result="bg"/><feBlend in="SourceGraphic" in2="bg"/></filter><mask id="cy" x="52.28" y="10.26" width="25.09" height="28.56" maskUnits="userSpaceOnUse"><g style="mask:url(#an);filter:url(#cz)"><polygon points="52.28 38.82 61 24.54 69.72 10.26 73.54 13.47 77.37 16.69 64.82 27.75 52.28 38.82" style="mix-blend-mode:multiply;fill:url(#ap)"/></g></mask><linearGradient id="da" x1="-7940.32" y1="565.59" x2="-7940.32" y2="542.24" gradientTransform="matrix(-0.77, -0.64, 0.64, -0.77, -6372.79, -4656.73)" xlink:href="#be"/><filter id="dc" x="51.07" y="5.43" width="16.01" height="32.8" filterUnits="userSpaceOnUse" color-interpolation-filters="sRGB"><feFlood flood-color="#fff" result="bg"/><feBlend in="SourceGraphic" in2="bg"/></filter><mask id="db" x="51.07" y="5.43" width="16.01" height="32.8" maskUnits="userSpaceOnUse"><g style="mask:url(#aq);filter:url(#dc)"><polygon points="51.07 38.23 54.38 21.83 57.7 5.43 62.39 7.14 67.09 8.85 59.08 23.54 51.07 38.23" style="mix-blend-mode:multiply;fill:url(#as)"/></g></mask><linearGradient id="dd" x1="-8381.59" y1="-769.69" x2="-8381.59" y2="-793.04" gradientTransform="matrix(-0.94, -0.34, 0.34, -0.94, -7550.82, -3581.92)" xlink:href="#be"/></defs><title>dream-big</title><rect width="100" height="100" style="fill:none"/><g style="opacity:0.6000000000000001"><g style="mask:url(#bc)"><polygon points="49.74 38.09 47.24 21.54 44.75 5 49.74 5 54.74 5 52.24 21.54 49.74 38.09" style="opacity:0.30000000000000004;fill:url(#be)"/></g><g style="mask:url(#bf)"><polygon points="48.44 38.4 40.44 23.71 32.43 9.02 37.13 7.31 41.82 5.61 45.13 22 48.44 38.4" style="opacity:0.30000000000000004;fill:url(#bh)"/></g><g style="mask:url(#bi)"><polygon points="47.33 39.15 34.78 28.08 22.24 17.02 26.07 13.8 29.89 10.59 38.61 24.87 47.33 39.15" style="opacity:0.30000000000000004;fill:url(#bk)"/></g><g style="mask:url(#bl)"><polygon points="46.54 40.23 30.96 34.12 15.39 28.02 17.89 23.69 20.39 19.36 33.46 29.8 46.54 40.23" style="opacity:0.30000000000000004;fill:url(#bn)"/></g><g style="mask:url(#bo)"><polygon points="46.17 41.52 29.44 41.1 12.72 40.69 13.59 35.77 14.45 30.85 30.31 36.18 46.17 41.52" style="opacity:0.30000000000000004;fill:url(#bq)"/></g><g style="mask:url(#br)"><polygon points="46.26 42.85 30.4 48.18 14.54 53.52 13.67 48.6 12.81 43.68 29.53 43.26 46.26 42.85" style="opacity:0.30000000000000004;fill:url(#bt)"/></g><g style="mask:url(#bu)"><polygon points="46.8 44.08 33.72 54.51 20.64 64.94 18.14 60.62 15.65 56.29 31.22 50.18 46.8 44.08" style="opacity:0.30000000000000004;fill:url(#bw)"/></g><g style="mask:url(#bx)"><polygon points="47.72 45.04 39 59.32 30.29 73.6 26.46 70.39 22.63 67.17 35.18 56.11 47.72 45.04" style="opacity:0.30000000000000004;fill:url(#bz)"/></g><g style="mask:url(#ca)"><polygon points="48.92 45.63 45.62 62.03 42.3 78.43 37.61 76.72 32.91 75.01 40.92 60.32 48.92 45.63" style="opacity:0.30000000000000004;fill:url(#cc)"/></g><g style="mask:url(#cd)"><polygon points="50.26 45.78 52.75 62.32 55.25 78.86 50.26 78.86 45.26 78.86 47.76 62.32 50.26 45.78" style="opacity:0.30000000000000004;fill:url(#cf)"/></g><g style="mask:url(#cg)"><polygon points="51.56 45.46 59.56 60.15 67.57 74.84 62.87 76.55 58.18 78.26 54.87 61.86 51.56 45.46" style="opacity:0.30000000000000004;fill:url(#ci)"/></g><g style="mask:url(#cj)"><polygon points="52.67 44.71 65.22 55.78 77.76 66.85 73.94 70.06 70.11 73.27 61.39 58.99 52.67 44.71" style="opacity:0.30000000000000004;fill:url(#cl)"/></g><g style="mask:url(#cm)"><polygon points="53.46 43.63 69.03 49.74 84.61 55.85 82.11 60.17 79.61 64.5 66.54 54.07 53.46 43.63" style="opacity:0.30000000000000004;fill:url(#co)"/></g><g style="mask:url(#cp)"><polygon points="53.83 42.35 70.56 42.76 87.28 43.17 86.42 48.09 85.55 53.01 69.69 47.68 53.83 42.35" style="opacity:0.30000000000000004;fill:url(#cr)"/></g><g style="mask:url(#cs)"><polygon points="53.74 41.01 69.6 35.68 85.46 30.34 86.33 35.27 87.19 40.19 70.47 40.6 53.74 41.01" style="opacity:0.30000000000000004;fill:url(#cu)"/></g><g style="mask:url(#cv)"><polygon points="53.2 39.79 66.28 29.35 79.36 18.92 81.86 23.24 84.35 27.57 68.78 33.68 53.2 39.79" style="opacity:0.30000000000000004;fill:url(#cx)"/></g><g style="mask:url(#cy)"><polygon points="52.28 38.82 61 24.54 69.72 10.26 73.54 13.47 77.37 16.69 64.82 27.75 52.28 38.82" style="opacity:0.30000000000000004;fill:url(#da)"/></g><g style="mask:url(#db)"><polygon points="51.07 38.23 54.38 21.83 57.7 5.43 62.39 7.14 67.09 8.85 59.08 23.54 51.07 38.23" style="opacity:0.30000000000000004;fill:url(#dd)"/></g></g><path d="M38.94,92.61a.4.4,0,0,1,0,.24,6.24,6.24,0,0,1-1.25.13,1.56,1.56,0,0,1-.35-.13s-.07-.08-.09-.09-.06,0-.09,0a.7.7,0,0,1-.15-.09.87.87,0,0,1,0-.61s.78-.33.95-.15A6.61,6.61,0,0,0,38.94,92.61Z" style="fill:#3c463b"/><path d="M43.55,91.2l.19.69.72,0s0-.11.09-.11.13.09.2.08l.39,0,1.44-.11s0-.15,0-.2a.79.79,0,0,0-.23-.07c-.38-.08-1.47-.32-1.68-.66S43.55,91.2,43.55,91.2Z" style="fill:#3c463b"/><path d="M42.49,69.6l5,1s-3-2.29-4.61-2.3S42.49,69.6,42.49,69.6Z" style="fill:#fff"/><path d="M46.77,70.22s0-.48.43-.51a4.55,4.55,0,0,1,1.48.45s-.23.06-.55.11l-.72.07Z" style="fill:#fff"/><path d="M46.38,70.25a19.47,19.47,0,0,0,1.38,1.67l.26,0-.38-.58.9.59.13-.11L47.84,71l.72.44.17-.11L47.36,70.2Z" style="fill:#fff"/><polygon points="39.73 65.05 42.08 67.65 42.67 67.83 42.7 67.77 43.45 68.21 43.04 69.88 42.05 69.71 42.05 69.64 41.79 69.57 41.65 69.57 40.44 68.84 39.76 67.88 39.73 65.05" style="fill:#ffc40e"/><path d="M38.65,79s.21-.22,3.31,3.85c1.65,2.16,1.8-.42,1.95-.38S41,75.71,41,75.65s-.4-1.51-.4-1.51l-1.74,0Z" style="fill:#163f59"/><path d="M39.81,74s-.82,10-1,10.55-1,1.67-1.4,1.13-1-4.46-1.55-7.74-.11-3.75-.11-3.75Z" style="fill:#194866"/><polygon points="34.09 65.12 39.75 65.03 41.05 75.43 35.13 75.08 34.09 65.12" style="fill:#ffc40e"/><path d="M30.34,62.35,27,59.09s1.42,3.65,2.26,4.42S30.34,62.35,30.34,62.35Z" style="fill:#fff"/><polygon points="35.4 65.34 32.45 63.74 31.13 62.27 30.22 61.64 28.66 63.3 29.48 64.39 29.79 64.08 30.21 63.68 29.77 64.4 30.71 65.55 31.63 65.9 34.75 68.48 35.4 65.34" style="fill:#ffc40e"/><path d="M27.62,59.93s.18-.73.05-.9-.66-.75-.66-.75l-.15-.14s-.25.08.11.47.08.29.08.29l-.46-.23L26,58.43l-.24-.14s-.14-.09-.19-.08-.08.12-.08.12l.92.62-1-.35s-.13,0-.17,0,0,.08,0,.08l1,.65-.54-.12s-.13,0-.17,0l-.06.08,2,.75Z" style="fill:#fff"/><polygon points="38.92 84.73 38.51 91.99 37.63 92.32 36.52 92.24 36.48 86.12 36.66 82.29 38.98 81.14 38.92 84.73" style="fill:#194866"/><polygon points="43.9 82.44 44.96 91.02 43.4 91.21 41.69 82.47 43.9 82.44" style="fill:#163f59"/><path d="M26.28,59.1l-.72-.2a.68.68,0,0,0-.25,0,.1.1,0,0,0-.09.11l1.06.41Z" style="fill:#fff"/><path d="M36.49,66c.79.12,1.48-.27,1.54-.7A.38.38,0,0,0,38,65l-2.85,0C35.1,65.49,35.73,65.92,36.49,66Z" style="fill:#fbe305"/><path d="M37.29,63.6s-.1,1.27.46,1.53c.27.12-.14.58-.61.65-.63.09-1.7-.32-1.77-.6s.11-.06.22-.31a6.57,6.57,0,0,0-.1-1.93C35.47,62.78,37.23,63.05,37.29,63.6Z" style="fill:#fff"/><path d="M37.56,65c-.34-.36-.27-1.39-.27-1.39,0-.46-1.27-.72-1.67-.7a6.12,6.12,0,0,0,.09.76,1.44,1.44,0,0,0,.79.94C36.75,64.76,37.3,65.07,37.56,65Z" style="fill:#e4eef3"/><path d="M37.49,61.09l.19,2.49s0,.59-.17.7a1.52,1.52,0,0,1-1.1-.08,1.45,1.45,0,0,1-.79-.93,17.77,17.77,0,0,1-.14-1.81s.15-.44,1-.25S37.49,61.09,37.49,61.09Z" style="fill:#fff"/><path d="M37.36,60.49a.45.45,0,0,1,.36.27.53.53,0,0,1-.26.55,7.14,7.14,0,0,1-1.37.1c-.13,0-.39-.07-.51-.26s.29-.45.54-.4C36.74,60.89,37,60.41,37.36,60.49Z" style="fill:#194866"/><path d="M35.85,61.14l.08,1.07,0,.58h-.12l-.23,0s-.5-1.45-.15-1.65S35.82,61.05,35.85,61.14Z" style="fill:#194866"/><path d="M35.76,62.91a.17.17,0,0,1-.16.18h-.09a.17.17,0,0,1-.19-.16l0-.39a.18.18,0,0,1,.16-.18h.1a.17.17,0,0,1,.18.15Z" style="fill:#fff"/><path d="M28.36,76.28l-.17,0v0l0,.56.15.31.19.22s.05,0,.06,0a.22.22,0,0,0-.05-.1.87.87,0,0,1-.1-.14,1.31,1.31,0,0,0,0-.15s0-.09,0-.11a2.61,2.61,0,0,1,0-.42Z" style="fill:#e4eef3"/><path d="M34.08,80.91c-.15-.08-.62.54-.8,1.06a8.9,8.9,0,0,0-.5,2.69c-.13,1.76-.36,4.55-.42,5.74s-.38,2.35.24,2.13a17.87,17.87,0,0,1,.68-4.88C34.3,83.62,34.57,81.16,34.08,80.91Z" style="fill:#dbe4e9"/><path d="M31.13,82.08c0-.28.07-.56.11-.84s.32-.62.46-.6c.5.07,1.13,2.28,0,7.74-.06.27-.75,5-.75,4.89A77.13,77.13,0,0,1,31.13,82.08Z" style="fill:#fff"/><path d="M30.91,93.62c-.23.56-.54,1-.68.91s-.09-.57.14-1.13.53-1,.68-.92S31.13,93.05,30.91,93.62Z" style="fill:#ad5c49"/><path d="M31,93.29c-.1.43-.37.76-.52.7s-.12-.43.06-.84a2.09,2.09,0,0,0,.33-1C30.82,91.79,31.36,91.64,31,93.29Z" style="fill:#fff"/><path d="M33.11,64a1.57,1.57,0,0,1-1.44,1.68L31.22,65c-.86.06-1.66-1.18-1.72-2l-.05-.58a1.56,1.56,0,0,1,1.44-1.68l.39,0A1.57,1.57,0,0,1,33,62.11Z" style="fill:#ad5c49"/><path d="M29.7,62.33l-.25,0c0,.1,0,.21.05.31a2.06,2.06,0,0,1-1.66,2.16,2.07,2.07,0,1,0,1.86-2.51Z" style="fill:#ad5c49"/><path d="M32.26,61.19a3.23,3.23,0,0,1,0,.44,2.06,2.06,0,0,1-1.29,2,5.1,5.1,0,0,1-.13,1.23,2.32,2.32,0,0,1-.52.85c-.06.71,2.4,1.55,2.33,1.44a6.81,6.81,0,0,1-1-1.62,1.51,1.51,0,0,1,.14-1.28,1.26,1.26,0,0,1,.88-.5.15.15,0,0,0,.12-.07.89.89,0,0,0,0-.33L32.76,62A1.1,1.1,0,0,0,32.26,61.19Z" style="fill:#fff"/><path d="M32.69,71.48c-.21.66-1.81,1-2.13.36l-1.87-4.73c-.32-.62-.07-1.17.55-1.22l1.32-.1.62.25.49-.34,1-.08c.61-.05.94.46.73,1.12Z" style="fill:#dbdac6"/><path d="M31,73.26c-.44,0-.43.22-.68.87a9.36,9.36,0,0,0-.26,5.05,15.19,15.19,0,0,0,2.08,5.36,15.52,15.52,0,0,0,.48-3.83C32.79,76.26,32.38,73.38,31,73.26Z" style="fill:#fff"/><path d="M29,71.16s-.35,0-.49,1.47a16.25,16.25,0,0,0-.05,2c0,.82.43-.07.43-.07l.38-1.63S29.45,71.59,29,71.16Z" style="fill:#dbdac6"/><path d="M28.63,66.24c-.53,1.37.1,6.12.1,6.12s.59,1.74.77-4.74C29.56,65.76,28.76,65.91,28.63,66.24Z" style="fill:#dbdac6"/><path d="M33.47,66.09l.9,5.34s-.91-.07-1.83-4C32.15,65.69,33.14,65.93,33.47,66.09Z" style="fill:#dbdac6"/><path d="M28.52,77.64l-.18-.21-.16-.31,0-.57a4,4,0,0,1,.13-.82,9.89,9.89,0,0,0,.2-1.22c0-.11.37-.13.37-.13s-.11.82-.18,1.19a8.07,8.07,0,0,0,0,1.09,1.71,1.71,0,0,1-.08.29c0,.09-.06.09-.06,0a2,2,0,0,1,0-.35c0-.1-.11-.06-.11-.06a2.18,2.18,0,0,0-.06.56.3.3,0,0,0,0,.11.44.44,0,0,0,.05.15.87.87,0,0,0,.1.14s.05.07,0,.1S28.55,77.67,28.52,77.64Z" style="fill:#fff"/><polygon points="31.11 65.96 30.85 66.37 30.07 65.87 30.3 65.46 31.11 65.96" style="fill:#c9c8b6"/><polygon points="31.73 65.4 31.31 65.91 31.65 66.26 32.02 65.64 31.73 65.4" style="fill:#c9c8b6"/><path d="M31.64,71.71l.25-.1a11.49,11.49,0,0,0-.54-5.69c-.09,0-.18,0-.27,0A11.63,11.63,0,0,1,31.64,71.71Z" style="fill:#c9c8b6"/><path d="M35.51,84.32a2.84,2.84,0,0,0,0-.51c-.12-1-.16-2.1-.48-4.07a54.83,54.83,0,0,0-2-7.95A4.81,4.81,0,0,0,32.7,71c-.74,0-1.46.51-2.21.79a7.77,7.77,0,0,0-.55,2A67.67,67.67,0,0,0,29,80.84c-.1,1.62,0,2.91-.08,3.77C31.33,88,33,81.24,35.51,84.32Z" style="fill:#3c463b"/><path d="M35.09,76.24A5.28,5.28,0,0,1,35,77c0,.09-.29.46-.29.46a.84.84,0,0,1,.08-.39A7.83,7.83,0,0,0,35.09,76.24Z" style="fill:#e2c59c"/><path d="M33.74,70.31s-.31.08,0,1.79a35.18,35.18,0,0,0,1.28,4.12l-.5-4S34.31,70.69,33.74,70.31Z" style="fill:#fff"/><path d="M34.67,74.91a3.12,3.12,0,0,1-.21,1.57,6.88,6.88,0,0,1-.17.7c.28-.24.24-.51.32-.66s0-.1.11.19-.17.5-.28.73a.72.72,0,0,0-.08.32,3.19,3.19,0,0,0,.39-.57,3.89,3.89,0,0,0,.36-.91,3.51,3.51,0,0,0-.17-1.11C34.81,74.74,34.56,74.32,34.67,74.91Z" style="fill:#fff"/><path d="M34.87,74.09a10.93,10.93,0,0,0-.7-3.5c-.13-.41-.28-.81-.43-1.17-.33.62-.17,2.34.44,4.25.07.21.14.42.22.62A3.15,3.15,0,0,0,34.87,74.09Z" style="fill:#dbdac6"/><path d="M33.69,92.24a2.93,2.93,0,0,0-.55-.09c-.24,0-.41,0-.51-.1s-.1-.48-.16-.46c-.32.1-.38.88-.18,1a5.55,5.55,0,0,0,1.36-.15C33.74,92.39,33.72,92.22,33.69,92.24Z" style="fill:#dbe4e9"/><path d="M33.46,92.19c.08.25-.72.21-.93.16a2.48,2.48,0,0,0-.33-.06h0v0c0,.14,0,.34.19.32l1.43-.11C35,92.43,33.46,92.18,33.46,92.19Z" style="fill:#ad5c49"/><path d="M45.61,61.81l8.49-.1a.55.55,0,0,0,0-1.09l-8.48.11a.55.55,0,0,0-.54.55.54.54,0,0,0,.55.53Z" style="fill:#282d33"/><path d="M39,40.19a10.57,10.57,0,0,1,21.13-.26,19.08,19.08,0,0,1-4.1,10.41C54.9,51.9,55.13,55,55.14,55l-4.62.05-1.5,0-4.65.06s.19-3.11-1-4.65A19.19,19.19,0,0,1,39,40.19Z" style="fill:#dbe4e9"/><path d="M46.36,53.74c-.08-1.33-.44-3.83-1.28-4.92A18.07,18.07,0,0,1,41,39.33a9.19,9.19,0,0,1,18.38-.21,18.05,18.05,0,0,1-3.83,9.55c-.83,1.12-1.13,3.64-1.19,5Z" style="fill:#e4eef3"/><path d="M57.92,40.78a.82.82,0,0,1-.84-.81,7.5,7.5,0,0,0-7.58-7.4.83.83,0,1,1,0-1.66,9.17,9.17,0,0,1,9.26,9A.82.82,0,0,1,57.92,40.78Z" style="fill:#fff"/><polygon points="47.07 55.92 45.57 45.05 46.12 44.88 47.62 55.75 47.07 55.92" style="fill:#484f59"/><polygon points="52.45 55.86 53.7 44.95 53.14 44.79 51.9 55.7 52.45 55.86" style="fill:#484f59"/><path d="M53.26,46.32c-.38,0-.55-.36-.67-.63-.05-.11-.16-.35-.22-.35s-.16.24-.21.35c-.11.27-.27.65-.65.65s-.55-.36-.68-.63a1.58,1.58,0,0,0-.11-.23c-.19.36-.54.88-1,.88s-.55-.36-.67-.63c0-.11-.16-.34-.22-.34s-.16.23-.21.35-.27.64-.65.64-.55-.36-.67-.63c-.06-.11-.16-.34-.22-.34s-.16.23-.21.35c-.12.27-.28.64-.66.65v-.5s.16-.23.21-.35c.11-.27.27-.64.65-.64s.55.36.67.63c.06.11.16.34.22.34s.16-.23.21-.35.28-.64.66-.65.55.37.67.63.16.35.22.35.45-.41.64-.85a.24.24,0,0,1,.22-.15c.38,0,.55.36.67.63,0,.12.16.35.22.35s.16-.24.21-.35c.12-.27.28-.64.65-.65s.55.36.68.63.15.35.21.35Z" style="fill:#484f59"/><path d="M55.15,55l.07,5.53a.69.69,0,0,1-.68.69l-9.38.11a.67.67,0,0,1-.69-.67l-.07-5.53Z" style="fill:#282d33"/><path d="M55.38,56.09l-11.19.14a.54.54,0,0,1,0-1.08L55.37,55a.55.55,0,0,1,.55.54A.54.54,0,0,1,55.38,56.09Z" style="fill:#282d33"/><path d="M50.43,55.88,44.22,56a.3.3,0,0,1-.31-.29.31.31,0,0,1,.3-.31l6.21-.07a.3.3,0,1,1,0,.6Z" style="fill:#484f59"/><path d="M55.4,57.9,44.21,58a.55.55,0,0,1-.55-.54A.55.55,0,0,1,44.2,57l11.19-.13a.54.54,0,0,1,.55.53A.55.55,0,0,1,55.4,57.9Z" style="fill:#282d33"/><path d="M55.42,59.7l-11.19.14a.54.54,0,1,1,0-1.08l11.19-.14a.55.55,0,0,1,.55.54A.54.54,0,0,1,55.42,59.7Z" style="fill:#282d33"/><path d="M50.45,57.6l-6.21.08a.31.31,0,0,1-.31-.3.3.3,0,0,1,.3-.3L50.44,57a.3.3,0,1,1,0,.6Z" style="fill:#484f59"/><path d="M50.47,59.43l-6.21.07a.3.3,0,0,1,0-.6l6.21-.07a.3.3,0,0,1,.31.29A.31.31,0,0,1,50.47,59.43Z" style="fill:#484f59"/><rect x="45.88" y="56.18" width="5.3" height="0.55" transform="translate(-0.68 0.6) rotate(-0.7)" style="fill:#30363d"/><rect x="45.9" y="57.94" width="5.3" height="0.55" transform="translate(-0.7 0.59) rotate(-0.69)" style="fill:#30363d"/><rect x="45.92" y="59.69" width="5.3" height="0.55" transform="matrix(1, -0.01, 0.01, 1, -0.73, 0.6)" style="fill:#30363d"/><path d="M62.58,72l-.31,3.86a12.22,12.22,0,0,1-1.15-3.52C61,70.9,62.6,72,62.58,72Z" style="fill:#fff"/><path d="M64.68,62.48c0,.44.28.82.53.84h.71c.25,0,.48-.4.52-.84l.18-2.19a2.18,2.18,0,0,0-.51-1.57,1,1,0,0,0-1.09,0,2.09,2.09,0,0,0-.51,1.57C64.57,61,64.63,61.75,64.68,62.48Z" style="fill:#fff"/><path d="M69.49,69.8l-1.9,3.09s2.83-1.35,2.68-2.62S69.49,69.8,69.49,69.8Z" style="fill:#fff"/><path d="M62.62,63.58s-.92.61-1.46,4.31S61,71.44,61,71.44l.09.84,1.37.14.78-3.18Z" style="fill:#b0bfde"/><path d="M67.69,90.36v.36h-2l-.05-1,1.23,0A5.62,5.62,0,0,0,67.69,90.36Z" style="fill:#161711"/><path d="M65.09,73.31A59.37,59.37,0,0,1,62.93,82c-1,2.36-2.12-.71-2.12-.71L62.6,71.15l2.94-.22S65.74,71,65.09,73.31Z" style="fill:#194866"/><path d="M64.85,71l-.36,3.91.51.3s.29,5.81.39,6.1c.55,1.68,2,.67,2.17.11A46.51,46.51,0,0,0,68,73.64l-.07-3Z" style="fill:#194866"/><path d="M65.51,79.7a14.32,14.32,0,0,0-.2,3c0,1.24.14,4.52.37,7,0,.15,1.23,0,1.23,0s.75-7.93.81-9.46A1.3,1.3,0,0,0,65.51,79.7Z" style="fill:#194866"/><path d="M62.28,63.63l2.15-1,1.11.33,1.37-.16,1.51.66s.68.65,0,2.76a22.23,22.23,0,0,0-.54,5.58l-5.48.35S62.82,64.8,62.28,63.63Z" style="fill:#d1dbea"/><path d="M67.44,63.58s.83-.46,1.66.56a14.45,14.45,0,0,1,2.24,4.35c.15.43.34,1.69-.24,2.06l-.59.38-1.21-.75.19-.38.1-.23s-.68-1.5-1.41-2.85A7.57,7.57,0,0,1,67.44,63.58Z" style="fill:#d1dbea"/><polygon points="65.81 62.94 66.35 63.54 66.89 62.76 66.57 62.27 65.81 62.94" style="fill:#b0bfde"/><polygon points="64.62 62.32 65.66 62.99 65.17 63.58 64.36 62.66 64.62 62.32" style="fill:#b0bfde"/><path d="M61.3,81.19a6.34,6.34,0,0,0,1.43.15c1.08,0-1.4,8.75-1.4,8.75l-1.53-.56,1.1-8.78Z" style="fill:#194866"/><path d="M61.22,90l-.15.76H58.54v-.28s1.21-.42,1.46-.89S61.22,90,61.22,90Z" style="fill:#161711"/><path d="M66.39,58.5l.16-.48-.2-.06-.52-.17-.32-.1a.66.66,0,0,0-.84.42l-.15.48.2.07.52.17.32.1A.66.66,0,0,0,66.39,58.5Z" style="fill:#163f59"/><rect x="63.72" y="58.82" width="3.86" height="2.52" rx="0.59" ry="0.59" transform="translate(-11.73 104.03) rotate(-72.06)" style="fill:#fff"/><path d="M66.59,58a.63.63,0,0,1,.43.45l.22.07a.52.52,0,0,1,.33.65l-.39,1.21-.34-.11.15-.49a.36.36,0,0,0-.23-.46l-.2-.06L66,59.13,65.72,59a.66.66,0,0,1-.43-.83l.17-.52Z" style="fill:#163f59"/><path d="M66.62,60.59a.31.31,0,0,1,.4-.2h0a.33.33,0,0,1,.2.4l-.12.36a.32.32,0,0,1-.4.21h0a.34.34,0,0,1-.22-.27" style="fill:#fff"/><path d="M53,69.66s.35,0,.16,1.91a40,40,0,0,1-.9,4.56l.08-4.34S52.42,70.13,53,69.66Z" style="fill:#fff"/><path d="M52.52,74.68a3.27,3.27,0,0,0,.4,1.66,7.55,7.55,0,0,0,.26.72c-.33-.22-.31-.51-.42-.66s0-.11-.09.21.24.51.38.75a.72.72,0,0,1,.13.33,3.45,3.45,0,0,1-.49-.56,4.47,4.47,0,0,1-.49-.93A3.74,3.74,0,0,1,52.26,75C52.35,74.51,52.56,74,52.52,74.68Z" style="fill:#fff"/><polygon points="53.14 92.04 53.03 94.48 51.49 94.6 50.81 94.52 52.17 94.09 52.32 92.06 53.14 92.04" style="fill:#fff"/><path d="M52.91,94.79l-.33,0-.06-.1-1.27,0-.62-.16s0-.11,0-.14a3.4,3.4,0,0,1,.83-.15s-.09.12,0,.17a4.29,4.29,0,0,0,1.13,0c.36-.06.47-.17.48-.14S52.91,94.79,52.91,94.79Z" style="fill:#161711"/><path d="M52.67,74.3l-.21,9.25-.62,9.08,1.38.1s1.3-9.14,1.45-9.93,1.8-7.13,1-8.75S52.67,74.3,52.67,74.3Z" style="fill:#194866"/><path d="M58.1,69.16c.77.93,1.16,4.78,1.16,4.78s-.25,1.47-1.67-3.47C57.16,69,57.91,68.93,58.1,69.16Z" style="fill:#fff"/><path d="M58.94,77.26l.32-.36.18-.35,0-.63a4.38,4.38,0,0,0-.13-.93,11,11,0,0,1-.12-1.38c0-.13-.67-.28-.67-.28s.28,1,.35,1.47a8.07,8.07,0,0,1,0,1.22,1.82,1.82,0,0,0,.15.51s0-.45,0-.57.12-.07.12-.07a3.52,3.52,0,0,1,0,.79A1.07,1.07,0,0,1,59,77Z" style="fill:#fff"/><path d="M54,67l-.5,5.21v.3L52,72.44s.43-4,.5-4.22A17.88,17.88,0,0,0,52.67,66c0-.31,0-1.82,1-1.67S54,67,54,67Z" style="fill:#f8c44f"/><path d="M57.19,67l.5,5.21v.3l1.49-.08a32.63,32.63,0,0,1-.84-4.22c0-.21-.05-1.88,0-2.18a1.69,1.69,0,0,0-.87-1.67C56.59,63.85,57.19,67,57.19,67Z" style="fill:#f8c44f"/><path d="M55.59,91.75l0,3.14,1.29-.45s.55-.4.08-.35c-.69.08-.55-.22-.57-.78a14.69,14.69,0,0,1,.08-1.64Z" style="fill:#fff"/><path d="M57.08,94.09a2.37,2.37,0,0,1-.31.24,3.15,3.15,0,0,1-.75.34,1.46,1.46,0,0,1-.42,0s-.1.32.11.3a7.51,7.51,0,0,0,1.45-.61C57.31,94.29,57.34,94.11,57.08,94.09Z" style="fill:#161711"/><path d="M55.87,74.48,55.71,83l-.15,9,1.09-.06s1.11-9,1.2-9.85,1.42-6.12.53-7.68S55.87,74.48,55.87,74.48Z" style="fill:#194866"/><path d="M55.66,64a12,12,0,0,0-2.11.29c-.4.17-.32,2.16-.06,3.63a8.21,8.21,0,0,1-.23,4,17,17,0,0,0-.66,2.68l6-.09a24.26,24.26,0,0,1-1.36-5.07c0-1.42.38-4.65.35-5S56,64,55.66,64Z" style="fill:#f4da80"/><path d="M57,61.39a1.49,1.49,0,0,1-1.49,1.5l-.37-.71a1.5,1.5,0,0,1-1.5-1.5v-.56a1.5,1.5,0,0,1,1.5-1.49h.37A1.49,1.49,0,0,1,57,60.12Z" style="fill:#854638"/><path d="M56.81,64.65a2.08,2.08,0,1,1-2.08-2A2.06,2.06,0,0,1,56.81,64.65Z" style="fill:#854638"/><path d="M57.83,65.55a2.08,2.08,0,1,1-2.07-2A2.05,2.05,0,0,1,57.83,65.55Z" style="fill:#854638"/><path d="M54.65,60.49a1.76,1.76,0,0,0-1,.32c0,.47,0,.58,0,.89a2.47,2.47,0,0,1-.59,1.69c.37.57.82,1.16,1.56,1.16a2,2,0,1,0,0-4.06Z" style="fill:#854638"/><path d="M57,61.35s0-.08,0-.12a1.91,1.91,0,0,0-.68-.12,2,2,0,1,0,2,2.56A2.7,2.7,0,0,1,57,61.35Z" style="fill:#854638"/><path d="M58.92,64.81a1.42,1.42,0,1,1-1.41-1.41A1.42,1.42,0,0,1,58.92,64.81Z" style="fill:#854638"/></svg>