<svg xmlns="http://www.w3.org/2000/svg" xmlns:xlink="http://www.w3.org/1999/xlink" viewBox="0 0 100 100"><defs><linearGradient id="a" x1="1364.2" y1="76.62" x2="1364.55" y2="67.51" gradientTransform="matrix(-1, 0, 0, 1, 1378.75, 0)" gradientUnits="userSpaceOnUse"><stop offset="0" stop-color="#623fe9"/><stop offset="0.03" stop-color="#6244e9"/><stop offset="0.37" stop-color="#6084ee"/><stop offset="0.65" stop-color="#5eb3f1"/><stop offset="0.87" stop-color="#5dcff3"/><stop offset="1" stop-color="#5ddaf4"/></linearGradient><linearGradient id="b" x1="21.56" y1="74.22" x2="21.85" y2="61.5" gradientTransform="translate(-12.4)" gradientUnits="userSpaceOnUse"><stop offset="0" stop-color="#56408b"/><stop offset="0.15" stop-color="#694997"/><stop offset="1" stop-color="#d77edb"/></linearGradient><linearGradient id="c" x1="102.92" y1="77.17" x2="103.21" y2="64.45" xlink:href="#b"/><linearGradient id="d" x1="44.64" y1="73.73" x2="52.81" y2="21.15" gradientUnits="userSpaceOnUse"><stop offset="0" stop-color="#623fe9"/><stop offset="0.27" stop-color="#8a54e4"/><stop offset="0.59" stop-color="#b46bdf"/><stop offset="0.85" stop-color="#cd79dc"/><stop offset="1" stop-color="#d77edb"/></linearGradient></defs><title>rocket</title><rect width="100" height="100" style="fill:none"/><path d="M100,59.14c.27,12.8-3.57,32-50,31.84C18.75,90.85,0,82.43,0,59.14S16.41,9,41.11,9,99.5,35.86,100,59.14Z" style="fill:none"/><path d="M13.48,76l0,0a1.31,1.31,0,0,0,1.34,0,5.75,5.75,0,0,0,1.33-.84,2.8,2.8,0,0,0,1-1.7A.66.66,0,0,0,17.1,73a.48.48,0,0,0-.56-.11,1.72,1.72,0,0,0-.5.36.46.46,0,0,1-.22.14.21.21,0,0,1-.23-.08c-.07-.12.05-.26.16-.35a8.87,8.87,0,0,1,.74-.51,2.52,2.52,0,0,0,.82-.87,1.28,1.28,0,0,0,0-1.16.7.7,0,0,0-.24-.27.86.86,0,0,0-.63-.07,4.44,4.44,0,0,1-.63.15c-.51,0-.71-.3-.7-.77,0-.32.11-.62.13-.94a1.42,1.42,0,0,0-.74-1.37,1,1,0,0,0-1.38.51c-.19.57.25,1.21,0,1.75a1.77,1.77,0,0,1-.49.53c-.27.17-.68,0-1,0a.35.35,0,0,0-.2.07.25.25,0,0,0-.06.14,1.19,1.19,0,0,0,.36,1.1c.34.3.92.46,1.06.94.09.3.05,1-.42,1-.18,0-.3-.2-.47-.26a.48.48,0,0,0-.55.27.86.86,0,0,0,0,.65,2.7,2.7,0,0,0,.62.84A5.66,5.66,0,0,0,13.48,76Z" style="fill:url(#a)"/><rect x="14.07" y="69.06" width="0.23" height="11.56" style="fill:#56408b"/><polygon points="14.18 72.57 15.61 71.15 15.44 70.98 14.18 72.24 12.92 70.98 12.76 71.15 14.18 72.57" style="fill:#56408b"/><polygon points="14.18 75.26 15.61 73.84 15.44 73.67 14.18 74.93 12.92 73.67 12.76 73.84 14.18 75.26" style="fill:#56408b"/><path d="M10.57,72.52l-.07,0a1.84,1.84,0,0,1-1.87,0,7.54,7.54,0,0,1-1.87-1.17A3.89,3.89,0,0,1,5.4,69a.91.91,0,0,1,.1-.61.68.68,0,0,1,.79-.16,2.26,2.26,0,0,1,.69.5.69.69,0,0,0,.31.2.28.28,0,0,0,.32-.11c.1-.17-.07-.36-.22-.49a11.94,11.94,0,0,0-1-.71,3.47,3.47,0,0,1-1.13-1.22,1.81,1.81,0,0,1,0-1.62,1,1,0,0,1,.33-.38,1.17,1.17,0,0,1,.88-.09c.3.06.59.17.89.2.71.08,1-.42,1-1.08,0-.44-.15-.86-.17-1.3a2,2,0,0,1,1-1.92,1.43,1.43,0,0,1,1.93.71c.27.8-.35,1.69.06,2.45a2.24,2.24,0,0,0,.67.73c.39.25,1,0,1.41,0a.45.45,0,0,1,.28.09.5.5,0,0,1,.09.21A1.66,1.66,0,0,1,13,65.88c-.47.43-1.29.65-1.49,1.32-.12.41-.07,1.45.6,1.35.25,0,.41-.29.65-.37a.66.66,0,0,1,.76.38,1.09,1.09,0,0,1,0,.9,3.73,3.73,0,0,1-.87,1.18A7.5,7.5,0,0,1,10.57,72.52Z" style="fill:url(#b)"/><rect x="9.47" y="62.85" width="0.23" height="17.77" style="fill:#56408b"/><polygon points="9.59 67.69 7.63 65.73 7.79 65.57 9.59 67.36 11.38 65.57 11.54 65.73 9.59 67.69" style="fill:#56408b"/><polygon points="9.59 71.46 7.63 69.5 7.79 69.33 9.59 71.13 11.38 69.33 11.54 69.5 9.59 71.46" style="fill:#56408b"/><path d="M91.93,75.47l-.07,0a1.8,1.8,0,0,1-1.87,0,7.89,7.89,0,0,1-1.87-1.16,4,4,0,0,1-1.36-2.39.88.88,0,0,1,.1-.6.68.68,0,0,1,.79-.17,2.67,2.67,0,0,1,.7.51.88.88,0,0,0,.3.2.32.32,0,0,0,.33-.11c.09-.17-.07-.37-.22-.49-.35-.29-.68-.46-1-.72a3.41,3.41,0,0,1-1.14-1.22,1.81,1.81,0,0,1,0-1.62,1,1,0,0,1,.34-.38,1.21,1.21,0,0,1,.88-.09,6.63,6.63,0,0,0,.88.21c.71.07,1-.43,1-1.08,0-.44-.15-.87-.18-1.31a2,2,0,0,1,1-1.92,1.44,1.44,0,0,1,1.92.72c.27.79-.35,1.69.06,2.44a2.41,2.41,0,0,0,.68.74c.39.24,1,0,1.4,0a.39.39,0,0,1,.28.09.31.31,0,0,1,.09.2,1.65,1.65,0,0,1-.51,1.53c-.47.43-1.28.65-1.48,1.32-.13.42-.07,1.46.59,1.35.25,0,.41-.29.65-.37a.67.67,0,0,1,.77.38,1.2,1.2,0,0,1,0,.91A4,4,0,0,1,94,73.59,7.5,7.5,0,0,1,91.93,75.47Z" style="fill:url(#c)"/><rect x="90.83" y="65.79" width="0.23" height="14.83" style="fill:#56408b"/><polygon points="90.95 70.64 88.99 68.68 89.15 68.51 90.95 70.31 92.74 68.51 92.91 68.68 90.95 70.64" style="fill:#56408b"/><polygon points="90.95 74.4 88.99 72.44 89.15 72.28 90.95 74.07 92.74 72.28 92.91 72.44 90.95 74.4" style="fill:#56408b"/><rect x="78.8" y="67.97" width="0.32" height="13.25" transform="translate(-25.2 43.77) rotate(-26.89)" style="fill:#413068"/><rect x="83.06" y="68.02" width="0.32" height="13.25" transform="translate(-24.76 45.7) rotate(-26.89)" style="fill:#413068"/><rect x="76.66" y="69.88" width="4.24" height="0.32" style="fill:#413068"/><rect x="78.05" y="72.63" width="4.24" height="0.32" style="fill:#413068"/><rect x="79.45" y="75.38" width="4.24" height="0.32" style="fill:#413068"/><rect x="80.84" y="78.13" width="4.24" height="0.32" style="fill:#413068"/><rect x="61.53" y="74.44" width="13.25" height="0.32" transform="translate(-29.21 101.61) rotate(-63.09)" style="fill:#413068"/><rect x="57.27" y="74.48" width="13.25" height="0.32" transform="translate(-31.58 97.84) rotate(-63.09)" style="fill:#413068"/><rect x="66.23" y="69.88" width="4.24" height="0.32" style="fill:#413068"/><rect x="64.84" y="72.63" width="4.24" height="0.32" style="fill:#413068"/><rect x="63.44" y="75.38" width="4.24" height="0.32" style="fill:#413068"/><rect x="62.05" y="78.13" width="4.24" height="0.32" style="fill:#413068"/><rect x="64.82" y="67.79" width="18.08" height="1.11" style="fill:#fff"/><rect x="34.38" y="75.23" width="5.68" height="4.58" style="fill:#f1f2f2"/><rect x="33.37" y="79.62" width="7.71" height="1" style="fill:#56408b"/><rect x="35.49" y="77.37" width="3.47" height="0.31" style="fill:#56408b"/><rect x="35.49" y="78.06" width="3.47" height="0.31" style="fill:#56408b"/><rect x="35.49" y="78.75" width="3.47" height="0.31" style="fill:#56408b"/><rect x="55.99" y="75.23" width="5.68" height="4.58" style="fill:#f1f2f2"/><rect x="54.98" y="79.62" width="7.71" height="1" style="fill:#56408b"/><rect x="57.1" y="77.37" width="3.47" height="0.31" style="fill:#56408b"/><rect x="57.1" y="78.06" width="3.47" height="0.31" style="fill:#56408b"/><rect x="57.1" y="78.75" width="3.47" height="0.31" style="fill:#56408b"/><path d="M55.26,73.47H40.87V30.92a12.91,12.91,0,0,1,5-10.19l1.07-.83a1.85,1.85,0,0,1,2.25,0l1.2.94a12.53,12.53,0,0,1,4.87,9.92Z" style="fill:url(#d)"/><path d="M50.3,20.85l-1.51-1.17c-.85-.66-1.42-.1-1.86.32,0,.12.92-.47,1-.46l.7.19c3.12,2.41,4.47,7.26,4.47,11.21v42.3a.23.23,0,0,0,.23.23H55a.23.23,0,0,0,.23-.23V30.94A12.73,12.73,0,0,0,50.3,20.85Z" style="fill:#525d7a;opacity:0.15"/><path d="M49.39,20.14l-.6-.46c-.47-.36-.63-.11-.73-.15l-.45-.07-.27.22-.69.54a13,13,0,0,0-4.8,10.1V73.47H44.5V30.32A13.05,13.05,0,0,1,49.39,20.14Z" style="fill:#fff;opacity:0.30000000000000004"/><path d="M40.87,76.82h-7.3v-30a13.23,13.23,0,0,1,3-8.43h0a.79.79,0,0,1,1.23,0h0a13.22,13.22,0,0,1,3,8.43Z" style="fill:#fff"/><path d="M40.19,42.66a13.15,13.15,0,0,0-2.35-4.25h0a.79.79,0,0,0-1.23,0h0a13.17,13.17,0,0,0-2.36,4.25Z" style="fill:#56408b"/><path d="M37.84,38.41a.78.78,0,0,0-.53-.28c1.76,2.3,1.72,5.8,1.72,8.71v30h1.84v-30A13.22,13.22,0,0,0,37.84,38.41Z" style="fill:#525d7a;opacity:0.15"/><path d="M61.66,41.82a13.33,13.33,0,0,0-1.76-4.75h0a.8.8,0,0,0-1.22-.17h0a13.46,13.46,0,0,0-3,4.06Z" style="fill:#56408b"/><path d="M61.77,42.78a13.64,13.64,0,0,1,.71,4.06v30h-7.3v-30a13.15,13.15,0,0,1,.64-4.05Z" style="fill:#fff"/><path d="M55.83,42.74a14.46,14.46,0,0,0-.65,4.1v30H57v-30c0-1.22,0-2.81.12-4.1Z" style="fill:#525d7a;opacity:0.15"/><path d="M61.54,71.85V66.23a7.82,7.82,0,0,0-2.37-5.58,28.4,28.4,0,0,1-3-3.32L54.29,54.8V44.15a10.67,10.67,0,0,0-4.12-8.39l-.36-.28a1.23,1.23,0,0,0-.64-.26c-.17-.16-.16-.16-.32,0a1.23,1.23,0,0,0-.65.26l-.27.21a10.88,10.88,0,0,0-4.21,8.58V54.56l-2,2.77a28.4,28.4,0,0,1-3,3.32,7.82,7.82,0,0,0-2.37,5.58v5.62h7.43v1.83H54.29V71.85Z" style="fill:#231f20;opacity:0.30000000000000004"/><rect x="44.76" y="71.59" width="6.69" height="5.39" style="fill:#f1f2f2"/><rect x="43.56" y="76.75" width="9.08" height="1.17" style="fill:#56408b"/><path d="M35.66,71.64H44.1V53.24L41,57.46a27.44,27.44,0,0,1-3,3.34,7.57,7.57,0,0,0-2.29,5.43Z" style="fill:#56408b"/><polygon points="41.4 56.89 41.4 71.64 44.1 71.64 44.1 53.24 41.4 56.89" style="fill:#312075;opacity:0.30000000000000004"/><path d="M60.47,71.59H52V53.27l3.11,4.2a27.35,27.35,0,0,0,3,3.33,7.5,7.5,0,0,1,2.29,5.4Z" style="fill:#56408b"/><polygon points="54.99 56.89 54.99 71.64 52.29 71.64 52.29 53.24 54.99 56.89" style="fill:#312075;opacity:0.30000000000000004"/><path d="M53.19,73.47H43.12V43.72a9,9,0,0,1,3.5-7.13l.62-.49a1.54,1.54,0,0,1,.92-.31h0a1.54,1.54,0,0,1,.91.31l.72.56a8.75,8.75,0,0,1,3.4,6.94Z" style="fill:#fff"/><path d="M48.49,36.41h0l-.91-.71-.81.63a9.06,9.06,0,0,0-3.53,7.18v30h1.84v-30A9.07,9.07,0,0,1,48.49,36.41Z" style="fill:#525d7a;opacity:0.1"/><path d="M44.79,38.49l6.72-.06a8.73,8.73,0,0,0-1.72-1.77l-.72-.56a1.51,1.51,0,0,0-1.83,0l-.62.49A8.9,8.9,0,0,0,44.79,38.49Z" style="fill:#56408b"/><path d="M51.06,47.59a.31.31,0,0,1-.31-.31,2.67,2.67,0,0,0-.86-2,.31.31,0,0,1,.42-.45,3.28,3.28,0,0,1,1.06,2.4A.31.31,0,0,1,51.06,47.59Z" style="fill:#56408b"/><path d="M45.15,47.59a.31.31,0,0,1-.31-.31,3.26,3.26,0,0,1,4.53-3,.3.3,0,1,1-.24.56,2.74,2.74,0,0,0-1-.2,2.64,2.64,0,0,0-2.64,2.64A.31.31,0,0,1,45.15,47.59Z" style="fill:#56408b"/><rect x="46.06" y="74.12" width="4.09" height="0.31" style="fill:#56408b"/><rect x="46.06" y="74.94" width="4.09" height="0.31" style="fill:#56408b"/><rect x="46.06" y="75.75" width="4.09" height="0.31" style="fill:#56408b"/><rect x="77.85" y="77.81" width="0.79" height="0.86" style="fill:#f6f6f6"/><rect x="85.72" y="77.37" width="0.79" height="0.86" transform="translate(-25.5 46.01) rotate(-26.2)" style="fill:#f6f6f6"/><polygon points="84.38 63.13 83.06 65.98 80.31 70.12 79.08 78.09 77.46 78.09 77.99 70.56 79.64 65.19 80.05 63.13 84.38 63.13" style="fill:#56408b"/><g style="opacity:0.30000000000000004"><path d="M83.57,64.88l-3.75-.58-.18.89-.2.64a12.69,12.69,0,0,1,.89,4.27L83.06,66Z" style="fill:#2b2046"/></g><rect x="84.31" y="52.5" width="1.65" height="1.92" style="fill:#fff"/><path d="M84.12,53.92l2.1.11v.41a4.39,4.39,0,0,1,.83,1.77,43.94,43.94,0,0,1-2.67,6.91H80.05s1.73-4.54,1.85-5c0,0,.52-2.45,1.46-3.2C83.36,54.89,84.09,54.37,84.12,53.92Z" style="fill:#623fe9"/><path d="M86.22,54.44V54h-.6v.41s.87,1.17.83,1.77a43.94,43.94,0,0,1-2.67,6.91h.6a43.94,43.94,0,0,0,2.67-6.91A4.39,4.39,0,0,0,86.22,54.44Z" style="fill:#525d7a;opacity:0.2"/><path d="M84.26,58.71,83,57.11l1.12-1c.39-.4.68-.33,1.08.06l0,.07c.4.38.56.66.4,1.07Z" style="fill:#525d7a;opacity:0.2"/><path d="M84.07,58.51l-1.28-1.67,1.35-1a1.06,1.06,0,0,1,1.48.2h0a1.05,1.05,0,0,1-.2,1.47Z" style="fill:#623fe9"/><path d="M81.39,59.56l-.6,1.61,1-.46,2.48-2-1-1.26Z" style="fill:#525d7a;opacity:0.2"/><path d="M77.36,62.24l4.07-1.92,2.49-2-1-1.26-2,2.26-3.69,2.31.14.18-.74,0c-.32,0-1.18-.11-1.51.24l1.49.17Z" style="fill:#fff"/><path d="M83.65,58l-2.49,2L77,62.07l-1,0-.4-.15a.75.75,0,0,0-.44.2l1.49.17h.75l4.07-1.92,2.49-2Z" style="fill:#525d7a;opacity:0.15"/><path d="M84.38,63.12a5.27,5.27,0,0,1,0,2.11,4.7,4.7,0,0,1-.64,1.31l.38,4L87,77.46l-1.54.46-2.1-3.59-1.25-2.42L79.68,65l.37-1.89Z" style="fill:#56408b"/><path d="M83.93,63.27a5.27,5.27,0,0,1,0,2.11,4.4,4.4,0,0,1-.64,1.31l.38,4,2.85,6.89.45-.14-2.85-6.9-.38-4a4.7,4.7,0,0,0,.64-1.31,5.27,5.27,0,0,0,0-2.11H80.05l0,.15Z" style="fill:#2b2046;opacity:0.2"/><path d="M86.62,52.92H84.23a.68.68,0,0,1-.68-.68v-.77h-.49c-.1-.8.64-1.37.76-1.78a.64.64,0,0,0-.27-.83h3.07Z" style="fill:#fff"/><rect x="79.85" y="62.9" width="4.76" height="0.67" style="fill:#2b2046"/><path d="M77.15,62l-.5-.48a.17.17,0,0,1-.07-.23h0a.17.17,0,0,1,.23-.08l.65.33a.16.16,0,0,1,.07.23h0C77.49,61.85,77.23,62,77.15,62Z" style="fill:#f6f6f6"/><path d="M78.92,78.39H77.49l-.6.68H75.65a2.06,2.06,0,0,0-1.84,1.13h5.11Z" style="fill:#5ddaf4"/><circle cx="78.19" cy="79.29" r="0.45" style="fill:#fff"/><rect x="73.61" y="80.2" width="5.51" height="0.42" style="fill:#56408b"/><path d="M86.94,77.7l-1.33.56-.29.85-1.43,0c-.72.3-.91.31-1,1.09h2.66l2-.86Z" style="fill:#5ddaf4"/><path d="M87,78.64a.45.45,0,1,1-.59-.24A.44.44,0,0,1,87,78.64Z" style="fill:#fff"/><rect x="82.82" y="80.17" width="3" height="0.42" style="fill:#56408b"/><rect x="85.64" y="79.74" width="2.24" height="0.42" transform="translate(-24.47 40.62) rotate(-23.19)" style="fill:#56408b"/><g style="opacity:0.15"><path d="M86.23,52.92h.39V48.86H83.55a.62.62,0,0,1,.3.69,1,1,0,0,0,.55.06.54.54,0,0,1,.33.06,1.1,1.1,0,0,1,.5.52,4.46,4.46,0,0,1,.15,1c0,.23.12.72,0,.91s-.42.07-.59,0c-.34-.15-.6-.45-1.09-.46a.19.19,0,0,0-.14,0v.58a.68.68,0,0,0,.68.68h.08v.66h.17c.38,0,.7.12,1-.08s.26-.74.23-1.11,0-.5,0-.75a.42.42,0,0,1,.14-.43c.27-.19.54.14.55.4a4.21,4.21,0,0,1,0,.94C86.35,52.65,86.26,52.79,86.23,52.92Z" style="fill:#525d7a"/></g><path d="M83.61,51.46c.49,0,.75.31,1.09.46a.4.4,0,0,0,.48-.07c.13-.2,0-.63,0-.87a3.77,3.77,0,0,0-.15-.88c-.1-.21-.19-.48-.41-.58a.63.63,0,0,0-.33-.06A1.22,1.22,0,0,1,83.21,49a1.1,1.1,0,0,1-.2-.23,1.21,1.21,0,0,1-.12-.63.2.2,0,0,1,0-.11s.26.06.3.1a1.53,1.53,0,0,0,1.11.3c.34-.07.58-.37.94-.35a1.49,1.49,0,0,1,.95.56.86.86,0,0,0,.32,0,.65.65,0,0,1,.61.2c.2.22.13.61.13.89s0,.56,0,.84a4.37,4.37,0,0,1-.11,1.19c0,.14,0,.29-.07.42a4.56,4.56,0,0,0-.18.52.58.58,0,0,1-.15.25c-.1.07-.48.11-.56,0s0-.43,0-.57a4.11,4.11,0,0,0,.15-.92c0-.26-.28-.59-.55-.4a.48.48,0,0,0-.2.44c0,.24,0,.49,0,.74s.12.88-.28,1.12-.57.08-.95.07a1.05,1.05,0,0,1-.53-.11,1,1,0,0,1-.4-.53l-.16-.46a1.68,1.68,0,0,1,0-.5C83.3,51.69,83.45,51.45,83.61,51.46Z" style="fill:#413068"/><path d="M82.84,48.34a.16.16,0,0,1,.16-.05.67.67,0,0,1,.14.09,1.63,1.63,0,0,0,1.11.36c.35-.07.58-.44.93-.42a1.68,1.68,0,0,1,1,.56c.07,0,.16,0,.24,0a.76.76,0,0,1,.63.29.58.58,0,0,1,.14.39,1,1,0,0,0-.14-.69.66.66,0,0,0-.6-.24.5.5,0,0,1-.27,0,1.62,1.62,0,0,0-1-.49c-.35,0-.58.28-.93.35a1.54,1.54,0,0,1-1.11-.36A.67.67,0,0,0,83,48a.16.16,0,0,0-.16,0,.2.2,0,0,0,0,.11c0,.08,0,.15,0,.22Z" style="fill:#56408b"/><rect x="72.73" y="64.81" width="1.34" height="1.39" transform="translate(-20.53 36.26) rotate(-24.45)" style="fill:#f6f6f6"/><polygon points="68.33 57.69 69.6 60.81 72.61 65.63 74.08 64.97 71.06 59.28 68.8 52.07 68.33 57.69" style="fill:#d77edb"/><polygon points="72.62 65.59 72.52 65.63 72.04 66.8 71.78 67.2 70.94 67.43 70.94 67.77 71.93 67.79 74.95 66.52 75.02 66.11 74.6 65.16 74.33 65.12 74.13 65.21 73.86 65.9 72.91 66.3 72.62 65.59" style="fill:#fff"/><polygon points="75.02 66.11 74.6 65.16 74.33 65.12 74.13 65.21 73.86 65.9 72.91 66.3 72.62 65.59 72.52 65.63 72.04 66.8 71.78 67.2 70.94 67.43 70.94 67.52 71.67 67.52 75.02 66.11" style="fill:#56408b"/><rect x="67.86" y="65.51" width="1.34" height="1.39" style="fill:#f6f6f6"/><path d="M65.32,49.48,67.06,59.6l.77,6.4h1.4s.12-6-.29-6.79l.29-6.93h0a4.53,4.53,0,0,0,.13-2.1h0a1.53,1.53,0,0,0-.38-.75l0,0Z" style="fill:#f8aa8f"/><path d="M69.76,61.06a6.93,6.93,0,0,0-.32-1.91l0-5-.66-2.1-.47,5.62,1.27,3.12Z" style="fill:#525d7a;opacity:0.2"/><path d="M65.32,49.48,67.06,59.6l.77,6.4h1.4s.12-6-.29-6.79l.29-6.93h0a4.53,4.53,0,0,0,.13-2.1h0a1.53,1.53,0,0,0-.38-.75l0,0Z" style="fill:#d77edb"/><polygon points="67.67 66 67.56 66 66.65 66.87 65.21 67.42 65.21 67.79 69.43 67.79 69.65 67.44 69.65 66.41 69.43 66.26 69.2 66.26 68.68 66.78 67.65 66.77 67.67 66" style="fill:#fff"/><polygon points="69.2 66.26 68.68 66.78 67.65 66.77 67.67 66 67.56 66 66.65 66.87 65.23 67.41 69.65 67.41 69.65 66.41 69.43 66.26 69.2 66.26" style="fill:#56408b"/><rect x="67.8" y="40.52" width="1.38" height="1.34" style="fill:#fff"/><path d="M67.8,41a1.8,1.8,0,0,0,1.12-.75l-1.22.26Z" style="fill:#525d7a;opacity:0.15"/><path d="M67.44,37.6l-.07.74a2.21,2.21,0,0,1-.54.74s0,.2.18.21v1a.47.47,0,0,0,.48.47h.45a1.82,1.82,0,0,0,1.73-1.26L70,38.38l-.51-1.07-1.28-.07A.79.79,0,0,0,67.44,37.6Z" style="fill:#fff"/><g style="opacity:0.15"><path d="M68.09,40.72a1.83,1.83,0,0,0,1.57-1.25L70,38.38l-.51-1.07-1.28-.07a.79.79,0,0,0-.78.36l0,.36a2.09,2.09,0,0,0,.47.3.93.93,0,0,1,.25.1.66.66,0,0,1,.17.29.61.61,0,0,0,0,.12c.07.17.32.29.31.49a.27.27,0,0,1-.13.2.73.73,0,0,0-.18.17.53.53,0,0,0,0,.41.56.56,0,0,1,0,.42C68.32,40.56,68.18,40.63,68.09,40.72Z" style="fill:#525d7a"/></g><path d="M67.38,37c-.29.34,0,.78.25,1a2,2,0,0,0,.55.35,1.45,1.45,0,0,1,.25.11c.08.05.13.2.17.29l0,.12c.08.17.33.29.32.49a.27.27,0,0,1-.13.2.73.73,0,0,0-.18.17.49.49,0,0,0,0,.41.56.56,0,0,1,0,.42c-.07.11-.23.18-.32.29s-.22.18-.32.3-.16.43-.3.59a3,3,0,0,1-.58.4.75.75,0,0,0-.39.63c.4-.13.88.07,1.22-.18.06,0,.11-.1.17-.15a2.48,2.48,0,0,1,.49-.24,1.15,1.15,0,0,0,.41-.35,1.1,1.1,0,0,0,.51,0,1.61,1.61,0,0,0,.68-.19,1.72,1.72,0,0,0,.41-.44l.18-.25L71,40.8a2.15,2.15,0,0,0,.37-1.47,3.35,3.35,0,0,0-.58-1.22l-.6-.9a1,1,0,0,0-.25-.31.88.88,0,0,0-.32-.16,3.22,3.22,0,0,0-1.2-.09A1.4,1.4,0,0,0,67.38,37Z" style="fill:#623fe9"/><path d="M66,43.47l-2-.28a1.73,1.73,0,0,1-.93-.47l-3.29-3.11-.39-.25-1.12-.45-.61-.48c-.18-.16-.07-.29.1-.27l.48.39.22.09.13-.07-.76-.77c0-.06.12-.15.18-.15l.69.66.16-.15-.78-.85c-.11-.14.17-.19.42,0l.5.7L59.2,38l-.47-1c0-.06.19.06.26.1.26.14.64.92.64.92l.26.07.15-.24L60,37.54l.43.43-.06.68,3,2.83,2.73.63Z" style="fill:#fff"/><g style="opacity:0.15"><path d="M64.2,42.89a1.85,1.85,0,0,1-.94-.46L60,39.31l-.39-.25-1.06-.43h0l-.22-.09-.48-.39c-.17,0-.28.11-.1.27l.61.48,1.12.45.39.25,3.29,3.11a1.73,1.73,0,0,0,.93.47l2,.28,0-.32Z" style="fill:#525d7a"/></g><g style="opacity:0.15"><path d="M67.32,37.11a1.1,1.1,0,0,1,.69-.42,1,1,0,0,0-.63.32.54.54,0,0,0-.1.2A.42.42,0,0,1,67.32,37.11Z" style="fill:#525d7a"/><path d="M67.74,42.28a2.66,2.66,0,0,0,.53-.47c.12-.17.11-.42.23-.62s.19-.22.28-.34.22-.2.27-.33,0-.29-.07-.41a.5.5,0,0,1-.06-.41,1.46,1.46,0,0,1,.16-.19.26.26,0,0,0,.11-.21c0-.2-.28-.29-.38-.45l-.06-.11a.68.68,0,0,0-.2-.27,2,2,0,0,0-.26-.07,2.34,2.34,0,0,1-.51-.23,2.3,2.3,0,0,0,.4.23,1.45,1.45,0,0,1,.25.11c.08.05.13.2.17.29l0,.12c.08.17.33.29.32.49a.27.27,0,0,1-.13.2.73.73,0,0,0-.18.17.49.49,0,0,0,0,.41.56.56,0,0,1,0,.42c-.07.11-.23.18-.32.29s-.22.18-.32.3-.16.43-.3.59a3,3,0,0,1-.58.4.75.75,0,0,0-.39.63,2.12,2.12,0,0,1,.67,0A.94.94,0,0,1,67.74,42.28Z" style="fill:#525d7a"/></g><path d="M69,49.43l0,0-3.62.1.16.94c1.37-.34,2.87,1.55,3.94.8a4.58,4.58,0,0,0-.06-1A1.53,1.53,0,0,0,69,49.43Z" style="fill:#525d7a;opacity:0.2"/><path d="M69.25,41.24s1.15.43,1.2,1.45l-1.37,4.63L69.47,50c-1.21,1.07-3-.72-4.52.41l1.47-5.87h0a1.52,1.52,0,0,1-.21-1.29l.05-.15,1.5-1.21Z" style="fill:#56408b"/><g style="opacity:0.2"><path d="M66.59,44.29l-.27,0a1,1,0,0,0,.1.17L65,50.37a1.75,1.75,0,0,1,.35-.2l1.42-5.67A2.39,2.39,0,0,1,66.59,44.29Z" style="fill:#2b2046"/><path d="M66.34,50a20.73,20.73,0,0,0,2.27.33A17.71,17.71,0,0,0,66.34,50Z" style="fill:#2b2046"/></g><path d="M68.94,42.16l-1.65.07-1,.83-.05.15a1.5,1.5,0,0,0,.11,1.12l2.27-.41Z" style="fill:#2b2046;opacity:0.2"/><polygon points="68.94 41.87 66.14 41.98 66 43.66 69.08 43.89 68.94 41.87" style="fill:#56408b"/><path d="M71.4,39.84a.88.88,0,0,0-.15-.59.68.68,0,0,0-.23-.18L70.8,39a1.28,1.28,0,0,0-1.06.21,2.27,2.27,0,0,0-.55.43,1.31,1.31,0,0,0-.19.27.33.33,0,0,0,0,.3,7.67,7.67,0,0,0,.29,1.07,1.07,1.07,0,0,0,.82.68,3.78,3.78,0,0,0,.12,1.81,2.34,2.34,0,0,0,.29-.46l.43-.74a4.86,4.86,0,0,0,.43-1A5.56,5.56,0,0,0,71.4,39.84Z" style="fill:#623fe9"/><path d="M71.4,39.84a2.18,2.18,0,0,0,0-.25,2.46,2.46,0,0,0,0-.26,3.35,3.35,0,0,0-.58-1.22l-.6-.9a1,1,0,0,0-.25-.31.88.88,0,0,0-.32-.16,3.22,3.22,0,0,0-1.2-.09,1.4,1.4,0,0,0-1,.36.52.52,0,0,0-.11.24,1.6,1.6,0,0,1,1-.3,3.78,3.78,0,0,1,1.21.08,1.33,1.33,0,0,1,.32.15,1.94,1.94,0,0,1,.26.31l.6.89a3.24,3.24,0,0,1,.6,1.22,2.28,2.28,0,0,1,0,.26,2.11,2.11,0,0,1,0,.25,5.89,5.89,0,0,1,0,1.73c0,.13-.08.25-.13.37a5,5,0,0,0,.26-.64A5.56,5.56,0,0,0,71.4,39.84Z" style="fill:#8165ed"/><rect x="22.03" y="77.8" width="1.4" height="1.52" transform="translate(45.45 157.13) rotate(180)" style="fill:#fff"/><rect x="18.06" y="77.32" width="1.24" height="1.4" transform="matrix(-0.85, -0.53, 0.53, -0.85, -6.9, 154.05)" style="fill:#fff"/><path d="M21.57,80.62H19.93l-3-1.75.86-1.43.16.14-.12.52,1.34.77.32-.44.27.13.21.87.58.48.42,0a.68.68,0,0,1,.64.68Z" style="fill:#623fe9"/><polygon points="21.52 71.84 18.12 77.59 19.33 78.3 21.7 75.52 21.52 71.84" style="fill:#56408b"/><path d="M21.57,80.62H19.93l-3-1.75.26-.43,3.11,1.76c.1-.42.25-.29.25-.29l.42,0A.68.68,0,0,1,21.57,80.62Z" style="fill:#56408b"/><polygon points="21.06 72.62 21.52 71.84 21.7 75.52 21.23 76.07 21.06 72.62" style="fill:#2b2046;opacity:0.30000000000000004"/><path d="M25.62,63.86v.67a3.8,3.8,0,0,1-.11.89L23.7,72.17s0,5.37-.11,6.2H21.83l-.32-6.69L21.67,66h0a4.48,4.48,0,0,1-.73-2.46v-.45h4.69Z" style="fill:#56408b"/><path d="M23.2,72.17,25,65.42a3.51,3.51,0,0,0,.12-.79h.49a3.5,3.5,0,0,1-.11.79L23.7,72.17s0,5.37-.11,6.2h-.5C23.25,77.54,23.2,72.17,23.2,72.17Z" style="fill:#2b2046;opacity:0.30000000000000004"/><path d="M21.56,80.62h5.28v-.2a.64.64,0,0,0-.64-.64H26l-1.85-1.3h-.24v.39H21.82l-.08-.4h-.18Z" style="fill:#623fe9"/><path d="M26.84,80.42v.2H21.56v-.38h4.06a.43.43,0,0,1,.35-.46h.23A.64.64,0,0,1,26.84,80.42Z" style="fill:#56408b"/><path d="M28.87,57.61h0a.81.81,0,0,0-.66-.36h-.93a.82.82,0,0,0-.55.22l0,0H25.15v.39h3.72Z" style="fill:#fff"/><path d="M20.93,51.61l1.5,1.17,1.27-1.62L23,49.85a1,1,0,0,0-1.18-.51h0l-.16,1a1.56,1.56,0,0,1-.39.84Z" style="fill:#fff"/><rect x="25.49" y="57.76" width="5.57" height="0.52" rx="0.24" ry="0.24" transform="translate(56.52 116.05) rotate(-179.96)" style="fill:#f5f7f9"/><path d="M25.49,58a.28.28,0,0,1,.06-.16.24.24,0,0,0,.24.24h5.09a.23.23,0,0,0,.18-.09h0v0a.24.24,0,0,1-.24.25H25.73a.24.24,0,0,1-.24-.24Z" style="fill:#dfe2ec"/><path d="M30.85,57.7h0a.08.08,0,0,0,.1,0l2.44-4.35a.08.08,0,0,0,0-.1h0a.07.07,0,0,0-.1,0L30.82,57.6A.08.08,0,0,0,30.85,57.7Z" style="fill:#dfe2ec"/><rect x="27.19" y="57.89" width="0.48" height="0.18" style="fill:#191c3c"/><rect x="26.63" y="57.89" width="0.48" height="0.18" style="fill:#191c3c"/><rect x="29.65" y="57.9" width="0.48" height="0.18" style="fill:#191c3c"/><path d="M22.38,49.67l0-.32a1,1,0,0,1,.61.5l.68,1.31-.35.45L23,51.29A2,2,0,0,1,22.38,49.67Z" style="fill:#525d7a;opacity:0.15"/><path d="M25.69,48.39v1l-.36.2,0,1L25,50.46l-.41.64a.69.69,0,0,1-1,.2l-.52-.37a2,2,0,0,1-.85-1.51l-.11-1.34.19-.16a3.56,3.56,0,0,1,3-.76l.16,0,.16.58A2.21,2.21,0,0,1,25.69,48.39Z" style="fill:#fff"/><g style="opacity:0.15"><path d="M22.12,48.08l.19-.16a3.56,3.56,0,0,1,3-.76l.16,0,.16.58a2.21,2.21,0,0,1,.09.62v.09a.92.92,0,0,1-.25-.09c-.1,0-.09-.08-.18,0a1.77,1.77,0,0,0-.17.12.86.86,0,0,1-.78,0s0,0-.07,0,0,0,0,.06c-.3.62-.6.56-.58.39a.6.6,0,0,0-.14-.47.52.52,0,0,0-.56-.14c-.18.09-.34.17-.39.37a2.22,2.22,0,0,0-.08.77c0,.15-.2.15-.21-.06Z" style="fill:#525d7a"/></g><path d="M21.88,48.73a5.54,5.54,0,0,1,0-.71,2.85,2.85,0,0,1,.57-1.43.76.76,0,0,1,.55-.28c.11,0,.23.06.33,0s.14-.12.21-.18a.63.63,0,0,1,.37-.14,2,2,0,0,1,1.43.44c.13.11.25.24.37.35.31.3.64.64,1.1.5a0,0,0,0,1,.05,0v0a.68.68,0,0,1-.27.5,1.59,1.59,0,0,1-.54.26,1.61,1.61,0,0,1-.38.08.92.92,0,0,1-.43-.11c-.09-.05-.09-.07-.18,0l-.16.12a.88.88,0,0,1-.79,0s0,0-.07,0a.1.1,0,0,0-.05.06c-.12.26-.14.56-.25.84,0,0,0,.06,0,.07h-.08l-.31,0a4.42,4.42,0,0,0,.1-.5.56.56,0,0,0-.13-.47.5.5,0,0,0-.56-.07.71.71,0,0,0-.35.46,1.35,1.35,0,0,0,0,.6.38.38,0,0,1-.25.58l-.39.12A8.34,8.34,0,0,0,21.88,48.73Z" style="fill:#413068"/><path d="M25.74,47.14c-.12-.12-.24-.24-.37-.35a1.91,1.91,0,0,0-1.43-.44.63.63,0,0,0-.37.14c-.07.06-.12.15-.21.18s-.22,0-.33,0a.76.76,0,0,0-.55.28,2.85,2.85,0,0,0-.57,1.43,5.47,5.47,0,0,0,0,.7,6.85,6.85,0,0,1-.07.78h0a8.34,8.34,0,0,0,.11-1.11,5.54,5.54,0,0,1,0-.71,2.85,2.85,0,0,1,.57-1.43.76.76,0,0,1,.55-.28c.11,0,.23.06.33,0s.14-.12.21-.18a.63.63,0,0,1,.37-.14,2,2,0,0,1,1.43.44c.13.11.25.24.37.35.31.3.64.64,1.1.5a0,0,0,0,1,.05,0v0a.56.56,0,0,1-.11.32C26.35,47.74,26,47.43,25.74,47.14Z" style="fill:#413068"/><path d="M22.38,49l0,.15a.78.78,0,0,1,0,.37v0A1.55,1.55,0,0,1,22.38,49Z" style="fill:#413068"/><path d="M23.44,49a.86.86,0,0,1,0,.17h-.07l.09-.41A1,1,0,0,1,23.44,49Z" style="fill:#413068"/><path d="M23.6,51.3l0,0,.09-.16.31-.5a.62.62,0,0,1,.33-.31.54.54,0,0,1,.28,0,1.22,1.22,0,0,1,.36.18l-.37.58A.69.69,0,0,1,23.6,51.3Z" style="fill:#413068"/><path d="M23.9,51.39l.07-.11.22-.35c.06-.09.12-.19.23-.22a.35.35,0,0,1,.2,0l.15.07-.19.3a.68.68,0,0,1-.64.32h0Z" style="fill:#f6f6f6"/><path d="M20.93,63.12h4.69v1.49c-1.37.18-3.33-1-4.68-.8a1.92,1.92,0,0,1,0-.24Z" style="fill:#2b2046;opacity:0.30000000000000004"/><path d="M21,51.53l-.5.72a4.8,4.8,0,0,0-.39.9,5.38,5.38,0,0,0-.34,1.47v.8a4.59,4.59,0,0,0,.1.9l.53,2.42a7,7,0,0,1,.11,2.38l-.35,2.56c1.44-1,4.6,1,6.16,0l-.86-4.62a13.38,13.38,0,0,0-.14-1.42l-.22-1.43a7.69,7.69,0,0,0-1.81-3.89L23,52Z" style="fill:#623fe9"/><g style="opacity:0.15"><path d="M20.12,53.15a4.8,4.8,0,0,1,.39-.9l.5-.72.28.07-.45.65a4.8,4.8,0,0,0-.39.9,5.38,5.38,0,0,0-.34,1.47v.8a3.94,3.94,0,0,0,.1.9l.53,2.42a7,7,0,0,1,.11,2.38l-.32,2.38a2,2,0,0,0-.36.18l.35-2.56a7,7,0,0,0-.11-2.38l-.53-2.42a4.59,4.59,0,0,1-.1-.9v-.8A5.38,5.38,0,0,1,20.12,53.15Z" style="fill:#312075"/></g><path d="M22.73,54.29l1.15,4.21,4.3.11.12.74L23.77,60a1.36,1.36,0,0,1-1.45-.79l-1.84-4.14a1,1,0,0,1,.57-1.29l.47-.15A1,1,0,0,1,22.73,54.29Z" style="fill:#623fe9"/><path d="M20.87,55.26l1.62,3.64a1.36,1.36,0,0,0,1.45.79l4.31-.63.05.29L23.77,60a1.36,1.36,0,0,1-1.45-.79l-1.84-4.14C20.09,54.35,20.77,55.12,20.87,55.26Z" style="fill:#312075;opacity:0.15"/><path d="M28.3,59.27,30.11,59l.81-.29.34-.46a.41.41,0,0,0-.05-.52l-.07-.07-.72.72-2,0-.25.41Z" style="fill:#fff"/><path d="M28.3,59l1.81-.32.09,0a2,2,0,0,0,1.09-.92h0v.31l-.37.51-.81.36-1.81.32-.11-.55,0-.06Z" style="fill:#525d7a;opacity:0.15"/></svg>