<?xml version="1.0" encoding="utf-8"?>
<!-- Generator: Adobe Illustrator 22.0.1, SVG Export Plug-In . SVG Version: 6.00 Build 0)  -->
<svg version="1.1" id="Layer_1" xmlns="http://www.w3.org/2000/svg" xmlns:xlink="http://www.w3.org/1999/xlink" x="0px" y="0px"
	 viewBox="0 0 100 100" style="enable-background:new 0 0 100 100;" xml:space="preserve">
<style type="text/css">
	.st0{fill:#E9D6B8;}
	.st1{fill:#163F59;}
	.st2{fill:#EDEEF0;}
	.st3{fill:#B0BFDE;}
	.st4{fill:#081832;}
	.st5{fill:#194866;}
	.st6{fill:#BCD0E2;}
	.st7{fill:#484F59;}
	.st8{fill:#B7BEC0;}
	.st9{fill:#CDD5D7;}
	.st10{fill:#E5E8EC;}
	.st11{fill:#2C7EEA;}
	.st12{fill:#2366BD;}
	.st13{fill:#F4DA80;}
	.st14{fill:#F99B0F;}
	.st15{fill:#B91E2D;}
	.st16{fill:#E2C59C;}
	.st17{fill:#FFAB01;}
	.st18{fill:#15100C;}
	.st19{opacity:0.6;}
	.st20{clip-path:url(#SVGID_2_);}
	.st21{fill:#EED2CE;}
	.st22{fill:#C49189;}
	.st23{fill:#FFEBE8;}
	.st24{fill:#E0B6AF;}
	.st25{fill:#EDEDED;}
	.st26{fill:#3C463B;}
	.st27{fill:#2771D1;}
	.st28{fill:#161711;}
	.st29{fill:#323B31;}
	.st30{fill:#B6C2C9;}
	.st31{fill:#879BA6;}
	.st32{fill:#E4EEF3;}
	.st33{fill:#FF8B5D;}
	.st34{fill:#FFFFFF;}
	.st35{fill:#EF8357;}
	.st36{fill:#D5E1F2;}
	.st37{fill:#FFC910;}
	.st38{fill:#FFCA10;}
	.st39{fill:#282723;}
	.st40{fill:#D1DBEA;}
	.st41{fill:#19486D;}
	.st42{fill:#265880;}
</style>
<title>shopping</title>
<g>
	<polygon class="st0" points="13.3,45.3 14.2,44 15.7,44.1 15.3,45.4 14.7,46.4 	"/>
	<path class="st1" d="M16.9,42.4c0,0.3-0.3,0.6-0.6,0.5l-2.2-0.1c-0.3,0-0.6-0.3-0.5-0.6l0,0c0-0.3,0.3-0.6,0.6-0.5l0,0l2.2,0.1
		C16.7,41.9,16.9,42.1,16.9,42.4L16.9,42.4L16.9,42.4L16.9,42.4z"/>
	<path class="st1" d="M16.5,43.4c0,0.6-0.5,1-1.1,1l-1.1-0.1c-0.6,0-1-0.5-1-1.1l0,0c0.1-0.6,0.5-1,1.1-1l1.1,0.1
		C16.1,42.4,16.5,42.8,16.5,43.4z"/>
	<path class="st0" d="M17.2,45.1l0.2-3.2c0-0.5-0.4,0-0.9,0H16c-0.5-0.1-0.9,0.3-1,0.8v0.1l0,0l-0.1,2.3
		C14.9,45.1,17.2,45.1,17.2,45.1z"/>
	<path class="st0" d="M15.3,43.4c0,0.2-0.2,0.4-0.4,0.4l0,0c-0.2,0-0.4-0.2-0.4-0.4l0,0c0-0.2,0.2-0.4,0.4-0.4l0,0
		C15.2,43,15.3,43.2,15.3,43.4z"/>
	<path class="st0" d="M17,44.1c0,0.1,0.1,0.2,0.2,0.2l0,0h0.2c0.1,0,0.2-0.1,0.3-0.2c0,0-0.4-1.3-0.5-1.3c-0.1,0.1-0.1,0.1-0.1,0.2
		L17,44.1z"/>
	<path class="st1" d="M15.9,44.9c-1,0-1-0.3-1.1-0.7c-0.1,0.4-0.2,0.7-0.3,1.1v0.3c0.1,0.6,0.6,1.1,1.3,1.1l1.3,0.1l0.1-1.5V45
		L15.9,44.9z"/>
	<path class="st1" d="M17.3,44.3h-0.7c-0.3,0-0.6,0.2-0.7,0.6l0,0v0.2l1.4,0.1V44.3z"/>
	<path class="st0" d="M16.3,45v0.2c0,0,0,0.1,0.1,0.1l0,0H17c0.1,0,0.1,0,0.1-0.1V45H16.3z"/>
	<path class="st1" d="M17.1,41.3l-1.9-0.1c-0.2,0-0.4,0.1-0.4,0.3l0,0l0,0v0.8l2.3,0.1V41.3z"/>
	<path class="st1" d="M18.3,41.9c0,0.3-0.3,0.6-0.6,0.5l0,0l0,0l-1.3-0.1c-0.3,0-0.5-0.3-0.5-0.6l0,0l0,0l0,0c0-0.3,0.3-0.5,0.6-0.5
		l0,0l1.3,0.1C18,41.3,18.3,41.6,18.3,41.9L18.3,41.9z"/>
	
		<rect x="14.5" y="42.5" transform="matrix(5.965706e-02 -0.9982 0.9982 5.965706e-02 -28.3951 55.365)" class="st1" width="1.4" height="0.5"/>
	
		<rect x="15.1" y="41.5" transform="matrix(5.983007e-02 -0.9982 0.9982 5.983007e-02 -27.2721 55.5541)" class="st1" width="1.6" height="1.5"/>
	<path class="st0" d="M15.4,43.1c0-0.4,0.4-0.8,0.8-0.7l0,0h0.4c0.4,0,0.6,0.4,0.6,0.8l0,0c0,0.4-0.4,0.8-0.8,0.7l0,0h-0.3
		C15.8,43.9,15.4,43.5,15.4,43.1C15.5,43.1,15.5,43.1,15.4,43.1L15.4,43.1z"/>
	<path class="st2" d="M20.1,53c0.3,0.1,0.5,0.2,0.8,0.4v0.5c0,0.1-0.2-0.2-0.3,0.1c-0.1,0.2-0.1,0.4,0,0.6l0.5,0.4h0.3l0.3-0.2
		l0.1-0.6l-0.1-1l-1-0.8L20,52.5L20.1,53z"/>
	<path class="st2" d="M20.5,51.9l1.1,0.8c0,0,0.3,0.4,0.4,0.7c0.1,0.2,0.2,0.4,0.3,0.5c0,0.3-0.1,0.5-0.2,0.7c-0.1,0.1-0.4,0-0.4,0
		h-0.6c0,0-0.2-0.1,0-0.3c0.2-0.1,0.4-0.2,0.6-0.2v-0.4c-0.1-0.3-0.3-0.5-0.5-0.8l-0.9-0.5L20.5,51.9z"/>
	<polygon class="st3" points="17.3,49.4 20.7,51.7 20.1,53.2 17.6,52.7 	"/>
	<path class="st4" d="M8.5,72.4c-0.4,0.1-0.7,0.2-1.1,0.2c-0.3,0-0.6-0.1-0.9-0.3C6.2,72.2,6,72,5.8,71.8c-0.2-0.5-0.3-1-0.4-1.5
		l-0.2,0.1L5,69.7c0,0,0.5-1.1,0.8-1.1s1.3,1.2,1.3,1.2l0.1,1.4L7.7,72c0,0,0.5,0.1,0.6,0.2C8.4,72.2,8.5,72.4,8.5,72.4z"/>
	<path class="st4" d="M19.9,71.7l0.7,1.4l1.2-0.5l-0.1-0.4l0.6-0.2l0.8-0.1l2.4-1.8c0,0-0.1-0.3-0.2-0.3C25,69.6,24,70.3,24,70.3
		l-1.9,0.3L19.9,71.7z"/>
	<polygon class="st1" points="14,60.6 13.1,63 7.6,70.3 5.7,68.6 10.3,61.5 11.1,55.6 	"/>
	<path class="st5" d="M13.6,52.7c0,0,3.3,9.8,4.3,12c1,2.3,4.7,5.7,4.7,5.7L19.3,72c0,0-4.7-7.6-5.7-10.3c-0.8-1.9-1.9-3.8-3.1-5.5
		c-1.3-0.9-1.9-2.6-1.4-4.1C9.8,49.5,13.6,52.7,13.6,52.7z"/>
	<path class="st6" d="M16,47l-1.5,7.7L9,51.8l3.7-6.8C12.7,45,14,43.7,16,47z"/>
	<path class="st7" d="M40.3,70.6c0,0.7-0.5,1.2-1.2,1.2l0,0c-0.7,0.1-1.3-0.4-1.3-1.1s0.4-1.3,1.1-1.3c0.1,0,0.1,0,0.2,0l0,0
		C39.8,69.4,40.3,70,40.3,70.6z"/>
	<path class="st8" d="M39.8,70.6c0,0.4-0.3,0.7-0.7,0.7s-0.7-0.3-0.7-0.7c0-0.4,0.3-0.7,0.7-0.7l0,0C39.5,69.9,39.8,70.2,39.8,70.6
		L39.8,70.6z"/>
	<path class="st9" d="M39.7,70.6c0,0.4-0.3,0.6-0.6,0.6l0,0c-0.4,0-0.6-0.3-0.6-0.6s0.3-0.6,0.6-0.6l0,0l0,0
		C39.5,70,39.7,70.3,39.7,70.6L39.7,70.6z"/>
	<path class="st9" d="M39.4,70.3c0,0.4-0.2,0.5-0.5,0.2l-1-1.1c-0.2-0.3-0.1-0.5,0.2-0.5h0.5c0.4,0,0.7,0.3,0.7,0.7l0,0L39.4,70.3z"
		/>
	<path class="st8" d="M38,69.6h0.7c0.4,0,0.7,0.3,0.7,0.6v-0.5c0-0.4-0.3-0.7-0.7-0.7h-0.5C37.8,69,37.7,69.2,38,69.6L38,69.6z"/>
	<path class="st7" d="M31,70.6c0,0.7-0.5,1.2-1.2,1.2l0,0c-0.7,0-1.2-0.5-1.2-1.2s0.5-1.2,1.2-1.2l0,0l0,0C30.5,69.5,31,70,31,70.6
		L31,70.6z"/>
	<path class="st8" d="M30.5,70.6c0,0.4-0.3,0.7-0.7,0.7c-0.4,0-0.7-0.3-0.7-0.7c0-0.4,0.3-0.7,0.7-0.7l0,0l0,0
		C30.2,69.9,30.5,70.2,30.5,70.6L30.5,70.6z"/>
	<path class="st9" d="M30.5,70.6c0,0.3-0.3,0.6-0.6,0.6l0,0l0,0c-0.4,0-0.6-0.3-0.6-0.6s0.3-0.6,0.6-0.6l0,0l0,0
		C30.2,70,30.5,70.3,30.5,70.6L30.5,70.6L30.5,70.6z"/>
	<path class="st9" d="M30.1,70.3c0,0.4-0.2,0.5-0.5,0.2l-1-1.1c-0.2-0.3-0.1-0.5,0.2-0.5h0.6c0.4,0,0.7,0.3,0.7,0.7l0,0L30.1,70.3z"
		/>
	<path class="st8" d="M28.8,69.6h0.7c0.4,0,0.7,0.3,0.7,0.6v-0.5c0-0.4-0.3-0.7-0.7-0.7H29C28.5,69,28.4,69.2,28.8,69.6L28.8,69.6z"
		/>
	<rect x="33.5" y="52.6" transform="matrix(0.1094 -0.994 0.994 0.1094 -29.8129 87.3436)" class="st9" width="0.7" height="15.5"/>
	
		<rect x="34.1" y="55.7" transform="matrix(6.122573e-02 -0.9981 0.9981 6.122573e-02 -30.3646 93.3226)" class="st9" width="0.7" height="14.3"/>
	<path class="st8" d="M40.6,69.2L40.6,69.2L29,69.1c-0.3,0-0.7-0.1-0.9-0.4c-0.3-0.5-0.3-1.1-0.1-1.7c0.2-1.1,0.4-1.7,0.4-1.7
		c0-0.2,0.2-0.3,0.4-0.3h7c0.2,0,0.3,0.1,0.4,0.3l0,0l0,0c0,0.2-0.1,0.3-0.3,0.4l0,0h-6.8c-0.1,0.3-0.2,0.8-0.3,1.4
		c-0.1,0.3-0.2,0.9-0.1,1.1c0.1,0.1,0.3,0.1,0.4,0.1l11.7,0.1c0.2,0,0.4,0.1,0.4,0.3l0,0c0,0.2-0.1,0.4-0.3,0.4l0,0
		C40.7,69.2,40.7,69.2,40.6,69.2L40.6,69.2z"/>
	<path class="st9" d="M28.9,68.9c-0.3,0-0.6-0.1-0.8-0.3c-0.3-0.3-0.2-0.9,0-1.5c0.2-1.1,0.4-1.7,0.4-1.7c0-0.1,0.1-0.1,0.2-0.1h7.1
		c0.1,0,0.2,0.1,0.2,0.2v0.1c0,0-0.1,0-0.1,0.1H29v0.1l-0.5,1.5c-0.2,0.7-0.2,1.1,0,1.2s0.3,0.1,0.5,0.1l11.8,0.1
		c0.1,0,0.2,0.1,0.2,0.2l0,0l0,0c0,0.1-0.1,0.2-0.2,0.2l0,0L28.9,68.9z"/>
	<path class="st9" d="M29.9,64.9c-0.1,0-0.3-0.1-0.3-0.2l-2.2-7.2c-0.1-0.2,0.1-0.4,0.2-0.4c0.2-0.1,0.4,0,0.4,0.2l0,0l2.2,7.2
		c0.1,0.2,0,0.4-0.2,0.4H29.9z"/>
	<path class="st9" d="M31.5,64.9c-0.2,0-0.3-0.1-0.3-0.3l-1.8-7c-0.1-0.2,0-0.4,0.2-0.4c0.2-0.1,0.4,0,0.4,0.2v0.1l1.7,6.9
		C31.9,64.7,31.7,64.8,31.5,64.9L31.5,64.9z"/>
	<path class="st9" d="M33.2,64.9c-0.2,0-0.3-0.1-0.3-0.3L31.6,58c0-0.2,0.2-0.4,0.3-0.4c0.1,0,0.3,0.1,0.3,0.2l1.3,6.7
		C33.6,64.7,33.5,64.9,33.2,64.9L33.2,64.9L33.2,64.9z"/>
	<path class="st9" d="M34.9,64.9c-0.2,0-0.3-0.1-0.3-0.3l-0.8-6.4c0-0.2,0.1-0.4,0.3-0.4l0,0l0,0c0.2,0,0.3,0.1,0.4,0.3l0,0l0,0
		l0.8,6.4C35.3,64.7,35.2,64.9,34.9,64.9C35,64.9,35,64.9,34.9,64.9L34.9,64.9L34.9,64.9z"/>
	<path class="st9" d="M36.6,64.9c-0.2,0-0.3-0.1-0.3-0.3l-0.4-6.1c0-0.2,0.1-0.4,0.3-0.4s0.4,0.1,0.4,0.3l0,0l0,0l0.4,6.1
		C37,64.7,36.8,64.9,36.6,64.9L36.6,64.9L36.6,64.9L36.6,64.9z"/>
	<path class="st9" d="M38.3,64.9L38.3,64.9c-0.2,0-0.3-0.2-0.3-0.3v-5.8c0-0.2,0.2-0.3,0.3-0.3l0,0c0.2,0,0.3,0.2,0.3,0.3l0,0v5.8
		C38.6,64.8,38.5,64.9,38.3,64.9z"/>
	<path class="st9" d="M40,64.9L40,64.9c-0.2,0-0.3-0.2-0.3-0.4l0,0l0,0l0.5-5.5c0-0.2,0.2-0.3,0.3-0.3c0.2,0,0.3,0.2,0.3,0.4l0,0
		l0,0l-0.5,5.5C40.3,64.8,40.1,64.9,40,64.9z"/>
	<path class="st9" d="M41.2,65.1H28.4c-0.1,0-0.3-0.1-0.3-0.2l-3.6-8.8l0,0c0,0-0.2-0.3-1-0.6c-1-0.3-2.3-0.9-2.3-0.9
		c-0.2,0-0.3-0.2-0.2-0.4l0,0c0.1-0.2,0.2-0.3,0.4-0.2l0.1,0.1c0,0,1.2,0.6,2.2,0.9c0.6,0.1,1.1,0.5,1.4,1l0.3,0.8L42.1,59
		c0.1,0,0.2,0.1,0.2,0.1c0.1,0.1,0.1,0.2,0.1,0.3L41.5,65C41.5,65,41.3,65.1,41.2,65.1z M28.6,64.4h12.3l0.8-4.9l-15.9-2.1
		L28.6,64.4z"/>
	<path class="st9" d="M41.2,65.1H28.4c-0.1,0-0.3-0.1-0.3-0.2l-3.6-8.8l0,0c0,0-0.2-0.3-1-0.6c-1-0.3-2.3-0.9-2.3-0.9
		c-0.2,0-0.3-0.2-0.2-0.4l0,0c0.1-0.2,0.2-0.3,0.4-0.2l0.1,0.1c0,0,1.2,0.6,2.2,0.9c0.6,0.1,1.1,0.5,1.4,1l0.3,0.8L42.1,59
		c0.1,0,0.2,0.1,0.2,0.1c0.1,0.1,0.1,0.2,0.1,0.3L41.5,65C41.5,65,41.3,65.1,41.2,65.1z M28.6,64.4h12.3l0.8-4.9l-15.9-2.1
		L28.6,64.4z"/>
	<polygon class="st8" points="41.1,64.2 41.9,59.2 25.9,57.1 26,57.4 41.7,59.5 40.9,64.2 	"/>
	<path class="st8" d="M41.3,64.8H28.6c-0.1,0-0.3-0.1-0.3-0.2l-3.6-8.8c0,0-0.2-0.3-1-0.6c-1-0.4-2.3-0.9-2.3-0.9
		c-0.1-0.1-0.2-0.2-0.2-0.4C21,54,21,54.2,21.1,54.4c0,0.1,0.1,0.1,0.1,0.1l0,0c0.1,0,1.3,0.6,2.3,0.9c0.8,0.3,1,0.6,1,0.6l3.6,8.8
		c0.1,0.1,0.2,0.2,0.3,0.2h12.8c0.2,0,0.3-0.1,0.3-0.3l0,0C41.4,64.8,41.4,64.8,41.3,64.8z"/>
	<path class="st10" d="M28.6,64.7c-0.1,0-0.1,0-0.1-0.1l-3.6-8.9l0,0c-0.3-0.3-0.6-0.5-1-0.6c-1-0.3-2.2-0.9-2.3-0.9l-0.1-0.1V54
		c0-0.1,0.1-0.1,0.1-0.1h0.1c0,0,1.3,0.6,2.3,0.9c1,0.3,1.3,0.8,1.3,0.9l0.4,0.9l16.8,2.2h0.1v0.1l-0.9,5.6c0,0.1-0.1,0.1-0.1,0.1
		L28.6,64.7z M28.6,64.4h12.6l0.9-5.3l-16.5-2.2L28.6,64.4z"/>
	<path class="st7" d="M23.7,54.7l-2.2-0.9c-0.2-0.1-0.5,0-0.6,0.3c-0.1,0.2,0,0.5,0.3,0.6l0,0l2.3,0.9L23.7,54.7z"/>
	<path class="st10" d="M31.6,64.6c-0.1,0-0.1,0-0.1-0.1l-0.5-2l-1.5-0.1l0.6,2c0,0.1,0,0.1-0.1,0.2l0,0l0,0c-0.1,0-0.1,0-0.1-0.1
		l-0.6-2.2l-1.6-0.1V62l1.5,0.1l-0.7-2.5l-2-0.2v-0.3l1.9,0.2l-0.6-2.2c0-0.1,0-0.1,0.1-0.2l0,0c0.1,0,0.1,0,0.1,0.1l0.7,2.3
		l1.7,0.2l-0.5-2.1v-0.1c0,0,0,0,0.1-0.1l0,0c0.1,0,0.1,0,0.1,0.1l0.5,2.2l1.7,0.2l-0.4-2c0-0.1,0-0.1,0.1-0.2l0,0l0,0
		c0.1,0,0.1,0,0.1,0.1l0.4,2.2l1.8,0.2L34,58c0-0.1,0-0.1,0.1-0.1l0,0c0.1,0,0.1,0,0.2,0.1l0.3,2l1.7,0.2l-0.1-1.9v-0.1h0.1
		c0.1,0,0.1,0,0.1,0.1l0.1,1.9l1.7,0.2v-1.9c0-0.1,0.1-0.1,0.1-0.1l0,0c0.1,0,0.1,0.1,0.1,0.1v1.8l1.7,0.2l0.2-1.8
		c0-0.1,0.1-0.1,0.1-0.1h0.1v0.1l-0.2,1.8l1,0.1V61l-0.9-0.1l-0.2,1.9l1.2,0.1v0.3l-1.2-0.1l-0.1,1.4c0,0.1-0.1,0.1-0.1,0.1
		s-0.1,0-0.1-0.1v-0.1L40,63h-1.4v1.5c0,0.1-0.1,0.1-0.1,0.1l0,0c-0.1,0-0.1,0-0.2-0.1l0,0l0,0V63l-1.6-0.1l0.1,1.6v0.1h-0.1
		c-0.1,0-0.1,0-0.1-0.1l0,0l-0.1-1.6l-1.6-0.1l0.3,1.6c0,0.1,0,0.1-0.1,0.2l0,0l0,0c-0.1,0-0.1,0-0.1-0.1l-0.2-1.8h-1.6l0.3,1.8
		c0,0.1,0,0.1-0.1,0.2l0,0c-0.1,0-0.1,0-0.1-0.1l-0.4-1.8l-1.6-0.1l0.5,1.9c0,0.1,0,0.1-0.1,0.1l0,0L31.6,64.6z M38.6,62.7l1.6,0.1
		l0.2-1.9l-1.7-0.2L38.6,62.7z M36.8,62.6l1.6,0.1v-2l-1.7-0.2L36.8,62.6z M34.9,62.5l1.6,0.1l-0.1-2.2l-1.7-0.2L34.9,62.5z
		 M33.1,62.4l1.6,0.1l-0.3-2.2l-1.7-0.2L33.1,62.4z M31.3,62.3l1.6,0.1L32.4,60l-1.8-0.1L31.3,62.3z M29.4,62.2l1.6,0.1l-0.7-2.4
		l-1.7-0.2L29.4,62.2z"/>
	<path class="st3" d="M17.8,50.3c0,0-1.2-2.5-1.6-3.2c-0.4-0.6-0.9-1.1-1.4-1.7c0,0-0.8,0.5-0.9,0.9c-0.2,0.9-0.1,1.9,0.3,2.8
		l3.4,3.6l0.7-0.8L17.8,50.3z"/>
	<polygon class="st3" points="13.9,44.4 13.4,44.8 15.4,46.3 15.5,45.7 	"/>
	<path class="st10" d="M56,49.3h26.4c0.8,0,1.5,0.7,1.5,1.5v15.4c0,0.8-0.7,1.5-1.5,1.5H56c-0.8,0-1.5-0.7-1.5-1.5V50.8
		C54.4,50,55.1,49.3,56,49.3z"/>
	<path class="st11" d="M56,49.1h26.4c0.8,0,1.5,0.7,1.5,1.5V66c0,0.8-0.7,1.5-1.5,1.5H56c-0.8,0-1.5-0.7-1.5-1.5V50.6
		C54.4,49.8,55.1,49.1,56,49.1z"/>
	<path class="st12" d="M66.7,53.4C66.7,53.4,66.7,53.3,66.7,53.4c0.2-0.1,0.3,0,0.4,0S67,53.3,67,53.3l0.2,0.1c0-0.1,0-0.1-0.1-0.2
		c0.2,0,0.2-0.3,0.1-0.5c0.1,0,0.2,0,0.3,0c0-0.1-0.2-0.1-0.2-0.2c0.1,0,0.1-0.1,0.2,0s0-0.1,0-0.2c0-0.1,0.1-0.1,0.2-0.1
		s0.3,0.1,0.2-0.1s-0.1,0-0.2-0.1c0-0.1-0.1-0.1-0.2-0.1S67.2,52,67.2,52c-0.1,0,0.3-0.1,0.3-0.2c0-0.1-0.2-0.1-0.4-0.1
		c-0.2,0-0.2-0.1-0.3,0c-0.1,0.1-0.1,0-0.1-0.1c-0.1-0.1-0.4,0-0.5,0.1s-0.3,0-0.4,0.1s0.1,0.2,0,0.2h-0.5c-0.3,0-0.4,0.3-0.7,0.3
		c0,0.1,0.1,0,0.1,0.1s-0.2,0.1-0.3,0.2c-0.1,0-0.1,0-0.2,0l0,0l0,0c0.1,0,0.1,0,0.2,0.1s0.2-0.1,0.2,0s0.2-0.1,0.2,0s-0.3,0-0.4,0
		s0.1,0.1,0.2,0.2c0.1,0.1,0.1-0.1,0.2-0.1c0.1,0.1,0.2,0.1,0.4,0.1c0,0.1,0,0.2,0.1,0.3c0,0.1,0,0.1,0,0.2c0.1,0.1,0.1-0.1,0.2,0
		s-0.2,0-0.3,0c-0.1,0,0.2,0.1,0.3,0.2c-0.1,0-0.1,0.1-0.2,0.2c0.1,0-0.1,0.1-0.1,0.2c0.2,0.1,0,0.5,0.2,0.7h0.2
		c0.1,0,0.1,0.1,0.2,0.1s0.1-0.1,0.1-0.2c0-0.2,0.2-0.2,0.1-0.5c0.1,0,0-0.1,0.1-0.1s0.1-0.1,0.2,0l0.1-0.1c0.1,0,0.2-0.2,0.4-0.2
		c0.2,0,0.3-0.2,0.2-0.3C66.9,53.5,66.7,53.4,66.7,53.4z M67,53.3c0,0,0-0.1,0-0.2h0.1C67.1,53.1,67,53.2,67,53.3L67,53.3z
		 M67.2,51.8c0,0.1-0.1,0.1-0.1,0.2c-0.1-0.1-0.3-0.1-0.4-0.1C66.8,51.7,67,51.8,67.2,51.8z"/>
	<path class="st12" d="M63,52.2v0.2h0.2c0.1,0,0.2-0.3,0.3-0.2s-0.2,0-0.1,0.1c0,0.1-0.1,0-0.1,0.1s0.1,0,0.1,0.1s-0.1,0-0.2,0
		c-0.1,0-0.1,0.1,0,0.2c0.1,0.1,0.3,0,0.4,0.1c-0.2,0.1-0.4-0.1-0.5-0.1s0.2,0.1,0.2,0.2c0.2,0,0.5,0.1,0.6-0.1c0.1,0,0.1,0,0.1-0.1
		s-0.1,0-0.1-0.1h0.2c0-0.2,0.2-0.2,0.1-0.3c0.2,0,0.2-0.2,0.4-0.1c0-0.1,0.1-0.1,0.2-0.1c0-0.1-0.1-0.2,0-0.2s0.3,0,0.4-0.2
		s-0.1,0-0.1-0.1c-0.6,0-1.1,0-1.7,0.1c0,0.2,0.1,0.2,0.2,0.3c-0.2,0-0.1-0.2-0.4-0.2V52c0,0.1-0.1,0-0.1,0.1
		C63,52.2,62.9,52.2,63,52.2z"/>
	<path class="st12" d="M70.3,52.2c0-0.1,0.2,0,0.1-0.2c-0.3,0-0.5-0.1-0.8-0.1V52C69.8,52.2,70.1,52.2,70.3,52.2z"/>
	<path class="st12" d="M69.1,52.3c0,0.1-0.1,0.1,0,0.2s0.1-0.1,0.3-0.1c0.1,0-0.1,0.1-0.1,0.3c0.1,0.1,0.1,0.1,0.2,0.1
		c0,0.1,0.1,0.1,0.1,0.1s0-0.2,0.1-0.4c0.1,0.1,0.1,0.2,0.3,0.2c0-0.2-0.2-0.3-0.2-0.4c0,0.1-0.1,0-0.1,0c-0.1,0-0.1,0-0.1-0.1
		c0.1-0.1,0-0.2-0.2-0.2s0,0.2,0,0.2c-0.1-0.2-0.4-0.3-0.4,0C69,52.2,69.1,52.3,69.1,52.3L69.1,52.3z"/>
	<path class="st12" d="M72.2,52.1c0-0.2-0.3-0.1-0.3,0S72.1,52.1,72.2,52.1z"/>
	<path class="st12" d="M73.8,52.3c0.2,0,0.5,0.1,0.5-0.1c-0.1-0.1-0.3-0.2-0.5-0.1C73.8,52.1,73.8,52.2,73.8,52.3z"/>
	<path class="st12" d="M79.9,54.2c0.1,0,0.1-0.1,0.2-0.1s0.1,0.2,0.3,0.2c0.2,0,0-0.2,0-0.3s-0.2-0.2-0.3-0.1c0-0.1,0-0.1,0-0.2
		c-0.2,0-0.3-0.2-0.5-0.2c0-0.1-0.1-0.1-0.2-0.1c0-0.1-0.2-0.1-0.4-0.1c0,0.1,0.1,0.2,0,0.2s-0.1-0.1-0.2-0.2c-0.1,0-0.3,0-0.4,0.1
		c-0.2,0.1-0.1-0.3-0.3-0.2c0,0,0,0.1-0.1,0.1l-0.4-0.2c0,0,0,0.1-0.1,0.1c0-0.1-0.1-0.1-0.2-0.1c0.1-0.1,0-0.1,0-0.1s-0.1,0-0.3,0
		h-0.1c0,0,0.1,0.1,0,0.1h-0.8c-0.2,0-0.1-0.1-0.2-0.1s-0.2,0-0.3-0.1h-0.1c-0.1-0.1-0.2-0.1-0.3-0.1c0-0.1,0.1-0.1,0.1-0.2
		c0-0.1-0.1-0.1-0.2-0.2c-0.1,0-0.2,0-0.4,0c-0.1,0-0.1-0.1-0.2-0.1s-0.1,0.1-0.1,0.2c-0.2-0.1-0.1,0.1-0.2,0.1s0-0.1-0.1-0.1
		c-0.1,0.1-0.2,0.2-0.4,0.1c0,0.1-0.1,0.1-0.2,0.1s0,0.2-0.1,0.2s-0.2-0.1-0.2,0.1s0.2,0,0.1,0.2c-0.1,0-0.1-0.1-0.3-0.1l0,0
		c0-0.1,0,0.1-0.2,0.1s0-0.2-0.2-0.1c-0.1,0.1-0.2,0.2-0.3,0.3c-0.1,0-0.3,0-0.4-0.1c0,0.2,0.2,0.1,0.1,0.2c-0.1,0-0.3,0-0.4,0
		c-0.1,0.1-0.2,0.2-0.4,0.2v-0.2H71c0,0.2,0,0.3-0.2,0.3c0,0.1-0.1,0.1-0.2,0.1s0,0.1,0,0.1c-0.1-0.1-0.1-0.2-0.2-0.3
		c0.1,0,0.3,0,0.4,0c0.1-0.2-0.2-0.3-0.4-0.3c-0.1-0.1-0.1-0.1-0.2-0.1c0-0.1-0.1-0.1-0.1-0.2h-0.3l0.2,0.3h-0.1
		c-0.1,0.1-0.2,0.2-0.4,0.3c0,0.1-0.1,0.3-0.2,0.4h-0.1v0.1c-0.2,0-0.2,0.2-0.3,0.4C69,54.7,69,54.8,69,55c0,0.1,0.2,0,0.2,0.1
		c0.1,0.1-0.1,0.1-0.1,0.2v0.2c-0.1,0-0.2,0-0.3,0c0,0.1-0.1,0.1-0.1,0.2c-0.2,0-0.1,0.2-0.2,0.2c0,0,0,0,0,0.1
		c-0.1,0-0.2,0.1-0.2,0.1c-0.1,0-0.2,0-0.1,0.1s0.1,0,0.2,0s0.1,0.1,0.1,0.3c0,0.1,0,0.1-0.1,0.1H68c0,0.1,0.1,0.4-0.1,0.4
		c-0.1,0,0.1,0.1,0.1,0.3c0.1,0,0.2,0,0.3,0.1c0.1,0.1,0.1-0.1,0.2,0c0.1-0.1,0.1-0.3,0.1-0.4c0.1,0,0.1-0.2,0.3-0.3h0.3
		c-0.1,0.1-0.1,0.3,0,0.5c0.2,0,0.1-0.2,0.1-0.3l0,0c0.1,0,0.1,0.1,0.1,0.1c0.1,0,0.2,0.1,0.3,0.2c0,0.1-0.1,0.1-0.2,0
		s0.1,0.1,0.2,0.2c0-0.1,0.1-0.2,0.1-0.2c0.1,0,0-0.1,0-0.1s0.1,0.1,0.2,0s-0.7-0.2-0.6-0.4c0.1,0.1,0.2,0.2,0.4,0.3v0.1l0.1,0.1
		v0.3h0.2c0.1,0,0-0.3,0-0.4h0.1v0.3c0,0.1,0,0.1,0.1,0.1c0.1,0.1,0.3,0.1,0.5,0c0.1,0-0.1,0.2,0,0.2s0-0.2,0.2-0.2v0.2
		c-0.1,0,0,0.3-0.2,0.3c-0.2-0.1-0.5-0.1-0.8-0.1c-0.1,0-0.1,0.1-0.1,0.2c-0.1-0.2-0.4-0.2-0.5-0.3c-0.1-0.2,0-0.1-0.1-0.2
		c-0.1-0.1,0.1-0.1,0-0.1c-0.2,0-0.3,0-0.5,0.1c-0.2,0-0.4,0-0.6,0.1c0-0.1-0.1-0.1-0.2-0.1c0,0.1-0.1,0.1-0.2,0.2
		c-0.1,0.1,0,0.4-0.1,0.5s-0.2,0.2-0.3,0.3c0,0.1,0,0.3-0.1,0.4v0.8c0.1,0.1,0.2,0.3,0.2,0.5c0.1,0.1,0.2,0.2,0.4,0.2
		c0.1,0,0.3,0,0.4,0s0.1-0.2,0.2-0.2s0,0.1,0.1,0.1s0.2,0,0.3,0c0.1,0.1,0.1-0.1,0.2,0c0,0.2-0.1,0.4-0.1,0.6c0,0.2,0.2,0.3,0.2,0.5
		c0.1,0.1,0.1,0.3,0.1,0.4c-0.1,0.2-0.1,0.4-0.1,0.5c0.1,0.1,0.2,0.3,0.3,0.5v0.3c0.1,0.2,0.1,0.5,0.3,0.6c0.3,0,0.4-0.2,0.7-0.2
		c0-0.2,0.1-0.3,0.3-0.4v-0.3c0-0.1,0.1-0.1,0.2-0.1c0-0.3,0.1-0.6,0.4-0.7c0-0.3,0-0.6,0-0.9c0.1-0.1,0.1-0.3,0.2-0.4l0.2-0.2
		c0.1-0.2,0.3-0.5,0.4-0.7s0.1-0.3,0-0.4c-0.1-0.1-0.1,0.1-0.2,0.1h-0.2c0-0.2-0.2-0.3-0.3-0.4c-0.1-0.1-0.2-0.2-0.1-0.4
		s-0.1-0.1-0.2-0.2c0-0.1,0-0.2,0-0.3c0,0,0.2,0.2,0.1,0.3s0.2,0.3,0.3,0.4s0.1,0.3,0.2,0.5c0.2-0.1,0.4-0.2,0.6-0.3
		c0,0,0-0.1,0.1-0.1s0.2-0.2,0.3-0.2s0.1-0.1,0.1-0.3c0-0.1-0.2-0.1-0.2-0.3c-0.1,0-0.2,0-0.2,0.1c0-0.1-0.1-0.2-0.1-0.3
		c-0.1,0-0.1-0.1-0.2-0.1c0,0,0.1,0,0.1-0.1c0.2,0.1,0.1,0.5,0.4,0.4c0,0,0.1,0,0,0.2c0.2,0,0.2-0.1,0.3-0.1s0,0.1,0.1,0.1
		s0.3,0.1,0.4,0.2s0,0,0,0.1s0.1,0,0.2,0.1c0,0.1,0,0.1,0,0.2c0.1,0.1,0.2,0.3,0.2,0.4c0.1,0.1,0.1,0.1,0.2,0.2v0.2h0.2
		c0.1-0.2,0.1-0.4,0.1-0.6h0.1V59c0.1,0,0.1-0.1,0.2-0.1s0.1-0.2,0.2-0.3s0.2-0.1,0.3-0.1c0.1,0.1,0.1,0.3,0.2,0.3s0,0.1,0,0.2
		c0,0.1,0.2,0,0.3,0.1c0.1,0.1,0,0.1,0,0.2c0.1,0,0.1,0.1,0.2,0.2c0,0.1-0.1,0.1-0.1,0.2c0,0.1,0.1,0.1,0.1,0.2
		c0.1,0.1,0.3,0.3,0.4,0.4c0-0.2-0.1-0.2-0.1-0.4c-0.1-0.1-0.2-0.1-0.2-0.2c0-0.1,0-0.3,0.1-0.3s0.1,0.2,0.2,0.2v0.1
		c0.3,0,0.4-0.3,0.3-0.7c0,0-0.1,0-0.1-0.1s-0.1-0.1,0-0.2c0.1-0.1,0.1,0.1,0.2,0.1s0.2-0.1,0.3-0.1c0.1-0.1,0.2-0.3,0.3-0.5H77
		c0.1,0,0-0.4,0.1-0.4c-0.1,0-0.1-0.1-0.1-0.2c0-0.1-0.1-0.1-0.1-0.2v-0.2c0-0.1,0.1,0,0.1-0.1s-0.1-0.2,0-0.2s0.1,0.1,0.2,0.2
		c0,0.1,0,0.2,0.2,0.3c0.2-0.1,0-0.5,0.1-0.7c0.1-0.1,0.2-0.1,0.2-0.1c0.1-0.1,0.1-0.3,0.2-0.4c0-0.2,0-0.5,0-0.7
		c0,0.2,0.1,0.2,0.1,0.3s0,0.4,0.1,0.4c0.1,0.1,0-0.1,0-0.2c0-0.1,0,0.1,0.1,0s-0.1-0.1-0.1-0.2S78,55.6,78,55.6s0-0.3-0.1-0.3
		s0,0.1-0.1,0.1c0-0.2-0.3,0.1-0.3-0.1s0.1-0.1,0.1-0.2c0-0.1,0-0.3,0.1-0.3s0,0,0.1,0s0.3,0.1,0.4,0.1V55h0.2c0.1,0,0-0.1,0-0.2
		s0.1-0.1,0.1-0.1c0.1,0,0.1,0.1,0.1,0.1c0.1,0,0.1-0.2,0.1-0.1c-0.1,0.2-0.2,0.4-0.3,0.6c0,0.1,0.1,0.1,0.1,0.2s0,0.2,0.1,0.3
		c0.1,0,0.1-0.2,0.2-0.2c0.1-0.1,0.1-0.1,0-0.3c-0.1-0.1,0.1-0.1,0.1-0.1c0-0.1-0.1,0-0.1-0.1c0-0.3,0.2-0.2,0.5-0.2
		c0,0,0-0.1,0.1-0.2c0.1-0.1,0.3-0.1,0.4-0.1C80.1,54.5,79.9,54.3,79.9,54.2z M69.8,54.5c0.1,0.1,0.1,0.1,0.2,0.1V55
		c-0.1,0,0-0.2-0.1-0.1c-0.1,0.1,0,0.3-0.1,0.4h-0.2c-0.1,0-0.1,0.1-0.2,0.1s-0.1-0.1-0.1,0s-0.1-0.1,0-0.1
		c-0.1-0.1-0.1-0.2-0.1-0.3c0.1,0,0.1,0.4,0.4,0.3c0.1-0.1,0.1-0.3,0.2-0.4c0-0.1,0-0.1,0-0.2c0-0.3,0.2-0.4,0.3-0.6h0.1
		C70,54.3,69.8,54.3,69.8,54.5z M70.1,54.8c0-0.1,0.1-0.1,0.2-0.1C70.4,54.6,70.3,54.8,70.1,54.8L70.1,54.8z M71,58L71,58
		C70.9,58,70.9,58,71,58L71,58z M73.1,53.6C73.1,53.6,73,53.6,73.1,53.6C73,53.4,73,53.4,73.1,53.6C73,53.6,73.2,53.5,73.1,53.6
		L73.1,53.6z M75,53L75,53L75,53z M75.1,53L75.1,53L75.1,53z M75.1,53L75.1,53L75.1,53z M76.5,57c0,0,0.1-0.1,0.2-0.1s0,0.1,0,0.1
		C76.6,56.9,76.6,56.9,76.5,57L76.5,57z"/>
	<path class="st12" d="M65.9,60.7L65.9,60.7c-0.2,0-0.3-0.1-0.4-0.2h-0.2c-0.1-0.1-0.3,0-0.3-0.2s-0.2,0-0.2-0.1s-0.1-0.5-0.4-0.4
		c-0.1-0.1-0.2-0.2-0.2-0.3c-0.2,0-0.3-0.1-0.4-0.2c-0.2-0.1,0,0.1-0.1,0.1s-0.2-0.1-0.2-0.3c0-0.1,0,0.1-0.1,0.1s-0.1-0.1-0.1-0.1
		c-0.1,0,0,0.1-0.2,0.1s-0.2,0.2-0.2,0.3c0-0.1,0-0.2-0.1-0.2s-0.1,0.1-0.2,0.1c-0.1-0.2,0-0.3,0-0.5s-0.3-0.1-0.4-0.1
		c-0.1-0.1,0.1-0.2,0.1-0.4c-0.1,0-0.2,0-0.3,0c0,0.1,0,0.2-0.1,0.2c-0.4,0-0.2-0.5-0.2-0.8c0.1,0,0.2-0.1,0.3-0.1s0.2,0.1,0.4,0.1
		s0-0.1,0-0.1s0.3,0,0.4,0.1c0,0.1,0.1,0.3,0.2,0.3c0-0.1,0-0.2,0-0.3c0,0-0.1-0.1-0.1-0.2c0-0.2,0.2-0.3,0.4-0.4c0-0.1,0-0.1,0-0.2
		c0,0,0.1,0,0.2,0c-0.1-0.2,0.1-0.1,0.1-0.3l0.3-0.1c0-0.1-0.1-0.1-0.1-0.2c0.1-0.1,0.3-0.1,0.4-0.2c0,0.1-0.1,0.1-0.1,0.1
		c0.1,0,0.2-0.1,0.3-0.2c-0.1,0-0.2,0-0.2-0.2s0.1-0.1,0.2-0.1s0-0.1,0-0.2c0.2,0.1,0.3-0.1,0.4-0.1c-0.1,0.2-0.2,0.3-0.3,0.4h0.2
		c0.1,0,0,0.1,0,0.1c0.1,0,0.1,0,0.2,0s-0.1-0.2,0-0.2c-0.1,0-0.1-0.1-0.2-0.2c0-0.1,0-0.3,0-0.4c-0.1-0.1-0.1,0-0.2,0
		s-0.2-0.2-0.2-0.3v-0.1c-0.1-0.1-0.1-0.3-0.3-0.3c-0.2,0,0,0.2,0,0.2l0,0v-0.3c-0.2,0.1-0.1-0.1-0.3-0.1c-0.1,0-0.1,0-0.1,0h-0.1
		c0,0.3-0.1,0.5,0,0.7c0,0-0.2-0.1-0.2,0s0.1,0,0.1,0.1s-0.1,0.3-0.2,0.4c-0.1-0.1-0.1-0.3-0.1-0.4c0-0.1,0,0-0.1,0h-0.1
		c-0.1-0.1-0.2-0.2-0.3-0.2c0-0.2-0.1-0.1-0.1-0.2s0.1,0,0.1-0.1s0.1-0.2,0.2-0.2c0.1-0.1,0.1-0.2,0.3-0.3c0.2,0,0-0.1,0-0.1
		c0.2,0,0.3-0.1,0.5-0.1c0-0.1,0-0.2,0-0.3c0,0-0.1,0-0.1-0.1c0.1,0,0.2,0,0.3,0.1c0-0.1,0.1,0,0.2,0c0,0.2,0.1,0.1,0.1,0.2
		c0,0.1-0.4,0.2-0.4,0.4c0.1,0.1,0.2,0.1,0.3,0.1c0.1,0,0.3,0.3,0.5,0.3c-0.1-0.2,0.1-0.2,0-0.4s-0.1-0.1-0.1-0.2
		c0-0.1,0.2,0.1,0.2,0.1c0.1,0,0-0.2,0.1-0.1c0.1,0,0-0.1,0-0.2c0-0.1-0.1-0.1-0.1-0.1c-0.1,0-0.2-0.1-0.3-0.1
		c0-0.1,0.1-0.1,0.1-0.1s-0.1-0.1-0.1-0.2H64c0-0.1-0.1-0.1-0.1-0.2c-0.1,0-0.2,0-0.3,0c0-0.2-0.2-0.1-0.3,0c0-0.1,0-0.2-0.1-0.2
		s-0.3,0.4-0.1,0.6h0.1c0,0.1-0.1,0.2-0.1,0.2c-0.1-0.1,0.1-0.1,0-0.2c-0.1-0.1-0.2-0.2-0.2-0.3c-0.1,0-0.1-0.1-0.2-0.1s0,0.1,0,0.1
		c0,0.1,0.1,0.3,0,0.4s-0.1-0.1,0-0.2c0.1-0.1-0.2,0.1-0.3,0.1s-0.2-0.1-0.3-0.2h0.3c0.1,0,0-0.1,0-0.2c0-0.1,0.2-0.2,0.4-0.2
		c0-0.1-0.1-0.2-0.1-0.3h-0.4C62.1,53,62,53,62,53.2L61.9,53c-0.1,0-0.2,0-0.2-0.1c0.2,0.1,0.5-0.1,0.7-0.2c0,0.1,0.3,0.1,0.3,0
		s0-0.2-0.1-0.2c-0.2,0-0.3,0.2-0.4,0.2v-0.2c-0.1,0-0.1,0-0.1,0v0.1c-0.1,0-0.3,0-0.4,0c0,0.2-0.1,0.1-0.2,0.2s0.1,0,0.1,0
		l-0.1,0.1c-0.1-0.2-0.3-0.2-0.5-0.2c0,0.1-0.1,0.2-0.2,0.3c0,0.1,0.1,0.1,0,0.2c0.1,0,0.2,0,0.3-0.1c-0.1,0.2,0.2,0,0.2,0.1
		s-0.1,0-0.1,0.1s0.3,0,0.3,0.2c0.1-0.1,0.1,0,0.3,0l0,0c0,0,0.1-0.1,0.1,0s0,0-0.1,0s0.1,0.2,0,0.2s0-0.1,0-0.1
		c-0.3,0-0.4-0.2-0.7-0.2c-0.1,0-0.1-0.1-0.2-0.2c-0.1,0-0.1,0.1-0.2,0.1c0-0.1,0-0.1,0-0.2c-0.1,0-0.1,0.1-0.2,0.1h-0.2
		c-0.1,0,0,0.1-0.1,0.1s0,0,0-0.1s-0.1,0-0.2,0c-0.3,0-0.7-0.1-1-0.2c-0.2,0.1-0.4,0.1-0.7,0.2c-0.1,0.1,0,0.1,0.1,0.2
		c0.1,0.1,0.2,0,0.2,0.1s-0.1,0.1-0.1,0.1s-0.1-0.1-0.2-0.1c-0.2,0-0.4,0.1-0.5,0.2c0.2,0,0.2,0.1,0.2,0.2c0.1,0,0.3,0,0.4,0
		c-0.2,0.3-0.8,0-0.7,0.5c0.1,0.1,0.1,0.1,0.1,0.3H58c0.1,0,0,0.1,0,0.1s0,0.1,0.1,0.1c0-0.1,0.1-0.1,0.2-0.1h0.1
		c-0.1,0.1-0.2,0.3-0.3,0.4c-0.2,0.1-0.2,0.2-0.4,0.2v0.2c0,0.1,0.2-0.1,0.3,0s0.1-0.1,0.2-0.1c0.1-0.2,0.3-0.4,0.5-0.5h0.1
		c0,0,0-0.1,0.1-0.1l0,0c0,0-0.1,0.2-0.1,0.3c0.2,0,0.3-0.1,0.5-0.2c0-0.1,0-0.2,0-0.4c0.1,0,0.1-0.1,0.3-0.1
		c0.1,0.1,0.2,0.1,0.2,0.2c0.2,0,0.4,0.2,0.3,0.4l0,0l0,0c0.2,0,0-0.2,0.1-0.2c0,0.2,0,0.5,0.1,0.7c-0.1,0.1,0,0.1,0,0.2
		s-0.1,0-0.1,0.1c0,0.3,0,0.6,0,0.9c0.1,0,0.1,0.1,0.2,0.2c0.1,0.1,0.1,0.3,0.2,0.4c0.1,0.1,0,0.1,0,0.1s0.2,0.2,0.2,0.3
		c0.1,0.1,0.1,0.1,0.2,0c0.1-0.1,0-0.1,0-0.3l0,0c0.1,0,0,0,0,0.1c0.1,0.1,0.2,0.2,0.2,0.3c0,0.2,0,0.3,0.1,0.5
		c0.3,0.1,0.4,0.2,0.7,0.2c0,0.1,0.1,0.2,0.1,0.2h0.2c0,0.1,0.1,0.1,0.1,0.2v0.1c0.2,0,0.2,0.2,0.4,0.2s0-0.1,0.1-0.1
		c0,0.1,0,0.2,0.1,0.3c0,0.1-0.1,0-0.1,0.1s-0.1,0.2-0.1,0.3s0.1,0.3,0,0.4c-0.1,0.1,0.2,0.1,0.2,0.1c0.1,0.1-0.1,0-0.1,0.1
		c0,0.2,0.1,0.4,0.3,0.4v0.2c0,0.1,0.2,0.3,0.3,0.3c0.1,0.1,0.1,0.3,0.2,0.4V62v0.1c-0.1,0.1,0,0.3,0,0.5s-0.1,0.4-0.2,0.7
		c-0.1,0.2,0.1,0,0.2,0c0,0.1-0.1,0.2-0.2,0.2c0,0.1,0.1,0,0.1,0.1s0,0.2,0,0.2c0,0.1,0.1,0.3,0.1,0.5c-0.1,0.2,0.1,0.2,0.2,0.3
		c0.1,0.1,0,0.1,0,0.1c0.1,0,0.1,0,0.2,0.1c0.1,0,0.3,0,0.3-0.1c-0.1,0.1-0.3,0-0.4-0.1l0,0l0,0c0-0.1-0.1,0-0.1-0.2
		s0.1-0.2,0.1-0.3s0.1,0,0.1-0.1S64,64.5,64,64.4s0.2-0.4,0-0.4c0.2,0,0.2-0.1,0.2-0.2c0-0.1,0.2-0.1,0.3-0.1c0.1,0,0-0.2-0.1-0.3
		h0.3c0.1,0,0-0.2,0.1-0.2c0-0.2,0.1-0.2,0.2-0.3v-0.1c0.1,0,0.1-0.1,0.1-0.2c0.1,0,0.2-0.1,0.3-0.1c0-0.2,0.2-0.4,0.1-0.6
		c0,0,0.1-0.1,0.1-0.2h0.1c0,0,0.1-0.1,0.1-0.2c0-0.1,0-0.2,0.1-0.2s0-0.1,0-0.2C66,60.9,66,60.8,65.9,60.7z M62.3,53
		C62.4,53,62.3,53.1,62.3,53C62.3,53.2,62.2,53,62.3,53z M62.2,53.2c0.1,0,0.1,0.1,0.2,0C62.5,53.1,62.3,53.3,62.2,53.2L62.2,53.2z
		 M60.6,57.8C60.7,57.8,60.7,57.9,60.6,57.8C60.8,57.9,60.6,57.9,60.6,57.8L60.6,57.8z"/>
	<path class="st12" d="M72,53.5c0-0.1-0.2-0.2-0.2-0.4c0.2,0,0.3-0.2,0.4-0.3c0.2-0.1,0.3-0.1,0.3-0.2h-0.1v0.1
		c-0.2,0-0.4,0.1-0.6,0.2c0,0.2-0.1,0.1-0.1,0.3s-0.1,0.1-0.1,0.2C71.8,53.4,71.9,53.5,72,53.5L72,53.5z"/>
	<path class="st12" d="M77,52.9c0.1,0,0.1-0.1,0.2-0.2c-0.1,0-0.1-0.1-0.3-0.1c-0.1,0,0,0.1,0,0.1h-0.2C76.7,52.9,76.9,52.8,77,52.9
		z"/>
	<path class="st12" d="M67.5,54.3c0-0.1,0.1,0,0.2-0.1c0-0.1-0.1-0.2-0.1-0.3h-0.3c-0.1,0-0.1-0.1-0.2-0.1S67,53.9,67,54
		s0.1,0,0.2,0S67,54.1,67,54.2c0.2,0,0.1,0.1,0.2,0.1S67.5,54.3,67.5,54.3z"/>
	<path class="st12" d="M63.4,54.3c-0.1,0,0-0.1-0.1-0.2c-0.1-0.1-0.1-0.1-0.2,0c-0.1,0.1,0,0.2-0.1,0.2s0.1,0.1,0.2,0.1
		C63.1,54.2,63.4,54.5,63.4,54.3z"/>
	<path class="st12" d="M68.7,55.5C68.6,55.5,68.6,55.5,68.7,55.5c-0.1-0.2-0.3-0.3-0.2-0.5s-0.1-0.1-0.1-0.1s0.1,0,0.1-0.1
		c-0.1,0-0.2,0-0.2,0.1v0.4l0.1,0.1c0,0.1-0.1,0.2-0.1,0.1c0,0.1,0,0.2,0.1,0.3c-0.1,0-0.2,0-0.2,0.1c0.2,0,0.3,0,0.5,0
		C68.6,55.6,68.5,55.5,68.7,55.5z"/>
	<path class="st12" d="M67.9,55.6c0.1,0,0.2,0,0.2-0.1c0.1-0.1,0-0.1,0-0.3h-0.2c0,0.1-0.1,0-0.1,0.1C67.8,55.4,67.8,55.5,67.9,55.6
		z"/>
	<path class="st12" d="M78.1,56.5C78.2,56.5,78.1,56.6,78.1,56.5c0.2,0.1,0.1-0.1,0.3-0.2c-0.2,0-0.2-0.1-0.4-0.1L78.1,56.5
		C78,56.6,78,56.5,78.1,56.5z"/>
	<path class="st12" d="M77.4,57.5c0,0.1,0.1,0.1,0.1,0.2c0-0.1,0.1-0.2,0.2-0.2h0.1c0.1-0.1,0.3-0.1,0.4-0.3
		c0.1-0.1-0.1-0.4-0.1-0.6H78V57c0,0,0,0,0,0.1c-0.1,0.1-0.2,0.1-0.3,0.2C77.6,57.2,77.4,57.2,77.4,57.5
		C77.4,57.6,77.6,57.4,77.4,57.5L77.4,57.5z"/>
	<path class="st12" d="M70.1,57.2c0,0.1,0.1,0,0.2,0.1C70.3,57.2,70.3,57.2,70.1,57.2C70,57.2,70.1,57.2,70.1,57.2z"/>
	<path class="st12" d="M76.8,58.3c0,0.1,0.1,0.1,0.1,0.2c0.1,0,0.1-0.2,0.1-0.3S76.8,58.2,76.8,58.3z"/>
	<path class="st12" d="M63,58.2L63,58.2L63,58.2L63,58.2L63,58.2L63,58.2z"/>
	<path class="st12" d="M63.3,58.4L63.3,58.4L63.3,58.4C63.1,58.3,63.2,58.4,63.3,58.4z"/>
	<path class="st12" d="M63.3,58.3v0.2h0.1C63.4,58.4,63.4,58.4,63.3,58.3L63.3,58.3L63.3,58.3z"/>
	<path class="st12" d="M63.2,58.8c0.1,0,0.2,0,0.2,0.1s0.1,0,0.2-0.1c0-0.2-0.2-0.2-0.4-0.2c0-0.1-0.1-0.1-0.1-0.1s-0.2,0-0.2-0.1
		h-0.4c0,0.1-0.1,0.1,0,0.2c0.1,0.1,0.1-0.1,0.3-0.1s0.1,0.2,0.3,0.2C63.2,58.7,63.3,58.7,63.2,58.8C63.4,58.7,63.2,58.8,63.2,58.8z
		"/>
	<path class="st12" d="M63.6,58.5L63.6,58.5C63.4,58.5,63.6,58.6,63.6,58.5z"/>
	<path class="st12" d="M76.9,58.8c0,0.1,0.1,0.1,0.2,0.2c0-0.1,0.1-0.1,0.1-0.3C77.2,58.6,76.9,58.7,76.9,58.8z"/>
	<path class="st12" d="M76.2,58.9c0.1,0,0.1-0.1,0.1-0.2h-0.1C76.1,58.8,76.1,58.8,76.2,58.9z"/>
	<path class="st12" d="M62.9,58.8L62.9,58.8l0.2,0.1C63.2,58.9,63,58.8,62.9,58.8z"/>
	<path class="st12" d="M63.7,58.9c0.1,0,0.2,0,0.2-0.1L63.7,58.9L63.7,58.9z"/>
	<path class="st12" d="M66.9,58.9C66.9,59,66.8,58.9,66.9,58.9L66.9,58.9L66.9,58.9z"/>
	<path class="st12" d="M77.2,59.4c0.1,0.1,0.1,0,0.2,0s-0.1,0.1,0,0.2c0-0.1,0.2-0.2,0.3-0.1c0-0.1-0.1-0.1-0.2-0.2
		c-0.1-0.1,0-0.2-0.1-0.2s0,0.1,0,0.2C77.3,59.4,77.2,59.3,77.2,59.4z"/>
	<path class="st12" d="M74.2,59.5c0,0.2-0.1,0.2,0,0.3s0.1-0.1,0.2-0.1C74.3,59.6,74.3,59.6,74.2,59.5z"/>
	<path class="st12" d="M76.2,60.4c0,0.1,0.2,0.2,0.1,0.3c0.2,0,0.2,0.1,0.4,0.1c0-0.1,0.1,0,0.1-0.1s-0.1,0-0.1,0s0-0.2,0.2-0.3
		c-0.1-0.1,0-0.2,0-0.3C77,60.1,77,60,77,60c-0.1-0.1-0.2-0.1-0.3-0.1C76.6,60.1,76.2,60.1,76.2,60.4z"/>
	<path class="st12" d="M75.6,60.1c0-0.1-0.1-0.1-0.1-0.2c0-0.1-0.1-0.1-0.1-0.1h-0.2c0,0.4,0.4,0.3,0.4,0.7c0.1,0,0.2,0.2,0.3,0.2
		s0-0.3,0-0.4C75.8,60.3,75.7,60.2,75.6,60.1z"/>
	<path class="st12" d="M77.3,60.4c0-0.1-0.2-0.1-0.2-0.2c-0.2,0.1-0.3,0.5,0,0.6c0-0.1,0-0.2,0.1-0.2s0.1,0.2,0.2,0.1
		S77.3,60.5,77.3,60.4C77.2,60.4,77.2,60.4,77.3,60.4z"/>
	<path class="st12" d="M77.9,60.3c-0.1-0.1-0.3-0.1-0.3,0.1C77.6,60.5,77.9,60.4,77.9,60.3z"/>
	<path class="st12" d="M78.3,60.4H78c0,0,0,0.1-0.1,0.1s0-0.1-0.2-0.1s-0.1,0-0.1,0.1s0.1,0,0.1,0c0.2,0.1,0.3,0.2,0.4,0.3V61
		c0.2-0.1,0.2,0.1,0.3,0.1c0.1,0,0.1-0.2,0.2-0.1c0.1,0,0.2,0.2,0.3,0.1c0.1,0.1,0.1,0,0.1-0.1s-0.2-0.1-0.2-0.2v-0.1
		C78.5,60.6,78.4,60.4,78.3,60.4z"/>
	<path class="st12" d="M76.7,61.1c0-0.1-0.1-0.1-0.1-0.2c-0.2,0-0.4-0.1-0.6-0.1c0,0.1-0.1,0.1-0.1,0.2C76.2,61,76.3,61.2,76.7,61.1
		z"/>
	<path class="st12" d="M78.9,62.4V62c0-0.2-0.1-0.1-0.1-0.1c0-0.2-0.2-0.3-0.2-0.6h-0.1c-0.1,0,0,0.5-0.1,0.5
		c-0.1,0.1,0-0.1-0.2-0.1s-0.1,0-0.1-0.2s0.1,0,0.1-0.1s-0.4,0-0.6-0.1s0,0.1,0,0.1c-0.1,0-0.2,0.1-0.3,0.1c0,0.1,0,0.3-0.1,0.3
		s-0.2,0-0.2,0c-0.1,0,0,0.2-0.1,0.2s0-0.1-0.1,0s0,0.3-0.2,0.3s-0.2,0-0.2,0.1c0.1,0.2,0.1,0.3,0,0.5c0,0,0.1,0.1,0.1,0.2
		c0,0.1,0,0.2,0,0.4c0.1,0,0.1,0.1,0.2,0.1s0.2-0.2,0.4-0.1c0.2-0.1,0.4-0.2,0.6-0.1c0.1,0.1,0.2,0.2,0.2,0.3c0.1-0.1,0.1,0.1,0.2,0
		s0,0.2,0,0.2c0.2,0.1,0.4,0.1,0.6,0.1c0.1-0.1,0.1-0.1,0.2-0.2c0-0.2,0.2-0.1,0.1-0.3c0.1,0,0.1-0.1,0.2-0.1s0.1-0.2,0.1-0.3
		c0-0.2,0-0.4-0.1-0.6C79,62.3,78.9,62.4,78.9,62.4z"/>
	<path class="st12" d="M71.9,61.3c-0.1,0.1-0.1,0.2-0.1,0.3c-0.1,0-0.2,0.1-0.3,0.2V62c0,0.1,0,0.1-0.1,0.2c0.1,0.1,0,0.3,0.1,0.4
		c0.1,0.1,0.1,0,0.3,0s0-0.2,0.1-0.3v-0.2c0-0.2,0-0.3,0.1-0.5C72,61.6,72,61.3,71.9,61.3z"/>
	<path class="st12" d="M80.5,63.5c0-0.1,0-0.2-0.1-0.2L80.5,63.5c-0.1,0.2-0.2,0.2-0.2,0.3c0.2,0,0.1,0.1,0,0.2
		c0.2,0,0.2-0.2,0.3-0.3c0.1-0.1,0.1-0.1,0.2-0.1S80.7,63.5,80.5,63.5z"/>
	<path class="st12" d="M80.2,63.9c0,0.1-0.1,0.1-0.1,0.2H80c0,0.1-0.1,0.2-0.2,0.2c-0.1,0.1-0.2,0.2-0.2,0.3c0.1-0.1,0.2,0,0.3,0
		s0.1-0.1,0.1-0.2h0.2c0-0.2,0.2-0.1,0.2-0.3C80.4,63.8,80.3,63.9,80.2,63.9z"/>
	<path class="st12" d="M78.2,64c0,0,0.1,0.2,0.1,0.3c0,0.1,0.2-0.1,0.2-0.3C78.4,64,78.2,63.9,78.2,64z"/>
	<path class="st12" d="M64.6,64.9L64.6,64.9C64.8,64.8,64.6,64.8,64.6,64.9z"/>
	<path class="st10" d="M81,54.2c1.1,0.1,2.1-0.8,2.2-1.9c0.1-1.1-0.8-2.1-1.9-2.2h-2.8c-1.1,0.1-2,1-1.9,2.2c0.1,1,0.9,1.8,1.9,1.9
		H81z"/>
	<path class="st12" d="M78.6,54L78.6,54c-0.5,0-0.9-0.2-1.2-0.5c-0.3-0.3-0.5-0.8-0.5-1.3c0-1,0.8-1.8,1.8-1.8s1.8,0.8,1.8,1.8
		C80.4,53.2,79.6,54,78.6,54L78.6,54L78.6,54z M78.6,50.7c-0.8,0.1-1.4,0.8-1.4,1.6c0.1,0.7,0.6,1.3,1.4,1.4l0,0
		c0.8-0.1,1.4-0.8,1.3-1.6C79.8,51.4,79.3,50.8,78.6,50.7L78.6,50.7z"/>
	<path class="st12" d="M80.9,54L80.9,54c-1,0-1.7-0.8-1.7-1.8s0.8-1.7,1.8-1.7s1.7,0.8,1.7,1.8C82.6,53.2,81.9,54,80.9,54z
		 M80.9,50.7c-0.8,0.1-1.4,0.8-1.3,1.6c0.1,0.7,0.6,1.2,1.3,1.3l0,0c0.8-0.1,1.4-0.8,1.3-1.6C82.2,51.4,81.6,50.8,80.9,50.7z"/>
	<path class="st12" d="M78.6,53.9L78.6,53.9c-0.1,0-0.3-0.1-0.4-0.2c-0.3-0.5-0.5-1-0.4-1.6c0-1,0.4-1.7,0.8-1.7s0.8,0.7,0.8,1.7
		C79.4,53.2,79.1,53.9,78.6,53.9z M78.6,50.8c-0.2,0-0.5,0.5-0.5,1.4c0,0.5,0.1,1,0.4,1.4c0,0,0.1,0.1,0.2,0.1l0,0
		c0.2,0,0.5-0.5,0.5-1.4C79.1,51.3,78.8,50.8,78.6,50.8L78.6,50.8z"/>
	<polygon class="st12" points="80.2,52.4 77,52.4 77,52.1 80.2,52.1 	"/>
	<polygon class="st12" points="79.9,51.6 77.3,51.6 77.3,51.3 79.9,51.3 	"/>
	<polygon class="st12" points="79.9,53.1 77.3,53.1 77.3,52.8 79.9,52.8 	"/>
	<rect x="64.3" y="51.6" class="st10" width="10.9" height="1.5"/>
	<path class="st7" d="M57.6,53.1H61c0.3,0,0.5,0.2,0.5,0.5v3c0,0.3-0.2,0.5-0.5,0.5h-3.3c-0.3,0-0.5-0.2-0.5-0.5v-3
		C57.1,53.3,57.4,53.1,57.6,53.1z"/>
	<path class="st13" d="M61,53.2h-0.6V54h1.1v-0.4C61.4,53.4,61.2,53.2,61,53.2L61,53.2z"/>
	<path class="st13" d="M58.7,55.6v-0.5h-1.5V56h1.1C58.5,56,58.7,55.9,58.7,55.6L58.7,55.6L58.7,55.6z"/>
	<path class="st13" d="M58.3,54.1h-1.1V55h1.5v-0.5C58.7,54.3,58.6,54.1,58.3,54.1L58.3,54.1z"/>
	<path class="st13" d="M58.8,54.5h1c0-0.2,0.2-0.4,0.4-0.5v-0.9h-1.9V54C58.6,54.1,58.8,54.3,58.8,54.5z"/>
	<rect x="58.8" y="54.6" class="st13" width="1" height="1"/>
	<path class="st13" d="M59.8,55.7h-1c0,0.2-0.2,0.4-0.4,0.4v1h1.9v-1C60,56.1,59.9,55.9,59.8,55.7z"/>
	<path class="st13" d="M59.9,55.6c0,0.2,0.2,0.4,0.4,0.4h1.1v-0.9h-1.5V55.6z"/>
	<path class="st13" d="M60.3,54.1L60.3,54.1c-0.2,0-0.4,0.2-0.4,0.4l0,0V55h1.5v-0.9H60.3z"/>
	<path class="st13" d="M58.3,53.2h-0.7c-0.2,0-0.4,0.2-0.4,0.4l0,0V54h1.1L58.3,53.2z"/>
	<path class="st13" d="M57.2,56.6c0,0.2,0.2,0.4,0.4,0.4l0,0h0.7v-1h-1.1C57.2,56,57.2,56.6,57.2,56.6z"/>
	<path class="st13" d="M60.3,57.1H61c0.2,0,0.4-0.2,0.4-0.4l0,0v-0.5h-1.1L60.3,57.1z"/>
	
		<rect x="62.7" y="62.9" transform="matrix(1 -2.443437e-03 2.443437e-03 1 -0.1542 0.1645)" class="st10" width="9.1" height="0.6"/>
	
		<rect x="64.6" y="61.5" transform="matrix(1 -5.933877e-03 5.933877e-03 1 -0.3646 0.4004)" class="st10" width="5.4" height="0.3"/>
	<rect x="56.7" y="60.7" class="st10" width="1.6" height="0.3"/>
	<rect x="56.7" y="65.5" class="st10" width="13" height="0.6"/>
	<rect x="63.3" y="59.3" class="st10" width="5.8" height="0.6"/>
	<rect x="56.7" y="59.3" class="st10" width="5.8" height="0.6"/>
	<rect x="69.9" y="59.3" class="st10" width="5.8" height="0.6"/>
	<rect x="76.5" y="59.3" class="st10" width="5.8" height="0.6"/>
	<path class="st9" d="M40.1,29.6H56c1.5,0,2.6,1.2,2.6,2.6v37.5c0,1.5-1.2,2.6-2.6,2.6H40.1c-1.5,0-2.6-1.2-2.6-2.6V32.3
		C37.5,30.8,38.7,29.6,40.1,29.6z"/>
	<path class="st10" d="M40.5,30h15c1.5,0,2.6,1.2,2.6,2.6v36.6c0,1.5-1.2,2.6-2.6,2.6h-15c-1.5,0-2.6-1.2-2.6-2.6V32.7
		C37.9,31.2,39.1,30,40.5,30z"/>
	<path class="st9" d="M49.4,32.2c0,0.1-0.1,0.2-0.2,0.2h-2.4c-0.1,0-0.2-0.1-0.2-0.2l0,0l0,0c0-0.1,0.1-0.2,0.2-0.2h2.4
		C49.3,32,49.4,32.1,49.4,32.2z"/>
	<path class="st9" d="M47,69.2h2.2c0.2,0,0.3,0.1,0.3,0.3v0.6c0,0.2-0.1,0.3-0.3,0.3H47c-0.2,0-0.3-0.1-0.3-0.3v-0.6
		C46.7,69.3,46.8,69.2,47,69.2z"/>
	<polygon class="st9" points="37.9,36.3 37.9,36.3 37.4,36.3 37.4,36.3 37.4,34.7 37.4,34.7 37.9,34.7 37.9,34.7 	"/>
	<polygon class="st9" points="37.9,40.6 37.9,40.6 37.4,40.6 37.4,40.6 37.4,37.8 37.4,37.8 37.9,37.8 37.9,37.8 	"/>
	<polygon class="st9" points="37.9,43.8 37.9,43.8 37.4,43.8 37.4,43.8 37.4,41.2 37.4,41.2 37.9,41.2 37.9,41.2 	"/>
	<rect x="38.8" y="34.5" class="st14" width="18.5" height="32.9"/>
	<path class="st15" d="M68.6,36.6c0,0.8,0.6,1.4,1.4,1.4l0,0l0,0l0.4-0.7c0.8,0,1.4-1.2,1.4-1.9v-0.5c0-0.8-0.6-1.4-1.4-1.4H70
		c-0.8,0-1.4,0.6-1.4,1.4l0,0l0,0V36.6z"/>
	<path class="st15" d="M71.4,34.9h0.3c0,0.1,0,0.2,0,0.4c0.2,1.2,1.2,2,2.4,2c0,1.3-1,2.4-2.4,2.4c-1.3,0-2.4-1-2.4-2.4
		C69.4,36,70.3,35,71.4,34.9L71.4,34.9z"/>
	<path class="st0" d="M69.1,34c0,0.1,0,0.3,0,0.4c0,0.8,0.6,1.5,1.3,1.7c0,0.4,0.1,0.7,0.2,1.1c0.1,0.7,0.9,0.8,0.9,0.8
		c0.1,0.6-2.4,1.5-2.3,1.4c0.3-0.5,0.6-1,0.7-1.5c0.1-0.4,0-0.8-0.2-1.1c-0.2-0.2-0.5-0.4-0.8-0.4h-0.1c0-0.1,0-0.2,0-0.3v-1.2
		C68.8,34.5,68.9,34.2,69.1,34z"/>
	<path class="st5" d="M67.6,46.9L67.6,46.9c0.2-1,0.5-1.9,0.9-2.8c0.4-0.6,0.8-1.1,1.3-1.5c0.7,0.4,1.5,0.2,2.2,0.7
		c0.1,0.3,0.2,0.6,0.2,0.9c0.1,0.6,0.2,1.1,0.3,1.7c1.1,0.1,3.7,0.3,4.7,0.5c0.3,0,0.5,0.2,0.7,0.5c0,0.9-0.8,1.5-1.3,2.3
		c-0.1,0.1-6.3,0-7.4,0.1C69.2,49.2,66.9,49.2,67.6,46.9z"/>
	<path class="st16" d="M77.4,48.2c0.2-0.2,0.3-0.4,0.4-0.7c0.1-0.4,0.1-0.7,0-0.8c-0.5-0.4-2,0.4-6,6.4c-0.9,1.3-2.7,3.8-2.2,3.5
		c0.9-0.6,1.1-1.3,1.7-1.9C76.1,49.7,76.6,49.1,77.4,48.2z"/>
	<path class="st1" d="M69.4,56.3l0.7-1.1c0.1-0.1,0.2-0.2,0.3-0.2l-0.6,1c-0.1,0.1-0.1,0.4,0,0.5h0.1l-0.2,0.3
		c-0.1,0.1-0.2,0.2-0.4,0.1l0,0C69.2,56.7,69.2,56.5,69.4,56.3C69.3,56.3,69.4,56.3,69.4,56.3z"/>
	<path class="st0" d="M69.3,41.6l-1.1-1.9c-0.3-0.4-0.3-0.9,0.1-1.3l0,0c0.1-0.1,0.2-0.1,0.3-0.2l3.4-0.8c0.6,0,1,0.6,1,1.1l0,0l0,0
		l-0.7,2.3L69.3,41.6z"/>
	<path class="st1" d="M72.6,37.8c-0.5,2.2,0.7,5.9,0.7,5.9s0.7,0.1,0.8-0.2c0.1-0.4-0.3-1.5-0.5-4.5C73.4,37.2,72.7,37.5,72.6,37.8z
		"/>
	<path class="st1" d="M68,38.7c-0.3,2.6-1.1,5.9-1.1,5.9s0.7,0.6,0.9,0.3c0.2-0.3,0.6-1.9,0.9-4.8C69,38.3,68,38.3,68,38.7z"/>
	<path class="st17" d="M72.1,42.4c0,0.3-0.2,0.9-0.4,0.9l-2-0.2c-0.2,0-0.7-0.2-0.7-0.4v-0.9c0-0.2,0.1-0.5,0.4-0.5l2.5-0.7
		c0.2,0,0.4,0.2,0.4,0.5L72.1,42.4z"/>
	<path class="st18" d="M71.9,43.3c-0.1,0-0.2,0-0.3,0l-1.9-0.1c-0.2,0-0.3,0-0.3-0.1V43h0.3l1.9,0.1c0.1,0,0.2,0,0.3,0.1V43.3z"/>
	<path class="st17" d="M72.6,38.4c0-0.1-0.1-0.2-0.2-0.3c-1.1,0.9-2.6,1.2-4,0.7V39c0,0.6,0.1,1.3,0.1,1.9s0.7,0.9,1.1,0.9
		c0.9,0,1.9-0.1,2.8-0.5c0.3-0.1,0.9-0.7,0.8-1.1S72.8,39,72.6,38.4z"/>
	<path class="st5" d="M69.4,38c0,0-1.2,0-1.4,0.7c-0.1,0.5,0,1.1,0.3,1.6c0,0,0.4,1.2,0.5,1.8c0,0.4,0,0.7-0.1,1.1
		c0.3,0,0.5-0.1,0.8-0.2c0.5-0.3,0.2-1.1,0.1-1.4c-0.1-0.6-0.2-1.3-0.3-1.9C69.2,39.4,69.4,38,69.4,38z"/>
	<path class="st5" d="M73.3,38.3c0,0,0.1-0.5-0.2-0.7c-0.5-0.2-1-0.3-1.6-0.2c-0.2,0-0.3,0.1-0.5,0.2c0,0,1.1,0.3,1.1,2.2
		c0,0.5-0.1,1-0.2,1.4c-0.1,0.5-0.1,1-0.1,1.4c0,0,0.6,0.1,0.6,0.2c0.1-0.4,0.2-0.8,0.4-1.2C73.2,40.5,73.3,39.4,73.3,38.3z"/>
	<path class="st1" d="M72.1,37.3c0.5,0.4,0.8,0.7,0.8,2.9c0,0.4-0.1,1-0.1,1.6l0.3-0.4c0.2-1,0.3-2,0.3-3c0-0.2-0.1-0.5-0.2-0.7
		C72.8,37.4,72.4,37.3,72.1,37.3z"/>
	<path class="st0" d="M76.3,48.6c0.1-0.2,0.2-0.5,0.3-0.7c0.1-0.3,0-0.6-0.2-0.8c-0.5-0.5-1.7,0.4-3.6,4.3c-1,2-1.7,3.8-3,4.9
		c-0.2,0.2-0.2,0.2-0.3,0.4c-0.1,0.4-0.2,0.8-0.1,1.2c0.3-0.3,0.8-1.1,1.5-2C72.8,53.6,74.6,51.1,76.3,48.6z"/>
	<path class="st5" d="M69,57.5l0.6-1.2c0-0.1,0.2-0.2,0.3-0.2L69.4,57c-0.1,0.2,0,0.4,0.1,0.5c0.1,0,0.1,0,0.2,0l-0.1,0.3
		C69.5,58,69.4,58,69.2,58l0,0C69,57.8,68.9,57.6,69,57.5z"/>
	<path class="st16" d="M64.1,48.7c-0.1,0.1-0.2,0.2-0.2,0.4v0.6c0.1-0.1,0.1-0.2,0.1-0.3C64,49.1,64,48.9,64.1,48.7z"/>
	<path class="st16" d="M64,49c-0.1,0.2-0.2,0.4-0.2,0.6c0,0.1,0,0.3-0.1,0.3c0-0.2,0-0.4,0-0.5v-0.3C63.8,48.7,64.4,48.7,64,49z"/>
	<path class="st0" d="M64.3,48.5c0,0.1-0.1,0.3-0.1,0.4c0,0.1,0.1,0.2,0.2,0.3c-0.3,0.1-0.4-0.3-0.6-0.3S64.3,48.2,64.3,48.5z"/>
	<path class="st0" d="M65.3,47.3c-0.4,0.2-0.7,0.6-1,0.9c-0.2,0.3-0.1,0.6-0.4,0.8v0.1c-0.1,0-0.1,0.1-0.1,0.1l-0.1,0.1
		c0-0.3,0.1-0.6,0.2-0.9c0.4-0.5,0.8-0.9,1.2-1.3C65.5,46.7,65.8,46.9,65.3,47.3z"/>
	<path class="st0" d="M64,49C63.9,48.9,63.9,48.9,64,49C63.9,49,63.9,49,64,49c-0.2,0.1-0.3,0.2-0.4,0.4s-0.1,0.4-0.2,0.5
		c0.1-0.1,0.2-0.2,0.2-0.3C63.7,49.4,63.8,49.2,64,49z"/>
	<path class="st0" d="M65.6,46.5c0.3,0,1.1-0.5,1.2-0.4c-0.8,0.8-1.7,1.5-2.7,2.1L65.6,46.5z"/>
	<path class="st1" d="M65.4,46.9c0.1,0,0.2,0.2,0.2,0.3c0.6-0.4,2.2-1.7,2.3-2.5c0-0.3-0.4-0.9-1.2,0c-0.6,0.6-1.1,1.4-1.5,2.2
		C65.3,46.9,65.4,46.9,65.4,46.9z"/>
	<path class="st16" d="M75.2,39.4L75.2,39.4c0.1-0.2,0.1-0.3,0.1-0.5c0-0.1-0.1-0.6-0.1-0.6c0,0.1,0,0.2,0,0.4
		C75.3,38.9,75.2,39.1,75.2,39.4z"/>
	<path class="st16" d="M75.2,39.3c0.1-0.2,0-0.4-0.1-0.6c-0.1-0.1-0.1-0.2,0-0.4c0.1,0.2,0.2,0.3,0.2,0.5c0,0.1,0.1,0.2,0.1,0.3
		C75.4,39.4,75,39.7,75.2,39.3z"/>
	<path class="st0" d="M73.5,43.3c0.2-1,0.7-1.9,1.2-2.7c0,0,0.7-0.6-0.4,2.2C73.9,43.7,73.5,43.4,73.5,43.3z"/>
	<path class="st0" d="M75.2,39.1L75.2,39.1l0.2,0.3c0,0.3-0.1,0.5-0.2,0.8c-0.1,0.4-0.3,0.8-0.3,1.2c0,0.1-0.5,0.1-0.5,0.1
		s0.4-0.8,0.5-1.2s0.1-0.7,0.2-1.1c0-0.1,0.1-0.2,0.1-0.4C75.2,38.7,75.3,38.9,75.2,39.1c0,0.2,0.1,0.2,0.1,0.2L75.2,39.1z"/>
	<path class="st0" d="M75.2,39.5c0-0.1,0-0.3,0-0.4c-0.1-0.2-0.2-0.4-0.3-0.5c0,0.1,0,0.2,0.1,0.3C75.1,39.1,75.2,39.3,75.2,39.5z"
		/>
	<path class="st16" d="M75.1,39.4L75.1,39.4L75.1,39.4L75,39.9c0-0.1,0-0.2,0.1-0.3C75.1,39.4,75.1,39.4,75.1,39.4L75.1,39.4
		L75.1,39.4z"/>
	<path class="st16" d="M75,39.4c0-0.1,0-0.3,0-0.4c0,0.1,0,0.2-0.1,0.3c0,0.1,0,0.2,0,0.3c0.1,0.1,0.1,0.1,0.1,0.2
		C75,39.7,75.1,39.6,75,39.4C75.1,39.3,75,39.4,75,39.4z"/>
	<path class="st1" d="M74.5,42.3c0-0.1-0.5-0.2-0.6-0.1l-0.1,0.1c0,0-0.7,1.1-0.1,1.4C73.6,43.7,74.2,43.8,74.5,42.3z"/>
	<rect x="70.8" y="46.3" class="st9" width="6" height="0.1"/>
	<path class="st9" d="M73.5,46.3c0,0.1,0.1,0.2,0.2,0.2h3.1c0.1,0,0.2,0,0.3-0.3l1.5-2.8c0-0.1-0.1-0.2-0.2-0.2l-3.1,0.1
		c-0.1,0-0.2,0.1-0.2,0.2L73.5,46.3z"/>
	<path class="st8" d="M73.8,46.4h-3c0.2,0.1,0.3,0.1,0.5,0.1h5c0.2,0,0.3,0,0.5-0.1H73.8z"/>
	<g class="st19">
		<g>
			<g>
				<g>
					<defs>
						<rect id="SVGID_1_" x="38.8" y="34.5" width="18.5" height="32.9"/>
					</defs>
					<clipPath id="SVGID_2_">
						<use xlink:href="#SVGID_1_"  style="overflow:visible;"/>
					</clipPath>
					<g class="st20">
						<rect x="36.7" y="44.5" class="st21" width="1.4" height="0.5"/>
						<rect x="36.7" y="51" class="st21" width="1.4" height="0.5"/>
						<rect x="38" y="41.6" class="st21" width="31.9" height="24.5"/>
						<rect x="38" y="41.5" class="st22" width="31.9" height="0.8"/>
						<rect x="63.1" y="44.6" class="st23" width="4.7" height="5.3"/>
						<rect x="57.4" y="44.6" class="st23" width="4.7" height="5.3"/>
						<rect x="51.6" y="44.6" class="st23" width="4.7" height="5.3"/>
						<rect x="45.9" y="44.6" class="st23" width="4.7" height="5.3"/>
						<rect x="40.1" y="44.6" class="st23" width="4.7" height="5.3"/>
						<polygon class="st23" points="61.3,52.7 62.1,52.7 67.8,52.7 67.8,63.8 62.1,63.8 61.3,63.8 57.4,63.8 57.4,52.7 						"/>
						<polygon class="st21" points="62.1,52.7 67.8,52.7 67.8,54.8 57.4,54.8 57.4,52.7 61.3,52.7 						"/>
						<polygon class="st22" points="61.3,52.7 62,52.7 68.1,52.7 68.1,53.2 62,53.2 61.3,53.2 57,53.2 57,52.7 						"/>
						<polygon class="st24" points="61.3,63.3 62,63.3 68.1,63.3 68.1,63.8 62,63.8 61.3,63.8 57,63.8 57,63.3 						"/>
						<polygon class="st23" points="44.1,52.7 44.9,52.7 50.6,52.7 50.6,63.8 44.9,63.8 44.1,63.8 40.1,63.8 40.1,52.7 						"/>
						<polygon class="st21" points="44.9,52.7 50.6,52.7 50.6,54.8 40.1,54.8 40.1,52.7 44.1,52.7 						"/>
						<polygon class="st22" points="44.1,52.7 44.8,52.7 50.9,52.7 50.9,53.2 44.8,53.2 44.1,53.2 39.8,53.2 39.8,52.7 						"/>
						<polygon class="st24" points="44.1,63.3 44.8,63.3 50.9,63.3 50.9,63.8 44.8,63.8 44.1,63.8 39.8,63.8 39.8,63.3 						"/>
						<polygon class="st25" points="35.1,43.7 35.3,43.7 37,43.7 37,52.3 35.3,52.3 35.1,52.3 33.9,52.3 33.9,43.7 						"/>
						<rect x="51.6" y="52.7" class="st24" width="4.7" height="12.7"/>
						<rect x="52.1" y="60.2" class="st22" width="3.8" height="0.3"/>
						<rect x="52.1" y="61" class="st22" width="3.8" height="0.3"/>
						<rect x="50.6" y="65.4" class="st23" width="6.8" height="1"/>
						<rect x="51.6" y="52.7" class="st22" width="4.7" height="2.1"/>
						<rect x="37.2" y="66.1" class="st24" width="33.6" height="1.5"/>
						<rect x="37.2" y="40.2" class="st24" width="33.6" height="1.5"/>
					</g>
				</g>
			</g>
		</g>
	</g>
	<path class="st26" d="M46.4,67.5h6.3c1.2,0,1.3-1.7,0.8-2c-1.4-0.8-5.9-1.2-5.9-1.2l-3.1,2.8L46.4,67.5z"/>
	<path class="st27" d="M50.6,58.2c0,0,1.2-0.3,1.7,1.2c0.6,1.6,0.8,3.3,0.6,5c0,0.2-0.2,0.9-1.5,1c-0.5,0-0.3-1.1-0.3-1.1
		c-0.3-0.8-0.5-1.7-0.7-2.6C50.2,60.5,50.3,59.4,50.6,58.2z"/>
	<path class="st11" d="M51.5,58.4l-3-1l-2.3-0.2L43.8,58c0,0-0.8,0.5-0.1,2.3c0.5,1.5,0.6,3.1,0.5,4.6l6.4,0.2
		c0.1-1.7,0.3-3.5,0.5-5.2C51.2,59.4,51.3,58.9,51.5,58.4z"/>
	<path class="st27" d="M47.2,65h0.3c0.4-2.5,0.4-5,0-7.6l-0.3,0.2C47.2,60.2,47.1,62.7,47.2,65z"/>
	<path class="st16" d="M48.4,58.1c0,0.3-0.3,0.6-0.6,0.7H47c-0.3-0.1-0.6-0.3-0.6-0.7c-0.1-0.6-0.1-1.1-0.2-1.7
		c0-0.5,0.2-0.9,0.6-1.2c0.4-0.2,0.9-0.2,1.3,0c0.4,0.3,0.6,0.7,0.6,1.2C48.6,57,48.5,57.6,48.4,58.1z"/>
	<polygon class="st27" points="47.4,58.8 46.8,59.7 45.8,58.5 46,57.8 46.3,57.6 46.3,58.1 	"/>
	<polygon class="st27" points="47.4,58.8 48,59.7 48.9,58.6 48.7,57.9 48.5,57.6 48.4,58.1 	"/>
	<path class="st1" d="M47.3,54.1c-0.2,0-0.4,0.2-0.5,0.4h-0.3c-0.3,0-0.5,0.2-0.5,0.5l0,0l0,0v1.3h0.4v-0.5c0-0.2,0.2-0.4,0.4-0.4
		h0.1c0.4,0,0.7-0.3,0.7-0.7l0,0v-0.5L47.3,54.1z"/>
	<path class="st16" d="M46.6,56.7c0,0.2-0.1,0.3-0.3,0.3l0,0c-0.2,0-0.3-0.1-0.3-0.3l0,0v-0.4c0-0.2,0.1-0.3,0.3-0.3l0,0
		c0.1,0,0.2,0.1,0.3,0.2"/>
	<path class="st1" d="M47,54.6v-0.5h1.1c0.4,0,0.7,0.3,0.7,0.7v0.5h-1.1C47.3,55.3,47,55,47,54.6L47,54.6L47,54.6z"/>
	<path class="st0" d="M48.7,57.2c0,0.4-0.2,0.7-0.5,0.9c-0.5,0.2-1,0.2-1.5,0c-0.3-0.2-0.5-0.5-0.5-0.9v-2.3
		c0.1-0.3,0.3-0.5,0.6-0.5h1.4c0.3,0,0.6,0.2,0.6,0.5L48.7,57.2z"/>
	<path class="st1" d="M47.6,54.1c0.2,0,0.4,0.1,0.6,0.3h0.2c0.3,0,0.5,0.2,0.5,0.5v1.3h-0.4v-0.5c0-0.2-0.2-0.4-0.4-0.4h-0.4
		c-0.4,0-0.7-0.3-0.7-0.7v-0.5C47,54.1,47.6,54.1,47.6,54.1z"/>
	<path class="st0" d="M48.3,56.3c0-0.2,0.1-0.3,0.3-0.3l0,0c0.2,0,0.3,0.1,0.3,0.3l0,0v0.4c0,0.2-0.1,0.3-0.3,0.3l0,0
		c-0.1,0-0.2-0.1-0.3-0.2"/>
	<path class="st1" d="M47.1,54.8v-0.6h-0.5c-0.4,0-0.7,0.3-0.7,0.7v0.5h0.6C46.6,55,46.8,54.8,47.1,54.8z"/>
	<path class="st28" d="M41.2,76.1c-0.1,0.1,0,0.3,0,0.3c0.5,0.1,1.1,0.1,1.6,0c0.2-0.1,0.3-0.1,0.4-0.2l0.1-0.1h0.1l0.2-0.1
		c0.1-0.3,0.1-0.5,0-0.8c0,0-1.1-0.3-1.2-0.1C42,75.5,41.6,75.8,41.2,76.1z"/>
	<path class="st28" d="M52.5,75.5l0.1,0.9l0.9,0.1l0.1-0.1c0.1,0,0.1,0.1,0.2,0.2h0.5l1.8,0.2c0,0,0.1-0.2,0-0.3
		c-0.1-0.1-0.2-0.1-0.3-0.1c-0.5-0.2-1.8-0.7-2-1.2C53.8,74.6,52.5,75.5,52.5,75.5z"/>
	<path class="st0" d="M51.1,63.9L48,65.1c1.2,0.2,2.4,0.2,3.6,0C52.5,65,51.2,63.8,51.1,63.9z"/>
	<path class="st26" d="M44.1,65.8c0,0-0.3,2.8-0.3,4.3c0.1,1.7,0,3.4-0.2,5.1c-0.5,0.1-1,0.1-1.5,0c0,0-0.5-7-0.7-8.2
		C41.3,65.9,41.8,65.1,44.1,65.8z"/>
	<path class="st29" d="M53.2,66.5c-0.4,0.5-1.1,0.9-1.7,0.9c-0.5,0.1,0.7,8.2,0.7,8.2l1.9-0.6l-0.4-9L53.2,66.5z"/>
	<path class="st29" d="M48,67.4c0,0-2.5,0.4-4.1,0.5c-0.6,0.1-1.1-1.6-1.2-1.7c-0.2-0.2-0.6-0.4-0.9-0.4c0.4-0.4,2.2-0.7,4.1-1.2
		c2-0.5,2.3-0.2,2.3-0.2L48,67.4z"/>
	<path class="st26" d="M45.9,64.6c-1.9,0.5-3.8,0.8-4.1,1.2c0.3,0,0.7,0.2,0.9,0.4c0,0,0.1,0.6,0.2,0.8c-0.3-0.6,4.2-2.2,5.2-2.6
		C47.4,64.3,46.6,64.4,45.9,64.6z"/>
	<polygon class="st29" points="43.8,67.4 43.6,72.9 43.4,74.2 43.4,72.9 43.5,72.1 43,70.9 42.8,68 43.1,68.1 43.1,66.8 	"/>
	<path class="st26" d="M53.1,65.8l0.5,0.1l0.2,6.6l-1,2.4l0.5-1.6L53.1,70c0,0-0.7,1.6-0.7,1.5S53,68,53,68
		c-0.2,0.2-0.4,0.3-0.6,0.5C52.5,67.6,52.8,66.7,53.1,65.8z"/>
	<path class="st11" d="M45.2,58c0,0-1-0.8-2,0.7c-1,1.6-1.7,3.2-2.2,5c-0.2,0.9,0,1.8,0.5,2.5c0.1,0.1,1,0,1,0l0.5-0.4l-0.2-0.4V65
		c0,0,0.7-1.7,1.6-3.3C44.9,60.6,45.2,59.3,45.2,58z"/>
	<path class="st0" d="M42.8,64.5l3.2,0.2c0,0-3.1,1.4-3.2,1.2C42.2,64.5,42.8,64.5,42.8,64.5z"/>
	<path class="st0" d="M44.6,64.4l0.2-0.1c0.1,0.1,0.3,0.2,0.4,0.2h1.6v0.1l-1.1,0.2l1.1,0.1c0,0,0.1,0,0.1,0.1v0.1l-1.2,0.2l0.5,0.1
		c0,0,0.1,0,0.1,0.1v0.1l-1.1-0.1C45.2,65.5,44.4,64.5,44.6,64.4z"/>
	<path class="st0" d="M45.7,65.1l0.7,0.1c0.1,0,0.2,0,0.3,0.1v0.1l0,0l0,0l-1.1-0.1L45.7,65.1z"/>
	<path class="st30" d="M50.2,65.6L50.2,65.6v-0.2h-6.3v0.2l0,0c0.1,0.2,0.3,0.2,0.5,0.2h5.2C49.8,65.9,50,65.8,50.2,65.6L50.2,65.6z
		"/>
	<rect x="44.9" y="65.5" class="st31" width="4.2" height="0.1"/>
	<path class="st32" d="M50.2,65.4v-4.2c0-0.1-0.1-0.2-0.2-0.2l0,0h-5.9c-0.1,0-0.2,0.1-0.2,0.2l0,0l0,0v4.2H50.2z"/>
	<path class="st30" d="M47.4,63.3c0,0.2-0.2,0.4-0.4,0.3l0,0c-0.2,0-0.3-0.2-0.3-0.3c0-0.2,0.2-0.4,0.4-0.4l0,0l0,0
		C47.2,62.9,47.4,63,47.4,63.3C47.4,63.2,47.4,63.2,47.4,63.3L47.4,63.3z"/>
	<polygon class="st27" points="42.4,66.1 42.1,64.7 42.5,64.3 43.3,64.5 43.1,66 	"/>
	<polygon class="st11" points="52.2,65.1 52.3,64.6 51.3,63.7 50.7,63.9 51.5,65.3 	"/>
	<path class="st33" d="M32.8,39.3V42c0,0.7,0.8,1.3,1.9,1.3s1.9-0.6,1.9-1.3v-2.7H32.8z"/>
	<path class="st34" d="M36.6,39.3V42c0,0.7,0.9,1.3,1.9,1.3s1.9-0.6,1.9-1.3v-2.7H36.6z"/>
	<path class="st33" d="M40.4,39.3V42c0,0.7,0.8,1.3,1.9,1.3s1.9-0.6,1.9-1.3v-2.7H40.4z"/>
	<path class="st34" d="M44.1,39.3V42c0,0.7,0.8,1.3,1.9,1.3c1,0,1.9-0.6,1.9-1.3v-2.7H44.1z"/>
	<path class="st33" d="M47.9,39.3V42c0,0.7,0.9,1.3,1.9,1.3s1.9-0.6,1.9-1.3v-2.7H47.9z"/>
	<path class="st34" d="M51.7,39.3V42c0,0.7,0.8,1.3,1.9,1.3s1.9-0.6,1.9-1.3v-2.7H51.7z"/>
	<path class="st33" d="M55.4,39.3V42c0,0.7,0.8,1.3,1.9,1.3s1.9-0.6,1.9-1.3v-2.7H55.4z"/>
	<path class="st34" d="M59.2,39.3V42c0,0.7,0.8,1.3,1.9,1.3c1,0,1.9-0.6,1.9-1.3v-2.7H59.2z"/>
	<path class="st35" d="M38.3,35.1l-5.5,4.2h3.8c1.4-1.4,2.7-2.8,4.1-4.2H38.3z"/>
	<path class="st36" d="M40.7,35.1c-1.4,1.4-2.7,2.8-4.1,4.2h3.8l2.7-4.2H40.7z"/>
	<path class="st35" d="M43.1,35.1l-2.7,4.2h3.8c0.5-1.4,0.9-2.8,1.4-4.2H43.1z"/>
	<path class="st36" d="M45.5,35.1c-0.5,1.4-0.9,2.8-1.4,4.2h3.8v-4.2H45.5z"/>
	<path class="st35" d="M47.9,35.1v4.2h3.8c-0.5-1.4-0.9-2.8-1.4-4.2H47.9z"/>
	<path class="st36" d="M50.3,35.1c0.4,1.4,0.9,2.8,1.4,4.2h3.8l-2.7-4.2H50.3z"/>
	<path class="st35" d="M52.7,35.1l2.7,4.2h3.8l-4.1-4.2H52.7z"/>
	<path class="st36" d="M59.2,39.3H63l-5.5-4.2h-2.4L59.2,39.3z"/>
	<rect x="38.3" y="34.2" class="st35" width="2.4" height="0.9"/>
	<rect x="40.7" y="34.2" class="st34" width="2.4" height="0.9"/>
	<rect x="43.1" y="34.2" class="st35" width="2.4" height="0.9"/>
	<rect x="45.5" y="34.2" class="st34" width="2.4" height="0.9"/>
	<rect x="47.9" y="34.2" class="st35" width="2.4" height="0.9"/>
	<rect x="50.3" y="34.2" class="st34" width="2.4" height="0.9"/>
	<rect x="52.7" y="34.2" class="st35" width="2.4" height="0.9"/>
	<rect x="55.1" y="34.2" class="st34" width="2.4" height="0.9"/>
	<path class="st37" d="M84.5,74.4L84.5,74.4z"/>
	<path class="st17" d="M94.5,72.7V74c0,0.4-0.4,0.7-1.4,1.1c-2.5,0.7-5.2,0.8-7.8,0.4c-1.2-0.3-1.9-0.6-1.9-1v-1.3
		c0,0.4,0.6,0.8,1.9,1c2.6,0.4,5.2,0.2,7.8-0.5C94.1,73.4,94.5,73,94.5,72.7z"/>
	<path class="st37" d="M92.6,71.7c2.3,0.5,2.5,1.4,0.5,2c-2.5,0.7-5.2,0.8-7.8,0.4c-2.3-0.4-2.5-1.3-0.5-2
		C87.4,71.4,90,71.3,92.6,71.7z M86,73.9c2.2,0.4,4.4,0.2,6.5-0.4c1.7-0.6,1.5-1.3-0.4-1.7c-2.2-0.4-4.4-0.2-6.5,0.3
		C83.9,72.8,84.1,73.5,86,73.9"/>
	<path class="st17" d="M92,71.9c1.9,0.4,2.1,1.1,0.4,1.7c-2.1,0.6-4.3,0.7-6.5,0.3c-1.9-0.4-2.1-1.1-0.4-1.7
		C87.6,71.6,89.9,71.5,92,71.9z"/>
	<path class="st14" d="M85.5,72.4c2.1-0.6,4.3-0.7,6.5-0.3c0.9,0.2,1.5,0.5,1.6,0.8c0.1-0.4-0.4-0.7-1.6-0.9
		C89.8,71.6,87.6,71.8,85.5,72.4c-0.8,0.2-1.2,0.5-1.1,0.8C84.5,72.9,84.8,72.6,85.5,72.4z"/>
	<path class="st14" d="M90.1,73.2c0.2,0.1,0,0.3-0.3,0.4c-0.6,0.2-1.1,0.2-1.7,0.2c-0.2,0-0.4,0-0.6-0.1h-0.3l-0.4-0.1l0.2-0.1h-0.3
		h-0.2L86,73.4h0.2h-0.4l0.4-0.1h0.3l1.3-0.4l0.4-0.1l1.1-0.4L89,72.3l0.4-0.1h0.4l0.5,0.1l-0.2,0.1h0.5l0.5,0.1H91
		c0.6,0.1,0.7,0.4,0.1,0.5C90.8,73.1,90.5,73.2,90.1,73.2z M88.3,73.6c0.3,0,0.7,0,1-0.1s0.3-0.3-0.1-0.3L88.3,73l0,0l-1.2,0.4
		l0.9,0.2C88.1,73.6,88.2,73.6,88.3,73.6 M89.8,72.5l-1,0.3l0.8,0.2h0.3c0.3,0,0.6,0,0.9-0.1s0.3-0.2-0.1-0.3L89.8,72.5L89.8,72.5"
		/>
	<path class="st38" d="M90.1,73c0.2,0.1,0,0.3-0.3,0.4c-0.6,0.2-1.1,0.2-1.7,0.2c-0.2,0-0.4,0-0.6-0.1h-0.3l-0.4-0.1l0.2-0.1h-0.5
		H86l0.2-0.1l-0.3-0.1l0.4-0.1h0.3l1.3-0.4l0.5-0.2l1.1-0.4l-0.3-0.1l0.4-0.1h0.5l0.5,0.1L90.4,72h0.4l0.5,0.1H91
		c0.6,0.1,0.7,0.4,0.1,0.6C90.9,72.9,90.5,73,90.1,73z M88.3,73.4c0.3,0,0.7,0,1-0.1s0.3-0.3-0.1-0.4l-0.9-0.2l0,0l-1.2,0.4l0.9,0.2
		L88.3,73.4 M89.8,72.3l-1.1,0.3l0.8,0.2h0.3c0.3,0,0.6,0,0.9-0.1s0.3-0.2-0.1-0.3L89.8,72.3L89.8,72.3"/>
	<path class="st14" d="M84,73.7V75c0.4,0.2,0.9,0.4,1.4,0.5c0.7,0.1,1.4,0.2,2.1,0.2v-1.4c-0.7,0-1.4-0.1-2.2-0.2
		C84.8,74,84.4,73.9,84,73.7z"/>
	<path class="st37" d="M85,72.8L85,72.8z"/>
	<path class="st17" d="M95,71.1v1.3c0,0.5-0.4,0.7-1.4,1c-2.5,0.7-5.2,0.8-7.8,0.4c-1.2-0.2-1.9-0.6-1.9-1v-1.3c0,0.4,0.6,0.8,1.9,1
		c2.6,0.4,5.3,0.3,7.8-0.4C94.6,71.8,95,71.4,95,71.1z"/>
	<path class="st37" d="M93.1,70.1c2.3,0.4,2.5,1.4,0.5,2c-2.5,0.7-5.2,0.8-7.8,0.4c-2.3-0.4-2.5-1.3-0.5-2
		C87.8,69.8,90.5,69.7,93.1,70.1z M86.4,72.3c2.2,0.4,4.4,0.2,6.5-0.3c1.7-0.5,1.5-1.3-0.4-1.7c-2.2-0.4-4.4-0.2-6.5,0.3
		C84.4,71.2,84.6,72,86.4,72.3"/>
	<path class="st17" d="M92.5,70.3c1.9,0.4,2.1,1.1,0.4,1.7c-2.1,0.6-4.3,0.7-6.5,0.3c-1.9-0.4-2.1-1.1-0.4-1.7
		C88.1,70.1,90.3,69.9,92.5,70.3z"/>
	<path class="st14" d="M86,70.8c2.1-0.6,4.3-0.7,6.5-0.3c1,0.2,1.5,0.5,1.6,0.8c0.1-0.4-0.4-0.7-1.6-0.9C90.3,70,88.1,70.2,86,70.8
		c-0.8,0.2-1.2,0.5-1.1,0.8C85,71.3,85.4,71,86,70.8z"/>
	<path class="st14" d="M90.7,71.6c0.1,0.1,0,0.3-0.3,0.4c-0.6,0.2-1.1,0.2-1.7,0.2c-0.2,0-0.4,0-0.6-0.1h-0.3L87.3,72h0.2h-0.4h-0.2
		l-0.4-0.1l0.2-0.1l-0.3-0.1l0.4-0.1h0.3l1.3-0.4l0.4-0.2l1.1-0.4h-0.3l0.4-0.1h0.4l0.5,0.1h0.3l0.5,0.1h-0.2
		c0.6,0.1,0.7,0.4,0.1,0.5C91.4,71.5,91,71.6,90.7,71.6z M88.8,72c0.3,0,0.7,0,1-0.1c0.4-0.1,0.3-0.3-0.1-0.3l-0.9-0.2l0,0l-1.2,0.4
		l0.9,0.2H88.8 M90.3,70.8l-1.1,0.4l0.8,0.2h0.3c0.3,0,0.6,0,0.9-0.1s0.3-0.2-0.1-0.3L90.3,70.8L90.3,70.8"/>
	<path class="st38" d="M90.7,71.4c0.1,0.1,0,0.3-0.3,0.4C89.8,72,89.3,72,88.7,72c-0.2,0-0.4,0-0.6-0.1h-0.3l-0.4-0.1l0.2-0.1H87
		l-0.4-0.1h0.2l-0.3-0.1l0.4-0.1H87l1.3-0.4l0.5-0.1l1.1-0.3l-0.3-0.1l0.4-0.1h0.4l0.5,0.1l-0.2,0.1h0.5l0.5,0.1l-0.2,0.1
		c0.6,0.1,0.7,0.4,0.1,0.5C91.4,71.4,91,71.4,90.7,71.4z M88.8,71.8c0.4,0,0.7,0,1.1-0.1s0.3-0.3-0.1-0.3l-1-0.2l0,0l-1.2,0.4
		l0.9,0.2H88.8 M90.3,70.7L89.2,71l0.8,0.2h0.3c0.3,0,0.6,0,0.9-0.1s0.3-0.2-0.1-0.3L90.3,70.7L90.3,70.7"/>
	<path class="st14" d="M84.5,72.1v1.3c0.4,0.2,0.9,0.4,1.4,0.5c0.7,0.1,1.4,0.2,2.1,0.2v-1.3c-0.7,0-1.4-0.1-2.2-0.2
		C85.3,72.5,84.9,72.3,84.5,72.1z"/>
	<path class="st37" d="M84.5,71L84.5,71z"/>
	<path class="st17" d="M94.5,69.2v1.3c0,0.5-0.4,0.7-1.4,1c-2.5,0.7-5.2,0.8-7.8,0.4c-1.2-0.2-1.9-0.6-1.9-1v-1.3
		c0,0.4,0.6,0.8,1.9,1c2.6,0.4,5.2,0.3,7.8-0.4C94.1,69.9,94.5,69.6,94.5,69.2z"/>
	<path class="st37" d="M92.6,68.2c2.3,0.5,2.5,1.4,0.5,2c-2.5,0.7-5.2,0.8-7.8,0.4c-2.3-0.4-2.5-1.3-0.5-2
		C87.4,67.9,90,67.8,92.6,68.2z M86,70.5c2.2,0.4,4.4,0.2,6.5-0.3c1.6-0.6,1.4-1.3-0.4-1.6c-2.2-0.4-4.4-0.2-6.5,0.3
		C83.9,69.4,84.1,70.1,86,70.5"/>
	<path class="st17" d="M92,68.5c1.9,0.4,2.1,1.1,0.4,1.7c-2.1,0.6-4.3,0.7-6.5,0.3c-1.9-0.4-2.1-1.1-0.4-1.7
		C87.6,68.2,89.9,68.1,92,68.5z"/>
	<path class="st14" d="M85.5,69c2.1-0.6,4.3-0.7,6.5-0.3c0.9,0.2,1.5,0.5,1.6,0.8c0.1-0.4-0.4-0.7-1.6-0.9
		C89.8,68.2,87.6,68.4,85.5,69c-0.8,0.2-1.2,0.5-1.1,0.8C84.5,69.4,84.8,69.2,85.5,69z"/>
	<path class="st14" d="M90.1,69.7c0.2,0.1,0,0.3-0.3,0.4c-0.6,0.2-1.1,0.2-1.7,0.2c-0.2,0-0.4,0-0.6-0.1h-0.3l-0.4-0.1H87L86.7,70
		h-0.2H86l0.2-0.1l-0.3-0.1l0.4-0.1h0.3l1.3-0.4l0.5-0.2l1.1-0.4l-0.3-0.1l0.4-0.1h0.5l0.5,0.1h0.3l0.5,0.1H91
		c0.6,0.1,0.7,0.4,0.1,0.5C90.9,69.5,90.5,69.7,90.1,69.7z M88.3,70.2c0.3,0,0.7,0,1-0.1s0.3-0.3-0.1-0.3l-0.9-0.1l0,0L87.1,70
		l0.9,0.2C88.1,70.2,88.2,70.2,88.3,70.2 M89.8,69.1l-1.1,0.4l0.8,0.1c0.1,0,0.2,0,0.3,0c0.3,0,0.6,0,0.9-0.1s0.3-0.2-0.1-0.3
		L89.8,69.1L89.8,69.1"/>
	<path class="st38" d="M90.1,69.6c0.2,0.1,0,0.3-0.3,0.4c-0.6,0.2-1.1,0.2-1.7,0.2c-0.2,0-0.4,0-0.6-0.1h-0.4L86.7,70l0.2-0.1h-0.5
		L86,69.8h0.2l-0.3-0.1l0.4-0.1h0.3l1.3-0.4l0.4-0.2l1.1-0.4L89,68.7l0.4-0.1h0.4l0.5,0.1l-0.2,0.1h0.5l0.5,0.1L91,68.8
		c0.6,0.1,0.7,0.4,0.1,0.5C90.8,69.5,90.5,69.5,90.1,69.6z M88.3,70c0.3,0,0.7,0,1-0.1s0.3-0.3-0.1-0.3l-0.9-0.2l0,0l-1.2,0.5L88,70
		H88.3 M89.8,68.8l-1.1,0.3l0.8,0.2h0.3c0.3,0,0.6,0,0.9-0.1s0.3-0.2-0.1-0.3L89.8,68.8L89.8,68.8"/>
	<path class="st14" d="M84,70.2v1.3c0.4,0.2,0.9,0.4,1.4,0.5c0.7,0.1,1.4,0.2,2.1,0.2v-1.3c-0.7,0-1.4-0.1-2.2-0.2
		C84.8,70.6,84.4,70.5,84,70.2z"/>
	<path class="st37" d="M85,69.4L85,69.4z"/>
	<path class="st17" d="M95,67.7V69c0,0.4-0.4,0.7-1.4,1c-2.5,0.7-5.2,0.8-7.8,0.4c-1.2-0.2-1.9-0.6-1.9-1v-1.3c0,0.4,0.6,0.8,1.9,1
		c2.6,0.4,5.3,0.3,7.8-0.4C94.6,68.4,95,68,95,67.7z"/>
	<path class="st37" d="M93.1,66.7c2.3,0.4,2.5,1.3,0.5,2c-2.5,0.7-5.2,0.8-7.8,0.4c-2.3-0.4-2.5-1.3-0.5-2
		C87.8,66.4,90.5,66.2,93.1,66.7z M86.4,68.9c2.2,0.4,4.4,0.2,6.5-0.3c1.7-0.6,1.5-1.3-0.4-1.7c-2.2-0.4-4.4-0.2-6.5,0.3
		C84.4,67.8,84.6,68.5,86.4,68.9"/>
	<path class="st17" d="M92.5,66.9c1.9,0.4,2.1,1.1,0.4,1.7c-2.1,0.6-4.3,0.7-6.5,0.4c-1.9-0.4-2.1-1.1-0.4-1.7
		C88.1,66.6,90.3,66.5,92.5,66.9z"/>
	<path class="st14" d="M86,67.4c2.1-0.6,4.3-0.7,6.5-0.3c1,0.2,1.5,0.5,1.6,0.8c0.1-0.4-0.4-0.7-1.6-0.9
		C90.4,66.6,88.1,66.7,86,67.4c-0.8,0.2-1.2,0.5-1,0.8C85,67.9,85.4,67.6,86,67.4z"/>
	<path class="st14" d="M90.7,68.2c0.1,0.1,0,0.3-0.3,0.4c-0.6,0.2-1.1,0.2-1.7,0.2c-0.2,0-0.4,0-0.6-0.1h-0.3l-0.4-0.1l0.2-0.1H87
		l-0.4-0.1l0.2-0.1l-0.3-0.1l0.4-0.1H87l1.3-0.4l0.4-0.2l1.1-0.4L89.5,67l0.4-0.1h0.4l0.5,0.1l-0.2,0.1h0.5l0.5,0.1h-0.2
		c0.6,0.1,0.7,0.4,0.1,0.5C91.3,68,91,68.1,90.7,68.2z M88.8,68.6c0.4,0,0.7,0,1.1-0.1s0.3-0.3-0.1-0.4l-1-0.2l0,0l-1.2,0.4l0.9,0.2
		L88.8,68.6 M90.3,67.4l-1.1,0.4L90,68h0.3c0.3,0,0.6,0,0.9-0.1s0.3-0.2-0.1-0.3L90.3,67.4L90.3,67.4"/>
	<path class="st38" d="M90.7,68c0.1,0.1,0,0.3-0.3,0.4c-0.6,0.2-1.1,0.2-1.7,0.2c-0.2,0-0.4-0.1-0.6-0.1h-0.3l-0.4-0.1h0.2l-0.3-0.1
		l0,0L87,68.4h-0.1l-0.4-0.1h0.2l-0.3-0.1l0.4-0.1h0.3l1.3-0.4l0.5-0.2l1.1-0.4L89.8,67H90h0.4l0.5,0.1H91l0.1-0.1l0,0l0.5,0.1
		l-0.2,0.1c0.6,0.1,0.7,0.4,0.1,0.5C91.4,67.9,91,68,90.7,68z M88.8,68.4c0.3,0,0.7,0,1-0.1c0.4-0.1,0.3-0.3-0.1-0.3l-0.9-0.2l0,0
		l-1.2,0.4l0.9,0.2H88.8 M90.3,67.2l-1.1,0.4l0.8,0.2c0.1,0,0.2,0,0.3,0c0.3,0,0.6,0,0.9-0.1s0.3-0.2-0.1-0.3L90.3,67.2L90.3,67.2"
		/>
	<path class="st14" d="M84.5,68.7V70c0.4,0.2,0.9,0.4,1.4,0.5c0.7,0.1,1.4,0.2,2.1,0.2v-1.3c-0.7,0-1.4-0.1-2.2-0.2
		C85.3,69,84.9,68.9,84.5,68.7z"/>
	<path class="st39" d="M86,59c0.4,1,1.5,1.4,2.5,1s1.4-1.5,1-2.5c-0.4-0.9-1.4-1.4-2.3-1.1c-0.1,0-0.2,0.1-0.3,0.2
		C86,57,85.6,58.1,86,59L86,59z"/>
	<path class="st39" d="M85,61.3c0.5,1.2,1.9,1.7,3.1,1.1c1.2-0.5,1.7-1.9,1.1-3.1c-0.5-1.2-1.9-1.7-3.1-1.1l0,0
		C85,58.7,84.5,60.1,85,61.3L85,61.3z"/>
	<path class="st16" d="M87,63.8c0,0,0.1,0.3-1.4,0.7c-1.2,0.3-2.4,0.5-3.7,0.6l3.2-1.2C85.1,63.8,86.5,63.4,87,63.8z"/>
	<path class="st16" d="M83.1,64.8c-0.4,0.2-0.8,0.4-1.1,0.8c-0.2,0.1-0.3,0.3-0.5,0.4c0.1-0.3,0.3-0.4,0.4-0.5s0.1-0.1-0.2,0
		c-0.2,0.1-0.3,0.3-0.5,0.5c-0.1,0.1-0.1,0.1-0.2,0.2c0.1-0.2,0.2-0.4,0.3-0.6c0.2-0.2,0.3-0.5,0.5-0.7c0.3-0.1,0.6-0.2,0.9-0.3
		C83.1,64.6,83.6,64.7,83.1,64.8z"/>
	<path class="st16" d="M81.9,65c-0.2,0.1-0.4,0.2-0.6,0.4c-0.1,0.2-0.1,0.3-0.2,0.4c0.1-0.1,0.2-0.1,0.3-0.2
		C81.5,65.4,81.7,65.2,81.9,65z"/>
	<path class="st3" d="M86.2,63.3c0,0,1.3-0.3,1.5,0.5c0.1,0.3-0.1,0.7-0.5,0.8h-0.1c-0.8,0.2-1.6,0.3-1.6,0.3l-0.7-1.1L86.2,63.3z"
		/>
	<path class="st3" d="M86.1,62.7l0.4-3.7c0,0,0-1,0.3-0.9c0.3,0,0.6,0.9,0.6,1.2c0.2,0.8,0.2,1.6,0.2,2.4v2.7c0,0.4-0.5,0-0.9-0.1
		C85.9,64.1,86.1,62.7,86.1,62.7z"/>
	<polygon class="st0" points="78,73 76.7,75.7 75,75.8 74.1,75.6 76,75.1 77,72.6 	"/>
	<path class="st5" d="M76.5,76.1h-0.2l-0.1-0.3h-1.4l-1.1-0.2c0,0,0-0.1,0.1-0.1c0.4-0.1,0.7-0.1,1.1-0.2c0,0-0.1,0.2,0,0.3
		c0.5,0,1,0,1.4-0.1c0.4,0,0.7-0.2,0.6-0.1C76.8,75.7,76.7,75.9,76.5,76.1z"/>
	<path class="st5" d="M84.8,67.6l-4-0.1l-3,6.6l-1.3-0.5l2.9-7.9c0,0,0.2-0.5,1.4-0.5s6-0.1,6.5,0C88.8,65.5,84.6,66.5,84.8,67.6z"
		/>
	<path class="st39" d="M87.7,56.6c0.4,0.9,1.5,1.3,2.4,0.9c0.9-0.4,1.3-1.5,0.9-2.4s-1.5-1.3-2.5-0.9l0,0
		C87.7,54.6,87.3,55.6,87.7,56.6L87.7,56.6z"/>
	<path class="st39" d="M85.8,56c0.3,0.7,1.1,0.9,1.8,0.6l0,0v-0.7c0.7-0.3,1-1.2,0.6-1.9L88,53.5c-0.3-0.7-1.2-1-1.9-0.6l-0.3,0.2
		c-0.7,0.3-1,1.2-0.7,1.8l0,0L85.8,56z"/>
	<path class="st0" d="M85.4,54c0.1,0.1,0.1,0.2,0.2,0.3c0.4,0.7,1.1,1,1.9,0.9c0.2,0.3,0.4,0.6,0.6,0.9c0.2,0.2,0.5,0.3,0.8,0.4
		c0.4,0.7,0.1,1.7-0.7,2l0,0c-0.1,0.1-0.3,0.1-0.4,0.1c-0.8,0.1-0.6-0.7-0.4-1.2c0.1-0.2,0.2-0.4,0.2-0.7s-0.3-0.6-0.5-0.7
		c-0.3-0.1-0.6-0.1-0.9,0h-0.1c-0.1,0-0.1-0.1-0.2-0.2l-0.5-1C85.3,54.5,85.3,54.2,85.4,54z"/>
	<path class="st5" d="M89.5,66.3c0,0-0.6,0.1-0.7,0.2c-0.3,0-0.6,0-0.9,0c0,0-0.1-3.2-0.2-4.3s-0.4-1.4-0.4-1.8c0-0.4,0-0.7,0.2-1.1
		c0.1-0.4-0.2-1-0.1-0.9c0.4,0.3,0.9,0.3,1.2-0.1l0.1-0.1C88.6,58.1,89.5,66.3,89.5,66.3z"/>
	<path class="st40" d="M87.4,57.1c0,0-0.8,0.8-0.8,1.1c0,0.9,0,1.7,0.1,2.6c0.2,0.8,0.3,1.6,0.4,2.3C87,63.8,87,64.5,87,65.2
		c0,0.5,0.1,1.1,0.2,1.6c0.2,0.1,0.5,0,0.7-0.2c0.3-0.3,0.2-3.2,0.1-3.9c-0.2-1-0.4-2.1-0.5-3.1c0-0.6,0.1-1.3,0.3-1.9
		C87.9,57.3,87.4,57.1,87.4,57.1z"/>
	<path class="st3" d="M87.4,57L87.4,57c0.2,0.2,0.3,0.2,0.3,0.3c0,0-0.2-0.1-0.2,0c-0.1,0.2-0.1,0.4-0.1,0.6c0,0-0.3-0.5-0.2-0.6
		C87.2,57.2,87.3,57.1,87.4,57z"/>
	<path class="st39" d="M88.5,59c0.3,1,1.3,1.6,2.4,1.4c1-0.3,1.6-1.3,1.4-2.4c-0.3-1-1.3-1.6-2.4-1.4h-0.1
		C88.8,56.9,88.2,58,88.5,59z"/>
	<polygon class="st0" points="81.9,73.6 81.9,75.5 81.5,76 80.5,76.5 79.7,76.4 81.1,75.4 81.2,73.4 	"/>
	<path class="st41" d="M81.8,75.9l-0.4,0.3l-0.1-0.1l-0.9,0.6c0,0-0.9,0.2-1.1,0s0.1-0.2,0.3-0.3c0.1-0.1,0.2-0.1,0.2-0.2
		c0,0,0,0.1,0.4,0.2c0.4-0.2,0.7-0.3,1-0.5c0.2-0.1,0.4-0.3,0.6-0.5C82,75.5,81.8,75.9,81.8,75.9z"/>
	<path class="st42" d="M90,63.7l-0.5,1.2L88.6,65l-6.8,0.4c0,0-0.6-0.2-1,0.8c-0.5,1.4,0.2,8.2,0.2,8.2h1l0.5-6.5
		c0,0,6.5,1.1,8.4,0.6c0.7-0.2,1.3-1.5,1.2-2.8c-0.1-0.7-0.3-1.4-0.7-1.9L90,63.7z"/>
	<path class="st40" d="M89,66.1c0,0-0.3-2.8-0.5-4.1c-0.1-1.3-0.2-2.6-0.2-3.9c0-0.3-0.1-0.5-0.2-0.8c0,0,0.3-0.7,0.8-0.7
		c0.7,0.1,1.5,0.4,2.2,0.6c0.4,0.2,0.2,4.7,0.2,4.9c0.2,0.9,0.5,1.7,0.8,2.5c0.2,0.4,0.3,0.9,0.4,1.3C91.3,65.9,90.2,65.9,89,66.1z"
		/>
	<path class="st3" d="M88.8,56.3l-0.3,0.4c0,0-0.4,0.6-0.3,0.5s0.4,0.5,0.4,0.5l0.6-1.2L88.8,56.3z"/>
	<path class="st0" d="M91.4,63.2c0,0,0.5,0.4-1.4,0.6c-1.6,0.1-3.1,0.1-4.7,0l4.3-0.8C90.3,62.8,90.9,62.9,91.4,63.2z"/>
	<path class="st0" d="M86.9,63.8c-0.6,0.1-1.1,0.4-1.5,0.7c-0.2,0.1-0.4,0.3-0.7,0.4c0.1-0.4,0.4-0.4,0.6-0.5s0.1-0.1-0.2,0
		c-0.3,0.1-0.5,0.3-0.7,0.5c-0.1,0.1-0.2,0.1-0.3,0.2c0.1-0.2,0.3-0.4,0.5-0.6c0.2-0.3,0.5-0.5,0.8-0.7c0.4-0.1,0.8-0.2,1.2-0.2
		S87.5,63.7,86.9,63.8z"/>
	<path class="st16" d="M85.4,63.8c-0.3,0.1-0.5,0.2-0.8,0.3c-0.1,0.1-0.4,0.4-0.4,0.4c0.1,0,0.3-0.1,0.4-0.2
		C84.8,64.2,85.1,64,85.4,63.8z"/>
	<path class="st3" d="M90.3,62.7l-0.6-4.1c0.1-0.4,0.2-0.8,0.4-1.1c0.2-0.2,0.6-0.3,0.9-0.2c0,0,0.7,0.6,0.7,3.8
		c0,2.2,0.2,3.2-0.7,3.2c-1,0.1-1.9,0.1-1.9,0.1l-0.7-1.3L90.3,62.7z"/>
	<rect x="79.3" y="64.9" class="st9" width="5.9" height="0.1"/>
	<path class="st9" d="M82.6,64.9c0,0.1-0.1,0.2-0.2,0.2h-3c-0.1,0-0.2-0.1-0.3-0.3L77.7,62c0-0.1,0.1-0.2,0.2-0.2l0,0l3.1,0.1
		c0.1,0,0.2,0.1,0.2,0.2L82.6,64.9z"/>
	<path class="st8" d="M82.3,65h3c-0.1,0.1-0.3,0.1-0.5,0.1h-5c-0.2,0-0.3,0-0.5-0.1H82.3z"/>
</g>
</svg>
