<svg xmlns="http://www.w3.org/2000/svg" xmlns:xlink="http://www.w3.org/1999/xlink" viewBox="0 0 100 100"><defs><clipPath id="a"><rect x="37.52" y="32.75" width="20.59" height="36.54" style="fill:none"/></clipPath><linearGradient id="b" x1="15.6" y1="76.4" x2="15.6" y2="75.14" gradientTransform="matrix(1, 0, 0, -1, 0, 102)" gradientUnits="userSpaceOnUse"><stop offset="0" stop-color="#e04037"/><stop offset="1" stop-color="#f95830"/></linearGradient><linearGradient id="c" x1="15.59" y1="80.84" x2="15.59" y2="78.15" xlink:href="#b"/></defs><title>shopping</title><rect width="100" height="100" style="fill:none"/><rect x="3.65" y="20.25" width="15.33" height="8.94" style="fill:#fbbc3e"/><rect x="3.65" y="29.31" width="15.33" height="8.93" style="fill:#fff"/><rect x="5.1" y="30.56" width="8.8" height="0.59" style="fill:#e59e0e"/><rect x="5.1" y="31.82" width="10.03" height="0.44" style="fill:#fbbc3e"/><rect x="5.07" y="32.85" width="8.76" height="0.44" style="fill:#fbbc3e"/><rect x="4.96" y="34.58" width="5.73" height="1.57" style="fill:#e59e0e"/><rect x="6.27" y="35.15" width="3.14" height="0.44" style="fill:#fff"/><g style="opacity:0.6000000238418579"><rect x="20.91" y="20.25" width="15.33" height="8.94" style="fill:#fbbc3e"/><rect x="20.91" y="29.31" width="15.33" height="8.93" style="fill:#fff"/><rect x="22.36" y="30.56" width="8.8" height="0.59" style="fill:#e59e0e"/><rect x="22.36" y="31.82" width="10.03" height="0.44" style="fill:#fbbc3e"/><rect x="22.31" y="32.85" width="8.76" height="0.44" style="fill:#fbbc3e"/><rect x="22.22" y="34.58" width="5.73" height="1.57" style="fill:#e59e0e"/><rect x="23.51" y="35.15" width="3.14" height="0.44" style="fill:#fff"/></g><polygon points="9.25 44.83 10.22 43.36 11.89 43.39 11.46 44.85 10.82 45.99 9.25 44.83" style="fill:#e9d6b8"/><path d="M13.25,41.61a.65.65,0,0,1-.67.6l-2.39-.15a.64.64,0,0,1-.6-.67h0a.63.63,0,0,1,.67-.59l2.39.15a.6.6,0,0,1,.59.63v0Z" style="fill:#163f59"/><path d="M12.8,42.67a1.2,1.2,0,0,1-1.2,1.11l-1.2-.09a1.19,1.19,0,0,1-1.09-1.2h0a1.21,1.21,0,0,1,1.2-1.09l1.2.07A1.21,1.21,0,0,1,12.8,42.67Z" style="fill:#163f59"/><path d="M13.58,44.59,13.79,41c0-.59-.46,0-1,0h-.55a1,1,0,0,0-1.12,1v0l-.15,2.59Z" style="fill:#e9d6b8"/><path d="M11.48,42.68a.45.45,0,0,1-.45.44h0a.46.46,0,0,1-.44-.47h0a.48.48,0,0,1,.49-.45h0A.47.47,0,0,1,11.48,42.68Z" style="fill:#e9d6b8"/><path d="M13.34,43.44a.24.24,0,0,0,.22.27h.23a.28.28,0,0,0,.28-.27s-.39-1.4-.53-1.41a.43.43,0,0,0-.13.26Z" style="fill:#e9d6b8"/><path d="M12.12,44.3c-1.06,0-1.14-.38-1.2-.75a7.17,7.17,0,0,0-.35,1.2v.33a1.35,1.35,0,0,0,1.4,1.2l1.48.08.09-1.63v-.38Z" style="fill:#163f59"/><path d="M13.62,43.72h-.83a.7.7,0,0,0-.75.65v.18l1.52.09Z" style="fill:#163f59"/><path d="M12.5,44.39v.24a.1.1,0,0,0,.09.12h.7a.12.12,0,0,0,.12-.12V44.4Z" style="fill:#e9d6b8"/><path d="M13.47,40.29l-2.16-.13a.41.41,0,0,0-.44.39h0v.84l2.58.16Z" style="fill:#163f59"/><path d="M14.76,41a.63.63,0,0,1-.67.59h0l-1.46-.09a.61.61,0,0,1-.59-.63v0h0a.63.63,0,0,1,.66-.59h0l1.45.08a.64.64,0,0,1,.6.67Z" style="fill:#163f59"/><rect x="10.56" y="41.6" width="1.53" height="0.59" transform="translate(-31.16 50.7) rotate(-86.58)" style="fill:#163f59"/><rect x="11.21" y="40.56" width="1.81" height="1.71" transform="translate(-29.95 51.03) rotate(-86.57)" style="fill:#163f59"/><path d="M11.6,42.31a.86.86,0,0,1,.92-.81H13c.48,0,.7.43.68.91h0a.86.86,0,0,1-.92.81h-.32a.85.85,0,0,1-.81-.9Z" style="fill:#e9d6b8"/><path d="M16.78,53.31a8.76,8.76,0,0,1,.88.4v.5c0,.11-.21-.22-.31.12a1.19,1.19,0,0,0,0,.7l.61.39h.34l.29-.18.06-.64-.11-1.11-1.14-.84-.71.12Z" style="fill:#edeef0"/><path d="M17.24,52.12,18.5,53s.28.43.48.8a2.73,2.73,0,0,1,.28.6,3.33,3.33,0,0,1-.23.82c-.13.13-.46,0-.46,0h-.66s-.23-.09,0-.3a.92.92,0,0,1,.65-.17v-.49a3.62,3.62,0,0,0-.53-.86l-1-.52Z" style="fill:#edeef0"/><polygon points="13.71 49.38 17.44 51.88 16.8 53.52 14.04 53 13.71 49.38" style="fill:#b0bfde"/><path d="M3.94,74.94a8,8,0,0,1-1.2.27,2.37,2.37,0,0,1-1-.31A1.44,1.44,0,0,1,1,74.3,12.64,12.64,0,0,1,.6,72.61l-.24.15L0,71.86s.54-1.19.91-1.19S2.41,72,2.41,72l.08,1.57L3,74.4s.54.14.67.2S3.94,74.94,3.94,74.94Z" style="fill:#081832"/><path d="M16.56,74.06l.78,1.53L18.69,75l-.07-.43.65-.21.91-.14,2.64-2s-.09-.28-.22-.31c-.41-.08-1.52.66-1.52.66L19,72.86Z" style="fill:#081832"/><polygon points="10.03 61.82 8.97 64.46 2.86 72.57 0.83 70.67 5.92 62.78 6.77 56.24 10.03 61.82" style="fill:#163f59"/><path d="M9.61,53S13.3,63.84,14.4,66.36s5.17,6.32,5.17,6.32l-3.68,1.8s-5.17-8.39-6.33-11.39A32.94,32.94,0,0,0,6.09,57a4.15,4.15,0,0,1-1.58-4.53C5.3,49.4,9.61,53,9.61,53Z" style="fill:#194866"/><path d="M12.17,46.7l-1.62,8.51L4.41,52l4.1-7.55S10,43,12.17,46.7Z" style="fill:#bcd0e2"/><path d="M39.22,72.93a1.35,1.35,0,0,1-1.34,1.37,1.36,1.36,0,1,1,0-2.71h0a1.34,1.34,0,0,1,1.34,1.34Z" style="fill:#484f59"/><path d="M38.68,72.93a.82.82,0,0,1-.8.83.83.83,0,0,1-.83-.81.82.82,0,0,1,.81-.82h0A.8.8,0,0,1,38.68,72.93Z" style="fill:#b7bec0"/><path d="M38.59,72.93a.72.72,0,0,1-.7.72h0a.72.72,0,1,1,0-1.44h0a.71.71,0,0,1,.71.71Z" style="fill:#cdd5d7"/><path d="M38.18,72.61c0,.42-.24.51-.53.2l-1.07-1.2c-.27-.31-.16-.57.26-.57h.58a.76.76,0,0,1,.77.76Z" style="fill:#cdd5d7"/><path d="M36.68,71.73h.74a.76.76,0,0,1,.76.7v-.59a.77.77,0,0,0-.77-.77h-.59c-.42,0-.52.27-.25.58Z" style="fill:#b7bec0"/><path d="M28.94,72.93A1.35,1.35,0,0,1,27.6,74.3,1.37,1.37,0,0,1,26.23,73a1.35,1.35,0,0,1,1.34-1.36h0a1.34,1.34,0,0,1,1.34,1.34Z" style="fill:#484f59"/><path d="M28.38,72.93a.83.83,0,0,1-.81.83.82.82,0,0,1-.82-.81.8.8,0,0,1,.8-.82h0A.8.8,0,0,1,28.38,72.93Z" style="fill:#b7bec0"/><path d="M28.3,72.93a.7.7,0,0,1-.69.72h0a.72.72,0,0,1,0-1.44h0a.7.7,0,0,1,.7.71Z" style="fill:#cdd5d7"/><path d="M27.9,72.61c0,.42-.24.51-.53.2l-1.07-1.2c-.27-.31-.16-.57.25-.57h.63a.76.76,0,0,1,.76.76Z" style="fill:#cdd5d7"/><path d="M26.4,71.73h.78a.75.75,0,0,1,.75.7v-.59a.77.77,0,0,0-.76-.77h-.59c-.42,0-.53.27-.25.58Z" style="fill:#b7bec0"/><rect x="31.72" y="52.77" width="0.75" height="17.26" transform="translate(-32.45 86.58) rotate(-83.72)" style="fill:#cdd5d7"/><rect x="32.37" y="56.25" width="0.75" height="15.84" transform="translate(-33.3 92.93) rotate(-86.49)" style="fill:#cdd5d7"/><path d="M39.54,71.37h0L26.6,71.25a1.27,1.27,0,0,1-1-.39A2.23,2.23,0,0,1,25.48,69c.25-1.19.39-1.89.39-1.89a.39.39,0,0,1,.39-.3H34a.35.35,0,0,1,.4.31.06.06,0,0,1,0,0,.37.37,0,0,1-.34.4H26.55c-.06.32-.17.88-.33,1.59-.06.29-.22,1-.07,1.2a.69.69,0,0,0,.45.09l13,.14a.38.38,0,0,1,.44.31.38.38,0,0,1-.31.44.29.29,0,0,1-.13,0Z" style="fill:#b7bec0"/><path d="M26.55,71a1.21,1.21,0,0,1-.92-.32c-.3-.37-.19-1,0-1.72.25-1.19.41-1.9.41-1.91a.21.21,0,0,1,.19-.16h7.86a.23.23,0,0,1,.22.18.22.22,0,0,1,0,.16.31.31,0,0,1-.13.06H26.51v.14L26,69.05c-.17.8-.18,1.2,0,1.38s.3.16.61.16l13.11.14a.18.18,0,0,1,.19.19h0a.19.19,0,0,1-.19.2Z" style="fill:#cdd5d7"/><path d="M27.63,66.59a.38.38,0,0,1-.36-.27l-2.39-8a.38.38,0,0,1,.26-.47.38.38,0,0,1,.47.24h0l2.39,8a.38.38,0,0,1-.25.47Z" style="fill:#cdd5d7"/><path d="M29.5,66.59a.37.37,0,0,1-.36-.29l-2-7.75a.38.38,0,1,1,.73-.19l1.92,7.72a.39.39,0,0,1-.28.46Z" style="fill:#cdd5d7"/><path d="M31.37,66.59a.38.38,0,0,1-.37-.31l-1.43-7.39a.4.4,0,0,1,.38-.4.4.4,0,0,1,.37.25l1.42,7.4a.37.37,0,0,1-.28.44h-.09Z" style="fill:#cdd5d7"/><path d="M33.24,66.59a.37.37,0,0,1-.37-.33L32,59.19a.37.37,0,0,1,.32-.42h0a.35.35,0,0,1,.41.29v0l.93,7.07a.37.37,0,0,1-.32.42h-.1Z" style="fill:#cdd5d7"/><path d="M35.11,66.59a.38.38,0,0,1-.38-.36l-.45-6.74a.39.39,0,0,1,.35-.41.38.38,0,0,1,.41.36h0l.44,6.74a.36.36,0,0,1-.34.4h0Z" style="fill:#cdd5d7"/><path d="M37,66.59h0a.38.38,0,0,1-.38-.38V59.78A.38.38,0,0,1,37,59.4h0a.38.38,0,0,1,.38.38v6.43A.38.38,0,0,1,37,66.59Z" style="fill:#cdd5d7"/><path d="M38.85,66.59h0a.37.37,0,0,1-.35-.39v0l.53-6.1a.39.39,0,0,1,.37-.33.37.37,0,0,1,.35.39v0l-.53,6.11A.38.38,0,0,1,38.85,66.59Z" style="fill:#cdd5d7"/><path d="M40.18,66.77H26a.38.38,0,0,1-.36-.24l-4-9.79h0s-.2-.36-1.1-.66c-1.14-.38-2.5-1-2.56-1a.38.38,0,0,1-.27-.47.4.4,0,0,1,.47-.27l.12.06s1.38.62,2.48,1a2.66,2.66,0,0,1,1.56,1.11l.38.93,18.52,2.4a.37.37,0,0,1,.25.15.43.43,0,0,1,.07.29l-1,6.18A.37.37,0,0,1,40.18,66.77ZM26.23,66H39.86l.89-5.47L23.06,58.2Z" style="fill:#cdd5d7"/><path d="M40.18,66.77H26a.38.38,0,0,1-.36-.24l-4-9.79h0s-.2-.36-1.1-.66c-1.14-.38-2.5-1-2.56-1a.38.38,0,0,1-.27-.47.4.4,0,0,1,.47-.27l.12.06s1.38.62,2.48,1a2.66,2.66,0,0,1,1.56,1.11l.38.93,18.52,2.4a.37.37,0,0,1,.25.15.43.43,0,0,1,.07.29l-1,6.18A.37.37,0,0,1,40.18,66.77ZM26.23,66H39.86l.89-5.47L23.06,58.2Z" style="fill:#cdd5d7"/><polygon points="40.06 65.74 40.95 60.25 23.26 57.93 23.38 58.24 40.76 60.53 39.9 65.74 40.06 65.74" style="fill:#b7bec0"/><path d="M40.36,66.5H26.17a.39.39,0,0,1-.35-.24l-4-9.79s-.2-.36-1.11-.66c-1.14-.39-2.5-1-2.55-1a.36.36,0,0,1-.22-.4.38.38,0,0,0,0,.67h0c.06,0,1.42.65,2.56,1,.9.3,1.09.66,1.09.66l4,9.79a.38.38,0,0,0,.36.24h14.2a.37.37,0,0,0,.37-.32h0A.41.41,0,0,1,40.36,66.5Z" style="fill:#b7bec0"/><path d="M26.17,66.29a.13.13,0,0,1-.13-.08l-4-9.94h0a2.78,2.78,0,0,0-1.14-.66c-1.14-.37-2.48-1-2.54-1l-.08-.09a.09.09,0,0,1,0-.1.13.13,0,0,1,.13-.09h.06s1.39.64,2.5,1,1.41.91,1.42,1l.43,1,18.65,2.4h.09a.21.21,0,0,1,0,.11l-1,6.18a.14.14,0,0,1-.14.12Zm.1-.29h14l1-5.92L22.89,57.69Z" style="fill:#e5e8ec"/><path d="M20.83,55.22l-2.4-1a.53.53,0,0,0-.68.29.52.52,0,0,0,.28.67h0l2.52,1Z" style="fill:#484f59"/><path d="M29.57,66.26a.14.14,0,0,1-.14-.12l-.55-2.21-1.7-.11.67,2.24a.14.14,0,0,1-.1.18h0a.15.15,0,0,1-.14-.1l-.7-2.4-1.77-.11v-.29l1.67.1L26,60.61l-2.2-.24v-.3l2.08.24-.72-2.39a.15.15,0,0,1,.11-.18h0a.13.13,0,0,1,.14.09l.74,2.51,1.94.21-.57-2.31a.11.11,0,0,1,0-.11.18.18,0,0,1,.08-.07h0a.15.15,0,0,1,.15.11l.6,2.39,1.94.22-.43-2.24a.14.14,0,0,1,.11-.17h0a.14.14,0,0,1,.14.12l.44,2.4,2,.21-.29-2.18a.13.13,0,0,1,.1-.15h0a.15.15,0,0,1,.17.12l.3,2.24,1.94.21-.15-2.09a.2.2,0,0,1,0-.11h.11a.15.15,0,0,1,.16.13L35,61.43l1.94.21V59.58a.16.16,0,0,1,.16-.15h0a.15.15,0,0,1,.14.15v2.05l1.94.22.17-2a.16.16,0,0,1,.14-.13h.12a.21.21,0,0,1,0,.11l-.18,2,1.13.12v.3l-1-.1-.18,2.1,1.3.08v.3l-1.33-.09-.13,1.56a.15.15,0,0,1-.14.13s-.1,0-.12-.06a.11.11,0,0,1,0-.11l.11-1.52-1.74-.11V66.1a.15.15,0,0,1-.15.14h0A.14.14,0,0,1,37,66.1h0V64.42l-1.74-.11.12,1.79a.21.21,0,0,1,0,.11h-.09a.15.15,0,0,1-.16-.13v0l-.12-1.81-1.74-.1L33.55,66a.14.14,0,0,1-.11.17h0a.15.15,0,0,1-.16-.13l-.26-2L31.28,64l.38,2a.15.15,0,0,1-.12.17h0a.14.14,0,0,1-.14-.12L31,64l-1.74-.11L29.78,66a.13.13,0,0,1-.09.16h0Zm7.75-2.11,1.76.1.19-2.1-1.92-.22Zm-2-.12,1.76.1V61.89l-1.93-.2Zm-2.05-.13L35,64l-.16-2.39-1.93-.22Zm-2-.12,1.75.1-.33-2.48-1.92-.2Zm-2.06-.14,1.76.11-.5-2.59L28.45,61Zm-2.06-.12,1.76.11L28.14,61l-1.92-.21Z" style="fill:#e5e8ec"/><path d="M14.21,50.38s-1.3-2.73-1.82-3.6a20.72,20.72,0,0,0-1.53-1.84s-.85.5-1,1a4.71,4.71,0,0,0,.36,3.11L14,53l.79-.84Z" style="fill:#b0bfde"/><polygon points="9.85 43.79 9.38 44.22 11.59 45.9 11.62 45.23 9.85 43.79" style="fill:#b0bfde"/><rect x="54.94" y="49.2" width="32.74" height="20.47" rx="1.68" ry="1.68" style="fill:#e5e8ec"/><rect x="54.94" y="49.02" width="32.74" height="20.47" rx="1.68" ry="1.68" style="fill:#2c7eea"/><path d="M68.51,53.76s0-.1.13-.07.19.15.37.14-.17-.16-.07-.2l.18.13c0-.12,0-.15-.06-.21.26,0,.18-.37.13-.56a.48.48,0,0,1,.29,0c0-.16-.17-.14-.25-.22.09,0,.07-.09.19,0s0-.1,0-.21.08-.13.2-.11.29.07.27-.07-.15,0-.17-.11-.06-.12-.17-.09-.29.12-.36.07.29-.1.32-.25-.2-.12-.39-.11-.24-.09-.3,0-.1,0-.16-.07-.46,0-.6.07-.33,0-.4.07.09.23,0,.24h-.6c-.33,0-.48.28-.83.31,0,.13.14,0,.13.14s-.27.09-.36.18a.15.15,0,0,0-.21.05l0,0c.11,0,.11,0,.17.07s.17-.09.17,0,.23-.15.23,0-.34,0-.43,0,.15.16.26.22.07-.11.17-.07a.48.48,0,0,0,.4.09.43.43,0,0,0,.06.33,1,1,0,0,0,0,.24c.14.07.16-.16.24,0s-.19-.05-.31-.05.25.11.3.25a1.7,1.7,0,0,0-.23.17c.09,0-.1.07-.07.18.24.16,0,.57.23.8h.24c.1,0,.06.16.17.14s.06-.14.13-.18c0-.26.17-.26.13-.51.09,0,0-.15.13-.15s.13-.08.27,0l.16-.14c.16,0,.23-.18.4-.2s.3-.17.2-.29C68.74,53.94,68.6,53.76,68.51,53.76Zm.33-.13a.13.13,0,0,1,.1-.22c.1,0-.08.14-.1.24ZM69.12,52c0,.1-.07.13-.13.17a.73.73,0,0,0-.43-.07C68.62,51.92,68.93,52,69.12,52Z" style="fill:#2366bd"/><path d="M64.39,52.49v.2h.2c.08,0,.22-.31.33-.24s-.17,0-.16.11-.12,0-.11.13.12,0,.11.11-.1,0-.21,0-.1.07,0,.21.34,0,.43.11c-.26.06-.44-.14-.59-.07s.2.06.19.2c.25,0,.6.16.67-.1.08,0,.14,0,.13-.1s-.16,0-.13-.07h.23c0-.19.2-.17.16-.38.17,0,.2-.18.41-.15a.22.22,0,0,1,.23-.14c0-.09-.07-.17,0-.18s.33,0,.39-.17-.09,0-.09-.07a6.89,6.89,0,0,0-1.87.14c0,.21.14.18.17.31-.22,0-.15-.26-.4-.21v.14c0,.07-.11,0-.09.07S64.33,52.42,64.39,52.49Zm.7.63Z" style="fill:#2366bd"/><path d="M72.56,52.42c0-.1.18,0,.13-.22a6.23,6.23,0,0,0-.86-.07.17.17,0,0,0,0,.14A1.32,1.32,0,0,0,72.56,52.42Z" style="fill:#2366bd"/><path d="M71.26,52.56c0,.08-.06.11,0,.17s.15-.16.3-.13-.16.15-.16.31a.26.26,0,0,0,.24.07c0,.11.06.11.15.11s0-.27.11-.4c.08.1.13.23.36.18,0-.26-.17-.29-.26-.42,0,.09-.09,0-.14,0a.17.17,0,0,1-.16-.07c.08-.1,0-.2-.17-.18s0,.19,0,.22c-.09-.17-.4-.34-.41,0A.13.13,0,0,0,71.26,52.56Z" style="fill:#2366bd"/><path d="M74.62,52.34c0-.21-.31-.14-.3,0S74.5,52.33,74.62,52.34Z" style="fill:#2366bd"/><path d="M76.48,52.56c.26,0,.54.12.6-.11a.53.53,0,0,0-.57-.11C76.44,52.36,76.5,52.49,76.48,52.56Z" style="fill:#2366bd"/><path d="M83.19,54.67c.08,0,.06-.13.17-.11s.14.22.35.17,0-.17,0-.28-.21-.23-.29-.07a.28.28,0,0,0,0-.18c-.18,0-.28-.21-.57-.17,0-.07-.12-.07-.17-.14s-.26-.12-.49-.07c0,.11.1.18,0,.21s-.08-.15-.17-.18a.89.89,0,0,0-.46.08c-.19.07-.11-.3-.36-.26,0,0,0,.11-.07.11l-.4-.2a.12.12,0,0,1-.07.07c0-.14-.07-.11-.17-.11.09-.08,0-.08,0-.14s-.14,0-.3,0h-.13s.1.12,0,.14h-.9c-.25,0-.12-.13-.19-.11a.59.59,0,0,1-.37-.07h-.13a.54.54,0,0,0-.34-.07c0-.08.1-.11.1-.2s-.15-.15-.2-.26a.86.86,0,0,1-.39,0c-.08,0-.07-.15-.2-.14s-.11.13-.1.25c-.17-.06-.11.12-.24.11s0-.14-.13-.11a.46.46,0,0,1-.4.15.28.28,0,0,1-.2.09c-.11,0,0,.18-.1.18s-.22-.06-.19.07.19,0,.16.21c-.12,0-.16-.16-.34-.13v0c0-.09,0,.15-.19.1s0-.19-.2-.14a4.17,4.17,0,0,1-.34.38,1,1,0,0,1-.43-.07c0,.18.18.06.13.22a2,2,0,0,0-.49,0c-.16.06-.24.19-.41.24V54h-.19c0,.19,0,.37-.2.35,0,.13-.12.11-.19.14s0,.11,0,.15a1,1,0,0,1-.21-.33,1.55,1.55,0,0,1,.43,0c.1-.21-.18-.33-.39-.34a.36.36,0,0,0-.27-.15.83.83,0,0,0-.16-.21h-.3l-.27.21h-.11a3.25,3.25,0,0,1-.39.35,1,1,0,0,1-.19.4h-.11v.13c-.2,0-.23.23-.3.39a.53.53,0,0,1,.07.39c0,.09.21,0,.27.1s-.14.14-.14.24V56A1.43,1.43,0,0,0,71,56c0,.06-.1.09-.08.21-.19,0-.07.2-.22.18a.09.09,0,0,1,0,.07c-.15,0-.18.1-.27.14s-.18,0-.16.14.14,0,.22,0,.16.12.13.28,0,.13-.09.13h-.5c0,.12.08.39-.06.4s.09.14.06.31a.41.41,0,0,1,.3.07c.09.08.14-.07.27,0a.78.78,0,0,0,.16-.49c.15,0,.12-.27.3-.29h.33a.67.67,0,0,0,0,.52c.22,0,.09-.19.1-.38v0c.07,0,.07.1.11.15a.27.27,0,0,1,.3.21c0,.07-.09.07-.17,0s.11.12.17.18a.26.26,0,0,1,.15-.24c.07,0,0-.06,0-.11s.11.12.17,0-.74-.19-.62-.45c.09.15.27.23.39.38v.15s.08.08.07.13V58h.23c.08,0,0-.3,0-.42h.1v.28c0,.14,0,.11.09.14A.42.42,0,0,0,73,58c.1,0-.08.18,0,.18s0-.22.17-.18v.21c-.09,0,0,.3-.17.32a2.77,2.77,0,0,0-.86-.14c-.09,0-.07.16-.15.21-.16-.17-.46-.18-.6-.36s0-.14-.08-.2.09-.1,0-.14a1.09,1.09,0,0,0-.5.1.7.7,0,0,0-.62.15.2.2,0,0,0-.21-.11c0,.12-.14.14-.22.2s0,.39-.14.53-.22.19-.31.29a.74.74,0,0,1-.15.45v.91a1.26,1.26,0,0,1,.26.5c.16.09.25.25.47.27a1.85,1.85,0,0,1,.47,0c.06,0,.06-.19.19-.18s0,.12.07.15a1.48,1.48,0,0,1,.32.05c.11.06.1-.09.21-.05,0,.26-.08.39-.08.62s.27.32.21.56a1.69,1.69,0,0,1,.13.49c-.08.17-.06.43-.13.6a1.09,1.09,0,0,1,.3.57v.31c.15.19.14.52.3.7.32,0,.48-.21.76-.27a.67.67,0,0,1,.3-.43V64c0-.15.1-.1.21-.08a.83.83,0,0,1,.39-.8,3.22,3.22,0,0,0,0-1,2,2,0,0,0,.17-.46l.24-.18c.16-.24.3-.5.46-.73s.07-.31,0-.39-.14.12-.26.1h-.19c0-.24-.18-.32-.29-.45s-.2-.19-.13-.46-.16-.12-.2-.21a.62.62,0,0,1,0-.28s.17.24.13.31.23.35.36.49.07.38.24.5a3.19,3.19,0,0,1,.66-.28s0-.14.07-.14.24-.17.36-.17.11-.16.11-.28-.23-.13-.21-.34a.25.25,0,0,0-.26.06c0-.14-.15-.17-.13-.35-.11,0-.1-.11-.17-.15a.33.33,0,0,0,.13-.07c.18.13.14.51.47.47,0,0,.1,0,0,.17.17,0,.19-.11.34-.1s0,.07.1.06.29.12.42.18,0,0,0,.07.16,0,.21.11,0,.12,0,.24a1.12,1.12,0,0,1,.2.46.49.49,0,0,1,.17.25v.21h.23a1.62,1.62,0,0,0,.13-.66H77v-.14c.13,0,.07-.1.17-.07s.12-.18.17-.28a.6.6,0,0,1,.3-.14c.08.1.08.28.2.31s0,.08,0,.18.26,0,.33.11,0,.09,0,.2a.28.28,0,0,1,.17.22c0,.06-.09.06-.07.18s.11.12.07.27a3.21,3.21,0,0,0,.49.42c0-.22-.15-.27-.15-.49a.69.69,0,0,1-.24-.24c0-.12,0-.31.07-.32s.12.23.26.25a.15.15,0,0,1,0,.13c.32,0,.4-.35.36-.77,0,0-.12,0-.16-.07s-.16-.14,0-.24.08.11.22.08.19-.16.37-.15a1.86,1.86,0,0,0,.3-.53h.1c.1,0,0-.4.1-.49-.08,0-.1-.11-.1-.21s-.13-.07-.13-.17v-.18c0-.1.09,0,.09-.07s-.15-.21,0-.21.16.14.21.24,0,.24.17.29c.2-.15,0-.54.09-.81a1.35,1.35,0,0,1,.26-.15,2.07,2.07,0,0,1,.27-.45,2.81,2.81,0,0,1,0-.77c0,.2.08.23.11.35s0,.43.16.49,0-.08,0-.2,0,.06.14,0-.1-.12-.08-.26-.13-.15-.13-.24,0-.3-.11-.32,0,.16-.09.14c0-.26-.28.16-.37-.1s.08-.12.13-.18,0-.28.14-.31,0,0,.16,0a1.68,1.68,0,0,0,.5.07v.07h.24c.09,0,0-.12,0-.25s.07-.09.13-.1.08.1.14.1.1-.19.13-.1a2,2,0,0,0-.29.7c0,.09.08.13.13.21s0,.27.13.31.13-.21.23-.27.11-.16,0-.29.08-.07.1-.13-.15,0-.14-.15c0-.31.26-.23.51-.21,0,0,0-.16.09-.2a1.2,1.2,0,0,1,.47-.11C83.46,55,83.19,54.81,83.19,54.67ZM72,55.05a.35.35,0,0,0,.26.13v.36c-.07,0,0-.2-.13-.14s0,.37-.13.45h-.26c-.1,0-.12.11-.21.11s-.09-.12-.09,0-.09-.09,0-.11a.43.43,0,0,1-.13-.34c.16,0,.09.49.39.34.07-.14.12-.31.19-.45a.81.81,0,0,0,0-.22c0-.32.25-.43.36-.66h.07C72.27,54.76,72,54.75,72,55.05Zm.36.24c0-.11.12-.08.2-.11S72.5,55.29,72.39,55.29Zm.32-1.36Zm.6,5h0a.11.11,0,0,1-.06,0Zm0-4.35Zm2.4-.56s-.14,0-.13-.11,0-.14,0,0,.2,0,.17.11Zm2.06-.64h0s0,0,0,0Zm.1,0h0s0,0,0,0Zm.1-.07h0s0,0,0,0Zm1.49,4.42s.07-.15.2-.13,0,.13,0,.13a.18.18,0,0,0-.16,0Z" style="fill:#2366bd"/><path d="M67.71,61.89h-.16c-.06,0-.18-.15-.3-.21H67c-.06-.1-.28,0-.3-.17s-.19,0-.19-.07-.1-.61-.41-.46a.39.39,0,0,1-.19-.32c-.18,0-.3-.14-.47-.2s0,.06-.09.07-.21-.13-.24-.29,0,.1-.14.11-.08-.12-.16-.15,0,.14-.17.11-.18.21-.26.33c0-.12,0-.18-.14-.18s-.12.12-.22.14c-.09-.18,0-.34,0-.56s-.29-.08-.4-.15.12-.24.1-.45a1,1,0,0,1-.34,0c0,.07,0,.25-.13.27-.44,0-.17-.6-.26-.87.12,0,.18-.11.3-.13s.22.1.39.09,0-.09,0-.09.37,0,.4.09.07.3.22.33a1.09,1.09,0,0,1,0-.36.31.31,0,0,1-.09-.18.55.55,0,0,1,.43-.42.2.2,0,0,0,0-.21.17.17,0,0,0,.17,0c-.09-.19.1-.15.07-.38l.32-.14c0-.11-.09-.09-.06-.22a1.63,1.63,0,0,1,.47-.2c0,.09-.07.07-.07.13a.91.91,0,0,0,.37-.21c-.08,0-.25,0-.24-.17s.13-.1.2-.14,0-.08,0-.18c.17.12.35-.16.47-.1-.07.19-.24.28-.3.49h.27c.11,0,0,.13,0,.14a1.46,1.46,0,0,0,.22,0c.1,0-.06-.18,0-.25-.12,0-.14-.12-.19-.2a3.53,3.53,0,0,0,0-.46c-.07-.07-.08,0-.17,0S66,55.9,66,55.75a.33.33,0,0,0,0-.14c-.14-.08-.09-.34-.28-.35s0,.18,0,.18H65.5v-.35c-.17.08-.14-.09-.3-.11s-.07,0-.16,0h-.16c0,.35-.1.55,0,.8,0,0-.17-.09-.21,0s.11,0,.14.07-.11.28-.17.44a2.23,2.23,0,0,1-.13-.44c0-.07,0,0-.14,0h-.13a.82.82,0,0,0-.36-.24c0-.17-.12-.12-.11-.25s.08,0,.08-.1.15-.18.26-.24.13-.27.3-.28,0-.08,0-.14a2.88,2.88,0,0,0,.5-.15,1,1,0,0,1,0-.35s-.13,0-.16-.1a.31.31,0,0,1,.29.07c0-.11.16,0,.27,0,0,.18.15.09.13.24s-.4.17-.43.43c.06.07.19.07.33.06s.29.34.57.36c-.07-.19.06-.18,0-.4s-.11-.09-.11-.2.17.11.26.14,0-.18.11-.14,0-.13,0-.22-.07-.07-.11-.1a1.76,1.76,0,0,1-.3-.1c0-.07.1-.07.11-.14s-.14-.11-.14-.25h-.21c0-.11-.08-.09-.09-.17a.91.91,0,0,0-.33,0c0-.22-.26-.16-.29,0,0-.13,0-.2-.15-.22s-.36.47-.15.67h.15a1,1,0,0,1-.15.24c-.09-.08.07-.07,0-.2a.64.64,0,0,1-.27-.32c-.12,0-.11-.12-.26-.06s0,.07,0,.16.07.33,0,.39-.07-.09,0-.17-.17.13-.3.13a.66.66,0,0,1-.34-.2h.34c.13,0,0-.11,0-.22s.25-.19.43-.24a1,1,0,0,1-.07-.29h-.49c-.08.11-.24.11-.27.26l-.07-.15c-.08,0-.2,0-.17-.11.26.06.54-.12.77-.2,0,.16.29.12.34,0a1,1,0,0,0-.08-.25c-.19,0-.28.17-.49.18V52.8a.12.12,0,0,0-.16.05.13.13,0,0,0,0,.16A1.7,1.7,0,0,1,63,53c0,.18-.16.1-.17.21s.1,0,.13,0a.11.11,0,0,1-.13.07c-.06-.2-.32-.18-.57-.17a.46.46,0,0,1-.2.35c0,.11.09.12,0,.24a.86.86,0,0,0,.38-.1c-.08.18.18,0,.19.14s-.16,0-.13.07.37,0,.3.25c.13-.08.16,0,.3,0h0s.09-.12.09,0,0,0-.09,0,.14.19,0,.24,0-.06,0-.11c-.29,0-.45-.2-.8-.17-.1,0-.1-.16-.24-.18S62,54,61.89,54a.28.28,0,0,0,0-.18c-.13,0-.13.15-.26.14h-.26c-.11,0,0,.07-.08.07s0,0,0-.07-.12,0-.22,0A3.45,3.45,0,0,1,60,53.71a2.3,2.3,0,0,1-.73.18c-.07.13,0,.14.09.25s.22,0,.24.1-.12.07-.16.1-.09-.08-.17-.1a.72.72,0,0,0-.53.25c.18,0,.25.11.27.27a1.18,1.18,0,0,1,.46,0c-.17.32-.85,0-.8.6.11.09.14.1.11.29h.13c.07,0,0,.13,0,.13s0,.15.11.11a.18.18,0,0,1,.22-.12l.08,0c-.15.12-.19.33-.37.43s-.21.2-.4.2v.18c0,.08.2-.07.36,0s.14-.13.26-.14a2.22,2.22,0,0,1,.54-.56h.06s0-.12.1-.11h0s-.09.19-.13.29c.27,0,.33-.16.57-.18a1.28,1.28,0,0,0,0-.39c.15,0,.16-.08.3-.07a1.09,1.09,0,0,1,.23.25.41.41,0,0,1,.37.45.06.06,0,0,0,0,0c.17,0,0-.2.14-.21a1.82,1.82,0,0,0,.1.8c-.11.1,0,.13,0,.25s-.1,0-.07.15a5.79,5.79,0,0,0,0,1c.09,0,.15.14.24.2s.08.38.19.49,0,.07,0,.11.17.21.23.35.09.07.19,0,0-.12,0-.32h0c.07,0,0,0,0,.11a.9.9,0,0,1,.27.28.86.86,0,0,0,.13.52c.28.08.44.26.77.18a.92.92,0,0,0,.13.24h.27a.32.32,0,0,0,.16.18v.11c.2,0,.23.19.4.24s0-.13.1-.13a1.58,1.58,0,0,0,.09.31c0,.07-.08,0-.06.13s-.11.22-.13.36.13.37,0,.49.17.09.23.15-.11,0-.16.07a.4.4,0,0,0,.29.45v.17c0,.1.17.29.36.33a1.19,1.19,0,0,1,.17.49v.17a.17.17,0,0,1,0,.14c-.1.15,0,.33,0,.56a2.67,2.67,0,0,1-.17.73c-.07.23.14,0,.17,0a2.2,2.2,0,0,1-.17.25c0,.09.11,0,.07.15s0,.17,0,.27.14.36.07.57.09.27.19.34,0,.08,0,.15a.4.4,0,0,1,.2.11c.13,0,.34,0,.37-.08a.32.32,0,0,1-.44-.14h0c0-.12-.13,0-.09-.18s.09-.18.09-.31.14,0,.14-.15-.11-.08-.1-.2.23-.46,0-.49c.23,0,.22-.12.26-.25s.24-.1.38-.13,0-.23-.08-.36h.34c.07,0,0-.18.13-.17,0-.21.13-.24.2-.36V64.1c.06,0,.1-.16.16-.22a1.76,1.76,0,0,0,.3-.1c0-.22.18-.42.07-.66a.22.22,0,0,0,.07-.18h.1s.1-.16.13-.24,0-.17.1-.22,0-.13,0-.21A1,1,0,0,0,67.71,61.89Zm-1.53-5.82Zm-2.55-2.74c.1,0,0,.09,0,.14S63.61,53.35,63.63,53.33Zm-.13.18c.09,0,.11.06.23,0s-.14.14-.23.16Zm-1,.07Zm-.71,5Zm0,.07c.09,0,.07.12.13.15s-.12,0-.09-.15Z" style="fill:#2366bd"/><path d="M74.49,53.85c0-.15-.21-.2-.17-.45.24,0,.32-.19.5-.28s.31-.07.33-.25H75v.07a1.74,1.74,0,0,0-.63.21c0,.19-.16.16-.14.36s-.13.09-.13.2a3.78,3.78,0,0,0,.33.22A.1.1,0,0,1,74.49,53.85Z" style="fill:#2366bd"/><path d="M80,53.22c.07,0,.12-.16.2-.21-.13,0-.16-.16-.28-.14s0,.08,0,.07h-.2C79.65,53.19,79.9,53.11,80,53.22Z" style="fill:#2366bd"/><path d="M69.43,54.8c0-.08.13,0,.17-.11s-.07-.19-.06-.35H69.2c-.14,0-.08-.14-.19-.14s-.14.12-.14.25.09,0,.17,0-.12.07-.1.22c.17,0,.13.12.24.13S69.41,54.76,69.43,54.8Z" style="fill:#2366bd"/><path d="M64.89,54.8c-.13,0,0-.08-.13-.17s-.1-.07-.21,0,0,.22-.16.17.12.14.24.14C64.61,54.63,64.85,55,64.89,54.8Z" style="fill:#2366bd"/><path d="M70.74,56.07a.13.13,0,0,1-.13-.11c0-.11-.23-.24-.11-.42s-.1-.06-.13-.1.1,0,.1-.15a.64.64,0,0,0-.27.07v.46l.15.07c0,.12-.1.19-.15.14a.41.41,0,0,0,.06.32c-.06,0-.18,0-.17.1a2.44,2.44,0,0,1,.54,0C70.63,56.26,70.61,56.15,70.74,56.07Z" style="fill:#2366bd"/><path d="M69.84,56.21c.07,0,.2,0,.26-.07s0-.15,0-.32h-.17c0,.15-.07,0-.13.11A.25.25,0,0,0,69.84,56.21Z" style="fill:#2366bd"/><path d="M81.22,57.22c.07,0,0,.12.11.11s0-.27.19-.28c-.17,0-.27-.12-.45-.14v.38C81.1,57.35,81.1,57.21,81.22,57.22Z" style="fill:#2366bd"/><path d="M80.47,58.31c0,.13.07.16.13.22a.31.31,0,0,1,.19-.25h.11c.09-.14.32-.15.43-.28s-.07-.44-.07-.71H81.1v.42a.09.09,0,0,0,0,.07,1.29,1.29,0,0,0-.3.22c-.12,0-.32,0-.33.2s.19,0,.16.08Z" style="fill:#2366bd"/><path d="M72.35,58c0,.09.12,0,.21.1,0-.13,0-.15-.17-.14S72.38,58,72.35,58Z" style="fill:#2366bd"/><path d="M79.77,59.22a.44.44,0,0,1,.1.22c.13,0,.12-.17.13-.31S79.8,59.15,79.77,59.22Z" style="fill:#2366bd"/><path d="M64.39,59.13v.13h.13a.12.12,0,0,0-.11-.13S64.39,59.12,64.39,59.13Z" style="fill:#2366bd"/><path d="M64.76,59.29a.22.22,0,0,0,0-.16h-.1C64.61,59.25,64.63,59.32,64.76,59.29Z" style="fill:#2366bd"/><path d="M64.79,59.26v.18h.13a.14.14,0,0,0-.1-.18Z" style="fill:#2366bd"/><path d="M64.72,59.82c.12,0,.17,0,.24.07s.13,0,.23-.07c0-.23-.23-.19-.43-.2,0-.1-.07-.07-.07-.15s-.18,0-.2-.14H64c0,.07-.07.1,0,.18s.13-.12.3-.07.14.19.29.21a.73.73,0,0,0,.27,0S64.71,59.75,64.72,59.82Z" style="fill:#2366bd"/><path d="M65.06,59.44h-.14S65.09,59.56,65.06,59.44Z" style="fill:#2366bd"/><path d="M79.9,59.82a.7.7,0,0,0,.2.22c0-.11.15-.15.14-.33S79.9,59.65,79.9,59.82Z" style="fill:#2366bd"/><path d="M79.1,59.93c.1,0,.1-.13.13-.22a.15.15,0,0,0-.13,0C79,59.82,79.05,59.75,79.1,59.93Z" style="fill:#2366bd"/><path d="M64.33,59.75v.14h.24C64.69,59.89,64.47,59.75,64.33,59.75Z" style="fill:#2366bd"/><path d="M65.25,59.89c.12,0,.24,0,.2-.14h-.2Z" style="fill:#2366bd"/><path d="M68.74,59.89c0,.07-.09,0,0,.15h.13A.22.22,0,0,0,68.74,59.89Z" style="fill:#2366bd"/><path d="M80.17,60.46c.07.07.09,0,.19,0s-.07.15,0,.18a.26.26,0,0,1,.3-.15c0-.15-.11-.14-.17-.21s0-.17-.13-.17,0,.14,0,.24S80.22,60.37,80.17,60.46Z" style="fill:#2366bd"/><path d="M76.87,60.56c0,.21-.12.26,0,.35s.1-.09.17-.11A.51.51,0,0,0,76.87,60.56Z" style="fill:#2366bd"/><path d="M79.07,61.51c0,.14.17.17.16.35.22,0,.18.15.4.11,0-.09.09,0,.11-.11s-.08,0-.08,0,0-.27.17-.31c-.07-.12,0-.24,0-.33a.14.14,0,0,0,.11-.16.34.34,0,0,0-.3-.15C79.57,61.25,79.13,61.17,79.07,61.51Z" style="fill:#2366bd"/><path d="M78.44,61.26c0-.07-.15-.13-.13-.24s-.07-.07-.14-.07H78c0,.4.47.32.4.8.16,0,.2.25.36.18s0-.29,0-.46A.81.81,0,0,1,78.44,61.26Z" style="fill:#2366bd"/><path d="M80.3,61.55c0-.16-.22-.11-.26-.22-.18.14-.29.54,0,.67,0-.11,0-.18.07-.21s.07.18.19.1-.13-.19-.13-.34A.15.15,0,0,0,80.3,61.55Z" style="fill:#2366bd"/><path d="M81,61.4c-.11-.07-.37-.06-.37.11S81,61.55,81,61.4Z" style="fill:#2366bd"/><path d="M81.39,61.55h-.23s0,.1-.13.1,0-.1-.17-.07-.13,0-.09.13.08,0,.15,0a3.43,3.43,0,0,1,.47.36v.21c.18-.11.24.07.37.11s.09-.17.23-.14.17.27.3.14c-.07,0-.1-.11-.1-.21s-.21-.13-.26-.25v-.11C81.67,61.81,81.61,61.61,81.39,61.55Z" style="fill:#2366bd"/><path d="M79.63,62.35c0-.12-.11-.08-.1-.2a1.92,1.92,0,0,1-.66-.15.28.28,0,0,0-.07.21C79.13,62.22,79.27,62.4,79.63,62.35Z" style="fill:#2366bd"/><path d="M82.08,63.73V63.3c0-.18-.08-.1-.13-.14,0-.27-.24-.31-.2-.63h-.13c-.06,0,0,.5-.11.6s0-.12-.19-.07-.16,0-.13-.18.16,0,.13-.14-.46,0-.64-.1,0,.16,0,.16a1.83,1.83,0,0,0-.33.11c0,.11,0,.3-.13.33a1.2,1.2,0,0,1-.27,0c-.09,0,0,.19-.07.2s0-.11-.13,0,0,.31-.17.36-.22,0-.26.1a.77.77,0,0,1,0,.52.47.47,0,0,1,.09.18c0,.09,0,.22,0,.39.11,0,.11.08.21.07s.22-.19.46-.15a.69.69,0,0,1,.63-.16.51.51,0,0,1,.2.31c.13-.06.1.08.24,0s0,.2,0,.25a1.08,1.08,0,0,0,.66.13.76.76,0,0,1,.26-.18c0-.17.17-.15.13-.35.12,0,.1-.16.21-.16s.06-.21.07-.33a2.6,2.6,0,0,0-.11-.62C82.17,63.68,82.12,63.82,82.08,63.73Z" style="fill:#2366bd"/><path d="M74.36,62.6a.89.89,0,0,0-.14.35.56.56,0,0,0-.3.25v.24a.85.85,0,0,1-.09.22c.07.15,0,.3.09.41s.15,0,.28,0,0-.22.13-.38v-.25a2.16,2.16,0,0,1,.07-.56S74.49,62.58,74.36,62.6Z" style="fill:#2366bd"/><path d="M83.92,65c0-.1,0-.2-.1-.18v.28c0,.1-.17.1-.13.24.22,0,.07.11,0,.22.2,0,.22-.24.3-.38s.14-.08.17-.15S84.07,65,83.92,65Z" style="fill:#2366bd"/><path d="M83.5,65.41c0,.07-.1.1-.1.21a.11.11,0,0,0-.13,0,.24.24,0,0,1-.17.2.64.64,0,0,0-.22.36c.1-.06.18,0,.3,0s.13-.09.09-.25h.23c0-.2.26-.14.26-.35S83.62,65.46,83.5,65.41Z" style="fill:#2366bd"/><path d="M81.29,65.51s.11.22.14.31.26-.08.22-.31C81.52,65.54,81.35,65.46,81.29,65.51Z" style="fill:#2366bd"/><path d="M66.26,66.6h.13C66.41,66.46,66.24,66.48,66.26,66.6Z" style="fill:#2366bd"/><path d="M84.4,54.7a2.26,2.26,0,0,0,.33-4.51H81.61a2.26,2.26,0,0,0,0,4.51Z" style="fill:#e5e8ec"/><path d="M81.76,54.43h0a2,2,0,0,1-1.38-.58,2,2,0,0,1-.56-1.39,2,2,0,1,1,1.94,2Zm0-3.6a1.65,1.65,0,0,0,0,3.29h0a1.66,1.66,0,0,0,0-3.3Z" style="fill:#2366bd"/><path d="M84.35,54.43h0a2,2,0,0,1-1.94-2,1.94,1.94,0,1,1,1.94,2Zm0-3.6a1.66,1.66,0,0,0,0,3.3h0a1.66,1.66,0,0,0,0-3.3Z" style="fill:#2366bd"/><path d="M81.76,54.38h0a.65.65,0,0,1-.41-.19,2.66,2.66,0,0,1-.49-1.73c0-1.09.4-1.91.91-1.91s.9.82.9,1.91S82.3,54.38,81.76,54.38Zm0-3.51c-.25,0-.59.6-.59,1.59a2.25,2.25,0,0,0,.4,1.51.31.31,0,0,0,.18.09h0c.24,0,.59-.6.59-1.6s-.33-1.59-.57-1.59Z" style="fill:#2366bd"/><polygon points="83.55 52.63 79.98 52.62 79.98 52.3 83.55 52.31 83.55 52.63" style="fill:#2366bd"/><polygon points="83.26 51.78 80.28 51.78 80.28 51.46 83.26 51.47 83.26 51.78" style="fill:#2366bd"/><polygon points="83.25 53.47 80.28 53.46 80.28 53.15 83.25 53.15 83.25 53.47" style="fill:#2366bd"/><rect x="65.87" y="51.74" width="12.12" height="1.7" style="fill:#e5e8ec"/><rect x="57.93" y="53.47" width="4.81" height="4.47" rx="0.55" ry="0.55" style="fill:#484f59"/><path d="M62.18,53.55h-.71v.94h1.2V54a.47.47,0,0,0-.46-.47Z" style="fill:#f4da80"/><path d="M59.71,56.23V55.7H58v1h1.2a.48.48,0,0,0,.51-.45Z" style="fill:#f4da80"/><path d="M59.23,54.58H58v1h1.72v-.54a.49.49,0,0,0-.48-.48Z" style="fill:#f4da80"/><path d="M59.81,55h1.1a.56.56,0,0,1,.48-.53v-1H59.32v1A.58.58,0,0,1,59.81,55Z" style="fill:#f4da80"/><rect x="59.81" y="55.12" width="1.1" height="1.1" style="fill:#f4da80"/><path d="M60.91,56.31H59.8a.55.55,0,0,1-.48.48v1.08h2.07V56.79A.57.57,0,0,1,60.91,56.31Z" style="fill:#f4da80"/><path d="M61,56.23a.49.49,0,0,0,.48.48h1.2v-1H61Z" style="fill:#f4da80"/><path d="M61.47,54.58h0a.49.49,0,0,0-.48.48h0v.54h1.67v-1Z" style="fill:#f4da80"/><path d="M59.22,53.55h-.74A.48.48,0,0,0,58,54h0v.47h1.2Z" style="fill:#f4da80"/><path d="M58,57.35a.47.47,0,0,0,.48.48h.74V56.77H58Z" style="fill:#f4da80"/><path d="M61.47,57.87h.71a.48.48,0,0,0,.48-.48h0V56.8h-1.2Z" style="fill:#f4da80"/><rect x="64.14" y="64.29" width="10.15" height="0.62" transform="translate(-0.16 0.17) rotate(-0.14)" style="fill:#e5e8ec"/><rect x="66.18" y="62.73" width="6.05" height="0.31" transform="translate(-0.37 0.41) rotate(-0.34)" style="fill:#e5e8ec"/><rect x="57.45" y="61.88" width="1.82" height="0.31" style="fill:#e5e8ec"/><rect x="57.45" y="67.2" width="14.45" height="0.62" style="fill:#e5e8ec"/><rect x="64.79" y="60.37" width="6.4" height="0.62" style="fill:#e5e8ec"/><rect x="57.45" y="60.37" width="6.4" height="0.62" style="fill:#e5e8ec"/><rect x="72.13" y="60.37" width="6.41" height="0.62" style="fill:#e5e8ec"/><rect x="79.47" y="60.37" width="6.41" height="0.62" style="fill:#e5e8ec"/><rect x="36.11" y="27.36" width="23.45" height="47.5" rx="2.94" ry="2.94" style="fill:#cdd5d7"/><rect x="36.56" y="27.81" width="22.55" height="46.6" rx="2.94" ry="2.94" style="fill:#e5e8ec"/><path d="M49.36,30.23a.19.19,0,0,1-.19.18H46.46a.18.18,0,0,1-.19-.18h0a.19.19,0,0,1,.19-.19h2.71A.2.2,0,0,1,49.36,30.23Z" style="fill:#cdd5d7"/><rect x="46.29" y="71.32" width="3.16" height="1.35" rx="0.34" ry="0.34" style="fill:#cdd5d7"/><polygon points="36.54 34.76 36.54 34.76 35.99 34.76 35.99 34.76 35.99 32.95 35.99 32.95 36.54 32.95 36.54 32.95 36.54 34.76" style="fill:#cdd5d7"/><polygon points="36.54 39.51 36.54 39.51 35.99 39.51 35.99 39.51 35.99 36.45 35.99 36.45 36.54 36.45 36.54 36.45 36.54 39.51" style="fill:#cdd5d7"/><polygon points="36.54 43.13 36.54 43.13 35.99 43.13 35.99 43.13 35.99 40.22 35.99 40.22 36.54 40.22 36.54 40.22 36.54 43.13" style="fill:#cdd5d7"/><rect x="37.52" y="32.75" width="20.59" height="36.54" style="fill:#f99b0f"/><path d="M35.07,26.56l-2-2.07,2-2.08h4.61v4.15ZM35,24.06a.42.42,0,1,0,.42.42A.42.42,0,0,0,35,24.06Z" style="fill:#2c7eea"/><polygon points="37.36 23.4 37.03 24.09 36.28 24.2 36.82 24.73 36.7 25.49 37.36 25.13 38.02 25.49 37.89 24.73 38.43 24.2 37.69 24.09 37.36 23.4" style="fill:#fff"/><path d="M70.62,35.15a1.55,1.55,0,0,0,1.55,1.56h0l.4-.75c.86,0,1.56-1.29,1.56-2.15v-.58a1.56,1.56,0,0,0-1.56-1.56h-.4a1.55,1.55,0,0,0-1.55,1.56h0Z" style="fill:#b91e2d"/><path d="M73.82,33.18h.32a2.67,2.67,0,0,0,0,.4,2.62,2.62,0,0,0,2.7,2.2,2.65,2.65,0,1,1-3-2.6Z" style="fill:#b91e2d"/><path d="M71.24,32.26a3.23,3.23,0,0,0,0,.44,2,2,0,0,0,1.47,1.88,8.11,8.11,0,0,0,.22,1.2c.08.79,1,.88,1,.88.11.69-2.64,1.66-2.58,1.54a7,7,0,0,0,.83-1.69,1.5,1.5,0,0,0-.24-1.25,1.32,1.32,0,0,0-.91-.44.15.15,0,0,1-.13,0,.86.86,0,0,1,0-.32V33.13A1.06,1.06,0,0,1,71.24,32.26Z" style="fill:#e9d6b8"/><path d="M69.55,46.57h0a11.22,11.22,0,0,1,1-3.15A7.85,7.85,0,0,1,72,41.77c.82.45,1.62.23,2.4.81a5.93,5.93,0,0,1,.24,1c.12.66.22,1.27.3,1.86,1.2.1,4.09.32,5.19.53a1.08,1.08,0,0,1,.78.5c0,1-.91,1.65-1.44,2.5-.09.14-7,0-8.25.07C71.35,49.13,68.83,49.16,69.55,46.57Z" style="fill:#194866"/><path d="M80.42,48a4.2,4.2,0,0,0,.43-.74c.12-.48.12-.79,0-.9-.51-.43-2.26.45-6.67,7.07-1,1.44-3,4.23-2.4,3.84,1-.64,1.27-1.43,1.92-2.1C79,49.65,79.56,49,80.42,48Z" style="fill:#e2c59c"/><path d="M71.52,57l.77-1.2a.32.32,0,0,1,.32-.18l-.6,1a.43.43,0,0,0,0,.56.22.22,0,0,0,.16,0l-.17.29a.33.33,0,0,1-.44.15l0,0A.41.41,0,0,1,71.52,57Z" style="fill:#163f59"/><path d="M71.4,40.68l-1.2-2.15a1,1,0,0,1,.11-1.44,1.07,1.07,0,0,1,.38-.2l3.8-.89a1.18,1.18,0,0,1,1.09,1.29v.05l-.78,2.59Z" style="fill:#e9d6b8"/><path d="M75.11,36.45c-.51,2.4.76,6.53.76,6.53s.73.16.86-.24-.28-1.71-.55-5C76,35.78,75.17,36.06,75.11,36.45Z" style="fill:#163f59"/><path d="M70,37.41C69.62,40.29,68.83,44,68.83,44s.79.63,1,.28.63-2.12,1-5.29C71.06,37,70,37,70,37.41Z" style="fill:#163f59"/><path d="M74.5,41.51c0,.29-.22,1-.43,1l-2.25-.18c-.23,0-.78-.19-.8-.48v-1a.49.49,0,0,1,.4-.55l2.79-.78a.49.49,0,0,1,.42.52Z" style="fill:#ffab01"/><path d="M74.32,42.52a.69.69,0,0,1-.35,0l-2.15-.13c-.2,0-.35,0-.35-.09v-.12h.35l2.15.15a.61.61,0,0,1,.35.07Z" style="fill:#15100c"/><path d="M75.11,37.1a1.43,1.43,0,0,0-.17-.38,4.53,4.53,0,0,1-4.42.74v.19c0,.71.07,1.42.07,2.12s.81,1,1.2,1a7.73,7.73,0,0,0,3.09-.51c.36-.11,1-.73.85-1.2S75.28,37.75,75.11,37.1Z" style="fill:#ffab01"/><path d="M71.52,36.69s-1.33,0-1.57.73a2.86,2.86,0,0,0,.28,1.73s.43,1.31.57,2a3,3,0,0,1-.16,1.2,3.06,3.06,0,0,0,.89-.27c.51-.28.19-1.2.12-1.55a15,15,0,0,1-.34-2.11C71.37,38.24,71.52,36.69,71.52,36.69Z" style="fill:#194866"/><path d="M75.84,37s.11-.6-.18-.83A2.51,2.51,0,0,0,73.91,36a2.92,2.92,0,0,0-.52.19s1.19.35,1.19,2.4a8.62,8.62,0,0,1-.18,1.6,10.81,10.81,0,0,0-.12,1.61s.67.09.71.18a5.16,5.16,0,0,1,.48-1.33A12.29,12.29,0,0,0,75.84,37Z" style="fill:#194866"/><path d="M74.51,35.93c.56.43.91.8.92,3.17,0,.39-.1,1.08-.15,1.74l.29-.48A12,12,0,0,0,75.85,37a1.42,1.42,0,0,0-.21-.77A1.51,1.51,0,0,0,74.51,35.93Z" style="fill:#163f59"/><path d="M79.2,48.46a4.36,4.36,0,0,0,.28-.79,1.12,1.12,0,0,0-.19-.87c-.58-.54-1.89.45-4,4.79-1.07,2.18-1.92,4.22-3.35,5.39-.22.17-.27.19-.34.4a2.73,2.73,0,0,0-.08,1.36c.31-.29.89-1.2,1.66-2.21A92.9,92.9,0,0,0,79.2,48.46Z" style="fill:#e9d6b8"/><path d="M71.1,58.29,71.78,57a.33.33,0,0,1,.3-.2l-.53,1a.44.44,0,0,0,.11.55.28.28,0,0,0,.18,0l-.16.3a.34.34,0,0,1-.44.18l0,0A.46.46,0,0,1,71.1,58.29Z" style="fill:#194866"/><path d="M65.68,48.54a.93.93,0,0,0-.26.39v.65a.7.7,0,0,0,.14-.36A2,2,0,0,1,65.68,48.54Z" style="fill:#e2c59c"/><path d="M65.52,48.89a.79.79,0,0,0-.21.64.43.43,0,0,1-.15.37,5.81,5.81,0,0,1,0-.59V49C65.34,48.58,66,48.57,65.52,48.89Z" style="fill:#e2c59c"/><path d="M65.9,48.31c0,.14-.11.37-.06.45a.75.75,0,0,0,.25.31c-.29.09-.46-.3-.63-.38S65.84,48,65.9,48.31Z" style="fill:#e9d6b8"/><path d="M67,47.05a4.68,4.68,0,0,0-1.07,1c-.21.38-.15.68-.39.87l0,.07c-.06,0-.14.12-.16.16s-.09.13-.08.08a3.85,3.85,0,0,1,.26-1.05,12.07,12.07,0,0,1,1.33-1.44C67.25,46.38,67.57,46.57,67,47.05Z" style="fill:#e9d6b8"/><path d="M65.52,48.86a.08.08,0,0,0-.14,0,1.6,1.6,0,0,0-.3.42,4.69,4.69,0,0,1-.21.61.7.7,0,0,0,.23-.31A2.84,2.84,0,0,1,65.52,48.86Z" style="fill:#e9d6b8"/><path d="M67.33,46.08c.36,0,1.2-.57,1.32-.39a14.17,14.17,0,0,1-3,2.3Z" style="fill:#e9d6b8"/><path d="M67.12,46.57a.33.33,0,0,1,.21.34c.64-.47,2.4-1.85,2.59-2.75,0-.28-.48-1-1.3,0a10.84,10.84,0,0,0-1.69,2.4A.41.41,0,0,1,67.12,46.57Z" style="fill:#163f59"/><path d="M78,38.18a.1.1,0,0,0,.14,0,1.51,1.51,0,0,0,0-.52c0-.1-.1-.64-.1-.64a.86.86,0,0,0,0,.39A2.48,2.48,0,0,1,78,38.18Z" style="fill:#e2c59c"/><path d="M78,38.08a.83.83,0,0,0-.11-.67.44.44,0,0,1,0-.39,2.24,2.24,0,0,1,.26.54,1,1,0,0,1,.09.34C78.18,38.26,77.78,38.56,78,38.08Z" style="fill:#e2c59c"/><path d="M76.14,42.52a8.93,8.93,0,0,1,1.37-3s.74-.65-.49,2.49C76.61,43,76.15,42.71,76.14,42.52Z" style="fill:#e9d6b8"/><path d="M78,37.86h.1l.07.34a3.53,3.53,0,0,1-.25.84,12.73,12.73,0,0,0-.38,1.34c0,.11-.61.14-.61.14s.39-.93.52-1.31a8.25,8.25,0,0,0,.17-1.2c0-.13.07-.26.1-.39s.13.06,0,.48c0,.1.1.07.1.07Z" style="fill:#e9d6b8"/><path d="M78,38.3a.94.94,0,0,0,0-.47,2.65,2.65,0,0,0-.31-.57.63.63,0,0,0,.07.38A1.94,1.94,0,0,1,78,38.3Z" style="fill:#e9d6b8"/><path d="M77.87,38.18h-.12s0,.06,0,.08v.42a2,2,0,0,1,.09-.33,1,1,0,0,0,0-.24h0Z" style="fill:#e2c59c"/><path d="M77.76,38.18a.66.66,0,0,0,0-.44.74.74,0,0,1-.08.31.76.76,0,0,0,0,.3.42.42,0,0,1,.14.26,1.31,1.31,0,0,0,.07-.35C77.89,38.12,77.75,38.24,77.76,38.18Z" style="fill:#e2c59c"/><path d="M77.17,41.46c0-.11-.61-.26-.72-.07l-.09.13s-.79,1.2-.16,1.51C76.2,43,76.94,43.1,77.17,41.46Z" style="fill:#163f59"/><rect x="73.16" y="45.87" width="6.64" height="0.13" style="fill:#cdd5d7"/><path d="M76.08,45.86a.19.19,0,0,0,.17.19h3.4c.1,0,.23,0,.34-.33l1.68-3.07c0-.13-.1-.22-.2-.19L78,42.57a.32.32,0,0,0-.23.22Z" style="fill:#cdd5d7"/><path d="M76.5,46H73.13a1.33,1.33,0,0,0,.55.09h5.6a1.23,1.23,0,0,0,.54-.09Z" style="fill:#b7bec0"/><g style="opacity:0.6000000238418579"><g style="clip-path:url(#a)"><rect x="35.25" y="43.88" width="1.59" height="0.52" style="fill:#eed2ce"/><rect x="35.25" y="51.13" width="1.59" height="0.52" style="fill:#eed2ce"/><rect x="36.7" y="40.7" width="35.42" height="27.2" style="fill:#eed2ce"/><rect x="36.7" y="40.56" width="35.42" height="0.9" style="fill:#c49189"/><rect x="64.54" y="44.04" width="5.24" height="5.93" style="fill:#ffebe8"/><rect x="58.17" y="44.04" width="5.24" height="5.93" style="fill:#ffebe8"/><rect x="51.79" y="44.04" width="5.24" height="5.93" style="fill:#ffebe8"/><rect x="45.42" y="44.04" width="5.24" height="5.93" style="fill:#ffebe8"/><rect x="39.03" y="44.04" width="5.24" height="5.93" style="fill:#ffebe8"/><polygon points="62.61 53.03 63.4 53.03 69.78 53.03 69.78 65.32 63.4 65.32 62.61 65.32 58.17 65.32 58.17 53.03 62.61 53.03" style="fill:#ffebe8"/><polygon points="63.4 53.03 69.78 53.03 69.78 55.35 58.17 55.35 58.17 53.03 62.61 53.03 63.4 53.03" style="fill:#eed2ce"/><polygon points="62.53 53.03 63.37 53.03 70.15 53.03 70.15 53.6 63.37 53.6 62.53 53.6 57.81 53.6 57.81 53.03 62.53 53.03" style="fill:#c49189"/><polygon points="62.53 64.73 63.37 64.73 70.15 64.73 70.15 65.32 63.37 65.32 62.53 65.32 57.81 65.32 57.81 64.73 62.53 64.73" style="fill:#e0b6af"/><polygon points="43.48 53.03 44.28 53.03 50.65 53.03 50.65 65.32 44.28 65.32 43.48 65.32 39.03 65.32 39.03 53.03 43.48 53.03" style="fill:#ffebe8"/><polygon points="44.28 53.03 50.65 53.03 50.65 55.35 39.03 55.35 39.03 53.03 43.48 53.03 44.28 53.03" style="fill:#eed2ce"/><polygon points="43.39 53.03 44.24 53.03 51.01 53.03 51.01 53.6 44.24 53.6 43.39 53.6 38.67 53.6 38.67 53.03 43.39 53.03" style="fill:#c49189"/><polygon points="43.39 64.73 44.24 64.73 51.01 64.73 51.01 65.32 44.24 65.32 43.39 65.32 38.67 65.32 38.67 64.73 43.39 64.73" style="fill:#e0b6af"/><polygon points="33.46 42.97 33.7 42.97 35.61 42.97 35.61 52.56 33.7 52.56 33.46 52.56 32.12 52.56 32.12 42.97 33.46 42.97" style="fill:#ededed"/><rect x="51.79" y="53.03" width="5.24" height="14.09" style="fill:#e0b6af"/><rect x="52.31" y="61.35" width="4.22" height="0.29" style="fill:#c49189"/><rect x="52.31" y="62.19" width="4.22" height="0.29" style="fill:#c49189"/><rect x="50.65" y="67.14" width="7.51" height="1.13" style="fill:#ffebe8"/><rect x="51.79" y="53.03" width="5.24" height="2.32" style="fill:#c49189"/><rect x="35.75" y="67.9" width="37.34" height="1.68" style="fill:#e0b6af"/><rect x="35.75" y="39.14" width="37.34" height="1.68" style="fill:#e0b6af"/></g></g><path d="M46,69.41h6.95c1.34,0,1.46-1.9.93-2.18-1.61-.87-6.61-1.32-6.61-1.32L43.82,69Z" style="fill:#3c463b"/><path d="M50.69,59.16s1.28-.36,1.84,1.33A12.87,12.87,0,0,1,53.21,66c0,.22-.23,1-1.67,1.06-.59,0-.35-1.2-.35-1.2A27.4,27.4,0,0,1,50.41,63,8,8,0,0,1,50.69,59.16Z" style="fill:#2771d1"/><path d="M51.71,59.32,48.4,58.24l-2.5-.17-2.75.84s-.9.61-.07,2.6a12.63,12.63,0,0,1,.51,5.11l7.09.22a55.66,55.66,0,0,1,.6-5.76A4.15,4.15,0,0,1,51.71,59.32Z" style="fill:#2c7eea"/><path d="M46.85,66.71h.36a29.48,29.48,0,0,0,0-8.39l-.32.19C46.91,61.31,46.76,64.15,46.85,66.71Z" style="fill:#2771d1"/><path d="M48.26,59a.82.82,0,0,1-.71.73h-.94a.83.83,0,0,1-.68-.73c-.08-.63-.15-1.2-.23-1.9a1.45,1.45,0,0,1,.65-1.35,1.78,1.78,0,0,1,1.43,0,1.44,1.44,0,0,1,.67,1.35C48.41,57.76,48.33,58.39,48.26,59Z" style="fill:#e2c59c"/><polygon points="47.06 59.8 46.47 60.77 45.38 59.41 45.55 58.69 45.91 58.41 45.91 58.95 47.06 59.8" style="fill:#2771d1"/><polygon points="47.13 59.8 47.73 60.77 48.74 59.51 48.57 58.73 48.32 58.41 48.22 59.04 47.13 59.8" style="fill:#2771d1"/><path d="M47,54.57a.76.76,0,0,0-.6.39H46.1a.57.57,0,0,0-.59.56h0V57h.41v-.59a.41.41,0,0,1,.41-.41h.12a.74.74,0,0,0,.74-.74v-.61Z" style="fill:#163f59"/><path d="M46.23,57.45a.35.35,0,0,1-.33.36h0a.36.36,0,0,1-.36-.36V57a.36.36,0,0,1,.36-.35h0a.37.37,0,0,1,.33.2" style="fill:#e2c59c"/><path d="M46.64,55.14v-.57h1.2a.75.75,0,0,1,.75.75v.56h-1.2a.74.74,0,0,1-.75-.73Z" style="fill:#163f59"/><path d="M48.51,58a1.2,1.2,0,0,1-.6,1,2.29,2.29,0,0,1-1.63,0,1.21,1.21,0,0,1-.61-1V55.46a.62.62,0,0,1,.68-.5h1.51a.62.62,0,0,1,.66.55Z" style="fill:#e9d6b8"/><path d="M47.38,54.57a.73.73,0,0,1,.62.34h.27a.57.57,0,0,1,.57.57v1.44h-.4v-.59a.41.41,0,0,0-.41-.4h-.48a.75.75,0,0,1-.74-.75v-.61Z" style="fill:#163f59"/><path d="M48.11,57a.35.35,0,0,1,.35-.35h0a.35.35,0,0,1,.35.35h0v.43a.36.36,0,0,1-.34.36h0a.35.35,0,0,1-.32-.22" style="fill:#e9d6b8"/><path d="M46.76,55.28v-.71h-.53a.75.75,0,0,0-.75.75v.56h.68A.77.77,0,0,1,46.76,55.28Z" style="fill:#163f59"/><path d="M40.19,79c-.08.1,0,.35,0,.35a8.92,8.92,0,0,0,1.79,0,2.62,2.62,0,0,0,.48-.23.64.64,0,0,1,.12-.14s.08,0,.13,0l.2-.14a1.21,1.21,0,0,0,0-.88s-1.2-.38-1.36-.11A8.72,8.72,0,0,1,40.19,79Z" style="fill:#161711"/><path d="M52.81,78.32l.1,1,1,.11s.08-.14.16-.13.16.15.25.17h.55l2,.2s.07-.2,0-.29a.89.89,0,0,0-.31-.15c-.5-.21-2-.82-2.18-1.35S52.81,78.32,52.81,78.32Z" style="fill:#161711"/><path d="M51.26,65.41l-3.45,1.41a14.73,14.73,0,0,0,4,0C52.83,66.64,51.31,65.37,51.26,65.41Z" style="fill:#e9d6b8"/><path d="M43.43,67.56s-.34,3.15-.29,4.8a36.33,36.33,0,0,1-.25,5.71,6.35,6.35,0,0,1-1.63,0s-.58-7.81-.74-9.11S40.84,66.81,43.43,67.56Z" style="fill:#3c463b"/><path d="M53.54,68.32a2.69,2.69,0,0,1-1.94,1c-.5.08.83,9.16.83,9.16l2.11-.67-.41-10Z" style="fill:#323b31"/><path d="M47.74,69.34s-2.74.39-4.56.58c-.68.07-1.26-1.81-1.33-1.89a1.52,1.52,0,0,0-1-.47c.39-.42,2.39-.82,4.59-1.33S48,66.05,48,66.05Z" style="fill:#323b31"/><path d="M45.48,66.22c-2.15.5-4.2.91-4.59,1.33a1.52,1.52,0,0,1,1,.47s.14.62.22.84c-.34-.63,4.7-2.4,5.79-2.87A5.48,5.48,0,0,0,45.48,66.22Z" style="fill:#3c463b"/><polygon points="43.13 69.3 42.91 75.44 42.71 76.86 42.68 75.44 42.73 74.56 42.24 73.18 41.98 69.98 42.35 70.13 42.31 68.72 43.13 69.3" style="fill:#323b31"/><path d="M53.46,67.55l.51.14.19,7.37L53.09,77.7l.51-1.8-.21-3.7s-.75,1.8-.75,1.7.64-3.89.64-3.89a6.75,6.75,0,0,0-.64.56A14.36,14.36,0,0,1,53.46,67.55Z" style="fill:#3c463b"/><path d="M44.66,58.93s-1.1-.86-2.18.75A21.52,21.52,0,0,0,40,65.25,3.46,3.46,0,0,0,40.53,68c.15.15,1.09,0,1.09,0l.61-.42L42,67.11v-.4s.79-1.88,1.74-3.68A9.85,9.85,0,0,0,44.66,58.93Z" style="fill:#2c7eea"/><path d="M42,66.11l3.59.19S42.11,67.89,42,67.61C41.34,66.06,42,66.11,42,66.11Z" style="fill:#e9d6b8"/><path d="M44,66l.2-.09a.77.77,0,0,0,.46.26h1.76c.05,0,0,.16,0,.16l-1.19.17,1.19.13s.15,0,.15.12v.07L45.2,67l.58.15s.13,0,.14.1a.2.2,0,0,0,0,.11l-1.2-.12S43.73,66.11,44,66Z" style="fill:#e9d6b8"/><path d="M45.25,66.74l.79.14a.56.56,0,0,1,.31.06.1.1,0,0,1,0,.15h0l-1.2-.1Z" style="fill:#e9d6b8"/><path d="M50.22,67.36h0v-.23h-7v.23h0a.62.62,0,0,0,.57.23H49.6a.62.62,0,0,0,.57-.23Z" style="fill:#b6c2c9"/><rect x="44.36" y="67.18" width="4.67" height="0.16" style="fill:#879ba6"/><path d="M50.22,67.15V62.53a.21.21,0,0,0-.21-.22H43.42a.22.22,0,0,0-.22.22h0v4.62Z" style="fill:#e4eef3"/><path d="M47.13,64.73a.43.43,0,0,1-.5.36.42.42,0,0,1-.35-.36.43.43,0,0,1,.43-.43h0a.41.41,0,0,1,.42.4Z" style="fill:#b6c2c9"/><polygon points="41.51 67.91 41.26 66.34 41.67 65.92 42.56 66.06 42.38 67.8 41.51 67.91" style="fill:#2771d1"/><polygon points="52.47 66.78 52.57 66.21 51.43 65.18 50.81 65.45 51.62 67 52.47 66.78" style="fill:#2c7eea"/><path d="M30.84,38.18v3c0,.79.94,1.44,2.1,1.44s2.11-.65,2.11-1.44v-3Z" style="fill:#ff8b5d"/><path d="M35.05,38.18v3c0,.79,1,1.44,2.11,1.44s2.11-.65,2.11-1.44v-3Z" style="fill:#fff"/><path d="M39.27,38.18v3c0,.79.93,1.44,2.1,1.44s2.11-.65,2.11-1.44v-3Z" style="fill:#ff8b5d"/><path d="M43.48,38.18v3c0,.79.94,1.44,2.1,1.44s2.1-.65,2.1-1.44v-3Z" style="fill:#fff"/><path d="M47.68,38.18v3c0,.79,1,1.44,2.11,1.44s2.11-.65,2.11-1.44v-3Z" style="fill:#ff8b5d"/><path d="M51.9,38.18v3c0,.79.93,1.44,2.11,1.44s2.1-.65,2.1-1.44v-3Z" style="fill:#fff"/><path d="M56.11,38.18v3c0,.79.94,1.44,2.1,1.44s2.11-.65,2.11-1.44v-3Z" style="fill:#ff8b5d"/><path d="M60.32,38.18v3c0,.79.94,1.44,2.1,1.44s2.11-.65,2.11-1.44v-3Z" style="fill:#fff"/><path d="M36.92,33.47l-6.08,4.71h4.21c1.53-1.6,3-3.16,4.55-4.7Z" style="fill:#ef8357"/><path d="M39.6,33.47c-1.51,1.6-3,3.16-4.55,4.7h4.22l3-4.7Z" style="fill:#d5e1f2"/><path d="M42.3,33.47l-3,4.71h4.21q.75-2.34,1.52-4.7Z" style="fill:#ef8357"/><path d="M45,33.47c-.51,1.57-1,3.14-1.52,4.71h4.2V33.47Z" style="fill:#d5e1f2"/><path d="M47.68,33.47v4.71H51.9c-.5-1.56-1-3.13-1.52-4.7Z" style="fill:#ef8357"/><path d="M50.38,33.47c.5,1.57,1,3.14,1.52,4.7h4.21l-3-4.7Z" style="fill:#d5e1f2"/><path d="M53.07,33.47l3,4.71h4.21l-4.56-4.7Z" style="fill:#ef8357"/><path d="M60.32,38.18h4.21l-6.08-4.71H55.76Z" style="fill:#d5e1f2"/><rect x="36.9" y="32.5" width="2.7" height="0.97" style="fill:#ef8357"/><rect x="39.59" y="32.5" width="2.7" height="0.97" style="fill:#fff"/><rect x="42.29" y="32.5" width="2.7" height="0.97" style="fill:#ef8357"/><rect x="44.98" y="32.5" width="2.7" height="0.97" style="fill:#fff"/><rect x="47.68" y="32.5" width="2.7" height="0.97" style="fill:#ef8357"/><rect x="50.39" y="32.5" width="2.7" height="0.97" style="fill:#fff"/><rect x="53.09" y="32.5" width="2.7" height="0.97" style="fill:#ef8357"/><rect x="55.78" y="32.5" width="2.7" height="0.97" style="fill:#fff"/><path d="M88.29,77.12v0Z" style="fill:#ffc910"/><path d="M99.42,75.21v1.48c0,.49-.47.79-1.51,1.2a20.2,20.2,0,0,1-8.65.46c-1.36-.28-2.07-.69-2.09-1.13V75.73c0,.44.71.86,2.08,1.12a20.29,20.29,0,0,0,8.63-.52C99,76,99.45,75.59,99.42,75.21Z" style="fill:#ffab01"/><path d="M97.34,74.13c2.54.5,2.8,1.51.57,2.25a20.2,20.2,0,0,1-8.65.46c-2.54-.49-2.8-1.5-.57-2.26A20.21,20.21,0,0,1,97.34,74.13ZM90,76.53a16.79,16.79,0,0,0,7.19-.39c1.84-.62,1.63-1.45-.48-1.86a16.63,16.63,0,0,0-7.19.38c-1.85.62-1.63,1.45.48,1.87" style="fill:#ffc910"/><path d="M96.68,74.32c2.11.41,2.33,1.2.48,1.86a16.63,16.63,0,0,1-7.19.38c-2.11-.42-2.32-1.2-.48-1.87A16.79,16.79,0,0,1,96.68,74.32Z" style="fill:#ffab01"/><path d="M89.49,74.88a16.63,16.63,0,0,1,7.19-.38c1,.2,1.63.52,1.73.85.09-.41-.48-.79-1.73-1a16.79,16.79,0,0,0-7.19.37c-.92.31-1.33.69-1.2,1C88.29,75.42,88.72,75.14,89.49,74.88Z" style="fill:#f99b0f"/><path d="M94.61,75.76c.17.14,0,.31-.37.44a5.82,5.82,0,0,1-1.9.22c-.22,0-.45,0-.67-.07h-.36l-.48-.1.21-.06-.35,0h-.25L90,76.05h.2L89.81,76l.46-.14h.33l1.4-.47.5-.16,1.2-.4-.34-.07.46-.15h.5l.57.12-.2.06h.5l.58.11-.2.07c.68.14.75.41.15.61A4.19,4.19,0,0,1,94.61,75.76Zm-2.08.45a3.09,3.09,0,0,0,1.13-.12c.38-.12.35-.3-.1-.38l-1-.2h0L91.2,76l1,.21a2.16,2.16,0,0,0,.36,0M94.24,75l-1.15.36.91.18h.3a3,3,0,0,0,1-.1c.32-.12.29-.26-.09-.33l-.91-.14h0" style="fill:#f99b0f"/><path d="M94.61,75.57c.17.14,0,.31-.37.45a6.1,6.1,0,0,1-1.9.21,5.1,5.1,0,0,1-.67-.08h-.36l-.48-.08L91,76h-.6L90,75.9l.2-.07-.35-.06.46-.16h.33l1.4-.46.5-.17,1.2-.41-.34-.06.46-.15h.5l.57.1-.2.08h.5l.58.1h-.2c.68.15.75.41.15.62A4.83,4.83,0,0,1,94.61,75.57ZM92.53,76a3.6,3.6,0,0,0,1.13-.12c.38-.13.35-.3-.1-.39l-1-.19h0l-1.35.45,1,.19h.36m1.66-1.19-1.2.38.91.18h.33a3.31,3.31,0,0,0,1-.11c.32-.11.28-.26-.09-.34l-.9-.12h0" style="fill:#ffca10"/><path d="M87.76,76.32v1.46a6.2,6.2,0,0,0,1.56.51,14.58,14.58,0,0,0,2.28.24V77a17.59,17.59,0,0,1-2.4-.25A6.22,6.22,0,0,1,87.76,76.32Z" style="fill:#f99b0f"/><path d="M88.84,75.33v0Z" style="fill:#ffc910"/><path d="M100,73.45v1.49c0,.51-.48.78-1.51,1.13a20.38,20.38,0,0,1-8.65.46c-1.37-.27-2.08-.69-2.09-1.13V73.91c0,.45.72.85,2.09,1.12a20.06,20.06,0,0,0,8.65-.46C99.51,74.22,100,73.83,100,73.45Z" style="fill:#ffab01"/><path d="M97.88,72.33c2.55.49,2.8,1.5.57,2.24A20.06,20.06,0,0,1,89.8,75c-2.54-.49-2.8-1.5-.57-2.24A19.9,19.9,0,0,1,97.88,72.33ZM90.5,74.8a16.64,16.64,0,0,0,7.19-.38c1.84-.61,1.63-1.45-.48-1.86a16.78,16.78,0,0,0-7.19.37c-1.85.62-1.63,1.46.48,1.87" style="fill:#ffc910"/><path d="M97.21,72.56c2.11.41,2.32,1.2.48,1.86a16.64,16.64,0,0,1-7.19.38c-2.11-.41-2.33-1.2-.48-1.87A16.78,16.78,0,0,1,97.21,72.56Z" style="fill:#ffab01"/><path d="M90,73.12a16.64,16.64,0,0,1,7.19-.38c1.06.2,1.63.51,1.73.85.11-.41-.48-.79-1.73-1a16.79,16.79,0,0,0-7.19.37c-.92.31-1.33.68-1.2,1C88.88,73.66,89.29,73.37,90,73.12Z" style="fill:#f99b0f"/><path d="M95.18,74c.16.14,0,.31-.38.45a6.07,6.07,0,0,1-1.89.21,4.58,4.58,0,0,1-.66-.08h-.37l-.48-.09h.2l-.35-.07H91l-.48-.09.2-.07-.33-.06.45-.16h.34l1.4-.46.49-.17,1.2-.4L93.94,73l.45-.15h.49l.6.13h.3l.58.12h-.21c.7.13.76.41.16.61A4.91,4.91,0,0,1,95.18,74Zm-2.09.46a3,3,0,0,0,1.12-.13c.4-.12.35-.3-.09-.38l-1-.19h0l-1.36.44,1,.2h.36m1.65-1.27-1.2.4.92.17h.3a3,3,0,0,0,1-.1c.32-.11.29-.26-.09-.33l-.91-.18h0" style="fill:#f99b0f"/><path d="M95.18,73.81c.16.14,0,.32-.38.45a5.79,5.79,0,0,1-1.89.22,3.5,3.5,0,0,1-.66-.09h-.36l-.48-.09.2-.08h-.68l-.48-.09h.24l-.34-.07.46-.16h.33l1.41-.47.54-.14,1.19-.36L94,72.86l.45-.16h.49l.57.11-.21.07h.51l.57.11-.2.07c.69.13.75.41.16.6A4.18,4.18,0,0,1,95.18,73.81Zm-2.09.46a3.19,3.19,0,0,0,1.19-.14c.4-.13.35-.3-.09-.38l-1.1-.18h0L91.73,74l1,.2h.36M94.76,73l-1.2.38.92.18h.3a3,3,0,0,0,1-.11c.32-.11.29-.25-.09-.32l-.91-.18h0" style="fill:#ffca10"/><path d="M88.29,74.56V76a5.39,5.39,0,0,0,1.56.51,17.28,17.28,0,0,0,2.28.25V75.33a16,16,0,0,1-2.4-.25A5.78,5.78,0,0,1,88.29,74.56Z" style="fill:#f99b0f"/><path d="M88.29,73.3v0Z" style="fill:#ffc910"/><path d="M99.42,71.38v1.5c0,.51-.47.78-1.51,1.13a20.2,20.2,0,0,1-8.65.45c-1.36-.26-2.07-.68-2.09-1.12V71.85c0,.43.71.85,2.08,1.12a20.28,20.28,0,0,0,8.63-.46C99,72.16,99.45,71.73,99.42,71.38Z" style="fill:#ffab01"/><path d="M97.34,70.26c2.54.5,2.8,1.51.57,2.25a20.2,20.2,0,0,1-8.65.46c-2.54-.49-2.8-1.5-.57-2.24A19.91,19.91,0,0,1,97.34,70.26ZM90,72.74a16.64,16.64,0,0,0,7.19-.38c1.82-.63,1.6-1.45-.47-1.83a16.79,16.79,0,0,0-7.19.38c-1.84.62-1.63,1.46.48,1.86" style="fill:#ffc910"/><path d="M96.68,70.53c2.11.41,2.33,1.2.48,1.86a16.63,16.63,0,0,1-7.19.38c-2.11-.4-2.32-1.19-.48-1.86A16.79,16.79,0,0,1,96.68,70.53Z" style="fill:#ffab01"/><path d="M89.49,71.06a16.63,16.63,0,0,1,7.19-.38c1,.2,1.63.51,1.73.85.09-.41-.48-.79-1.73-1a16.79,16.79,0,0,0-7.19.37c-.92.31-1.33.68-1.2,1C88.29,71.6,88.72,71.31,89.49,71.06Z" style="fill:#f99b0f"/><path d="M94.61,71.94c.17.14,0,.31-.37.45a5.81,5.81,0,0,1-1.9.2,5.08,5.08,0,0,1-.67-.07h-.36l-.48-.09H91l-.35-.11h-.25L90,72.24l.2-.08-.35-.06.46-.15h.33l1.4-.47.5-.17,1.2-.39-.34-.06.46-.16h.5l.57.11h.3l.58.12h-.2c.68.13.75.41.15.61A4.91,4.91,0,0,1,94.61,71.94Zm-2.08.45a3.09,3.09,0,0,0,1.13-.12c.38-.12.35-.3-.1-.38l-1-.16h0l-1.35.45,1,.2a2.16,2.16,0,0,0,.36,0m1.66-1.2-1.2.4.91.16a.92.92,0,0,0,.33,0,2.76,2.76,0,0,0,1-.09c.32-.11.28-.27-.09-.34l-.9-.18h0" style="fill:#f99b0f"/><path d="M94.61,71.73c.17.15,0,.31-.37.46a5.81,5.81,0,0,1-1.9.21,3.07,3.07,0,0,1-.67-.08h-.39l-.48-.1.2-.07h-.6l-.48-.09h.21L89.78,72l.45-.15h.34L92,71.36l.5-.17,1.2-.39-.33-.07.45-.16h.5l.58.11-.2.07h.5l.57.11-.2.07c.68.13.75.41.16.6A4.47,4.47,0,0,1,94.61,71.73Zm-2.08.47a3.33,3.33,0,0,0,1.13-.12c.38-.13.35-.3-.1-.38l-1-.21h0L91.2,72l1,.19h.36m1.66-1.26-1.2.38.91.18h.3a3.24,3.24,0,0,0,1-.1c.32-.11.29-.25-.08-.34l-.87-.06h0" style="fill:#ffca10"/><path d="M87.76,72.5V74a5.17,5.17,0,0,0,1.56.5,15.92,15.92,0,0,0,2.28.26v-1.5A17.59,17.59,0,0,1,89.2,73,5.65,5.65,0,0,1,87.76,72.5Z" style="fill:#f99b0f"/><path d="M88.84,71.54v0Z" style="fill:#ffc910"/><path d="M100,69.62v1.5c0,.5-.48.78-1.51,1.13a20.22,20.22,0,0,1-8.65.45c-1.37-.26-2.08-.68-2.09-1.12V70.09c0,.44.72.85,2.09,1.11a19.76,19.76,0,0,0,8.65-.45C99.51,70.41,100,70,100,69.62Z" style="fill:#ffab01"/><path d="M97.88,68.51c2.55.49,2.8,1.5.57,2.24a19.75,19.75,0,0,1-8.65.45c-2.54-.49-2.8-1.49-.57-2.24A19.9,19.9,0,0,1,97.88,68.51ZM90.5,71a16.79,16.79,0,0,0,7.19-.37c1.84-.63,1.63-1.47-.48-1.87a16.63,16.63,0,0,0-7.19.38c-1.85.61-1.63,1.45.48,1.86" style="fill:#ffc910"/><path d="M97.21,68.74c2.11.4,2.32,1.19.48,1.87A16.79,16.79,0,0,1,90.5,71c-2.11-.41-2.33-1.2-.48-1.86A16.63,16.63,0,0,1,97.21,68.74Z" style="fill:#ffab01"/><path d="M90,69.34A16.48,16.48,0,0,1,97.23,69c1.06.21,1.63.51,1.73.84.11-.39-.48-.79-1.73-1a16.64,16.64,0,0,0-7.19.39c-.92.31-1.33.67-1.2,1C88.88,69.85,89.29,69.55,90,69.34Z" style="fill:#f99b0f"/><path d="M95.18,70.17c.16.15,0,.32-.38.46a5.78,5.78,0,0,1-1.89.2,4.6,4.6,0,0,1-.66-.07h-.37l-.48-.08.2-.07h-.67l-.48-.08.2-.07-.33-.06.45-.15h.34l1.4-.46.49-.17,1.2-.4-.34-.06.46-.16h.49l.56.11-.2.07h.5l.58.11h-.2c.69.14.75.41.15.61A4.52,4.52,0,0,1,95.18,70.17Zm-2.09.47a3.42,3.42,0,0,0,1.19-.11c.4-.13.35-.31-.09-.39l-1.1-.21h0l-1.36.46,1,.19h.36m1.65-1.2-1.2.39.92.18h.3a3.24,3.24,0,0,0,1-.11c.32-.11.29-.26-.09-.34l-.87-.16h0" style="fill:#f99b0f"/><path d="M95.18,70c.16.15,0,.33-.38.46a5.78,5.78,0,0,1-1.89.21,3.5,3.5,0,0,1-.66-.12h-.36l-.48-.09h.2l-.35-.07h0l-.15.06H91l-.48-.1h.21l-.34-.07.46-.15h.33l1.4-.46.5-.17,1.19-.4L94,69l.45-.14h.49l.57.12h.14l.16-.06h0l.57.11-.2.07c.69.13.75.41.15.61A4.52,4.52,0,0,1,95.18,70Zm-2.09.47a3,3,0,0,0,1.12-.12c.4-.13.35-.3-.09-.38l-1-.21h0l-1.36.46,1,.2h.36m1.65-1.26-1.2.39.92.18a1.5,1.5,0,0,0,.3,0,3,3,0,0,0,1-.11c.32-.11.29-.25-.09-.32l-.91-.18h0" style="fill:#ffca10"/><path d="M88.29,70.74V72.2a5.08,5.08,0,0,0,1.56.5,14.46,14.46,0,0,0,2.28.25V71.46a13.77,13.77,0,0,1-2.4-.26A5.26,5.26,0,0,1,88.29,70.74Z" style="fill:#f99b0f"/><path d="M90,60a2.14,2.14,0,1,0,1.35-2.88,1.93,1.93,0,0,0-.38.19A2,2,0,0,0,90,60Z" style="fill:#282723"/><path d="M88.93,62.53a2.6,2.6,0,1,0,1.25-3.46l-.05,0a2.56,2.56,0,0,0-1.22,3.4Z" style="fill:#282723"/><path d="M91.08,65.31s.09.33-1.54.74a31.47,31.47,0,0,1-4.1.63L89,65.37S90.51,64.94,91.08,65.31Z" style="fill:#e2c59c"/><path d="M86.75,66.47a2.68,2.68,0,0,0-1.2.9,4,4,0,0,0-.53.47c.08-.37.32-.46.42-.6s.07-.07-.2,0-.35.38-.51.59a.55.55,0,0,1-.24.21,3.64,3.64,0,0,1,.32-.62,4.42,4.42,0,0,1,.61-.76,3.34,3.34,0,0,1,1-.32C86.83,66.27,87.3,66.3,86.75,66.47Z" style="fill:#e2c59c"/><path d="M85.42,66.66a5.31,5.31,0,0,0-.63.42,3,3,0,0,1-.26.48.83.83,0,0,0,.3-.26A7,7,0,0,1,85.42,66.66Z" style="fill:#e2c59c"/><path d="M90.19,64.82s1.49-.28,1.7.56a.73.73,0,0,1-.53.87l-.13,0c-.85.17-1.82.32-1.82.32l-.82-1.2Z" style="fill:#b0bfde"/><path d="M90.1,64.06,90.52,60s0-1.08.36-1.05.66,1,.71,1.29a11.92,11.92,0,0,1,.24,2.66v3c0,.49-.53,0-1-.11C89.87,65.62,90.1,64.06,90.1,64.06Z" style="fill:#b0bfde"/><polygon points="81.07 75.59 79.69 78.58 77.78 78.62 76.82 78.42 78.9 77.93 80 75.16 81.07 75.59" style="fill:#e9d6b8"/><path d="M79.48,79h-.25l-.14-.3H77.54l-1.2-.23a.13.13,0,0,1,.09-.12,5.34,5.34,0,0,1,1.2-.17s-.11.26,0,.32a8.36,8.36,0,0,0,1.58-.06c.49,0,.74-.19.72-.12C79.79,78.59,79.64,78.82,79.48,79Z" style="fill:#194866"/><path d="M88.68,69.54l-4.5-.12-3.34,7.32-1.39-.54,3.27-8.82s.25-.56,1.61-.56,6.66-.14,7.26,0C93.09,67.24,88.44,68.32,88.68,69.54Z" style="fill:#194866"/><path d="M91.89,57.35a2,2,0,0,0,3.72-1.72,2.06,2.06,0,0,0-2.73-1h0A2,2,0,0,0,91.89,57.35Z" style="fill:#282723"/><path d="M89.78,56.71a1.53,1.53,0,0,0,2,.71h0v-.82a1.56,1.56,0,0,0,.71-2.07L92.29,54a1.55,1.55,0,0,0-2.07-.72l-.33.17a1.54,1.54,0,0,0-.72,2.06Z" style="fill:#282723"/><path d="M89.33,54.39c.07.13.15.25.23.37a2,2,0,0,0,2.09,1,4.12,4.12,0,0,0,.72,1,2.09,2.09,0,0,0,.87.46,1.68,1.68,0,0,1-.77,2.25,1.8,1.8,0,0,1-.5.15c-.87.1-.69-.81-.39-1.38a1.55,1.55,0,0,0,.25-.73,1,1,0,0,0-.61-.78,1.24,1.24,0,0,0-1,0,.17.17,0,0,1-.14,0,1.27,1.27,0,0,1-.18-.27l-.57-1.14A1.16,1.16,0,0,1,89.33,54.39Z" style="fill:#e9d6b8"/><path d="M93.86,68.14s-.65.14-.83.21a3.09,3.09,0,0,1-1,0s-.1-3.59-.27-4.79-.49-1.57-.49-2a3.75,3.75,0,0,1,.17-1.2c.11-.48-.22-1.12-.11-1a1,1,0,0,0,1.37-.09l.07-.09C92.92,59,93.86,68.14,93.86,68.14Z" style="fill:#194866"/><path d="M91.53,57.88s-.9.91-.87,1.2a24.92,24.92,0,0,0,.16,2.86,21,21,0,0,1,.41,2.6,21.18,21.18,0,0,0-.11,2.4,8.46,8.46,0,0,0,.2,1.76.78.78,0,0,0,.75-.23c.32-.34.2-3.59.08-4.38a33.33,33.33,0,0,1-.55-3.45,11.31,11.31,0,0,1,.29-2.09C92.15,58.16,91.6,57.93,91.53,57.88Z" style="fill:#d1dbea"/><path d="M91.53,57.81a.6.6,0,0,0,.11.12,2,2,0,0,1,.26.24s-.18-.1-.25,0a2.63,2.63,0,0,0-.13.62s-.34-.55-.26-.72A.69.69,0,0,1,91.53,57.81Z" style="fill:#b0bfde"/><path d="M92.75,60a2.14,2.14,0,1,0,1.52-2.62l-.09,0A2.12,2.12,0,0,0,92.75,60Z" style="fill:#282723"/><polygon points="85.5 76.25 85.43 78.33 85.01 78.84 83.87 79.48 83.03 79.33 84.52 78.23 84.63 76.05 85.5 76.25" style="fill:#e9d6b8"/><path d="M85.37,78.79l-.39.28-.11-.1-1.05.67s-1,.24-1.2,0,.1-.18.32-.33a1.27,1.27,0,0,1,.27-.18s0,.16.42.22a7.26,7.26,0,0,0,1.13-.61,3.3,3.3,0,0,0,.67-.51C85.54,78.32,85.37,78.79,85.37,78.79Z" style="fill:#19486d"/><path d="M94.39,65.24l-.54,1.28-.93.11-7.52.48s-.67-.21-1.1.86c-.61,1.51.18,9.08.18,9.08H85.6l.61-7.19s7.19,1.2,9.31.63c.79-.24,1.4-1.66,1.29-3.08A5,5,0,0,0,96,65.26Z" style="fill:#265880"/><path d="M93.37,67.93s-.28-3.16-.55-4.59A35.36,35.36,0,0,1,92.63,59a4.31,4.31,0,0,0-.24-.87s.36-.82.84-.78a12.73,12.73,0,0,1,2.4.72c.44.18.21,5.2.25,5.46a13.77,13.77,0,0,0,.91,2.81,13.28,13.28,0,0,1,.43,1.49A11.85,11.85,0,0,0,93.37,67.93Z" style="fill:#d1dbea"/><path d="M93.15,57l-.36.39s-.5.69-.34.59.44.6.44.6l.66-1.36Z" style="fill:#b0bfde"/><path d="M96,64.67s.55.4-1.52.62a44.93,44.93,0,0,1-5.19,0l4.79-.9A2.9,2.9,0,0,1,96,64.67Z" style="fill:#e9d6b8"/><path d="M91,65.31a3.61,3.61,0,0,0-1.71.83,5.51,5.51,0,0,0-.73.45c.16-.42.48-.47.62-.61s.11-.08-.25,0-.5.38-.73.59a.92.92,0,0,1-.34.21,5.29,5.29,0,0,1,.51-.66,5,5,0,0,1,.91-.74,3.78,3.78,0,0,1,1.33-.21C91.11,65.09,91.67,65.23,91,65.31Z" style="fill:#e9d6b8"/><path d="M89.29,65.33a5.9,5.9,0,0,0-.85.37c-.09.09-.42.5-.42.5a1.18,1.18,0,0,0,.42-.24A7.47,7.47,0,0,1,89.29,65.33Z" style="fill:#e2c59c"/><path d="M94.8,64.09l-.68-4.58a3.59,3.59,0,0,1,.46-1.27,1.19,1.19,0,0,1,1-.26s.77.63.83,4.25c0,2.48.26,3.51-.81,3.59s-2.13.16-2.13.16l-.77-1.44Z" style="fill:#b0bfde"/><rect x="82.59" y="66.57" width="6.57" height="0.13" style="fill:#cdd5d7"/><path d="M86.26,66.56a.19.19,0,0,1-.17.19H82.72c-.08,0-.22-.07-.32-.34l-1.67-3.07a.18.18,0,0,1,.19-.19l3.45.11c.1,0,.17.08.23.23Z" style="fill:#cdd5d7"/><path d="M85.9,66.7h3.31a1.2,1.2,0,0,1-.53.11H83.1a1.27,1.27,0,0,1-.54-.11Z" style="fill:#b7bec0"/><polygon points="16.82 26.8 15.59 25.96 14.37 26.8 14.37 24.2 15.59 24.2 16.82 24.2 16.82 26.8" style="fill:url(#b)"/><path d="M17.45,23.21a1.86,1.86,0,1,1-1.91-1.81h.05A1.85,1.85,0,0,1,17.45,23.21Z" style="fill:url(#c)"/><polygon points="15.59 22.1 15.95 22.53 16.5 22.54 16.39 23.08 16.73 23.52 16.23 23.77 16.11 24.32 15.59 24.07 15.09 24.32 14.96 23.77 14.46 23.52 14.8 23.08 14.68 22.54 15.24 22.53 15.59 22.1" style="fill:#fff"/><path d="M75,29.37a2.5,2.5,0,0,1,2.5-2.49h10a2.49,2.49,0,0,1,0,5H79.4l-2.05,2V31.85A2.48,2.48,0,0,1,75,29.37Z" style="fill:#fff"/><path d="M77.6,28.44a.67.67,0,0,1,1,0l0,0,.14.15.15-.15a.69.69,0,0,1,1,0v0a.68.68,0,0,1,0,1l-.16.17h0l-1,1-1-1h0l-.15-.17a.67.67,0,0,1,0-.95Z" style="fill:#ff5931"/><path d="M81.33,28.44a.67.67,0,0,1,1,0l0,0,.16.15.16-.15a.69.69,0,0,1,1,1l-.15.17h0l-1,1-1-1h0l-.16-.17a.67.67,0,0,1,0-.95Z" style="fill:#ff5931"/><path d="M85,28.44a.69.69,0,0,1,1,0l0,0,.15.15.17-.15a.67.67,0,0,1,1,0l0,0a.7.7,0,0,1,0,1l-.17.17h0l-1,1-1-1h0L85,29.41A.7.7,0,0,1,85,28.44Z" style="fill:#ff5931"/><path d="M27.18,34.3h-5a2.49,2.49,0,0,0-.15,5v2.06l2.06-2.06h3.09a2.49,2.49,0,1,0,.34-5Z" style="fill:#4e99ff"/><path d="M26.08,36.05h-1.2a2.7,2.7,0,0,0,.14-.4,1.4,1.4,0,0,0,0-.29.28.28,0,0,0-.29-.28H24.6v.44s-.5.57-.5.8V37.7a.29.29,0,0,0,.29.29h1a.48.48,0,0,0,.39-.29l.5-1.38a.18.18,0,0,0-.06-.25A.16.16,0,0,0,26.08,36.05Z" style="fill:#fff"/><rect x="23.91" y="36.26" width="0.37" height="1.55" style="fill:#fff"/><rect x="22.8" y="36.05" width="0.67" height="1.94" style="fill:#fff"/></svg>