<svg xmlns="http://www.w3.org/2000/svg" xmlns:xlink="http://www.w3.org/1999/xlink" viewBox="0 0 100 109.74"><defs><clipPath id="a"><path d="M19.32,66.32c4.5-.12,7.7-3.61,12.75-2.52C37.35,64.94,40,79,51.75,83.47,60.86,87,80.41,87.16,90.22,68s2.68-41.55-12-42.78c-10.65-.88-18.88,3.08-27.63,2.82-8.13-.25-16.53-7.42-24.08-7.54C14.33,20.32,8.27,31.3,5.78,39.92,3.41,48.13,6,66.67,19.32,66.32Z" style="fill:none"/></clipPath></defs><title>teamwork</title><rect width="100" height="100" style="fill:none"/><path d="M15.61,57.91c4.46.9,8.46-1.95,13.17.32,4.92,2.37,4.14,17.4,14.6,24.68,8.13,5.66,27.34,10.32,41.64-7.1s12.72-42.08-1.45-46.68C73.3,25.8,64.23,28,55.67,25.73,47.73,23.63,41.2,14.35,33.8,12.5c-11.94-3-20.58,6.93-25.12,15.21C4.35,35.61,2.45,55.24,15.61,57.91Z" style="fill:#00e1af"/><path d="M19.32,66.32c4.5-.12,7.7-3.61,12.75-2.52C37.35,64.94,40,79,51.75,83.47,60.86,87,80.41,87.16,90.22,68s2.68-41.55-12-42.78c-10.65-.88-18.88,3.08-27.63,2.82-8.13-.25-16.53-7.42-24.08-7.54C14.33,20.32,8.27,31.3,5.78,39.92,3.41,48.13,6,66.67,19.32,66.32Z" style="fill:#00fac8"/><g style="clip-path:url(#a)"><path d="M35.41,56.18s.17.58-2.87,1.5a63.3,63.3,0,0,1-7.27,1.56l6.36-2.69S34.29,55.63,35.41,56.18Z" style="fill:#fff"/><path d="M26.23,59.19c-1.62.56-2.14,1.75-2.7,2.2l-1,.79.84-1.24c.19-.29,0-.43-.43,0s-1.52,1.72-1.52,1.72A7.15,7.15,0,0,1,22,61.37a8.71,8.71,0,0,1,1.27-1.58A7.3,7.3,0,0,1,25.48,59C26.39,58.77,27.39,58.78,26.23,59.19Z" style="fill:#fff"/><path d="M30.09,58.32c.83-.19,1.68-.41,2.45-.64s1.77-.49,2.18-.67c1.27-.56.07-1,.07-1-1.12-.56-3.16.58-3.16.58l-1.9.81Z" style="fill:#6e2733"/><path d="M44.24,47.05l8.5.88s-4.08-3.08-7.18-3.9S44.11,47.09,44.24,47.05Z" style="fill:#fff"/><path d="M26,44.26s1.34-1.68,7.72-1.88c.57,0,1.29,0,2,0,8.23.08,8,.91,8,.91l1.79.54-.24,3.24L32,47.24Z" style="fill:#d1dbea"/><path d="M32,47.24l11.19-.11v0l-1.74-.67s.27-.82-7.94-1.48a30.38,30.38,0,0,0-6.13,0Z" style="fill:#b0bfde"/><polygon points="43.83 44.56 43.55 46.69 43.55 47.24 45.08 47.51 44.9 44.94 43.83 44.56" style="fill:#b0bfde"/><path d="M28.16,42.47c-.08,1-.61,1.81-1.16,1.85H25.44c-.55,0-1.08-.88-1.16-1.85-.12-1.61-.25-3.21-.38-4.82-.09-1,.29-2.89,1.12-3.46a2.07,2.07,0,0,1,2.4,0c.83.57,1.21,2.5,1.12,3.46C28.41,39.26,28.29,40.86,28.16,42.47Z" style="fill:#fff"/><path d="M17.56,58.62l4.19,6.8s-6.23-3-5.91-5.77S17.56,58.62,17.56,58.62Z" style="fill:#fff"/><path d="M33.45,42.39l-4.74.48-3,.92-2.5-.53L19.92,44.7s-1.5,1.44-.1,6.08a29.83,29.83,0,0,1,.85,10l12.09.77S32.27,45,33.45,42.39Z" style="fill:#d1dbea"/><path d="M22.07,44.9A2,2,0,0,0,20,44.67a5.27,5.27,0,0,0-1.6,1.47,32.21,32.21,0,0,0-4.94,9.59c-.32.93-.75,3.71.54,4.54l1.29.82,2.83-1.61-.58-.86-.21-.52s1.5-3.3,3.11-6.29A16.81,16.81,0,0,0,22.07,44.9Z" style="fill:#d1dbea"/><polygon points="25.61 43.66 24.42 44.96 23.23 43.24 23.94 42.18 25.61 43.66" style="fill:#b0bfde"/><polygon points="28.3 42.12 26 43.6 27.09 44.9 28.88 42.87 28.3 42.12" style="fill:#b0bfde"/><rect x="25.36" y="43.59" width="1.02" height="17.48" style="fill:#b0bfde"/><path d="M21.09,104.05c-.13.16,0,.57,0,.57a15.26,15.26,0,0,0,3,.08,4.25,4.25,0,0,0,.81-.38s.14-.2.19-.23.14,0,.22,0a2.76,2.76,0,0,0,.34-.24,2.19,2.19,0,0,0-.06-1.46s-1.93-.64-2.29-.19A15.44,15.44,0,0,1,21.09,104.05Z" style="fill:#161711"/><path d="M26.65,66.1s1.49,13.42,4.5,18.18,4.59-.88,4.59-.88l-3-22.25-9.45-.06S25.22,61,26.65,66.1Z" style="fill:#3c463b"/><path d="M28.39,61.14S27,82.77,26.6,83.87c-1.21,3.7-4.36,1.48-4.79.24s-1.15-10.37-1-17,.14-6.23.14-6.23Z" style="fill:#3c463b"/><path d="M26.11,80a27.45,27.45,0,0,1,.93,7.1c-.05,3.31-.77,9.95-1.47,15.31,0,.33-2.72,0-2.72,0s-.63-12.68-.8-16.06c-.05-1.2-.55-4.68-.1-5.81C22.75,78.48,24.78,78.41,26.11,80Z" style="fill:#3c463b"/><path d="M34.84,83.88a9.26,9.26,0,0,1-3.43.78c-.47,0,3.47,18.67,3.47,18.67l3.39-1.46L35.64,83Z" style="fill:#323b31"/><path d="M35.14,103.12l.33,1.68h1.71s.1-.24.24-.24.28.24.45.24h4.37s.08-.35,0-.47a1.4,1.4,0,0,0-.53-.23c-.88-.25-3.42-1-3.86-1.87C37.29,101.19,35.14,103.12,35.14,103.12Z" style="fill:#161711"/><path d="M17.56,58.62s.19,0,.4.39.64.67.36.79-1.68,1.46-1.88,1.62-.94-.11-.94-.11-.5-.25-.46-.37A18.48,18.48,0,0,1,17.56,58.62Z" style="fill:#b0bfde"/><path d="M26.42,33.9V32.81h2.35a1.43,1.43,0,0,1,1.43,1.43v1.09H27.85A1.43,1.43,0,0,1,26.42,33.9Z" style="fill:#0e2a3b"/><rect x="24.16" y="33.46" width="5.44" height="8.32" rx="1.27" ry="1.27" style="fill:#fff"/><path d="M26.33,32.81a1.42,1.42,0,0,0-1.2.65h-.49a1.11,1.11,0,0,0-1.11,1.11v2.74h.78V36.2a.77.77,0,0,1,.78-.78h2.35A1.44,1.44,0,0,0,28.88,34V32.81Z" style="fill:#0e2a3b"/><path d="M24.55,38a.68.68,0,0,0-.68-.68h-.05a.68.68,0,0,0-.68.68v.83a.68.68,0,0,0,.68.68h.05a.7.7,0,0,0,.63-.41" style="fill:#fff"/><path d="M68.05,51.29c-2.08,1-5.84,7.86-5.84,7.86s-.76,3,5.66-4.95C69.79,51.82,68.56,51,68.05,51.29Z" style="fill:#fff"/><path d="M59.83,65.71l-.29-1v-.82L60,62.68a8.91,8.91,0,0,1,1.09-1.63,22.46,22.46,0,0,0,1.47-2.5c.19-.2,1.52.09,1.52.09s-1.47,1.72-2,2.45A20.08,20.08,0,0,0,61,63.41a3.93,3.93,0,0,1-.73.82s.37-.87.49-1.08-.18-.24-.18-.24a7.59,7.59,0,0,0-.68,1.5,2.16,2.16,0,0,0,0,.7Z" style="fill:#fff"/><path d="M71.57,47.33l-4.78,9.86-.22.6-2.86-1.26C67.25,51,68,50,68.44,48.87c.16-.4,1.46-3.66,1.64-4.27A3.5,3.5,0,0,1,73,42C75.06,41.59,71.57,47.33,71.57,47.33Z" style="fill:#dabf6f"/><polygon points="63.27 42.21 68.85 52.04 79.12 55.76 79.56 59.91 67.97 56.52 62.84 51.72 63.27 42.21" style="fill:#0e2a3b"/><path d="M78.54,40.92a4.35,4.35,0,1,1-4.34-4.25A4.3,4.3,0,0,1,78.54,40.92Z" style="fill:#282723"/><path d="M75.07,98.2l.05,5.21A18.69,18.69,0,0,1,72.59,106c-.68.36-.59,0-.55-.13a13.34,13.34,0,0,0,1.36-2.22c.18-.73-.23-5.16-.18-5.39S75.07,98.2,75.07,98.2Z" style="fill:#fff"/><path d="M80,98.74a39.44,39.44,0,0,1,.73,3.94c0,1-.14,1.31.13,1.63s2.17,2.81,2.63,2.81a.45.45,0,0,0,.45-.46A15.69,15.69,0,0,1,82.18,104a41.64,41.64,0,0,1-.27-5.16C81.91,98.47,80,98.74,80,98.74Z" style="fill:#fff"/><path d="M80.63,52.9s-.73.09-.35,4a80.26,80.26,0,0,0,1.82,9.56L82,57.37S81.79,53.89,80.63,52.9Z" style="fill:#fff"/><path d="M74.5,62.18l.3,18.7.61,17.93-2.66.12s-1.87-18.11-2.11-19.68-3-14.18-1.39-17.31S74.5,62.18,74.5,62.18Z" style="fill:#153d57"/><path d="M69.25,61.94a2.22,2.22,0,0,0-.13.31c1.7,2.64,3.3,4.88,3.67,5.45.21.32.91,1.51,1.85,3.13l-.14-8.65S70.82,58.8,69.25,61.94Z" style="fill:#0e2a3b"/><path d="M80.66,61.75s.78,8,.78,13.4.54,21.3.54,21.3v2.78l-2-.06-3.2-20.28L74.08,61.75Z" style="fill:#153d57"/><path d="M81.62,40.72a4.35,4.35,0,1,1-4.34-4.25A4.3,4.3,0,0,1,81.62,40.72Z" style="fill:#282723"/><path d="M78.6,36.3a3.81,3.81,0,1,1-3.8-4A3.93,3.93,0,0,1,78.6,36.3Z" style="fill:#282723"/><path d="M74.14,37.5a8,8,0,0,1,.06,2.77c-.3.61-2.35,2-2.66,2.42a3.07,3.07,0,0,0,3.56,3.19c3-.48,5.62-2.35,5.62-2.83s-.06-1-1-1.33-2.53-.6-3-1.09a3.58,3.58,0,0,1-.66-3C76.37,36.41,74.14,37.5,74.14,37.5Z" style="fill:#fff"/><path d="M79.24,47.6l1,10.91v.63L83.4,59s-.9-8.41-1-8.82A37.13,37.13,0,0,1,82,45.57c0-.64-.09-3.8-2.17-3.49S79.24,47.6,79.24,47.6Z" style="fill:#dabf6f"/><path d="M75.75,33.17l-.19-.05a4.11,4.11,0,0,1-1.65,2.33,4.54,4.54,0,0,1-.68.43v.7a2,2,0,0,0,3.93,0V35A4.16,4.16,0,0,1,75.75,33.17Z" style="fill:#fff"/><path d="M79.83,62.4H70.1l1.4-8.25-.32-9.67a13.57,13.57,0,0,0,3.4.8,11.72,11.72,0,0,0,3.26-.8Z" style="fill:#6e2733"/><path d="M82.18,66.58a11.21,11.21,0,0,1-.38,1.71c-.11.18-.75.95-.75.95a2,2,0,0,1,.28-.86A16.09,16.09,0,0,0,82.18,66.58Z" style="fill:#dee7ec"/><path d="M70.67,43.35s.3,6,.12,8.15-2,9-2.17,10.31l-.18,1.27a4.67,4.67,0,0,0,1.2.54c.43.07,1.23-.34,1.51-1.81.35-1.81,1.42-8,1.63-9.17.3-1.6.06-6.27.3-6.88s1.12-2.56,1-3a4.74,4.74,0,0,0-1-1.36S71.15,42.2,70.67,43.35Z" style="fill:#e1cd96"/><path d="M78.29,41.18s-1.18.49-1.54.68-.18,2.17,0,2.44.5,6.38.54,7.83.23,7.15.45,8.19.1,2.26,1.18,2.67a8.13,8.13,0,0,0,2.45.41s-.55-3.58-.82-4.8a41.27,41.27,0,0,1-1.22-6c-.09-1.85.18-4.66.27-6.15a20.49,20.49,0,0,1,1-4.17C80.69,42,78.65,41.31,78.29,41.18Z" style="fill:#e1cd96"/><path d="M75.17,103.13a1.12,1.12,0,0,1,.12.66c0,.27-.26,1.06-.26,1.06l-.5.23v-.36a10.68,10.68,0,0,1-1.36,1.4c-.45.32-1.4,1.11-1.94.91a.32.32,0,0,1-.18-.23l1-1.09c.14-.13.45.14.82-.09a13.41,13.41,0,0,0,1.67-1.53A6.33,6.33,0,0,0,75.17,103.13Z" style="fill:#161711"/><path d="M80.67,103.63a1.74,1.74,0,0,0,0,.67,3.39,3.39,0,0,0,.25.71l.45.25a11.47,11.47,0,0,0,1.27,1.37c.42.32,1.3,1.11,1.81.91a.35.35,0,0,0,.17-.23s-.8-1-.93-1.08-.42.13-.76-.09a14.08,14.08,0,0,1-1.55-1.54A9,9,0,0,1,80.67,103.63Z" style="fill:#161711"/><path d="M78.06,41l-1.31.86a1,1,0,0,1,.54.54,7.51,7.51,0,0,1,.32,1l1.18-2S78.06,40.86,78.06,41Z" style="fill:#dabf6f"/><path d="M73.22,41.13l.21.35.68,1.21s-.14-.38-.66,0a2.14,2.14,0,0,0-.55,1l-.36-2.18Z" style="fill:#dabf6f"/><path d="M81.41,63.4c.22,1.86-.54,2.75-.72,3.51a12.19,12.19,0,0,1-.49,1.54c.68-.49.63-1.09.83-1.42s.09-.23.21.42c.07.38-.46,1.1-.74,1.61a1.57,1.57,0,0,0-.23.71,8.11,8.11,0,0,0,1-1.21,10,10,0,0,0,1-2A8.18,8.18,0,0,0,82,64C81.75,63.05,81.26,62.07,81.41,63.4Z" style="fill:#fff"/><polygon points="49.97 42.52 51.69 46.91 45.9 56.52 42.3 56.3 42.73 52.59 49.97 42.52" style="fill:#153d57"/><path d="M39.15,39.56a4.36,4.36,0,0,0-.81.08,4.28,4.28,0,0,1,.08.81,4.52,4.52,0,0,1-3.78,4.42,4.58,4.58,0,1,0,4.51-5.31Z" style="fill:#282723"/><path d="M45,39.77a3.81,3.81,0,0,0-1.84-.47,3.7,3.7,0,1,0,3.78,3.83A4.42,4.42,0,0,1,45,39.77Z" style="fill:#282723"/><path d="M45,39.26a3.31,3.31,0,1,1-3.3-3.53A3.42,3.42,0,0,1,45,39.26Z" style="fill:#282723"/><path d="M37.39,45S39,48,40.79,48.44s4.39,0,4.65-.71a3.27,3.27,0,0,0-.8-2.55c-.42-.37-1.79-.73-2.15-1.42a3.65,3.65,0,0,1,0-2.36c.21-.79.83-.84.21-1.21s-.37-.73-1-.63-1-.13-1,.48c0,1.1.09,2.65-.53,3.36A6,6,0,0,1,37.39,45Z" style="fill:#fff"/><path d="M42.89,37.16l-.17,0a3.55,3.55,0,0,1-1.43,2,5.36,5.36,0,0,1-.59.38v.61a1.71,1.71,0,0,0,3.41,0V38.76A3.58,3.58,0,0,1,42.89,37.16Z" style="fill:#fff"/><path d="M40.72,104.82a7.68,7.68,0,0,0-1.29-.32c-.56-.11-1-.11-1.18-.31S38.1,103,37.94,103c-.79.18-1.06,2-.6,2.25a13.91,13.91,0,0,0,3.27-.09C40.82,105.19,40.79,104.77,40.72,104.82Z" style="fill:#dee7ec"/><path d="M42.48,84.24c-.37-.19-1.52.83-2,1.75a12.86,12.86,0,0,0-1.39,4.85c-.44,3.21-1.2,8.31-1.43,10.49-.2,2-1.08,4.25.41,4-.17-2.71,1.18-6.73,2-8.84C42.77,89.29,43.61,84.82,42.48,84.24Z" style="fill:#dee7ec"/><path d="M40.18,104.66c.15.62-1.75.37-2.25.21a5.43,5.43,0,0,0-.77-.21H37.1v0c0,.34-.15.8.39.8H40.9C43.69,105.5,40.18,104.64,40.18,104.66Z" style="fill:#6e2733"/><path d="M43.66,63.09c-.63-.23-.69.34-1.28,1.71A30.87,30.87,0,0,0,40.28,76a48.52,48.52,0,0,0,1.23,12.64,20.57,20.57,0,0,0,2.64-7.53C46.09,71.25,45.62,63.79,43.66,63.09Z" style="fill:#dee7ec"/><path d="M42.83,82.15c-.28-.19-.88.67-1.35,1.51a24,24,0,0,0-1.93,6.5,40.83,40.83,0,0,0-1,8.18c.72-1.44,1.37-3.3,2.21-5.23C43.63,86.53,43.7,82.73,42.83,82.15Z" style="fill:#dee7ec"/><path d="M42.91,58c-.34,1.54,0,1.75-.9.46L35.5,48.25a1.93,1.93,0,0,1,1.16-3.15l8.12-1.48c1.52-.3,2,1.19,1.67,2.73Z" style="fill:#fff"/><path d="M39.15,63c-.94-.23-1,.37-1.72,1.82C36,67.7,35.54,72,35.82,76.58c.27,4.41.66,10,1.13,11.37.22.67,1,1.26,1.22,1.81A38.43,38.43,0,0,0,40.37,81C42,70.57,42,63.71,39.15,63Z" style="fill:#fff"/><path d="M43.86,62.47c-.64-.2-.68.32-1.22,1.59A26.24,26.24,0,0,0,41,74.32,41.07,41.07,0,0,0,42.6,85.83a41.84,41.84,0,0,0,1.7-7.71C45.66,69.05,45.81,63.06,43.86,62.47Z" style="fill:#fff"/><path d="M45.24,81.13A8.51,8.51,0,0,0,45.42,80c.17-4,1.17-7.82-1.2-21.45a18.7,18.7,0,0,0-.63-2.48c-1.5-1.14-2.92-.27-4.52-1.14a15.62,15.62,0,0,0-2.73,3.28c-4.13,8-2.32,19.53-2.8,23.81A18.37,18.37,0,0,0,45.24,81.13Z" style="fill:#6e2733"/><path d="M36.51,45.54c1.09,3.74-1.17,11-1.17,11s-.75.39-1-.23c-.37-.79-.25-3.08.17-8.44C34.73,44.51,36.32,44.92,36.51,45.54Z" style="fill:#6e2733"/><path d="M43.66,56.11c0,.06-.31.09-.69.07l-4.26-.26c-.37,0-.68-.1-.67-.16v-.25c0-.06.32-.09.69-.07l4.26.27c.38,0,.68.09.68.15Z" style="fill:#15100c"/><path d="M46.52,49.48c-.34-1.29-.68-2.58-1-3.88a3.54,3.54,0,0,0-.31-.77A43,43,0,0,1,36.43,46c0,.12,0,.25,0,.37-.07,1.4,0,2.8,0,4.19a1.94,1.94,0,0,0,.93,1.54,1.28,1.28,0,0,0-.08.35l-.1.67c0,.56.37,2.47.89,2.49l5.65.31c.52,0,1.21-1.12,1.24-1.68l.78-2.74a.61.61,0,0,0,0-.14A2,2,0,0,0,46.52,49.48Z" style="fill:#e1cd96"/><path d="M38.53,44.52s-2.92-.09-3.44,1.31.74,3.45.74,3.45.74,2.6.94,4-.69,2.74-.41,2.47a5.8,5.8,0,0,0,1.77-.49c1.06-.49.47-2.41.37-3A28.85,28.85,0,0,1,38,48.06C38.11,47.56,38.53,44.52,38.53,44.52Z" style="fill:#6e2733"/><path d="M46.91,45.69s.23-1.17-.26-1.64c-.71-.68-2.42-.59-3-.43a9.08,9.08,0,0,0-.93.34s1.94.79,1.87,4.8a20.05,20.05,0,0,1-.42,3.15,23.76,23.76,0,0,0-.32,3.15s1.16.23,1.21.4A11.2,11.2,0,0,1,46,52.88C46.79,51.54,46.91,45.69,46.91,45.69Z" style="fill:#6e2733"/><path d="M44.35,43.52c1.08.9,1.74,1.67,1.57,6.33,0,.75,0,2.14-.14,3.43.07-.13.4-.73.46-.87a17.85,17.85,0,0,0,.67-6.72s.23-1.17-.26-1.64A3.31,3.31,0,0,0,44.35,43.52Z" style="fill:#4d2020"/><path d="M36.93,87c0-.5.12-1,.18-1.48.32-.75.62-1.16.89-1.14,1,0,2.34,3.82.27,13.55-.1.49-1.24,8.87-1.29,8.67C36.3,104.26,36.07,94.45,36.93,87Z" style="fill:#fff"/><path d="M37,107.46c-.46,1.38-1.14,2.39-1.5,2.27s-.28-1.34.19-2.72,1.14-2.38,1.5-2.26S37.43,106.09,37,107.46Z" style="fill:#6e2733"/><path d="M37.06,106.67c-.2,1.06-.79,1.88-1.16,1.75s-.35-1,0-2a5,5,0,0,0,.64-2.48C36.53,103.14,37.79,102.71,37.06,106.67Z" style="fill:#fff"/><path d="M58.09,36.32c-.15.5,0,1,.34,1.08h0c.34.1.73-.22.87-.72l.19-.62c.14-.49,0-1-.35-1.07h0c-.33-.1-.72.22-.87.71Z" style="fill:#fff"/><path d="M54.76,40.86c0,.9.48,1.7,1,1.76l1.44.06c.51,0,1-.77,1.15-1.67.18-1.47.36-2.95.55-4.42.12-.89-.15-2.69-.9-3.25a1.93,1.93,0,0,0-2.21-.1c-.79.5-1.22,2.26-1.18,3.16C54.65,37.88,54.7,39.37,54.76,40.86Z" style="fill:#edeef0"/><path d="M54.11,38.54c.19.84.53,1.06,1.14,1.18s.71.15,1.29.23,1.29-.73,1.46-1.47c.29-1.23,1-2.21,1.28-3.43a1.76,1.76,0,0,0-1-2c-.8-.52-1.73-1.54-2.62-1.27a2.9,2.9,0,0,0-1.56,2.51C54.12,35.57,54.11,37.27,54.11,38.54Z" style="fill:#fff"/><path d="M59.78,34.11l-.5.94s-.9-1.11-1.53-2c-.2-.29-2.38-.41-2.92-.34s-.47.56-.57.84c-.37,1,.22-1.75.22-1.75a3,3,0,0,1,2.18-1.34c.77,0,1.1.43,1.37,1,.06.14-.83-.25-.68-.27a9.61,9.61,0,0,1,.93.89,4.82,4.82,0,0,0,.44.88C59.41,34,59.78,34.11,59.78,34.11Z" style="fill:#0e2a3b"/><polygon points="56.5 34.54 55.89 34.6 56.04 34.97 55.56 35.13 55.01 36.95 55.79 37.04 55.96 35.92 56.47 35.38 57.68 35.32 56.5 34.54" style="fill:#edeef0"/><path d="M46,102.23v2l-.21,1.64-.62.49-.47.19-.12.28L43,108.05a3,3,0,0,1-1.87.28c-.27,0,0-.8.12-.92A13.19,13.19,0,0,1,42.52,106l1.18-1.74L45,102.08Z" style="fill:#161711"/><path d="M61.39,104.24l-.36.81-.15.9.15,1.39.76,0,.56-.17.39.23s2.17.24,3,.2c1.33-.07,2.05-.27,2.28-.55s-.5-.38-.71-.39a7.88,7.88,0,0,1-2.5-.73l-1.06-1-.25-.76Z" style="fill:#161711"/><path d="M50.38,43,55,41l1.56.94,2.81-.72a35.65,35.65,0,0,0,3.61,2c.32,0-.11,18.36-.11,18.36l-8.31,2.62L51.36,62.1Z" style="fill:#d1dbea"/><polygon points="51.77 61.26 43.28 104.33 46.34 104.24 51.04 90.35 52.11 86.19 57.06 69.76 58.31 60.95 51.77 61.26" style="fill:#0e2a3b"/><polygon points="60.67 104.53 60.01 87.11 58.56 79.23 56.69 68.4 57.44 60.98 64.1 60.56 63.83 73.04 64.51 84.22 64.65 88.44 64.3 105.15 60.67 104.53" style="fill:#0e2a3b"/><polygon points="53.66 62.7 54.2 45.26 54.86 41.12 49.94 42.5 49.62 63.74 53.66 62.7" style="fill:#153d57"/><polygon points="58.47 41.01 59.74 43.45 60.54 61.55 60.65 62.93 66.11 62.36 64.26 45.48 63.27 42.05 58.47 41.01" style="fill:#153d57"/><polygon points="53.22 54.45 51.8 47.35 52.67 46.03 51.91 42.65 52.67 41.55 54.97 40.79 54.2 48.77 53.77 59.26 53.22 54.45" style="fill:#0e2a3b"/><path d="M58.48,41a12.08,12.08,0,0,0,1.15,2.64l.69,13.15L62,47l-.43-1.75L62,44.18,60.6,41.41Z" style="fill:#0e2a3b"/><polyline points="56.39 41.86 56.13 42.65 56.35 42.83 56.83 42.79 57.05 42.61 56.81 41.85 56.42 41.85" style="fill:#6e2733"/><polygon points="56.39 41.85 55.27 43.1 54.4 40.98 54.68 40.43 56.39 41.85" style="fill:#b0bfde"/><polygon points="58.46 40.39 56.81 41.85 57.9 43.16 58.81 41.05 58.46 40.39" style="fill:#b0bfde"/><path d="M56.55,42.1a1.85,1.85,0,0,1,.44.84,30.73,30.73,0,0,1-.46,15,1.87,1.87,0,0,1-.93,1l-.75-1.07a143.62,143.62,0,0,0,1.47-15C56.32,42.63,56.55,42.37,56.55,42.1Z" style="fill:#6e2733"/></g></svg>