<svg xmlns="http://www.w3.org/2000/svg" xmlns:xlink="http://www.w3.org/1999/xlink" viewBox="0 0 100 100"><defs><radialGradient id="a" cx="6706.24" cy="45.65" r="41" gradientTransform="matrix(-1, 0, 0, 1, 6781.54, 0)" gradientUnits="userSpaceOnUse"><stop offset="0" stop-color="#cdf7f1"/><stop offset="1" stop-color="#5dcfca"/></radialGradient></defs><title>teamwork-alt</title><g style="isolation:isolate"><rect width="100" height="100" style="fill:none"/><rect x="52.89" y="31.57" width="1.52" height="1.4" style="fill:#ace6ff"/><rect x="54.95" y="31.92" width="7.17" height="0.7" style="fill:#acd5f4"/><rect x="64.17" y="31.57" width="1.52" height="1.4" style="fill:#5dcfca"/><rect x="66.23" y="31.92" width="6.24" height="0.7" style="fill:#acd5f4"/><rect x="74.75" y="31.57" width="1.52" height="1.4" style="fill:#86c0f0"/><rect x="76.81" y="31.92" width="6.24" height="0.7" style="fill:#acd5f4"/><rect x="86.27" y="25.91" width="1.16" height="3.81" style="fill:#86c0f0"/><rect x="84.05" y="24.69" width="1.16" height="5.04" style="fill:#ace6ff"/><rect x="81.82" y="26.67" width="1.16" height="3.05" style="fill:#86c0f0"/><rect x="79.6" y="22.63" width="1.16" height="7.09" style="fill:#5dcfca"/><rect x="77.38" y="23.91" width="1.16" height="5.81" style="fill:#86c0f0"/><rect x="75.16" y="21.85" width="1.16" height="7.87" style="fill:#5dcfca"/><rect x="72.94" y="26.55" width="1.16" height="3.17" style="fill:#ace6ff"/><rect x="70.72" y="24.56" width="1.16" height="5.16" style="fill:#5dcfca"/><rect x="68.5" y="22.9" width="1.16" height="6.82" style="fill:#ace6ff"/><rect x="66.28" y="21.07" width="1.16" height="8.65" style="fill:#86c0f0"/><rect x="64.06" y="22.31" width="1.16" height="7.42" style="fill:#5dcfca"/><rect x="61.84" y="20.04" width="1.16" height="9.68" style="fill:#ace6ff"/><rect x="59.62" y="23.78" width="1.16" height="5.94" style="fill:#86c0f0"/><rect x="57.4" y="24.75" width="1.16" height="4.97" style="fill:#5dcfca"/><rect x="55.18" y="22.07" width="1.16" height="7.66" style="fill:#ace6ff"/><rect x="52.95" y="23.02" width="1.16" height="6.7" style="fill:#86c0f0"/><path d="M67.8,18.53a3.8,3.8,0,0,1-2.51-.94L67.93,15H71.6a3.86,3.86,0,0,1-1.11,2.47A3.81,3.81,0,0,1,67.8,18.53Z" style="fill:#ace6ff"/><path d="M68.05,14.37V10.93a3.77,3.77,0,0,1,3.53,3.44Z" style="fill:#ace6ff"/><path d="M67.8,18.53a3.8,3.8,0,0,1-2.51-.94L67.93,15H71.6a3.86,3.86,0,0,1-1.11,2.47A3.81,3.81,0,0,1,67.8,18.53Z" style="fill:#acd5f4"/><path d="M67.24,9.71a4.84,4.84,0,0,0-4.49,4.82A4.78,4.78,0,0,0,64,17.73l3.27-3.35V9.71Z" style="fill:#86c0f0"/><path d="M57.14,14.15V10.71a3.76,3.76,0,0,1,3.54,3.44Z" style="fill:#acd5f4"/><path d="M56.27,14.65V10a4.59,4.59,0,0,0,.64,9.14,4.5,4.5,0,0,0,2.3-.62Z" style="fill:#5dcfca"/><path d="M57.53,14.72l2,2.54.08-.07a3.76,3.76,0,0,0,1.11-2.47Z" style="fill:#ace6ff"/><path d="M84.74,72.64a1.72,1.72,0,0,0,1.15-.41,3.13,3.13,0,0,0,.75-2.66,9.44,9.44,0,0,0-.75-2.63A10.1,10.1,0,0,1,85,61.36l-.66-.1a10.82,10.82,0,0,0,1,5.92,8.65,8.65,0,0,1,.7,2.43,2.6,2.6,0,0,1-.51,2.11,1.12,1.12,0,0,1-.88.25l-.13.65A2.13,2.13,0,0,0,84.74,72.64Z" style="fill:#367082"/><path d="M79.64,77.92l-.65,1,5.44,1.75s.37-.35-1-1C81.9,78.8,79.64,77.92,79.64,77.92Z" style="fill:#88bdda"/><path d="M78.67,77.92l.65,1-5.45,1.75s-.36-.35,1-1C76.4,78.8,78.67,77.92,78.67,77.92Z" style="fill:#88bdda"/><rect x="78.58" y="74.98" width="1.14" height="4.05" style="fill:#88bdda"/><path d="M79.71,78.13l-.56,1,4.66,1.66s.32-.33-.83-1A35.51,35.51,0,0,0,79.71,78.13Z" style="fill:#91e2f6"/><path d="M78.6,78.13l.55,1-4.66,1.66s-.31-.33.83-1A35.13,35.13,0,0,1,78.6,78.13Z" style="fill:#91e2f6"/><path d="M83.29,81.11a.39.39,0,0,0,.39.4.4.4,0,1,0,0-.79A.39.39,0,0,0,83.29,81.11Z" style="fill:#001f46"/><path d="M74.26,81.11a.39.39,0,0,0,.39.4.4.4,0,1,0,0-.79A.39.39,0,0,0,74.26,81.11Z" style="fill:#001f46"/><path d="M84.24,81.11a.4.4,0,0,0,.4.4.4.4,0,0,0,0-.79A.4.4,0,0,0,84.24,81.11Z" style="fill:#367082"/><path d="M73.3,81.11a.4.4,0,1,0,.79,0,.4.4,0,0,0-.79,0Z" style="fill:#367082"/><rect x="78.75" y="73.5" width="0.83" height="1.46" style="fill:#367082"/><path d="M78.13,72.73a.81.81,0,0,0,.81.81h.46a.81.81,0,0,0,.81-.81h0a.81.81,0,0,0-.81-.81h-.46a.81.81,0,0,0-.81.81Z" style="fill:#367082"/><path d="M73,72c0-.1,0-.7,0-.8a1.09,1.09,0,0,1,1-1.19H84.44a1.09,1.09,0,0,1,.94,1.19c0,.1,0,.7,0,.8Z" style="fill:#3dc7c9"/><path d="M85.48,72.31c0,.2-.12.36-.26.36H73.12c-.15,0-.27-.16-.27-.36h0c0-.2.12-.36.27-.36h12.1c.14,0,.26.16.26.36Z" style="fill:#367082"/><path d="M84.89,65.9c-.26,0-1.91,0-2.2,0-1.8,0-3.36-.31-3.45-.76a15.5,15.5,0,0,1,0-5.6c.08-.45,1.66-.79,3.51-.76.29,0,2,0,2.24.05A15.14,15.14,0,0,0,84.89,65.9Z" style="fill:#3dc7c9"/><path d="M85.14,58.88c.2,0,.34.1.31.21a15.15,15.15,0,0,0,0,6.6c0,.11-.12.21-.31.21h0c-.2,0-.39-.09-.41-.2a15.2,15.2,0,0,1,0-6.61c0-.12.22-.21.42-.21Z" style="fill:#367082"/><path d="M85.22,65.9a3.59,3.59,0,0,1-.47,0,1,1,0,0,1-.88-.78,15.29,15.29,0,0,1,0-5.52,1,1,0,0,1,.9-.78l.49,0A15.14,15.14,0,0,0,85.22,65.9Z" style="fill:#33a8b5"/><path d="M80.21,10.57s0-.07.09-.06.12.11.24.11-.11-.12-.05-.16l.09,0c0-.08,0-.1,0-.15.17,0,.12-.26.08-.4a.43.43,0,0,1,.2,0c0-.12-.12-.1-.18-.16s0-.07.13,0,0-.07,0-.15.06-.09.13-.07.19.05.18,0-.1,0-.11-.08,0-.09-.11-.07-.2.09-.24,0,.19-.07.22-.18a.27.27,0,0,0-.26-.08c-.07,0-.16-.06-.2,0s-.07,0-.11,0-.3,0-.38,0-.23,0-.27.06.06.16,0,.17-.25,0-.39,0-.32.2-.55.22c0,.09.1,0,.09.1s-.18.06-.24.13-.12,0-.15.08.07,0,.11.05a.06.06,0,0,1,.11,0s.14-.12.15,0-.22,0-.28,0,.1.11.17.15,0-.07.11-.05a.29.29,0,0,0,.26.07.32.32,0,0,0,0,.23.44.44,0,0,0,0,.17c.09.05.1-.11.15,0s-.06.08-.13.08.17.07.2.17a.61.61,0,0,0-.15.13c.06,0-.07.05,0,.12s0,.41.15.58h.16c.06,0,0,.11.1.1s0-.11.09-.12c0-.19.11-.2.09-.38,0,0,0-.1.08-.1s.09-.06.18,0A.52.52,0,0,1,80,11c.1,0,.15-.13.26-.15s.19-.12.13-.2S80.27,10.57,80.21,10.57Zm.22-.11c-.06,0,0-.16.06-.15S80.43,10.4,80.43,10.46Zm.15-1.2c0,.07,0,.09-.09.12a.39.39,0,0,0-.28-.05C80.28,9.23,80.49,9.27,80.58,9.26Z" style="fill:#ace6ff"/><path d="M77.52,9.63v.15c.07,0,.08,0,.13,0s.14-.22.22-.18-.11,0-.11.08-.07,0-.06.1.07,0,.06.08-.06-.05-.13,0-.07.05,0,.15.22,0,.28.08c-.17,0-.28-.1-.39-.05s.13.05.13.15c.16,0,.38.11.43-.08.06,0,.1,0,.09-.07s-.1,0-.09,0h.16c0-.14.13-.12.1-.28.12,0,.13-.13.27-.1a.15.15,0,0,1,.15-.1c0-.07,0-.12,0-.13s.22,0,.26-.12-.07,0-.07,0c-.35,0-.84-.08-1.21.1,0,.15.09.12.1.22s-.09-.19-.25-.15c0,0,0,0,0,.1s-.07,0-.06,0S77.51,9.59,77.52,9.63Zm.46.46s0,0,0,0S78,10.08,78,10.09Z" style="fill:#ace6ff"/><path d="M82.85,9.58c0-.07.12,0,.09-.15-.2,0-.39,0-.56,0,0,0,0,.08,0,.1A.79.79,0,0,0,82.85,9.58Z" style="fill:#ace6ff"/><path d="M82,9.71c0,.06,0,.08,0,.13s.09-.12.2-.11-.11.12-.11.23a.14.14,0,0,0,.15,0c0,.08,0,.08.11.08l.06-.28c.06.07.09.16.24.13,0-.2-.11-.21-.17-.31,0,.06-.06,0-.09,0s-.09,0-.11,0,0-.15-.11-.13,0,.13,0,.15-.25-.23-.26,0C81.91,9.66,82,9.64,82,9.71Z" style="fill:#ace6ff"/><path d="M84.2,9.53c0-.16-.2-.1-.2,0S84.12,9.52,84.2,9.53Z" style="fill:#ace6ff"/><path d="M85.41,9.68c.17,0,.35.09.39-.07a.3.3,0,0,0-.36-.08S85.43,9.64,85.41,9.68Z" style="fill:#ace6ff"/><path d="M89.79,11.19s0-.08.11-.07.1.15.24.12,0-.12,0-.2-.14-.16-.2,0a.15.15,0,0,0,0-.12c-.12,0-.18-.16-.36-.13,0-.05-.09-.05-.11-.1s-.18-.09-.33-.05.06.13,0,.15,0-.11-.11-.12-.18,0-.3.05-.08-.22-.24-.18,0,.08,0,.08a2.26,2.26,0,0,1-.26-.16s0,.05,0,.05,0-.07-.1-.07,0-.06-.05-.1-.1,0-.19,0-.06,0-.09,0,.07.08,0,.1-.42,0-.59,0-.07-.09-.13-.08-.16,0-.23-.05h-.09s-.09-.08-.22,0,.07-.07.07-.15-.1-.1-.13-.17a.72.72,0,0,1-.26,0c-.06,0,0-.11-.13-.1s-.07.09-.07.18-.07.09-.15.07,0-.1-.09-.07a.28.28,0,0,1-.25.1s-.06.08-.13.07,0,.13-.07.13-.15,0-.13.05.13,0,.11.15-.1-.12-.22-.1,0,.15,0,.15a.18.18,0,0,1,0-.15c-.09,0,0,.11-.13.07s0-.13-.13-.1a3.42,3.42,0,0,1-.22.28c-.14,0-.13-.05-.28-.05s.11,0,.08.15-.18,0-.32,0-.15.14-.26.18v-.15c-.06,0-.11,0-.13,0,0,.14,0,.27-.13.25s-.08.08-.13.1,0,.08,0,.1-.14-.18-.13-.22a.82.82,0,0,1,.28,0c.06-.15-.12-.24-.26-.25a.22.22,0,0,0-.18-.1.56.56,0,0,0-.1-.15h-.2l-.17.15s0,0-.07,0a1.54,1.54,0,0,1-.26.25.49.49,0,0,1-.13.28s0,0-.06,0v.1c-.14,0-.15.16-.2.28a.45.45,0,0,1,0,.28c0,.07.13,0,.17.07s-.09.11-.09.18,0,0,0,.08a1.17,1.17,0,0,0-.2,0s-.06.06,0,.15,0,.14-.15.12,0,.05,0,.05-.11.07-.17.1-.11,0-.11.1.1,0,.15,0,.11.09.09.2,0,.09-.06.1-.2,0-.33,0,0,.28,0,.28.06.11,0,.22.13,0,.2.06.09-.05.17,0a.62.62,0,0,0,.11-.36c.09,0,.08-.19.19-.2s.13,0,.22,0a.52.52,0,0,0,0,.37c.14,0,0-.14.07-.27a0,0,0,0,1,0,0v0s0,.06.06.1a.17.17,0,0,1,.19.15c0,.05,0,.05-.1.05s.07.08.1.12.06-.13.11-.17,0,0,0-.08.07.09.11,0-.33-.15-.26-.35c.06.12.19.17.26.28l0,.1a.19.19,0,0,1,0,.1v.15s.09,0,.15,0,0-.21,0-.31h.06c0,.1,0,.1,0,.2s0,.08.07.11a.28.28,0,0,0,.28,0c.06,0-.06.13,0,.12s0-.16.11-.12v.15c-.06,0,0,.21-.11.22a1.87,1.87,0,0,0-.56-.1c-.06,0,0,.13-.11.15s-.3-.12-.39-.25,0-.1,0-.15.05-.07,0-.1a.67.67,0,0,0-.33.08.45.45,0,0,0-.41.1c0-.06-.06-.08-.13-.08s-.09.11-.15.15,0,.28-.09.38-.14.13-.19.2a.71.71,0,0,1-.11.33v.65a1,1,0,0,1,.17.35c.1.07.17.18.31.21a.92.92,0,0,1,.3,0s0-.13.13-.13,0,.09,0,.11.14,0,.22.05.06-.07.13-.05c0,.19-.05.28,0,.45s.16.23.13.4a1.2,1.2,0,0,1,.08.35c-.05.12,0,.31-.08.43a.79.79,0,0,1,.19.4v.23c.1.13.1.38.2.5s.31-.15.49-.2a.5.5,0,0,1,.2-.3c0-.1,0-.12,0-.23s.06-.07.13-.05a.59.59,0,0,1,.26-.57,2.81,2.81,0,0,0,0-.71,1.07,1.07,0,0,0,.11-.33l.15-.12c.11-.18.2-.36.31-.53s0-.22,0-.28-.08.08-.17.08h-.19c0-.17-.12-.23-.2-.33s-.13-.14-.09-.33-.1-.08-.13-.15,0-.19,0-.2a.27.27,0,0,1,.09.23c.09.1.15.24.24.35s0,.26.15.35a2.11,2.11,0,0,1,.43-.2s0-.1,0-.1.13-.1.21-.13.07-.11.07-.2-.15-.09-.13-.25a.18.18,0,0,0-.17,0c0-.09-.1-.12-.09-.25s-.06-.08-.11-.1l.09-.05c.12.09.08.35.3.32,0,.05.06.05,0,.13s.12-.08.22-.07,0,.05.07.05.18.08.28.12,0,0,0,.05.1,0,.14.08,0,.09,0,.17a1.62,1.62,0,0,1,.13.33.46.46,0,0,1,.11.18v.15s.09,0,.15,0a1.59,1.59,0,0,0,.08-.47h.09V15c.08,0,0-.06.11-.05s.08-.12.11-.2a.49.49,0,0,1,.19-.1c0,.07,0,.2.13.23s0,.05,0,.12.17,0,.22.08,0,.07,0,.15a.19.19,0,0,1,.1.15c0,.05-.06.05,0,.13s.07.09,0,.2a3.08,3.08,0,0,0,.33.3c0-.16-.1-.2-.11-.35a.44.44,0,0,1-.15-.18c0-.08,0-.21,0-.22s.08.15.18.17a.3.3,0,0,1,0,.1c.21,0,.26-.25.23-.55,0,0-.08,0-.1-.05s-.11-.1,0-.18.06.09.15,0,.13-.1.24-.1a1.31,1.31,0,0,0,.2-.37s0,0,.06,0,0-.29.07-.35-.07-.08-.07-.15-.08-.06-.08-.13,0-.06,0-.13.07,0,.06,0-.1-.15,0-.15.1.11.13.18a.16.16,0,0,0,.11.2c.13-.11,0-.39.06-.58a1,1,0,0,1,.17-.1,1.16,1.16,0,0,1,.18-.33c0-.2,0-.41,0-.55,0,.14.05.16.06.25s0,.31.11.35,0-.06,0-.15,0,.05.09,0-.06-.08,0-.17-.1-.11-.13-.18,0-.21-.06-.23,0,.12-.06.11c0-.19-.19.11-.24-.08a.29.29,0,0,1,.08-.13c0-.08,0-.19.09-.22s0,0,.11,0a.8.8,0,0,0,.32.05s0,0,0,0,.1,0,.16,0,0-.09,0-.18,0-.07.09-.07,0,.06.09.07.06-.14.09-.07a1.42,1.42,0,0,0-.2.5c0,.07.06.1.09.15s0,.19.08.23.09-.16.16-.2.06-.11,0-.2.06-.05.06-.11-.1,0-.08-.1.16-.17.32-.15,0-.12.07-.15.22-.08.3-.07S89.79,11.3,89.79,11.19Zm-7.28.28a.27.27,0,0,0,.17.1v.25c-.05,0,0-.14-.08-.1s0,.27-.09.33-.13,0-.18,0-.07.07-.12.08-.07-.09-.07,0a0,0,0,0,1,0-.08.41.41,0,0,1-.09-.25c.11,0,.07.36.26.25s.09-.22.13-.32a.33.33,0,0,0,0-.15c0-.24.17-.31.24-.48,0,0,0,0,0,0C82.66,11.27,82.49,11.26,82.51,11.47Zm.24.18c0-.08.07-.06.13-.08S82.81,11.65,82.75,11.65Zm.17-1s0,0,0,0S82.93,10.67,82.92,10.67Zm.39,3.62s0,0,0,0S83.32,14.3,83.31,14.29Zm0-3.12s0,0,0,0S83.34,11.18,83.33,11.17Zm1.61-.4s-.1,0-.09-.08,0-.1,0,0S85,10.68,84.94,10.77Zm1.34-.46s0,0,0,0S86.28,10.32,86.28,10.31Zm.07,0s0,0,0,0S86.35,10.3,86.35,10.29Zm.06,0s0,0,0,0S86.42,10.24,86.41,10.24Zm1,3.17c0-.05.05-.11.13-.1s0,.09,0,.1S87.44,13.39,87.38,13.41Z" style="fill:#ace6ff"/><path d="M79.69,16.38c0-.05-.06,0-.11,0s-.12-.11-.19-.15h-.15c0-.07-.19,0-.2-.12s-.13,0-.13-.05-.06-.44-.26-.33a.28.28,0,0,1-.13-.23c-.11,0-.19-.11-.3-.15s0,.05-.07.05-.13-.09-.15-.2,0,.07-.09.08,0-.09-.11-.1,0,.08-.1.07-.12.15-.18.23c0-.08,0-.12-.08-.13s-.08.09-.15.1,0-.24,0-.4S77.1,15,77,15a.65.65,0,0,0,.07-.33.41.41,0,0,1-.22,0c0,.06,0,.18-.08.2-.29,0-.11-.43-.18-.63a1.24,1.24,0,0,0,.2-.1c.12,0,.15.09.26.08s0-.07,0-.08.24,0,.26.08.05.21.15.23a.75.75,0,0,1,0-.26.2.2,0,0,1-.06-.12.34.34,0,0,1,.28-.3.19.19,0,0,0,0-.15.18.18,0,0,0,.11,0c-.06-.14.07-.11,0-.28l.22-.1c0-.08-.07,0,0-.15a1.28,1.28,0,0,1,.31-.15c0,.07,0,0,0,.1a.65.65,0,0,0,.24-.15c-.05,0-.16,0-.15-.13s.08-.07.13-.1,0,0,0-.12c.1.08.23-.12.3-.08s-.15.21-.19.35.09,0,.17,0,0,.1,0,.1.08,0,.15,0,0-.13,0-.18-.09-.08-.13-.15a1.71,1.71,0,0,0,0-.32s0,0-.1,0-.1-.12-.11-.23a.25.25,0,0,0,0-.1c-.08-.06,0-.24-.17-.25s0,.13,0,.12-.14,0-.15,0v-.25c-.11.06-.09-.06-.19-.08s0,0-.11,0,0,0-.11,0c0,.25-.06.39,0,.58,0,0-.11-.07-.13,0s.07,0,.08.05-.07.19-.1.3a1.32,1.32,0,0,1-.09-.3c0-.05,0,0-.09,0s0,0-.08,0a.61.61,0,0,0-.24-.18c0-.12-.08-.08-.07-.17s0,0,.05-.08.1-.13.17-.17.08-.2.2-.21,0,0,0-.1a1.17,1.17,0,0,0,.33-.1.67.67,0,0,1,0-.25s-.08,0-.11-.07.16,0,.2.05.1,0,.17,0,.1.07.09.17-.26.12-.28.3.12.06.21.05.19.24.37.26c0-.13,0-.13,0-.28s-.06-.08-.06-.15.1.08.17.1,0-.13.07-.1,0-.09,0-.15,0-.05-.07-.08a1.07,1.07,0,0,1-.19-.07c0-.06.06,0,.06-.1s-.09-.08-.08-.18h-.2c0-.08-.06-.07-.06-.13a.69.69,0,0,0-.22,0c0-.16-.17-.11-.2,0,0-.09,0-.14-.08-.15s-.25.34-.11.48.11,0,.11,0a.71.71,0,0,1-.11.17c-.06-.06,0-.05,0-.15a.45.45,0,0,1-.17-.23c-.09,0-.07-.08-.18,0s0,.06,0,.13.05.23,0,.28,0-.07,0-.13-.11.09-.2.1-.17-.07-.21-.15.13,0,.21,0,0-.08,0-.15.17-.15.29-.18a.58.58,0,0,1-.05-.2h-.32c0,.07-.16.07-.18.17a1,1,0,0,1,0-.1c-.06,0-.14,0-.11-.07s.35-.09.5-.15c0,.11.19.08.22,0a.69.69,0,0,0,0-.17c-.12,0-.19.11-.32.12V9.86c-.12,0-.14.12-.07.15-.12,0-.19,0-.3,0s-.1.07-.11.15.07,0,.09,0a.09.09,0,0,1-.09.05c0-.14-.21-.13-.37-.12a.34.34,0,0,1-.13.25c0,.08.06.08.05.17a.42.42,0,0,0,.23-.07c0,.14.12,0,.13.1s-.1,0-.08.05.24,0,.19.18c.08-.06.11,0,.2,0h0s.06-.09.06,0,0,0-.06,0,.09.14,0,.17,0,0,0-.07c-.19,0-.29-.15-.52-.13-.07,0-.07-.12-.15-.12s-.07.08-.13.1a.39.39,0,0,0,0-.13c-.09,0-.09.11-.18.1s-.1,0-.17,0,0,.05-.05.05,0,0,0-.05-.08,0-.15,0-.5-.06-.69-.18a1.51,1.51,0,0,1-.48.13c-.05.1,0,.1.07.18s.13,0,.15.07-.08,0-.11.08-.06-.07-.11-.08-.28.06-.35.18c.12,0,.17.08.18.2.11,0,.2,0,.3,0-.1.23-.56,0-.52.43.07.06.09.07.07.2s0,0,.08,0,0,.1,0,.1,0,.1.07.07a.1.1,0,0,1,.19,0c-.09.08-.12.23-.23.3s-.14.14-.27.15c0,.08,0,.07,0,.12s.14,0,.24,0a.16.16,0,0,1,.17-.1,1.76,1.76,0,0,1,.35-.41h0s0-.09.07-.07,0,0,0,0,0,0,0,0-.06.13-.09.2c.18,0,.23-.11.37-.13a1.14,1.14,0,0,0,0-.27c.1,0,.1-.07.19-.05a.87.87,0,0,1,.16.17.31.31,0,0,1,.23.36c.11,0,0-.14.09-.15a1.59,1.59,0,0,0,.07.57c-.07.07,0,.1,0,.18s-.06,0,0,.1a5.93,5.93,0,0,0,0,.73c.06,0,.1.11.15.15s.06.27.14.35,0,.05,0,.08.12.16.16.25.06,0,.12,0,0-.09,0-.23,0,0,0,0v0s0,0,0,.07a.91.91,0,0,1,.18.21.66.66,0,0,0,.08.37c.18.06.29.19.5.13l.09.18c.08,0,.1,0,.17,0a.28.28,0,0,0,.11.13v.07c.13,0,.15.15.26.18s0-.09.07-.1a.86.86,0,0,0,.06.23c0,.05-.06,0,0,.1s-.07.15-.09.25.09.27,0,.35.11.06.15.1-.07,0-.11.05a.3.3,0,0,0,.2.33c0,.06,0,.05,0,.12s.11.21.24.23a.85.85,0,0,1,.11.35s0,.1,0,.13,0,.05,0,.1,0,.25,0,.4-.07.37-.11.53.09,0,.11,0-.08.11-.11.17.07,0,0,.1,0,.12,0,.2.09.26,0,.41.06.2.13.25,0,.05,0,.1.09.05.13.07.23.05.24,0a.17.17,0,0,1-.13-.1c0-.08-.09,0-.06-.12s.06-.13.06-.23.09,0,.09-.1-.08-.06-.07-.15.15-.33,0-.35c.15,0,.14-.09.18-.18s.15-.07.24-.1,0-.16,0-.25h.18s0,0,0,0,0-.13.09-.12c0-.14.08-.17.13-.25v-.18s.06-.11.1-.15l.2-.08c0-.16.11-.3,0-.47a.14.14,0,0,0,0-.13s0,0,.06,0,.07-.11.09-.17,0-.12.06-.15,0-.09,0-.15A.53.53,0,0,0,79.69,16.38Zm-1-4.18s0,0,0,0S78.69,12.19,78.69,12.2Zm-1.67-2c.07,0,0,.07,0,.1S77,10.25,77,10.24Zm-.08.12c.07,0,.08.05.15,0s-.08.1-.15.12Zm-.67.05s0,0,0,0S76.27,10.42,76.27,10.41ZM75.81,14s0,0,0,0S75.81,14.05,75.81,14Zm0,.05s0,.08.09.1S75.82,14.16,75.83,14.09Z" style="fill:#ace6ff"/><path d="M84.11,10.62c0-.12-.13-.15-.11-.33.16,0,.21-.14.33-.2a.18.18,0,0,0,.22-.18h-.11s0,.05,0,.05a1.34,1.34,0,0,0-.41.15c0,.13-.1.11-.08.25s-.09.08-.09.15l.22.16S84.07,10.61,84.11,10.62Z" style="fill:#ace6ff"/><path d="M87.73,10.16s.08-.11.13-.15-.1-.11-.17-.1,0,.06,0,.05h-.13C87.49,10.14,87.67,10.08,87.73,10.16Z" style="fill:#ace6ff"/><path d="M80.82,11.29c0-.06.08,0,.11-.07s-.05-.14-.05-.25-.12,0-.21,0-.06-.1-.13-.1-.09.09-.09.18.06,0,.11,0-.09.06-.07.15.09.09.15.1S80.79,11.27,80.82,11.29Z" style="fill:#ace6ff"/><path d="M77.85,11.29c-.09,0,0-.06-.09-.12s-.06,0-.13,0,0,.16-.11.13.07.1.15.1C77.67,11.17,77.82,11.45,77.85,11.29Z" style="fill:#ace6ff"/><path d="M81.66,12.2a.27.27,0,0,1-.08-.07c0-.15-.15-.18-.07-.31l-.09-.07a.1.1,0,0,0,.07-.1.29.29,0,0,0-.17,0c0,.13,0,.19,0,.32l.11.06c0,.08-.07.13-.11.1a.34.34,0,0,0,0,.22s-.12,0-.11.08a1.31,1.31,0,0,1,.35,0C81.59,12.35,81.58,12.27,81.66,12.2Z" style="fill:#ace6ff"/><path d="M81.08,12.3s.13,0,.17-.05a.88.88,0,0,1,0-.23h-.11c0,.12,0,0-.08.08S81.05,12.26,81.08,12.3Z" style="fill:#ace6ff"/><path d="M88.51,13s0,.08.07.08,0-.19.13-.2c-.12,0-.19-.09-.31-.1a1.18,1.18,0,0,1,0,.27C88.44,13.15,88.44,13,88.51,13Z" style="fill:#ace6ff"/><path d="M88,13.81c0,.09,0,.11.09.15a.21.21,0,0,1,.13-.17.08.08,0,0,1,.06,0c.08-.09.22-.1.29-.2s0-.31,0-.5h-.08c0,.12,0,.17,0,.3s0,0,0,.05a.65.65,0,0,0-.2.15c-.07.05-.21,0-.21.15s.11,0,.1.05Z" style="fill:#ace6ff"/><path d="M82.73,13.61c0,.07.07,0,.12.08,0-.1,0-.11-.1-.1S82.74,13.61,82.73,13.61Z" style="fill:#ace6ff"/><path d="M87.56,14.47a.26.26,0,0,1,.06.15c.09,0,.09-.13.09-.23S87.58,14.41,87.56,14.47Z" style="fill:#ace6ff"/><path d="M77.52,14.39v.1h.09C77.61,14.43,77.58,14.39,77.52,14.39Z" style="fill:#ace6ff"/><path d="M77.76,14.52a.17.17,0,0,0,0-.13h-.07C77.67,14.48,77.68,14.53,77.76,14.52Z" style="fill:#ace6ff"/><path d="M77.78,14.49v.13s.06,0,.09,0S77.84,14.49,77.78,14.49Z" style="fill:#ace6ff"/><path d="M77.74,14.89c.08,0,.11,0,.15,0s.09,0,.15,0c0-.16-.15-.14-.28-.15s0-.05,0-.1-.12,0-.13-.1h-.33c0,.05,0,.07,0,.13s.09-.08.19-.05.11.13.2.15.16,0,.17,0S77.73,14.83,77.74,14.89Z" style="fill:#ace6ff"/><path d="M78,14.62s-.06,0-.09,0S78,14.71,78,14.62Z" style="fill:#ace6ff"/><path d="M87.64,14.89a.44.44,0,0,0,.14.16c0-.08.09-.11.08-.23A.12.12,0,0,0,87.64,14.89Z" style="fill:#ace6ff"/><path d="M87.12,15c.07,0,.07-.1.09-.15a.12.12,0,0,0-.09,0C87.08,14.89,87.1,14.81,87.12,15Z" style="fill:#ace6ff"/><path d="M77.5,14.84v.1c.07,0,.08,0,.15,0S77.57,14.85,77.5,14.84Z" style="fill:#ace6ff"/><path d="M78.09,14.94c.07,0,.15,0,.13-.1h-.13Z" style="fill:#ace6ff"/><path d="M80.36,14.94c0,.05-.06,0,0,.11h.09C80.41,15,80.4,15,80.36,14.94Z" style="fill:#ace6ff"/><path d="M87.82,15.35c0,.05.06,0,.13,0s0,.11,0,.12a.17.17,0,0,1,.2-.1c0-.11-.07-.1-.11-.15s0-.12-.09-.12,0,.1,0,.17S87.85,15.29,87.82,15.35Z" style="fill:#ace6ff"/><path d="M85.67,15.42c0,.15-.08.18,0,.25s.06-.06.11-.07A.37.37,0,0,0,85.67,15.42Z" style="fill:#ace6ff"/><path d="M87.1,16.1c0,.1.12.12.11.25.14,0,.12.12.26.08,0-.06.06,0,.07-.08s-.05,0-.05,0,0-.19.11-.23,0-.16,0-.22a.11.11,0,0,0,.06-.13c0-.05-.09-.11-.19-.1C87.43,15.91,87.14,15.86,87.1,16.1Z" style="fill:#ace6ff"/><path d="M86.69,15.93c0-.06-.1-.1-.08-.18s0-.05-.09-.05,0,0-.11,0c0,.3.3.24.26.58.11,0,.14.18.24.13s0-.21,0-.33A.74.74,0,0,1,86.69,15.93Z" style="fill:#ace6ff"/><path d="M87.91,16.13c0-.11-.14-.08-.18-.15-.11.1-.19.38,0,.47a.21.21,0,0,1,0-.15c0,.05,0,.13.13.08s-.08-.14-.08-.25A.08.08,0,0,0,87.91,16.13Z" style="fill:#ace6ff"/><path d="M88.38,16c-.07-.05-.24,0-.24.07S88.38,16.13,88.38,16Z" style="fill:#ace6ff"/><path d="M88.62,16.13h-.15s0,.08-.09.07,0-.07-.1-.05-.09,0-.07.1.05,0,.11,0a2.43,2.43,0,0,1,.3.26v.15c.12-.09.15.05.24.07s0-.12.15-.1.11.19.2.1-.07-.07-.07-.15S89,16.49,89,16.4v-.07C88.8,16.32,88.75,16.17,88.62,16.13Z" style="fill:#ace6ff"/><path d="M87.47,16.71c0-.09-.08-.07-.06-.15a1.14,1.14,0,0,1-.44-.11c0,.05-.06.07,0,.16C87.14,16.61,87.23,16.74,87.47,16.71Z" style="fill:#ace6ff"/><path d="M89.08,17.69c0-.12,0-.18,0-.3s0-.08-.08-.1c0-.2-.16-.23-.13-.46,0,0,0,0-.09,0s0,.36-.07.43,0-.09-.13-.06-.1,0-.08-.12.1,0,.08-.1-.29,0-.41-.08,0,.12,0,.13a.81.81,0,0,0-.22.07c0,.08,0,.21-.08.23s-.11,0-.18,0,0,.14,0,.15,0-.07-.09,0,0,.21-.11.25-.14,0-.17.07.08.26,0,.38a.17.17,0,0,1,.07.13c0,.11,0,.15,0,.27s.06.06.13.05.14-.13.3-.1a.45.45,0,0,1,.41-.12.41.41,0,0,1,.13.22c.09,0,.06.06.15,0s0,.15,0,.18a.64.64,0,0,0,.43.1c.06,0,.1-.11.18-.13s.1-.11.09-.25,0-.12.13-.12,0-.14,0-.23a1.69,1.69,0,0,0-.07-.45C89.13,17.65,89.09,17.76,89.08,17.69Z" style="fill:#ace6ff"/><path d="M84,16.88a.75.75,0,0,0-.09.25c-.1,0-.14.11-.2.18s0,.1,0,.18a.69.69,0,0,1-.07.15c0,.11,0,.21.07.3s.09,0,.17,0a2.29,2.29,0,0,1,.09-.28v-.13s0,0,0-.05,0-.21,0-.4C84,17.06,84.12,16.87,84,16.88Z" style="fill:#ace6ff"/><path d="M90.27,18.59c0-.07,0-.13-.07-.12v.2c0,.07-.1.07-.09.18s0,.07,0,.15.14-.17.19-.28.1,0,.11-.1S90.37,18.6,90.27,18.59Z" style="fill:#ace6ff"/><path d="M90,18.9c0,.05-.07.07-.07.15a.11.11,0,0,0-.08,0c0,.05,0,.13-.11.15s-.12.15-.15.26c.07-.05.11,0,.19,0s.09-.07.07-.18H90c0-.14.17-.1.18-.25S90.07,18.94,90,18.9Z" style="fill:#ace6ff"/><path d="M88.55,19s.08.15.09.23.17-.07.15-.23C88.7,19,88.59,18.94,88.55,19Z" style="fill:#ace6ff"/><path d="M78.74,19.75h.08C78.84,19.65,78.73,19.67,78.74,19.75Z" style="fill:#ace6ff"/><path d="M75.84,56.69s-2.51,8.89-4.52,12.07-2.72-1-2.72-1L71.1,53l5.84,0S76.79,53.29,75.84,56.69Z" style="fill:#2c7eea"/><path d="M73.06,53S74.74,67.6,75,68.33c.82,2.48,2.68.88,3,.06A70.59,70.59,0,0,0,78.62,57c-.1-4.46-.1-4.17-.1-4.17Z" style="fill:#2c7eea"/><path d="M78.19,81.65c.08.1,0,.38,0,.38a9.78,9.78,0,0,1-2,0,2.7,2.7,0,0,1-.54-.25s-.1-.14-.13-.16-.09,0-.14,0a1,1,0,0,1-.23-.16,1.4,1.4,0,0,1,0-1s1.29-.43,1.53-.13A10.73,10.73,0,0,0,78.19,81.65Z" style="fill:#161711"/><path d="M68.78,81l-.21,1.13H67.42s-.06-.16-.16-.16-.19.16-.3.16H64s-.05-.24,0-.32a1.19,1.19,0,0,1,.35-.15c.6-.17,2.29-.69,2.59-1.25S68.78,81,68.78,81Z" style="fill:#161711"/><path d="M75.26,37.14c0,.37.25.66.5.64h0c.26,0,.44-.33.42-.7l0-.47c0-.37-.25-.66-.5-.64h0c-.26,0-.44.33-.41.71Z" style="fill:#e2c59c"/><path d="M73.75,41c.11.48.49.85.83.82l1-.13c.33-.06.59-.52.58-1L76,38.23a2.09,2.09,0,0,0-.92-1.62,1.53,1.53,0,0,0-1.46.2,2,2,0,0,0-.45,1.81C73.37,39.4,73.56,40.19,73.75,41Z" style="fill:#e2c59c"/><path d="M81.52,50.91l-3.73,3.83s4.5-1,4.7-2.9S81.52,50.91,81.52,50.91Z" style="fill:#e9d6b8"/><path d="M70.34,41.92l3-1.12,1.63.49,2-.23,2.23,1s1,1,.07,4.07a27.8,27.8,0,0,0-.58,8l-7.92.35s-.29-4.52-.67-9C69.8,41.92,70.69,42.69,70.34,41.92Z" style="fill:#86c0f0"/><path d="M77.77,42.16s1.23-1,2.44.83a33.25,33.25,0,0,1,3.3,6.41c.22.62.51,2.48-.35,3l-.87.55L80.5,51.88l.29-.55.14-.34s-1-2.21-2.08-4.21A11.21,11.21,0,0,1,77.77,42.16Z" style="fill:#86c0f0"/><path d="M73.12,39.65a.9.9,0,0,0,1.07.51c.42-.09.53-.08.94-.17s.69-.82.62-1.37c-.12-.9.12-1.74,0-2.64-.06-.54-.43-.93-1.17-1.1s-1.56-.6-2.1-.19a2.1,2.1,0,0,0-.42,2.09Z" style="fill:#e9d6b8"/><polygon points="74.98 41.3 75.65 42.39 76.96 40.94 76.38 40.32 74.98 41.3" style="fill:#74b2e8"/><polygon points="73.61 40.3 74.4 41.1 73.87 42.05 73.22 40.8 73.61 40.3" style="fill:#74b2e8"/><path d="M74.56,62.11s.37,5.53.32,8.46a97.86,97.86,0,0,0,.29,10c0,.22,1.82.05,1.82.05s1.21-13.78,1.4-16S76,60.5,74.56,62.11Z" style="fill:#2c7eea"/><path d="M69.23,68.23a16.81,16.81,0,0,0,2.1.25c.73.07-2.13,12.76-2.13,12.76l-2.26-1,1.7-12.78Z" style="fill:#2c7eea"/><path d="M75.84,35.21l-.09.77s-.9-.53-1.56-1a5.13,5.13,0,0,0-2.06.51c-.25.13-.17.49-.17.71,0,.79-.3-1.24-.3-1.24a2.16,2.16,0,0,1,1.14-1.46,1,1,0,0,1,1.19.34c.07.08-.63,0-.53,0a6.26,6.26,0,0,1,.85.37,3,3,0,0,0,.53.48C75.57,35.22,75.84,35.21,75.84,35.21Z" style="fill:#163f59"/><polygon points="73.73 36.34 73.34 36.53 73.53 36.74 73.24 36.97 73.33 38.35 73.89 38.21 73.72 37.41 73.92 36.91 74.73 36.56 73.73 36.34" style="fill:#e2c59c"/><polygon points="82.33 52.64 80.79 51.33 80.18 52.16 81.7 53.4 82.33 52.64" style="fill:#86c0f0"/><path d="M78.89,53.28l-.23.06a1,1,0,0,1-.18.57c-.1.12-.47.46-.47.46l-.53.51-.26.22s-.16.11-.18.17.1.14.1.14l1.1-.75-.83,1s-.09.14,0,.21.08,0,.08,0l1.2-.88-.37.55s-.08.14,0,.21l.07.1.91-1S79.14,53.2,78.89,53.28Z" style="fill:#e9d6b8"/><path d="M78.36,54.87l-.55.72a.65.65,0,0,0-.16.25.11.11,0,0,0,.08.15l.93-1Z" style="fill:#e9d6b8"/><path d="M75,54.19H74.2a31.8,31.8,0,0,1,.13-13.14l.76.31A30.17,30.17,0,0,0,75,54.19Z" style="fill:#74b2e8"/><path d="M64.19,52.6l-2.89,4-1.17,0s0-.07.25-.2c.08,0,.44,0,.5-.07s.44-.21.46-.37a13.86,13.86,0,0,1,.77-4.09C63.06,50,64.26,52.55,64.19,52.6Z" style="fill:#e9d6b8"/><path d="M70.94,41.72s-2,.4-5.29,4.58-3.05,4.39-3.05,4.39l-.51,1.12,1.78,1.37,5.77-6.59Z" style="fill:#86c0f0"/><path d="M71.25,44.8l-4.09,4.48-1.65,1.48L66,49.9s.36-.52,2.3-3a15.58,15.58,0,0,1,2.35-2.55Z" style="fill:#74b2e8"/><polygon points="63.04 51.26 64.22 52.05 64.49 52.29 63.88 53.13 62.76 51.95 63.04 51.26" style="fill:#74b2e8"/><path d="M59.69,55.94c-.33.2-1,.48-.76.61l1.17-.47.62,0,.36.34.23-.34c.15,0,.27-.09.19-.34l.1-.14a2.58,2.58,0,0,0-.79-.11l-.58.15A2.77,2.77,0,0,0,59.69,55.94Z" style="fill:#e9d6b8"/><rect x="84.45" y="31.73" width="9.31" height="7.89" rx="0.32" ry="0.32" style="fill:#fff"/><path d="M84.45,32.87v-.82a.32.32,0,0,1,.32-.32h8.68a.32.32,0,0,1,.32.32v.82" style="fill:#86c0f0"/><rect x="88.09" y="34.1" width="0.63" height="0.63" style="fill:#d9e1e4"/><rect x="89.35" y="34.1" width="0.63" height="0.63" style="fill:#d9e1e4"/><rect x="90.61" y="34.1" width="0.63" height="0.63" style="fill:#d9e1e4"/><rect x="91.88" y="34.1" width="0.63" height="0.63" style="fill:#d9e1e4"/><rect x="85.56" y="35.36" width="0.63" height="0.63" style="fill:#d9e1e4"/><rect x="86.83" y="35.36" width="0.63" height="0.63" style="fill:#d9e1e4"/><rect x="88.09" y="35.36" width="0.63" height="0.63" style="fill:#9fc400"/><rect x="89.35" y="35.36" width="0.63" height="0.63" style="fill:#9fc400"/><rect x="90.61" y="35.36" width="0.63" height="0.63" style="fill:#d9e1e4"/><rect x="91.88" y="35.36" width="0.63" height="0.63" style="fill:#d9e1e4"/><rect x="85.56" y="36.62" width="0.63" height="0.63" style="fill:#4e99ff"/><rect x="86.83" y="36.62" width="0.63" height="0.63" style="fill:#4e99ff"/><rect x="88.09" y="36.62" width="0.63" height="0.63" style="fill:#4e99ff"/><rect x="89.35" y="36.62" width="0.63" height="0.63" style="fill:#d9e1e4"/><rect x="90.61" y="36.62" width="0.63" height="0.63" style="fill:#2c7eea"/><rect x="91.88" y="36.62" width="0.63" height="0.63" style="fill:#d9e1e4"/><rect x="85.56" y="37.89" width="0.63" height="0.63" style="fill:#d9e1e4"/><rect x="86.83" y="37.89" width="0.63" height="0.63" style="fill:#d9e1e4"/><rect x="88.09" y="37.89" width="0.63" height="0.63" style="fill:#d9e1e4"/><line x1="85.72" y1="34.42" x2="86.04" y2="34.42" style="fill:none;stroke:#a5b6be;stroke-width:0.2217938572125882px"/><line x1="86.98" y1="34.42" x2="87.3" y2="34.42" style="fill:none;stroke:#a5b6be;stroke-width:0.2217938572125882px"/><line x1="92.03" y1="38.2" x2="92.35" y2="38.2" style="fill:none;stroke:#a5b6be;stroke-width:0.2217938572125882px"/><line x1="90.77" y1="38.2" x2="91.09" y2="38.2" style="fill:none;stroke:#a5b6be;stroke-width:0.2217938572125882px"/><line x1="89.51" y1="38.2" x2="89.82" y2="38.2" style="fill:none;stroke:#a5b6be;stroke-width:0.2217938572125882px"/><line x1="87.93" y1="32.36" x2="90.77" y2="32.36" style="fill:none;stroke:#fff;stroke-width:0.2217938572125882px"/><line x1="85.08" y1="32.36" x2="85.4" y2="32.36" style="fill:none;stroke:#fff;stroke-width:0.2217938572125882px"/><line x1="92.82" y1="32.36" x2="93.13" y2="32.36" style="fill:none;stroke:#fff;stroke-width:0.2217938572125882px"/><rect x="84.45" y="32.88" width="9.31" height="0.22" style="fill:#d8e5ed"/><path d="M61.7,29.37H68a.7.7,0,0,1,.71.7v4.58a.71.71,0,0,1-.71.71h-.7v1.4l-1.58-1.4H61.7a.71.71,0,0,1-.7-.71V30.07A.7.7,0,0,1,61.7,29.37Z" style="fill:#2c7eea"/><line x1="66.99" y1="34.3" x2="66.99" y2="32.19" style="fill:none;stroke:#fff;stroke-width:0.7044485481443071px"/><line x1="65.58" y1="34.3" x2="65.58" y2="33.24" style="fill:none;stroke:#fff;stroke-width:0.7044485481443071px"/><line x1="64.17" y1="34.3" x2="64.17" y2="30.42" style="fill:none;stroke:#fff;stroke-width:0.7044485481443071px"/><line x1="62.76" y1="34.3" x2="62.76" y2="31.48" style="fill:none;stroke:#fff;stroke-width:0.7044485481443071px"/><path d="M5,82.45C5,87.14,25.15,91,50,91s45-3.81,45-8.5S74.85,74,50,74,5,77.76,5,82.45Z" style="fill:#d1f0ff;opacity:0.5;mix-blend-mode:multiply"/><path d="M82.16,46.72h1v.52A1.21,1.21,0,0,0,82.16,46.72Z" style="fill:#dce5ea"/><path d="M81.86,46.72v1.42a1.25,1.25,0,0,0,1.24,1.24h.06v2.19H78.73V46.72Z" style="fill:#dce5ea"/><path d="M79.43,49.82s1.74.62.07,5.59-2.78,4.38-2.78,4.38l-1.37-.14L72.7,56.52l1.43-1.25.28.12a.69.69,0,0,0,.41-.5A32.1,32.1,0,0,0,76,50.2C76.27,48.85,79.1,49.69,79.43,49.82Z" style="fill:#cfd9e8"/><path d="M73.08,56.58a4.28,4.28,0,0,1-5.59-1.64c-.64-1-.36.15,0,1.25S70,59.79,72.38,60s3.34,0,3.8-.81S73.08,56.58,73.08,56.58Z" style="fill:#ffc4ad"/><path d="M76,55.78l-.87-.56L74.79,55a.77.77,0,0,1-.38.38l.73.3.79.51.81,1Z" style="fill:#aebddc"/><path d="M76.23,64.11,82.72,64l2.69-9s1.24-5.44-1.07-5.53c-3.35-.13-7.75-.07-7.75-.07S74.33,51.3,76.23,64.11Z" style="fill:#cfd9e8"/><path d="M78.56,63.62l-.77.12a40.2,40.2,0,0,1,1.3-14.15l.62.21A39,39,0,0,0,78.56,63.62Z" style="fill:#aebddc"/><path d="M65.54,83.29s.64,1,1,.38c1-1.79,1.84-7.44,1.89-9.76.07-3.09.22-5,.22-5l-3.12-1.12Z" style="fill:#163f59"/><path d="M76.46,64.05l-11,3.76,2.88,1.6s11.32,2,11.52-2.21C80.05,63.66,76.46,64.05,76.46,64.05Z" style="fill:#163f59"/><path d="M69.44,83.38s.57.52.9-.07a28,28,0,0,0,2.6-8.87,22.48,22.48,0,0,0-.43-5.24l-3.18-1.11Z" style="fill:#194866"/><path d="M79.86,64.17l-10.47,4,2.87,1.56s10.62,2,10.83-2.22S79.86,64.17,79.86,64.17Z" style="fill:#194866"/><path d="M83.27,67.7a3.16,3.16,0,0,1-.46,1.64c-1,1.2-3.34.8-5.21.8A9.13,9.13,0,0,1,77,68.68L76.2,63.9l6.56.11A31.54,31.54,0,0,1,83.27,67.7Z" style="fill:#194866"/><path d="M72.61,61.12l-2.4-.43s-.37,0-.39.22,0,1.45,0,1.45l.43-.26.62.37.72-.95a2,2,0,0,0,.68,0C72.41,61.49,72.61,61.12,72.61,61.12Z" style="fill:#ffc4ad"/><path d="M78.51,60.44l-6.36.71s3.41,1.74,5,1.75a14,14,0,0,0,3-.35Z" style="fill:#ffc4ad"/><path d="M81.65,53.85l-3.18,6,.18.49-.49.09,1.49,2.36L82,62.27,86.16,54a4.36,4.36,0,0,0-1.11-4.42C84.05,48.6,81.93,53.36,81.65,53.85Z" style="fill:#aebddc"/><path d="M80.84,61.91s-1.51-1.15-2.27-1.78l.08.22-.49.09.52.81.9,1,.52-.19-.2-.37Z" style="fill:#cfd9e8"/><path d="M78.84,45.21a.79.79,0,0,0,.78.79h3a.79.79,0,0,0,.79-.79h0a.79.79,0,0,0-.79-.79h-3a.79.79,0,0,0-.78.79Z" style="fill:#163f59"/><path d="M79.38,46.57A1.45,1.45,0,0,0,80.83,48h1.55a1.46,1.46,0,0,0,1.46-1.46h0a1.45,1.45,0,0,0-1.46-1.45H80.83a1.45,1.45,0,0,0-1.45,1.45Z" style="fill:#163f59"/><path d="M78.21,48.9V44.36c0-.73.59,0,1.31,0h.7a1.3,1.3,0,0,1,1.31,1.31V48.9Z" style="fill:#ffc4ad"/><path d="M81,46.68a.58.58,0,0,0,.58.58h0a.58.58,0,0,0,.58-.58h0a.57.57,0,0,0-.58-.57h0a.57.57,0,0,0-.58.57Z" style="fill:#ffc4ad"/><path d="M78.59,47.48a.32.32,0,0,1-.32.33H78a.32.32,0,0,1-.32-.33s.59-1.73.77-1.73a.56.56,0,0,1,.14.34Z" style="fill:#ffc4ad"/><path d="M80.05,48.65c1.31,0,1.45-.4,1.48-.86a9.49,9.49,0,0,1,.35,1.52v.41a1.67,1.67,0,0,1-1.83,1.45H78.21V48.65Z" style="fill:#163f59"/><path d="M78.21,47.81h1.05a.87.87,0,0,1,.88.87,1.46,1.46,0,0,1,0,.22h-1.9Z" style="fill:#163f59"/><path d="M79.57,48.72V49a.15.15,0,0,1-.15.14h-.85a.14.14,0,0,1-.14-.14v-.3Z" style="fill:#ffc4ad"/><path d="M78.67,43.55h2.68a.52.52,0,0,1,.53.52v1H78.67Z" style="fill:#163f59"/><path d="M77,44.33a.79.79,0,0,0,.79.79h1.82a.79.79,0,0,0,.79-.79h0a.79.79,0,0,0-.79-.79H77.79a.8.8,0,0,0-.79.79Z" style="fill:#163f59"/><rect x="80.84" y="44.74" width="0.73" height="1.91" style="fill:#163f59"/><rect x="79.2" y="43.92" width="2.14" height="2.25" style="fill:#163f59"/><path d="M80.84,46.2a1.09,1.09,0,0,0-1.08-1.08H79.2a1,1,0,0,0-.92,1.08h0a1.08,1.08,0,0,0,1.08,1.08h.4a1.08,1.08,0,0,0,1.08-1.08Z" style="fill:#ffc4ad"/><path d="M67.76,56.12s.51-1.24.33-1.58-1-1.51-1-1.51l-.22-.29s-.45.07.07.86.05.54.05.54l-.74-.54-1-.59-.39-.31s-.21-.2-.3-.2c-.26,0-.17.19-.17.19L65.89,54l-1.66-.89s-.23-.08-.31,0,0,.14,0,.14l1.64,1.45-.91-.37s-.23-.07-.32,0a.88.88,0,0,1-.12.12l3.34,1.87Z" style="fill:#ffc4ad"/><path d="M65.63,54.28l-1.21-.57a1.09,1.09,0,0,0-.41-.15.18.18,0,0,0-.2.16l1.74,1Z" style="fill:#ffc4ad"/><path d="M68.42,84.34a.79.79,0,0,0,0,.34,4.78,4.78,0,0,0,1.3.06,1.36,1.36,0,0,0,.35-.22s0-.12.08-.13.06,0,.09,0a.68.68,0,0,0,.15-.14,1.68,1.68,0,0,0,0-.86s-.84-.39-1-.12A6.85,6.85,0,0,1,68.42,84.34Z" style="fill:#194866"/><path d="M66.6,83.57l-.14.89h-.74s0-.13-.1-.13-.12.13-.2.13H63.54s0-.19,0-.25.15-.09.23-.12c.38-.13,1.54-.42,1.8-.83S66.6,83.57,66.6,83.57Z" style="fill:#163f59"/><path d="M93.61,47.84V42.93a.67.67,0,0,0-.66-.66H86.74a.66.66,0,0,0-.66.66V44.4l-.33.33-.66.66.66.66.33.33v1.46a.65.65,0,0,0,.66.66H93A.66.66,0,0,0,93.61,47.84Z" style="fill:#3dc7c9"/><path d="M87.77,45.12v.63h.66a1.5,1.5,0,0,0,.23.55l-.47.47.45.45.47-.47a1.54,1.54,0,0,0,.56.23v.67h.63V47a1.5,1.5,0,0,0,.55-.23l.47.47.45-.45-.47-.47a1.5,1.5,0,0,0,.23-.55h.66v-.63h-.66a1.62,1.62,0,0,0-.23-.56l.47-.47-.45-.44-.47.47a1.5,1.5,0,0,0-.55-.23v-.67h-.63v.67a1.54,1.54,0,0,0-.56.23l-.47-.47-.45.44.47.47a1.62,1.62,0,0,0-.23.56ZM90,44.49a.95.95,0,1,1-1,.94A.95.95,0,0,1,90,44.49Z" style="fill:#fff"/><path d="M89.86,81.91a5.88,5.88,0,0,1,1.29-2.42,9.83,9.83,0,0,1,2.42-1.87c1-.4,1.29-1.12.9-1.37s-1.7-1-3.28.69a5.75,5.75,0,0,0-2,4.5C89.28,83,89.78,82.81,89.86,81.91Z" style="fill:#3dc7c9"/><path d="M93.89,76.53a9.6,9.6,0,0,0-2.3,1,5.55,5.55,0,0,0-2.13,3.53" style="fill:none;stroke:#33a8b5;stroke-miterlimit:10;stroke-width:0.19281007122930932px"/><path d="M89.42,82.48s-.81-2.3-1.15-3a4,4,0,0,1,.24-3.12,3.5,3.5,0,0,0,1-3.17c-.38-1.49-.19-2.41.53-1.83a5.12,5.12,0,0,1,.72,7.49A7,7,0,0,0,89.42,82.48Z" style="fill:#acd5f4"/><path d="M89.17,81.93s-.43-2.3,0-3.24a14.45,14.45,0,0,0,1.55-3.82,5.15,5.15,0,0,0-.79-2.81" style="fill:none;stroke:#86c0f0;stroke-miterlimit:10;stroke-width:0.19281007122930932px"/><path d="M86.22,79.06c-.94-.18-1-1.26-.29-1.48a2.41,2.41,0,0,1,2.49.58,5.08,5.08,0,0,1,.72,3.57c-.22,1.11,0-.44-.47-1.19A4.16,4.16,0,0,0,86.22,79.06Z" style="fill:#194866"/><path d="M85.79,78.18A2.68,2.68,0,0,1,88,78.8a4.39,4.39,0,0,1,1.26,2.64" style="fill:none;stroke:#161711;stroke-miterlimit:10;stroke-width:0.14409253585524026px"/><polygon points="90.97 84.67 88.38 84.67 87.95 80.49 91.41 80.49 90.97 84.67" style="fill:#2c7eea"/><path d="M50.49,73.16l.65,1L45.7,75.89s-.37-.35,1-1C48.22,74,50.49,73.16,50.49,73.16Z" style="fill:#88bdda"/><path d="M51.46,73.16l-.65,1,5.45,1.75s.36-.35-1-1C53.73,74,51.46,73.16,51.46,73.16Z" style="fill:#88bdda"/><rect x="50.41" y="70.21" width="1.14" height="4.05" style="fill:#88bdda"/><path d="M50.42,73.36l.56,1L46.31,76s-.31-.33.84-1C48.48,74.2,50.42,73.36,50.42,73.36Z" style="fill:#91e2f6"/><path d="M51.53,73.36l-.55,1L55.64,76s.31-.33-.83-1C53.48,74.2,51.53,73.36,51.53,73.36Z" style="fill:#91e2f6"/><path d="M46.84,76.35a.39.39,0,0,1-.39.39.4.4,0,1,1,0-.79A.39.39,0,0,1,46.84,76.35Z" style="fill:#001f46"/><path d="M55.87,76.35a.39.39,0,0,1-.39.39.4.4,0,1,1,0-.79A.39.39,0,0,1,55.87,76.35Z" style="fill:#001f46"/><path d="M45.89,76.35a.4.4,0,0,1-.4.39.4.4,0,0,1,0-.79A.4.4,0,0,1,45.89,76.35Z" style="fill:#367082"/><path d="M56.83,76.35a.4.4,0,1,1-.4-.4A.4.4,0,0,1,56.83,76.35Z" style="fill:#367082"/><rect x="50.55" y="68.73" width="0.83" height="1.46" style="fill:#367082"/><path d="M52,68a.81.81,0,0,1-.81.81h-.46a.81.81,0,0,1-.81-.81h0a.81.81,0,0,1,.81-.81h.46A.81.81,0,0,1,52,68Z" style="fill:#367082"/><path d="M57.15,67.22c0-.1,0-.7,0-.8a1.09,1.09,0,0,0-1-1.18H45.69a1.08,1.08,0,0,0-.94,1.18c0,.1,0,.7,0,.8Z" style="fill:#3dc7c9"/><path d="M44.65,67.54c0,.2.12.36.26.36H57c.15,0,.27-.16.27-.36h0c0-.2-.12-.36-.27-.36H44.91c-.14,0-.26.16-.26.36Z" style="fill:#367082"/><path d="M53,65.2s-6.78,0-9.39.06c-1.81,0-2-2.56-1.26-3,2.17-1.18,8.93-1.78,8.93-1.78l4.6,4.22S55.61,64.75,53,65.2Z" style="fill:#3d7aa8"/><path d="M46.6,51.37s-1.74-.49-2.5,1.79a17.52,17.52,0,0,0-.9,7.38c.08.31.3,1.4,2.25,1.44.79,0,.47-1.68.47-1.68a35.63,35.63,0,0,0,1-3.87A10.67,10.67,0,0,0,46.6,51.37Z" style="fill:#1f5aea"/><path d="M45.22,51.57l4.47-1.45,3.39-.23L56.78,51s1.22.83.09,3.52-.69,6.9-.69,6.9l-9.57.3s-.18-3.89-.81-7.78A5.63,5.63,0,0,0,45.22,51.57Z" style="fill:#2c7eea"/><path d="M51.78,61.56H51.3a40.62,40.62,0,0,1,.07-11.39l.44.27C51.69,54.27,51.9,58.1,51.78,61.56Z" style="fill:#1f5aea"/><path d="M49.88,51.17a1.12,1.12,0,0,0,.94,1h1.26a1.11,1.11,0,0,0,.93-1c.1-.85.21-1.7.31-2.55a2,2,0,0,0-.91-1.84,2.4,2.4,0,0,0-1.93,0,2,2,0,0,0-.91,1.84C49.68,49.47,49.78,50.32,49.88,51.17Z" style="fill:#e6b09c"/><polygon points="51.5 52.23 52.3 53.54 53.77 51.7 53.54 50.73 53.06 50.34 53.05 51.07 51.5 52.23" style="fill:#1f5aea"/><polygon points="51.4 52.23 50.6 53.54 49.23 51.83 49.45 50.78 49.8 50.34 49.94 51.2 51.4 52.23" style="fill:#1f5aea"/><path d="M51.64,45.16a1,1,0,0,1,.84.45h.35a.78.78,0,0,1,.78.79v1.93h-.55v-.79a.55.55,0,0,0-.55-.55h-.15a1,1,0,0,1-1-1v-.82Z" style="fill:#163f59"/><path d="M52.62,49.05a.47.47,0,0,0,.48.48h0a.47.47,0,0,0,.48-.48v-.58a.47.47,0,0,0-.48-.48h0a.47.47,0,0,0-.44.29" style="fill:#e6b09c"/><path d="M52.07,45.92v-.76H50.41a1,1,0,0,0-1,1v.76h1.66A1,1,0,0,0,52.07,45.92Z" style="fill:#163f59"/><path d="M49.54,49.79a1.59,1.59,0,0,0,.82,1.3,2.94,2.94,0,0,0,2.2,0,1.58,1.58,0,0,0,.82-1.29V46.36a.85.85,0,0,0-.9-.75h-2a.85.85,0,0,0-.9.75Z" style="fill:#ffc4ad"/><path d="M51.07,45.16a1,1,0,0,0-.85.45h-.35a.78.78,0,0,0-.78.79v1.93h.55v-.79a.55.55,0,0,1,.55-.55h.71a1,1,0,0,0,1-1v-.82Z" style="fill:#163f59"/><path d="M50.08,48.47A.47.47,0,0,0,49.6,48h0a.48.48,0,0,0-.48.48v.58a.48.48,0,0,0,.48.48h0a.48.48,0,0,0,.44-.28" style="fill:#ffc4ad"/><path d="M51.91,46.12a.65.65,0,0,1,0-.2v-.76h.71a1,1,0,0,1,1,1v.76H52.9a.75.75,0,0,1-.21,0A1,1,0,0,0,51.91,46.12Z" style="fill:#163f59"/><path d="M60.78,78.16c.11.13,0,.46,0,.46a12,12,0,0,1-2.41.07,3.31,3.31,0,0,1-.65-.31s-.12-.16-.16-.19-.11,0-.17,0a2.08,2.08,0,0,1-.28-.19,1.76,1.76,0,0,1,0-1.17s1.56-.52,1.85-.16A11.46,11.46,0,0,0,60.78,78.16Z" style="fill:#161711"/><path d="M43.73,77.25l-.13,1.38-1.38.14s-.09-.19-.21-.18-.21.22-.34.23l-.74.07-2.77.27s-.09-.27,0-.38a1.38,1.38,0,0,1,.4-.22c.7-.27,2.67-1.1,3-1.81C41.85,75.88,43.73,77.25,43.73,77.25Z" style="fill:#161711"/><path d="M45.82,59.8l4.66,1.91a20.24,20.24,0,0,1-5.38,0C43.7,61.47,45.75,59.74,45.82,59.8Z" style="fill:#ffc4ad"/><path d="M56.41,62.71s.45,4.26.38,6.51A49.32,49.32,0,0,0,57.14,77a9.56,9.56,0,0,0,2.2,0s.78-10.56,1-12.3S59.91,61.69,56.41,62.71Z" style="fill:#3d7aa8"/><path d="M42.76,63.73a3.66,3.66,0,0,0,2.61,1.37c.7.09-1.11,12.36-1.11,12.36l-2.84-.9L42,63Z" style="fill:#316091"/><path d="M50.58,65.1s3.7.53,6.17.79c.91.09,1.7-2.45,1.8-2.56a1.92,1.92,0,0,1,1.29-.63c-.53-.58-3.31-1.11-6.21-1.79s-3.34-.26-3.34-.26Z" style="fill:#316091"/><path d="M53.63,60.91c2.9.68,5.68,1.21,6.21,1.79a1.92,1.92,0,0,0-1.29.63s-.19.85-.31,1.14c.47-.85-6.35-3.26-7.82-3.88A7.2,7.2,0,0,1,53.63,60.91Z" style="fill:#3d7aa8"/><polygon points="56.82 65.07 57.1 73.36 57.38 75.28 57.42 73.36 57.35 72.16 58.02 70.3 58.36 65.98 57.86 66.17 57.92 64.28 56.82 65.07" style="fill:#316091"/><path d="M42.85,62.7l-.69.19-.25,10,1.45,3.57L42.66,74,43,69s1,2.42,1,2.3S43.1,66,43.1,66s.95.79.86.76S43.39,63.18,42.85,62.7Z" style="fill:#3d7aa8"/><path d="M54.73,51.06s1.49-1.17,3,1a29.17,29.17,0,0,1,3.4,7.52,4.66,4.66,0,0,1-.75,3.74c-.21.21-1.47,0-1.47,0L58,62.79l.34-.66,0-.53s-1.06-2.55-2.36-5A13.53,13.53,0,0,1,54.73,51.06Z" style="fill:#2c7eea"/><path d="M58.38,60.76,53.54,61s4.66,2.14,4.81,1.77C59.22,60.69,58.38,60.76,58.38,60.76Z" style="fill:#ffc4ad"/><path d="M55.72,60.61c-.29-.13-.26-.14-.26-.14a1.18,1.18,0,0,1-.63.37c-.19,0-.79,0-.79,0l-.89,0-.41,0a.78.78,0,0,0-.3,0c-.18.12,0,.21,0,.21l1.59.23-1.53.19s-.19.05-.2.16,0,.09,0,.09l1.78.19-.78.19s-.18.06-.2.16a.78.78,0,0,1,0,.14l1.64-.16S56,60.75,55.72,60.61Z" style="fill:#ffc4ad"/><path d="M54,61.6l-1.08.19a.89.89,0,0,0-.35.1.15.15,0,0,0-.05.2L54.11,62Z" style="fill:#ffc4ad"/><path d="M47.22,62.44h0v-.3h9.53v.3h0l0,.06a.84.84,0,0,1-.79.31H48a.83.83,0,0,1-.78-.31Z" style="fill:#b6c2c9"/><rect x="48.83" y="62.2" width="6.31" height="0.22" style="fill:#879ba6"/><path d="M47.23,62.16l0-6.25a.3.3,0,0,1,.3-.29h8.92a.3.3,0,0,1,.3.29l0,6.25Z" style="fill:#e4eef3"/><path d="M51.4,58.89a.58.58,0,1,0,.57-.58A.57.57,0,0,0,51.4,58.89Z" style="fill:#b6c2c9"/><polygon points="59 63.18 59.34 61.06 58.78 60.49 57.56 60.69 57.81 63.03 59 63.18" style="fill:#1f5aea"/><polygon points="44.18 61.65 44.05 60.88 45.59 59.49 46.43 59.87 45.34 61.96 44.18 61.65" style="fill:#1f5aea"/><path d="M15.27,73a1.76,1.76,0,0,1-1.16-.41,3.13,3.13,0,0,1-.74-2.66,9.11,9.11,0,0,1,.75-2.63A10.28,10.28,0,0,0,15,61.73l.65-.1a10.83,10.83,0,0,1-.95,5.92A8.69,8.69,0,0,0,14,70a2.6,2.6,0,0,0,.51,2.11,1.12,1.12,0,0,0,.88.25l.14.65A2.33,2.33,0,0,1,15.27,73Z" style="fill:#367082"/><path d="M20.37,78.29l.65,1L15.57,81s-.36-.35,1-1C18.1,79.17,20.37,78.29,20.37,78.29Z" style="fill:#88bdda"/><path d="M21.34,78.29l-.65,1L26.13,81s.37-.35-1-1C23.6,79.17,21.34,78.29,21.34,78.29Z" style="fill:#88bdda"/><rect x="20.28" y="75.35" width="1.14" height="4.05" style="fill:#88bdda"/><path d="M20.3,78.5l.55,1-4.66,1.66s-.31-.33.83-1A35.13,35.13,0,0,1,20.3,78.5Z" style="fill:#91e2f6"/><path d="M21.41,78.5l-.56,1,4.66,1.66s.32-.33-.83-1A35.51,35.51,0,0,0,21.41,78.5Z" style="fill:#91e2f6"/><path d="M16.72,81.48a.4.4,0,0,1-.4.4.4.4,0,0,1,0-.79A.4.4,0,0,1,16.72,81.48Z" style="fill:#001f46"/><path d="M25.75,81.48a.4.4,0,0,1-.4.4.4.4,0,0,1,0-.79A.4.4,0,0,1,25.75,81.48Z" style="fill:#001f46"/><path d="M15.76,81.48a.4.4,0,1,1-.39-.39A.4.4,0,0,1,15.76,81.48Z" style="fill:#367082"/><path d="M26.71,81.48a.4.4,0,1,1-.4-.39A.4.4,0,0,1,26.71,81.48Z" style="fill:#367082"/><rect x="20.42" y="73.87" width="0.83" height="1.46" style="fill:#367082"/><path d="M21.88,73.1a.81.81,0,0,1-.81.81h-.46a.81.81,0,0,1-.81-.81h0a.81.81,0,0,1,.81-.81h.46a.81.81,0,0,1,.81.81Z" style="fill:#367082"/><path d="M27,72.36c0-.1,0-.7,0-.8a1.09,1.09,0,0,0-.94-1.19H15.57a1.1,1.1,0,0,0-1,1.19c0,.1,0,.7,0,.8Z" style="fill:#3dc7c9"/><path d="M14.52,72.68c0,.2.12.36.27.36h12.1c.14,0,.26-.16.26-.36h0c0-.2-.12-.36-.26-.36H14.79c-.15,0-.27.16-.27.36Z" style="fill:#367082"/><path d="M15.11,66.27c.26,0,1.92,0,2.2,0,1.81,0,3.37-.31,3.45-.76a15.28,15.28,0,0,0,0-5.6c-.08-.45-1.66-.79-3.5-.76-.29,0-2,0-2.25,0A15,15,0,0,1,15.11,66.27Z" style="fill:#3dc7c9"/><path d="M14.87,59.25c-.21,0-.35.1-.32.21a15.31,15.31,0,0,1,.06,6.6c0,.11.11.21.31.21h0a.41.41,0,0,0,.41-.2,15.2,15.2,0,0,0-.05-6.61c0-.12-.21-.21-.41-.21Z" style="fill:#367082"/><path d="M14.79,66.27a3.59,3.59,0,0,0,.47,0,1,1,0,0,0,.88-.78,15.07,15.07,0,0,0,0-5.52,1,1,0,0,0-.9-.78l-.48,0A15.14,15.14,0,0,1,14.79,66.27Z" style="fill:#33a8b5"/><path d="M33.54,63l-.46-.56-.48-.34-.92-.21a6.35,6.35,0,0,0-1.41,0,20.71,20.71,0,0,1-2.09,0c-.19,0-.31.58-.31.58s1.39,0,2,0a14.1,14.1,0,0,1,1.81.27,2.55,2.55,0,0,0,.52,0c.16,0,.16-.08,0-.11l-.61-.09c-.17,0-.07-.2-.07-.2a5.54,5.54,0,0,1,1.16.19,1.52,1.52,0,0,1,.4.31A.84.84,0,0,0,33.54,63Z" style="fill:#ffc4ad"/><path d="M25.5,51.66a2.11,2.11,0,0,1-2.11,2.11l-.53-1c-1.16,0-2.11-1.76-2.11-2.93v-.79a2.11,2.11,0,0,1,2.11-2.11h.53a2.1,2.1,0,0,1,2.11,2.11Z" style="fill:#001f46"/><path d="M21.09,49l-.34,0a3,3,0,0,1,0,.43,2.78,2.78,0,0,1-2.47,2.73A2.8,2.8,0,1,0,21.09,49Z" style="fill:#001f46"/><path d="M24.66,47.74a4,4,0,0,1-.05.59,2.82,2.82,0,0,1-1.94,2.52,6.4,6.4,0,0,1-.3,1.63,3.19,3.19,0,0,1-.79,1.1c-.16,1,3.07,2.34,3,2.19a9.35,9.35,0,0,1-1.13-2.29,2.09,2.09,0,0,1,.32-1.71A1.78,1.78,0,0,1,25,51.18a.29.29,0,0,0,.18-.07,1.61,1.61,0,0,0,.06-.44V48.92A1.49,1.49,0,0,0,24.66,47.74Z" style="fill:#ffc4ad"/><path d="M17.56,67.29v0l0,0A16.31,16.31,0,0,1,19,62.84,10.49,10.49,0,0,1,21,60.52c1.14.61,2.26.33,3.32,1.13a9.39,9.39,0,0,1,.33,1.43c.16.93.3,1.79.42,2.59a11.24,11.24,0,0,1,3.67,1.79c.14.07.62.56.76.67a7,7,0,0,1-1,3.68c-.13.21-1.56.12-2.83-.09-.59-.09-2.5-.21-2.7-.29C16.58,70.75,17.33,68.47,17.56,67.29Z" style="fill:#194866"/><path d="M29.58,71l.61-1c.16-.65.16-1.09,0-1.25-.7-.61-3.46.82-6.89,8-.18.36-3.56,6.12-3.43,6C21.46,81.77,26.48,76,29.58,71Z" style="fill:#e6b09c"/><path d="M19.8,82.14l1.09-1.75a.5.5,0,0,1,.44-.25l-.84,1.35a.61.61,0,0,0,.09.78.36.36,0,0,0,.24.09l-.25.41a.46.46,0,0,1-.68.16A.61.61,0,0,1,19.8,82.14Z" style="fill:#163f59"/><path d="M23.88,59l2-3.09a1.25,1.25,0,0,0-.78-2.06l-5.78-1.22a1.63,1.63,0,0,0-1.44,1.93l1.22,3.57Z" style="fill:#ffc4ad"/><path d="M25.27,54.11c-.78,2.64.82,7.75.82,7.75s.87.45,1.08,0-.16-2.36-.46-6.15C26.52,53.37,25.4,53.66,25.27,54.11Z" style="fill:#163f59"/><path d="M18.26,52.68c-2,1.47-3.44,6-3.44,6s.29.5.69.3,1.31-1.47,3.08-4.36C19.69,52.86,18.61,52.43,18.26,52.68Z" style="fill:#163f59"/><path d="M20,60.27c0,.42.44,1.08.75,1.08l3.34.17c.31,0,.77-.59.77-1l0-1.39c0-.42-.27-.75-.58-.74l-3.94-.94a.68.68,0,0,0-.56.76Z" style="fill:#2c7eea"/><path d="M24.23,61.59s-.23.07-.49,0l-3-.19c-.27,0-.48-.06-.48-.11v-.17c0-.05.22-.07.49-.05l3,.18c.26,0,.48.07.48.12Z" style="fill:#15100c"/><path d="M18.88,54.15a2.74,2.74,0,0,1,.22-.55c2.8,2,4.79,1.15,6.22.81l0,.26c0,1,0,2,0,3,0,.79-1.07,1.48-1.6,1.5a10.67,10.67,0,0,1-4.34-.55c-.51-.14-1.46-1-1.26-1.69C18.41,56,18.65,55.07,18.88,54.15Z" style="fill:#2c7eea"/><path d="M23.83,53.38s2.07-.06,2.44.93a3.57,3.57,0,0,1-.52,2.44,28.39,28.39,0,0,0-.67,2.84c-.15,1,.49,1.95.29,1.75A4,4,0,0,1,24.11,61c-.74-.35-.33-1.71-.26-2.15a19.88,19.88,0,0,0,.36-3C24.13,55.53,23.83,53.38,23.83,53.38Z" style="fill:#194866"/><path d="M17.81,54s-.16-.83.18-1.16a2.72,2.72,0,0,1,2.11-.3,4,4,0,0,1,.66.24s-1.37.55-1.32,3.4a15,15,0,0,0,.3,2.23A16.4,16.4,0,0,1,20,60.65s-.82.17-.85.29a7.58,7.58,0,0,0-.65-1.83C17.9,58.16,17.81,54,17.81,54Z" style="fill:#194866"/><path d="M19.62,52.48c-.76.63-1.23,1.18-1.11,4.48,0,.53,0,1.52.1,2.43l-.15-.28c-.56-1-.65-5.1-.65-5.1s-.16-.83.18-1.16A2.32,2.32,0,0,1,19.62,52.48Z" style="fill:#163f59"/><path d="M28.72,67.77a8.19,8.19,0,0,1,1.4,1c-.77.37-1.13,1.29-2,1.62-.57-.3-1.94-2.22-1.51-2.12C27.9,68.51,27.79,68.08,28.72,67.77Z" style="fill:#e6b09c"/><path d="M26.25,68.09a2.22,2.22,0,0,1,1.38.59c-.77.37-1.13,1.28-2,1.62-.67.45-1,1.74-1,1.3S25.28,68,26.25,68.09Z" style="fill:#ffc4ad"/><path d="M27.46,70.91c.14-.37.28-.74.41-1.1,0-.67-.05-1.1-.27-1.22-.81-.46-3.24,1.46-5.25,9.15a23.78,23.78,0,0,1-1.46,4.08c-.17.33-.37.27-.47.54a3.91,3.91,0,0,0-.12,1.9C21.7,83,25.37,76.43,27.46,70.91Z" style="fill:#ffc4ad"/><path d="M19.72,83.63l1-1.83a.52.52,0,0,1,.42-.29l-.73,1.41a.63.63,0,0,0,.15.78.45.45,0,0,0,.25.07l-.22.42a.46.46,0,0,1-.67.21A.61.61,0,0,1,19.72,83.63Z" style="fill:#194866"/><path d="M19.63,62s.37.27.44.48.17.9.17.9a.92.92,0,0,1-.26-.48A2.94,2.94,0,0,0,19.63,62Z" style="fill:#e6b09c"/><path d="M19.88,62.41a1.12,1.12,0,0,1,.42.84.64.64,0,0,0,.27.49,4.59,4.59,0,0,0-.16-.82c0-.16-.09-.32-.14-.47C20.1,61.93,19.25,62,19.88,62.41Z" style="fill:#e6b09c"/><path d="M19.7,61.44a1.53,1.53,0,0,0,.4.53,4.63,4.63,0,0,0,.61.32c-.36.22-.81-.23-1.06-.3S19.49,61,19.7,61.44Z" style="fill:#e6b09c"/><path d="M17.5,60.25a7.19,7.19,0,0,1,1.66,1c.37.49.35.91.72,1.13l.11.08c.1.08.22.15.26.18s.15.18.13.11a5.74,5.74,0,0,0-.56-1.4,18.33,18.33,0,0,0-2.13-1.75C17,59.25,16.63,59.74,17.5,60.25Z" style="fill:#ffc4ad"/><path d="M19.9,62.35s.08-.13.19-.08a2.42,2.42,0,0,1,.5.52c.09.13.42.81.42.81a.88.88,0,0,1-.39-.39A3.71,3.71,0,0,0,19.9,62.35Z" style="fill:#ffc4ad"/><path d="M16.8,58.88a6.09,6.09,0,0,0-.28.75c1.7,1,3.19,1.72,3.19,1.72Z" style="fill:#ffc4ad"/><path d="M14.78,58.84c.61,1.49,2.91,1.54,2.91,1.54a1.15,1.15,0,0,0,.22-.73c-.1-.4-.68-.81-2.06-1.66C15,57.47,14.67,58.59,14.78,58.84Z" style="fill:#163f59"/><path d="M28.65,61.73c.14.08-.16.91-.46.9H28s-2,0-1.9-1C26.07,61.67,26.55,60.74,28.65,61.73Z" style="fill:#163f59"/><path d="M31,62.43h0v-.31H43.82v.31h0l0,.06a.86.86,0,0,1-.8.31H31.8a.86.86,0,0,1-.8-.31Z" style="fill:#d0dee6"/><path d="M34.07,62.48h0l0,0a.52.52,0,0,1-.18.15h-2a.91.91,0,0,1-.77-.25l0,0h0v-.15h3Z" style="fill:#b6c2c9"/><rect x="35.8" y="62.18" width="6.42" height="0.22" style="fill:#b6c2c9"/><path d="M34.14,62.1l1.66-6.32a.43.43,0,0,1,.38-.3h9a.23.23,0,0,1,.23.3L43.76,62.1Z" style="fill:#d0dee6"/><path d="M39.24,58.79a.43.43,0,0,0,.43.58.8.8,0,0,0,.73-.58A.43.43,0,0,0,40,58.2.8.8,0,0,0,39.24,58.79Z" style="fill:#b6c2c9"/><polygon points="76.7 84.5 78.01 84.5 75.84 63.48 73.93 63.48 76.7 84.5" style="fill:#acd5f4"/><polygon points="74.06 64.45 74.9 70.81 75.89 63.95 75.84 63.48 74.17 63.48 74.06 64.45" style="fill:#86bbd8"/><polygon points="32.45 84.5 33.77 84.5 31.6 63.48 29.69 63.48 32.45 84.5" style="fill:#acd5f4"/><polygon points="29.82 64.45 30.65 70.81 31.65 63.95 31.6 63.48 29.93 63.48 29.82 64.45" style="fill:#86bbd8"/><polygon points="18.64 84.5 17.32 84.5 19.49 63.48 21.4 63.48 18.64 84.5" style="fill:#acd5f4"/><polygon points="21.27 64.45 18.72 70.94 19.45 63.95 19.49 63.48 21.16 63.48 21.27 64.45" style="fill:#86bbd8"/><rect x="17.65" y="62.79" width="40.42" height="1.23" style="fill:#367082"/><rect x="32.78" y="62.79" width="44.63" height="1.23" style="fill:url(#a)"/><path d="M72.52,62.43h0v-.31H59.63v.31h0l0,.06c.16.27.46.31.8.31H71.69a.84.84,0,0,0,.8-.31Z" style="fill:#b4c0c7"/><path d="M69.42,62.48h0l0,0a.47.47,0,0,0,.19.15h2a.92.92,0,0,0,.77-.25l0,0h0v-.15h-3Z" style="fill:#d6e3eb"/><rect x="61.24" y="62.18" width="6.44" height="0.22" style="fill:#8599a4"/><path d="M69.34,62.09l-1.67-6.33a.41.41,0,0,0-.38-.3h-9a.22.22,0,0,0-.22.3l1.67,6.33Z" style="fill:#d7dfe2"/><path d="M64.23,58.78a.43.43,0,0,1-.43.58.81.81,0,0,1-.74-.58.44.44,0,0,1,.43-.59A.81.81,0,0,1,64.23,58.78Z" style="fill:#b4c0c7"/><path d="M55.2,46.69a.57.57,0,0,0,.57.57h.38v1.33l1.32-1.33h3.42a.58.58,0,0,0,.57-.57v-5.5a.57.57,0,0,0-.57-.57H55.77a.56.56,0,0,0-.57.57Z" style="fill:#74b2e8"/><path d="M29.23,51.08a.58.58,0,0,1-.57-.57v-.38H27.34l1.32-1.33V45.39a.57.57,0,0,1,.57-.57h5.5a.56.56,0,0,1,.57.57v5.12a.57.57,0,0,1-.57.57Z" style="fill:#2c7eea"/><rect x="31.23" y="49.32" width="1.23" height="0.31" style="fill:#fff"/><path d="M31.84,46.05a1.37,1.37,0,0,0-1.37,1.38,1.35,1.35,0,0,0,.76,1.23v.45h.46V48.2h-.15v-.31h.61v.31H32v.91h.46v-.45a1.38,1.38,0,0,0-.62-2.61Z" style="fill:#fff"/><path d="M58.47,43.15a.49.49,0,0,0,.15-.34.48.48,0,0,0-.48-.47.47.47,0,0,0-.47.47.48.48,0,0,0,.14.34H57v.68a.52.52,0,0,1,.34-.14.48.48,0,0,1,0,1A.52.52,0,0,1,57,44.5v.68h2.3v-2Z" style="fill:#fff"/></g></svg>