<svg xmlns="http://www.w3.org/2000/svg" xmlns:xlink="http://www.w3.org/1999/xlink" viewBox="0 0 100 100"><defs><linearGradient id="a" x1="9.15" y1="-563.68" x2="14.63" y2="-563.68" gradientTransform="translate(0 620)" gradientUnits="userSpaceOnUse"><stop offset="0" stop-color="#d77edb"/><stop offset="0.15" stop-color="#cd79dc"/><stop offset="0.42" stop-color="#b26adf"/><stop offset="0.75" stop-color="#8753e5"/><stop offset="1" stop-color="#623fe9"/></linearGradient></defs><title>teamwork</title><rect width="100" height="100" style="fill:none"/><path d="M100,59.14c.27,12.8-3.57,32-50,31.84C18.75,90.85,0,82.43,0,59.14S16.41,9,41.11,9,99.5,35.86,100,59.14Z" style="fill:none"/><path d="M40.37,48.3l-3.52,1.44A3.54,3.54,0,0,0,34.67,53L33.51,65.72,57,65.83V61.44a18.64,18.64,0,0,0-2.65-9.56L53.27,50A4.49,4.49,0,0,0,50,47.9l-3.06-.36-.81-.61Z" style="fill:#413068"/><polygon points="40.14 48.4 40.37 50.06 40.37 54.68 42.59 65.76 42.59 65.76 45.17 55.76 46.88 47.77 46.08 47.14 40.37 48.3 40.14 48.4" style="fill:#fff"/><polygon points="42.01 52.38 41.53 61.1 42.54 65.62 43.55 61.37 43.86 52.38 42.01 52.38" style="fill:#623fe9"/><path d="M47.32,41.76a1,1,0,0,0-.21-.64c-.1-.11-.24-.2-.29-.35a.67.67,0,0,1,0-.2,1,1,0,0,0-.17-.44c-.24-.31-.65-.27-.94-.49a2.06,2.06,0,0,1-.29-.3c-.1-.13-.17-.37-.31-.45a.48.48,0,0,0-.37.06c-.24.13-.5.35-.78.27s-.44-.26-.7-.31c-.6-.11-1.06.6-1.67.6a2.35,2.35,0,0,0-.53,0,.77.77,0,0,0-.43.47,2.16,2.16,0,0,1-.29.59c-.15.16-.35.24-.5.38a1.52,1.52,0,0,0-.32,1v.9a4.65,4.65,0,0,0,.64,2.25h0a.48.48,0,0,1,.29-.17l.8-.19a3.86,3.86,0,0,1,.68-.11,2.78,2.78,0,0,1,.7.12l1.66.42a5.92,5.92,0,0,1,1.16.41,2.4,2.4,0,0,1,.82.73,6,6,0,0,1,.73-1.7,1.14,1.14,0,0,0,.16-.31,2.44,2.44,0,0,0,0-.54c0-.3.17-.59.17-.89s-.06-.36,0-.54a2.09,2.09,0,0,0,.11-.43A.33.33,0,0,1,47.32,41.76Z" style="fill:#623fe9"/><polygon points="47.15 47.56 47.84 49.88 46.93 50.37 47.84 51.15 42.59 65.76 42.5 65.11 45.57 48.1 46.12 46.93 46.93 47.54 47.15 47.56" style="fill:#56408b"/><polygon points="40.14 48.4 38.28 51.41 39.15 52.06 38.28 53.11 42.59 65.76 40.14 48.4" style="fill:#56408b"/><polygon points="43.05 51.08 41.16 52.52 44.77 52.52 44.8 52.4 43.05 51.08" style="fill:#623fe9"/><path d="M39.68,43.52h0a1.16,1.16,0,0,0-.28.87l.09,1.06a1.1,1.1,0,0,0,.24.61h0a.59.59,0,0,0,.83.1h0a.26.26,0,0,0,.09-.09l.08-.1-.22-2Z" style="fill:#fff"/><path d="M46.65,44h0a1.16,1.16,0,0,1,.28.87L46.84,46a1.18,1.18,0,0,1-.24.61h0a.59.59,0,0,1-.83.1h0l-.09-.09-.08-.1.22-2Z" style="fill:#fff"/><path d="M45.74,47.21,40.37,48.3l-.23.1v.18c.06.13.13.26.2.38l.85,1.42a1.74,1.74,0,0,0,1.52.86h0a1.73,1.73,0,0,0,1.5-.83l.92-1.49a3.93,3.93,0,0,0,.55-1.45Z" style="fill:#191c3c;opacity:0.30000001192092896;isolation:isolate"/><path d="M40.11,43.16V46.9a4,4,0,0,0,.57,2.1l.86,1.42a1.77,1.77,0,0,0,1.51.86h0a1.71,1.71,0,0,0,1.5-.83L45.47,49A3.59,3.59,0,0,0,46,47.47l.23-1.36V42.55l-6.14-.16Z" style="fill:#fff"/><path d="M43.91,46l-.35,1.81a.22.22,0,0,1-.24.2h-.07l-.43-.17-.12.2.72.3a.22.22,0,0,0,.29-.11h0v-.07Z" style="fill:#e6e7e8"/><path d="M46.25,46.22a11.66,11.66,0,0,1-.33-2.5,2.17,2.17,0,0,0-.09-.8c-.1-.22-.41-.08-.62-.13a6,6,0,0,0-.82-.27,1,1,0,0,0-.67.27,1.38,1.38,0,0,1-.36.23.89.89,0,0,1-.56,0,7.4,7.4,0,0,1-1.12-.48,1,1,0,0,0-1.11.22,1.09,1.09,0,0,0-.09.81,2.41,2.41,0,0,1,.12.84c0,.28-.21,1.9-.49,1.89l-.27-4.87,3.73-.8,3.14.74Z" style="fill:#623fe9"/><path d="M41.16,63.73V63a.39.39,0,0,0-.07-.23L40.52,62l-1.9-.57-1.13.56a.51.51,0,0,0-.23.27l-.48,1.37-.79.71a1.61,1.61,0,0,0-.54.92c-.08.49.57.53.57.53h1.67v-.31h.78a.36.36,0,0,0,.2-.06h0c.22-.14.3-.49.08-.63l-.83-.55c-.06,0-.21-.06-.18-.12h0a.15.15,0,0,1,.2,0l1.12.77a.39.39,0,0,0,.48,0h0a.41.41,0,0,0,.09-.55l-.29-.41-1.06-.56h0a.26.26,0,0,1,.32-.08l.77.47.38.45a.41.41,0,0,0,.58,0h0c.15-.14.27-.37.16-.54l-.49-.7-1.26-.66h0a.25.25,0,0,1,.31-.09l.86.51.5.42v.07a.68.68,0,0,0,.71.56Z" style="fill:#fff"/><path d="M36.66,63.54s-2.86,2.39.22,2.19H35.2s-.78-.84,1.75-2.67l-.17.49Z" style="fill:#fff"/><rect x="25.34" y="46.87" width="4.91" height="9.03" style="fill:#2b2046"/><polygon points="37.96 52.93 35.25 55.01 35.15 53.08 37.08 51.2 37.96 52.93" style="fill:#e6e7e8"/><polygon points="31.55 51.76 34.88 53.28 31.28 65.83 19.96 65.83 23.52 51.31 25.36 51.13 26.92 49.91 31.55 51.76" style="fill:#623fe9"/><path d="M27,49.56a4,4,0,0,1-.36,1.49l-.39,1.28v7.38l3.06.22,1-7.21s0-.64.36-.82-1.46-2.34-1.46-2.34Z" style="fill:#fff"/><path d="M26.48,53.51l-.28,2L26,63.73l1.77.44,2.05-9.86h0a2.43,2.43,0,0,1-3.16-.54Z" style="fill:#e6e7e8"/><polygon points="25.36 51.13 24.39 54.17 25.56 55.09 24.39 55.7 24.97 63.26 26.56 63.29 26.5 50.23 25.36 51.13" style="fill:#4a2faf"/><polygon points="31.35 51.9 32.32 54.47 30.84 54.95 32 56.14 28.17 64.17 26.56 64.01 30.82 51.38 31.35 51.9" style="fill:#4a2faf"/><path d="M32.17,45.21a2,2,0,0,0-.41-1.07,2.31,2.31,0,0,0-.56-.41L29.91,43a1,1,0,0,0-.78-.19c-.13,0-.24.13-.37.16a1.29,1.29,0,0,1-.55-.08,1.83,1.83,0,0,0-1.17.38,5.51,5.51,0,0,0-.9.69,3,3,0,0,0-.69,1.68c-.07.61-.1,2.21-.1,2.21,1,.5,2.25,0,3.34-.29a11.43,11.43,0,0,0,3-1.46,1,1,0,0,0,.47-.46A.89.89,0,0,0,32.17,45.21Z" style="fill:#2b2046"/><path d="M27,49.56a.81.81,0,0,1,0,.22h0l.25.69a1.68,1.68,0,0,0,1,1l1.25.28a5.6,5.6,0,0,0,1,.14c.06-.09-.09,0,0,0,.37-.18-1.46-2.34-1.46-2.34Z" style="fill:#191c3c;opacity:0.30000001192092896;isolation:isolate"/><path d="M32.23,45c.07.53.17,1.06.29,1.57a1,1,0,0,1,0,.25v.42a7,7,0,0,1,.28,1.09,2.81,2.81,0,0,1-.17,1.38,8.45,8.45,0,0,1-.92,2,1.42,1.42,0,0,1-1.46.11l-1.49-.51a1.68,1.68,0,0,1-1-1l-.24-.68H27a.41.41,0,0,1-.31-.14l-.23-.26a1.58,1.58,0,0,1-.39-1V47.8a.51.51,0,0,1,.56-.41l.2.08.49.51h.11v-1.1s1.08-2,2.58-2.23a.28.28,0,0,0,.26-.29v-.09A2.14,2.14,0,0,1,32.23,45Z" style="fill:#fff"/><path d="M32,48.46l-.48-1.06h0l.25,1.06a.38.38,0,0,1-.17.5h.06A.36.36,0,0,0,32,48.6.33.33,0,0,0,32,48.46Z" style="fill:#d1d3d4"/><path d="M28.4,49.57c-.53-1-1.22-2.17-.77-3.37.06-.17-.21-.24-.27-.07a2.65,2.65,0,0,0-.12,1.31.15.15,0,0,0-.07.12,2.57,2.57,0,0,0,1,2.17.12.12,0,0,0,.18,0h0A.16.16,0,0,0,28.4,49.57Z" style="fill:#2b2046"/><path d="M24.83,51.79l.53-.66-2.63.25a2.61,2.61,0,0,0-2.27,1.87l-3.27,11A1.26,1.26,0,0,0,18,65.82a.83.83,0,0,0,.35.05h8.84V63.3l-6.07-.11,1.08-4.62,1.12-5.45Z" style="fill:#623fe9"/><path d="M27.23,63.6H28a1.23,1.23,0,0,0,1.08-.6l2.07-3.49,1.65-.68-.17.49-1.12.47-.28.5.51-.33h.66l-1.53,4.28-.34.29a2.42,2.42,0,0,1-1.19.55l-2.11.34Z" style="fill:#fff"/><polygon points="32.1 59.51 32.63 59.29 32.8 58.8 32.28 59.02 32.1 59.51" style="fill:#191c3c;opacity:0.30000001192092896;isolation:isolate"/><path d="M30.53,64.5l.34-.29,1.53-4.28H32l-1.71,4.78Z" style="fill:#191c3c;opacity:0.30000001192092896;isolation:isolate"/><polygon points="30.29 65.83 33.14 57.87 35.55 58.06 34.13 65.83 30.29 65.83" style="fill:#623fe9"/><rect x="36.31" y="51.23" width="0.89" height="0.59" rx="0.27" ry="0.27" transform="translate(-25.39 39.57) rotate(-43.61)" style="fill:#fff"/><rect x="36.4" y="51.9" width="1.5" height="0.59" rx="0.27" ry="0.27" transform="translate(-23.06 30.3) rotate(-34.57)" style="fill:#fff"/><rect x="36.76" y="52.44" width="1.5" height="0.59" rx="0.27" ry="0.27" transform="translate(-22.34 28.11) rotate(-32.21)" style="fill:#fff"/><path d="M37.94,52.82l-2.59,1.8a.85.85,0,0,0,.2-.93v-.58l.45-.32a.31.31,0,0,0,.1-.43.32.32,0,0,0-.44-.1h0l-1,.58-1.24,2.41v2.62l1.76.17L36,55.62a3.39,3.39,0,0,0,2-2.34Z" style="fill:#fff"/><path d="M19.45,59.33c1,0-.34-1.25.73-1.29.42,0,1.07,0,.87-.33s-.77-.29-1-.61c-.4-.67,0-1.43.2-2.11s.85-2.27,1.06-3a2.53,2.53,0,0,0-.89,1.31l-1.21,4-.06.21-.07.23-1.93,6.49a1.22,1.22,0,0,0,0,.6,15.19,15.19,0,0,0,1.21-3.28C18.56,60.8,19.09,59.33,19.45,59.33Z" style="fill:#3a3c4e;opacity:0.4000000059604645;isolation:isolate"/><path d="M26.72,50l-.13-.38-.75-.71-.31-2.48c-.33.44-.13,1-.26,1.45s-.4.72-.46,1.1c-.08.54.34,1.1.05,1.6s-1.17.78-1.19,1.31c0,.36.42.67.41,1s-.32.59-.22.89c.05.12.17.24.17.37s-.11.25-.07.38.51.24.7.08a.46.46,0,0,0,.07-.6c-.1-.19-.27-.37-.36-.57a.2.2,0,0,1,0-.23c.11-.18.48-.16.7-.27.37-.2.12-.6-.16-.86a2,2,0,0,1,.85-.26c.31,0,.65-.18.68-.4s-.26-.39-.22-.6.27-.28.44-.4S26.92,50,26.72,50Z" style="fill:#2b2046"/><path d="M38.34,55.18l-.32.35-2.53-4.36a.2.2,0,0,1,0-.29h.14a.21.21,0,0,1,.19.11Z" style="fill:#d77edb"/><path d="M38.23,55.18,35.76,51a.24.24,0,0,0-.14-.1h-.06a.24.24,0,0,1,.09.08l2.47,4.24Z" style="fill:#e7b2e9"/><path d="M38.38,55.32a.24.24,0,0,1-.48,0,.24.24,0,0,1,.48,0Z" style="fill:#a15fa4"/><path d="M24,63.23l-1.79-.09H19.59v.29l-.49.16c.36-.07.72-.12,1.08-.16-.21.16-.39.33-.39.33s.24-.13.49-.24l.29-.12a4.88,4.88,0,0,0,.93-.09h3.28Z" style="fill:#2c2d3b;opacity:0.4000000059604645;isolation:isolate"/><polygon points="76.69 65.74 70.92 65.74 69.74 63.15 68.86 65.74 62.74 65.74 62.74 57.6 76.69 57.6 76.69 65.74" style="fill:#56408b"/><path d="M65,62h0a.11.11,0,0,1-.09-.06.28.28,0,0,1,0-.18.43.43,0,0,0,0-.16.46.46,0,0,0-.19-.48,1,1,0,0,1-.18-.17.32.32,0,0,1,0-.35,1.61,1.61,0,0,1,.31-.38l.39-.36,1.55-1.46L65,59.71h-.06l.27-.34-1-1.82H62.74v8.14H65.5a2.7,2.7,0,0,0,.11-1.13,2.17,2.17,0,0,0-.27-.76l-.06-.08h0a.17.17,0,0,1,0-.1h.06l.13-.11.21-.16h0a.54.54,0,0,0,.09-.75.61.61,0,0,0-.24-.18l-.17-.06Z" style="fill:#191c3c;opacity:0.10000000149011612;isolation:isolate"/><path d="M79.46,57.24a.61.61,0,0,1,0-.27.94.94,0,0,1,.14-.26A2.59,2.59,0,0,0,79.8,55a.31.31,0,0,0-.07-.18h-.14a2.1,2.1,0,0,0-1.55.26l.21-.07a4.31,4.31,0,0,0-1.08.52,1.25,1.25,0,0,0-.5,1c0,.37.3.68.35,1a1.27,1.27,0,0,0,.08.48.74.74,0,0,0,.43.29,5.7,5.7,0,0,0,1.74.27c.18,0,.41,0,.46-.22a.45.45,0,0,0,0-.23Z" style="fill:#fff"/><polygon points="65.29 34.84 70.98 33.11 73.56 33.77 74.58 46.19 74.58 57.6 64.66 57.6 63.69 39.13 65.29 34.84" style="fill:#976fe4"/><rect x="64.23" y="56.69" width="12.47" height="1.54" style="fill:#2b2046"/><rect x="67.59" y="56.69" width="3.1" height="1.54" style="fill:#dfe2ec"/><path d="M72.26,33l3.15.42a2,2,0,0,1,1.7,1.91l.11,6.74L75.45,48,78,59.25h0a5.74,5.74,0,0,1-6.19-4.32l-1.33-5.36a15.25,15.25,0,0,0,2.17-7.47L71.47,33Z" style="fill:#623fe9"/><path d="M64.57,33.84,60.73,36.4A1.66,1.66,0,0,0,60,38l2.23,22.2h0a7.76,7.76,0,0,0,7.57-6l.87-3.77L71.16,49l-4-11.63Z" style="fill:#623fe9"/><polygon points="64.57 33.83 64.36 36.59 65.53 37.18 64.94 38.31 70.74 48.97 70.98 48.33 67.43 36.96 64.57 33.83" style="fill:#4a2faf"/><path d="M72.26,33l1.23,2.39L73.1,36l.63.64s1,5.13-.22,7.43l-3,5.5a30.17,30.17,0,0,0,1.83-6.87l-1.19-9.77Z" style="fill:#4a2faf"/><path d="M71.41,28.89a3,3,0,0,0-.26-1.22,2.22,2.22,0,0,0-.37-.44,2.15,2.15,0,0,0-.35-.32,3.06,3.06,0,0,0-.77-.32,8.52,8.52,0,0,0-.87-.22,6.84,6.84,0,0,0-1.43,0,4.37,4.37,0,0,0-1.07.19,3.24,3.24,0,0,0-1.44,1.55,2,2,0,0,0-.17.4,2.08,2.08,0,0,0,0,.61V31s-.1,0,0,.09a.62.62,0,0,0,.36.18,5.43,5.43,0,0,0,1.45.07,9.32,9.32,0,0,1,2.51.5l.57.2a3.55,3.55,0,0,0,.44.21,2.4,2.4,0,0,0,1.19,0,.54.54,0,0,0,.57-.5v-.84A20.17,20.17,0,0,0,71.41,28.89Z" style="fill:#413068"/><path d="M64.57,33.84l-4,2.64a1.68,1.68,0,0,0-.74,1.32l-.42,12.62,1.18,9.92h3l-.36-10.59L63.79,43Z" style="fill:#623fe9"/><path d="M61.12,60.34v.81l-.43.45a1.56,1.56,0,0,0-.4.86l-.35,2.88a.36.36,0,0,0,.32.4h.16a.37.37,0,0,0,.36-.34l.08-1.28.21,1.32a.35.35,0,0,0,.36.3h.21a.37.37,0,0,0,.37-.36V63.57h.05l.32,1.88a.34.34,0,0,0,.35.3h.1a.34.34,0,0,0,.36-.32v-.09l-.11-.89a.91.91,0,0,1,0-.33l.4-1.29.49.64h0a1,1,0,0,0,.61,1.17h0l-.08-2a1.31,1.31,0,0,0-.42-.89l-1-.86V60.3Z" style="fill:#fff"/><path d="M65,29.62V34a1.31,1.31,0,0,0,.12.56L66.65,38a1.48,1.48,0,0,0,1.38.9h0a1.53,1.53,0,0,0,1.17-.56L71,35.76c.25-.3.09-.45.09-.84v-4.4c0-.38.14-.73-.19-.92l-2.35-1.41-2.92.67A.8.8,0,0,0,65,29.62Z" style="fill:#191c3c;opacity:0.30000001192092896;isolation:isolate"/><path d="M64.59,29.45v4.38a1.31,1.31,0,0,0,.12.56l1.52,3.41a1.5,1.5,0,0,0,1.37.9h0a1.44,1.44,0,0,0,1.17-.56l1.89-2.32A1.69,1.69,0,0,0,71,34.75l.26-4.4c0-.38-.46-.73-.78-.92L68.13,28l-2.93.67A.79.79,0,0,0,64.59,29.45Z" style="fill:#fff"/><path d="M66.66,34.28a.31.31,0,0,1-.09-.38c.08-.19-.09-2-.07-2.19h-.06A8.36,8.36,0,0,1,66.31,34a.31.31,0,0,0,.1.39,1,1,0,0,0,.83.15v0A1,1,0,0,1,66.66,34.28Z" style="fill:#212121;opacity:0.30000001192092896;isolation:isolate"/><path d="M71,31.75a1.56,1.56,0,0,1,.49-.5.43.43,0,0,1,.56.14.35.35,0,0,1,.06.24h0a2.36,2.36,0,0,1-.36,1s-.24.57-.74.59Z" style="fill:#fff"/><path d="M71.42,28.78a1.55,1.55,0,0,0-.23-.91,1.64,1.64,0,0,0-.79-.44,8.12,8.12,0,0,0-3.4-.14,4.94,4.94,0,0,0-.55.15c-.18.08-.35.19-.53.25s-.51,0-.71.07-.39.51-.46.75a4.92,4.92,0,0,0-.14,1v.57h.07c.23-.06.35-.3.48-.51s.37-.4.58-.29a.93.93,0,0,1,.23.21,1.59,1.59,0,0,0,1.1.38,1.9,1.9,0,0,0,1.08-.1c.16-.07.29-.18.45-.25a1,1,0,0,1,1.29.58h0a1.42,1.42,0,0,1,0,.58v.6a.48.48,0,0,0,0,.17.34.34,0,0,0,.28.21,1.09,1.09,0,0,0,.36,0,5.61,5.61,0,0,0,0,.58v.21a1.22,1.22,0,0,1,0,.27,1,1,0,0,0,0,.25c0,.14.57.65.58.51,0-1-.06-1.89.38-2.17A11.9,11.9,0,0,0,71.42,28.78Z" style="fill:#413068"/><path d="M71.05,49.75a.24.24,0,0,1-.22.26h0a.26.26,0,0,1-.31-.19h0a.28.28,0,0,1,.21-.31h.1A.26.26,0,0,1,71.05,49.75Z" style="fill:#56408b"/><path d="M75.48,48.05l-.09,0h.06l1.77-5.84v-.74c-.29.54-.9.77-1.11,1.36-.09.28,0,.43,0,.72s-.28.48-.41.79a5.94,5.94,0,0,0-.18,1.45v.74c-.1.85-.71.88-1.43.91a.46.46,0,0,0-.43.47.45.45,0,0,0,.32.41,4.15,4.15,0,0,1,1,.47c.46.37.44.76.46,1.29A10.85,10.85,0,0,0,76,52a7.55,7.55,0,0,0,1.31,3.55Z" style="fill:#191c3c;opacity:0.10000000149011612;isolation:isolate"/><path d="M72.26,33l3.86.51a2.35,2.35,0,0,1,1.56.89l4.8,10a2.64,2.64,0,0,1,.18,1.81L80.38,55h-3.1L79,46l-3.71-7Z" style="fill:#623fe9"/><g style="opacity:0.10000000149011612"><path d="M63.67,59.62v-.75c0-.48,0-1.17-.06-2s-.14-1.78-.25-2.8S63.13,52,63,50.87a26.77,26.77,0,0,1-.16-3.23A22.06,22.06,0,0,1,63,44.83a20.46,20.46,0,0,1,.4-2.32,5.42,5.42,0,0,0,0-.57,3.42,3.42,0,0,0,0-.64l.37,1.14a.76.76,0,0,1,0,.3,3,3,0,0,1-.13.54,7.81,7.81,0,0,0-.51,1.62A21.18,21.18,0,0,0,63,47.65q0,1.62.12,3.21c.08,1.09.2,2.18.29,3.21s.18,2,.22,2.81,0,1.51,0,2v.56Z" style="fill:#191c3c"/></g><path d="M71,34.75l.07-1.39-.58-.43v1.7l-1.73,2V36l-1.15-.84-1.27.06-.63,1.3.56,1.25a1.51,1.51,0,0,0,2,.79l0,0a1.39,1.39,0,0,0,.56-.43l1.89-2.32A1.69,1.69,0,0,0,71,34.75Z" style="fill:#413068"/><polygon points="66.48 35.95 67.76 35.9 68.3 36.4 68.45 37.29 67.8 37.97 66.93 37.97 66.36 37.47 66.22 36.59 66.48 35.95" style="fill:#fff"/><rect x="67.02" y="37.09" width="0.63" height="1.19" style="fill:#413068"/><rect x="8.13" y="67.61" width="83.1" height="6.05" style="fill:#56408b"/><polygon points="91.23 70.32 8.13 68.89 8.13 66.44 91.23 66.44 91.23 70.32" style="fill:#413068"/><rect x="5" y="65.35" width="90" height="2.04" style="fill:#56408b"/><path d="M61.75,65.57H44.53a1.33,1.33,0,0,1-1.25-.8l-.43-.91H63.43l-.42.91A1.39,1.39,0,0,1,61.75,65.57Z" style="fill:#dfe2ec"/><rect x="43.46" y="52.22" width="19.36" height="12.48" rx="0.91" ry="0.91" style="fill:#fff"/><path d="M54.52,58.86a1.38,1.38,0,1,1-1.39-1.37h0A1.39,1.39,0,0,1,54.52,58.86Z" style="fill:#e6e7e8"/><path d="M12.69,60.15h0a1.14,1.14,0,0,1-1.18,0,4.47,4.47,0,0,1-1.19-.74,2.44,2.44,0,0,1-.86-1.52.51.51,0,0,1,.06-.38.47.47,0,0,1,.5-.11,1.45,1.45,0,0,1,.44.33.37.37,0,0,0,.2.12.16.16,0,0,0,.2-.07c.06-.11,0-.23-.14-.31s-.43-.29-.66-.45a2.08,2.08,0,0,1-.72-.78,1.17,1.17,0,0,1,0-1A.72.72,0,0,1,9.48,55,.77.77,0,0,1,10,55a2.68,2.68,0,0,0,.56.13c.45,0,.63-.27.62-.69a7.68,7.68,0,0,0-.11-.82,1.24,1.24,0,0,1,.66-1.22.92.92,0,0,1,1.21.44h0c.17.5-.22,1.07,0,1.55a1.39,1.39,0,0,0,.43.47c.24.15.6,0,.89,0h.18a.28.28,0,0,1,0,.13,1,1,0,0,1-.32,1c-.3.28-.82.41-.94.84-.08.26,0,.92.37.86.16,0,.27-.19.42-.24a.43.43,0,0,1,.48.24.73.73,0,0,1,0,.58A2.29,2.29,0,0,1,14,59,4.37,4.37,0,0,1,12.69,60.15Z" style="fill:url(#a)"/><rect x="11.92" y="54.01" width="0.29" height="6.14" style="fill:#56408b"/><polygon points="12.06 57.18 10.77 55.89 10.97 55.69 12.06 56.78 13.15 55.69 13.35 55.89 12.06 57.18" style="fill:#56408b"/><polygon points="12.06 59.57 10.77 58.28 10.97 58.08 12.06 59.17 13.15 58.08 13.35 58.28 12.06 59.57" style="fill:#56408b"/><path d="M12.11,65.31h0a3.38,3.38,0,0,1-3.38-3.38h0V60.16h6.75v1.77a3.37,3.37,0,0,1-3.36,3.38h0Z" style="fill:#623fe9"/><path d="M14.33,60.16v1.77a3.36,3.36,0,0,1-2.8,3.33,2.81,2.81,0,0,0,.58,0,3.37,3.37,0,0,0,3.37-3.37h0V60.16Z" style="fill:#4a2faf"/><path d="M81.38,48.26a.42.42,0,0,0,.09-.16h.72l.38-1.46H78.9l-.4,2.12h1.94A1.09,1.09,0,0,0,81.38,48.26Z" style="fill:#191c3c;opacity:0.30000001192092896;isolation:isolate"/><path d="M81.93,48.45a1.23,1.23,0,0,0,.07.39l.1-.39Z" style="fill:#191c3c;opacity:0.30000001192092896;isolation:isolate"/><path d="M77.13,48.32h3.31a1.13,1.13,0,0,0,1.14-1.12H76A1.13,1.13,0,0,0,77.13,48.32Z" style="fill:#d1d3d4"/><path d="M77.13,48.08h3.31a1.11,1.11,0,0,0,1.11-.89h0a1.13,1.13,0,0,1-1.13,1.13H77.13A1.13,1.13,0,0,1,76,47.19h0A1.11,1.11,0,0,0,77.13,48.08Z" style="fill:#fff"/><rect x="82.62" y="47.19" width="0.57" height="1.47" style="fill:#191c3c"/><rect x="84.06" y="48.49" width="0.57" height="1.47" style="fill:#56408b"/><rect x="83.89" y="48.67" width="1.47" height="0.57" style="fill:#56408b"/><path d="M75.13,47.66H83.4V46.21H76.59a1.46,1.46,0,0,0-1.46,1.44Z" style="fill:#56408b"/><path d="M76.51,46.77a1.46,1.46,0,0,0-1.35.89h0a1.45,1.45,0,0,1,1.45-1.45H83.4v.56Z" style="fill:#7866a2"/><path d="M81.93,48h2.83v1.3H83.23a1.3,1.3,0,0,1-1.3-1.3Z" style="fill:#56408b"/><rect x="87.23" y="48.32" width="0.37" height="8.53" transform="translate(-14.58 54.47) rotate(-32.09)" style="fill:#56408b"/><rect x="86.2" y="49.21" width="0.37" height="7.67" transform="translate(-14.99 53.75) rotate(-31.95)" style="fill:#56408b"/><rect x="82.17" y="59.71" width="8.53" height="0.37" transform="translate(-10.23 101.31) rotate(-57.91)" style="fill:#56408b"/><rect x="83.63" y="60.17" width="7.67" height="0.37" transform="translate(-10.04 102.61) rotate(-58.04)" style="fill:#56408b"/><path d="M89.13,56.68a.61.61,0,0,0,.61.61h0a.6.6,0,0,0,.68-.51h0a.61.61,0,0,0-.52-.69h-.16a.61.61,0,0,0-.61.59Z" style="fill:#56408b"/><rect x="88.3" y="56.07" width="1.48" height="1.21" style="fill:#56408b"/><path d="M87.69,56.68a.6.6,0,0,0,.58.62h0a.61.61,0,0,0,.62-.6h0a.61.61,0,0,0-.6-.62h0a.6.6,0,0,0-.62.58Z" style="fill:#7866a2"/><path d="M85.15,63.35a.61.61,0,1,0,1.22,0,.61.61,0,0,0-.61-.61h0a.6.6,0,0,0-.6.6Z" style="fill:#56408b"/><rect x="84.31" y="62.74" width="1.48" height="1.21" style="fill:#56408b"/><path d="M83.7,63.35a.61.61,0,0,0,1.22,0,.61.61,0,0,0-1.22,0Z" style="fill:#7866a2"/><path d="M81.55,65.28h6.77a1.39,1.39,0,0,0-1.39-1.39h-4a1.39,1.39,0,0,0-1.39,1.39Z" style="fill:#56408b"/><polygon points="80.35 59.76 79.92 59.76 76.36 59.76 75.93 59.76 74.23 65.28 74.66 65.28 76.86 65.28 78.22 65.28 78.64 65.28 79.42 65.28 80.12 65.28 79.48 62.56 80.35 59.76" style="fill:#191c3c;opacity:0.30000001192092896;isolation:isolate"/><polygon points="79.94 65.28 80.64 65.28 79.94 62.32 77.38 65.28 79.94 65.28" style="fill:#413068"/><polygon points="79.16 65.28 75.17 65.28 76.88 59.76 80.86 59.76 79.16 65.28" style="fill:#56408b"/><polygon points="78.74 65.28 74.75 65.28 76.45 59.76 80.44 59.76 78.74 65.28" style="fill:#7866a2"/><polygon points="78.44 64.56 75.49 64.56 76.75 60.49 79.69 60.49 78.44 64.56" style="fill:#5ddaf4"/><polygon points="75.71 64.45 76.93 60.49 76.75 60.49 75.49 64.56 78.44 64.56 78.47 64.45 75.71 64.45" style="fill:#46a4b7"/></svg>