<?xml version="1.0" encoding="utf-8"?>
<!-- Generator: Adobe Illustrator 22.0.1, SVG Export Plug-In . SVG Version: 6.00 Build 0)  -->
<svg version="1.1" id="Layer_1" xmlns="http://www.w3.org/2000/svg" xmlns:xlink="http://www.w3.org/1999/xlink" x="0px" y="0px"
	 viewBox="0 0 100 100" style="enable-background:new 0 0 100 100;" xml:space="preserve">
<style type="text/css">
	.st0{fill:none;}
	.st1{fill:#ACE6FF;}
	.st2{fill:#ACD5F4;}
	.st3{fill:#5DCFCA;}
	.st4{fill:#86C0F0;}
	.st5{fill:#367082;}
	.st6{fill:#88BDDA;}
	.st7{fill:#91E2F6;}
	.st8{fill:#001F46;}
	.st9{fill:#3DC7C9;}
	.st10{fill:#33A8B5;}
	.st11{fill:#2C7EEA;}
	.st12{fill:#161711;}
	.st13{fill:#E2C59C;}
	.st14{fill:#E9D6B8;}
	.st15{fill:#74B2E8;}
	.st16{fill:#163F59;}
	.st17{fill:#FFFFFF;}
	.st18{fill:#D9E1E4;}
	.st19{fill:#9FC400;}
	.st20{fill:#4E99FF;}
	.st21{fill:none;stroke:#A5B6BE;stroke-width:0.2218;}
	.st22{fill:none;stroke:#FFFFFF;stroke-width:0.2218;}
	.st23{fill:#D8E5ED;}
	.st24{fill:none;stroke:#FFFFFF;stroke-width:0.7044;}
	.st25{opacity:0.5;fill:#D1F0FF;enable-background:new    ;}
	.st26{fill:#DCE5EA;}
	.st27{fill:#CFD9E8;}
	.st28{fill:#FFC4AD;}
	.st29{fill:#AEBDDC;}
	.st30{fill:#194866;}
	.st31{fill:none;stroke:#33A8B5;stroke-width:0.1928;stroke-miterlimit:10;}
	.st32{fill:none;stroke:#86C0F0;stroke-width:0.1928;stroke-miterlimit:10;}
	.st33{fill:none;stroke:#161711;stroke-width:0.1441;stroke-miterlimit:10;}
	.st34{fill:#3D7AA8;}
	.st35{fill:#1F5AEA;}
	.st36{fill:#E6B09C;}
	.st37{fill:#316091;}
	.st38{fill:#B6C2C9;}
	.st39{fill:#879BA6;}
	.st40{fill:#E4EEF3;}
	.st41{fill:#15100C;}
	.st42{fill:#D0DEE6;}
	.st43{fill:#86BBD8;}
	.st44{fill:url(#SVGID_1_);}
	.st45{fill:#B4C0C7;}
	.st46{fill:#D6E3EB;}
	.st47{fill:#8599A4;}
	.st48{fill:#D7DFE2;}
</style>
<title>teamwork-alt</title>
<g>
	<rect class="st0" width="100" height="100"/>
	<rect x="52.9" y="31.6" class="st1" width="1.5" height="1.4"/>
	<rect x="55" y="31.9" class="st2" width="7.2" height="0.7"/>
	<rect x="64.2" y="31.6" class="st3" width="1.5" height="1.4"/>
	<rect x="66.2" y="31.9" class="st2" width="6.2" height="0.7"/>
	<rect x="74.8" y="31.6" class="st4" width="1.5" height="1.4"/>
	<rect x="76.8" y="31.9" class="st2" width="6.2" height="0.7"/>
	<rect x="86.3" y="25.9" class="st4" width="1.2" height="3.8"/>
	<rect x="84.1" y="24.7" class="st1" width="1.2" height="5"/>
	<rect x="81.8" y="26.7" class="st4" width="1.2" height="3"/>
	<rect x="79.6" y="22.6" class="st3" width="1.2" height="7.1"/>
	<rect x="77.4" y="23.9" class="st4" width="1.2" height="5.8"/>
	<rect x="75.2" y="21.9" class="st3" width="1.2" height="7.9"/>
	<rect x="72.9" y="26.5" class="st1" width="1.2" height="3.2"/>
	<rect x="70.7" y="24.6" class="st3" width="1.2" height="5.2"/>
	<rect x="68.5" y="22.9" class="st1" width="1.2" height="6.8"/>
	<rect x="66.3" y="21.1" class="st4" width="1.2" height="8.6"/>
	<rect x="64.1" y="22.3" class="st3" width="1.2" height="7.4"/>
	<rect x="61.8" y="20" class="st1" width="1.2" height="9.7"/>
	<rect x="59.6" y="23.8" class="st4" width="1.2" height="5.9"/>
	<rect x="57.4" y="24.8" class="st3" width="1.2" height="5"/>
	<rect x="55.2" y="22.1" class="st1" width="1.2" height="7.7"/>
	<rect x="53" y="23" class="st4" width="1.2" height="6.7"/>
	<path class="st1" d="M67.8,18.5c-0.9,0-1.8-0.3-2.5-0.9l2.6-2.6h3.7c-0.1,0.9-0.5,1.8-1.1,2.5C69.8,18.2,68.8,18.5,67.8,18.5z"/>
	<path class="st1" d="M68.1,14.4v-3.4c1.9,0.1,3.4,1.6,3.5,3.4L68.1,14.4z"/>
	<path class="st2" d="M67.8,18.5c-0.9,0-1.8-0.3-2.5-0.9l2.6-2.6h3.7c-0.1,0.9-0.5,1.8-1.1,2.5C69.8,18.2,68.8,18.5,67.8,18.5z"/>
	<path class="st4" d="M67.2,9.7c-2.5,0.2-4.5,2.3-4.5,4.8c0,1.2,0.5,2.3,1.3,3.2l3.3-3.4L67.2,9.7L67.2,9.7z"/>
	<path class="st2" d="M57.1,14.1v-3.4c1.9,0.1,3.4,1.6,3.5,3.4H57.1z"/>
	<path class="st3" d="M56.3,14.6V10c-2.5,0.3-4.3,2.6-3.9,5.2c0.3,2.3,2.3,4,4.6,4c0.8,0,1.6-0.2,2.3-0.6L56.3,14.6z"/>
	<path class="st1" d="M57.5,14.7l2,2.5l0.1-0.1c0.7-0.7,1.1-1.5,1.1-2.5H57.5z"/>
	<path class="st5" d="M84.7,72.6c0.4,0,0.8-0.1,1.2-0.4c0.6-0.7,0.9-1.7,0.8-2.7c-0.1-0.9-0.4-1.8-0.8-2.6c-0.8-1.7-1.1-3.7-0.9-5.6
		l-0.7-0.1c-0.2,2,0.1,4.1,1,5.9c0.4,0.8,0.6,1.6,0.7,2.4c0.1,0.7,0,1.5-0.5,2.1C85.3,71.9,85,72,84.6,72l-0.1,0.7
		C84.6,72.6,84.7,72.6,84.7,72.6z"/>
	<path class="st6" d="M79.6,77.9l-0.7,1l5.4,1.8c0,0,0.4-0.3-1-1C81.9,78.8,79.6,77.9,79.6,77.9z"/>
	<path class="st6" d="M78.7,77.9l0.7,1l-5.4,1.8c0,0-0.4-0.3,1-1C76.4,78.8,78.7,77.9,78.7,77.9z"/>
	<rect x="78.6" y="75" class="st6" width="1.1" height="4.1"/>
	<path class="st7" d="M79.7,78.1l-0.6,1l4.7,1.7c0,0,0.3-0.3-0.8-1C81.9,79.2,80.8,78.6,79.7,78.1z"/>
	<path class="st7" d="M78.6,78.1l0.6,1l-4.7,1.7c0,0-0.3-0.3,0.8-1C76.4,79.2,77.5,78.6,78.6,78.1z"/>
	<path class="st8" d="M83.3,81.1c0,0.2,0.2,0.4,0.4,0.4c0,0,0,0,0,0c0.2,0,0.4-0.1,0.5-0.3s-0.1-0.4-0.3-0.5c0,0-0.1,0-0.1,0
		C83.5,80.7,83.3,80.9,83.3,81.1z"/>
	<path class="st8" d="M74.3,81.1c0,0.2,0.2,0.4,0.4,0.4c0,0,0,0,0,0c0.2,0,0.4-0.1,0.5-0.3s-0.1-0.4-0.3-0.5c0,0-0.1,0-0.1,0
		C74.4,80.7,74.3,80.9,74.3,81.1z"/>
	<path class="st5" d="M84.2,81.1c0,0.2,0.2,0.4,0.4,0.4l0,0c0.2,0,0.4-0.2,0.3-0.5c0-0.2-0.2-0.3-0.3-0.3
		C84.4,80.7,84.2,80.9,84.2,81.1z"/>
	<path class="st5" d="M73.3,81.1c0,0.2,0.1,0.4,0.3,0.5s0.4-0.1,0.5-0.3c0,0,0-0.1,0-0.1c0-0.2-0.2-0.4-0.5-0.3
		C73.5,80.8,73.3,80.9,73.3,81.1z"/>
	<rect x="78.8" y="73.5" class="st5" width="0.8" height="1.5"/>
	<path class="st5" d="M78.1,72.7c0,0.4,0.4,0.8,0.8,0.8h0.5c0.4,0,0.8-0.4,0.8-0.8l0,0c0-0.4-0.4-0.8-0.8-0.8h-0.5
		C78.5,71.9,78.1,72.3,78.1,72.7z"/>
	<path class="st9" d="M73,72c0-0.1,0-0.7,0-0.8c-0.1-0.6,0.4-1.1,1-1.2c0,0,0,0,0,0h10.4c0.6,0.1,1,0.6,0.9,1.2c0,0.1,0,0.7,0,0.8
		H73z"/>
	<path class="st5" d="M85.5,72.3c0,0.2-0.1,0.4-0.3,0.4H73.1c-0.2,0-0.3-0.2-0.3-0.4l0,0c0-0.2,0.1-0.4,0.3-0.4h12.1
		C85.4,71.9,85.5,72.1,85.5,72.3z"/>
	<path class="st9" d="M84.9,65.9c-0.3,0-1.9,0-2.2,0c-1.8,0-3.4-0.3-3.4-0.8c-0.3-1.9-0.3-3.7,0-5.6c0.1-0.5,1.7-0.8,3.5-0.8
		c0.3,0,2,0,2.2,0C84.4,61.1,84.4,63.6,84.9,65.9z"/>
	<path class="st5" d="M85.1,58.9c0.2,0,0.3,0.1,0.3,0.2c-0.5,2.2-0.5,4.4,0,6.6c0,0.1-0.1,0.2-0.3,0.2l0,0c-0.2,0-0.4-0.1-0.4-0.2
		c-0.5-2.2-0.5-4.4,0-6.6C84.7,59,84.9,58.9,85.1,58.9L85.1,58.9z"/>
	<path class="st10" d="M85.2,65.9c-0.2,0-0.3,0-0.5,0c-0.4,0-0.8-0.4-0.9-0.8c-0.3-1.8-0.3-3.7,0-5.5c0.1-0.4,0.5-0.7,0.9-0.8h0.5
		C84.7,61.1,84.7,63.6,85.2,65.9z"/>
	<path class="st1" d="M80.2,10.6C80.2,10.6,80.2,10.5,80.2,10.6c0.2-0.1,0.2,0,0.3,0s-0.1-0.1-0.1-0.2h0.1c0-0.1,0-0.1,0-0.1
		c0.2,0,0.1-0.3,0.1-0.4c0.1,0,0.1,0,0.2,0c0-0.1-0.1-0.1-0.2-0.2s0-0.1,0.1,0s0-0.1,0-0.1s0.1-0.1,0.1-0.1s0.2,0.1,0.2,0
		S81,9.5,81,9.5s0-0.1-0.1-0.1s-0.2,0.1-0.2,0s0.2-0.1,0.2-0.2c-0.1-0.1-0.2-0.1-0.3-0.1c-0.1,0-0.2-0.1-0.2,0s-0.1,0-0.1,0
		s-0.3,0-0.4,0s-0.2,0-0.3,0.1s0.1,0.2,0,0.2s-0.3,0-0.4,0s-0.3,0.2-0.6,0.2c0,0.1,0.1,0,0.1,0.1s-0.2,0.1-0.2,0.1s-0.1,0-0.2,0.1
		s0.1,0,0.1,0.1c0,0,0,0,0.1,0c0,0,0,0,0,0c0,0,0.1-0.1,0.2,0s-0.2,0-0.3,0s0.1,0.1,0.2,0.1s0-0.1,0.1-0.1c0.1,0.1,0.2,0.1,0.3,0.1
		c0,0.1,0,0.2,0,0.2c0,0.1,0,0.1,0,0.2c0.1,0.1,0.1-0.1,0.2,0s-0.1,0.1-0.1,0.1s0.2,0.1,0.2,0.2c-0.1,0-0.1,0.1-0.2,0.1
		c0.1,0-0.1,0.1,0,0.1s0,0.4,0.2,0.6h0.2c0.1,0,0,0.1,0.1,0.1s0-0.1,0.1-0.1c0-0.2,0.1-0.2,0.1-0.4c0,0,0-0.1,0.1-0.1s0.1-0.1,0.2,0
		c0,0,0-0.1,0-0.1c0.1,0,0.2-0.1,0.3-0.1s0.2-0.1,0.1-0.2S80.3,10.6,80.2,10.6z M80.4,10.5c-0.1,0,0-0.2,0.1-0.1
		S80.4,10.4,80.4,10.5z M80.6,9.3c0,0.1,0,0.1-0.1,0.1c-0.1-0.1-0.2-0.1-0.3-0.1C80.3,9.2,80.5,9.3,80.6,9.3z"/>
	<path class="st1" d="M77.5,9.6v0.1c0.1,0,0.1,0,0.1,0s0.1-0.2,0.2-0.2s-0.1,0-0.1,0.1s-0.1,0-0.1,0.1s0.1,0,0.1,0.1s-0.1-0.1-0.1,0
		s-0.1,0.1,0,0.1s0.2,0,0.3,0.1c-0.2,0-0.3-0.1-0.4-0.1s0.1,0.1,0.1,0.1c0.2,0,0.4,0.1,0.4-0.1c0.1,0,0.1,0,0.1-0.1s-0.1,0-0.1,0
		h0.2c0-0.1,0.1-0.1,0.1-0.3c0.1,0,0.1-0.1,0.3-0.1c0-0.1,0.1-0.1,0.2-0.1c0-0.1,0-0.1,0-0.1s0.2,0,0.3-0.1s-0.1,0-0.1,0
		c-0.3,0-0.8-0.1-1.2,0.1c0,0.1,0.1,0.1,0.1,0.2s-0.1-0.2-0.3-0.1C77.6,9.5,77.6,9.5,77.5,9.6C77.6,9.7,77.5,9.6,77.5,9.6
		C77.5,9.6,77.5,9.6,77.5,9.6z M78,10.1L78,10.1C78,10.1,78,10.1,78,10.1L78,10.1z"/>
	<path class="st1" d="M82.8,9.6c0-0.1,0.1,0,0.1-0.1c-0.2,0-0.4,0-0.6,0c0,0,0,0.1,0,0.1C82.5,9.6,82.7,9.6,82.8,9.6z"/>
	<path class="st1" d="M82,9.7c0,0.1,0,0.1,0,0.1s0.1-0.1,0.2-0.1s-0.1,0.1-0.1,0.2c0,0,0.1,0,0.2,0c0,0.1,0,0.1,0.1,0.1l0.1-0.3
		c0.1,0.1,0.1,0.2,0.2,0.1c0-0.2-0.1-0.2-0.2-0.3c0,0.1-0.1,0-0.1,0s-0.1,0-0.1,0s0-0.1-0.1-0.1s0,0.1,0,0.1s-0.3-0.2-0.3,0
		C81.9,9.7,82,9.6,82,9.7z"/>
	<path class="st1" d="M84.2,9.5c0-0.2-0.2-0.1-0.2,0S84.1,9.5,84.2,9.5z"/>
	<path class="st1" d="M85.4,9.7c0.2,0,0.3,0.1,0.4-0.1c-0.1-0.1-0.2-0.1-0.4-0.1C85.4,9.5,85.4,9.6,85.4,9.7z"/>
	<path class="st1" d="M89.8,11.2c0,0,0-0.1,0.1-0.1s0.1,0.1,0.2,0.1s0-0.1,0-0.2s-0.1-0.2-0.2,0c0,0,0-0.1,0-0.1
		c-0.1,0-0.2-0.2-0.4-0.1c0-0.1-0.1-0.1-0.1-0.1s-0.2-0.1-0.3-0.1s0.1,0.1,0,0.1s0-0.1-0.1-0.1s-0.2,0-0.3,0.1s-0.1-0.2-0.2-0.2
		s0,0.1,0,0.1c-0.1,0-0.2-0.1-0.3-0.2v0.1c0,0,0-0.1-0.1-0.1s0-0.1-0.1-0.1s-0.1,0-0.2,0s-0.1,0-0.1,0s0.1,0.1,0,0.1s-0.4,0-0.6,0
		s-0.1-0.1-0.1-0.1s-0.2,0-0.2-0.1h-0.1c0,0-0.1-0.1-0.2,0s0.1-0.1,0.1-0.1s-0.1-0.1-0.1-0.2c-0.1,0-0.2,0-0.3,0
		c-0.1,0,0-0.1-0.1-0.1S86,10,86,10.1s-0.1,0.1-0.2,0.1s0-0.1-0.1-0.1c-0.1,0.1-0.2,0.1-0.3,0.1c0,0-0.1,0.1-0.1,0.1s0,0.1-0.1,0.1
		s-0.2,0-0.1,0.1s0.1,0,0.1,0.1s-0.1-0.1-0.2-0.1s0,0.1,0,0.1c0,0,0-0.1,0-0.1c-0.1,0,0,0.1-0.1,0.1s0-0.1-0.1-0.1
		c-0.1,0.1-0.1,0.2-0.2,0.3c-0.1,0-0.1-0.1-0.3-0.1s0.1,0,0.1,0.1s-0.2,0-0.3,0S83.9,11,83.8,11v-0.1c-0.1,0-0.1,0-0.1,0
		c0,0.1,0,0.3-0.1,0.3s-0.1,0.1-0.1,0.1s0,0.1,0,0.1s-0.1-0.2-0.1-0.2c0.1,0,0.2,0,0.3,0c0.1-0.1-0.1-0.2-0.3-0.3
		c0-0.1-0.1-0.1-0.2-0.1c0-0.1-0.1-0.1-0.1-0.1h-0.2l-0.2,0.1c0,0,0,0-0.1,0c-0.1,0.1-0.2,0.2-0.3,0.3c0,0.1-0.1,0.2-0.1,0.3
		c0,0,0,0-0.1,0v0.1c-0.1,0-0.2,0.2-0.2,0.3c0,0.1,0,0.2,0,0.3c0,0.1,0.1,0,0.2,0.1S82,12.1,82,12.2s0,0,0,0.1c-0.1,0-0.1,0-0.2,0
		c0,0-0.1,0.1,0,0.1s0,0.1-0.2,0.1s0,0.1,0,0.1s-0.1,0.1-0.2,0.1s-0.1,0-0.1,0.1s0.1,0,0.2,0s0.1,0.1,0.1,0.2s0,0.1-0.1,0.1
		s-0.2,0-0.3,0s0,0.3,0,0.3s0.1,0.1,0,0.2s0.1,0,0.2,0.1s0.1-0.1,0.2,0c0.1-0.1,0.1-0.2,0.1-0.4c0.1,0,0.1-0.2,0.2-0.2s0.1,0,0.2,0
		c0,0.1,0,0.3,0,0.4c0.1,0,0-0.1,0.1-0.3l0,0l0,0c0,0,0,0.1,0.1,0.1c0.1,0,0.2,0.1,0.2,0.1c0,0,0,0,0,0c0,0.1,0,0.1-0.1,0.1
		s0.1,0.1,0.1,0.1s0.1-0.1,0.1-0.2s0,0,0-0.1s0.1,0.1,0.1,0s-0.3-0.1-0.3-0.4c0.1,0.1,0.2,0.2,0.3,0.3v0.1c0,0,0,0.1,0,0.1v0.1
		c0,0,0.1,0,0.2,0s0-0.2,0-0.3h0.1c0,0.1,0,0.1,0,0.2s0,0.1,0.1,0.1c0.1,0.1,0.2,0.1,0.3,0c0.1,0-0.1,0.1,0,0.1s0-0.2,0.1-0.1v0.1
		c-0.1,0,0,0.2-0.1,0.2c-0.2-0.1-0.4-0.1-0.6-0.1c-0.1,0,0,0.1-0.1,0.1s-0.3-0.1-0.4-0.3s0-0.1,0-0.1s0.1-0.1,0-0.1
		c-0.1,0-0.2,0-0.3,0.1c-0.1,0-0.3,0-0.4,0.1c0-0.1-0.1-0.1-0.1-0.1s-0.1,0.1-0.2,0.1s0,0.3-0.1,0.4s-0.1,0.1-0.2,0.2
		c0,0.1,0,0.2-0.1,0.3v0.6c0.1,0.1,0.1,0.2,0.2,0.4c0.1,0.1,0.2,0.2,0.3,0.2c0.1,0,0.2,0,0.3,0c0,0,0-0.1,0.1-0.1s0,0.1,0,0.1
		s0.1,0,0.2,0.1s0.1-0.1,0.1-0.1c0,0.2-0.1,0.3,0,0.4s0.2,0.2,0.1,0.4c0,0.1,0.1,0.2,0.1,0.4c-0.1,0.1,0,0.3-0.1,0.4
		c0.1,0.1,0.2,0.3,0.2,0.4v0.2c0.1,0.1,0.1,0.4,0.2,0.5s0.3-0.1,0.5-0.2c0-0.1,0.1-0.2,0.2-0.3c0-0.1,0-0.1,0-0.2s0.1-0.1,0.1,0
		c0-0.2,0.1-0.4,0.3-0.6c0-0.2,0-0.5,0-0.7c0.1-0.1,0.1-0.2,0.1-0.3l0.2-0.1c0.1-0.2,0.2-0.4,0.3-0.5s0-0.2,0-0.3s-0.1,0.1-0.2,0.1
		h-0.2c0-0.2-0.1-0.2-0.2-0.3s-0.1-0.1-0.1-0.3s-0.1-0.1-0.1-0.1s0-0.2,0-0.2c0.1,0.1,0.1,0.1,0.1,0.2c0.1,0.1,0.2,0.2,0.2,0.4
		s0,0.3,0.2,0.4c0.1-0.1,0.3-0.1,0.4-0.2V15c0,0,0.1-0.1,0.2-0.1s0.1-0.1,0.1-0.2s-0.2-0.1-0.1-0.3c-0.1,0-0.1,0-0.2,0
		c0-0.1-0.1-0.1-0.1-0.3s-0.1-0.1-0.1-0.1l0.1-0.1c0.1,0.1,0.1,0.4,0.3,0.3c0,0.1,0.1,0.1,0,0.1s0.1-0.1,0.2-0.1s0,0.1,0.1,0.1
		s0.2,0.1,0.3,0.1s0,0,0,0.1s0.1,0,0.1,0.1s0,0.1,0,0.2c0.1,0.1,0.1,0.2,0.1,0.3c0.1,0.1,0.1,0.1,0.1,0.2v0.1c0,0,0.1,0,0.2,0
		c0.1-0.2,0.1-0.3,0.1-0.5h0.1V15c0.1,0,0-0.1,0.1-0.1s0.1-0.1,0.1-0.2c0.1,0,0.1-0.1,0.2-0.1c0,0.1,0,0.2,0.1,0.2s0,0.1,0,0.1
		s0.2,0,0.2,0.1s0,0.1,0,0.1c0.1,0,0.1,0.1,0.1,0.1c0,0.1-0.1,0.1,0,0.1s0.1,0.1,0,0.2c0.1,0.1,0.2,0.2,0.3,0.3
		c0-0.2-0.1-0.2-0.1-0.4c-0.1,0-0.1-0.1-0.2-0.2c0-0.1,0-0.2,0-0.2s0.1,0.1,0.2,0.2c0,0,0,0.1,0,0.1c0.2,0,0.3-0.3,0.2-0.6
		c0,0-0.1,0-0.1-0.1s-0.1-0.1,0-0.2s0.1,0.1,0.2,0s0.1-0.1,0.2-0.1c0.1-0.1,0.2-0.2,0.2-0.4c0,0,0,0,0.1,0s0-0.3,0.1-0.4
		s-0.1-0.1-0.1-0.1s-0.1-0.1-0.1-0.1s0-0.1,0-0.1s0.1,0,0.1,0s-0.1-0.1,0-0.1s0.1,0.1,0.1,0.2c0,0.1,0,0.2,0.1,0.2c0,0,0,0,0,0
		c0.1-0.1,0-0.4,0.1-0.6c0.1,0,0.1-0.1,0.2-0.1c0-0.1,0.1-0.2,0.2-0.3c0-0.2,0-0.4,0-0.6c0,0.1,0.1,0.2,0.1,0.3s0,0.3,0.1,0.4
		s0-0.1,0-0.1s0,0.1,0.1,0s-0.1-0.1,0-0.2s-0.1-0.1-0.1-0.2s0-0.2-0.1-0.2s0,0.1-0.1,0.1c0-0.2-0.2,0.1-0.2-0.1c0,0,0-0.1,0.1-0.1
		c0-0.1,0-0.2,0.1-0.2s0,0,0.1,0c0.1,0,0.2,0.1,0.3,0.1l0,0c0,0,0.1,0,0.2,0s0-0.1,0-0.2s0-0.1,0.1-0.1s0,0.1,0.1,0.1
		s0.1-0.1,0.1-0.1c-0.1,0.2-0.2,0.3-0.2,0.5c0,0.1,0.1,0.1,0.1,0.1s0,0.2,0.1,0.2s0.1-0.2,0.2-0.2s0.1-0.1,0-0.2s0.1-0.1,0.1-0.1
		s-0.1,0-0.1-0.1s0.2-0.2,0.3-0.1s0-0.1,0.1-0.1s0.2-0.1,0.3-0.1S89.8,11.3,89.8,11.2z M82.5,11.5c0,0.1,0.1,0.1,0.2,0.1v0.3
		c-0.1,0,0-0.1-0.1-0.1s0,0.3-0.1,0.3s-0.1,0-0.2,0s-0.1,0.1-0.1,0.1s-0.1-0.1-0.1,0 M82.1,12c-0.1-0.1-0.1-0.2-0.1-0.3
		c0.1,0,0.1,0.4,0.3,0.3s0.1-0.2,0.1-0.3c0,0,0-0.1,0-0.1c0-0.2,0.2-0.3,0.2-0.5l0,0c0,0.2-0.2,0.2-0.2,0.4L82.1,12z M82.8,11.6
		c0-0.1,0.1-0.1,0.1-0.1S82.8,11.6,82.8,11.6z M82.9,10.6L82.9,10.6C82.9,10.6,82.9,10.7,82.9,10.6L82.9,10.6z M83.3,14.3L83.3,14.3
		C83.3,14.3,83.3,14.3,83.3,14.3L83.3,14.3z M83.3,11.1L83.3,11.1C83.3,11.1,83.3,11.2,83.3,11.1L83.3,11.1z M84.9,10.8
		C84.9,10.8,84.8,10.8,84.9,10.8C84.8,10.6,84.8,10.6,84.9,10.8C84.8,10.8,85,10.7,84.9,10.8L84.9,10.8z M86.3,10.3L86.3,10.3
		C86.3,10.3,86.3,10.3,86.3,10.3L86.3,10.3z M86.3,10.3L86.3,10.3C86.3,10.3,86.3,10.3,86.3,10.3L86.3,10.3z M86.4,10.3L86.4,10.3
		C86.4,10.3,86.4,10.2,86.4,10.3L86.4,10.3z M87.4,13.5c0-0.1,0.1-0.1,0.1-0.1s0,0.1,0,0.1S87.4,13.4,87.4,13.5L87.4,13.5z"/>
	<path class="st1" d="M79.7,16.4c0,0-0.1,0-0.1,0s-0.1-0.1-0.2-0.1h-0.2c0-0.1-0.2,0-0.2-0.1s-0.1,0-0.1,0s-0.1-0.4-0.3-0.3
		c-0.1-0.1-0.1-0.1-0.1-0.2c-0.1,0-0.2-0.1-0.3-0.1s0,0.1-0.1,0.1S78,15.3,78,15.2s0,0.1-0.1,0.1s0-0.1-0.1-0.1s0,0.1-0.1,0.1
		s-0.1,0.1-0.2,0.2c0-0.1,0-0.1-0.1-0.1s-0.1,0.1-0.2,0.1s0-0.2,0-0.4S77.1,15,77,15c0.1-0.1,0.1-0.2,0.1-0.3c-0.1,0-0.1,0-0.2,0
		c0,0.1,0,0.2-0.1,0.2c-0.3,0-0.1-0.4-0.2-0.6c0.1,0,0.1-0.1,0.2-0.1c0.1,0,0.2,0.1,0.3,0.1s0-0.1,0-0.1s0.2,0,0.3,0.1
		s0.1,0.2,0.2,0.2c0-0.1,0-0.2,0-0.3c0,0-0.1-0.1-0.1-0.1c0-0.2,0.1-0.3,0.3-0.3c0,0,0-0.1,0-0.1c0,0,0.1,0,0.1,0
		c-0.1-0.1,0.1-0.1,0-0.3l0.2-0.1c0-0.1-0.1,0,0-0.1c0.1-0.1,0.2-0.1,0.3-0.1c0,0.1,0,0,0,0.1c0.1,0,0.2-0.1,0.2-0.1
		c-0.1,0-0.2,0-0.2-0.1s0.1-0.1,0.1-0.1s0,0,0-0.1c0.1,0.1,0.2-0.1,0.3-0.1s-0.2,0.2-0.2,0.4s0.1,0,0.2,0s0,0.1,0,0.1s0.1,0,0.2,0
		s0-0.1,0-0.2s-0.1-0.1-0.1-0.1c0-0.1,0-0.2,0-0.3c0,0,0,0-0.1,0s-0.1-0.1-0.1-0.2c0,0,0-0.1,0-0.1c-0.1-0.1,0-0.2-0.2-0.3
		s0,0.1,0,0.1s-0.1,0-0.2,0v-0.3c-0.1,0.1-0.1-0.1-0.2-0.1s0,0-0.1,0s0,0-0.1,0c0,0.3-0.1,0.4,0,0.6c0,0-0.1-0.1-0.1,0
		s0.1,0,0.1,0.1s-0.1,0.2-0.1,0.3c0-0.1-0.1-0.2-0.1-0.3c0-0.1,0,0-0.1,0s0,0-0.1,0c-0.1-0.1-0.1-0.1-0.2-0.2c0-0.1-0.1-0.1-0.1-0.2
		s0,0,0.1-0.1s0.1-0.1,0.2-0.2s0.1-0.2,0.2-0.2s0,0,0-0.1c0.1,0,0.2-0.1,0.3-0.1c0-0.1,0-0.2,0-0.3c0,0-0.1,0-0.1-0.1s0.2,0,0.2,0.1
		s0.1,0,0.2,0s0.1,0.1,0.1,0.2S78,11.1,78,11.3s0.1,0.1,0.2,0.1s0.2,0.2,0.4,0.3c0-0.1,0-0.1,0-0.3s-0.1-0.1-0.1-0.1
		s0.1,0.1,0.2,0.1s0-0.1,0.1-0.1s0-0.1,0-0.1s0-0.1-0.1-0.1c-0.1,0-0.1,0-0.2-0.1c0-0.1,0.1,0,0.1-0.1s-0.1-0.1-0.1-0.2h-0.2
		c0-0.1-0.1-0.1-0.1-0.1c-0.1,0-0.1,0-0.2,0c0-0.2-0.2-0.1-0.2,0c0-0.1,0-0.1-0.1-0.1s-0.3,0.3-0.1,0.5s0.1,0,0.1,0
		c0,0.1-0.1,0.1-0.1,0.2c-0.1-0.1,0-0.1,0-0.1c-0.1-0.1-0.1-0.1-0.2-0.2c-0.1,0-0.1-0.1-0.2,0s0,0.1,0,0.1s0.1,0.2,0,0.3
		s0-0.1,0-0.1S77.2,11,77.1,11s-0.2-0.1-0.2-0.1s0.1,0,0.2,0s0-0.1,0-0.1s0.2-0.1,0.3-0.2c0-0.1,0-0.1-0.1-0.2H77
		c0,0.1-0.2,0.1-0.2,0.2c0,0,0-0.1,0-0.1c-0.1,0-0.1,0-0.1-0.1s0.3-0.1,0.5-0.1c0,0.1,0.2,0.1,0.2,0c0-0.1,0-0.1,0-0.2
		c-0.1,0-0.2,0.1-0.3,0.1V9.9C77,9.9,77,10,77,10c-0.1,0-0.2,0-0.3,0s-0.1,0.1-0.1,0.1s0.1,0,0.1,0c0,0-0.1,0.1-0.1,0.1
		c0-0.1-0.2-0.1-0.4-0.1c0,0.1-0.1,0.2-0.1,0.3c0,0.1,0.1,0.1,0.1,0.2c0.1,0,0.2,0,0.2-0.1c0,0.1,0.1,0,0.1,0.1s-0.1,0-0.1,0.1
		s0.2,0,0.2,0.2c0.1-0.1,0.1,0,0.2,0l0,0c0,0,0.1-0.1,0.1,0s0,0-0.1,0s0.1,0.1,0,0.2s0,0,0-0.1c-0.2,0-0.3-0.1-0.5-0.1
		c-0.1,0-0.1-0.1-0.2-0.1s-0.1,0.1-0.1,0.1c0,0,0-0.1,0-0.1c-0.1,0-0.1,0.1-0.2,0.1s-0.1,0-0.2,0s0,0.1-0.1,0.1s0,0,0-0.1
		s-0.1,0-0.2,0s-0.5-0.1-0.7-0.2c-0.2,0.1-0.3,0.1-0.5,0.1c-0.1,0.1,0,0.1,0.1,0.2s0.1,0,0.2,0.1s-0.1,0-0.1,0.1s-0.1-0.1-0.1-0.1
		S74,11,74,11.1c0.1,0,0.2,0.1,0.2,0.2c0.1,0,0.2,0,0.3,0c-0.1,0.2-0.6,0-0.5,0.4c0.1,0.1,0.1,0.1,0.1,0.2s0,0,0.1,0s0,0.1,0,0.1
		s0,0.1,0.1,0.1c0-0.1,0.1-0.1,0.1-0.1c0,0,0.1,0,0.1,0.1c-0.1,0.1-0.1,0.2-0.2,0.3s-0.1,0.1-0.3,0.1c0,0.1,0,0.1,0,0.1s0.1,0,0.2,0
		c0-0.1,0.1-0.1,0.2-0.1c0.1-0.2,0.2-0.3,0.3-0.4l0,0c0,0,0-0.1,0.1-0.1s0,0,0,0l0,0c0,0-0.1,0.1-0.1,0.2c0.2,0,0.2-0.1,0.4-0.1
		c0-0.1,0-0.2,0-0.3c0.1,0,0.1-0.1,0.2-0.1c0.1,0,0.1,0.1,0.2,0.2c0.2,0,0.3,0.2,0.2,0.4c0.1,0,0-0.1,0.1-0.1c0,0.2,0,0.4,0.1,0.6
		c-0.1,0.1,0,0.1,0,0.2s-0.1,0,0,0.1c0,0.2,0,0.5,0,0.7c0.1,0,0.1,0.1,0.2,0.1s0.1,0.3,0.1,0.4s0,0.1,0,0.1s0.1,0.2,0.2,0.3
		s0.1,0,0.1,0s0-0.1,0-0.2s0,0,0,0l0,0c0,0,0,0,0,0.1c0.1,0.1,0.1,0.1,0.2,0.2c0,0.1,0,0.3,0.1,0.4c0.2,0.1,0.3,0.2,0.5,0.1l0.1,0.2
		c0.1,0,0.1,0,0.2,0c0,0.1,0.1,0.1,0.1,0.1v0.1c0.1,0,0.2,0.1,0.3,0.2s0-0.1,0.1-0.1c0,0.1,0,0.2,0.1,0.2c0,0.1-0.1,0,0,0.1
		s-0.1,0.1-0.1,0.3s0.1,0.3,0,0.4s0.1,0.1,0.2,0.1s-0.1,0-0.1,0c0,0.1,0.1,0.3,0.2,0.3c0,0.1,0,0,0,0.1s0.1,0.2,0.2,0.2
		c0.1,0.1,0.1,0.2,0.1,0.4c0,0,0,0.1,0,0.1s0,0,0,0.1s0,0.3,0,0.4s-0.1,0.4-0.1,0.5s0.1,0,0.1,0s-0.1,0.1-0.1,0.2s0.1,0,0,0.1
		s0,0.1,0,0.2s0.1,0.3,0,0.4s0.1,0.2,0.1,0.3s0,0,0,0.1s0.1,0,0.1,0.1s0.2,0,0.2,0c-0.1,0-0.1,0-0.1-0.1c0-0.1-0.1,0-0.1-0.1
		s0.1-0.1,0.1-0.2s0.1,0,0.1-0.1s-0.1-0.1-0.1-0.1s0.2-0.3,0-0.4c0.2,0,0.1-0.1,0.2-0.2s0.2-0.1,0.2-0.1s0-0.2,0-0.3h0.2l0,0
		c0,0,0-0.1,0.1-0.1c0-0.1,0.1-0.2,0.1-0.3V18c0,0,0.1-0.1,0.1-0.1l0.2-0.1c0-0.2,0.1-0.3,0-0.5c0,0,0-0.1,0-0.1c0,0,0,0,0.1,0
		s0.1-0.1,0.1-0.2s0-0.1,0.1-0.1s0-0.1,0-0.1C79.9,16.6,79.8,16.5,79.7,16.4z M78.7,12.2L78.7,12.2C78.7,12.2,78.7,12.2,78.7,12.2z
		 M77,10.2c0.1,0,0,0.1,0,0.1S77,10.3,77,10.2L77,10.2z M76.9,10.3c0.1,0,0.1,0.1,0.2,0s-0.1,0.1-0.2,0.1V10.3z M76.3,10.4
		L76.3,10.4C76.3,10.4,76.3,10.4,76.3,10.4L76.3,10.4z M75.8,14L75.8,14C75.8,14,75.8,14.1,75.8,14z M75.8,14.1c0,0,0,0.1,0.1,0.1
		S75.8,14.2,75.8,14.1L75.8,14.1z"/>
	<path class="st1" d="M84.1,10.6c0-0.1-0.1-0.1-0.1-0.3c0.2,0,0.2-0.1,0.3-0.2c0.1,0,0.2,0,0.2-0.1c0,0,0,0,0,0h-0.1V10
		c-0.1,0-0.3,0.1-0.4,0.1c0,0.1-0.1,0.1-0.1,0.3s-0.1,0.1-0.1,0.1L84.1,10.6C84.1,10.7,84.1,10.6,84.1,10.6z"/>
	<path class="st1" d="M87.7,10.2c0,0,0.1-0.1,0.1-0.1s-0.1-0.1-0.2-0.1s0,0.1,0,0.1h-0.1C87.5,10.1,87.7,10.1,87.7,10.2z"/>
	<path class="st1" d="M80.8,11.3c0-0.1,0.1,0,0.1-0.1s-0.1-0.1-0.1-0.3s-0.1,0-0.2,0s-0.1-0.1-0.1-0.1s-0.1,0.1-0.1,0.2s0.1,0,0.1,0
		s-0.1,0.1-0.1,0.1s0.1,0.1,0.2,0.1S80.8,11.3,80.8,11.3z"/>
	<path class="st1" d="M77.8,11.3c-0.1,0,0-0.1-0.1-0.1s-0.1,0-0.1,0s0,0.2-0.1,0.1s0.1,0.1,0.2,0.1C77.7,11.2,77.8,11.4,77.8,11.3z"
		/>
	<path class="st1" d="M81.7,12.2C81.6,12.2,81.6,12.2,81.7,12.2c-0.1-0.2-0.2-0.3-0.2-0.4l-0.1-0.1c0,0,0.1-0.1,0.1-0.1
		c-0.1,0-0.1,0-0.2,0c0,0.1,0,0.2,0,0.3l0.1,0.1c0,0.1-0.1,0.1-0.1,0.1c0,0.1,0,0.1,0,0.2c0,0-0.1,0-0.1,0.1c0.1,0,0.2,0,0.3,0
		C81.6,12.4,81.6,12.3,81.7,12.2z"/>
	<path class="st1" d="M81.1,12.3c0,0,0.1,0,0.2-0.1c0-0.1,0-0.2,0-0.2h-0.1c0,0.1,0,0-0.1,0.1S81.1,12.3,81.1,12.3z"/>
	<path class="st1" d="M88.5,13C88.5,13,88.5,13.1,88.5,13c0.1,0.1,0.1-0.1,0.2-0.1c-0.1,0-0.2-0.1-0.3-0.1c0,0.1,0,0.2,0,0.3
		C88.4,13.1,88.4,13,88.5,13z"/>
	<path class="st1" d="M88,13.8c0,0.1,0,0.1,0.1,0.1c0-0.1,0.1-0.1,0.1-0.2c0,0,0,0,0.1,0c0.1-0.1,0.2-0.1,0.3-0.2s0-0.3,0-0.5h-0.1
		c0,0.1,0,0.2,0,0.3s0,0,0,0.1c-0.1,0-0.1,0.1-0.2,0.1C88.2,13.6,88.1,13.6,88,13.8c0.1,0.1,0.2-0.1,0.2,0L88,13.8z"/>
	<path class="st1" d="M82.7,13.6c0,0.1,0.1,0,0.1,0.1C82.9,13.6,82.9,13.6,82.7,13.6C82.7,13.6,82.7,13.6,82.7,13.6z"/>
	<path class="st1" d="M87.6,14.5c0,0,0.1,0.1,0.1,0.1c0.1,0,0.1-0.1,0.1-0.2S87.6,14.4,87.6,14.5z"/>
	<path class="st1" d="M77.5,14.4v0.1h0.1C77.6,14.4,77.6,14.4,77.5,14.4z"/>
	<path class="st1" d="M77.8,14.5c0,0,0-0.1,0-0.1h-0.1C77.7,14.5,77.7,14.5,77.8,14.5z"/>
	<path class="st1" d="M77.8,14.5v0.1c0,0,0.1,0,0.1,0S77.8,14.5,77.8,14.5z"/>
	<path class="st1" d="M77.7,14.9c0.1,0,0.1,0,0.2,0s0.1,0,0.2,0c0-0.2-0.2-0.1-0.3-0.1s0-0.1,0-0.1s-0.1,0-0.1-0.1h-0.3
		c0,0.1,0,0.1,0,0.1s0.1-0.1,0.2-0.1s0.1,0.1,0.2,0.1s0.2,0,0.2,0S77.7,14.8,77.7,14.9z"/>
	<path class="st1" d="M78,14.6C78,14.6,77.9,14.6,78,14.6C77.9,14.6,78,14.7,78,14.6z"/>
	<path class="st1" d="M87.6,14.9c0,0.1,0.1,0.1,0.1,0.2c0-0.1,0.1-0.1,0.1-0.2c0-0.1-0.1-0.1-0.2,0C87.7,14.8,87.6,14.8,87.6,14.9z"
		/>
	<path class="st1" d="M87.1,15c0.1,0,0.1-0.1,0.1-0.1c0,0-0.1,0-0.1,0C87.1,14.9,87.1,14.8,87.1,15z"/>
	<path class="st1" d="M77.5,14.8v0.1c0.1,0,0.1,0,0.2,0S77.6,14.9,77.5,14.8z"/>
	<path class="st1" d="M78.1,14.9c0.1,0,0.2,0,0.1-0.1h-0.1V14.9z"/>
	<path class="st1" d="M80.4,14.9c0,0.1-0.1,0,0,0.1h0.1C80.4,15,80.4,15,80.4,14.9z"/>
	<path class="st1" d="M87.8,15.4c0,0.1,0.1,0,0.1,0s0,0.1,0,0.1c0-0.1,0.1-0.1,0.2-0.1c0-0.1-0.1-0.1-0.1-0.1s0-0.1-0.1-0.1
		s0,0.1,0,0.2S87.8,15.3,87.8,15.4z"/>
	<path class="st1" d="M85.7,15.4c0,0.1-0.1,0.2,0,0.3s0.1-0.1,0.1-0.1C85.8,15.5,85.7,15.5,85.7,15.4z"/>
	<path class="st1" d="M87.1,16.1c0,0.1,0.1,0.1,0.1,0.3c0.1,0,0.1,0.1,0.3,0.1c0-0.1,0.1,0,0.1-0.1s-0.1,0-0.1,0s0-0.2,0.1-0.2
		s0-0.2,0-0.2c0,0,0.1-0.1,0.1-0.1c0-0.1-0.1-0.1-0.2-0.1C87.4,15.9,87.1,15.9,87.1,16.1z"/>
	<path class="st1" d="M86.7,15.9c0-0.1-0.1-0.1-0.1-0.2s0-0.1-0.1-0.1s0,0-0.1,0c0,0.3,0.3,0.2,0.3,0.6c0.1,0,0.1,0.2,0.2,0.1
		s0-0.2,0-0.3C86.8,16,86.8,16,86.7,15.9z"/>
	<path class="st1" d="M87.9,16.1c0-0.1-0.1-0.1-0.2-0.1c-0.1,0.1-0.2,0.4,0,0.5c0,0,0-0.1,0-0.1c0,0,0,0.1,0.1,0.1s-0.1-0.1-0.1-0.3
		C87.8,16.2,87.9,16.2,87.9,16.1C87.9,16.1,87.9,16.1,87.9,16.1z"/>
	<path class="st1" d="M88.4,16c-0.1-0.1-0.2,0-0.2,0.1S88.4,16.1,88.4,16z"/>
	<path class="st1" d="M88.6,16.1h-0.2c0,0,0,0.1-0.1,0.1s0-0.1-0.1,0s-0.1,0-0.1,0.1s0.1,0,0.1,0c0.1,0.1,0.2,0.2,0.3,0.3v0.1
		c0.1-0.1,0.2,0,0.2,0.1s0-0.1,0.2-0.1s0.1,0.2,0.2,0.1s-0.1-0.1-0.1-0.1S89,16.5,89,16.4v-0.1C88.8,16.3,88.8,16.2,88.6,16.1z"/>
	<path class="st1" d="M87.5,16.7c0-0.1-0.1-0.1-0.1-0.1c-0.2,0-0.3,0-0.4-0.1c0,0-0.1,0.1,0,0.2C87.1,16.6,87.2,16.7,87.5,16.7z"/>
	<path class="st1" d="M89.1,17.7c0-0.1,0-0.2,0-0.3s0-0.1-0.1-0.1c0-0.2-0.2-0.2-0.1-0.5c0,0,0,0-0.1,0s0,0.4-0.1,0.4s0-0.1-0.1-0.1
		s-0.1,0-0.1-0.1s0.1,0,0.1-0.1s-0.3,0-0.4-0.1s0,0.1,0,0.1c-0.1,0-0.2,0-0.2,0.1c0,0.1,0,0.2-0.1,0.2s-0.1,0-0.2,0s0,0.1,0,0.1
		s0-0.1-0.1,0s0,0.2-0.1,0.3s-0.1,0-0.2,0.1s0.1,0.3,0,0.4c0,0,0.1,0.1,0.1,0.1c0,0.1,0,0.1,0,0.3s0.1,0.1,0.1,0s0.1-0.1,0.3-0.1
		c0.1-0.1,0.3-0.2,0.4-0.1c0.1,0.1,0.1,0.1,0.1,0.2c0.1,0,0.1,0.1,0.2,0s0,0.1,0,0.2c0.1,0.1,0.3,0.1,0.4,0.1c0.1,0,0.1-0.1,0.2-0.1
		s0.1-0.1,0.1-0.3s0-0.1,0.1-0.1s0-0.1,0-0.2c0-0.2,0-0.3-0.1-0.5C89.1,17.6,89.1,17.8,89.1,17.7z"/>
	<path class="st1" d="M84,16.9c0,0.1-0.1,0.2-0.1,0.3c-0.1,0-0.1,0.1-0.2,0.2s0,0.1,0,0.2c0,0.1,0,0.1-0.1,0.1c0,0.1,0,0.2,0.1,0.3
		s0.1,0,0.2,0c0-0.1,0.1-0.2,0.1-0.3v-0.1c0,0,0,0,0,0s0-0.2,0-0.4C84,17.1,84.1,16.9,84,16.9z"/>
	<path class="st1" d="M90.3,18.6c0-0.1,0-0.1-0.1-0.1L90.3,18.6c-0.1,0.1-0.2,0.1-0.2,0.3s0,0.1,0,0.1s0.1-0.2,0.2-0.3
		s0.1,0,0.1-0.1S90.4,18.6,90.3,18.6z"/>
	<path class="st1" d="M90,18.9c0,0-0.1,0.1-0.1,0.1c0,0-0.1,0-0.1,0c0,0,0,0.1-0.1,0.1s-0.1,0.1-0.2,0.3c0.1,0,0.1,0,0.2,0
		s0.1-0.1,0.1-0.2H90c0-0.1,0.2-0.1,0.2-0.3S90.1,18.9,90,18.9z"/>
	<path class="st1" d="M88.6,19c0,0,0.1,0.1,0.1,0.2s0.2-0.1,0.2-0.2C88.7,19,88.6,18.9,88.6,19z"/>
	<path class="st1" d="M78.7,19.8L78.7,19.8C78.8,19.6,78.7,19.7,78.7,19.8z"/>
	<path class="st11" d="M75.8,56.7c0,0-2.5,8.9-4.5,12.1s-2.7-1-2.7-1L71.1,53h5.8C76.9,53,76.8,53.3,75.8,56.7z"/>
	<path class="st11" d="M73.1,53c0,0,1.7,14.6,1.9,15.3c0.8,2.5,2.7,0.9,3,0.1c0.5-3.8,0.7-7.6,0.6-11.4c-0.1-4.5-0.1-4.2-0.1-4.2
		L73.1,53z"/>
	<path class="st12" d="M78.2,81.7c0.1,0.1,0,0.4,0,0.4c-0.7,0.1-1.3,0.1-2,0c-0.2-0.1-0.4-0.1-0.5-0.3c0,0-0.1-0.1-0.1-0.2
		s-0.1,0-0.1,0c-0.1,0-0.2-0.1-0.2-0.2c-0.1-0.3-0.1-0.7,0-1c0,0,1.3-0.4,1.5-0.1C77.1,80.8,77.6,81.3,78.2,81.7z"/>
	<path class="st12" d="M68.8,81l-0.2,1.1h-1.2c0,0-0.1-0.2-0.2-0.2s-0.2,0.2-0.3,0.2h-3c0,0,0-0.2,0-0.3c0.1-0.1,0.2-0.1,0.3-0.2
		c0.6-0.2,2.3-0.7,2.6-1.3S68.8,81,68.8,81z"/>
	<path class="st13" d="M75.3,37.1c0,0.4,0.3,0.7,0.5,0.6l0,0c0.3,0,0.4-0.3,0.4-0.7v-0.5c0-0.4-0.3-0.7-0.5-0.6l0,0
		c-0.3,0-0.4,0.3-0.4,0.7L75.3,37.1z"/>
	<path class="st13" d="M73.8,41c0.1,0.5,0.5,0.8,0.8,0.8l1-0.1c0.3-0.1,0.6-0.5,0.6-1L76,38.2c0-0.7-0.4-1.3-0.9-1.6
		c-0.5-0.2-1-0.1-1.5,0.2c-0.4,0.5-0.6,1.2-0.4,1.8C73.4,39.4,73.6,40.2,73.8,41z"/>
	<path class="st14" d="M81.5,50.9l-3.7,3.8c0,0,4.5-1,4.7-2.9S81.5,50.9,81.5,50.9z"/>
	<path class="st4" d="M70.3,41.9l3-1.1l1.6,0.5l2-0.2l2.2,1c0,0,1,1,0.1,4.1c-0.6,2.6-0.8,5.3-0.6,8l-7.9,0.3c0,0-0.3-4.5-0.7-9
		C69.8,41.9,70.7,42.7,70.3,41.9z"/>
	<path class="st4" d="M77.8,42.2c0,0,1.2-1,2.4,0.8c1.3,2,2.4,4.2,3.3,6.4c0.2,0.6,0.5,2.5-0.3,3L82.3,53l-1.8-1.1l0.3-0.5l0.1-0.3
		c0,0-1-2.2-2.1-4.2C78.2,45.3,77.8,43.8,77.8,42.2z"/>
	<path class="st14" d="M73.1,39.7c0.2,0.4,0.6,0.6,1.1,0.5c0.4-0.1,0.5-0.1,0.9-0.2s0.7-0.8,0.6-1.4c-0.1-0.9,0.1-1.7,0-2.6
		c-0.1-0.5-0.4-0.9-1.2-1.1s-1.6-0.6-2.1-0.2c-0.5,0.6-0.7,1.4-0.4,2.1L73.1,39.7z"/>
	<polygon class="st15" points="75,41.3 75.7,42.4 77,40.9 76.4,40.3 	"/>
	<polygon class="st15" points="73.6,40.3 74.4,41.1 73.9,42 73.2,40.8 	"/>
	<path class="st11" d="M74.6,62.1c0,0,0.4,5.5,0.3,8.5c-0.1,3.3,0,6.7,0.3,10c0,0.2,1.8,0.1,1.8,0.1s1.2-13.8,1.4-16
		S76,60.5,74.6,62.1z"/>
	<path class="st11" d="M69.2,68.2c0.7,0.1,1.4,0.2,2.1,0.3c0.7,0.1-2.1,12.8-2.1,12.8l-2.3-1l1.7-12.8L69.2,68.2z"/>
	<path class="st16" d="M75.8,35.2L75.8,36c0,0-0.9-0.5-1.6-1c-0.7,0-1.4,0.2-2.1,0.5C71.9,35.6,72,36,72,36.2c0,0.8-0.3-1.2-0.3-1.2
		c0.1-0.6,0.6-1.2,1.1-1.5c0.4-0.2,0.9,0,1.2,0.3c0.1,0.1-0.6,0-0.5,0c0.3,0.1,0.6,0.2,0.8,0.4c0.2,0.2,0.3,0.3,0.5,0.5
		C75.6,35.2,75.8,35.2,75.8,35.2z"/>
	<polygon class="st13" points="73.7,36.3 73.3,36.5 73.5,36.7 73.2,37 73.3,38.3 73.9,38.2 73.7,37.4 73.9,36.9 74.7,36.6 	"/>
	<polygon class="st4" points="82.3,52.6 80.8,51.3 80.2,52.2 81.7,53.4 	"/>
	<path class="st14" d="M78.9,53.3l-0.2,0.1c0,0.2-0.1,0.4-0.2,0.6C78.4,54,78,54.4,78,54.4l-0.5,0.5l-0.3,0.2c0,0-0.2,0.1-0.2,0.2
		s0.1,0.1,0.1,0.1l1.1-0.8l-0.8,1c0,0-0.1,0.1,0,0.2s0.1,0,0.1,0l1.2-0.9l-0.4,0.5c0,0-0.1,0.1,0,0.2l0.1,0.1l0.9-1
		C79.3,54.8,79.1,53.2,78.9,53.3z"/>
	<path class="st14" d="M78.4,54.9l-0.6,0.7c-0.1,0.1-0.1,0.2-0.2,0.3c0,0.1,0,0.1,0.1,0.1c0,0,0,0,0,0l0.9-1L78.4,54.9z"/>
	<path class="st15" d="M75,54.2h-0.8c-0.9-4.3-0.8-8.8,0.1-13.1l0.8,0.3C74.1,45.6,74.1,50,75,54.2z"/>
	<path class="st14" d="M64.2,52.6l-2.9,4h-1.2c0,0,0-0.1,0.3-0.2c0.1,0,0.4,0,0.5-0.1s0.4-0.2,0.5-0.4c0-1.4,0.3-2.8,0.8-4.1
		C63.1,50,64.3,52.5,64.2,52.6z"/>
	<path class="st4" d="M70.9,41.7c0,0-2,0.4-5.3,4.6s-3,4.4-3,4.4l-0.5,1.1l1.8,1.4l5.8-6.6L70.9,41.7z"/>
	<path class="st15" d="M71.3,44.8l-4.1,4.5l-1.7,1.5l0.5-0.9c0,0,0.4-0.5,2.3-3c0.7-0.9,1.5-1.8,2.3-2.5L71.3,44.8z"/>
	<polygon class="st15" points="63,51.3 64.2,52 64.5,52.3 63.9,53.1 62.8,52 	"/>
	<path class="st14" d="M59.7,55.9c-0.3,0.2-1,0.5-0.8,0.6l1.2-0.5h0.6l0.4,0.3l0.2-0.3c0.2,0,0.3-0.1,0.2-0.3l0.1-0.1
		c-0.3-0.1-0.5-0.1-0.8-0.1l-0.6,0.2C60,55.7,59.9,55.8,59.7,55.9z"/>
	<path class="st17" d="M84.8,31.7h8.7c0.2,0,0.3,0.1,0.3,0.3v7.3c0,0.2-0.1,0.3-0.3,0.3h-8.7c-0.2,0-0.3-0.1-0.3-0.3V32
		C84.4,31.9,84.6,31.7,84.8,31.7z"/>
	<path class="st4" d="M84.4,32.9V32c0-0.2,0.1-0.3,0.3-0.3h8.7c0.2,0,0.3,0.1,0.3,0.3v0.8"/>
	<rect x="88.1" y="34.1" class="st18" width="0.6" height="0.6"/>
	<rect x="89.3" y="34.1" class="st18" width="0.6" height="0.6"/>
	<rect x="90.6" y="34.1" class="st18" width="0.6" height="0.6"/>
	<rect x="91.9" y="34.1" class="st18" width="0.6" height="0.6"/>
	<rect x="85.6" y="35.4" class="st18" width="0.6" height="0.6"/>
	<rect x="86.8" y="35.4" class="st18" width="0.6" height="0.6"/>
	<rect x="88.1" y="35.4" class="st19" width="0.6" height="0.6"/>
	<rect x="89.3" y="35.4" class="st19" width="0.6" height="0.6"/>
	<rect x="90.6" y="35.4" class="st18" width="0.6" height="0.6"/>
	<rect x="91.9" y="35.4" class="st18" width="0.6" height="0.6"/>
	<rect x="85.6" y="36.6" class="st20" width="0.6" height="0.6"/>
	<rect x="86.8" y="36.6" class="st20" width="0.6" height="0.6"/>
	<rect x="88.1" y="36.6" class="st20" width="0.6" height="0.6"/>
	<rect x="89.3" y="36.6" class="st18" width="0.6" height="0.6"/>
	<rect x="90.6" y="36.6" class="st11" width="0.6" height="0.6"/>
	<rect x="91.9" y="36.6" class="st18" width="0.6" height="0.6"/>
	<rect x="85.6" y="37.9" class="st18" width="0.6" height="0.6"/>
	<rect x="86.8" y="37.9" class="st18" width="0.6" height="0.6"/>
	<rect x="88.1" y="37.9" class="st18" width="0.6" height="0.6"/>
	<line class="st21" x1="85.7" y1="34.4" x2="86" y2="34.4"/>
	<line class="st21" x1="87" y1="34.4" x2="87.3" y2="34.4"/>
	<line class="st21" x1="92" y1="38.2" x2="92.3" y2="38.2"/>
	<line class="st21" x1="90.8" y1="38.2" x2="91.1" y2="38.2"/>
	<line class="st21" x1="89.5" y1="38.2" x2="89.8" y2="38.2"/>
	<line class="st22" x1="87.9" y1="32.4" x2="90.8" y2="32.4"/>
	<line class="st22" x1="85.1" y1="32.4" x2="85.4" y2="32.4"/>
	<line class="st22" x1="92.8" y1="32.4" x2="93.1" y2="32.4"/>
	<rect x="84.4" y="32.9" class="st23" width="9.3" height="0.2"/>
	<path class="st11" d="M61.7,29.4H68c0.4,0,0.7,0.3,0.7,0.7c0,0,0,0,0,0v4.6c0,0.4-0.3,0.7-0.7,0.7h-0.7v1.4l-1.6-1.4h-4
		c-0.4,0-0.7-0.3-0.7-0.7v-4.6C61,29.7,61.3,29.4,61.7,29.4z"/>
	<line class="st24" x1="67" y1="34.3" x2="67" y2="32.2"/>
	<line class="st24" x1="65.6" y1="34.3" x2="65.6" y2="33.2"/>
	<line class="st24" x1="64.2" y1="34.3" x2="64.2" y2="30.4"/>
	<line class="st24" x1="62.8" y1="34.3" x2="62.8" y2="31.5"/>
	<path class="st25" d="M5,82.4C5,87.1,25.1,91,50,91s45-3.8,45-8.5S74.8,74,50,74S5,77.8,5,82.4z"/>
	<path class="st26" d="M82.2,46.7h1v0.5C82.9,46.9,82.6,46.7,82.2,46.7z"/>
	<path class="st26" d="M81.9,46.7v1.4c0,0.7,0.6,1.2,1.2,1.2h0.1v2.2h-4.4v-4.8H81.9z"/>
	<path class="st27" d="M79.4,49.8c0,0,1.7,0.6,0.1,5.6s-2.8,4.4-2.8,4.4l-1.4-0.1l-2.7-3.1l1.4-1.3l0.3,0.1c0.2-0.1,0.4-0.3,0.4-0.5
		c0.5-1.5,0.9-3.1,1.2-4.7C76.3,48.8,79.1,49.7,79.4,49.8z"/>
	<path class="st28" d="M73.1,56.6c-2,1-4.4,0.3-5.6-1.6c-0.6-1-0.4,0.2,0,1.3s2.5,3.6,4.9,3.8s3.3,0,3.8-0.8S73.1,56.6,73.1,56.6z"
		/>
	<path class="st29" d="M76,55.8l-0.9-0.6L74.8,55c-0.1,0.2-0.2,0.3-0.4,0.4l0.7,0.3l0.8,0.5l0.8,1L76,55.8z"/>
	<path class="st27" d="M76.2,64.1l6.5-0.1l2.7-9c0,0,1.2-5.4-1.1-5.5c-3.3-0.1-7.8-0.1-7.8-0.1S74.3,51.3,76.2,64.1z"/>
	<path class="st29" d="M78.6,63.6l-0.8,0.1c-0.4-4.8,0-9.5,1.3-14.2l0.6,0.2C78.5,54.3,78.1,59,78.6,63.6z"/>
	<path class="st16" d="M65.5,83.3c0,0,0.6,1,1,0.4c1-1.8,1.8-7.4,1.9-9.8c0.1-3.1,0.2-5,0.2-5l-3.1-1.1L65.5,83.3z"/>
	<path class="st16" d="M76.5,64.1l-11,3.8l2.9,1.6c0,0,11.3,2,11.5-2.2C80.1,63.7,76.5,64.1,76.5,64.1z"/>
	<path class="st30" d="M69.4,83.4c0,0,0.6,0.5,0.9-0.1c1.4-2.8,2.2-5.8,2.6-8.9c0.1-1.8-0.1-3.5-0.4-5.2l-3.2-1.1L69.4,83.4z"/>
	<path class="st30" d="M79.9,64.2l-10.5,4l2.9,1.6c0,0,10.6,2,10.8-2.2S79.9,64.2,79.9,64.2z"/>
	<path class="st30" d="M83.3,67.7c0,0.6-0.2,1.1-0.5,1.6c-1,1.2-3.3,0.8-5.2,0.8c-0.2-0.5-0.4-1-0.6-1.5l-0.8-4.8l6.6,0.1
		C83,65.2,83.2,66.5,83.3,67.7z"/>
	<path class="st28" d="M72.6,61.1l-2.4-0.4c0,0-0.4,0-0.4,0.2s0,1.5,0,1.5l0.4-0.3l0.6,0.4l0.7-1c0.2,0,0.5,0,0.7,0
		C72.4,61.5,72.6,61.1,72.6,61.1z"/>
	<path class="st28" d="M78.5,60.4l-6.4,0.7c0,0,3.4,1.7,5,1.8c1,0,2-0.1,3-0.3L78.5,60.4z"/>
	<path class="st29" d="M81.7,53.8l-3.2,6l0.2,0.5l-0.5,0.1l1.5,2.4l2.3-0.5l4.2-8.3c0.5-1.6,0.1-3.3-1.1-4.4
		C84.1,48.6,81.9,53.4,81.7,53.8z"/>
	<path class="st27" d="M80.8,61.9c0,0-1.5-1.2-2.3-1.8l0.1,0.2l-0.5,0.1l0.5,0.8l0.9,1l0.5-0.2l-0.2-0.4L80.8,61.9z"/>
	<path class="st16" d="M78.8,45.2c0,0.4,0.3,0.8,0.8,0.8h3c0.4,0,0.8-0.4,0.8-0.8l0,0l0,0c0-0.4-0.4-0.8-0.8-0.8l0,0h-3
		C79.2,44.4,78.8,44.8,78.8,45.2z"/>
	<path class="st16" d="M79.4,46.6c0,0.8,0.7,1.4,1.5,1.4h1.6c0.8,0,1.5-0.7,1.5-1.5l0,0c0-0.8-0.6-1.5-1.4-1.5c0,0,0,0,0,0h-1.6
		C80,45.1,79.4,45.7,79.4,46.6L79.4,46.6z"/>
	<path class="st28" d="M78.2,48.9v-4.5c0-0.7,0.6,0,1.3,0h0.7c0.7,0,1.3,0.6,1.3,1.3c0,0,0,0,0,0v3.2H78.2z"/>
	<path class="st28" d="M81,46.7c0,0.3,0.3,0.6,0.6,0.6l0,0l0,0c0.3,0,0.6-0.3,0.6-0.6v0l0,0c0-0.3-0.3-0.6-0.6-0.6c0,0,0,0,0,0l0,0
		C81.3,46.1,81,46.4,81,46.7C81,46.7,81,46.7,81,46.7z"/>
	<path class="st28" d="M78.6,47.5c0,0.2-0.1,0.3-0.3,0.3c0,0,0,0,0,0H78c-0.2,0-0.3-0.1-0.3-0.3c0,0,0,0,0,0c0,0,0.6-1.7,0.8-1.7
		c0.1,0.1,0.1,0.2,0.1,0.3V47.5z"/>
	<path class="st16" d="M80.1,48.7c1.3,0,1.4-0.4,1.5-0.9c0.2,0.5,0.3,1,0.3,1.5v0.4c-0.1,0.9-0.9,1.5-1.8,1.5h-1.8v-2.5H80.1z"/>
	<path class="st16" d="M78.2,47.8h1.1c0.5,0,0.9,0.4,0.9,0.9c0,0,0,0,0,0c0,0.1,0,0.1,0,0.2h-1.9L78.2,47.8z"/>
	<path class="st28" d="M79.6,48.7V49c0,0.1-0.1,0.1-0.2,0.1h-0.8c-0.1,0-0.1-0.1-0.1-0.1v-0.3L79.6,48.7z"/>
	<path class="st16" d="M78.7,43.5h2.7c0.3,0,0.5,0.2,0.5,0.5c0,0,0,0,0,0v1h-3.2V43.5z"/>
	<path class="st16" d="M77,44.3c0,0.4,0.4,0.8,0.8,0.8l0,0h1.8c0.4,0,0.8-0.4,0.8-0.8l0,0l0,0c0-0.4-0.4-0.8-0.8-0.8l0,0h-1.8
		C77.4,43.5,77,43.9,77,44.3z"/>
	<rect x="80.8" y="44.7" class="st16" width="0.7" height="1.9"/>
	<rect x="79.2" y="43.9" class="st16" width="2.1" height="2.3"/>
	<path class="st28" d="M80.8,46.2c0-0.6-0.5-1.1-1.1-1.1h-0.6c-0.6,0-1,0.5-0.9,1.1c0,0,0,0,0,0l0,0c0,0.6,0.5,1.1,1.1,1.1l0,0h0.4
		C80.4,47.3,80.8,46.8,80.8,46.2C80.8,46.2,80.8,46.2,80.8,46.2z"/>
	<path class="st28" d="M67.8,56.1c0,0,0.5-1.2,0.3-1.6s-1-1.5-1-1.5l-0.2-0.3c0,0-0.4,0.1,0.1,0.9s0.1,0.5,0.1,0.5l-0.7-0.5l-1-0.6
		l-0.4-0.3c0,0-0.2-0.2-0.3-0.2c-0.3,0-0.2,0.2-0.2,0.2l1.5,1.3l-1.7-0.9c0,0-0.2-0.1-0.3,0s0,0.1,0,0.1l1.6,1.5l-0.9-0.4
		c0,0-0.2-0.1-0.3,0c0,0-0.1,0.1-0.1,0.1l3.3,1.9L67.8,56.1z"/>
	<path class="st28" d="M65.6,54.3l-1.2-0.6c-0.1-0.1-0.3-0.1-0.4-0.2c-0.1,0-0.2,0.1-0.2,0.2c0,0,0,0,0,0l1.7,1L65.6,54.3z"/>
	<path class="st30" d="M68.4,84.3c0,0.1,0,0.2,0,0.3c0.4,0.1,0.9,0.1,1.3,0.1c0.1-0.1,0.2-0.1,0.3-0.2c0,0,0-0.1,0.1-0.1
		s0.1,0,0.1,0c0.1,0,0.1-0.1,0.2-0.1c0.1-0.3,0.1-0.6,0-0.9c0,0-0.8-0.4-1-0.1C69.1,83.7,68.8,84,68.4,84.3z"/>
	<path class="st16" d="M66.6,83.6l-0.1,0.9h-0.7c0,0,0-0.1-0.1-0.1s-0.1,0.1-0.2,0.1h-1.9c0,0,0-0.2,0-0.3s0.2-0.1,0.2-0.1
		c0.4-0.1,1.5-0.4,1.8-0.8S66.6,83.6,66.6,83.6z"/>
	<path class="st9" d="M93.6,47.8v-4.9c0-0.4-0.3-0.7-0.7-0.7h-6.2c-0.4,0-0.7,0.3-0.7,0.7v0v1.5l-0.3,0.3l-0.7,0.7l0.7,0.7l0.3,0.3
		v1.5c0,0.4,0.3,0.7,0.6,0.7c0,0,0,0,0,0H93C93.3,48.5,93.6,48.2,93.6,47.8z"/>
	<path class="st17" d="M87.8,45.1v0.6h0.7c0,0.2,0.1,0.4,0.2,0.5l-0.5,0.5l0.4,0.5l0.5-0.5c0.2,0.1,0.4,0.2,0.6,0.2v0.7h0.6V47
		c0.2,0,0.4-0.1,0.6-0.2l0.5,0.5l0.4-0.5l-0.5-0.5c0.1-0.2,0.2-0.4,0.2-0.5h0.7v-0.6h-0.7c0-0.2-0.1-0.4-0.2-0.6l0.5-0.5l-0.4-0.4
		l-0.5,0.5c-0.2-0.1-0.4-0.2-0.6-0.2v-0.7h-0.6v0.7c-0.2,0-0.4,0.1-0.6,0.2l-0.5-0.5l-0.4,0.4l0.5,0.5c-0.1,0.2-0.2,0.4-0.2,0.6
		L87.8,45.1z M90,44.5c0.5,0,0.9,0.5,0.9,1c0,0.5-0.5,0.9-1,0.9c-0.5,0-0.9-0.4-0.9-1C89,44.9,89.4,44.5,90,44.5
		C90,44.5,90,44.5,90,44.5z"/>
	<path class="st9" d="M83.9,81.9c0.2-0.9,0.7-1.7,1.3-2.4c0.7-0.7,1.5-1.4,2.4-1.9c1-0.4,1.3-1.1,0.9-1.4s-1.7-1-3.3,0.7
		c-1.3,1.1-2,2.8-2,4.5C83.3,83,83.8,82.8,83.9,81.9z"/>
	<path class="st31" d="M87.9,76.5c-0.8,0.2-1.6,0.6-2.3,1c-1.1,0.9-1.9,2.1-2.1,3.5"/>
	<path class="st2" d="M83.4,82.5c0,0-0.8-2.3-1.2-3c-0.3-1-0.3-2.2,0.2-3.1c0.8-0.8,1.2-2,1-3.2c-0.4-1.5-0.2-2.4,0.5-1.8
		c2.3,1.7,2.7,4.9,1,7.2c-0.1,0.1-0.2,0.2-0.3,0.3C84,79.9,83.5,81.2,83.4,82.5z"/>
	<path class="st32" d="M83.2,81.9c0,0-0.4-2.3,0-3.2c0.7-1.2,1.2-2.5,1.6-3.8c0-1-0.3-2-0.8-2.8"/>
	<path class="st30" d="M80.2,79.1c-0.9-0.2-1-1.3-0.3-1.5c0.9-0.3,1.8-0.1,2.5,0.6c0.7,1.1,0.9,2.3,0.7,3.6c-0.2,1.1,0-0.4-0.5-1.2
		C82.1,79.8,81.2,79.2,80.2,79.1z"/>
	<path class="st33" d="M79.8,78.2c0.8-0.1,1.6,0.1,2.2,0.6c0.7,0.7,1.2,1.6,1.3,2.6"/>
	<polygon class="st11" points="85,84.7 82.4,84.7 81.9,80.5 85.4,80.5 	"/>
	<path class="st6" d="M50.5,73.2l0.7,1l-5.4,1.7c0,0-0.4-0.3,1-1C48.2,74,50.5,73.2,50.5,73.2z"/>
	<path class="st6" d="M51.5,73.2l-0.7,1l5.5,1.8c0,0,0.4-0.3-1-1C53.7,74,51.5,73.2,51.5,73.2z"/>
	<rect x="50.4" y="70.2" class="st6" width="1.1" height="4.1"/>
	<path class="st7" d="M50.4,73.4l0.6,1L46.3,76c0,0-0.3-0.3,0.8-1C48.5,74.2,50.4,73.4,50.4,73.4z"/>
	<path class="st7" d="M51.5,73.4l-0.5,1l4.7,1.6c0,0,0.3-0.3-0.8-1C53.5,74.2,51.5,73.4,51.5,73.4z"/>
	<path class="st8" d="M46.8,76.3c0,0.2-0.2,0.4-0.4,0.4c-0.2,0-0.4-0.1-0.5-0.3c0-0.2,0.1-0.4,0.3-0.5c0,0,0.1,0,0.1,0
		C46.7,75.9,46.8,76.1,46.8,76.3C46.8,76.3,46.8,76.3,46.8,76.3z"/>
	<path class="st8" d="M55.9,76.3c0,0.2-0.2,0.4-0.4,0.4c-0.2,0-0.4-0.1-0.5-0.3c0-0.2,0.1-0.4,0.3-0.5c0,0,0.1,0,0.1,0
		C55.7,75.9,55.9,76.1,55.9,76.3C55.9,76.3,55.9,76.3,55.9,76.3z"/>
	<path class="st5" d="M45.9,76.3c0,0.2-0.2,0.4-0.4,0.4c-0.2,0-0.4-0.2-0.3-0.5c0-0.2,0.2-0.3,0.3-0.3
		C45.7,75.9,45.9,76.1,45.9,76.3L45.9,76.3z"/>
	<path class="st5" d="M56.8,76.3c0,0.2-0.2,0.4-0.4,0.4c-0.2,0-0.4-0.2-0.4-0.4c0-0.2,0.2-0.4,0.4-0.4S56.8,76.1,56.8,76.3
		L56.8,76.3z"/>
	<rect x="50.5" y="68.7" class="st5" width="0.8" height="1.5"/>
	<path class="st5" d="M52,68c0,0.4-0.4,0.8-0.8,0.8h-0.5c-0.4,0-0.8-0.4-0.8-0.8l0,0c0-0.4,0.4-0.8,0.8-0.8h0.5
		C51.6,67.2,52,67.6,52,68z"/>
	<path class="st9" d="M57.2,67.2c0-0.1,0-0.7,0-0.8c0.1-0.6-0.4-1.1-1-1.2c0,0,0,0,0,0H45.7c-0.6,0.1-1,0.6-0.9,1.2
		c0,0.1,0,0.7,0,0.8H57.2z"/>
	<path class="st5" d="M44.7,67.5c0,0.2,0.1,0.4,0.3,0.4H57c0.2,0,0.3-0.2,0.3-0.4l0,0c0-0.2-0.1-0.4-0.3-0.4H44.9
		C44.8,67.2,44.7,67.3,44.7,67.5z"/>
	<path class="st34" d="M53,65.2c0,0-6.8,0-9.4,0.1c-1.8,0-2-2.6-1.3-3c2.2-1.2,8.9-1.8,8.9-1.8l4.6,4.2C55.9,64.7,55.6,64.8,53,65.2
		z"/>
	<path class="st35" d="M46.6,51.4c0,0-1.7-0.5-2.5,1.8c-0.8,2.4-1.1,4.9-0.9,7.4c0.1,0.3,0.3,1.4,2.3,1.4c0.8,0,0.5-1.7,0.5-1.7
		c0.4-1.3,0.7-2.6,1-3.9C47.2,54.7,47.1,53,46.6,51.4z"/>
	<path class="st11" d="M45.2,51.6l4.5-1.5l3.4-0.2l3.7,1.1c0,0,1.2,0.8,0.1,3.5s-0.7,6.9-0.7,6.9l-9.6,0.3c0,0-0.2-3.9-0.8-7.8
		C45.8,53.1,45.6,52.3,45.2,51.6z"/>
	<path class="st35" d="M51.8,61.6h-0.5c-0.5-3.8-0.5-7.6,0.1-11.4l0.4,0.3C51.7,54.3,51.9,58.1,51.8,61.6z"/>
	<path class="st36" d="M49.9,51.2c0,0.5,0.4,0.9,0.9,1h1.3c0.5-0.1,0.9-0.5,0.9-1c0.1-0.8,0.2-1.7,0.3-2.5c0.1-0.7-0.3-1.4-0.9-1.8
		c-0.6-0.3-1.3-0.3-1.9,0c-0.6,0.4-1,1.1-0.9,1.8C49.7,49.5,49.8,50.3,49.9,51.2z"/>
	<polygon class="st35" points="51.5,52.2 52.3,53.5 53.8,51.7 53.5,50.7 53.1,50.3 53,51.1 	"/>
	<polygon class="st35" points="51.4,52.2 50.6,53.5 49.2,51.8 49.5,50.8 49.8,50.3 49.9,51.2 	"/>
	<path class="st16" d="M51.6,45.2c0.3,0,0.7,0.2,0.8,0.5h0.3c0.4,0,0.8,0.3,0.8,0.8c0,0,0,0,0,0v1.9h-0.5v-0.8
		c0-0.3-0.2-0.5-0.5-0.5h-0.2c-0.6,0-1-0.4-1-1v-0.8L51.6,45.2z"/>
	<path class="st36" d="M52.6,49c0,0.3,0.2,0.5,0.5,0.5c0,0,0,0,0,0l0,0c0.3,0,0.5-0.2,0.5-0.5c0,0,0,0,0,0v-0.6
		c0-0.3-0.2-0.5-0.5-0.5c0,0,0,0,0,0l0,0c-0.2,0-0.4,0.1-0.4,0.3"/>
	<path class="st16" d="M52.1,45.9v-0.8h-1.7c-0.6,0-1,0.4-1,1v0.8h1.7C51.6,46.9,52.1,46.5,52.1,45.9z"/>
	<path class="st28" d="M49.5,49.8c0,0.5,0.3,1,0.8,1.3c0.7,0.3,1.5,0.3,2.2,0c0.5-0.3,0.8-0.7,0.8-1.3v-3.4
		c-0.1-0.4-0.4-0.8-0.9-0.8h-2c-0.5,0-0.8,0.3-0.9,0.8L49.5,49.8z"/>
	<path class="st16" d="M51.1,45.2c-0.3,0-0.7,0.2-0.8,0.5h-0.3c-0.4,0-0.8,0.3-0.8,0.8c0,0,0,0,0,0v1.9h0.5v-0.8
		c0-0.3,0.2-0.5,0.5-0.5h0.7c0.6,0,1-0.4,1-1v-0.8L51.1,45.2z"/>
	<path class="st28" d="M50.1,48.5c0-0.3-0.2-0.5-0.5-0.5c0,0,0,0,0,0l0,0c-0.3,0-0.5,0.2-0.5,0.5v0.6c0,0.3,0.2,0.5,0.5,0.5l0,0
		c0.2,0,0.4-0.1,0.4-0.3"/>
	<path class="st16" d="M51.9,46.1c0-0.1,0-0.1,0-0.2v-0.8h0.7c0.6,0,1,0.4,1,1v0.8h-0.7c-0.1,0-0.1,0-0.2,0
		C52.6,46.5,52.3,46.2,51.9,46.1z"/>
	<path class="st12" d="M60.8,78.2c0.1,0.1,0,0.5,0,0.5c-0.8,0.1-1.6,0.1-2.4,0.1c-0.2-0.1-0.4-0.2-0.7-0.3c0,0-0.1-0.2-0.2-0.2
		s-0.1,0-0.2,0c-0.1-0.1-0.2-0.1-0.3-0.2c-0.1-0.4-0.1-0.8,0-1.2c0,0,1.6-0.5,1.8-0.2C59.5,77.2,60.1,77.7,60.8,78.2z"/>
	<path class="st12" d="M43.7,77.3l-0.1,1.4l-1.4,0.1c0,0-0.1-0.2-0.2-0.2s-0.2,0.2-0.3,0.2l-0.7,0.1l-2.8,0.3c0,0-0.1-0.3,0-0.4
		c0.1-0.1,0.3-0.2,0.4-0.2c0.7-0.3,2.7-1.1,3-1.8C41.8,75.9,43.7,77.3,43.7,77.3z"/>
	<path class="st28" d="M45.8,59.8l4.7,1.9c-1.8,0.2-3.6,0.2-5.4,0C43.7,61.5,45.8,59.7,45.8,59.8z"/>
	<path class="st34" d="M56.4,62.7c0,0,0.5,4.3,0.4,6.5c-0.1,2.6,0,5.2,0.3,7.8c0.7,0.1,1.5,0.1,2.2,0c0,0,0.8-10.6,1-12.3
		S59.9,61.7,56.4,62.7z"/>
	<path class="st37" d="M42.8,63.7c0.6,0.8,1.6,1.3,2.6,1.4c0.7,0.1-1.1,12.4-1.1,12.4l-2.8-0.9L42,63L42.8,63.7z"/>
	<path class="st37" d="M50.6,65.1c0,0,3.7,0.5,6.2,0.8c0.9,0.1,1.7-2.5,1.8-2.6c0.3-0.4,0.8-0.6,1.3-0.6c-0.5-0.6-3.3-1.1-6.2-1.8
		s-3.3-0.3-3.3-0.3L50.6,65.1z"/>
	<path class="st34" d="M53.6,60.9c2.9,0.7,5.7,1.2,6.2,1.8c-0.5,0-1,0.3-1.3,0.6c0,0-0.2,0.8-0.3,1.1c0.5-0.8-6.3-3.3-7.8-3.9
		C51.5,60.5,52.6,60.6,53.6,60.9z"/>
	<polygon class="st37" points="56.8,65.1 57.1,73.4 57.4,75.3 57.4,73.4 57.3,72.2 58,70.3 58.4,66 57.9,66.2 57.9,64.3 	"/>
	<path class="st34" d="M42.8,62.7l-0.7,0.2l-0.3,10l1.5,3.6L42.7,74l0.3-5c0,0,1,2.4,1,2.3S43.1,66,43.1,66s1,0.8,0.9,0.8
		S43.4,63.2,42.8,62.7z"/>
	<path class="st11" d="M54.7,51.1c0,0,1.5-1.2,3,1c1.5,2.3,2.6,4.9,3.4,7.5c0.3,1.3,0,2.7-0.8,3.7c-0.2,0.2-1.5,0-1.5,0L58,62.8
		l0.3-0.7v-0.5c0,0-1.1-2.5-2.4-5C55.2,54.9,54.8,53,54.7,51.1z"/>
	<path class="st28" d="M58.4,60.8L53.5,61c0,0,4.7,2.1,4.8,1.8C59.2,60.7,58.4,60.8,58.4,60.8z"/>
	<path class="st28" d="M55.7,60.6c-0.3-0.1-0.3-0.1-0.3-0.1c-0.2,0.2-0.4,0.3-0.6,0.4c-0.2,0-0.8,0-0.8,0h-0.9h-0.4
		c-0.1,0-0.2,0-0.3,0c-0.2,0.1,0,0.2,0,0.2l1.6,0.2l-1.5,0.2c0,0-0.2,0-0.2,0.2s0,0.1,0,0.1l1.8,0.2l-0.8,0.2c0,0-0.2,0.1-0.2,0.2
		c0,0,0,0.1,0,0.1l1.6-0.2C54.7,62.2,56,60.8,55.7,60.6z"/>
	<path class="st28" d="M54,61.6l-1.1,0.2c-0.1,0-0.2,0-0.3,0.1c-0.1,0-0.1,0.1,0,0.2l1.6-0.1L54,61.6z"/>
	<path class="st38" d="M47.2,62.4L47.2,62.4v-0.3h9.5v0.3l0,0v0.1c-0.2,0.2-0.5,0.4-0.8,0.3h-8C47.7,62.9,47.4,62.7,47.2,62.4
		L47.2,62.4z"/>
	<rect x="48.8" y="62.2" class="st39" width="6.3" height="0.2"/>
	<path class="st40" d="M47.2,62.2v-6.3c0-0.2,0.1-0.3,0.3-0.3h8.9c0.2,0,0.3,0.1,0.3,0.3v6.3H47.2z"/>
	<path class="st38" d="M51.4,58.9c0,0.3,0.3,0.6,0.6,0.6c0.3,0,0.6-0.3,0.6-0.6s-0.3-0.6-0.6-0.6c0,0,0,0,0,0
		C51.7,58.3,51.4,58.6,51.4,58.9C51.4,58.9,51.4,58.9,51.4,58.9z"/>
	<polygon class="st35" points="59,63.2 59.3,61.1 58.8,60.5 57.6,60.7 57.8,63 	"/>
	<polygon class="st35" points="44.2,61.7 44,60.9 45.6,59.5 46.4,59.9 45.3,62 	"/>
	<path class="st5" d="M15.3,73c-0.4,0-0.8-0.1-1.2-0.4c-0.6-0.7-0.9-1.7-0.7-2.7c0.1-0.9,0.4-1.8,0.8-2.6c0.8-1.7,1.1-3.7,0.9-5.6
		l0.6-0.1c0.2,2-0.1,4.1-0.9,5.9c-0.4,0.8-0.6,1.6-0.7,2.4c-0.1,0.7,0,1.5,0.5,2.1c0.2,0.2,0.6,0.3,0.9,0.3l0.1,0.7
		C15.4,73,15.4,73,15.3,73z"/>
	<path class="st6" d="M20.4,78.3l0.6,1L15.6,81c0,0-0.4-0.3,1-1C18.1,79.2,20.4,78.3,20.4,78.3z"/>
	<path class="st6" d="M21.3,78.3l-0.6,1l5.4,1.7c0,0,0.4-0.3-1-1C23.6,79.2,21.3,78.3,21.3,78.3z"/>
	<rect x="20.3" y="75.3" class="st6" width="1.1" height="4.1"/>
	<path class="st7" d="M20.3,78.5l0.5,1l-4.7,1.7c0,0-0.3-0.3,0.8-1C18.1,79.5,19.2,79,20.3,78.5z"/>
	<path class="st7" d="M21.4,78.5l-0.6,1l4.7,1.7c0,0,0.3-0.3-0.8-1C23.6,79.6,22.5,79,21.4,78.5z"/>
	<path class="st8" d="M16.7,81.5c0,0.2-0.2,0.4-0.4,0.4c0,0,0,0,0,0c-0.2,0-0.4-0.2-0.3-0.5c0-0.2,0.2-0.3,0.3-0.3
		C16.5,81.1,16.7,81.3,16.7,81.5z"/>
	<path class="st8" d="M25.8,81.5c0,0.2-0.2,0.4-0.4,0.4c0,0,0,0,0,0c-0.2,0-0.4-0.2-0.3-0.5c0-0.2,0.2-0.3,0.3-0.3
		C25.6,81.1,25.7,81.3,25.8,81.5z"/>
	<path class="st5" d="M15.8,81.5c0,0.2-0.2,0.4-0.4,0.4S15,81.7,15,81.5c0-0.2,0.2-0.4,0.4-0.4c0,0,0,0,0,0
		C15.6,81.1,15.8,81.3,15.8,81.5z"/>
	<path class="st5" d="M26.7,81.5c0,0.2-0.2,0.4-0.4,0.4c-0.2,0-0.4-0.2-0.4-0.4c0-0.2,0.2-0.4,0.4-0.4c0,0,0,0,0,0
		C26.5,81.1,26.7,81.3,26.7,81.5z"/>
	<rect x="20.4" y="73.9" class="st5" width="0.8" height="1.5"/>
	<path class="st5" d="M21.9,73.1c0,0.4-0.4,0.8-0.8,0.8h-0.5c-0.4,0-0.8-0.4-0.8-0.8l0,0c0-0.4,0.4-0.8,0.8-0.8h0.5
		C21.5,72.3,21.9,72.7,21.9,73.1z"/>
	<path class="st9" d="M27,72.4c0-0.1,0-0.7,0-0.8c0.1-0.6-0.4-1.1-0.9-1.2H15.6c-0.6,0.1-1.1,0.6-1,1.2c0,0.1,0,0.7,0,0.8H27z"/>
	<path class="st5" d="M14.5,72.7c0,0.2,0.1,0.4,0.3,0.4h12.1c0.1,0,0.3-0.2,0.3-0.4l0,0c0-0.2-0.1-0.4-0.3-0.4H14.8
		C14.6,72.3,14.5,72.5,14.5,72.7z"/>
	<path class="st9" d="M15.1,66.3c0.3,0,1.9,0,2.2,0c1.8,0,3.4-0.3,3.5-0.8c0.3-1.9,0.3-3.7,0-5.6c-0.1-0.5-1.7-0.8-3.5-0.8
		c-0.3,0-2,0-2.3,0C15.6,61.5,15.6,63.9,15.1,66.3z"/>
	<path class="st5" d="M14.9,59.3c-0.2,0-0.4,0.1-0.3,0.2c0.5,2.2,0.5,4.4,0.1,6.6c0,0.1,0.1,0.2,0.3,0.2l0,0c0.2,0,0.3-0.1,0.4-0.2
		c0.5-2.2,0.5-4.4-0.1-6.6C15.3,59.3,15.1,59.3,14.9,59.3z"/>
	<path class="st10" d="M14.8,66.3c0.2,0,0.3,0,0.5,0c0.4,0,0.8-0.4,0.9-0.8c0.3-1.8,0.3-3.7,0-5.5c-0.1-0.4-0.5-0.7-0.9-0.8h-0.5
		C15.3,61.5,15.3,63.9,14.8,66.3z"/>
	<path class="st28" d="M33.5,63l-0.5-0.6l-0.5-0.3l-0.9-0.2c-0.5-0.1-0.9-0.1-1.4,0c-0.7,0-1.4,0-2.1,0c-0.2,0-0.3,0.6-0.3,0.6
		s1.4,0,2,0c0.6,0.1,1.2,0.1,1.8,0.3c0.2,0,0.3,0,0.5,0c0.2,0,0.2-0.1,0-0.1l-0.6-0.1c-0.2,0-0.1-0.2-0.1-0.2c0.4,0,0.8,0.1,1.2,0.2
		c0.1,0.1,0.3,0.2,0.4,0.3C33.2,62.9,33.4,63,33.5,63z"/>
	<path class="st8" d="M25.5,51.7c0,1.2-0.9,2.1-2.1,2.1h0l-0.5-1c-1.2,0-2.1-1.8-2.1-2.9V49c0-1.2,0.9-2.1,2.1-2.1h0h0.5
		c1.2,0,2.1,0.9,2.1,2.1c0,0,0,0,0,0V51.7z"/>
	<path class="st8" d="M21.1,49h-0.3c0,0.1,0,0.3,0,0.4c0,1.4-1.1,2.6-2.5,2.7c0.2,1.5,1.6,2.6,3.1,2.4s2.6-1.6,2.4-3.1
		C23.7,50.1,22.5,49,21.1,49z"/>
	<path class="st28" d="M24.7,47.7c0,0.2,0,0.4,0,0.6c-0.1,1.2-0.8,2.2-1.9,2.5c0,0.6-0.1,1.1-0.3,1.6c-0.2,0.4-0.5,0.8-0.8,1.1
		c-0.2,1,3.1,2.3,3,2.2c-0.5-0.7-0.9-1.5-1.1-2.3c-0.1-0.6,0-1.2,0.3-1.7c0.3-0.4,0.8-0.6,1.2-0.6c0.1,0,0.1,0,0.2-0.1
		c0-0.1,0.1-0.3,0.1-0.4v-1.8C25.2,48.5,25,48,24.7,47.7z"/>
	<path class="st30" d="M17.6,67.3L17.6,67.3L17.6,67.3c0.3-1.5,0.7-3,1.4-4.5c0.5-0.9,1.2-1.6,2-2.3c1.1,0.6,2.3,0.3,3.3,1.1
		c0.1,0.5,0.3,0.9,0.3,1.4c0.2,0.9,0.3,1.8,0.4,2.6c1.3,0.4,2.6,1,3.7,1.8c0.1,0.1,0.6,0.6,0.8,0.7c0,1.3-0.3,2.6-1,3.7
		c-0.1,0.2-1.6,0.1-2.8-0.1c-0.6-0.1-2.5-0.2-2.7-0.3C16.6,70.8,17.3,68.5,17.6,67.3z"/>
	<path class="st36" d="M29.6,71l0.6-1c0.2-0.7,0.2-1.1,0-1.3c-0.7-0.6-3.5,0.8-6.9,8c-0.2,0.4-3.6,6.1-3.4,6
		C21.5,81.8,26.5,76,29.6,71z"/>
	<path class="st16" d="M19.8,82.1l1.1-1.8c0.1-0.2,0.3-0.3,0.4-0.3l-0.8,1.3c-0.2,0.2-0.1,0.6,0.1,0.8c0.1,0.1,0.2,0.1,0.2,0.1
		l-0.3,0.4C20.5,83,20.2,83.1,20,83c0,0,0,0-0.1,0C19.7,82.7,19.6,82.4,19.8,82.1z"/>
	<path class="st28" d="M23.9,59l2-3.1c0.5-0.5,0.4-1.3-0.1-1.8c-0.2-0.2-0.4-0.3-0.7-0.3l-5.8-1.2c-0.9,0.1-1.6,0.9-1.5,1.8
		c0,0,0,0.1,0,0.1l1.2,3.6L23.9,59z"/>
	<path class="st16" d="M25.3,54.1c-0.8,2.6,0.8,7.8,0.8,7.8s0.9,0.5,1.1,0s-0.2-2.4-0.5-6.2C26.5,53.4,25.4,53.7,25.3,54.1z"/>
	<path class="st16" d="M18.3,52.7c-2,1.5-3.4,6-3.4,6s0.3,0.5,0.7,0.3s1.3-1.5,3.1-4.4C19.7,52.9,18.6,52.4,18.3,52.7z"/>
	<path class="st11" d="M20,60.3c0,0.4,0.4,1.1,0.8,1.1l3.3,0.2c0.3,0,0.8-0.6,0.8-1v-1.4c0-0.4-0.3-0.8-0.6-0.7l-3.9-0.9
		c-0.4,0.1-0.6,0.4-0.6,0.8L20,60.3z"/>
	<path class="st41" d="M24.2,61.6c0,0-0.2,0.1-0.5,0l-3-0.2c-0.3,0-0.5-0.1-0.5-0.1v-0.2c0,0,0.2-0.1,0.5,0l3,0.2
		c0.3,0,0.5,0.1,0.5,0.1V61.6z"/>
	<path class="st11" d="M18.9,54.2c0.1-0.2,0.1-0.4,0.2-0.5c2.8,2,4.8,1.2,6.2,0.8v0.3c0,1,0,2,0,3c0,0.8-1.1,1.5-1.6,1.5
		c-1.5,0.1-2.9-0.1-4.3-0.5c-0.5-0.1-1.5-1-1.3-1.7C18.4,56,18.6,55.1,18.9,54.2z"/>
	<path class="st30" d="M23.8,53.4c0,0,2.1-0.1,2.4,0.9c0.1,0.8-0.1,1.7-0.5,2.4c-0.3,0.9-0.5,1.9-0.7,2.8c-0.1,1,0.5,2,0.3,1.8
		c-0.4,0-0.9-0.2-1.3-0.3c-0.7-0.3-0.3-1.7-0.3-2.2c0.2-1,0.3-2,0.4-3C24.1,55.5,23.8,53.4,23.8,53.4z"/>
	<path class="st30" d="M17.8,54c0,0-0.2-0.8,0.2-1.2c0.6-0.4,1.4-0.5,2.1-0.3c0.2,0.1,0.4,0.1,0.7,0.2c0,0-1.4,0.5-1.3,3.4
		c0,0.7,0.1,1.5,0.3,2.2c0.1,0.7,0.2,1.5,0.3,2.2c0,0-0.8,0.2-0.9,0.3c-0.1-0.6-0.4-1.3-0.6-1.8C17.9,58.2,17.8,54,17.8,54z"/>
	<path class="st16" d="M19.6,52.5c-0.8,0.6-1.2,1.2-1.1,4.5c0,0.5,0,1.5,0.1,2.4l-0.1-0.3c-0.6-1-0.6-5.1-0.6-5.1s-0.2-0.8,0.2-1.2
		C18.5,52.5,19,52.4,19.6,52.5z"/>
	<path class="st36" d="M28.7,67.8c0.5,0.3,1,0.6,1.4,1c-0.8,0.4-1.1,1.3-2,1.6c-0.6-0.3-1.9-2.2-1.5-2.1
		C27.9,68.5,27.8,68.1,28.7,67.8z"/>
	<path class="st28" d="M26.3,68.1c0.5,0,1,0.2,1.4,0.6c-0.8,0.4-1.1,1.3-2,1.6c-0.7,0.4-1,1.7-1,1.3S25.3,68,26.3,68.1z"/>
	<path class="st28" d="M27.5,70.9c0.1-0.4,0.3-0.7,0.4-1.1c0-0.7,0-1.1-0.3-1.2c-0.8-0.5-3.2,1.5-5.3,9.2c-0.4,1.4-0.9,2.8-1.5,4.1
		c-0.2,0.3-0.4,0.3-0.5,0.5c-0.2,0.6-0.2,1.3-0.1,1.9C21.7,83,25.4,76.4,27.5,70.9z"/>
	<path class="st30" d="M19.7,83.6l1-1.8c0.1-0.2,0.2-0.3,0.4-0.3l-0.7,1.4c-0.1,0.3-0.1,0.6,0.1,0.8c0.1,0,0.2,0.1,0.3,0.1l-0.2,0.4
		c-0.1,0.2-0.4,0.3-0.6,0.2c0,0,0,0-0.1,0C19.7,84.2,19.6,83.9,19.7,83.6z"/>
	<path class="st36" d="M19.6,62c0,0,0.4,0.3,0.4,0.5s0.2,0.9,0.2,0.9c-0.1-0.1-0.2-0.3-0.3-0.5C19.9,62.6,19.8,62.3,19.6,62z"/>
	<path class="st36" d="M19.9,62.4c0.3,0.2,0.4,0.5,0.4,0.8c0,0.2,0.1,0.4,0.3,0.5c0-0.3-0.1-0.6-0.2-0.8c0-0.2-0.1-0.3-0.1-0.5
		C20.1,61.9,19.3,62,19.9,62.4z"/>
	<path class="st36" d="M19.7,61.4c0.1,0.2,0.2,0.4,0.4,0.5c0.2,0.1,0.4,0.2,0.6,0.3c-0.4,0.2-0.8-0.2-1.1-0.3S19.5,61,19.7,61.4z"/>
	<path class="st28" d="M17.5,60.3c0.6,0.3,1.2,0.6,1.7,1c0.4,0.5,0.4,0.9,0.7,1.1l0.1,0.1c0.1,0.1,0.2,0.2,0.3,0.2s0.1,0.2,0.1,0.1
		c-0.1-0.5-0.3-1-0.6-1.4c-0.7-0.6-1.4-1.2-2.1-1.8C17,59.3,16.6,59.7,17.5,60.3z"/>
	<path class="st28" d="M19.9,62.3c0,0,0.1-0.1,0.2-0.1c0.2,0.1,0.4,0.3,0.5,0.5c0.1,0.1,0.4,0.8,0.4,0.8c-0.2-0.1-0.3-0.2-0.4-0.4
		C20.4,62.9,20.2,62.6,19.9,62.3z"/>
	<path class="st28" d="M16.8,58.9c-0.1,0.2-0.2,0.5-0.3,0.8c1.7,1,3.2,1.7,3.2,1.7L16.8,58.9z"/>
	<path class="st16" d="M14.8,58.8c0.6,1.5,2.9,1.5,2.9,1.5c0.2-0.2,0.2-0.5,0.2-0.7c-0.1-0.4-0.7-0.8-2.1-1.7
		C15,57.5,14.7,58.6,14.8,58.8z"/>
	<path class="st16" d="M28.6,61.7c0.1,0.1-0.2,0.9-0.5,0.9H28c0,0-2,0-1.9-1C26.1,61.7,26.5,60.7,28.6,61.7z"/>
	<path class="st42" d="M31,62.4L31,62.4v-0.3h12.8v0.3l0,0v0.1c-0.2,0.2-0.5,0.4-0.8,0.3H31.8C31.5,62.8,31.2,62.7,31,62.4L31,62.4z
		"/>
	<path class="st38" d="M34.1,62.5L34.1,62.5L34.1,62.5c0,0.1-0.1,0.1-0.2,0.2h-2c-0.3,0-0.6-0.1-0.8-0.3l0,0l0,0v-0.2h3L34.1,62.5z"
		/>
	<rect x="35.8" y="62.2" class="st38" width="6.4" height="0.2"/>
	<path class="st42" d="M34.1,62.1l1.7-6.3c0.1-0.2,0.2-0.3,0.4-0.3h9c0.1,0,0.2,0.1,0.2,0.2c0,0,0,0.1,0,0.1l-1.7,6.3H34.1z"/>
	<path class="st38" d="M39.2,58.8c-0.1,0.2,0,0.5,0.3,0.6c0.1,0,0.1,0,0.2,0c0.3,0,0.6-0.3,0.7-0.6c0.1-0.2,0-0.5-0.2-0.6
		c-0.1,0-0.1,0-0.2,0C39.6,58.2,39.3,58.4,39.2,58.8z"/>
	<polygon class="st2" points="76.7,84.5 78,84.5 75.8,63.5 73.9,63.5 	"/>
	<polygon class="st43" points="74.1,64.4 74.9,70.8 75.9,64 75.8,63.5 74.2,63.5 	"/>
	<polygon class="st2" points="32.5,84.5 33.8,84.5 31.6,63.5 29.7,63.5 	"/>
	<polygon class="st43" points="29.8,64.4 30.6,70.8 31.6,64 31.6,63.5 29.9,63.5 	"/>
	<polygon class="st2" points="18.6,84.5 17.3,84.5 19.5,63.5 21.4,63.5 	"/>
	<polygon class="st43" points="21.3,64.4 18.7,70.9 19.5,64 19.5,63.5 21.2,63.5 	"/>
	<rect x="17.6" y="62.8" class="st5" width="40.4" height="1.2"/>
	
		<radialGradient id="SVGID_1_" cx="6558.2402" cy="56.35" r="41" gradientTransform="matrix(-1 0 0 -1 6633.54 102)" gradientUnits="userSpaceOnUse">
		<stop  offset="0" style="stop-color:#CDF7F1"/>
		<stop  offset="1" style="stop-color:#5DCFCA"/>
	</radialGradient>
	<rect x="32.8" y="62.8" class="st44" width="44.6" height="1.2"/>
	<path class="st45" d="M72.5,62.4L72.5,62.4v-0.3H59.6v0.3l0,0v0.1c0.2,0.3,0.5,0.3,0.8,0.3h11.3C72,62.9,72.3,62.7,72.5,62.4
		L72.5,62.4z"/>
	<path class="st46" d="M69.4,62.5L69.4,62.5L69.4,62.5c0,0.1,0.1,0.1,0.2,0.2h2c0.3,0,0.6-0.1,0.8-0.3l0,0l0,0v-0.2h-3L69.4,62.5z"
		/>
	<rect x="61.2" y="62.2" class="st47" width="6.4" height="0.2"/>
	<path class="st48" d="M69.3,62.1l-1.7-6.3c0-0.2-0.2-0.3-0.4-0.3h-9c-0.1,0-0.2,0.1-0.2,0.2c0,0,0,0.1,0,0.1l1.7,6.3L69.3,62.1z"/>
	<path class="st45" d="M64.2,58.8c0.1,0.2,0,0.5-0.3,0.6c-0.1,0-0.1,0-0.2,0c-0.3,0-0.6-0.2-0.7-0.6c-0.1-0.2,0-0.5,0.3-0.6
		c0.1,0,0.1,0,0.2,0C63.8,58.2,64.1,58.4,64.2,58.8z"/>
	<path class="st15" d="M55.2,46.7c0,0.3,0.3,0.6,0.6,0.6h0.4v1.3l1.3-1.3h3.4c0.3,0,0.6-0.3,0.6-0.6v-5.5c0-0.3-0.3-0.6-0.6-0.6
		h-5.1c-0.3,0-0.6,0.2-0.6,0.5c0,0,0,0,0,0V46.7z"/>
	<path class="st11" d="M29.2,51.1c-0.3,0-0.6-0.3-0.6-0.6v-0.4h-1.3l1.3-1.3v-3.4c0-0.3,0.3-0.6,0.6-0.6h5.5c0.3,0,0.6,0.2,0.6,0.5
		c0,0,0,0,0,0v5.1c0,0.3-0.3,0.6-0.6,0.6L29.2,51.1z"/>
	<rect x="31.2" y="49.3" class="st17" width="1.2" height="0.3"/>
	<path class="st17" d="M31.8,46c-0.8,0-1.4,0.6-1.4,1.4c0,0,0,0,0,0c0,0.5,0.3,1,0.8,1.2v0.5h0.5v-0.9h-0.1v-0.3h0.6v0.3H32v0.9h0.5
		v-0.5c0.7-0.3,0.9-1.2,0.6-1.9C32.8,46.3,32.4,46.1,31.8,46z"/>
	<path class="st17" d="M58.5,43.2c0.1-0.1,0.1-0.2,0.2-0.3c0-0.3-0.2-0.5-0.5-0.5c-0.3,0-0.5,0.2-0.5,0.5c0,0,0,0,0,0
		c0,0.1,0.1,0.2,0.1,0.3H57v0.7c0.1-0.1,0.2-0.1,0.3-0.1c0.3,0,0.5,0.2,0.5,0.5s-0.2,0.5-0.5,0.5l0,0c-0.1,0-0.3-0.1-0.3-0.2v0.7
		h2.3v-2L58.5,43.2z"/>
</g>
</svg>
