<svg xmlns="http://www.w3.org/2000/svg" viewBox="0 0 100 100"><title>tokens</title><rect width="100" height="100" style="fill:none"/><polygon points="88.59 82.1 87.83 82.44 87.14 82.23 86.74 80.08 88.07 80.05 88.59 82.1" style="fill:#593446"/><polygon points="94.29 81.56 94.54 83.04 92.86 83.24 92.7 81.23 94.29 81.56" style="fill:#593446"/><path d="M88.52,83.12l-1.14,0V82.8l-.49.36-2.88,0s0-.47,2-.58c.5,0,.83-.71.83-.71s.25-.23.63.28c.1.14,1.14-.14,1.14-.14A2.38,2.38,0,0,1,88.52,83.12Z" style="fill:#081832"/><path d="M94.53,84l-1.15,0V83.7l-.48.37L90,84.2s0-.48,2-.64c.5,0,.82-.74.82-.74s.24-.24.63.27c.11.13,1.14-.18,1.14-.18A2.49,2.49,0,0,1,94.53,84Z" style="fill:#081832"/><path d="M93.65,53.63a27.44,27.44,0,0,0-3.41-1.05,13.28,13.28,0,0,0-3.84-.44c-.66.24-.64,3.62-.36,6.44a19.32,19.32,0,0,1,0,3.26s5.27,2.86,5.67,2.83a2.3,2.3,0,0,0,1.34-2c-.1-.87.5-6.06,1.18-6.83A1.36,1.36,0,0,0,93.65,53.63Z" style="fill:#d1dbea"/><path d="M87,81.53l1.73.06-.42-19-3.1-1S85.2,73.81,87,81.53Z" style="fill:#163f59"/><polygon points="91.75 62.59 92.5 72.38 95 82.5 92.53 82.56 86.98 62.24 89.37 62.59 91.75 62.59" style="fill:#194866"/><path d="M89.85,62.94s-.67-.23-.89-.28A11.07,11.07,0,0,1,85.7,60.9s-.15,1.25-.33,3.21L89.24,67Z" style="fill:#194866"/><path d="M92,50a3.24,3.24,0,0,0-.08,2.47c.52,1.26-3,.07-3,.07s1.2-1-.57-2C87.38,50,91.76,49.45,92,50Z" style="fill:#e9d6b8"/><path d="M87.53,62c-.22-.09-.39-.27-.61-.35-.38-4.48,1.29-6.34,3-9.36l.49.24C89,55.13,87.24,57.45,87.53,62Z" style="fill:#b0bfde"/><path d="M91.89,48.81c0-.91-1.42-2.35-1.89-2.06a1.67,1.67,0,0,0-.48.42q-.19.3-.39.57a.61.61,0,0,0-.07.14h0L88,50.23a.14.14,0,0,0,.07.19l1.54.71a8.29,8.29,0,0,0,1.47-.42,3.19,3.19,0,0,0,.65-.27C91.9,50.29,91.91,49.63,91.89,48.81Z" style="fill:#e9d6b8"/><polygon points="89.99 47.56 90.11 48.78 90.22 50 89.1 49.49 88.15 48.76 88.99 48.27 89.99 47.56" style="fill:#e9d6b8"/><path d="M91.81,50.58l.89-1.84a3,3,0,0,0-1.23-1.48A3.12,3.12,0,0,0,90,46.59l-.61.07v.64l1.31.48-.6.71-.15,1,.29.16v0s.16-.55.56-.66.52.32.25.6-.28.4-.28.4l.27.53Z" style="fill:#194866"/><polygon points="90.15 52.07 89.9 52.61 89.1 53.16 88.69 52.27 89.27 51.6 90.15 52.07" style="fill:#b0bfde"/><polygon points="92.09 52.36 92.18 53.11 90.6 53.58 89.9 52.61 90.15 52.07 92.09 52.36" style="fill:#b0bfde"/><path d="M94.54,53.68l-2.4-.75s-2.68,5-1.63,7.35A6.26,6.26,0,0,1,91,64.93a7.3,7.3,0,0,0,.15,2.78l3-2.9a2.19,2.19,0,0,0,.22-1.61,9.28,9.28,0,0,1-.91-4.55C93.76,56.53,94.2,54.07,94.54,53.68Z" style="fill:#163f59"/><path d="M85.67,65.64s.82-7.88,1.07-9a32.1,32.1,0,0,1,2-4.34l-2.4-.37s-1.53,3.79-1.35,4.81c.06.3.15,2.6.29,3.53.08.51-1,3.51-.68,3.9A7.16,7.16,0,0,1,85.67,65.64Z" style="fill:#163f59"/><path d="M86.42,57.77a20,20,0,0,1,.8-2.2c.56-1.32,1.47-3.3,1.47-3.3l-1.51-.16-.78,1.45.52.4-.84.87A24.24,24.24,0,0,0,86.42,57.77Z" style="fill:#194866"/><path d="M93.62,53.44l-.76,2-1,.7.38,1s-.92,1-1.09,4.66a8.25,8.25,0,0,1,0-6.44c.56-1.28,1-2.43,1-2.43Z" style="fill:#194866"/><path d="M80.22,50.32l-.54-1.16-.73-.3-.46.82-.22.65.22.46a2.36,2.36,0,0,0,1.43.31C80.46,50.91,80.22,50.32,80.22,50.32Z" style="fill:#e9d6b8"/><path d="M87.74,52.77s-1.8,3.47-3,3.33-.61-.85-.36-1.53A17.15,17.15,0,0,1,86,52.07C86.24,51.78,86.73,52,87.74,52.77Z" style="fill:#163f59"/><path d="M84.89,54.62s.47,1-.06,1.51-1.87-.29-3.18-1.89a29.65,29.65,0,0,1-2.22-3.09l.76-.91S84.86,54,84.89,54.62Z" style="fill:#194866"/><path d="M83.79,51.56a5.81,5.81,0,0,1-2.65,7.69c-2.75,1.2-6-.31-7.31-3.37a5.82,5.82,0,0,1,2.64-7.7A5.68,5.68,0,0,1,83.79,51.56Z" style="fill:#f4901e"/><path d="M84.13,51.11c1.29,3,.11,6.5-2.64,7.69s-6-.32-7.32-3.37a5.82,5.82,0,0,1,2.65-7.7A5.67,5.67,0,0,1,84.13,51.11Z" style="fill:#ffc400"/><path d="M75.91,55a4.43,4.43,0,0,1,2-5.87A3.79,3.79,0,0,1,80.64,49a3.83,3.83,0,0,0-3,0,4.45,4.45,0,0,0-2,5.88,4.77,4.77,0,0,0,2.88,2.7A4.77,4.77,0,0,1,75.91,55Z" style="fill:#f4901e"/><path d="M82.21,58.69a4,4,0,0,1-.52-.38c-.18-.16-.38.07-.38.07l-.3.13,0-.45.14-1.13.85-.62a.55.55,0,0,1,.33.17,7.76,7.76,0,0,1,.37,1Z" style="fill:#e9d6b8"/><path d="M94.89,54A4.1,4.1,0,0,1,94,57.39c-.43.5-4,3.13-5.19,3.25s-1.18-.86-.95-1.44,1.1-1,2.29-2.14,2-2,2.57-2.46C93.55,54,94.4,53.11,94.89,54Z" style="fill:#194866"/><path d="M89.56,60s0,.62-1,.62a5.76,5.76,0,0,1-1.12-.22C85.78,60,82,58.81,82,58.81l.81-1.55s3.59.69,4.38.87S89.75,58.22,89.56,60Z" style="fill:#194866"/><path d="M66.26,43.72l-.45-.61a2.46,2.46,0,0,0-.55-.57.76.76,0,0,0-1,.14,1.14,1.14,0,0,0-.37.51s.19.52.64.49,1.4.48,1.48.31A.77.77,0,0,1,66.26,43.72Z" style="fill:#e9d6b8"/><polygon points="63.94 43.41 63.35 42.8 62.84 42.2 63.01 42.14 63.43 42.51 64.35 42.76 64.21 42.98 63.94 43.41" style="fill:#e9d6b8"/><polygon points="63.67 42.33 63.39 41.69 63.54 41.59 63.93 42.17 64.53 42.61 64.21 42.98 63.67 42.33" style="fill:#e9d6b8"/><polygon points="63.83 41.49 64.02 42.01 64.1 42.38 64.41 42.65 64.75 42.44 64.41 42.16 64.04 41.51 63.83 41.49" style="fill:#e9d6b8"/><polygon points="64.38 41.41 64.56 42.41 64.8 42.58 65.04 42.45 64.79 42.04 64.54 41.49 64.38 41.41" style="fill:#e9d6b8"/><path d="M66.21,44.3a1,1,0,0,0-.78-.3s-1.2.06-1.38-.13a2.06,2.06,0,0,0-.69-.33s-.18-.16.31-.19a1.9,1.9,0,0,1,.59.06,2.9,2.9,0,0,1,.88-.24c.43.08,1.14.91,1.14.91S66.25,44.34,66.21,44.3Z" style="fill:#e9d6b8"/><path d="M59.87,52.06s.28,1.36,4.37.58S68,51,68,51l.06-1.05-2.12-2.27-1.15,1,0,.22a.56.56,0,0,1-.43.27,28.54,28.54,0,0,1-3.82.47C59.5,49.6,59.82,51.8,59.87,52.06Z" style="fill:#d1dbea"/><path d="M60.58,49.55h.14a4.92,4.92,0,0,0-.16,1.57s.09,1.39,4.25,1.1c.75-.05,1.35-.13,1.84-.21a14.33,14.33,0,0,1-2.41.64c-4.09.78-4.37-.58-4.37-.58C59.82,51.8,59.5,49.6,60.58,49.55Z" style="fill:#b0bfde"/><path d="M65.93,47.92a3.11,3.11,0,0,0-.6-4.34c-.71-.58.16-.26,1,.1a4.84,4.84,0,0,1,2.34,4c-.16,1.83-.38,2.51-1.09,2.77S65.93,47.92,65.93,47.92Z" style="fill:#e9d6b8"/><path d="M65,50.06l-.34-.71-.11-.28a.64.64,0,0,0,.33-.26l.15.58.3.64.67.7Z" style="fill:#b0bfde"/><path d="M61.24,60.54l-4.86-.1-2-6.76s-1.31-4.08,1.2-4.13,5.39,0,5.39,0S62.65,51,61.24,60.54Z" style="fill:#d1dbea"/><path d="M56.82,44.43s2.55,2.37,2.24,3.19a1.77,1.77,0,0,0-.46.81,2,2,0,0,0,.13.73c0,.05.13.37.14.46.06.42-.16.77-.33.73a13.25,13.25,0,0,1-1.31-.51c-.11-.06-.21-.07-.24-.24a2.82,2.82,0,0,0-.44-1.19c-.55-.53-2.1-1-1.67-2.56A4,4,0,0,1,56.82,44.43Z" style="fill:#e9d6b8"/><path d="M58.54,50.44a13.78,13.78,0,0,1,1.58,8,1,1,0,0,1-.45.57l-.54-.48A50.05,50.05,0,0,0,58.54,50.44Z" style="fill:#163f59"/><polygon points="58.46 50.34 58.34 51.18 56.8 49.9 56.98 49.59 58.46 50.34" style="fill:#b0bfde"/><polygon points="58.91 49.8 58.87 49.52 59.15 50.01 59.17 50.89 58.56 50.36 58.91 49.8" style="fill:#b0bfde"/><path d="M59,47.58l-.35.06a1.69,1.69,0,0,0-.41.09,3.14,3.14,0,0,1-.7.29,8.21,8.21,0,0,1-1.08.11l.52.2a1,1,0,0,0,.71,0c.82-.28.82-.2.91-.27A2.8,2.8,0,0,1,59,47.58Z" style="fill:#e2c59c"/><path d="M57.73,45.52a6.72,6.72,0,0,0,.67.37c.1,0,.23.11.24.15a1,1,0,0,1,0,.24c0,.06,0,.3-.24.12A7.52,7.52,0,0,1,57.73,45.52Z" style="fill:#e9d6b8"/><path d="M54.74,45.78a2.33,2.33,0,0,1,2.43-1.51.62.62,0,0,1,0,.51,1.6,1.6,0,0,0-1.39.46c-.59.66.14.58.13.87s0,.47,0,.47l.23.45-.16.18s-.44-.32-.42-.12.32.48.36.52.11.11.1.14a7.56,7.56,0,0,1,.52.63c-.08.08-.28,0-.54-.15A2.87,2.87,0,0,1,54.74,45.78Z" style="fill:#163f59"/><path d="M55.53,47a.36.36,0,0,0,.45.56" style="fill:#e9d6b8"/><path d="M58.16,46.45a3.64,3.64,0,0,1,.28-.38s.13-.07.16,0,0,.15,0,.37C58.55,46.46,58.51,46.36,58.16,46.45Z" style="fill:#e2c59c"/><rect x="59.86" y="81.4" width="1.25" height="1.9" style="fill:#593446"/><rect x="50.99" y="81.4" width="1.01" height="1.9" style="fill:#593446"/><path d="M59.92,83.86h.91v-.28l.4.28h2.3s0-.38-1.59-.44c-.39,0-.67-.56-.67-.56s-.2-.17-.5.24c-.07.11-.91-.1-.91-.1A2,2,0,0,0,59.92,83.86Z" style="fill:#081832"/><path d="M61.07,60.39l.11,10.31L59,71.91a14.81,14.81,0,0,1-1.47-5.61C57.37,63.16,61.07,60.39,61.07,60.39Z" style="fill:#163f59"/><path d="M61.07,60.39,56.28,71.7l-.88,1.2-3.31,9.4-1.25-.36s-.45-5.16.86-7.36,2-3.41,2-3.41l2.89-11.1Z" style="fill:#194866"/><path d="M59.75,82.48c-.4-2-1.26-5.55-1.29-6.85a18.36,18.36,0,0,1,.32-4.09l2.4-.84V82.48Z" style="fill:#163f59"/><path d="M52.14,84.2h-.62L51.33,84l-.09-.48-.19.2-.65-.65a1.87,1.87,0,0,1,.56-.64s.45.74.58.71c.5-.08.52.19.52.19S51.87,83.91,52.14,84.2Z" style="fill:#081832"/><path d="M51.5,83.51a.73.73,0,0,0,.47.27c1.55.06,1.59.43,1.59.43H51.5Z" style="fill:#081832"/><path d="M58.5,56.53c1.27,3,.11,6.39-2.59,7.56a5.57,5.57,0,0,1-7.19-3.31c-1.26-3-.1-6.39,2.6-7.56A5.56,5.56,0,0,1,58.5,56.53Z" style="fill:#f4901e"/><path d="M58.84,56.09c1.27,3,.11,6.39-2.59,7.56a5.57,5.57,0,0,1-7.19-3.31,5.7,5.7,0,0,1,2.6-7.56A5.56,5.56,0,0,1,58.84,56.09Z" style="fill:#ffc400"/><path d="M50.76,59.94a4.37,4.37,0,0,1,2-5.77,3.76,3.76,0,0,1,2.66-.12,3.79,3.79,0,0,0-2.92,0,4.35,4.35,0,0,0-2,5.77,4.61,4.61,0,0,0,2.82,2.64A4.65,4.65,0,0,1,50.76,59.94Z" style="fill:#f4901e"/><path d="M53,64c.13.25,1,.49,1,.49l.6-.67h-.38l-.27-.62-.82.32S52.87,63.81,53,64Z" style="fill:#e9d6b8"/><path d="M54.69,53.48l-2.83,4.34-.38,0,.11.37-2.06-.16-.45-1.78,4-5.86a4.19,4.19,0,0,1,3.27-.84C57.8,49.81,54.91,53.11,54.69,53.48Z" style="fill:#d1dbea"/><path d="M51.48,58.08l2.1,5.85a.86.86,0,0,1-.72-.09,14,14,0,0,1-2.42-3.35,16.5,16.5,0,0,1-.93-2.72Z" style="fill:#e9d6b8"/><path d="M49.7,57s1.27.61,1.94.9l-.16,0,.11.37-.71-.06-1-.23-.05-.43h.31Z" style="fill:#b0bfde"/><path d="M69,42.16c-2.41,2.16-5.78,2.41-7.52.56s-1.19-5.11,1.23-7.27,5.78-2.41,7.52-.56S71.38,40,69,42.16Z" style="fill:#f4901e"/><path d="M68.63,41.54c-2.41,2.16-5.78,2.41-7.52.56s-1.19-5.1,1.23-7.26,5.78-2.42,7.52-.56S71.05,39.38,68.63,41.54Z" style="fill:#ffc400"/><path d="M63,35.84c1.84-1.66,4.41-1.85,5.74-.43a2.93,2.93,0,0,1,.77,2.2,3,3,0,0,0-.75-2.45c-1.33-1.42-3.9-1.22-5.74.43a4.83,4.83,0,0,0-1.71,3.34A4.87,4.87,0,0,1,63,35.84Z" style="fill:#f4901e"/><polygon points="29.95 58.93 29.56 61.77 31.37 62.23 32.33 62.26 30.47 61.33 30.95 58.91 29.95 58.93" style="fill:#e9d6b8"/><path d="M29.05,45s3.62,6.72,3.62,7.18S31,59.28,31,59.28l-1.39.18s.85-5.87.7-6.47c-.2-.79-4.77-6.23-4.07-7.9S29.05,45,29.05,45Z" style="fill:#163f59"/><path d="M29.53,62.23l.38,0,.21-.26,1.6.47,1,.08a.79.79,0,0,0-.13-.21,6,6,0,0,0-.93-.43s0,.24-.1.27a8.5,8.5,0,0,1-1.48-.38c-.45-.18-.56-.32-.58-.29S29.53,62.23,29.53,62.23Z" style="fill:#161711"/><path d="M39,49.54s.08-.07.14,0a1.49,1.49,0,0,1,.25.46c0,.11.13.64.13.64a.65.65,0,0,1-.19-.34A2.79,2.79,0,0,0,39,49.54Z" style="fill:#e9d6b8"/><path d="M39,49.61a.84.84,0,0,1,.13.67.49.49,0,0,0,.08.4,2.65,2.65,0,0,0,.06-.6,1.08,1.08,0,0,0,0-.36C39.12,49.38,38.65,49.23,39,49.61Z" style="fill:#e9d6b8"/><path d="M34.67,45c.34,1.1,3.18,3.38,3.18,3.38s1.29.55-1.88-3.11C35,44.18,34.58,44.74,34.67,45Z" style="fill:#e9d6b8"/><path d="M39.07,49.83l.07-.08,0-.35a3.89,3.89,0,0,0-.53-.71,10.29,10.29,0,0,1-.77-1.1c-.09-.08-.63.09-.63.09s.7.73,1,1a9.08,9.08,0,0,1,.56,1c.16.22.23.34.23.34s.1-.1-.13-.46c-.06-.09.08-.11.08-.11Z" style="fill:#e9d6b8"/><path d="M39,49.39a1.11,1.11,0,0,1,.18.44c0,.11-.09.65-.09.65a.61.61,0,0,1-.07-.39A2.11,2.11,0,0,0,39,49.39Z" style="fill:#e9d6b8"/><path d="M37.16,46.31,36,44.72s-1.33-4.08-1.82-4.29a5.68,5.68,0,0,0-1.58-.29l1.69,4.91,1,2Z" style="fill:#b0bfde"/><path d="M44,55.15a6.08,6.08,0,1,1-6.37-5.77A6.08,6.08,0,0,1,44,55.15Z" style="fill:#f4901e"/><path d="M43.57,55.1a6.08,6.08,0,1,1-6.37-5.77A6.08,6.08,0,0,1,43.57,55.1Z" style="fill:#ffc400"/><path d="M33,55.8a4.64,4.64,0,0,1,4.41-4.86,4.55,4.55,0,0,1,2.9.84,4.64,4.64,0,1,0-5.57,7.41A4.63,4.63,0,0,1,33,55.8Z" style="fill:#f4901e"/><path d="M37.86,39.77a2.39,2.39,0,0,1-3.22.23,2.09,2.09,0,0,1-.59-3,2.38,2.38,0,0,1,3.21-.23A2.09,2.09,0,0,1,37.86,39.77Z" style="fill:#163f59"/><path d="M35.42,39.54a1.61,1.61,0,0,1-2.49-1.92,1.61,1.61,0,0,1,2.49,1.92Z" style="fill:#163f59"/><path d="M36.13,41a1.89,1.89,0,0,1-2.51.23,1.57,1.57,0,0,1-.42-2.3,1.89,1.89,0,0,1,2.51-.23A1.57,1.57,0,0,1,36.13,41Z" style="fill:#163f59"/><path d="M34.07,39.33a1.6,1.6,0,0,1-2.49-1.91,1.43,1.43,0,0,1,2-.05A1.45,1.45,0,0,1,34.07,39.33Z" style="fill:#163f59"/><path d="M37.67,38a3.88,3.88,0,0,1-.31.26,1.92,1.92,0,0,1-2.14.26,4.86,4.86,0,0,1-.93.64,2.24,2.24,0,0,1-.91.14c-.54.38.33,2.6.37,2.49a6.41,6.41,0,0,1,.57-1.64,1.38,1.38,0,0,1,1-.66,1.18,1.18,0,0,1,.87.32.18.18,0,0,0,.12,0,1.44,1.44,0,0,0,.25-.18l.84-.84A1,1,0,0,0,37.67,38Z" style="fill:#e9d6b8"/><path d="M34.32,36.61c-.21.71.55,1.56,1.69,1.89s2.23,0,2.44-.7-.56-1.56-1.7-1.89S34.52,35.9,34.32,36.61Z" style="fill:#194866"/><path d="M34.55,36.24a1.33,1.33,0,0,1,.9,1.66,1.39,1.39,0,0,1-.1.26A1.19,1.19,0,0,0,35,38a1.34,1.34,0,0,0-1.54.67,1.35,1.35,0,0,1-.57-1.51A1.33,1.33,0,0,1,34.55,36.24Z" style="fill:#194866"/><path d="M32.23,36.67a1.35,1.35,0,0,0,1.2-.25,1.34,1.34,0,1,1-2,.78,1.31,1.31,0,0,1,.45-.67A1.55,1.55,0,0,0,32.23,36.67Z" style="fill:#194866"/><polygon points="23.53 59.97 22.77 63 24.57 63.46 25.53 63.49 23.67 62.56 24.64 59.8 23.53 59.97" style="fill:#e9d6b8"/><path d="M22.74,63.46l.38,0,.2-.26,1.45.41L26,63.7a.21.21,0,0,0-.05-.14,5.67,5.67,0,0,0-1.09-.43s0,.27-.08.3a9.1,9.1,0,0,1-1.49-.4c-.45-.18-.55-.32-.58-.29S22.74,63.46,22.74,63.46Z" style="fill:#161711"/><path d="M25.39,45.12c-.76,2,.49,8.56.49,8.56a21.21,21.21,0,0,0-1.29,2.79c-.47,1.63-1.36,3.73-1.36,3.73l1.5.06s3.35-5.92,3.49-6.71.77-7.44-.12-9S25.69,44.32,25.39,45.12Z" style="fill:#194866"/><path d="M28.3,47.36s1.58.32,1.95,0,.2-1.41,1-2.36a5.51,5.51,0,0,1,1.39-1.39c.32-.19.76-.35.91-.81a5.4,5.4,0,0,0,.36-1.34,1.9,1.9,0,0,1-.18-.78C33.71,40.53,28.3,47.36,28.3,47.36Z" style="fill:#c458ad"/><path d="M28.18,48s1.8-2.31,2.73-3.45,2.57-3.46,2.79-3.73a4.87,4.87,0,0,0,.44-.74s.14-.68-.26-1-.62-.33-2.24.11c-3,.8-6.75,5.43-6.56,6.19a8.27,8.27,0,0,0,.83.19S28,46.45,28.18,48Z" style="fill:#d1dbea"/><polygon points="34.04 38.83 34.13 39.32 34.22 40.04 33.66 40.38 33.67 38.87 34.04 38.83" style="fill:#b0bfde"/><path d="M34.25,49a3.38,3.38,0,0,0,1.18,1.33,6.7,6.7,0,0,0,.59.55c-.41-.05-.54-.32-.71-.41s-.09-.08,0,.23.47.36.71.52a.77.77,0,0,1,.28.24,3.86,3.86,0,0,1-.72-.28,4,4,0,0,1-.9-.63,3.79,3.79,0,0,1-.54-1.14C34,48.9,34,48.35,34.25,49Z" style="fill:#e9d6b8"/><path d="M32.05,43.81s.35-.12,1.07,1.69a40.84,40.84,0,0,1,1.38,4.64l-2-4S31.77,44.52,32.05,43.81Z" style="fill:#e9d6b8"/><path d="M33.3,44.84s-.69-1.68-1.58-1.26c-.5.25-.55.7-.33,1.21.39.94.89,2,.89,2H33.9Z" style="fill:#b0bfde"/><path d="M33.06,43.87l.4-3.91s-.12-.49-.49-.57c-.54-.11-.82,0-1,.31-.28.57-.24.25-.51,2.5-.25,2.06-.38,2.9.58,3.06S33.06,43.87,33.06,43.87Z" style="fill:#b0bfde"/><path d="M35,50.72a5.21,5.21,0,0,0,.59.63c.09,0,.57.22.57.22a1.06,1.06,0,0,0-.34-.3A8.06,8.06,0,0,1,35,50.72Z" style="fill:#e9d6b8"/><path d="M17.8,26.19a1.43,1.43,0,0,1-1.43,1.44L16,27c-.79,0-1.44-1.2-1.44-2v-.54A1.44,1.44,0,0,1,16,23h.36a1.43,1.43,0,0,1,1.43,1.43Z" style="fill:#c458ad"/><path d="M14.81,24.4h-.24a1.53,1.53,0,0,1,0,.3,1.88,1.88,0,0,1-1.68,1.85,1.9,1.9,0,1,0,1.89-2.16Z" style="fill:#c458ad"/><path d="M17.23,23.53a2.69,2.69,0,0,1,0,.4,1.9,1.9,0,0,1-1.32,1.71,4.32,4.32,0,0,1-.2,1.11,2.18,2.18,0,0,1-.55.75c-.1.65,2.09,1.59,2,1.49a6.78,6.78,0,0,1-.77-1.56,1.44,1.44,0,0,1,.22-1.16,1.2,1.2,0,0,1,.84-.4.17.17,0,0,0,.12-.05,1,1,0,0,0,.05-.3V24.34A1,1,0,0,0,17.23,23.53Z" style="fill:#e9d6b8"/><path d="M16.38,33c-.24.6-1.66.59-1.9,0l-1.33-4.28c-.05-.45,0-1.09.53-1.09h1.53l.69.33.61-.33h.37c.57,0,.83.49.59,1.08Z" style="fill:#dbdac6"/><path d="M13,34.1s-.28.17-1.1-.91a17.81,17.81,0,0,1-1-1.52c-.38-.66.37-.15.37-.15l1.08,1.1S13.16,33.54,13,34.1Z" style="fill:#dbdac6"/><path d="M13.26,27.83c-.58,1.3-.5,6.11-.5,6.11s.46,1.77,1.05-4.6C14,27.43,13.4,27.5,13.26,27.83Z" style="fill:#dbdac6"/><path d="M17.52,28l1.37,4.14s.09.29-.2.1a7.5,7.5,0,0,1-2.12-3.15C16,27.69,17.15,27.93,17.52,28Z" style="fill:#dbdac6"/><path d="M9.56,29.12l-.07.39,0,.31.24.46a3.64,3.64,0,0,0,.5.58c.18.13.66.79.74.86s.35-.07.35-.07-.47-.59-.71-.85a9.71,9.71,0,0,1-.53-.84,1.6,1.6,0,0,0-.32-.29s.18.32.24.4-.06.1-.06.1a2.9,2.9,0,0,1-.33-.55.84.84,0,0,1,0-.27Z" style="fill:#e9d6b8"/><path d="M17.83,43.75c-.07-.23-.11-.47-.17-.69-.23-.35-.43-.55-.6-.55-.63,0-1,2.15.33,6.25.07.23,1.2,4.36,1.2,4.19A60,60,0,0,0,17.83,43.75Z" style="fill:#e9d6b8"/><path d="M14,43.79c0-.23.12-.46.17-.69,0-.41-.12-.68-.27-.76C13.31,42,12,43.79,11.24,48c0,.24-1,4.42-.89,4.27A58.3,58.3,0,0,0,14,43.79Z" style="fill:#e9d6b8"/><polygon points="15.99 27.91 15.7 28.29 14.95 27.64 15.22 27.36 15.99 27.91" style="fill:#c9c8b6"/><polygon points="16.52 27.39 16.16 27.81 16.58 28.25 16.75 27.6 16.52 27.39" style="fill:#c9c8b6"/><path d="M15.77,33.11,16,33a10.58,10.58,0,0,0,.16-5.23.45.45,0,0,1-.24.06A10.39,10.39,0,0,1,15.77,33.11Z" style="fill:#c9c8b6"/><path d="M18.12,45a2.26,2.26,0,0,0,.05-.47c0-1,0-1.94-.15-3.76a49.72,49.72,0,0,0-1.25-7.43,4.82,4.82,0,0,0-.27-.79,5.75,5.75,0,0,0-2.08.57,7,7,0,0,0-.64,1.75,65.4,65.4,0,0,0-1.36,6.48c-.2,1.47-.23,2.66-.33,3.44C14,48,16.05,42,18.12,45Z" style="fill:#6855c1"/><path d="M18.71,32.05s-.29-.09.13-1.63a32,32,0,0,1,1.37-3.73l-.65,3.65S19.25,31.73,18.71,32.05Z" style="fill:#e9d6b8"/><path d="M19.78,27.88a2.75,2.75,0,0,0-.12-1.46,4.47,4.47,0,0,0-.12-.64c.25.23.2.47.26.61s0,.1.11-.16-.13-.46-.22-.69a.55.55,0,0,1-.06-.29,2.86,2.86,0,0,1,.33.54,3.75,3.75,0,0,1,.29.85,3.12,3.12,0,0,1-.21,1C19.9,28,19.65,28.41,19.78,27.88Z" style="fill:#e9d6b8"/><path d="M20.23,26.68a5.13,5.13,0,0,0,0-.72c0-.08-.24-.43-.24-.43a.78.78,0,0,0,.06.37A7.31,7.31,0,0,1,20.23,26.68Z" style="fill:#e9d6b8"/><path d="M19.84,28.63a10,10,0,0,1-.72,3.19c-.06.14-.12.29-.17.43s-.47-.08-.45-.48A10,10,0,0,1,19.27,29c.08-.19.15-.38.23-.56A3,3,0,0,1,19.84,28.63Z" style="fill:#dbdac6"/><path d="M20.57,52.93a4.35,4.35,0,0,0-.8.13c-.34.07-.58.17-.74.1s-.47-1.29-.51-2.14c0-.09-.58-.32-.55-.21a16.57,16.57,0,0,1,.4,2.44c.05.32.2.61.36.62a9.39,9.39,0,0,0,1.87-.7C20.71,53.11,20.6,52.89,20.57,52.93Z" style="fill:#e9d6b8"/><path d="M9.7,53.18c-.14.82-.07,1.52.14,1.56s.51-.61.65-1.43.07-1.53-.15-1.56S9.83,52.35,9.7,53.18Z" style="fill:#6855c1"/><path d="M9.86,52.75c-.19.59-.11,1.17.11,1.21s.46-.42.53-1c.09-.78,0-1.11.3-1.53a1.42,1.42,0,0,0,.24-.93c-.06-.07-.35.1-.39.32a2.23,2.23,0,0,1-.26.7A6.43,6.43,0,0,0,9.86,52.75Z" style="fill:#e9d6b8"/><path d="M20.23,53c.23.31-.9.62-1.22.65a2.63,2.63,0,0,0-.48.07h0a0,0,0,0,0,0,0c.08.19.1.48.4.35l1.93-.81C22.4,52.61,20.23,53,20.23,53Z" style="fill:#6855c1"/><path d="M8.66,38c-2.85-1.34-4.35-4.25-3.35-6.51s4.11-3,7-1.65,4.34,4.25,3.35,6.51S11.5,39.35,8.66,38Z" style="fill:#f4901e"/><path d="M9.08,37.48C6.24,36.14,4.74,33.23,5.73,31s4.11-3,7-1.66S17,33.58,16,35.83,11.93,38.82,9.08,37.48Z" style="fill:#ffc400"/><path d="M12.06,30.33c2.17,1,3.32,3.24,2.56,5a2.91,2.91,0,0,1-1.68,1.53,2.94,2.94,0,0,0,1.9-1.6c.76-1.72-.38-3.95-2.55-5A4.71,4.71,0,0,0,8.66,30,4.73,4.73,0,0,1,12.06,30.33Z" style="fill:#f4901e"/><path d="M28.1,19.82a5.53,5.53,0,0,1-2.52,7.33,5.4,5.4,0,0,1-7-3.22,5.52,5.52,0,0,1,2.51-7.32A5.4,5.4,0,0,1,28.1,19.82Z" style="fill:#f4901e"/><path d="M28.43,19.39a5.53,5.53,0,0,1-2.52,7.33,5.4,5.4,0,0,1-7-3.22,5.53,5.53,0,0,1,2.52-7.32A5.4,5.4,0,0,1,28.43,19.39Z" style="fill:#ffc400"/><path d="M20.59,23.12a4.24,4.24,0,0,1,1.93-5.6,3.65,3.65,0,0,1,2.58-.11,3.66,3.66,0,0,0-2.83,0A4.23,4.23,0,0,0,20.35,23a4.48,4.48,0,0,0,2.73,2.57A4.58,4.58,0,0,1,20.59,23.12Z" style="fill:#f4901e"/></svg>