<svg xmlns="http://www.w3.org/2000/svg" viewBox="0 0 2400 1847.52"><path d="M1927.46 1805.81a.61.61 0 0 0 .13-.22l72.39-66 72.39 66a.61.61 0 0 0 .13.22l9.14 41.71h2.05l-8.67-39.52 43.34 39.52h3l-46-41.94 214.4-68.14-24 109.3-2.44.78h4.78l-.38-.35 24.28-110.43 106.65-33.91-31.72 144.69h2L2400 1705.9v-5.64h-.14l-93.38-29.69 21-95.7a.83.83 0 0 0 .14-.22l72.39-66v-2.71l-47.84-43.63L2400 1244v-5.64h-.14l-93.38-29.68 21-95.7a.61.61 0 0 0 .13-.22l72.39-66V1044l-47.84-43.63L2400 782.14v-5.65h-.15l-93.37-29.68 21-95.7a.74.74 0 0 0 .14-.23l72.39-66v-2.71l-47.84-43.63L2400 320.26v-5.65h-.14l-93.38-29.68 21-95.7a.74.74 0 0 0 .14-.23l72.38-66v-2.71l-47.84-43.64L2369 0h-2l-16.46 75.06L2268.15 0h-4.78l-105.3 33.47L2121.37 0h-3l37.47 34.17-60.44 19.21L2083.73 0h-2.05l11.84 54-93.37 29.68a.75.75 0 0 0-.15 0 .75.75 0 0 0-.15 0L1906.48 54l11.84-54h-2l-11.7 53.38-60.44-19.21L1881.6 0h-3l-36.7 33.47L1736.63 0h-4.78l-82.3 75.06L1633.09 0h-2l16.79 76.61-47.88 43.64-47.84-43.64L1569 0h-2l-16.46 75.06L1468.15 0h-4.78l-105.3 33.47L1321.37 0h-3l37.47 34.17-60.44 19.21L1283.73 0h-2l11.84 54-93.37 29.68a.75.75 0 0 0-.15 0 .75.75 0 0 0-.15 0L1106.48 54l11.84-54h-2l-11.7 53.38-60.44-19.21L1081.6 0h-3l-36.7 33.47L936.63 0h-4.78l-82.3 75.06L833.09 0h-2l16.79 76.62L800 120.25l-47.84-43.63L769 0h-2l-16.55 75.06L668.15 0h-4.78l-105.3 33.47L521.37 0h-3l37.47 34.17-60.41 19.21L483.73 0h-2.05l11.84 54-93.38 29.67h-.28L306.48 54l11.84-54h-2.05l-11.7 53.38-60.44-19.21L281.6 0h-3l-36.7 33.47L136.63 0h-4.78l-82.3 75.06L33.09 0h-2l16.75 76.62L0 120.25V123l72.39 66a1.26 1.26 0 0 0 .13.23l21 95.7L.14 314.61H0v5.65L47.84 538.5 0 582.13v2.71l72.39 66a1.26 1.26 0 0 0 .13.23l21 95.7L.15 776.49H0v5.65l47.84 218.23L0 1044v2.71l72.39 66a.78.78 0 0 0 .12.22l21 95.7-93.37 29.74H0v5.63l47.84 218.23L0 1505.89v2.71l72.39 66a1.16 1.16 0 0 0 .13.22l21 95.7-93.38 29.74H0v5.65l31.05 141.61h2L1.37 1702.83l106.63 33.9 24.21 110.44-.38.35h4.79l-2.45-.78-24-109.3 214.4 68.15-46 41.93h3l43.37-39.52-8.67 39.52h2.05l9.15-41.71a.78.78 0 0 0 .12-.22l72.39-66 72.39 66a.78.78 0 0 0 .12.22l9.15 41.71h2.05l-8.63-39.52 43.34 39.52h3l-46-41.93 214.4-68.15-24 109.3-2.45.78h4.79l-.38-.35L692 1736.73l106.65-33.9-31.72 144.69h2l31-141.61 31 141.61h2l-31.72-144.69 106.79 33.9 24.21 110.44-.38.35h4.78l-2.44-.78-24-109.3 214.4 68.14-46 41.94h3l43.34-39.52-8.67 39.52h2l9.14-41.71a.61.61 0 0 0 .13-.22l72.39-66 72.39 66a.61.61 0 0 0 .13.22l9.14 41.71h2l-8.67-39.52 43.34 39.52h3l-46-41.94 214.4-68.14-24 109.3-2.44.78h4.78l-.38-.35 24.41-110.43 106.65-33.91-31.72 144.69h2l31-141.62 31 141.62h2l-31.72-144.69 106.79 33.91 24.21 110.43-.38.35h4.78l-2.44-.78-24-109.3 214.4 68.14-46 41.94h3l43.34-39.52-8.67 39.52h2zm.78-3.53l23.42-106.83 46.86 42.74zM304.57 1439l-60.44-19.21 80.81-73.69zm1.48 2.58l90.65 28.81-104.23 33.13zm0-923.77l90.65 28.82-104.23 33.15zm-1.48-2.57l-60.44-19.21 80.81-73.69zm94.06 32.87l-48.18 219.77-82.68-75.41L292 582zm291.15-196.32l-24 109.31-107.71 34.25-82.69-75.41zm-212.42 65.43l165.07-150.55 61.71 19.62-13.87 63.25zm647.26 2.72l-82.69 75.41-107.74-34.25-24-109.31zm-214.89-70.4l-13.87-63.25 61.71-19.62 165.07 150.55zm580.05 2.25l-24 109.31-107.74 34.25-82.69-75.41zm-212.42 65.43l165.07-150.55 61.71 19.62-13.87 63.25zm647.26 2.72l-82.69 75.41-107.74-34.25-24-109.31zm-214.89-70.4l-13.87-63.25 61.71-19.62 165.07 150.55zm397.8 230.24l-104.23-33.13 90.7-28.82zm-32.47-157.42l80.81 73.69-60.44 19.21zM2108 582l24.21 110.44-82.68 75.41-48.18-219.75zm-33 764.09l80.81 73.69-60.38 19.22zm32.47 157.42l-104.23-33.13 90.65-28.82zM400 815.78l72.39 66a1.26 1.26 0 0 0 .13.23l21 95.7-93.38 29.68h-.28l-93.38-29.68 21-95.7a1.26 1.26 0 0 0 .13-.23zm-71.76 62.74l23.42-106.83 46.86 42.73zm396.38-227.64l-82.69 75.41L534.19 692l-24-109.31zm-214.89-70.4l-13.87-63.25 61.71-19.62 165.07 150.55zm-2.2 461.18l-104.23-33.13 90.7-28.82zm-32.47-157.42l80.81 73.69-60.44 19.21zm20.8 94.87l61.71-19.62L722.64 1110l-212.91-67.68zm-20.48-97.29l214.4-68.15L665.81 923l-107.74 34.23zm2-2.72l165.05-150.55 61.71 19.62-13.87 63.25zM692 813l106.65-33.9-48.2 219.72-82.68-75.41zm.49-2.25l13.58-62 90.65 28.82zm12.1-64.52L644.13 727l80.81-73.69zm-64.34-18.35L474 879.45l-24-109.31L533.58 694zM471.76 878.52l-70.28-64.1 46.86-42.73zM508 1043.91l24.21 110.44-82.68 75.41L401.37 1010zm2.2.7l214.4 68.15-82.69 75.41-107.74-34.25zm132.21 145.82l61.71 19.62-13.87 63.25-212.89 67.7zm63.62 20.22l90.65 28.82-104.21 33.13zm-1.48-2.57l-60.44-19.21 80.81-73.69zM559.77 958.79l106.65-33.9 83.58 76.19-24 109.31zm191.89 43.84l46.86 42.73-70.28 64.1zm.5-2.25L800 782.15l47.84 218.23L800 1044zm337.62-417.65l-24 109.31-107.71 34.25-82.69-75.41zm-212.42 65.43l165.07-150.55 61.71 19.62-13.87 63.25zM1126 879.44L959.77 727.85 1066.42 694l83.58 76.13zm25.67-107.75l46.86 42.73-70.28 64.1zm-27 110.13l-82.69 75.41L934.19 923l-24-109.31zm-214.89-70.4l-13.87-63.25 61.71-19.62 165.02 150.55zm132.7 148.07l61.71 19.62-13.87 63.25L877.36 1110zm63.62 20.22l90.65 28.82-104.23 33.13zm-1.48-2.57l-60.44-19.21 80.81-73.69zM955.87 727l-60.44 19.2-20.37-92.9zm-48.34 83.73L803.3 777.59l90.7-28.82zM908 813l24.21 110.44-82.68 75.41-48.16-219.78zm-59.68 189.66l23.42 106.83-70.28-64.1zm1.7-1.55l83.54-76.19 106.65 33.9L874 1110.39zm57.49 271.52l-104.21-33.16 90.7-28.82zm-32.47-157.42l80.81 73.69-60.44 19.21zm20.8 94.87l61.71-19.62L1122.64 1341l-212.91-67.7zm-20.48-97.29l214.4-68.15-24 109.31-107.74 34.25zm216.6-68.85l106.65-33.9-48.18 219.75-82.68-75.41zm14.5-66.16l21-95.7a.83.83 0 0 0 .14-.22l72.39-66 72.39 66a.83.83 0 0 0 .14.22l21 95.7-93.38 29.68h-.14a.45.45 0 0 0-.16 0zm418.14-326.87l-82.69 75.41L1334.19 692l-24-109.31zm-214.89-70.4l-13.87-63.25 61.71-19.62 165.07 150.55zm-2.2 461.18l-104.23-33.13 90.72-28.85zm-32.47-157.42l80.81 73.69-60.44 19.21zm20.8 94.87l61.71-19.62L1522.64 1110l-212.91-67.68zm-20.48-97.29l214.4-68.15-24 109.31-107.74 34.25zm2-2.72l165.07-150.55 61.71 19.62-13.87 63.25zM1492 813l106.65-33.9-48.18 219.75-82.68-75.41zm.49-2.25l13.58-62 90.65 28.82zm12.1-64.52L1444.13 727l80.81-73.69zm-64.34-18.35L1274 879.44l-24-109.31 83.58-76.13zm-168.49 150.64l-70.28-64.1 46.86-42.73zm36.24 165.39l24.21 110.44-82.68 75.41-48.16-219.76zm2.2.7l214.4 68.15-82.69 75.41-107.74-34.25zm132.21 145.82l61.71 19.62-13.87 63.25-212.89 67.7zm63.62 20.22l90.65 28.82-104.23 33.13zm-1.48-2.57l-60.44-19.21 80.81-73.69zm-144.8-249.29l106.65-33.9 83.54 76.19-24 109.31zm191.89 43.84l46.86 42.73-70.28 64.1zm.5-2.25L1600 782.14l47.84 218.24L1600 1044zm337.62-417.65l-24 109.31-107.74 34.25-82.69-75.41zm-212.42 65.43l165.07-150.55 61.71 19.62-13.87 63.25zm395 233.64a.83.83 0 0 0 .14.22l21 95.7-93.38 29.68h-.1a.45.45 0 0 0-.16 0l-93.38-29.68 21-95.7a.83.83 0 0 0 .14-.22l72.39-66zm-70.91-67.38l46.86-42.73 23.42 106.83zm-76.86 67.4l-82.69 75.41L1734.19 923l-24-109.31zm-214.89-70.4l-13.87-63.25 61.71-19.62 165.12 150.55zm194.84 165.72l-60.44-19.21 80.81-73.69zm1.48 2.57l90.65 28.82-104.23 33.13zm-63.62-20.22l61.71 19.62-13.87 63.25-212.86 67.64zm47.35 85.12l-24 109.31-107.74 34.25-82.69-75.41zm2.2-.7l106.65-33.9-48.18 219.75-82.68-75.41zm36.26-165.39l23.42-106.83 46.86 42.73zm-2.25.92l-166.17-151.59L1866.42 694l83.58 76.13zM1755.87 727l-60.44 19.21-20.37-92.9zm-48.34 83.73l-104.23-33.14 90.7-28.82zm.47 2.27l24.21 110.44-82.68 75.41-48.18-219.75zm-59.68 189.66l23.42 106.83-70.28-64.1zm1.7-1.55l83.54-76.19 106.65 33.9L1674 1110.39zm105.83 187.79l-60.44 19.21-20.37-92.9zm-48.34 83.73l-104.23-33.13 90.65-28.82zm-11.67-62.55l61.71-19.62L1922.64 1341l-212.91-67.68zm63.91-20.32l106.65-33.9L1950 1232l-24 109.31zm191.89 43.84l46.86 42.74-70.28 64.09zm.5-2.25l47.86-218.27 47.84 218.24L2000 1275zm96.18 2.25l23.42 106.83-70.28-64.09zm1.7-1.55l83.54-76.19 106.65 33.9L2074 1341.33zm-.49-2.26L2001.37 1010l106.65 33.9 24.21 110.44zm-46.25-221.23l90.72-28.85 13.58 62zm71.76-124.29l80.81 73.69-60.44 19.21zm-1-4.8l-24-109.31 83.54-76.16 106.65 33.9zm-26.17-110l-47.87 43.6-47.84-43.63L2000 551.2zm-97.39-1.56l-82.68-75.41L1892 582l106.65-33.9zm-58-188.1l13.58-61.95 90.65 28.82zm12.1-64.52l-60.44-19.21 80.81-73.69zm-64.34-18.35L1674 648.5l-24-109.31 83.58-76.19zm-168.48 150.64l-70.28-64.1 46.86-42.73zm.63 3.28a.74.74 0 0 0 .14.23l21 95.7-93.37 29.68h-.3l-93.37-29.68 21-95.7a.74.74 0 0 0 .14-.23l72.39-66zm-144.15-3.28l23.42-106.83 46.86 42.73zm-2.25.92l-166.22-151.59L1466.42 463l83.58 76.19zm-170.12-152.45l-60.44 19.21-20.37-92.9zm-48.34 83.73l-104.23-33.13 90.7-28.82zm.47 2.22l24.21 110.44-82.68 75.41-48.18-219.75zm-60.18 187.41L1200 813.07l-47.84-43.63L1200 551.2zm-97.39-1.56l-82.68-75.41L1092 582l106.65-33.9zm-58-188.1l13.58-61.95 90.65 28.82zm12.1-64.52l-60.44-19.21 80.81-73.69zm-64.34-18.35L874 648.5l-24-109.31L933.58 463zm-168.43 150.7l-70.28-64.1 46.86-42.73zm.63 3.28a1.26 1.26 0 0 0 .13.23l21 95.7-93.37 29.68h-.3l-93.37-29.68 21-95.7a1.26 1.26 0 0 0 .13-.23l72.39-66zm-144.15-3.28l23.42-106.83 46.86 42.73zm-2.25.92L559.77 496.91 666.42 463 750 539.19zM555.87 496.05l-60.44 19.21-20.37-92.9zm-48.34 83.73L403.3 546.65l90.7-28.82zM508 582l24.21 110.44-82.68 75.41-48.16-219.72zm-60.16 187.44L400 813.07l-47.84-43.63L400 551.21zm-97.88.7L326 879.45l-166.23-151.6L266.42 694zm-45.39 207l-60.44-19.21 80.81-73.69zm1.48 2.57l90.65 28.82-104.23 33.13zm92.58 30.3l-48.18 219.75-82.68-75.41L292 1043.91zM350 1232l-24 109.31-166.22-151.6 106.65-33.9zm1.7 1.55l46.86 42.74-70.28 64.09zm.5-2.25l47.8-218.21 47.84 218.23L400 1275zm96.18 2.25l23.42 106.83-70.28-64.09zM450 1232l83.54-76.19 106.65 33.9L474 1341.33zm57.49 271.52l-104.19-33.11 90.7-28.81zm-32.47-157.42l80.81 73.69-60.4 19.21zm20.8 94.87l61.71-19.62L722.6 1571.9l-212.91-67.68zm-20.48-97.29l214.4-68.15-24 109.31L558 1419.09zM692 1274.85L798.63 1241l-48.18 219.7-82.68-75.41zm14.5-66.16l21-95.7a.78.78 0 0 0 .12-.22l72.39-66 72.39 66a.78.78 0 0 0 .12.22l21 95.7-93.38 29.68h-.28zm201.5 66.16l24.21 110.44-82.68 75.41-48.16-219.7zm2.2.7l214.4 68.15-82.69 75.41-107.74-34.25zm132.21 145.82l61.71 19.62-13.87 63.25-212.91 67.68zm63.62 20.22l90.65 28.82-104.23 33.13zm-1.48-2.57l-60.44-19.21 80.81-73.69zm-144.8-249.29l106.65-33.9L1150 1232l-24 109.31zm191.89 43.84l46.86 42.74-70.28 64.09zm.5-2.25l47.86-218.24 47.84 218.24L1200 1275zm96.18 2.25l23.42 106.83-70.28-64.09zm1.7-1.55l83.54-76.19 106.65 33.9-166.21 151.6zm57.49 271.52l-104.23-33.13 90.65-28.82zm-32.47-157.42l80.81 73.69-60.42 19.19zm20.8 94.87l61.71-19.62 165.07 150.55-212.91-67.68zm-20.48-97.29l214.4-68.15-24 109.31-107.74 34.25zm216.6-68.85l106.65-33.9-48.18 219.75-82.68-75.41zm14.5-66.16l21-95.7a.61.61 0 0 0 .13-.22l72.39-66 72.39 66a.61.61 0 0 0 .13.22l21 95.7-93.38 29.68h-.28zm201.54 66.16l24.21 110.44-82.68 75.41-48.16-219.7zm2.2.7l214.4 68.15-82.69 75.41-107.74-34.25zm214.72 70.57l-20.37 92.9-60.44-19.21zm-82.51 75.25l61.71 19.62-13.87 63.25-212.91 67.68zm63.62 20.22l90.65 28.82-104.23 33.13zm.43-2l21-95.69a.76.76 0 0 0 .13-.23l72.39-66 72.39 66a.76.76 0 0 0 .13.23l21 95.69-93.38 29.68h-.28zm201.54 66.2l24.21 110.44-82.68 75.41-48.18-219.75zm2.2.7l214.4 68.15-82.69 75.41-107.74-34.25zm-.49-2.25l-13.85-63.24 61.71-19.62 165.07 150.55zm-34.35-160.54l214.4-68.15-24 109.31-107.74 34.25zm2-2.72l165.07-150.55 61.71 19.62-13.87 63.25zm164.57-152.81l-107.74-34.25-24-109.31 214.4 68.15zm-132.2-145.81l-13.87-63.25 61.71-19.62L2322.64 1110zm-34.35-160.54l214.4-68.15-24 109.31-107.74 34.25zm2-2.72l165.07-150.55 61.71 19.62-13.87 63.25zm164.57-152.81L2134.19 692l-24-109.31 214.4 68.15zm-132.2-145.81l-13.87-63.25 61.71-19.62 165.07 150.55zm-34.35-160.54l214.4-68.15-24 109.31-107.74 34.25zm2-2.72l165.07-150.55 61.71 19.62-13.87 63.25zm164.57-152.81l-107.74-34.25-24-109.31L2324.62 189zm-1.7 1.56L2074 417.56l-24-109.31 83.54-76.18zm-168.51 150.67l-70.28-64.1 46.86-42.73zm.63 3.28a.74.74 0 0 0 .14.23l21 95.7-93.37 29.68h-.3l-93.37-29.68 21-95.7a.74.74 0 0 0 .14-.23l72.39-66zm-144.15-3.28l23.42-106.83 46.86 42.73zm-2.25.92L1759.77 266l106.65-33.9 83.58 76.15zm-60.18-187.4l-107.74 34.25-82.69-75.41 214.4-68.15zm-109.94 35l-60.44 19.21-20.37-92.9zm-48.34 83.73l-104.23-33.18 90.7-28.82zm.49 2.25l24.21 110.44-82.68 75.41-48.18-219.75zm-60.18 187.36L1600 582.13l-47.84-43.63L1600 320.26zm-97.39-1.56l-82.68-75.41L1492 351.09l106.65-33.9zm-58-188.1l13.58-61.95 90.65 28.82zm12.1-64.52l-60.44-19.21 80.81-73.69zm-62.64-19.91l-107.74-34.25-24-109.31L1524.62 189zm-1.7 1.56L1274 417.56l-24-109.31 83.53-76.18zm-168.45 150.67l-70.28-64.1 46.86-42.73zm.63 3.28a.74.74 0 0 0 .14.23l21 95.7-93.37 29.68h-.3l-93.37-29.68 21-95.7a.74.74 0 0 0 .14-.23l72.39-66zm-144.15-3.28l23.42-106.83 46.86 42.73zm-2.25.92L959.77 266l106.65-33.9 83.58 76.15zm-60.18-187.4l-107.74 34.25L875.38 189l214.4-68.15zm-109.94 35l-60.44 19.21-20.37-92.9zm-48.34 83.73L803.3 315.71l90.7-28.82zm.49 2.25l24.21 110.44-82.68 75.41-48.18-219.8zM847.84 538.5L800 582.13l-47.84-43.63L800 320.27zm-97.39-1.56l-82.68-75.41L692 351.09l106.65-33.9zm-58-188.1l13.58-61.95 90.65 28.82zm12.1-64.52l-60.44-19.21 80.81-73.69zm-62.64-19.91l-107.72-34.25-24-109.31L724.62 189zm-1.7 1.56L474 417.56l-24-109.31 83.54-76.18zM471.76 416.64l-70.28-64.1 46.86-42.73zm.63 3.28a1.26 1.26 0 0 0 .13.23l21 95.7-93.38 29.68h-.28l-93.38-29.68 21-95.7a1.26 1.26 0 0 0 .13-.23l72.39-66zm-144.15-3.28l23.42-106.83 46.86 42.73zm-2.25.92L159.77 266l106.65-33.9L350 308.25zm-60.18-187.4l-107.74 34.25L75.38 189l214.4-68.15zm56.83 187.06l-212.91-67.68-13.87-63.25 61.71-19.62zm2 2.72l-82.69 75.41-107.76-34.25-24-109.31zm-82.19 77.67l61.71 19.62-13.87 63.25-212.93 67.68zm47.35 85.12L265.81 692l-107.74 34.29-82.69-75.41zm32.84 296.37l-212.91-67.68-13.87-63.25 61.71-19.62zm2 2.72l-82.69 75.41L134.19 923l-24-109.31zm-82.19 77.67l61.71 19.62-13.87 63.25L77.36 1110zm47.35 85.12l-24 109.31-107.74 34.25-82.69-75.41zM322.64 1341l-212.91-67.7-13.87-63.25 61.71-19.62zm2 2.72l-82.69 75.41-107.74-34.25-24-109.31zm-82.19 77.67l61.69 19.61-13.87 63.25-212.91 67.67zm47.35 85.12l-24 109.31-107.74 34.25-82.69-75.41zm2.2-.7l106.65-33.9-48.18 219.75-82.68-75.41zm14.5-66.16l21-95.7a.78.78 0 0 0 .12-.22l72.39-66 72.39 66a.78.78 0 0 0 .12.22l21 95.7-93.38 29.69h-.28zm201.5 66.14l24.21 110.44-82.68 75.41-48.18-219.75zm2.2.7l214.4 68.15-82.69 75.41-107.72-34.25zm214.72 70.57L704.57 1670l-60.44-19.21zm-165.15-156.39l106.65-33.9L750 1463l-24 109.31zm191.89 43.84l46.86 42.74-70.28 64.09zm.5-2.25L800 1244l47.84 218.23-47.84 43.66zm96.18 2.25l23.42 106.83-70.28-64.09zM850 1463l83.54-76.19 106.65 33.9L874 1572.27zm25.34 111.68l214.4-68.15-24 109.31L958 1650.09zm80.49 76.11l-60.4 19.21-20.37-92.9zm136.11-145l106.65-33.9-48.18 219.75-82.68-75.41zm14.5-66.16l21-95.69a.76.76 0 0 0 .13-.23l72.39-66 72.39 66a.76.76 0 0 0 .13.23l21 95.69-93.38 29.68h-.28zm201.56 66.16l24.21 110.44-82.68 75.41-48.18-219.75zm2.2.7l214.4 68.15-82.69 75.41-107.74-34.25zm214.72 70.57l-20.37 92.9-60.44-19.21zm-165.17-156.39l106.65-33.9L1550 1463l-24 109.31zm191.89 43.84l46.86 42.74-70.28 64.09zm.5-2.25L1600 1244l47.84 218.24-47.84 43.65zm96.18 2.25l23.42 106.83-70.28-64.09zm1.7-1.55l83.54-76.19 106.65 33.9-166.21 151.6zm25.34 111.68l214.4-68.15-24 109.31-107.74 34.25zm80.49 76.11l-60.42 19.25-20.37-92.9zm136.11-145l106.65-33.9-48.18 219.75-82.68-75.41zm60.18 187.41L2000 1475l47.84 218.24-47.84 43.59zm49.32 45l46.86-42.74 23.42 106.83zm72.53 65l-24-109.31 83.54-76.19 106.65 33.9zm216.26-68l-212.91 67.68 165.07-150.55 61.71 19.62zm106.43-33.83l-104.23 33.13 13.58-62zm-92.11-31.33l-60.44-19.21 80.81-73.69zm21.42-97.69l-166.22-151.6 106.65-33.9L2350 1463zm72.53-65l-70.28 64.09 23.42-106.83zm-48.07-46.55l-82.68-75.41 24.23-110.5 106.65-33.9zm46.25-221.23l-104.23 33.13 13.58-61.95zm-92.13-31.39l-60.44-19.21 80.81-73.69zm21.42-97.69l-166.22-151.6 106.65-33.9 83.54 76.19zm72.53-65l-70.28 64.1 23.42-106.83zm-48.07-46.54l-82.68-75.41L2292 813l106.65-33.9zm46.25-221.23l-104.23 33.13 13.58-62zm-92.13-31.39L2244.13 727l80.81-73.69zM2326 648.5l-166.23-151.59L2266.42 463l83.58 76.19zm72.53-65l-70.28 64.1 23.42-106.83zm-48.07-46.54l-82.68-75.41L2292 351.09l106.65-33.9zm46.25-221.23l-104.23 33.13 13.58-61.95zm-92.13-31.39l-60.44-19.21 80.81-73.69zm47.09-205.45l46.86 42.73-70.28 64.1zm-85.25-77.76L2350 77.31l-24 109.31L2159.77 35zm-108.85 34.6l165.07 150.55-212.91-67.68-13.87-63.26zM2094 56l13.58 62-104.28-33.23zm14.07 64.2l24.21 110.44-82.73 75.36-48.18-219.75zM2000 89.32l47.84 218.23-47.84 43.64-47.84-43.64zM1950.45 306l-82.68-75.41L1892 120.15l106.65-33.9zm-44.4-250l90.65 28.82-104.23 33.08zm-63.62-20.22l61.71 19.61-13.87 63.26-212.91 67.68zM1733.58 1.13L1840.23 35 1674 186.62l-24-109.31zm-85.24 77.74l23.42 106.83-70.28-64.1zM1672.39 189a.74.74 0 0 0 .14.23l21 95.7-93.38 29.68h-.28l-93.38-29.68 21-95.7a.74.74 0 0 0 .14-.23l72.37-66zM1551.66 78.87l46.86 42.73-70.28 64.1zm-85.24-77.74L1550 77.31l-24 109.31L1359.77 35zm-108.85 34.6l165.07 150.55-212.91-67.68-13.87-63.26zM1294 56l13.58 62-104.28-33.23zm14.07 64.2l24.21 110.44-82.73 75.36-48.18-219.75zM1200 89.32l47.84 218.23-47.84 43.64-47.84-43.64zM1150.45 306l-82.68-75.41L1092 120.15l106.65-33.9zm-44.4-250l90.65 28.82-104.23 33.08zm-63.62-20.22l61.71 19.61-13.87 63.26-212.91 67.63zM933.58 1.13L1040.23 35 874 186.62 850 77.31zm-85.24 77.74l23.42 106.83-70.28-64.1zm24 110.11a1.26 1.26 0 0 0 .13.23l21 95.7-93.38 29.68h-.28l-93.38-29.68 21-95.7a1.26 1.26 0 0 0 .13-.23L800 123zM751.66 78.87l46.86 42.73-70.28 64.1zM666.42 1.13L750 77.31l-24 109.31L559.77 35zm-108.85 34.6l165.07 150.55-212.91-67.68-13.87-63.25zM494 56l13.58 62L403.3 84.77zm14 64.15l24.21 110.44L449.55 306 401.37 86.25zM400 89.33l47.84 218.23L400 351.19l-47.84-43.63zM350.45 306l-82.68-75.41L292 120.15l106.65-33.9zm-44.4-250l90.65 28.77-104.23 33.13zm-63.62-20.27l61.71 19.62-13.87 63.25-212.91 67.68zM1.48 121.6l46.86-42.73L71.76 185.7zm48.57-44.29l83.53-76.18L240.23 35 74 186.62zm25 114.11l80.81 73.69-60.43 19.21zM94 286.89l13.58 61.95L3.3 315.71zm-92.63 30.3L108 351.09l24.21 110.44-82.66 75.41zm.11 266.29l46.86-42.73 23.42 106.83zM50 539.19L133.58 463l106.65 33.9L74 648.5zM75 653.3l80.87 73.7-60.44 19.2zm19 95.47l13.58 62L3.3 777.59zm-92.63 30.3L108 813l24.21 110.44-82.66 75.38zm.11 266.29l46.86-42.73 23.42 106.83zM50 1001.08l83.54-76.19 106.65 33.9L74 1110.39zm25 114.1l80.81 73.69-60.44 19.21zm19 95.47l13.58 61.95L3.3 1239.47zM1.37 1241L108 1274.85l24.21 110.44-82.66 75.41zm.11 266.3l46.86-42.74 23.42 106.83zM50 1463l83.54-76.19 106.65 33.9L74 1572.27zm25 114.1l80.81 73.69L95.43 1670zM3.3 1701.35l90.7-28.81 13.58 61.94zm106.43 33.83l-13.87-63.25 61.71-19.62 165.07 150.55zm216.26 68l-166.22-151.6 106.65-33.9L350 1693.9zm2.25-.93l23.42-106.83 46.86 42.74zm23.92-109.08L400 1475l47.84 218.23-47.84 43.6zm49.32 45l46.86-42.74 23.42 106.83zm72.53 65l-24-109.31 83.53-76.19 106.65 33.9zm216.26-68l-212.91 67.68 165.07-150.55 61.71 19.62zm2.2-.7l13.58-62 90.65 28.82zm107.67-34.22h-.28l-93.38-29.69 21-95.7a1.16 1.16 0 0 0 .13-.22l72.39-66 72.39 66a1.16 1.16 0 0 0 .13.22l21 95.7zm3.16 1.09l90.7-28.81 13.58 62zm106.43 33.83l-13.87-63.25 61.71-19.62 165.07 150.55zm216.26 68l-166.22-151.6 106.65-33.9 83.58 76.23zm2.25-.93l23.42-106.83 46.86 42.74zm23.92-109.08L1200 1475l47.84 218.24-47.84 43.59zm49.32 45l46.86-42.74 23.42 106.83zm72.53 65l-24-109.31 83.53-76.19 106.65 33.9zm216.26-68l-212.91 67.68 165.07-150.55 61.71 19.62zm2.2-.7l13.58-62 90.65 28.82zm107.67-34.23h-.28l-93.38-29.69 21-95.7a.83.83 0 0 0 .14-.22l72.39-66 72.39 66a.83.83 0 0 0 .14.22l21 95.7zm3.16 1.1l90.65-28.82 13.58 62zm106.43 33.83l-13.87-63.25 61.71-19.62 165.07 150.55zm50-83.57l106.65-33.9 83.62 76.21-24 109.31z" fill="#fff"/></svg>