<svg version="1.0" xmlns="http://www.w3.org/2000/svg" width="682.667" height="682.667" viewBox="0 0 512 512"><path d="M253.8 125.1c-1.6.4-2.8.5-2.8.3 0-1.4-6 6.7-6.3 8.5-.2 1.1-1.2 2.8-2.3 3.7-1 .8-1.3 1.2-.5.8.8-.4 1.2-.3.9.2-.2.5-1.3 2.6-2.2 4.8-1.4 2.9-2 3.5-2.7 2.5-.6-.9-.7-.4-.3 1.5.5 2 .4 2.7-.4 2.2-.8-.4-1-.2-.6.7.3.8.1 1.8-.5 2.2-.6.3-1.1 1.5-1.1 2.6s-.6 2.2-1.3 2.5c-.8.3-1.4 1-1.4 1.7s-1.5 4.3-3.3 8.2c-1.8 3.8-3.2 7.4-3.1 7.9.1.5-.4.6-1.2.3-.7-.3-1.4.1-1.4.9 0 .7.5 1.1 1 .7.5-.3.4.4-.2 1.6-.7 1.1-1.6 2.1-2.2 2.1-.6 0-.8.4-.5.9.9 1.4-.5 4.2-1.7 3.4-.5-.3-.7-.1-.4.4.4.6-.2 3.1-1.3 5.7-1.2 2.5-2 4.9-2 5.2.1.4-.2 1-.7 1.3-.5.3-2.2 3.6-3.8 7.3-1.6 3.7-3.2 6.5-3.6 6.2-.4-.2-1.1.1-1.5.7-.4.8-.3.9.4.5s1.2-.1 1.2.8-.4 1.6-1 1.6c-.5 0-1 .9-1 1.9 0 1.1-.5 2.1-1.2 2.3-.6.2-1.2 1.5-1.3 2.9-.1 1.3-.8 2.3-1.4 2.1-.7-.1-1 .1-.7.6.3.5-.5 3.1-1.8 5.8-1.3 2.7-3.4 7.3-4.8 10.1-1.4 2.9-2.9 4.9-3.3 4.5-.5-.4-.5-.2-.2.4.9 1.6-5.3 15.5-6.6 14.7-.6-.3-.7-.1-.3.5.7 1.2-7.4 19.3-8.4 18.7-.3-.2-.7.6-.7 1.8-.3 3.2-3.4 9.7-4.4 9.1-.5-.3-.6.3-.2 1.2.5 1.3.3 1.5-.7.9-.8-.5-1.1-.4-.7.2.9 1.5-4.4 13.4-5.6 12.6-.6-.3-.7-.1-.3.5.6 1.1-2.2 8.2-3.7 9.3-.5.3-.9 1-1 1.5-.1.5-.6.8-1.1.6-.5-.2-.3.5.5 1.4 1.3 1.6 1.2 1.7-.5 1.1-1.5-.6-1.7-.5-.7.6.9 1.1.8 1.7-.2 2.6-.8.6-1.7.9-2.1.6-.3-.3-.2 0 .3.6 1 1.3-.3 4.4-2.9 6.7-.8.7-.9 1.1-.2.7 1-.5 1-.1.1 1.9-.7 1.4-1.5 2.3-2 2.1-.4-.3-1.1 0-1.5.6-.5.8-.3.9.6.4 1-.6 1.2-.4.6 1.1-.4 1-.8 2.3-.9 2.9-.1.5-.4 1.2-.7 1.5-.3.3-1.1 1.8-1.8 3.3-.8 1.8-1.6 2.5-2.5 2.1-.9-.6-.9-.4.1.8 1.1 1.4 1 1.8-.5 2.7-1 .6-1.4 1.1-.9 1.1.5 0 .3.7-.4 1.5s-1 1.5-.6 1.5c.8 0-4.4 10.3-5.6 11.1-.5.3-.9.8-.8 1 .5 1.3-1.4 5.8-2.3 5.2-.6-.4-.7-.1-.2.7.4.7.2 1.6-.6 2.1-1 .6-1.1.9-.1.9.6 0 1.2.5 1.2 1.1 0 .5-.5.7-1.2.3-.7-.4-.2.6.9 2.2 1.5 2.1 1.9 3.5 1.2 4.5-1.5 2.4-1 3.4.7 1.3 1.3-1.6 1.5-1.6 1-.2-.4 1.4 0 1.7 1.7 1.5 1.6-.1 2.2.3 2.1 1.8 0 1.5.6 2.1 2.2 2.1 1.3 0 2-.4 1.8-.8-.3-.4 0-.8.5-.8.6 0 1.1.4 1.1 1 0 .5.5 1 1 1 .6 0 .9-.5.8-1.2-.2-.7.6-1.2 1.7-1.3 1.4 0 2-.7 2-2.1 0-1.2.8-3 1.8-4.1.9-1.1 1.5-2.2 1.2-2.5-.9-.8 2.3-3 3.4-2.4.6.4.8 1.4.5 2.4-.5 1.4-.4 1.4.4.3.7-1 .6-2.1-.4-3.6-1.2-1.8-1.1-2.6.7-6 1.1-2.1 2.8-4.5 3.8-5.4.9-.9 1.1-1.2.4-.7-.8.5-1.6.6-2 .2-.3-.3-.2-.6.4-.6 1.1 0 3.8-5 3.4-6.4-.1-.5.5-.6 1.4-.2 1.2.4 1.4.2.6-1.1-.7-1.3-.4-2.2 1.1-3.5 1.3-1.1 1.6-1.8.8-1.8-1 0-.9-.5.3-1.8 1-1 1.4-2.2 1-2.5-1.2-1.3 1.3-.7 2.7.5.9.8.8.5-.1-.7-1.7-2.1-1.5-5 .4-3.8.6.4.8 0 .4-1-.8-2.1 1.2-6.7 2.9-6.7.7 0 1.3-.8 1.3-1.8-.1-3.6.9-5.7 2.5-5.6 1.2.2 1.4-.1.6-1-.5-.7-.6-1.6-.2-2 .4-.4.8-1.2.8-1.7.1-.5.2-1.3.3-1.9 0-.5.9-.6 1.9-.3 1.5.6 1.5.5.3-1-.9-1.2-1-1.7-.2-1.7.7 0 .9-.5.5-1.3-.5-.7 0-.6 1.1.3 1.7 1.4 1.8 1.4.5-.9-1-2-1-2.3.2-1.8.8.3 2.1.1 2.9-.5 1.1-.8 1.1-.9-.3-.4-1 .3-2 .1-2.3-.4-.4-.6-.1-1 .5-1s1-.6.9-1.3c-.2-2 1.2-5.7 2.3-5.7.5 0 .6.4.3 1-.4.6.1.7 1.1.3 1.3-.5 1.5-.3.9.7-.6.9-.4 1.1.5.5 1-.6.7-1.2-1.1-2.6-1.3-1-1.8-1.9-1.1-1.9s1-.4.7-1c-.3-.6.1-.7.9-.4.9.3 1.6.1 1.6-.5s-.5-1.1-1.1-1.1c-.5 0-.7-.5-.4-1 .4-.6 1.2-.7 1.8-.3.7.4.5-.2-.3-1.2s-1-1.6-.3-1.2c.6.4 1.4.3 1.8-.3.3-.5 0-1-.7-1-1 0-1-.2 0-.9.8-.4 1.3-1.2 1.1-1.7-.1-.5.5-1 1.4-1.2.9-.2 1.7.1 1.7.7s-.8.8-1.7.5c-1.4-.5-1.5-.4-.4.4s1.1 1 0 1.5c-1.1.4-1.1.6-.1.6.8.1 1 .6.5 1.3-.9 1.6-1.6 5.4-.7 4.6.3-.3.7-1.4.9-2.5.2-1 .4-1.9.5-2.1.3-.2.6-1.5.9-3 .1-.4.5-.3.9.3 1.7 2.3 4 3.6 4.7 2.5.4-.6.1-.9-.6-.8-.6.2-1.4-.3-1.7-1.1-.3-.8 0-1.1.7-.7.6.4.9.2.6-.6-.4-.9.7-1.4 3.5-1.5 2.2-.2 4 .1 4 .6s-1.3.7-3 .6c-2.7-.2-2.8-.1-1.8 1.9 1.5 3 2.2 3.4 1.4 1-.5-1.8-.2-2 2.8-1.9 1.9 0 3.8.4 4.2.8.4.4 1.3.2 2.1-.4.9-.9 1.3-.8 1.4 0 .3 2.6.4 3 1.1 3.6.4.4.5-.4.3-1.7-.3-1.7 0-2.5 1-2.5.8 0 1.5.5 1.5 1.1 0 .6.5.4 1-.4.9-1.3 1-1.3 1 0 0 1.2.2 1.2.9.2 1.1-1.7 2.1-1.7 3.3 0 .8 1 .9 1 .5-.2-.2-.8-1-1.4-1.6-1.2-.6.1-1.1-.2-1.1-.6 0-.4 2-.8 4.5-.9 2.5-.1 4.5.2 4.5.6 0 .5-1.3.7-3 .6-2.4-.2-2.8 0-2.1 1.4.5.9 1 2 1.1 2.6.1.5.3 1.2.5 1.4.2.2.2-.8 0-2.2-.5-2.5.6-3 3.2-1.4.6.4 1.5.3 1.8-.3.5-.8 1.1-.8 1.9-.1.7.6 1.7.7 2.1.3.5-.4.5.2.1 1.3-.6 1.6-.5 1.7.5.8 1-1 .9-1.5-.1-2.7-.7-.9-1.6-1.3-2.1-1-.5.3-.9 0-.9-.6 0-1.7 3.3-.7 5 1.5.8 1.1 1.4 2.3 1.2 2.7-.4 1.3 1.5.9 2.7-.6.9-1 .8-1.6-.3-2.6-.9-.6-2-.9-2.6-.5-.5.3-1 .1-1-.5 0-.5 1.3-.9 2.8-.8 1.5.1 3.3-.1 3.9-.5.6-.4 1.5-.2 1.9.4.4.7.3.9-.2.6-.6-.3-1.6-.1-2.4.4-1.1.7-.8.8 1 .5 1.7-.2 2.4-.9 2.2-2.1-.2-1 .1-1.4.7-1 .6.3 1.1-.1 1.1-.9 0-1 .9-1.6 2.3-1.6 1.8 0 1.9-.2.7-1-.9-.6-1.1-1-.3-1 .7 0 1-.7.6-1.7s-.2-1.4.5-.9c.6.3 1.4.2 1.7-.4.4-.6.1-.9-.6-.8-.8.2-1.3-.7-1.3-2.2-.1-1.4-.9-3.3-1.9-4.3-1-1-1.5-2.3-1.1-2.9.4-.6.3-.9-.2-.6-.5.3-2 .1-3.4-.4-1.4-.6-11.8-1-23.2-1-16.9-.1-20.8-.3-20.8-1.4 0-.8.5-1.4 1.1-1.4.5 0 .8.4.5.8-.2.4.4.9 1.5.9 1 .1 1.9-.3 1.9-.8 0-.6-.4-.8-.9-.5-.5.3-1.4-.1-2-.8-.8-1-.9-1.6-.1-2.1.6-.3.8-1 .5-1.5-.3-.4.2-1.3 1-2s1.2-1.6.9-2.1c-.3-.5.5-1 1.8-1 1.8-.1 1.9-.2.5-.6-1.8-.5-1.8-.5 0-2 1-.8 1.2-1.2.6-.8-.9.4-1 .1-.5-1.2.4-1 1.6-3.7 2.6-6.1 1.3-3.1 2.3-4.1 3.4-3.7 1.2.4 1.3.3.2-1-1.4-1.7 0-2.1 1.7-.4.8.8 1.3.8 1.8 0 .4-.7.1-1-.7-.9-.7.2-1.2-.3-1-1 .1-.8-.2-1.1-.9-.7-.7.5-.6-.1.2-1.6.7-1.3 1.2-2.7 1.1-3.2-.1-.4.3-.7.9-.7.5 0 .7-.5.4-1-.3-.6.4-1.4 1.7-1.9 1.3-.6 1.7-1 1.1-1-.7-.1-1.3-.6-1.3-1.2 0-.5.5-.7 1.2-.3.8.5.9.2.5-1-.5-1.4-.3-1.7.8-1.3.8.4 1.7.1 2.1-.5.4-.6.3-.8-.4-.4-.6.3-1.3.2-1.7-.4-.3-.5-.1-1 .5-1s.9-.4.5-1c-.5-.8 1.2-4.8 2.6-6 .4-.3.9-1.5 1.3-2.8.4-1.2 1.2-2.2 1.7-2.2.6 0 .7.6.3 1.2-.4.7-.3.9.1.5 1.2-1 1.5-3.8.4-3.1-.5.3-.9.1-.9-.5 0-.5.4-1.2.9-1.6.5-.3 1.2-1.8 1.6-3.4.3-1.6 1.3-3.5 2.1-4.1.7-.7 1.1-1.6.8-2.1-.3-.5.5-.9 1.8-1 2.2 0 2.2-.1.3-.9-1.8-.7-1.9-.8-.2-1.5.9-.4 1.7-1.1 1.7-1.7 0-.5-.6-.6-1.2-.2-.9.5-.9.2.1-.9 1.5-1.8 2.6-2.3 1.6-.7-1 1.6.1 1.1 1.6-.7.8-1 .9-1.4.2-1-.6.4-1.4.3-1.8-.3-.6-.9.7-1.4 3-1.1.6.1.1-.6-.9-1.4-1.1-.8-1.4-1.5-.8-1.5.7 0 1.2-.7 1.2-1.5s.5-1.5 1.1-1.5c.5 0 .7-.5.4-1-.3-.6-.1-1 .5-1s.8-.5.5-1c-.3-.6-.1-1 .5-1s1-.6.9-1.3c-.2-2 1.2-5.7 2.3-5.7.5 0 .6-.5.3-1-.3-.6-.1-1 .5-1s.8-.5.4-1.1c-.4-.7.3-.6 1.7.2 1.3.7 2.8 1.2 3.3 1.1.5-.2.6.4.3 1.3-.4.8-.2 1.5.3 1.5 1.3 0 1.3-1.6-.1-4.2-.8-1.5-.8-1.9.1-1.6.6.2 1.1.8 1.1 1.3 0 .6.8 1.8 1.6 2.7.9 1 1.3 1.8.9 1.8s0 1 .8 2.1c1.5 2.3 1.1 5.3-.7 4.2-.6-.3-.7-.1-.3.6.6.9 1.1.9 2.2 0s1.4-.7 1.4 1c0 1.1.5 2.1 1.1 2.1.8 0 .7.6-.2 1.7-.7 1-1 1.5-.5 1.1 1.7-1.4 4.3 2.6 4.5 7 .1.8.6 1 1.4.6.6-.4.9-.4.5.1-.4.4.2 2.4 1.4 4.3 1.2 2 1.6 3.2 1 2.8-.7-.4-1.2-.3-1.2.2 0 .6.7 1.3 1.6 1.6 1.3.5 1.4.9.4 2.1-1.1 1.3-1 1.4.2 1 .9-.4 1.9.4 2.6 2 .7 1.5.8 2.4.2 2-.5-.3-1-.1-1 .4 0 .6.8 1.1 1.8 1.1 1.5.1 1.5.2-.3 1.6-2 1.6-2 1.6.1 1 1.4-.4 2.4-.2 2.7.8.4 1.1.1 1.3-1 .9s-1.4-.2-.9.5c.4.7 1.4 1.2 2.1 1.2.9 0 1.2.6.8 1.7-.4.9-.2 1.4.3 1 .5-.3 1.5.6 2.1 2.1 1.3 3.4 2.2 6.1 2.2 6.7 0 .3.7 1.2 1.5 2.1.8.8 1.3 2.1 1 2.9-.4.9 0 1.5.7 1.5 1.1 0 1.1.3-.1 1-1.3.8-1.3 1 .2 1 2.3 0 3.4 2 1.7 3.1-1.1.7-1 .9.5.9 1.1 0 1.7.3 1.3.6-.3.4 0 1.3.8 2.1s1.8 2.6 2.1 4.1c.4 1.5 1.2 3.4 1.9 4.2.7.8 1.1 2.8.9 4.3-.2 2.5-.1 2.7 1.3 1.5 1.5-1.1 1.6-1.1 1 .4-.4 1.1-.2 1.8.5 1.8.6 0 .8.3.5.7-.4.3-.2 1.2.5 2 .9 1.1.7 1.2-.7.7-1.3-.5-1.6-.4-1.1.4.4.7 1.3 1.2 2 1.2s1.8 1.2 2.4 2.6c.7 1.4.8 2.3.2 1.9-.5-.3-1-.1-1 .4 0 .6.8 1.1 1.8 1.1 1.5.1 1.5.2-.3 1.6-2 1.6-2 1.6.1 1 2.5-.8 3.9 1.5 2.1 3.3-.9.9-.8 1 .7.5 1.3-.5 1.7-.4 1.2.4-.3.6-.2 1.3.3 1.6.5.3.7 1.5.4 2.6-.3 1.1-1 1.7-1.5 1.4-.5-.3-.8 0-.7.7.5 2.3-1.1 5.8-2.4 5.5-.7-.1-.9-.1-.4.1.4.3.7 1.1.7 1.9 0 .9-.5 1.2-1.2.8-.6-.4-.8-.3-.4.4.7 1.1-1.3 6.2-2.4 6.2-.5 0-.7.8-.6 1.7 0 1-.5 1.7-1.2 1.5-.8-.1-1.1.2-.7.8.4.6.2 1.6-.3 2.3-.6.7-1 1.4-.9 1.7.4 1.2-5.5 13-6.3 12.5-.5-.3-1.2 0-1.6.6-.4.8-.3.9.4.5 2.1-1.3 1.3 2.3-1 4.5-1.3 1.2-1.7 1.9-1.1 1.5.9-.5 1.1-.2.5 1.1-2.1 5-4.7 9.3-5.4 9.3-.5 0-.7.4-.3.9.5.9-1.3 6.1-2.6 7.1-.3.3-1.2 2.2-1.8 4.2-.7 2.1-1.7 3.8-2.2 3.8-.6 0-.8.4-.4.9.3.5-.2 1.6-1 2.5-.9.8-1.6 1.8-1.5 2.1.1 2.1-.1 2.5-1.2 1.9-.7-.4-.8-.3-.4.5.4.6-.4 3.5-1.9 6.5-1.4 2.9-2.7 6.3-2.8 7.5-.1 1.1-.5 2.1-.9 2.1s.3 1.8 1.4 4c1.2 2.2 2.5 4 2.8 4 .3 0 1.5.7 2.6 1.6 1 .8 1.2 1.2.4.8-1.3-.6-1.3-.5-.1.7 1 1.1 1.5 1.1 1.8.1.3-.6.9-1.2 1.4-1.2.6 0 .7.4.4 1-.3.5-.2 1 .4 1 .5 0 1.3-.5 1.6-1 .3-.5 1.1-1 1.8-1 .8 0 .8.3-.1 1.2-1.5 1.5-1.6 2.8-.2 2.8.6 0 .9-.4.8-.9-.5-1.4 4.1-7.1 5.7-7.1.8 0 1.5-.5 1.5-1.1 0-.5-.5-.7-1-.4-.6.3-.1-1 1.1-2.9 1.2-2 2.5-3.4 2.9-3.1.5.3 1.2 0 1.6-.6.4-.7.3-.9-.3-.6-.6.4-1.4 0-1.7-.9-.4-1.2-.2-1.5.9-1.1.8.4 1.7.1 2.1-.5.5-.7.2-.8-.6-.3-1 .6-1.2.4-.7-.9.4-1 .7-2.3.7-2.9 0-.7.5-.6 1.1.3.9 1.2 1 1.1.6-.7-.3-1.2.1-3 .9-4 .7-1 1.4-2.6 1.4-3.6 0-.9.5-1.7 1.1-1.7.5 0 .7-.5.3-1.2-.5-.8-.2-.9 1.1-.4 1.5.5 1.6.4.6-.8-.9-1.1-.8-1.7.4-3 .9-.8 1.6-1.8 1.5-2.1-.1-1.7.1-1.8 1-.5.7 1.1.8.6.4-1.8-.4-2.1-.3-3.2.5-3.2.7 0 .9.5.5 1.2-.4.6-.3.8.3.5.6-.4.8-1.9.5-3.3-.4-2.3-.2-2.6 1.3-2 1.5.5 1.6.4.6-.8-1-1.1-.9-1.9.1-3.5.7-1.2 1.6-2.1 2.1-2.1.4 0 .5-.6.1-1.3-.5-.7 0-.6 1.1.3 1.7 1.4 1.7 1.4.7-.5-1.2-2.4 1.2-8.5 4.4-11.1 1.5-1.3 1.6-1.5.2-1-1.2.3-1.5.1-1.1-.9.3-.8.9-1.2 1.5-.9.5.3.8 0 .7-.7-.4-2 1.1-5.9 2.2-5.9.5 0 .3 1-.6 2.3-1.3 2-1.3 2.4-.1 2.4.8 0 1.2-.6.9-1.3-.3-.8.5-1.1 2.6-1 2.6.2 2.8 0 1.9-1.7-.5-1-.7-2.1-.4-2.4.3-.3 1 .7 1.6 2.3.6 1.6 1 3 .8 3.2-.2.2.5.8 1.5 1.3.9.6 1.7 1.5 1.7 2.2 0 .7-.4.6-1-.3-.6-.9-1.2-1.1-1.7-.5-.5.6-.7.9-.5.8.7-.3 4.9 4.2 4.6 4.8-.2.4.3 1.2 1.1 1.9.7.6 1.1 1.8.8 2.6-.3.8 0 1.4.6 1.4.9 0 .9.6 0 2.2-1.1 2.1-1.1 2.2.4.9 1.5-1.2 1.7-1.1 1.7.7 0 1.1-.5 2.2-1.2 2.4-.7.3-.5.7.6 1.1 1 .4 1.5.3 1.1-.3-.3-.6-.2-1 .3-1s1.2.9 1.5 1.9c.3 1.4 0 1.8-1.2 1.5-.9-.3-.6.1.6.7 2 1 4.8 6.2 4.4 8.1 0 .5.3.8.9.8.5 0 1 .4 1 1 0 .5-.7.7-1.5.4-.8-.4-1.5-.1-1.5.5s.3 1 .8 1c1.9-.3 3.3.2 2.7 1.1-.3.5-.2 1 .3 1 .6 0 1.3.7 1.6 1.6.5 1.4.4 1.5-.9.4s-1.4-1-.9.4c.3.9 1.3 1.6 2.1 1.6 1.3 0 1.3.3.3 1.5-1.1 1.3-1 1.4.5.9 1.3-.5 1.6-.4 1.1.4-.4.7-.3 1.2.3 1.2 1.1 0 2.6 3.9 2.2 5.9-.1.8.2 1 1 .5.9-.5 1-.2.6.9-.3 1-.2 1.7.4 1.7.6 0 .6.7-.1 1.9-1.3 2.6-1.2 4.1.1 1.8 1-1.7 1.2-1.7 2.5.9.8 1.5 1.2 2.9.9 3.2-.2.3.3 1.1 1.3 1.9 1 .9 1.1 1.2.2.7-.8-.4-.1.6 1.5 2.2 2 1.9 4 2.9 5.8 2.8 1.9-.1 2.5.2 1.7 1-.5.5-1 1.4-1 2 0 .5.9-.1 2-1.4 1.1-1.3 2-1.8 2-1.2 0 .7.5 1.2 1.1 1.2.5 0 .8-.4.5-.9-.3-.5.1-1.4.8-2 1.1-.9 1.6-.9 2.2 0 .5.8.3.9-.6.4-.9-.6-1.1-.4-.5.5.6.9.4 1.1-.5.5-.9-.5-1.1-.4-.6.4.6.9 1.1.9 2.2 0 .8-.6 1.2-1.4 1-1.7-.3-.2-.1-1.3.5-2.4.9-1.6 1.3-1.7 2.7-.6 1.6 1.2 1.6 1.1 0-.7-1.1-1.3-1.4-2.5-.8-3.4.4-.8.6-2.6.3-4s-.6-3.4-.7-4.3c0-.9-.5-1.6-1.1-1.5-.5.1-1-.8-.9-2 0-1.2-.3-2-.7-1.8-1 .7-2-2.5-1.2-3.7.3-.7.1-.8-.5-.4-1.1.6-1.6-.6-1.3-2.7 0-.4-.3-.7-.9-.7-.5 0-1-.9-1-2s-.4-2-1-2c-.5 0-1-.7-1-1.6 0-1.4.2-1.5 1.7-.3 1.5 1.3 1.5 1.2.2-.8-.9-1.5-1.6-1.9-2.1-1-.5.8-.9.5-1.4-.8-.3-1.1-1.7-4.4-3.1-7.2-1.3-2.9-2.1-5.8-1.7-6.4.4-.7.3-.9-.3-.6-1.1.7-5.3-7.8-5.3-10.6 0-.9-.4-1.7-.9-1.7-1.2 0-6.3-11.8-5.6-13 .4-.6.1-.9-.7-.8-.7.2-1.3-.4-1.3-1.2 0-.8-.6-2.1-1.3-2.9-.7-.7-1.1-2-.8-2.8.3-.8.1-1.1-.4-.8-.9.6-1.4-.8-1.1-2.8 0-.4-.2-.7-.7-.7-.4 0-1.3-1.4-2.1-3.1-1.2-2.7-1.2-3.3 0-4.1 1.1-.8 1.1-.9-.2-.5-1.1.4-2.1-.3-2.8-2-1-2.2-.9-2.5.4-2 .8.4 1.5.2 1.5-.3 0-.6-.9-1-1.9-1-2.5 0-3.2-4.4-1.4-8.3 1.7-3.4 2.3-3.5 1.7-.2-.2 1.4 0 2.5.4 2.5 1 0 1-4.6 0-5.5-1.1-1.1.3-3.5 2.1-3.5 1.4 0 1.4-.2.1-1-1.4-.9-1.3-1.1.9-1.4.5 0 1.3-.5 1.8-1s.3-.6-.4-.2c-1.7.9-1.7-1.6-.1-3.2.7-.7.8-1.2.3-1.2-.4 0-.1-.8.8-1.8 1.5-1.7 1.7-2.1 1.7-4.3 0-.8.6-.7 1.7.2 1.5 1.3 1.5 1.2.4-.9-1-1.8-.9-2.2.4-2.2.8 0 1.5-.5 1.5-1.1 0-.5-.5-.7-1.1-.3-.7.4-.6-.3.2-1.7.7-1.3 1.4-3 1.5-3.8.2-.7.8-1.9 1.5-2.5.9-.8 1-.8.5.1-.4.7-.3 1.3.2 1.3s1.2-.9 1.5-2c.3-1.1.1-1.8-.4-1.4-1.5.9-1-1.3.6-2.9.8-.8 1.1-1.8.7-2.2-.4-.5.2-.5 1.2-.1 1.7.6 1.7.5.5-1.1-1.2-1.5-1.2-1.6.5-1 1.7.7 1.7.6.5-1-1.2-1.5-1.2-1.6.5-1 1.7.7 1.7.6.5-1-1.3-1.5-1.2-1.6.6-.9 1.5.5 1.7.4.9-.4-1.3-1.3.3-7 1.9-7 .4 0 .5.4.2 1-.3.5-.1 1 .4 1 1.4 0 1.4-1.7.1-2.5-.7-.4-.6-1.4.2-2.8.7-1.2 1.1-2.5 1-2.9-.1-.3.6-1.2 1.5-2 1.4-1.1 1.6-1.1.8.1-.6 1-.4 1.2.4.6.9-.5.9-1.1.3-1.7-1.4-1.4-.4-3.8 1.7-3.8 1.4 0 1.4-.2.1-1-1.4-.9-1.3-1.1.9-1.4.5 0 1.3-.5 1.8-.9.4-.5.3-.8-.2-.7-2 .4-3-.1-1.7-.9.7-.4 1.4-2.1 1.6-3.7.1-1.6.6-3.5 1-4.3.6-.9.5-1.2-.1-.8-.5.3-1.8-1-2.8-2.9-1-1.9-2.9-3.7-4.2-4-1.3-.4-2.3-1.1-2.3-1.8s-.3-.7-.8-.1c-.4.5-1.6 1.1-2.7 1.3-1.1.1-2.8.3-3.7.4-.9.1-1.5.5-1.3.8.2.4-.5 1.3-1.6 2-1 .8-1.9 1.9-1.9 2.5 0 1.8-6.8 14.7-8.2 15.6-.8.6-.9.9-.1.9.7 0 .2 1.8-1.4 4.5-1.3 2.5-2.2 4.5-1.8 4.5.3 0-.3 1.3-1.4 2.9-1.1 1.5-1.8 3.1-1.4 3.5.3.3-.1.6-1.1.6-.9 0-1.5.4-1.2.9.9 1.4-.5 4.2-1.7 3.4-.6-.3-.7-.1-.3.5.9 1.5-2.8 9.5-3.9 8.5-.4-.5-.5-.2-.1.5.9 1.6-.3 5.4-1.5 4.7-.5-.3-.6.1-.3.9.3.9.1 1.6-.5 1.6s-1 .6-.8 1.2c.1.8-.6 1.2-1.8 1-1.2-.2-1.6 0-.9.5 1.1.8 1.5 4.3.5 4.3-.6 0-2.3-3.7-2.9-6.2-.1-.5-1.1-2.4-2.2-4.4-1.1-1.9-1.7-4.1-1.4-4.7.4-.7.3-.9-.1-.4-1.1 1-5.6-8.4-4.9-10.3.3-.8.2-1.1-.2-.7-.4.4-1.6-1-2.5-3-2.1-4.5-2.3-5.7-.7-4.7.7.4.8.3.4-.5-.4-.6-1.1-.9-1.5-.6-.9.5-7.4-13-7.4-15.3 0-.6-.3-1.2-.7-1.2-1.2 0-3-4.9-2.4-6.7.4-1.3.3-1.4-.3-.6-.7.9-1.4.1-2.7-3-.9-2.3-2.4-5.4-3.2-7-.8-1.5-1.2-2.7-.7-2.7.4 0 .2-.4-.5-.9-.7-.4-1.4-1.4-1.5-2.2-.2-.8-.6-2-1-2.7-.5-.6-.5-1.7-.1-2.4s.3-.8-.4-.4c-1.1.6-1.6-.6-1.3-2.7 0-.4-.3-.7-.7-.7-.5 0-2.2-3-3.7-6.8-1.6-3.7-3.3-6.9-3.7-7-.4-.2-.8-1-.8-1.8s-1.1-3.7-2.5-6.5c-1.4-2.7-2.3-5.5-1.9-6.1.4-.7.3-.8-.4-.4s-1.2.1-1.2-.8-.4-1.6-1-1.6c-.5 0-1-.5-1-1.1 0-.5.6-.7 1.3-.4.6.4.4 0-.7-.9-1-.8-1.5-1.9-1.2-2.4.3-.6-.1-1.3-1-1.6-.8-.3-1.3-1-.9-1.5.7-1.3-4.2-5.8-7.5-6.9-1.4-.5-3.7-.5-5.2-.1zm3.7 38.5c.9 1.5 1.3 2.4.9 2.1-.5-.3-1.4.1-2.1.8-1 1.1-1 1.4 0 1.8.7.2.9.7.6 1.1-.3.3-1.3-.2-2.3-1.3-1.4-1.6-1.5-2.1-.3-3.2.7-.8 1.2-2 .9-2.7-.6-2 .5-1.3 2.3 1.4zM201 292c0 .5-.4 1-1 1-.5 0-1-.5-1-1 0-.6.5-1 1-1 .6 0 1 .4 1 1zm21-.1c0 .5-1.4.7-3 .6-1.7-.1-3.3.1-3.6.6-.3.5-1 .7-1.5.4-2-1.3-.7-2.1 3.6-2.2 2.5-.1 4.5.2 4.5.6zm13.1 1.4c-1 .9-1.1.8-.5-.6.3-1 .9-1.5 1.2-1.2.3.3 0 1.1-.7 1.8zm10.4.7c.3.5.2 1-.4 1-.5 0-1.3-.5-1.6-1-.3-.6-.2-1 .4-1 .5 0 1.3.4 1.6 1zm80 16c-.4.6-1 .8-1.5.5-.5-.3-1.2 0-1.6.6-.4.7-.3.9.3.6.6-.4 1.3-.1 1.6.7.3.8-.1 1.7-.9 2-.8.3-1.2.2-.9-.3.3-.5.1-1.2-.4-1.6-1.6-.9-.1-3.5 2.1-3.5 1 0 1.6.5 1.3 1zm-175.9 77.2c.5.8.2.9-.9.5-.9-.3-1.9-.2-2.2.4-.4.5-1.1.7-1.6.3-.5-.3-1.6 0-2.4.6-1.2 1-1.5.9-1.5-.3 0-1 .8-1.4 2.5-1.2 1.4.1 2.8-.2 3.1-.6.7-1.3 2.2-1.1 3 .3z"/><path d="M254.9 165.7c-1.3 1.6-1.2 1.7.4.4.9-.7 1.7-1.5 1.7-1.7 0-.8-.8-.3-2.1 1.3zM283.5 164.9c-.3.5-.2 1.2.3 1.5.5.3.9-.1.9-.9 0-1.7-.3-1.9-1.2-.6zM253 172c0 .5.5 1 1 1 .6 0 1-.5 1-1 0-.6-.4-1-1-1-.5 0-1 .4-1 1zM251.5 173.7c.3.3-.3 1.1-1.2 1.8-1.3.9-1.3 1.4-.3 2 .9.6 1.1.4.5-.5-.6-1-.4-1.2.7-.7 1.6.6 2-1.7.5-2.8-.4-.3-.5-.2-.2.2zM259.9 176.7c-1.3 1.6-1.2 1.7.4.4 1.6-1.3 2.1-2.1 1.3-2.1-.2 0-1 .8-1.7 1.7zM246.5 185.1c-.4.6-.5 1.2-.2 1.5.2.3.7-.2 1-1.1.7-1.7.1-2-.8-.4zM266.8 188.7c.6.2.9 1 .6 1.5-.4.7-.2.8.5.4 1.3-.9.5-2.6-1.2-2.5-.9 0-.8.2.1.6zM269.6 196.3c.3 1 .9 1.5 1.2 1.2.3-.3 0-1.1-.7-1.8-1-.9-1.1-.8-.5.6zM237.9 201.5c-.1.3-.2.8-.3 1.2-.1.5-.5 1.5-1.1 2.3-.8 1.3-.7 1.3.8.1.9-.7 1.4-1.8 1-2.4-.4-.6 0-.8 1.1-.4 1 .4 1.5.3 1.1-.3-.6-1-2.4-1.4-2.6-.5zM235.5 208c-.3.5-.1 1 .4 1 .6 0 1.1-.5 1.1-1 0-.6-.2-1-.4-1-.3 0-.8.4-1.1 1zM274.6 208.2c.3.5 1 .6 1.5.3 1.3-.9 1.1-1.2-.6-1.2-.8 0-1.2.4-.9.9zM369 212c0 .5.5 1 1 1 .6 0 1-.5 1-1 0-.6-.4-1-1-1-.5 0-1 .4-1 1zM365.3 220.5c0 .8.4 1.2.9.9.5-.3.6-1 .3-1.5-.9-1.3-1.2-1.1-1.2.6zM228.5 221c-.3.6.1.7.9.4 1.8-.7 2.1-1.4.7-1.4-.6 0-1.3.4-1.6 1zM282 221.8c0 .7.5 1.2 1.1 1.2.5 0 .8.4.4.9-.3.5-.1 1.2.4 1.5 1.3.8.7-2.2-.7-3.6-.9-.9-1.2-.9-1.2 0zM227.9 228.7c-1.3 1.6-1.2 1.7.4.4.9-.7 1.7-1.5 1.7-1.7 0-.8-.8-.3-2.1 1.3zM285.3 228.5c0 .8.4 1.2.9.9.5-.3.6-1 .3-1.5-.9-1.3-1.2-1.1-1.2.6zM286 231.4c0 .2.7.7 1.6 1 .8.3 1.2.2.9-.4-.6-1-2.5-1.4-2.5-.6zM222.2 236c-.9 1.4-.9 2.1 0 2.6.6.4.8.3.4-.4-.3-.6.1-1.5 1-2s1.2-1.2.7-1.5c-.5-.3-1.4.3-2.1 1.3zM287.6 239.8c-.3.5.1.9.9.9s1.2-.4.9-.9c-.3-.4-.7-.8-.9-.8-.2 0-.6.4-.9.8zM356.6 240.5c.4.8.8 1.5 1 1.5.2 0 .4-.7.4-1.5s-.4-1.5-1-1.5c-.5 0-.7.7-.4 1.5zM293.6 245.9c-.3.5.1 1.4.9 2.1 1 .9 1.5.9 1.5.1 0-.6-.5-1.1-1.1-1.1-.5 0-.7-.5-.4-1 .3-.6.4-1 .1-1-.3 0-.7.4-1 .9zM216 248c0 .4.7.7 1.5.6 2.3-.3 2.6-1.2.5-1.3-1.1-.1-2 .2-2 .7zM214.4 251.1c-.3.6.1 1.7 1 2.5s1.1.9.6.2c-1.4-1.6-1.3-3.1.2-2.2.7.4.8.3.4-.4-.9-1.5-1.3-1.5-2.2-.1zM291 252.1c0 .5.5.7 1 .4.6-.3 1-.8 1-1.1 0-.2-.4-.4-1-.4-.5 0-1 .5-1 1.1zM297 253c0 .5.5 1 1.1 1 .5 0 .7-.5.4-1-.3-.6-.8-1-1.1-1-.2 0-.4.4-.4 1zM346.4 260.5c-1.8 1.5-1.8 1.5 0 .8 1.5-.5 1.7-.3 1.1.8-.5.8-.4 1.1 0 .6.8-.7 1.7-3.7 1.1-3.7-.1 0-1.1.7-2.2 1.5zM209.5 261.9c-.3.5-.2 1.2.3 1.5.5.3.9-.1.9-.9 0-1.7-.3-1.9-1.2-.6zM213 261.4c0 .2.7.7 1.6 1 .8.3 1.2.2.9-.4-.6-1-2.5-1.4-2.5-.6zM344.5 264c-.3.5-.1 1 .4 1 .6 0 1.1-.5 1.1-1 0-.6-.2-1-.4-1-.3 0-.8.4-1.1 1zM341 272c0 .5.5 1 1 1 .6 0 1-.5 1-1 0-.6-.4-1-1-1-.5 0-1 .4-1 1zM306 276c-.8.5-1 1-.5 1 .6 0 1.7-.5 2.5-1s1.1-1 .5-1c-.5 0-1.7.5-2.5 1zM308.6 279.8c-.3.5.1.9.9.9s1.2-.4.9-.9c-.3-.4-.7-.8-.9-.8-.2 0-.6.4-.9.8zM255.5 291c-.4.6-1.1.7-1.7.4-.7-.4-.8-.2-.4.5.6.9 1.1.9 2.2 0 1.4-1.1 1.8-1.9 1-1.9-.3 0-.8.5-1.1 1zM209 296.1c0 .5.5.7 1 .4.6-.3 1-.8 1-1.1 0-.2-.4-.4-1-.4-.5 0-1 .5-1 1.1zM295.6 310.2c.3.5 1 .6 1.5.3 1.3-.9 1.1-1.2-.6-1.2-.8 0-1.2.4-.9.9zM293.3 315.1c-.2 2.3.3 2.5 1 .4.4-.8.3-1.6-.1-1.9-.4-.3-.9.4-.9 1.5zM323 318c0 .5.9.8 2 .7 2.1-.1 1.8-1-.5-1.3-.8-.1-1.5.2-1.5.6zM181.5 323c.3.4 1.4 1 2.5 1.3 1.1.3 1.8.2 1.5-.3-.3-.4-1.4-1-2.5-1.3-1.1-.3-1.8-.2-1.5.3zM327.6 323.3c.3 1 .9 1.5 1.2 1.2.3-.3 0-1.1-.7-1.8-1-.9-1.1-.8-.5.6zM318 324c-.9.6-1 1-.3 1 .6 0 1.5-.5 1.8-1 .8-1.2.4-1.2-1.5 0zM315.4 327.1c-.3.6-.2 1.5.3 2s.9.1.9-1.1c0-2.3-.2-2.4-1.2-.9zM287 328c0 .5.5 1 1.1 1 .5 0 .7-.5.4-1-.3-.6-.8-1-1.1-1-.2 0-.4.4-.4 1zM331.4 329.3c.2 1.5.6 2.9.9 3.2.4.3.5.2.2-.1-.2-.4 0-1.6.6-2.7.7-1.2.7-1.7.1-1.3-.6.3-1.2 0-1.5-.6-.3-.7-.4-.1-.3 1.5zM179.4 330.4c-1 .8-1.7 1.6-1.4 1.9.3.2 1.4-.4 2.4-1.4 2.3-2.2 1.8-2.5-1-.5zM174 338.1c-.7 1.1-.9 2.3-.7 2.6.3.2.8-.5 1.2-1.6.3-1.2 1.1-1.8 1.7-1.5.7.4.8.2.4-.4-1-1.6-1.4-1.5-2.6.9zM310 337.5c-.7.8-.9 1.5-.6 1.5.4 0 1.4-.7 2.2-1.5.9-.8 1.1-1.5.6-1.5-.5 0-1.5.7-2.2 1.5zM337.1 343.3c.2.1 1.3.9 2.4 1.7 1.9 1.4 1.9 1.4.6-.3-.7-.9-1.8-1.7-2.4-1.7-.6 0-.8.1-.6.3zM341.3 348.5c0 .8.4 1.2.9.9.5-.3.6-1 .3-1.5-.9-1.3-1.2-1.1-1.2.6zM307.5 348.9c-.3.5-.2 1.2.3 1.5.5.3.9-.1.9-.9 0-1.7-.3-1.9-1.2-.6zM169.6 350.2c.3.4 1.1.5 1.9.1 2.1-.7 1.9-1.2-.4-1-1.1 0-1.8.5-1.5.9zM167.6 356.2c.3.5 1 .6 1.5.3 1.3-.9 1.1-1.2-.6-1.2-.8 0-1.2.4-.9.9zM137 358c0 .5.5 1 1.1 1 .5 0 .7-.5.4-1-.3-.6-.8-1-1.1-1-.2 0-.4.4-.4 1zM301.1 358.9c-.8.5-.9 1.1-.3 1.5.5.3 1.2-.1 1.6-.9.6-1.7.6-1.8-1.3-.6zM165.5 360.1c-.4.6-.5 1.2-.2 1.5.2.3.7-.2 1-1.1.7-1.7.1-2-.8-.4zM299 364.1c0 .5.5.7 1 .4.6-.3 1-.8 1-1.1 0-.2-.4-.4-1-.4-.5 0-1 .5-1 1.1zM349.5 366.1c.5 2.7 1.1 3.3 2 2 .3-.6.1-1.1-.5-1.1s-.9-.4-.5-.9c.3-.5.1-1.2-.4-1.6-.6-.3-.8.4-.6 1.6zM159.6 369.7c-1.4 1.9-1.5 2.7-.7 3.6.9.9 1 .7.5-.7-.6-1.5-.4-1.7.7-1.1.8.4 1.1.5.7 0-.4-.4-.3-1.4.4-2.2.6-.7.9-1.5.7-1.7-.2-.2-1.2.7-2.3 2.1zM163.3 368.5c0 .8.4 1.2.9.9.5-.3.6-1 .3-1.5-.9-1.3-1.2-1.1-1.2.6zM297.1 371.6c0 1.1.3 1.4.6.6.3-.7.2-1.6-.1-1.9-.3-.4-.6.2-.5 1.3zM291.5 379.1c-.4 1.2-.3 2.5.2 2.9.4.5.8-.4.9-2.1.1-3.4-.2-3.7-1.1-.8zM355 378c0 .5.5 1 1.1 1 .5 0 .7-.5.4-1-.3-.6-.8-1-1.1-1-.2 0-.4.4-.4 1zM131 380.4c0 .2.8 1 1.8 1.7 1.5 1.3 1.6 1.2.3-.4s-2.1-2.1-2.1-1.3zM155.3 383.1c-.2 2.3.3 2.5 1 .4.4-.8.3-1.6-.1-1.9-.4-.3-.9.4-.9 1.5zM152.1 383.3c-.8 1-.7 1.4.2 1.4.8 0 1.4-.6 1.4-1.4 0-.7-.1-1.3-.2-1.3-.2 0-.8.6-1.4 1.3zM285.9 385.7c-.8.9-.9 1.4-.2 1 .6-.4 1.3-.1 1.6.5.3.7.4.3.4-1-.1-2.6-.1-2.6-1.8-.5zM357.4 386.2c-.4.7-.3.8.4.4s1.2-.3 1.2.2c0 .6.7 1.2 1.4 1.5 1 .4 1.3.1 1-.8-.7-1.8-3.2-2.7-4-1.3zM152.6 387.7c-.6 1.4-.5 1.5.5.6.7-.7 1-1.5.7-1.8-.3-.3-.9.2-1.2 1.2zM270.7 387.4c-.4 1-.1 1.3.9.9 1.5-.6 1.9-2.3.5-2.3-.5 0-1.1.7-1.4 1.4zM137.5 388c-.3.5-.1 1 .4 1 .6 0 1.1-.5 1.1-1 0-.6-.2-1-.4-1-.3 0-.8.4-1.1 1zM364.1 388.9c-.8.5-.9 1.1-.3 1.5.5.3 1.2-.1 1.6-.9.6-1.7.6-1.8-1.3-.6zM277.1 391.6c0 1.1.3 1.4.6.6.3-.7.2-1.6-.1-1.9-.3-.4-.6.2-.5 1.3z"/></svg>