<svg xmlns="http://www.w3.org/2000/svg" xmlns:xlink="http://www.w3.org/1999/xlink" viewBox="0 0 1024 1024"><defs><pattern id="a" width="318.44" height="272.44" patternTransform="translate(-193.56 -239.56)" patternUnits="userSpaceOnUse" viewBox="0 0 318.44 272.44"><rect width="318.44" height="272.44" style="fill:none"/><path d="M316.87,259.79l-8.46,4.88a3.7,3.7,0,0,0-1.67,2.89v4.88h8.86a3.77,3.77,0,0,0,1.37-2.68V260a1.94,1.94,0,0,0,0-.24Z" style="fill:#191919"/><path d="M290.34,259.79l-8.47,4.88a3.71,3.71,0,0,0-1.66,2.89v4.88h8.85a3.73,3.73,0,0,0,1.37-2.68V260c0-.08,0-.16,0-.24Z" style="fill:#191919"/><path d="M303.61,237.08,295.14,242a3.68,3.68,0,0,0-1.66,2.88v9.78a1.93,1.93,0,0,0,0,.24.2.2,0,0,1,.08,0l8.46-4.89a3.68,3.68,0,0,0,1.67-2.88v-9.78a2,2,0,0,0,0-.23Z" style="fill:#191919"/><path d="M277.07,237.08,268.6,242a3.71,3.71,0,0,0-1.66,2.88v9.78a1.93,1.93,0,0,0,0,.24l.08,0,8.47-4.89a3.7,3.7,0,0,0,1.66-2.88v-9.78a1.85,1.85,0,0,0,0-.23Z" style="fill:#191919"/><path d="M263.8,259.79l-8.47,4.88a3.71,3.71,0,0,0-1.66,2.89v4.88h8.85a3.73,3.73,0,0,0,1.37-2.68V260a1.93,1.93,0,0,0,0-.24Z" style="fill:#191919"/><path d="M237.26,259.79l-8.46,4.88a3.7,3.7,0,0,0-1.67,2.89v4.88H236a3.77,3.77,0,0,0,1.37-2.68V260a1.94,1.94,0,0,0,0-.24Z" style="fill:#191919"/><path d="M250.53,237.08,242.07,242a3.69,3.69,0,0,0-1.67,2.88v9.78a1.94,1.94,0,0,0,0,.24l.07,0,8.47-4.89a3.67,3.67,0,0,0,1.66-2.88v-9.78a1.85,1.85,0,0,0,0-.23Z" style="fill:#191919"/><path d="M224,237.08,215.53,242a3.68,3.68,0,0,0-1.66,2.88v9.78a1.93,1.93,0,0,0,0,.24.2.2,0,0,1,.08,0l8.46-4.89a3.68,3.68,0,0,0,1.67-2.88v-9.78a2,2,0,0,0,0-.23Z" style="fill:#191919"/><path d="M210.73,259.79l-8.47,4.88a3.71,3.71,0,0,0-1.66,2.89v4.88h8.85a3.73,3.73,0,0,0,1.37-2.68V260c0-.08,0-.16,0-.24A.2.2,0,0,0,210.73,259.79Z" style="fill:#191919"/><path d="M184.19,259.79l-8.47,4.88a3.71,3.71,0,0,0-1.66,2.89v4.88h8.85a3.73,3.73,0,0,0,1.37-2.68V260a1.93,1.93,0,0,0,0-.24Z" style="fill:#191919"/><path d="M197.46,237.08,189,242a3.71,3.71,0,0,0-1.66,2.88v9.78a1.93,1.93,0,0,0,0,.24l.08,0,8.47-4.89a3.7,3.7,0,0,0,1.66-2.88v-9.78a1.85,1.85,0,0,0,0-.23Z" style="fill:#191919"/><path d="M170.92,237.08,162.46,242a3.69,3.69,0,0,0-1.67,2.88v9.78a1.94,1.94,0,0,0,0,.24l.07,0,8.47-4.89a3.67,3.67,0,0,0,1.66-2.88v-9.78a1.85,1.85,0,0,0,0-.23Z" style="fill:#191919"/><path d="M157.65,259.79l-8.46,4.88a3.7,3.7,0,0,0-1.67,2.89v4.88h8.86a3.77,3.77,0,0,0,1.37-2.68V260a1.94,1.94,0,0,0,0-.24Z" style="fill:#191919"/><path d="M131.12,259.79l-8.47,4.88a3.71,3.71,0,0,0-1.66,2.89v4.88h8.85a3.73,3.73,0,0,0,1.37-2.68V260c0-.08,0-.16,0-.24A.2.2,0,0,0,131.12,259.79Z" style="fill:#191919"/><path d="M144.39,237.08,135.92,242a3.68,3.68,0,0,0-1.66,2.88v9.78a1.93,1.93,0,0,0,0,.24.2.2,0,0,1,.08,0l8.46-4.89a3.68,3.68,0,0,0,1.67-2.88v-9.78a2,2,0,0,0,0-.23Z" style="fill:#191919"/><path d="M117.85,237.08,109.38,242a3.71,3.71,0,0,0-1.66,2.88v9.78a1.93,1.93,0,0,0,0,.24l.08,0,8.47-4.89a3.7,3.7,0,0,0,1.66-2.88v-9.78a1.85,1.85,0,0,0,0-.23Z" style="fill:#191919"/><path d="M104.58,259.79l-8.47,4.88a3.71,3.71,0,0,0-1.66,2.89v4.88h8.85a3.73,3.73,0,0,0,1.37-2.68V260a1.93,1.93,0,0,0,0-.24Z" style="fill:#191919"/><path d="M78,259.79l-8.46,4.88a3.7,3.7,0,0,0-1.67,2.89v4.88h8.86a3.77,3.77,0,0,0,1.37-2.68V260a1.94,1.94,0,0,0,0-.24Z" style="fill:#191919"/><path d="M91.31,237.08,82.85,242a3.69,3.69,0,0,0-1.67,2.88v9.78a1.94,1.94,0,0,0,0,.24l.07,0,8.47-4.89a3.67,3.67,0,0,0,1.66-2.88v-9.78a1.85,1.85,0,0,0,0-.23Z" style="fill:#191919"/><path d="M64.78,237.08,56.31,242a3.68,3.68,0,0,0-1.66,2.88v9.78a1.93,1.93,0,0,0,0,.24.2.2,0,0,1,.08,0l8.46-4.89a3.68,3.68,0,0,0,1.67-2.88v-9.78a2,2,0,0,0,0-.23Z" style="fill:#191919"/><path d="M51.51,259.79,43,264.67a3.71,3.71,0,0,0-1.66,2.89v4.88h8.85a3.73,3.73,0,0,0,1.37-2.68V260c0-.08,0-.16,0-.24A.2.2,0,0,0,51.51,259.79Z" style="fill:#191919"/><path d="M25,259.79l-8.47,4.88a3.71,3.71,0,0,0-1.66,2.89v4.88h8.85a3.73,3.73,0,0,0,1.37-2.68V260a1.93,1.93,0,0,0,0-.24Z" style="fill:#191919"/><path d="M38.24,237.08,29.77,242a3.71,3.71,0,0,0-1.66,2.88v9.78a1.93,1.93,0,0,0,0,.24l.08,0,8.47-4.89a3.7,3.7,0,0,0,1.66-2.88v-9.78a1.85,1.85,0,0,0,0-.23Z" style="fill:#191919"/><path d="M11.7,237.08,3.24,242a3.69,3.69,0,0,0-1.67,2.88v9.78a1.94,1.94,0,0,0,0,.24l.07,0,8.47-4.89a3.67,3.67,0,0,0,1.66-2.88v-9.78a1.85,1.85,0,0,0,0-.23Z" style="fill:#191919"/><path d="M316.87,214.38l-8.46,4.89a3.68,3.68,0,0,0-1.67,2.88v9.77a1.94,1.94,0,0,0,0,.24l.08,0,8.46-4.89.3-.2a3.77,3.77,0,0,0,1.37-2.68v-9.78a1.94,1.94,0,0,0,0-.24Z" style="fill:#191919"/><path d="M290.34,214.38l-8.47,4.89a3.7,3.7,0,0,0-1.66,2.88v9.77a1.93,1.93,0,0,0,0,.24l.08,0,8.47-4.89.29-.2a3.73,3.73,0,0,0,1.37-2.68v-9.78c0-.08,0-.16,0-.24Z" style="fill:#191919"/><path d="M303.61,191.67l-8.47,4.89a3.68,3.68,0,0,0-1.66,2.88v9.78a1.93,1.93,0,0,0,0,.24l.08,0,8.46-4.89a3.66,3.66,0,0,0,1.67-2.88v-9.77a1.94,1.94,0,0,0,0-.24Z" style="fill:#191919"/><path d="M277.07,191.67l-8.47,4.89a3.71,3.71,0,0,0-1.66,2.88v9.78a1.93,1.93,0,0,0,0,.24.2.2,0,0,0,.08,0l8.47-4.89a3.68,3.68,0,0,0,1.66-2.88v-9.77a1.93,1.93,0,0,0,0-.24Z" style="fill:#191919"/><path d="M263.8,214.38l-8.47,4.89a3.7,3.7,0,0,0-1.66,2.88v9.77c0,.08,0,.16,0,.24l.08,0,8.47-4.89.29-.2a3.73,3.73,0,0,0,1.37-2.68v-9.78a1.93,1.93,0,0,0,0-.24Z" style="fill:#191919"/><path d="M237.26,214.38l-8.46,4.89a3.68,3.68,0,0,0-1.67,2.88v9.77a1.94,1.94,0,0,0,0,.24l.08,0,8.46-4.89.3-.2a3.77,3.77,0,0,0,1.37-2.68v-9.78a1.94,1.94,0,0,0,0-.24S237.29,214.36,237.26,214.38Z" style="fill:#191919"/><path d="M250.53,191.67l-8.46,4.89a3.69,3.69,0,0,0-1.67,2.88v9.78a1.94,1.94,0,0,0,0,.24l.07,0,8.47-4.89a3.65,3.65,0,0,0,1.66-2.88v-9.77a1.93,1.93,0,0,0,0-.24Z" style="fill:#191919"/><path d="M224,191.67l-8.47,4.89a3.68,3.68,0,0,0-1.66,2.88v9.78a1.93,1.93,0,0,0,0,.24l.08,0,8.46-4.89a3.66,3.66,0,0,0,1.67-2.88v-9.77a1.94,1.94,0,0,0,0-.24Z" style="fill:#191919"/><path d="M210.73,214.38l-8.47,4.89a3.7,3.7,0,0,0-1.66,2.88v9.77a1.93,1.93,0,0,0,0,.24l.08,0,8.47-4.89.29-.2a3.73,3.73,0,0,0,1.37-2.68v-9.78c0-.08,0-.16,0-.24Z" style="fill:#191919"/><path d="M184.19,214.38l-8.47,4.89a3.7,3.7,0,0,0-1.66,2.88v9.77c0,.08,0,.16,0,.24l.08,0,8.47-4.89.29-.2a3.73,3.73,0,0,0,1.37-2.68v-9.78a1.93,1.93,0,0,0,0-.24Z" style="fill:#191919"/><path d="M197.46,191.67,189,196.56a3.71,3.71,0,0,0-1.66,2.88v9.78a1.93,1.93,0,0,0,0,.24.2.2,0,0,0,.08,0l8.47-4.89a3.68,3.68,0,0,0,1.66-2.88v-9.77a1.93,1.93,0,0,0,0-.24Z" style="fill:#191919"/><path d="M170.92,191.67l-8.46,4.89a3.69,3.69,0,0,0-1.67,2.88v9.78a1.94,1.94,0,0,0,0,.24l.07,0,8.47-4.89a3.65,3.65,0,0,0,1.66-2.88v-9.77a1.93,1.93,0,0,0,0-.24Z" style="fill:#191919"/><path d="M157.65,214.38l-8.46,4.89a3.68,3.68,0,0,0-1.67,2.88v9.77a1.94,1.94,0,0,0,0,.24l.08,0,8.46-4.89.3-.2a3.77,3.77,0,0,0,1.37-2.68v-9.78a1.94,1.94,0,0,0,0-.24Z" style="fill:#191919"/><path d="M131.12,214.38l-8.47,4.89a3.7,3.7,0,0,0-1.66,2.88v9.77a1.93,1.93,0,0,0,0,.24l.08,0,8.47-4.89.29-.2a3.73,3.73,0,0,0,1.37-2.68v-9.78c0-.08,0-.16,0-.24Z" style="fill:#191919"/><path d="M144.39,191.67l-8.47,4.89a3.68,3.68,0,0,0-1.66,2.88v9.78a1.93,1.93,0,0,0,0,.24l.08,0,8.46-4.89a3.66,3.66,0,0,0,1.67-2.88v-9.77a1.94,1.94,0,0,0,0-.24Z" style="fill:#191919"/><path d="M117.85,191.67l-8.47,4.89a3.71,3.71,0,0,0-1.66,2.88v9.78a1.93,1.93,0,0,0,0,.24.2.2,0,0,0,.08,0l8.47-4.89a3.68,3.68,0,0,0,1.66-2.88v-9.77a1.93,1.93,0,0,0,0-.24Z" style="fill:#191919"/><path d="M104.58,214.38l-8.47,4.89a3.7,3.7,0,0,0-1.66,2.88v9.77c0,.08,0,.16,0,.24l.08,0,8.47-4.89.29-.2a3.73,3.73,0,0,0,1.37-2.68v-9.78a1.93,1.93,0,0,0,0-.24Z" style="fill:#191919"/><path d="M78,214.38l-8.46,4.89a3.68,3.68,0,0,0-1.67,2.88v9.77a1.94,1.94,0,0,0,0,.24l.08,0,8.46-4.89.3-.2a3.77,3.77,0,0,0,1.37-2.68v-9.78a1.94,1.94,0,0,0,0-.24S78.07,214.36,78,214.38Z" style="fill:#191919"/><path d="M91.31,191.67l-8.46,4.89a3.69,3.69,0,0,0-1.67,2.88v9.78a1.94,1.94,0,0,0,0,.24l.07,0,8.47-4.89a3.65,3.65,0,0,0,1.66-2.88v-9.77a1.93,1.93,0,0,0,0-.24Z" style="fill:#191919"/><path d="M64.78,191.67l-8.47,4.89a3.68,3.68,0,0,0-1.66,2.88v9.78a1.93,1.93,0,0,0,0,.24l.08,0,8.46-4.89a3.66,3.66,0,0,0,1.67-2.88v-9.77a1.94,1.94,0,0,0,0-.24Z" style="fill:#191919"/><path d="M51.51,214.38,43,219.27a3.7,3.7,0,0,0-1.66,2.88v9.77a1.93,1.93,0,0,0,0,.24l.08,0,8.47-4.89.29-.2a3.73,3.73,0,0,0,1.37-2.68v-9.78c0-.08,0-.16,0-.24Z" style="fill:#191919"/><path d="M25,214.38l-8.47,4.89a3.7,3.7,0,0,0-1.66,2.88v9.77c0,.08,0,.16,0,.24l.08,0,8.47-4.89.29-.2a3.73,3.73,0,0,0,1.37-2.68v-9.78a1.93,1.93,0,0,0,0-.24Z" style="fill:#191919"/><path d="M38.24,191.67l-8.47,4.89a3.71,3.71,0,0,0-1.66,2.88v9.78a1.93,1.93,0,0,0,0,.24l.08,0,8.47-4.89a3.68,3.68,0,0,0,1.66-2.88v-9.77a1.93,1.93,0,0,0,0-.24Z" style="fill:#191919"/><path d="M11.7,191.67l-8.46,4.89a3.69,3.69,0,0,0-1.67,2.88v9.78a1.94,1.94,0,0,0,0,.24l.07,0,8.47-4.89a3.65,3.65,0,0,0,1.66-2.88v-9.77a1.93,1.93,0,0,0,0-.24Z" style="fill:#191919"/><path d="M316.87,169l-8.46,4.89a3.68,3.68,0,0,0-1.67,2.88v9.78a1.94,1.94,0,0,0,0,.24l.08,0,8.46-4.89.3-.2A3.77,3.77,0,0,0,317,179v-9.78a1.94,1.94,0,0,0,0-.24Z" style="fill:#191919"/><path d="M290.34,169l-8.47,4.89a3.7,3.7,0,0,0-1.66,2.88v9.78a1.93,1.93,0,0,0,0,.24l.08,0,8.47-4.89.29-.2a3.73,3.73,0,0,0,1.37-2.68v-9.78c0-.08,0-.16,0-.24Z" style="fill:#191919"/><path d="M303.61,146.27l-8.47,4.89a3.65,3.65,0,0,0-1.66,2.88v9.77a1.93,1.93,0,0,0,0,.24l.08,0,8.46-4.89a3.69,3.69,0,0,0,1.67-2.88v-9.78a1.94,1.94,0,0,0,0-.24Z" style="fill:#191919"/><path d="M277.07,146.27l-8.47,4.89a3.68,3.68,0,0,0-1.66,2.88v9.77a1.93,1.93,0,0,0,0,.24l.08,0,8.47-4.89a3.71,3.71,0,0,0,1.66-2.88v-9.78a1.93,1.93,0,0,0,0-.24A.2.2,0,0,0,277.07,146.27Z" style="fill:#191919"/><path d="M263.8,169l-8.47,4.89a3.7,3.7,0,0,0-1.66,2.88v9.78c0,.08,0,.16,0,.24l.08,0,8.47-4.89.29-.2a3.73,3.73,0,0,0,1.37-2.68v-9.78a1.93,1.93,0,0,0,0-.24Z" style="fill:#191919"/><path d="M237.26,169l-8.46,4.89a3.68,3.68,0,0,0-1.67,2.88v9.78a1.94,1.94,0,0,0,0,.24l.08,0,8.46-4.89.3-.2a3.77,3.77,0,0,0,1.37-2.68v-9.78a1.94,1.94,0,0,0,0-.24Z" style="fill:#191919"/><path d="M250.53,146.27l-8.46,4.89A3.66,3.66,0,0,0,240.4,154v9.77a1.94,1.94,0,0,0,0,.24l.07,0,8.47-4.89a3.68,3.68,0,0,0,1.66-2.88v-9.78a1.93,1.93,0,0,0,0-.24Z" style="fill:#191919"/><path d="M224,146.27l-8.47,4.89a3.65,3.65,0,0,0-1.66,2.88v9.77a1.93,1.93,0,0,0,0,.24l.08,0,8.46-4.89a3.69,3.69,0,0,0,1.67-2.88v-9.78a1.94,1.94,0,0,0,0-.24Z" style="fill:#191919"/><path d="M210.73,169l-8.47,4.89a3.7,3.7,0,0,0-1.66,2.88v9.78a1.93,1.93,0,0,0,0,.24l.08,0,8.47-4.89.29-.2a3.73,3.73,0,0,0,1.37-2.68v-9.78c0-.08,0-.16,0-.24Z" style="fill:#191919"/><path d="M184.19,169l-8.47,4.89a3.7,3.7,0,0,0-1.66,2.88v9.78c0,.08,0,.16,0,.24l.08,0,8.47-4.89.29-.2a3.73,3.73,0,0,0,1.37-2.68v-9.78a1.93,1.93,0,0,0,0-.24Z" style="fill:#191919"/><path d="M197.46,146.27,189,151.16a3.68,3.68,0,0,0-1.66,2.88v9.77a1.93,1.93,0,0,0,0,.24l.08,0,8.47-4.89a3.71,3.71,0,0,0,1.66-2.88v-9.78a1.93,1.93,0,0,0,0-.24A.2.2,0,0,0,197.46,146.27Z" style="fill:#191919"/><path d="M170.92,146.27l-8.46,4.89a3.66,3.66,0,0,0-1.67,2.88v9.77a1.94,1.94,0,0,0,0,.24l.07,0,8.47-4.89a3.68,3.68,0,0,0,1.66-2.88v-9.78a1.93,1.93,0,0,0,0-.24Z" style="fill:#191919"/><path d="M157.65,169l-8.46,4.89a3.68,3.68,0,0,0-1.67,2.88v9.78a1.94,1.94,0,0,0,0,.24l.08,0,8.46-4.89.3-.2a3.77,3.77,0,0,0,1.37-2.68v-9.78a1.94,1.94,0,0,0,0-.24Z" style="fill:#191919"/><path d="M131.12,169l-8.47,4.89a3.7,3.7,0,0,0-1.66,2.88v9.78a1.93,1.93,0,0,0,0,.24l.08,0,8.47-4.89.29-.2a3.73,3.73,0,0,0,1.37-2.68v-9.78c0-.08,0-.16,0-.24Z" style="fill:#191919"/><path d="M144.39,146.27l-8.47,4.89a3.65,3.65,0,0,0-1.66,2.88v9.77a1.93,1.93,0,0,0,0,.24l.08,0,8.46-4.89a3.69,3.69,0,0,0,1.67-2.88v-9.78a1.94,1.94,0,0,0,0-.24Z" style="fill:#191919"/><path d="M117.85,146.27l-8.47,4.89a3.68,3.68,0,0,0-1.66,2.88v9.77a1.93,1.93,0,0,0,0,.24l.08,0,8.47-4.89a3.71,3.71,0,0,0,1.66-2.88v-9.78a1.93,1.93,0,0,0,0-.24Z" style="fill:#191919"/><path d="M104.58,169l-8.47,4.89a3.7,3.7,0,0,0-1.66,2.88v9.78c0,.08,0,.16,0,.24l.08,0,8.47-4.89.29-.2a3.73,3.73,0,0,0,1.37-2.68v-9.78a1.93,1.93,0,0,0,0-.24Z" style="fill:#191919"/><path d="M78,169l-8.46,4.89a3.68,3.68,0,0,0-1.67,2.88v9.78a1.94,1.94,0,0,0,0,.24l.08,0,8.46-4.89.3-.2A3.77,3.77,0,0,0,78.14,179v-9.78a1.94,1.94,0,0,0,0-.24Z" style="fill:#191919"/><path d="M91.31,146.27l-8.46,4.89A3.66,3.66,0,0,0,81.18,154v9.77a1.94,1.94,0,0,0,0,.24l.07,0,8.47-4.89a3.68,3.68,0,0,0,1.66-2.88v-9.78a1.93,1.93,0,0,0,0-.24Z" style="fill:#191919"/><path d="M64.78,146.27l-8.47,4.89A3.65,3.65,0,0,0,54.65,154v9.77a1.93,1.93,0,0,0,0,.24l.08,0,8.46-4.89a3.69,3.69,0,0,0,1.67-2.88v-9.78a1.94,1.94,0,0,0,0-.24Z" style="fill:#191919"/><path d="M51.51,169,43,173.86a3.7,3.7,0,0,0-1.66,2.88v9.78a1.93,1.93,0,0,0,0,.24l.08,0,8.47-4.89.29-.2A3.73,3.73,0,0,0,51.6,179v-9.78c0-.08,0-.16,0-.24Z" style="fill:#191919"/><path d="M25,169l-8.47,4.89a3.7,3.7,0,0,0-1.66,2.88v9.78c0,.08,0,.16,0,.24l.08,0,8.47-4.89.29-.2A3.73,3.73,0,0,0,25.06,179v-9.78a1.93,1.93,0,0,0,0-.24Z" style="fill:#191919"/><path d="M38.24,146.27l-8.47,4.89A3.68,3.68,0,0,0,28.11,154v9.77a1.93,1.93,0,0,0,0,.24l.08,0,8.47-4.89a3.71,3.71,0,0,0,1.66-2.88v-9.78a1.93,1.93,0,0,0,0-.24A.2.2,0,0,0,38.24,146.27Z" style="fill:#191919"/><path d="M11.7,146.27l-8.46,4.89A3.66,3.66,0,0,0,1.57,154v9.77a1.94,1.94,0,0,0,0,.24l.07,0,8.47-4.89a3.68,3.68,0,0,0,1.66-2.88v-9.78a1.93,1.93,0,0,0,0-.24Z" style="fill:#191919"/><path d="M316.87,123.56l-8.46,4.89a3.69,3.69,0,0,0-1.67,2.88v9.78a1.94,1.94,0,0,0,0,.24l.08,0,8.46-4.89a1.74,1.74,0,0,0,.3-.2,3.77,3.77,0,0,0,1.37-2.68v-9.77a1.94,1.94,0,0,0,0-.24Z" style="fill:#191919"/><path d="M290.34,123.56l-8.47,4.89a3.71,3.71,0,0,0-1.66,2.88v9.78a1.93,1.93,0,0,0,0,.24l.08,0,8.47-4.89a1.68,1.68,0,0,0,.29-.2,3.73,3.73,0,0,0,1.37-2.68v-9.77c0-.08,0-.16,0-.24Z" style="fill:#191919"/><path d="M303.61,100.86l-8.47,4.89a3.67,3.67,0,0,0-1.66,2.88v9.78a1.85,1.85,0,0,0,0,.23l.08,0,8.46-4.89a3.68,3.68,0,0,0,1.67-2.88v-9.78a1.94,1.94,0,0,0,0-.24Z" style="fill:#191919"/><path d="M277.07,100.86l-8.47,4.89a3.7,3.7,0,0,0-1.66,2.88v9.78a1.85,1.85,0,0,0,0,.23l.08,0,8.47-4.89a3.7,3.7,0,0,0,1.66-2.88v-9.78a1.93,1.93,0,0,0,0-.24Z" style="fill:#191919"/><path d="M263.8,123.56l-8.47,4.89a3.71,3.71,0,0,0-1.66,2.88v9.78c0,.08,0,.16,0,.24a.2.2,0,0,0,.08,0l8.47-4.89a1.37,1.37,0,0,0,.29-.2,3.73,3.73,0,0,0,1.37-2.68v-9.77a1.93,1.93,0,0,0,0-.24Z" style="fill:#191919"/><path d="M237.26,123.56l-8.46,4.89a3.69,3.69,0,0,0-1.67,2.88v9.78a1.94,1.94,0,0,0,0,.24l.08,0,8.46-4.89a1.74,1.74,0,0,0,.3-.2,3.77,3.77,0,0,0,1.37-2.68v-9.77a1.94,1.94,0,0,0,0-.24Z" style="fill:#191919"/><path d="M250.53,100.86l-8.46,4.89a3.68,3.68,0,0,0-1.67,2.88v9.78a2,2,0,0,0,0,.23l.07,0,8.47-4.89a3.67,3.67,0,0,0,1.66-2.88v-9.78a1.93,1.93,0,0,0,0-.24A.2.2,0,0,1,250.53,100.86Z" style="fill:#191919"/><path d="M224,100.86l-8.47,4.89a3.67,3.67,0,0,0-1.66,2.88v9.78a1.85,1.85,0,0,0,0,.23l.08,0,8.46-4.89a3.68,3.68,0,0,0,1.67-2.88v-9.78a1.94,1.94,0,0,0,0-.24Z" style="fill:#191919"/><path d="M210.73,123.56l-8.47,4.89a3.71,3.71,0,0,0-1.66,2.88v9.78a1.93,1.93,0,0,0,0,.24l.08,0,8.47-4.89a1.68,1.68,0,0,0,.29-.2,3.73,3.73,0,0,0,1.37-2.68v-9.77c0-.08,0-.16,0-.24Z" style="fill:#191919"/><path d="M184.19,123.56l-8.47,4.89a3.71,3.71,0,0,0-1.66,2.88v9.78c0,.08,0,.16,0,.24a.2.2,0,0,0,.08,0l8.47-4.89a1.37,1.37,0,0,0,.29-.2,3.73,3.73,0,0,0,1.37-2.68v-9.77a1.93,1.93,0,0,0,0-.24Z" style="fill:#191919"/><path d="M197.46,100.86,189,105.75a3.7,3.7,0,0,0-1.66,2.88v9.78a1.85,1.85,0,0,0,0,.23l.08,0,8.47-4.89a3.7,3.7,0,0,0,1.66-2.88v-9.78a1.93,1.93,0,0,0,0-.24Z" style="fill:#191919"/><path d="M170.92,100.86l-8.46,4.89a3.68,3.68,0,0,0-1.67,2.88v9.78a2,2,0,0,0,0,.23l.07,0,8.47-4.89a3.67,3.67,0,0,0,1.66-2.88v-9.78a1.93,1.93,0,0,0,0-.24A.2.2,0,0,1,170.92,100.86Z" style="fill:#191919"/><path d="M157.65,123.56l-8.46,4.89a3.69,3.69,0,0,0-1.67,2.88v9.78a1.94,1.94,0,0,0,0,.24l.08,0,8.46-4.89a1.74,1.74,0,0,0,.3-.2,3.77,3.77,0,0,0,1.37-2.68v-9.77a1.94,1.94,0,0,0,0-.24Z" style="fill:#191919"/><path d="M131.12,123.56l-8.47,4.89a3.71,3.71,0,0,0-1.66,2.88v9.78a1.93,1.93,0,0,0,0,.24l.08,0,8.47-4.89a1.68,1.68,0,0,0,.29-.2,3.73,3.73,0,0,0,1.37-2.68v-9.77c0-.08,0-.16,0-.24Z" style="fill:#191919"/><path d="M144.39,100.86l-8.47,4.89a3.67,3.67,0,0,0-1.66,2.88v9.78a1.85,1.85,0,0,0,0,.23l.08,0,8.46-4.89a3.68,3.68,0,0,0,1.67-2.88v-9.78a1.94,1.94,0,0,0,0-.24Z" style="fill:#191919"/><path d="M117.85,100.86l-8.47,4.89a3.7,3.7,0,0,0-1.66,2.88v9.78a1.85,1.85,0,0,0,0,.23l.08,0,8.47-4.89a3.7,3.7,0,0,0,1.66-2.88v-9.78a1.93,1.93,0,0,0,0-.24Z" style="fill:#191919"/><path d="M104.58,123.56l-8.47,4.89a3.71,3.71,0,0,0-1.66,2.88v9.78c0,.08,0,.16,0,.24a.2.2,0,0,0,.08,0l8.47-4.89a1.37,1.37,0,0,0,.29-.2,3.73,3.73,0,0,0,1.37-2.68v-9.77a1.93,1.93,0,0,0,0-.24Z" style="fill:#191919"/><path d="M78,123.56l-8.46,4.89a3.69,3.69,0,0,0-1.67,2.88v9.78a1.94,1.94,0,0,0,0,.24l.08,0,8.46-4.89a1.74,1.74,0,0,0,.3-.2,3.77,3.77,0,0,0,1.37-2.68v-9.77a1.94,1.94,0,0,0,0-.24Z" style="fill:#191919"/><path d="M91.31,100.86l-8.46,4.89a3.68,3.68,0,0,0-1.67,2.88v9.78a2,2,0,0,0,0,.23l.07,0,8.47-4.89a3.67,3.67,0,0,0,1.66-2.88v-9.78a1.93,1.93,0,0,0,0-.24A.2.2,0,0,1,91.31,100.86Z" style="fill:#191919"/><path d="M64.78,100.86l-8.47,4.89a3.67,3.67,0,0,0-1.66,2.88v9.78a1.85,1.85,0,0,0,0,.23l.08,0,8.46-4.89a3.68,3.68,0,0,0,1.67-2.88v-9.78a1.94,1.94,0,0,0,0-.24Z" style="fill:#191919"/><path d="M51.51,123.56,43,128.45a3.71,3.71,0,0,0-1.66,2.88v9.78a1.93,1.93,0,0,0,0,.24l.08,0,8.47-4.89a1.68,1.68,0,0,0,.29-.2,3.73,3.73,0,0,0,1.37-2.68v-9.77c0-.08,0-.16,0-.24Z" style="fill:#191919"/><path d="M25,123.56l-8.47,4.89a3.71,3.71,0,0,0-1.66,2.88v9.78c0,.08,0,.16,0,.24a.2.2,0,0,0,.08,0l8.47-4.89a1.37,1.37,0,0,0,.29-.2,3.73,3.73,0,0,0,1.37-2.68v-9.77a1.93,1.93,0,0,0,0-.24Z" style="fill:#191919"/><path d="M38.24,100.86l-8.47,4.89a3.7,3.7,0,0,0-1.66,2.88v9.78a1.85,1.85,0,0,0,0,.23l.08,0,8.47-4.89a3.7,3.7,0,0,0,1.66-2.88v-9.78a1.93,1.93,0,0,0,0-.24Z" style="fill:#191919"/><path d="M11.7,100.86l-8.46,4.89a3.68,3.68,0,0,0-1.67,2.88v9.78a2,2,0,0,0,0,.23l.07,0,8.47-4.89a3.67,3.67,0,0,0,1.66-2.88v-9.78a1.93,1.93,0,0,0,0-.24A.2.2,0,0,1,11.7,100.86Z" style="fill:#191919"/><path d="M316.87,78.16,308.41,83a3.7,3.7,0,0,0-1.67,2.89V95.7a1.94,1.94,0,0,0,0,.24l.08,0L315.3,91l.3-.21A3.73,3.73,0,0,0,317,88.13V78.36a1.94,1.94,0,0,0,0-.24Z" style="fill:#191919"/><path d="M290.34,78.16,281.87,83a3.71,3.71,0,0,0-1.66,2.89V95.7a1.93,1.93,0,0,0,0,.24l.08,0L288.77,91a2.64,2.64,0,0,0,.29-.21,3.7,3.7,0,0,0,1.37-2.68V78.36c0-.08,0-.16,0-.24Z" style="fill:#191919"/><path d="M303.61,55.45l-8.47,4.89a3.68,3.68,0,0,0-1.66,2.88V73a1.93,1.93,0,0,0,0,.24.2.2,0,0,1,.08,0L302,68.31a3.68,3.68,0,0,0,1.67-2.88V55.66a1.94,1.94,0,0,0,0-.24Z" style="fill:#191919"/><path d="M277.07,55.45l-8.47,4.89a3.71,3.71,0,0,0-1.66,2.88V73a1.93,1.93,0,0,0,0,.24l.08,0,8.47-4.89a3.7,3.7,0,0,0,1.66-2.88V55.66a1.93,1.93,0,0,0,0-.24Z" style="fill:#191919"/><path d="M263.8,78.16,255.33,83a3.71,3.71,0,0,0-1.66,2.89V95.7c0,.08,0,.16,0,.24a.2.2,0,0,0,.08,0L262.23,91a1.94,1.94,0,0,0,.29-.21,3.7,3.7,0,0,0,1.37-2.68V78.36a1.93,1.93,0,0,0,0-.24Z" style="fill:#191919"/><path d="M237.26,78.16,228.8,83a3.7,3.7,0,0,0-1.67,2.89V95.7a1.94,1.94,0,0,0,0,.24l.08,0L235.69,91l.3-.21a3.73,3.73,0,0,0,1.37-2.68V78.36a1.94,1.94,0,0,0,0-.24Z" style="fill:#191919"/><path d="M250.53,55.45l-8.46,4.89a3.69,3.69,0,0,0-1.67,2.88V73a1.94,1.94,0,0,0,0,.24l.07,0L249,68.31a3.67,3.67,0,0,0,1.66-2.88V55.66a1.93,1.93,0,0,0,0-.24Z" style="fill:#191919"/><path d="M224,55.45l-8.47,4.89a3.68,3.68,0,0,0-1.66,2.88V73a1.93,1.93,0,0,0,0,.24l.08,0,8.46-4.89a3.68,3.68,0,0,0,1.67-2.88V55.66a1.94,1.94,0,0,0,0-.24Z" style="fill:#191919"/><path d="M210.73,78.16,202.26,83a3.71,3.71,0,0,0-1.66,2.89V95.7a1.93,1.93,0,0,0,0,.24l.08,0L209.16,91a2.64,2.64,0,0,0,.29-.21,3.7,3.7,0,0,0,1.37-2.68V78.36c0-.08,0-.16,0-.24Z" style="fill:#191919"/><path d="M184.19,78.16,175.72,83a3.71,3.71,0,0,0-1.66,2.89V95.7c0,.08,0,.16,0,.24l.08,0L182.62,91a1.94,1.94,0,0,0,.29-.21,3.7,3.7,0,0,0,1.37-2.68V78.36a1.93,1.93,0,0,0,0-.24Z" style="fill:#191919"/><path d="M197.46,55.45,189,60.34a3.71,3.71,0,0,0-1.66,2.88V73a1.93,1.93,0,0,0,0,.24l.08,0,8.47-4.89a3.7,3.7,0,0,0,1.66-2.88V55.66a1.93,1.93,0,0,0,0-.24Z" style="fill:#191919"/><path d="M170.92,55.45l-8.46,4.89a3.69,3.69,0,0,0-1.67,2.88V73a1.94,1.94,0,0,0,0,.24l.07,0,8.47-4.89A3.67,3.67,0,0,0,171,65.43V55.66a1.93,1.93,0,0,0,0-.24Z" style="fill:#191919"/><path d="M157.65,78.16,149.19,83a3.7,3.7,0,0,0-1.67,2.89V95.7a1.94,1.94,0,0,0,0,.24l.08,0L156.08,91a2.73,2.73,0,0,0,.3-.21,3.73,3.73,0,0,0,1.37-2.68V78.36a1.94,1.94,0,0,0,0-.24Z" style="fill:#191919"/><path d="M131.12,78.16,122.65,83A3.71,3.71,0,0,0,121,85.93V95.7a1.93,1.93,0,0,0,0,.24l.08,0L129.55,91a2.64,2.64,0,0,0,.29-.21,3.7,3.7,0,0,0,1.37-2.68V78.36c0-.08,0-.16,0-.24A.2.2,0,0,0,131.12,78.16Z" style="fill:#191919"/><path d="M144.39,55.45l-8.47,4.89a3.68,3.68,0,0,0-1.66,2.88V73a1.93,1.93,0,0,0,0,.24.2.2,0,0,1,.08,0l8.46-4.89a3.68,3.68,0,0,0,1.67-2.88V55.66a1.94,1.94,0,0,0,0-.24Z" style="fill:#191919"/><path d="M117.85,55.45l-8.47,4.89a3.71,3.71,0,0,0-1.66,2.88V73a1.93,1.93,0,0,0,0,.24l.08,0,8.47-4.89a3.7,3.7,0,0,0,1.66-2.88V55.66a1.93,1.93,0,0,0,0-.24Z" style="fill:#191919"/><path d="M104.58,78.16,96.11,83a3.71,3.71,0,0,0-1.66,2.89V95.7c0,.08,0,.16,0,.24l.08,0L103,91a1.94,1.94,0,0,0,.29-.21,3.7,3.7,0,0,0,1.37-2.68V78.36a1.93,1.93,0,0,0,0-.24Z" style="fill:#191919"/><path d="M78,78.16,69.58,83a3.7,3.7,0,0,0-1.67,2.89V95.7a1.94,1.94,0,0,0,0,.24l.08,0L76.47,91a2.73,2.73,0,0,0,.3-.21,3.73,3.73,0,0,0,1.37-2.68V78.36a1.94,1.94,0,0,0,0-.24Z" style="fill:#191919"/><path d="M91.31,55.45l-8.46,4.89a3.69,3.69,0,0,0-1.67,2.88V73a1.94,1.94,0,0,0,0,.24l.07,0,8.47-4.89a3.67,3.67,0,0,0,1.66-2.88V55.66a1.93,1.93,0,0,0,0-.24Z" style="fill:#191919"/><path d="M64.78,55.45l-8.47,4.89a3.68,3.68,0,0,0-1.66,2.88V73a1.93,1.93,0,0,0,0,.24l.08,0,8.46-4.89a3.68,3.68,0,0,0,1.67-2.88V55.66a1.94,1.94,0,0,0,0-.24Z" style="fill:#191919"/><path d="M51.51,78.16,43,83a3.71,3.71,0,0,0-1.66,2.89V95.7a1.93,1.93,0,0,0,0,.24l.08,0L49.94,91a2.64,2.64,0,0,0,.29-.21,3.7,3.7,0,0,0,1.37-2.68V78.36c0-.08,0-.16,0-.24Z" style="fill:#191919"/><path d="M25,78.16,16.5,83a3.71,3.71,0,0,0-1.66,2.89V95.7c0,.08,0,.16,0,.24a.2.2,0,0,0,.08,0L23.4,91a1.94,1.94,0,0,0,.29-.21,3.7,3.7,0,0,0,1.37-2.68V78.36a1.93,1.93,0,0,0,0-.24Z" style="fill:#191919"/><path d="M38.24,55.45l-8.47,4.89a3.71,3.71,0,0,0-1.66,2.88V73a1.93,1.93,0,0,0,0,.24l.08,0,8.47-4.89a3.7,3.7,0,0,0,1.66-2.88V55.66a1.93,1.93,0,0,0,0-.24Z" style="fill:#191919"/><path d="M11.7,55.45,3.24,60.34a3.69,3.69,0,0,0-1.67,2.88V73a1.94,1.94,0,0,0,0,.24l.07,0,8.47-4.89a3.67,3.67,0,0,0,1.66-2.88V55.66a1.93,1.93,0,0,0,0-.24Z" style="fill:#191919"/><path d="M317,32.71a.2.2,0,0,1-.08,0l-8.46,4.89a3.68,3.68,0,0,0-1.67,2.88V50.3a2,2,0,0,0,0,.23l.08,0,8.46-4.89.3-.2A3.77,3.77,0,0,0,317,42.73V33A1.94,1.94,0,0,0,317,32.71Z" style="fill:#191919"/><path d="M290.34,32.75l-8.47,4.89a3.7,3.7,0,0,0-1.66,2.88V50.3a1.85,1.85,0,0,0,0,.23l.08,0,8.47-4.89.29-.2a3.73,3.73,0,0,0,1.37-2.68V33c0-.08,0-.16,0-.24Z" style="fill:#191919"/><path d="M303.61,10.05l-8.47,4.88a3.69,3.69,0,0,0-1.66,2.89v9.77a1.93,1.93,0,0,0,0,.24l.08,0L302,22.91A3.7,3.7,0,0,0,303.7,20V10.25a1.94,1.94,0,0,0,0-.24Z" style="fill:#191919"/><path d="M277.07,10.05l-8.47,4.88a3.71,3.71,0,0,0-1.66,2.89v9.77a1.93,1.93,0,0,0,0,.24.2.2,0,0,0,.08,0l8.47-4.88A3.71,3.71,0,0,0,277.16,20V10.25a1.93,1.93,0,0,0,0-.24A.2.2,0,0,0,277.07,10.05Z" style="fill:#191919"/><path d="M306.84,5.09,315.3.2a2.61,2.61,0,0,0,.3-.2h-8.86V4.89a1.94,1.94,0,0,0,0,.24A.2.2,0,0,1,306.84,5.09Z" style="fill:#191919"/><path d="M280.3,5.09,288.77.2a2.51,2.51,0,0,0,.29-.2h-8.85V4.89a1.93,1.93,0,0,0,0,.24Z" style="fill:#191919"/><path d="M263.8,32.75l-8.47,4.89a3.7,3.7,0,0,0-1.66,2.88V50.3c0,.07,0,.15,0,.23l.08,0,8.47-4.89.29-.2a3.73,3.73,0,0,0,1.37-2.68V33a1.93,1.93,0,0,0,0-.24Z" style="fill:#191919"/><path d="M237.26,32.75l-8.46,4.89a3.68,3.68,0,0,0-1.67,2.88V50.3a2,2,0,0,0,0,.23l.08,0,8.46-4.89.3-.2a3.77,3.77,0,0,0,1.37-2.68V33a1.94,1.94,0,0,0,0-.24Z" style="fill:#191919"/><path d="M250.53,10.05l-8.46,4.88a3.7,3.7,0,0,0-1.67,2.89v9.77a1.94,1.94,0,0,0,0,.24l.07,0L249,22.91A3.69,3.69,0,0,0,250.62,20V10.25a1.93,1.93,0,0,0,0-.24Z" style="fill:#191919"/><path d="M224,10.05l-8.47,4.88a3.69,3.69,0,0,0-1.66,2.89v9.77a1.93,1.93,0,0,0,0,.24l.08,0,8.46-4.88A3.7,3.7,0,0,0,224.09,20V10.25a1.94,1.94,0,0,0,0-.24Z" style="fill:#191919"/><path d="M253.76,5.09,262.23.2a1.87,1.87,0,0,0,.29-.2h-8.85V4.89c0,.08,0,.16,0,.24Z" style="fill:#191919"/><path d="M227.23,5.09,235.69.2A2.61,2.61,0,0,0,236,0h-8.86V4.89a1.94,1.94,0,0,0,0,.24A.2.2,0,0,1,227.23,5.09Z" style="fill:#191919"/><path d="M210.73,32.75l-8.47,4.89a3.7,3.7,0,0,0-1.66,2.88V50.3a1.85,1.85,0,0,0,0,.23l.08,0,8.47-4.89.29-.2a3.73,3.73,0,0,0,1.37-2.68V33c0-.08,0-.16,0-.24Z" style="fill:#191919"/><path d="M184.19,32.75l-8.47,4.89a3.7,3.7,0,0,0-1.66,2.88V50.3c0,.07,0,.15,0,.23l.08,0,8.47-4.89.29-.2a3.73,3.73,0,0,0,1.37-2.68V33a1.93,1.93,0,0,0,0-.24Z" style="fill:#191919"/><path d="M197.46,10.05,189,14.93a3.71,3.71,0,0,0-1.66,2.89v9.77a1.93,1.93,0,0,0,0,.24.2.2,0,0,0,.08,0l8.47-4.88A3.71,3.71,0,0,0,197.55,20V10.25a1.93,1.93,0,0,0,0-.24A.2.2,0,0,0,197.46,10.05Z" style="fill:#191919"/><path d="M170.92,10.05l-8.46,4.88a3.7,3.7,0,0,0-1.67,2.89v9.77a1.94,1.94,0,0,0,0,.24l.07,0,8.47-4.88A3.69,3.69,0,0,0,171,20V10.25a1.93,1.93,0,0,0,0-.24Z" style="fill:#191919"/><path d="M200.69,5.09,209.16.2a2.51,2.51,0,0,0,.29-.2H200.6V4.89a1.93,1.93,0,0,0,0,.24Z" style="fill:#191919"/><path d="M174.15,5.09,182.62.2a1.87,1.87,0,0,0,.29-.2h-8.85V4.89c0,.08,0,.16,0,.24Z" style="fill:#191919"/><path d="M157.65,32.75l-8.46,4.89a3.68,3.68,0,0,0-1.67,2.88V50.3a2,2,0,0,0,0,.23l.08,0,8.46-4.89.3-.2a3.77,3.77,0,0,0,1.37-2.68V33a1.94,1.94,0,0,0,0-.24A.2.2,0,0,1,157.65,32.75Z" style="fill:#191919"/><path d="M131.12,32.75l-8.47,4.89A3.7,3.7,0,0,0,121,40.52V50.3a1.85,1.85,0,0,0,0,.23l.08,0,8.47-4.89.29-.2a3.73,3.73,0,0,0,1.37-2.68V33c0-.08,0-.16,0-.24Z" style="fill:#191919"/><path d="M144.39,10.05l-8.47,4.88a3.69,3.69,0,0,0-1.66,2.89v9.77a1.93,1.93,0,0,0,0,.24l.08,0,8.46-4.88A3.7,3.7,0,0,0,144.48,20V10.25a1.94,1.94,0,0,0,0-.24Z" style="fill:#191919"/><path d="M117.85,10.05l-8.47,4.88a3.71,3.71,0,0,0-1.66,2.89v9.77a1.93,1.93,0,0,0,0,.24.2.2,0,0,0,.08,0l8.47-4.88A3.71,3.71,0,0,0,117.94,20V10.25a1.93,1.93,0,0,0,0-.24Z" style="fill:#191919"/><path d="M147.62,5.09,156.08.2a2.61,2.61,0,0,0,.3-.2h-8.86V4.89a1.94,1.94,0,0,0,0,.24Z" style="fill:#191919"/><path d="M121.08,5.09,129.55.2a2.51,2.51,0,0,0,.29-.2H121V4.89a1.93,1.93,0,0,0,0,.24Z" style="fill:#191919"/><path d="M104.58,32.75l-8.47,4.89a3.7,3.7,0,0,0-1.66,2.88V50.3c0,.07,0,.15,0,.23l.08,0L103,45.61l.29-.2a3.73,3.73,0,0,0,1.37-2.68V33a1.93,1.93,0,0,0,0-.24Z" style="fill:#191919"/><path d="M78,32.75l-8.46,4.89a3.68,3.68,0,0,0-1.67,2.88V50.3a2,2,0,0,0,0,.23l.08,0,8.46-4.89.3-.2a3.77,3.77,0,0,0,1.37-2.68V33a1.94,1.94,0,0,0,0-.24Z" style="fill:#191919"/><path d="M91.31,10.05l-8.46,4.88a3.7,3.7,0,0,0-1.67,2.89v9.77a1.94,1.94,0,0,0,0,.24l.07,0,8.47-4.88A3.69,3.69,0,0,0,91.4,20V10.25a1.93,1.93,0,0,0,0-.24Z" style="fill:#191919"/><path d="M64.78,10.05l-8.47,4.88a3.69,3.69,0,0,0-1.66,2.89v9.77a1.93,1.93,0,0,0,0,.24l.08,0,8.46-4.88A3.7,3.7,0,0,0,64.87,20V10.25a1.94,1.94,0,0,0,0-.24Z" style="fill:#191919"/><path d="M94.54,5.09,103,.2a1.87,1.87,0,0,0,.29-.2H94.45V4.89c0,.08,0,.16,0,.24Z" style="fill:#191919"/><path d="M68,5.09,76.47.2a2.61,2.61,0,0,0,.3-.2H67.91V4.89a1.94,1.94,0,0,0,0,.24A.2.2,0,0,1,68,5.09Z" style="fill:#191919"/><path d="M51.51,32.75,43,37.64a3.7,3.7,0,0,0-1.66,2.88V50.3a1.85,1.85,0,0,0,0,.23l.08,0,8.47-4.89.29-.2a3.73,3.73,0,0,0,1.37-2.68V33c0-.08,0-.16,0-.24Z" style="fill:#191919"/><path d="M25,32.75,16.5,37.64a3.7,3.7,0,0,0-1.66,2.88V50.3c0,.07,0,.15,0,.23l.08,0,8.47-4.89.29-.2a3.73,3.73,0,0,0,1.37-2.68V33a1.93,1.93,0,0,0,0-.24Z" style="fill:#191919"/><path d="M38.24,10.05l-8.47,4.88a3.71,3.71,0,0,0-1.66,2.89v9.77a1.93,1.93,0,0,0,0,.24.2.2,0,0,0,.08,0l8.47-4.88A3.71,3.71,0,0,0,38.33,20V10.25a1.93,1.93,0,0,0,0-.24A.2.2,0,0,0,38.24,10.05Z" style="fill:#191919"/><path d="M11.7,10.05,3.24,14.93a3.7,3.7,0,0,0-1.67,2.89v9.77a1.94,1.94,0,0,0,0,.24l.07,0,8.47-4.88A3.69,3.69,0,0,0,11.79,20V10.25a1.93,1.93,0,0,0,0-.24Z" style="fill:#191919"/><path d="M41.47,5.09,49.94.2a2.51,2.51,0,0,0,.29-.2H41.38V4.89a1.93,1.93,0,0,0,0,.24Z" style="fill:#191919"/><path d="M14.93,5.09,23.4.2a1.87,1.87,0,0,0,.29-.2H14.84V4.89c0,.08,0,.16,0,.24Z" style="fill:#191919"/><path d="M306.84,252.22a3.69,3.69,0,0,0-3.33,0L295,257.11a1.67,1.67,0,0,0-.24.16,2.62,2.62,0,0,0,.34.24l8.47,4.89a3.66,3.66,0,0,0,3.32,0l8.47-4.89.24-.16a1.51,1.51,0,0,0-.34-.24Z" style="fill:#191919"/><path d="M280.3,252.22a3.69,3.69,0,0,0-3.33,0l-8.47,4.89a1.67,1.67,0,0,0-.24.16,3.53,3.53,0,0,0,.34.24l8.47,4.89a3.69,3.69,0,0,0,3.33,0l8.46-4.89.25-.16a1.77,1.77,0,0,0-.34-.24Z" style="fill:#191919"/><path d="M308.31,234.4l-.25.17a3.64,3.64,0,0,0,.35.24l8.46,4.88a3.48,3.48,0,0,0,1.57.4v-11a3.42,3.42,0,0,0-1.66.39Z" style="fill:#191919"/><path d="M302.38,234.64a3.64,3.64,0,0,0-.35-.24l-8.46-4.89a3.75,3.75,0,0,0-3.33,0l-8.47,4.89-.24.17a2.62,2.62,0,0,0,.34.24l8.47,4.88a3.69,3.69,0,0,0,3.33,0l8.46-4.88Z" style="fill:#191919"/><path d="M275.84,234.64a3.53,3.53,0,0,0-.34-.24L267,229.51a3.75,3.75,0,0,0-3.33,0l-8.46,4.89a2.2,2.2,0,0,0-.25.17,3.53,3.53,0,0,0,.34.24l8.47,4.88a3.44,3.44,0,0,0,1.57.4,3.49,3.49,0,0,0,1.76-.4l8.47-4.88Z" style="fill:#191919"/><path d="M253.76,252.22a3.69,3.69,0,0,0-3.33,0L242,257.11a1.75,1.75,0,0,0-.25.16,2.71,2.71,0,0,0,.35.24l8.46,4.89a3.69,3.69,0,0,0,3.33,0l8.47-4.89.24-.16a1.51,1.51,0,0,0-.34-.24Z" style="fill:#191919"/><path d="M227.23,252.22a3.69,3.69,0,0,0-3.33,0l-8.47,4.89a1.67,1.67,0,0,0-.24.16,2.62,2.62,0,0,0,.34.24L224,262.4a3.66,3.66,0,0,0,3.32,0l8.47-4.89.24-.16a1.51,1.51,0,0,0-.34-.24Z" style="fill:#191919"/><path d="M249.3,234.64a2.62,2.62,0,0,0-.34-.24l-8.47-4.89a3.73,3.73,0,0,0-3.32,0l-8.47,4.89-.24.17a2.62,2.62,0,0,0,.34.24l8.46,4.88a3.69,3.69,0,0,0,3.33,0l8.47-4.88Z" style="fill:#191919"/><path d="M222.77,234.64a2.71,2.71,0,0,0-.35-.24L214,229.51a3.75,3.75,0,0,0-3.33,0l-8.47,4.89-.24.17a2.62,2.62,0,0,0,.34.24l8.47,4.88a3.4,3.4,0,0,0,1.56.4,3.53,3.53,0,0,0,1.77-.4l8.46-4.88A2.2,2.2,0,0,0,222.77,234.64Z" style="fill:#191919"/><path d="M200.69,252.22a3.69,3.69,0,0,0-3.33,0l-8.47,4.89a1.67,1.67,0,0,0-.24.16,3.53,3.53,0,0,0,.34.24l8.47,4.89a3.69,3.69,0,0,0,3.33,0l8.46-4.89.25-.16a1.77,1.77,0,0,0-.34-.24Z" style="fill:#191919"/><path d="M174.15,252.22a3.69,3.69,0,0,0-3.33,0l-8.46,4.89a1.75,1.75,0,0,0-.25.16,2.71,2.71,0,0,0,.35.24l8.46,4.89a3.69,3.69,0,0,0,3.33,0l8.47-4.89.24-.16a1.51,1.51,0,0,0-.34-.24Z" style="fill:#191919"/><path d="M196.23,234.64a3.53,3.53,0,0,0-.34-.24l-8.47-4.89a3.75,3.75,0,0,0-3.33,0l-8.46,4.89a2.2,2.2,0,0,0-.25.17,3.53,3.53,0,0,0,.34.24l8.47,4.88a3.69,3.69,0,0,0,3.33,0l8.47-4.88Z" style="fill:#191919"/><path d="M169.69,234.64a2.62,2.62,0,0,0-.34-.24l-8.47-4.89a3.73,3.73,0,0,0-3.32,0l-8.47,4.89-.24.17a2.62,2.62,0,0,0,.34.24l8.46,4.88a3.66,3.66,0,0,0,3.33,0l8.47-4.88Z" style="fill:#191919"/><path d="M147.62,252.22a3.69,3.69,0,0,0-3.33,0l-8.47,4.89a1.67,1.67,0,0,0-.24.16,2.62,2.62,0,0,0,.34.24l8.47,4.89a3.66,3.66,0,0,0,3.32,0l8.47-4.89.24-.16a1.51,1.51,0,0,0-.34-.24Z" style="fill:#191919"/><path d="M121.08,252.22a3.69,3.69,0,0,0-3.33,0l-8.47,4.89a1.67,1.67,0,0,0-.24.16,3.53,3.53,0,0,0,.34.24l8.47,4.89a3.69,3.69,0,0,0,3.33,0l8.46-4.89.25-.16a1.77,1.77,0,0,0-.34-.24Z" style="fill:#191919"/><path d="M143.16,234.64a2.71,2.71,0,0,0-.35-.24l-8.46-4.89a3.75,3.75,0,0,0-3.33,0l-8.47,4.89-.24.17a2.62,2.62,0,0,0,.34.24l8.47,4.88a3.69,3.69,0,0,0,3.33,0l8.46-4.88A2.2,2.2,0,0,0,143.16,234.64Z" style="fill:#191919"/><path d="M116.62,234.64a3.53,3.53,0,0,0-.34-.24l-8.47-4.89a3.75,3.75,0,0,0-3.33,0L96,234.4a2.2,2.2,0,0,0-.25.17,3.53,3.53,0,0,0,.34.24l8.47,4.88a3.44,3.44,0,0,0,1.57.4,3.49,3.49,0,0,0,1.76-.4l8.47-4.88Z" style="fill:#191919"/><path d="M94.54,252.22a3.69,3.69,0,0,0-3.33,0l-8.46,4.89a1.32,1.32,0,0,0-.25.16,2.71,2.71,0,0,0,.35.24l8.46,4.89a3.69,3.69,0,0,0,3.33,0l8.47-4.89.24-.16a1.51,1.51,0,0,0-.34-.24Z" style="fill:#191919"/><path d="M68,252.22a3.69,3.69,0,0,0-3.33,0l-8.47,4.89a1.67,1.67,0,0,0-.24.16,2.62,2.62,0,0,0,.34.24l8.47,4.89a3.66,3.66,0,0,0,3.32,0l8.47-4.89.24-.16a1.51,1.51,0,0,0-.34-.24Z" style="fill:#191919"/><path d="M90.08,234.64a2.62,2.62,0,0,0-.34-.24l-8.47-4.89a3.73,3.73,0,0,0-3.32,0l-8.47,4.89-.24.17a2.62,2.62,0,0,0,.34.24L78,239.69a3.69,3.69,0,0,0,3.33,0l8.47-4.88Z" style="fill:#191919"/><path d="M63.55,234.64a2.71,2.71,0,0,0-.35-.24l-8.46-4.89a3.75,3.75,0,0,0-3.33,0l-8.47,4.89-.24.17a2.62,2.62,0,0,0,.34.24l8.47,4.88a3.4,3.4,0,0,0,1.56.4,3.53,3.53,0,0,0,1.77-.4l8.46-4.88A2.2,2.2,0,0,0,63.55,234.64Z" style="fill:#191919"/><path d="M41.47,252.22a3.69,3.69,0,0,0-3.33,0l-8.47,4.89a1.67,1.67,0,0,0-.24.16,3.53,3.53,0,0,0,.34.24l8.47,4.89a3.69,3.69,0,0,0,3.33,0L50,257.51l.25-.16a1.77,1.77,0,0,0-.34-.24Z" style="fill:#191919"/><path d="M14.93,252.22a3.69,3.69,0,0,0-3.33,0l-8.46,4.89a1.32,1.32,0,0,0-.25.16,2.71,2.71,0,0,0,.35.24l8.46,4.89a3.69,3.69,0,0,0,3.33,0l8.47-4.89.24-.16a1.51,1.51,0,0,0-.34-.24Z" style="fill:#191919"/><path d="M37,234.64a3.53,3.53,0,0,0-.34-.24l-8.47-4.89a3.75,3.75,0,0,0-3.33,0l-8.46,4.89a2.2,2.2,0,0,0-.25.17,3.53,3.53,0,0,0,.34.24L25,239.69a3.69,3.69,0,0,0,3.33,0l8.47-4.88Z" style="fill:#191919"/><path d="M10.47,234.64a2.62,2.62,0,0,0-.34-.24l-8.47-4.89A3.42,3.42,0,0,0,0,229.12v11a3.47,3.47,0,0,0,1.76-.4l8.47-4.88Z" style="fill:#191919"/><path d="M303.61,217a3.66,3.66,0,0,0,3.32,0l8.47-4.89.24-.16a2.62,2.62,0,0,0-.34-.24l-8.46-4.89a3.69,3.69,0,0,0-3.33,0L295,211.7l-.24.16a2.62,2.62,0,0,0,.34.24Z" style="fill:#191919"/><path d="M277.07,217a3.69,3.69,0,0,0,3.33,0l8.46-4.89.25-.16a3.53,3.53,0,0,0-.34-.24l-8.47-4.89a3.69,3.69,0,0,0-3.33,0l-8.47,4.89-.24.16a3.53,3.53,0,0,0,.34.24Z" style="fill:#191919"/><path d="M308.31,189a1.75,1.75,0,0,0-.25.16,3.64,3.64,0,0,0,.35.24l8.46,4.89a3.47,3.47,0,0,0,1.57.39v-11a3.32,3.32,0,0,0-1.66.4Z" style="fill:#191919"/><path d="M293.67,194.29l8.46-4.89.25-.17A2.33,2.33,0,0,0,302,189l-8.46-4.89a3.69,3.69,0,0,0-3.33,0L281.77,189a1.67,1.67,0,0,0-.24.16,2.62,2.62,0,0,0,.34.24l8.47,4.89A3.69,3.69,0,0,0,293.67,194.29Z" style="fill:#191919"/><path d="M250.53,217a3.69,3.69,0,0,0,3.33,0l8.47-4.89.24-.16a2.62,2.62,0,0,0-.34-.24l-8.47-4.89a3.69,3.69,0,0,0-3.33,0L242,211.7l-.25.16a2.71,2.71,0,0,0,.35.24Z" style="fill:#191919"/><path d="M224,217a3.66,3.66,0,0,0,3.32,0l8.47-4.89.24-.16a2.62,2.62,0,0,0-.34-.24l-8.46-4.89a3.69,3.69,0,0,0-3.33,0l-8.47,4.89-.24.16a2.62,2.62,0,0,0,.34.24Z" style="fill:#191919"/><path d="M265.37,194.68a3.49,3.49,0,0,0,1.76-.39l8.47-4.89.24-.17a2.26,2.26,0,0,0-.34-.23L267,184.11a3.67,3.67,0,0,0-3.33,0L255.24,189a1.32,1.32,0,0,0-.25.16,3.53,3.53,0,0,0,.34.24l8.47,4.89A3.44,3.44,0,0,0,265.37,194.68Z" style="fill:#191919"/><path d="M240.59,194.29l8.47-4.89.24-.17A1.85,1.85,0,0,0,249,189l-8.47-4.89a3.66,3.66,0,0,0-3.32,0L228.7,189a1.67,1.67,0,0,0-.24.16,2.62,2.62,0,0,0,.34.24l8.46,4.89A3.69,3.69,0,0,0,240.59,194.29Z" style="fill:#191919"/><path d="M197.46,217a3.69,3.69,0,0,0,3.33,0l8.46-4.89.25-.16a3.53,3.53,0,0,0-.34-.24l-8.47-4.89a3.69,3.69,0,0,0-3.33,0l-8.47,4.89-.24.16a3.53,3.53,0,0,0,.34.24Z" style="fill:#191919"/><path d="M170.92,217a3.69,3.69,0,0,0,3.33,0l8.47-4.89.24-.16a2.62,2.62,0,0,0-.34-.24l-8.47-4.89a3.69,3.69,0,0,0-3.33,0l-8.46,4.89-.25.16a2.71,2.71,0,0,0,.35.24Z" style="fill:#191919"/><path d="M212.29,194.68a3.53,3.53,0,0,0,1.77-.39l8.46-4.89a2.2,2.2,0,0,0,.25-.17,1.92,1.92,0,0,0-.35-.23L214,184.11a3.67,3.67,0,0,0-3.33,0L202.16,189a1.67,1.67,0,0,0-.24.16,2.62,2.62,0,0,0,.34.24l8.47,4.89A3.4,3.4,0,0,0,212.29,194.68Z" style="fill:#191919"/><path d="M187.52,194.29,196,189.4l.24-.17a2.26,2.26,0,0,0-.34-.23l-8.47-4.89a3.69,3.69,0,0,0-3.33,0L175.63,189a1.32,1.32,0,0,0-.25.16,3.53,3.53,0,0,0,.34.24l8.47,4.89A3.69,3.69,0,0,0,187.52,194.29Z" style="fill:#191919"/><path d="M144.39,217a3.66,3.66,0,0,0,3.32,0l8.47-4.89.24-.16a2.62,2.62,0,0,0-.34-.24l-8.46-4.89a3.69,3.69,0,0,0-3.33,0l-8.47,4.89-.24.16a2.62,2.62,0,0,0,.34.24Z" style="fill:#191919"/><path d="M117.85,217a3.69,3.69,0,0,0,3.33,0l8.46-4.89.25-.16a3.53,3.53,0,0,0-.34-.24l-8.47-4.89a3.69,3.69,0,0,0-3.33,0l-8.47,4.89-.24.16a3.53,3.53,0,0,0,.34.24Z" style="fill:#191919"/><path d="M159.22,194.68a3.46,3.46,0,0,0,1.76-.39l8.47-4.89.24-.17a1.85,1.85,0,0,0-.34-.23l-8.47-4.89a3.64,3.64,0,0,0-3.32,0L149.09,189a1.67,1.67,0,0,0-.24.16,2.62,2.62,0,0,0,.34.24l8.46,4.89A3.47,3.47,0,0,0,159.22,194.68Z" style="fill:#191919"/><path d="M134.45,194.29l8.46-4.89a2.2,2.2,0,0,0,.25-.17,1.92,1.92,0,0,0-.35-.23l-8.46-4.89a3.69,3.69,0,0,0-3.33,0L122.55,189a1.67,1.67,0,0,0-.24.16,2.62,2.62,0,0,0,.34.24l8.47,4.89A3.69,3.69,0,0,0,134.45,194.29Z" style="fill:#191919"/><path d="M91.31,217a3.69,3.69,0,0,0,3.33,0l8.47-4.89.24-.16a2.62,2.62,0,0,0-.34-.24l-8.47-4.89a3.69,3.69,0,0,0-3.33,0l-8.46,4.89-.25.16a2.71,2.71,0,0,0,.35.24Z" style="fill:#191919"/><path d="M64.78,217a3.66,3.66,0,0,0,3.32,0l8.47-4.89.24-.16a2.62,2.62,0,0,0-.34-.24L68,206.81a3.69,3.69,0,0,0-3.33,0l-8.47,4.89-.24.16a2.62,2.62,0,0,0,.34.24Z" style="fill:#191919"/><path d="M106.15,194.68a3.49,3.49,0,0,0,1.76-.39l8.47-4.89.24-.17a2.26,2.26,0,0,0-.34-.23l-8.47-4.89a3.67,3.67,0,0,0-3.33,0L96,189a1.32,1.32,0,0,0-.25.16,3.53,3.53,0,0,0,.34.24l8.47,4.89A3.44,3.44,0,0,0,106.15,194.68Z" style="fill:#191919"/><path d="M81.37,194.29l8.47-4.89.24-.17a1.85,1.85,0,0,0-.34-.23l-8.47-4.89a3.66,3.66,0,0,0-3.32,0L69.48,189a1.67,1.67,0,0,0-.24.16,2.62,2.62,0,0,0,.34.24L78,194.29A3.69,3.69,0,0,0,81.37,194.29Z" style="fill:#191919"/><path d="M38.24,217a3.69,3.69,0,0,0,3.33,0L50,212.1l.25-.16a3.53,3.53,0,0,0-.34-.24l-8.47-4.89a3.69,3.69,0,0,0-3.33,0l-8.47,4.89-.24.16a3.53,3.53,0,0,0,.34.24Z" style="fill:#191919"/><path d="M2.89,211.86a2.71,2.71,0,0,0,.35.24L11.7,217A3.69,3.69,0,0,0,15,217l8.47-4.89.24-.16a2.62,2.62,0,0,0-.34-.24l-8.47-4.89a3.69,3.69,0,0,0-3.33,0L3.14,211.7Z" style="fill:#191919"/><path d="M53.07,194.68a3.53,3.53,0,0,0,1.77-.39l8.46-4.89a2.2,2.2,0,0,0,.25-.17,1.92,1.92,0,0,0-.35-.23l-8.46-4.89a3.67,3.67,0,0,0-3.33,0L42.94,189a1.67,1.67,0,0,0-.24.16,2.62,2.62,0,0,0,.34.24l8.47,4.89A3.4,3.4,0,0,0,53.07,194.68Z" style="fill:#191919"/><path d="M28.3,194.29l8.47-4.89.24-.17a2.26,2.26,0,0,0-.34-.23l-8.47-4.89a3.69,3.69,0,0,0-3.33,0L16.41,189a1.32,1.32,0,0,0-.25.16,3.53,3.53,0,0,0,.34.24L25,194.29A3.69,3.69,0,0,0,28.3,194.29Z" style="fill:#191919"/><path d="M10.23,189.4l.24-.17a1.85,1.85,0,0,0-.34-.23l-8.47-4.89a3.32,3.32,0,0,0-1.66-.4v11a3.46,3.46,0,0,0,1.76-.39Z" style="fill:#191919"/><path d="M315.64,166.53a2.62,2.62,0,0,0-.34-.24l-8.46-4.89a3.75,3.75,0,0,0-3.33,0L295,166.29l-.24.17a2.62,2.62,0,0,0,.34.24l8.47,4.88a3.66,3.66,0,0,0,3.32,0l8.47-4.88Z" style="fill:#191919"/><path d="M277.07,171.58a3.69,3.69,0,0,0,3.33,0l8.46-4.88a2.2,2.2,0,0,0,.25-.17,3.53,3.53,0,0,0-.34-.24l-8.47-4.89a3.75,3.75,0,0,0-3.33,0l-8.47,4.89-.24.17a3.53,3.53,0,0,0,.34.24Z" style="fill:#191919"/><path d="M308.31,143.59l-.25.16a3.64,3.64,0,0,0,.35.24l8.46,4.89a3.35,3.35,0,0,0,1.57.39v-11a3.43,3.43,0,0,0-1.66.4Z" style="fill:#191919"/><path d="M293.67,148.88l8.46-4.89.25-.16a3.64,3.64,0,0,0-.35-.24l-8.46-4.89a3.69,3.69,0,0,0-3.33,0l-8.47,4.89-.24.16a2.62,2.62,0,0,0,.34.24l8.47,4.89A3.69,3.69,0,0,0,293.67,148.88Z" style="fill:#191919"/><path d="M250.53,171.58a3.69,3.69,0,0,0,3.33,0l8.47-4.88.24-.17a2.62,2.62,0,0,0-.34-.24l-8.47-4.89a3.75,3.75,0,0,0-3.33,0L242,166.29l-.25.17a2.71,2.71,0,0,0,.35.24Z" style="fill:#191919"/><path d="M224,171.58a3.66,3.66,0,0,0,3.32,0l8.47-4.88.24-.17a2.62,2.62,0,0,0-.34-.24l-8.46-4.89a3.75,3.75,0,0,0-3.33,0l-8.47,4.89-.24.17a2.62,2.62,0,0,0,.34.24Z" style="fill:#191919"/><path d="M265.37,149.27a3.39,3.39,0,0,0,1.76-.39L275.6,144l.24-.16a3.53,3.53,0,0,0-.34-.24L267,138.7a3.67,3.67,0,0,0-3.33,0l-8.46,4.89-.25.16a3.53,3.53,0,0,0,.34.24l8.47,4.89A3.32,3.32,0,0,0,265.37,149.27Z" style="fill:#191919"/><path d="M240.59,148.88l8.47-4.89.24-.16a2.62,2.62,0,0,0-.34-.24l-8.47-4.89a3.66,3.66,0,0,0-3.32,0l-8.47,4.89-.24.16a2.62,2.62,0,0,0,.34.24l8.46,4.89A3.69,3.69,0,0,0,240.59,148.88Z" style="fill:#191919"/><path d="M197.46,171.58a3.69,3.69,0,0,0,3.33,0l8.46-4.88a2.2,2.2,0,0,0,.25-.17,3.53,3.53,0,0,0-.34-.24l-8.47-4.89a3.75,3.75,0,0,0-3.33,0l-8.47,4.89-.24.17a3.53,3.53,0,0,0,.34.24Z" style="fill:#191919"/><path d="M170.92,171.58a3.69,3.69,0,0,0,3.33,0l8.47-4.88.24-.17a2.62,2.62,0,0,0-.34-.24l-8.47-4.89a3.75,3.75,0,0,0-3.33,0l-8.46,4.89-.25.17a2.71,2.71,0,0,0,.35.24Z" style="fill:#191919"/><path d="M212.29,149.27a3.42,3.42,0,0,0,1.77-.39l8.46-4.89.25-.16a2.71,2.71,0,0,0-.35-.24L214,138.7a3.67,3.67,0,0,0-3.33,0l-8.47,4.89-.24.16a2.62,2.62,0,0,0,.34.24l8.47,4.89A3.28,3.28,0,0,0,212.29,149.27Z" style="fill:#191919"/><path d="M187.52,148.88,196,144l.24-.16a3.53,3.53,0,0,0-.34-.24l-8.47-4.89a3.69,3.69,0,0,0-3.33,0l-8.46,4.89-.25.16a3.53,3.53,0,0,0,.34.24l8.47,4.89A3.69,3.69,0,0,0,187.52,148.88Z" style="fill:#191919"/><path d="M144.39,171.58a3.66,3.66,0,0,0,3.32,0l8.47-4.88.24-.17a2.62,2.62,0,0,0-.34-.24l-8.46-4.89a3.75,3.75,0,0,0-3.33,0l-8.47,4.89-.24.17a2.62,2.62,0,0,0,.34.24Z" style="fill:#191919"/><path d="M117.85,171.58a3.69,3.69,0,0,0,3.33,0l8.46-4.88a2.2,2.2,0,0,0,.25-.17,3.53,3.53,0,0,0-.34-.24l-8.47-4.89a3.75,3.75,0,0,0-3.33,0l-8.47,4.89-.24.17a3.53,3.53,0,0,0,.34.24Z" style="fill:#191919"/><path d="M159.22,149.27a3.36,3.36,0,0,0,1.76-.39l8.47-4.89.24-.16a2.62,2.62,0,0,0-.34-.24l-8.47-4.89a3.64,3.64,0,0,0-3.32,0l-8.47,4.89-.24.16a2.62,2.62,0,0,0,.34.24l8.46,4.89A3.35,3.35,0,0,0,159.22,149.27Z" style="fill:#191919"/><path d="M134.45,148.88l8.46-4.89.25-.16a2.71,2.71,0,0,0-.35-.24l-8.46-4.89a3.69,3.69,0,0,0-3.33,0l-8.47,4.89-.24.16a2.62,2.62,0,0,0,.34.24l8.47,4.89A3.69,3.69,0,0,0,134.45,148.88Z" style="fill:#191919"/><path d="M91.31,171.58a3.69,3.69,0,0,0,3.33,0l8.47-4.88.24-.17a2.62,2.62,0,0,0-.34-.24l-8.47-4.89a3.75,3.75,0,0,0-3.33,0l-8.46,4.89a2.2,2.2,0,0,0-.25.17,2.71,2.71,0,0,0,.35.24Z" style="fill:#191919"/><path d="M64.78,171.58a3.66,3.66,0,0,0,3.32,0l8.47-4.88.24-.17a2.62,2.62,0,0,0-.34-.24L68,161.4a3.75,3.75,0,0,0-3.33,0l-8.47,4.89-.24.17a2.62,2.62,0,0,0,.34.24Z" style="fill:#191919"/><path d="M106.15,149.27a3.39,3.39,0,0,0,1.76-.39l8.47-4.89.24-.16a3.53,3.53,0,0,0-.34-.24l-8.47-4.89a3.67,3.67,0,0,0-3.33,0L96,143.59l-.25.16a3.53,3.53,0,0,0,.34.24l8.47,4.89A3.32,3.32,0,0,0,106.15,149.27Z" style="fill:#191919"/><path d="M81.37,148.88,89.84,144l.24-.16a2.62,2.62,0,0,0-.34-.24l-8.47-4.89a3.66,3.66,0,0,0-3.32,0l-8.47,4.89-.24.16a2.62,2.62,0,0,0,.34.24L78,148.88A3.69,3.69,0,0,0,81.37,148.88Z" style="fill:#191919"/><path d="M38.24,171.58a3.69,3.69,0,0,0,3.33,0L50,166.7a2.2,2.2,0,0,0,.25-.17,3.53,3.53,0,0,0-.34-.24l-8.47-4.89a3.75,3.75,0,0,0-3.33,0l-8.47,4.89-.24.17a3.53,3.53,0,0,0,.34.24Z" style="fill:#191919"/><path d="M2.89,166.46a2.71,2.71,0,0,0,.35.24l8.46,4.88a3.69,3.69,0,0,0,3.33,0l8.47-4.88.24-.17a2.62,2.62,0,0,0-.34-.24l-8.47-4.89a3.75,3.75,0,0,0-3.33,0l-8.46,4.89A2.2,2.2,0,0,0,2.89,166.46Z" style="fill:#191919"/><path d="M53.07,149.27a3.42,3.42,0,0,0,1.77-.39L63.3,144l.25-.16a2.71,2.71,0,0,0-.35-.24l-8.46-4.89a3.67,3.67,0,0,0-3.33,0l-8.47,4.89-.24.16A2.62,2.62,0,0,0,43,144l8.47,4.89A3.28,3.28,0,0,0,53.07,149.27Z" style="fill:#191919"/><path d="M16.16,143.75a3.53,3.53,0,0,0,.34.24L25,148.88a3.69,3.69,0,0,0,3.33,0L36.77,144l.24-.16a3.53,3.53,0,0,0-.34-.24L28.2,138.7a3.69,3.69,0,0,0-3.33,0l-8.46,4.89Z" style="fill:#191919"/><path d="M10.23,144l.24-.16a2.62,2.62,0,0,0-.34-.24L1.66,138.7A3.43,3.43,0,0,0,0,138.3v11a3.36,3.36,0,0,0,1.76-.39Z" style="fill:#191919"/><path d="M315.64,121.12a2.62,2.62,0,0,0-.34-.24L306.84,116a3.69,3.69,0,0,0-3.33,0L295,120.88l-.24.17a2.62,2.62,0,0,0,.34.24l8.47,4.89a3.73,3.73,0,0,0,3.32,0l8.47-4.89Z" style="fill:#191919"/><path d="M268.26,121.05a3.53,3.53,0,0,0,.34.24l8.47,4.89a3.75,3.75,0,0,0,3.33,0l8.46-4.89a2.2,2.2,0,0,0,.25-.17,3.53,3.53,0,0,0-.34-.24L280.3,116a3.69,3.69,0,0,0-3.33,0l-8.47,4.88Z" style="fill:#191919"/><path d="M308.31,98.18a1.84,1.84,0,0,0-.25.17,2.33,2.33,0,0,0,.35.23l8.46,4.89a3.35,3.35,0,0,0,1.57.39v-11a3.42,3.42,0,0,0-1.66.39Z" style="fill:#191919"/><path d="M302.38,98.42a3.64,3.64,0,0,0-.35-.24l-8.46-4.89a3.69,3.69,0,0,0-3.33,0l-8.47,4.89a1.77,1.77,0,0,0-.24.17,1.85,1.85,0,0,0,.34.23l8.47,4.89a3.69,3.69,0,0,0,3.33,0l8.46-4.89A1.75,1.75,0,0,0,302.38,98.42Z" style="fill:#191919"/><path d="M267,93.29a3.75,3.75,0,0,0-3.33,0l-8.46,4.89a1.38,1.38,0,0,0-.25.17,2.26,2.26,0,0,0,.34.23l8.47,4.89a3.32,3.32,0,0,0,1.57.39,3.39,3.39,0,0,0,1.76-.39l8.47-4.89a1.67,1.67,0,0,0,.24-.16,3.53,3.53,0,0,0-.34-.24Z" style="fill:#191919"/><path d="M250.43,116,242,120.88l-.25.17a2.71,2.71,0,0,0,.35.24l8.46,4.89a3.75,3.75,0,0,0,3.33,0l8.47-4.89.24-.17a2.62,2.62,0,0,0-.34-.24L253.76,116A3.69,3.69,0,0,0,250.43,116Z" style="fill:#191919"/><path d="M223.9,116l-8.47,4.88-.24.17a2.62,2.62,0,0,0,.34.24l8.47,4.89a3.73,3.73,0,0,0,3.32,0l8.47-4.89.24-.17a2.62,2.62,0,0,0-.34-.24L227.23,116A3.69,3.69,0,0,0,223.9,116Z" style="fill:#191919"/><path d="M240.49,93.29a3.66,3.66,0,0,0-3.32,0l-8.47,4.89a1.77,1.77,0,0,0-.24.17,1.85,1.85,0,0,0,.34.23l8.46,4.89a3.69,3.69,0,0,0,3.33,0l8.47-4.89a1.67,1.67,0,0,0,.24-.16,2.62,2.62,0,0,0-.34-.24Z" style="fill:#191919"/><path d="M214,93.29a3.75,3.75,0,0,0-3.33,0l-8.47,4.89a1.77,1.77,0,0,0-.24.17,1.85,1.85,0,0,0,.34.23l8.47,4.89a3.28,3.28,0,0,0,1.56.39,3.42,3.42,0,0,0,1.77-.39l8.46-4.89a1.32,1.32,0,0,0,.25-.16,2.71,2.71,0,0,0-.35-.24Z" style="fill:#191919"/><path d="M197.36,116l-8.47,4.88-.24.17a3.53,3.53,0,0,0,.34.24l8.47,4.89a3.75,3.75,0,0,0,3.33,0l8.46-4.89a2.2,2.2,0,0,0,.25-.17,3.53,3.53,0,0,0-.34-.24L200.69,116A3.69,3.69,0,0,0,197.36,116Z" style="fill:#191919"/><path d="M170.82,116l-8.46,4.88-.25.17a2.71,2.71,0,0,0,.35.24l8.46,4.89a3.75,3.75,0,0,0,3.33,0l8.47-4.89.24-.17a2.62,2.62,0,0,0-.34-.24L174.15,116A3.69,3.69,0,0,0,170.82,116Z" style="fill:#191919"/><path d="M187.42,93.29a3.69,3.69,0,0,0-3.33,0l-8.46,4.89a1.38,1.38,0,0,0-.25.17,2.26,2.26,0,0,0,.34.23l8.47,4.89a3.69,3.69,0,0,0,3.33,0L196,98.58a1.67,1.67,0,0,0,.24-.16,3.53,3.53,0,0,0-.34-.24Z" style="fill:#191919"/><path d="M160.88,93.29a3.73,3.73,0,0,0-3.32,0l-8.47,4.89a1.77,1.77,0,0,0-.24.17,1.85,1.85,0,0,0,.34.23l8.46,4.89a3.74,3.74,0,0,0,3.33,0l8.47-4.89a1.67,1.67,0,0,0,.24-.16,2.62,2.62,0,0,0-.34-.24Z" style="fill:#191919"/><path d="M144.29,116l-8.47,4.88-.24.17a2.62,2.62,0,0,0,.34.24l8.47,4.89a3.73,3.73,0,0,0,3.32,0l8.47-4.89.24-.17a2.62,2.62,0,0,0-.34-.24L147.62,116A3.69,3.69,0,0,0,144.29,116Z" style="fill:#191919"/><path d="M117.75,116l-8.47,4.88-.24.17a3.53,3.53,0,0,0,.34.24l8.47,4.89a3.75,3.75,0,0,0,3.33,0l8.46-4.89a2.2,2.2,0,0,0,.25-.17,3.53,3.53,0,0,0-.34-.24L121.08,116A3.69,3.69,0,0,0,117.75,116Z" style="fill:#191919"/><path d="M134.35,93.29a3.69,3.69,0,0,0-3.33,0l-8.47,4.89a1.77,1.77,0,0,0-.24.17,1.85,1.85,0,0,0,.34.23l8.47,4.89a3.69,3.69,0,0,0,3.33,0l8.46-4.89a1.32,1.32,0,0,0,.25-.16,2.71,2.71,0,0,0-.35-.24Z" style="fill:#191919"/><path d="M107.81,93.29a3.75,3.75,0,0,0-3.33,0L96,98.18a1.38,1.38,0,0,0-.25.17,2.26,2.26,0,0,0,.34.23l8.47,4.89a3.32,3.32,0,0,0,1.57.39,3.39,3.39,0,0,0,1.76-.39l8.47-4.89a1.67,1.67,0,0,0,.24-.16,3.53,3.53,0,0,0-.34-.24Z" style="fill:#191919"/><path d="M91.21,116l-8.46,4.88a2.2,2.2,0,0,0-.25.17,2.71,2.71,0,0,0,.35.24l8.46,4.89a3.75,3.75,0,0,0,3.33,0l8.47-4.89.24-.17a2.62,2.62,0,0,0-.34-.24L94.54,116A3.69,3.69,0,0,0,91.21,116Z" style="fill:#191919"/><path d="M64.68,116l-8.47,4.88-.24.17a2.62,2.62,0,0,0,.34.24l8.47,4.89a3.73,3.73,0,0,0,3.32,0l8.47-4.89.24-.17a2.62,2.62,0,0,0-.34-.24L68,116A3.69,3.69,0,0,0,64.68,116Z" style="fill:#191919"/><path d="M81.27,93.29a3.66,3.66,0,0,0-3.32,0l-8.47,4.89a1.77,1.77,0,0,0-.24.17,1.85,1.85,0,0,0,.34.23L78,103.47a3.69,3.69,0,0,0,3.33,0l8.47-4.89a1.67,1.67,0,0,0,.24-.16,2.62,2.62,0,0,0-.34-.24Z" style="fill:#191919"/><path d="M54.74,93.29a3.75,3.75,0,0,0-3.33,0l-8.47,4.89a1.77,1.77,0,0,0-.24.17,1.85,1.85,0,0,0,.34.23l8.47,4.89a3.28,3.28,0,0,0,1.56.39,3.42,3.42,0,0,0,1.77-.39l8.46-4.89a1.32,1.32,0,0,0,.25-.16,2.71,2.71,0,0,0-.35-.24Z" style="fill:#191919"/><path d="M38.14,116l-8.47,4.88-.24.17a3.53,3.53,0,0,0,.34.24l8.47,4.89a3.75,3.75,0,0,0,3.33,0L50,121.29a2.2,2.2,0,0,0,.25-.17,3.53,3.53,0,0,0-.34-.24L41.47,116A3.69,3.69,0,0,0,38.14,116Z" style="fill:#191919"/><path d="M2.89,121.05a2.71,2.71,0,0,0,.35.24l8.46,4.89a3.75,3.75,0,0,0,3.33,0l8.47-4.89.24-.17a2.62,2.62,0,0,0-.34-.24L14.93,116a3.69,3.69,0,0,0-3.33,0l-8.46,4.88A2.2,2.2,0,0,0,2.89,121.05Z" style="fill:#191919"/><path d="M28.2,93.29a3.69,3.69,0,0,0-3.33,0l-8.46,4.89a1.38,1.38,0,0,0-.25.17,2.26,2.26,0,0,0,.34.23L25,103.47a3.69,3.69,0,0,0,3.33,0l8.47-4.89a1.67,1.67,0,0,0,.24-.16,3.53,3.53,0,0,0-.34-.24Z" style="fill:#191919"/><path d="M10.23,98.58a1.67,1.67,0,0,0,.24-.16,2.62,2.62,0,0,0-.34-.24L1.66,93.29A3.42,3.42,0,0,0,0,92.9v11a3.36,3.36,0,0,0,1.76-.39Z" style="fill:#191919"/><path d="M315.64,75.72a1.91,1.91,0,0,0-.34-.24l-8.46-4.89a3.69,3.69,0,0,0-3.33,0L295,75.48l-.24.16a2.62,2.62,0,0,0,.34.24l8.47,4.89a3.66,3.66,0,0,0,3.32,0l8.47-4.89Z" style="fill:#191919"/><path d="M277,70.59l-8.47,4.89-.24.16a3.53,3.53,0,0,0,.34.24l8.47,4.89a3.69,3.69,0,0,0,3.33,0l8.46-4.89.25-.16a2.36,2.36,0,0,0-.34-.24l-8.47-4.89A3.69,3.69,0,0,0,277,70.59Z" style="fill:#191919"/><path d="M308.31,52.77l-.25.17a3.64,3.64,0,0,0,.35.24l8.46,4.89a3.47,3.47,0,0,0,1.57.39v-11a3.32,3.32,0,0,0-1.66.4Z" style="fill:#191919"/><path d="M302.38,53a3.64,3.64,0,0,0-.35-.24l-8.46-4.88a3.69,3.69,0,0,0-3.33,0l-8.47,4.88-.24.17a2.62,2.62,0,0,0,.34.24l8.47,4.89a3.75,3.75,0,0,0,3.33,0l8.46-4.89Z" style="fill:#191919"/><path d="M267,47.89a3.67,3.67,0,0,0-3.33,0l-8.46,4.88a2.2,2.2,0,0,0-.25.17,3.53,3.53,0,0,0,.34.24l8.47,4.89a3.44,3.44,0,0,0,1.57.39,3.6,3.6,0,0,0,1.76-.39l8.47-4.89.24-.17a3.53,3.53,0,0,0-.34-.24Z" style="fill:#191919"/><path d="M250.43,70.59,242,75.48l-.25.16a2.71,2.71,0,0,0,.35.24l8.46,4.89a3.69,3.69,0,0,0,3.33,0l8.47-4.89.24-.16a1.91,1.91,0,0,0-.34-.24l-8.47-4.89A3.69,3.69,0,0,0,250.43,70.59Z" style="fill:#191919"/><path d="M223.9,70.59l-8.47,4.89-.24.16a2.62,2.62,0,0,0,.34.24L224,80.77a3.66,3.66,0,0,0,3.32,0l8.47-4.89.24-.16a1.91,1.91,0,0,0-.34-.24l-8.46-4.89A3.69,3.69,0,0,0,223.9,70.59Z" style="fill:#191919"/><path d="M240.49,47.89a3.66,3.66,0,0,0-3.32,0l-8.47,4.88-.24.17a2.62,2.62,0,0,0,.34.24l8.46,4.89a3.75,3.75,0,0,0,3.33,0l8.47-4.89.24-.17a2.62,2.62,0,0,0-.34-.24Z" style="fill:#191919"/><path d="M214,47.89a3.67,3.67,0,0,0-3.33,0l-8.47,4.88-.24.17a2.62,2.62,0,0,0,.34.24l8.47,4.89a3.4,3.4,0,0,0,1.56.39,3.63,3.63,0,0,0,1.77-.39l8.46-4.89a2.2,2.2,0,0,0,.25-.17,2.71,2.71,0,0,0-.35-.24Z" style="fill:#191919"/><path d="M197.36,70.59l-8.47,4.89-.24.16a3.53,3.53,0,0,0,.34.24l8.47,4.89a3.69,3.69,0,0,0,3.33,0l8.46-4.89.25-.16a2.36,2.36,0,0,0-.34-.24l-8.47-4.89A3.69,3.69,0,0,0,197.36,70.59Z" style="fill:#191919"/><path d="M170.82,70.59l-8.46,4.89-.25.16a2.71,2.71,0,0,0,.35.24l8.46,4.89a3.69,3.69,0,0,0,3.33,0l8.47-4.89.24-.16a1.91,1.91,0,0,0-.34-.24l-8.47-4.89A3.69,3.69,0,0,0,170.82,70.59Z" style="fill:#191919"/><path d="M187.42,47.89a3.69,3.69,0,0,0-3.33,0l-8.46,4.88a2.2,2.2,0,0,0-.25.17,3.53,3.53,0,0,0,.34.24l8.47,4.89a3.75,3.75,0,0,0,3.33,0L196,53.18l.24-.17a3.53,3.53,0,0,0-.34-.24Z" style="fill:#191919"/><path d="M160.88,47.89a3.64,3.64,0,0,0-3.32,0l-8.47,4.88-.24.17a2.62,2.62,0,0,0,.34.24l8.46,4.89a3.47,3.47,0,0,0,1.57.39,3.57,3.57,0,0,0,1.76-.39l8.47-4.89.24-.17a2.62,2.62,0,0,0-.34-.24Z" style="fill:#191919"/><path d="M144.29,70.59l-8.47,4.89-.24.16a2.62,2.62,0,0,0,.34.24l8.47,4.89a3.66,3.66,0,0,0,3.32,0l8.47-4.89.24-.16a1.91,1.91,0,0,0-.34-.24l-8.46-4.89A3.69,3.69,0,0,0,144.29,70.59Z" style="fill:#191919"/><path d="M117.75,70.59l-8.47,4.89-.24.16a3.53,3.53,0,0,0,.34.24l8.47,4.89a3.69,3.69,0,0,0,3.33,0l8.46-4.89.25-.16a2.36,2.36,0,0,0-.34-.24l-8.47-4.89A3.69,3.69,0,0,0,117.75,70.59Z" style="fill:#191919"/><path d="M134.35,47.89a3.69,3.69,0,0,0-3.33,0l-8.47,4.88-.24.17a2.62,2.62,0,0,0,.34.24l8.47,4.89a3.75,3.75,0,0,0,3.33,0l8.46-4.89a2.2,2.2,0,0,0,.25-.17,2.71,2.71,0,0,0-.35-.24Z" style="fill:#191919"/><path d="M107.81,47.89a3.67,3.67,0,0,0-3.33,0L96,52.77a2.2,2.2,0,0,0-.25.17,3.53,3.53,0,0,0,.34.24l8.47,4.89a3.44,3.44,0,0,0,1.57.39,3.6,3.6,0,0,0,1.76-.39l8.47-4.89.24-.17a3.53,3.53,0,0,0-.34-.24Z" style="fill:#191919"/><path d="M91.21,70.59l-8.46,4.89-.25.16a2.71,2.71,0,0,0,.35.24l8.46,4.89a3.69,3.69,0,0,0,3.33,0l8.47-4.89.24-.16a1.91,1.91,0,0,0-.34-.24l-8.47-4.89A3.69,3.69,0,0,0,91.21,70.59Z" style="fill:#191919"/><path d="M64.68,70.59l-8.47,4.89-.24.16a2.62,2.62,0,0,0,.34.24l8.47,4.89a3.66,3.66,0,0,0,3.32,0l8.47-4.89.24-.16a1.91,1.91,0,0,0-.34-.24L68,70.59A3.69,3.69,0,0,0,64.68,70.59Z" style="fill:#191919"/><path d="M81.27,47.89a3.66,3.66,0,0,0-3.32,0l-8.47,4.88-.24.17a2.62,2.62,0,0,0,.34.24L78,58.07a3.75,3.75,0,0,0,3.33,0l8.47-4.89.24-.17a2.62,2.62,0,0,0-.34-.24Z" style="fill:#191919"/><path d="M54.74,47.89a3.67,3.67,0,0,0-3.33,0l-8.47,4.88-.24.17a2.62,2.62,0,0,0,.34.24l8.47,4.89a3.4,3.4,0,0,0,1.56.39,3.63,3.63,0,0,0,1.77-.39l8.46-4.89a2.2,2.2,0,0,0,.25-.17,2.71,2.71,0,0,0-.35-.24Z" style="fill:#191919"/><path d="M38.14,70.59l-8.47,4.89-.24.16a3.53,3.53,0,0,0,.34.24l8.47,4.89a3.69,3.69,0,0,0,3.33,0L50,75.88l.25-.16a2.36,2.36,0,0,0-.34-.24l-8.47-4.89A3.69,3.69,0,0,0,38.14,70.59Z" style="fill:#191919"/><path d="M11.6,70.59,3.14,75.48l-.25.16a2.71,2.71,0,0,0,.35.24l8.46,4.89a3.69,3.69,0,0,0,3.33,0l8.47-4.89.24-.16a1.91,1.91,0,0,0-.34-.24l-8.47-4.89A3.69,3.69,0,0,0,11.6,70.59Z" style="fill:#191919"/><path d="M28.2,47.89a3.69,3.69,0,0,0-3.33,0l-8.46,4.88a2.2,2.2,0,0,0-.25.17,3.53,3.53,0,0,0,.34.24L25,58.07a3.75,3.75,0,0,0,3.33,0l8.47-4.89L37,53a3.53,3.53,0,0,0-.34-.24Z" style="fill:#191919"/><path d="M10.23,53.18l.24-.17a2.62,2.62,0,0,0-.34-.24L1.66,47.89A3.32,3.32,0,0,0,0,47.49v11a3.57,3.57,0,0,0,1.76-.39Z" style="fill:#191919"/><path d="M294.8,30.23a1.91,1.91,0,0,0,.34.24l8.47,4.89a3.66,3.66,0,0,0,3.32,0l8.47-4.89a1.67,1.67,0,0,0,.24-.16,2.62,2.62,0,0,0-.34-.24l-8.46-4.89a3.69,3.69,0,0,0-3.33,0L295,30.07Z" style="fill:#191919"/><path d="M268.26,30.23a2.36,2.36,0,0,0,.34.24l8.47,4.89a3.69,3.69,0,0,0,3.33,0l8.46-4.89a1.32,1.32,0,0,0,.25-.16,3.53,3.53,0,0,0-.34-.24l-8.47-4.89a3.69,3.69,0,0,0-3.33,0l-8.47,4.89Z" style="fill:#191919"/><path d="M316.78,2.48l-8.47,4.89a1.75,1.75,0,0,0-.25.16,3.64,3.64,0,0,0,.35.24l8.46,4.89a3.35,3.35,0,0,0,1.57.39v-11A3.32,3.32,0,0,0,316.78,2.48Z" style="fill:#191919"/><path d="M290.34,12.66a3.69,3.69,0,0,0,3.33,0l8.46-4.89.25-.16a1.82,1.82,0,0,0-.35-.24l-8.46-4.89a3.69,3.69,0,0,0-3.33,0l-8.47,4.89a1.67,1.67,0,0,0-.24.16,2.62,2.62,0,0,0,.34.24Z" style="fill:#191919"/><path d="M241.72,30.23a2,2,0,0,0,.35.24l8.46,4.89a3.69,3.69,0,0,0,3.33,0l8.47-4.89a1.67,1.67,0,0,0,.24-.16,2.62,2.62,0,0,0-.34-.24l-8.47-4.89a3.69,3.69,0,0,0-3.33,0L242,30.07Z" style="fill:#191919"/><path d="M215.19,30.23a1.91,1.91,0,0,0,.34.24L224,35.36a3.66,3.66,0,0,0,3.32,0l8.47-4.89a1.67,1.67,0,0,0,.24-.16,2.62,2.62,0,0,0-.34-.24l-8.46-4.89a3.69,3.69,0,0,0-3.33,0l-8.47,4.89Z" style="fill:#191919"/><path d="M263.8,12.66a3.32,3.32,0,0,0,1.57.39,3.49,3.49,0,0,0,1.76-.39l8.47-4.89.24-.16a1.77,1.77,0,0,0-.34-.24L267,2.48a3.67,3.67,0,0,0-3.33,0l-8.46,4.89a1.32,1.32,0,0,0-.25.16,3.53,3.53,0,0,0,.34.24Z" style="fill:#191919"/><path d="M237.26,12.66a3.69,3.69,0,0,0,3.33,0l8.47-4.89.24-.16a1.51,1.51,0,0,0-.34-.24l-8.47-4.89a3.66,3.66,0,0,0-3.32,0L228.7,7.37a1.67,1.67,0,0,0-.24.16,2.62,2.62,0,0,0,.34.24Z" style="fill:#191919"/><path d="M188.65,30.23a2.36,2.36,0,0,0,.34.24l8.47,4.89a3.69,3.69,0,0,0,3.33,0l8.46-4.89a1.32,1.32,0,0,0,.25-.16,3.53,3.53,0,0,0-.34-.24l-8.47-4.89a3.69,3.69,0,0,0-3.33,0l-8.47,4.89Z" style="fill:#191919"/><path d="M162.11,30.23a2,2,0,0,0,.35.24l8.46,4.89a3.69,3.69,0,0,0,3.33,0l8.47-4.89a1.67,1.67,0,0,0,.24-.16,2.62,2.62,0,0,0-.34-.24l-8.47-4.89a3.69,3.69,0,0,0-3.33,0l-8.46,4.89Z" style="fill:#191919"/><path d="M210.73,12.66a3.28,3.28,0,0,0,1.56.39,3.53,3.53,0,0,0,1.77-.39l8.46-4.89.25-.16a1.56,1.56,0,0,0-.35-.24L214,2.48a3.67,3.67,0,0,0-3.33,0l-8.47,4.89a1.67,1.67,0,0,0-.24.16,2.62,2.62,0,0,0,.34.24Z" style="fill:#191919"/><path d="M184.19,12.66a3.69,3.69,0,0,0,3.33,0L196,7.77l.24-.16a1.77,1.77,0,0,0-.34-.24l-8.47-4.89a3.69,3.69,0,0,0-3.33,0l-8.46,4.89a1.32,1.32,0,0,0-.25.16,3.53,3.53,0,0,0,.34.24Z" style="fill:#191919"/><path d="M135.58,30.23a1.91,1.91,0,0,0,.34.24l8.47,4.89a3.66,3.66,0,0,0,3.32,0l8.47-4.89a1.67,1.67,0,0,0,.24-.16,2.62,2.62,0,0,0-.34-.24l-8.46-4.89a3.69,3.69,0,0,0-3.33,0l-8.47,4.89Z" style="fill:#191919"/><path d="M109,30.23a2.36,2.36,0,0,0,.34.24l8.47,4.89a3.69,3.69,0,0,0,3.33,0l8.46-4.89a1.32,1.32,0,0,0,.25-.16,3.53,3.53,0,0,0-.34-.24l-8.47-4.89a3.69,3.69,0,0,0-3.33,0l-8.47,4.89Z" style="fill:#191919"/><path d="M157.65,12.66a3.35,3.35,0,0,0,1.57.39,3.46,3.46,0,0,0,1.76-.39l8.47-4.89.24-.16a1.51,1.51,0,0,0-.34-.24l-8.47-4.89a3.64,3.64,0,0,0-3.32,0l-8.47,4.89a1.67,1.67,0,0,0-.24.16,2.62,2.62,0,0,0,.34.24Z" style="fill:#191919"/><path d="M131.12,12.66a3.69,3.69,0,0,0,3.33,0l8.46-4.89.25-.16a1.56,1.56,0,0,0-.35-.24l-8.46-4.89a3.69,3.69,0,0,0-3.33,0l-8.47,4.89a1.67,1.67,0,0,0-.24.16,2.62,2.62,0,0,0,.34.24Z" style="fill:#191919"/><path d="M82.5,30.23a2,2,0,0,0,.35.24l8.46,4.89a3.69,3.69,0,0,0,3.33,0l8.47-4.89a1.67,1.67,0,0,0,.24-.16,2.62,2.62,0,0,0-.34-.24l-8.47-4.89a3.69,3.69,0,0,0-3.33,0l-8.46,4.89Z" style="fill:#191919"/><path d="M56,30.23a1.91,1.91,0,0,0,.34.24l8.47,4.89a3.66,3.66,0,0,0,3.32,0l8.47-4.89a1.67,1.67,0,0,0,.24-.16,2.62,2.62,0,0,0-.34-.24L68,25.18a3.69,3.69,0,0,0-3.33,0l-8.47,4.89Z" style="fill:#191919"/><path d="M104.58,12.66a3.32,3.32,0,0,0,1.57.39,3.49,3.49,0,0,0,1.76-.39l8.47-4.89.24-.16a1.77,1.77,0,0,0-.34-.24l-8.47-4.89a3.67,3.67,0,0,0-3.33,0L96,7.37a1.32,1.32,0,0,0-.25.16,3.53,3.53,0,0,0,.34.24Z" style="fill:#191919"/><path d="M78,12.66a3.69,3.69,0,0,0,3.33,0l8.47-4.89.24-.16a1.51,1.51,0,0,0-.34-.24L81.27,2.48a3.66,3.66,0,0,0-3.32,0L69.48,7.37a1.67,1.67,0,0,0-.24.16,2.62,2.62,0,0,0,.34.24Z" style="fill:#191919"/><path d="M29.43,30.23a2.36,2.36,0,0,0,.34.24l8.47,4.89a3.69,3.69,0,0,0,3.33,0L50,30.47a1.32,1.32,0,0,0,.25-.16,3.53,3.53,0,0,0-.34-.24l-8.47-4.89a3.69,3.69,0,0,0-3.33,0l-8.47,4.89Z" style="fill:#191919"/><path d="M2.89,30.23a2,2,0,0,0,.35.24l8.46,4.89a3.69,3.69,0,0,0,3.33,0l8.47-4.89a1.67,1.67,0,0,0,.24-.16,2.62,2.62,0,0,0-.34-.24l-8.47-4.89a3.69,3.69,0,0,0-3.33,0L3.14,30.07Z" style="fill:#191919"/><path d="M51.51,12.66a3.28,3.28,0,0,0,1.56.39,3.53,3.53,0,0,0,1.77-.39L63.3,7.77l.25-.16a1.56,1.56,0,0,0-.35-.24L54.74,2.48a3.67,3.67,0,0,0-3.33,0L42.94,7.37a1.67,1.67,0,0,0-.24.16,2.62,2.62,0,0,0,.34.24Z" style="fill:#191919"/><path d="M25,12.66a3.69,3.69,0,0,0,3.33,0l8.47-4.89L37,7.61a1.77,1.77,0,0,0-.34-.24L28.2,2.48a3.69,3.69,0,0,0-3.33,0L16.41,7.37a1.32,1.32,0,0,0-.25.16,3.53,3.53,0,0,0,.34.24Z" style="fill:#191919"/><path d="M10.23,7.77l.24-.16a1.51,1.51,0,0,0-.34-.24L1.66,2.48A3.32,3.32,0,0,0,0,2.08v11a3.46,3.46,0,0,0,1.76-.39Z" style="fill:#191919"/><path d="M302.13,264.67l-8.46-4.88-.27-.13c0,.11,0,.22,0,.33v9.77a3.73,3.73,0,0,0,1.37,2.68h9.05v-4.88A3.7,3.7,0,0,0,302.13,264.67Z" style="fill:#191919"/><path d="M275.6,264.67l-8.47-4.88a1.69,1.69,0,0,0-.27-.13c0,.11,0,.22,0,.33v9.77a3.73,3.73,0,0,0,1.37,2.68h9.05v-4.88A3.71,3.71,0,0,0,275.6,264.67Z" style="fill:#191919"/><path d="M315.4,242l-8.47-4.89a2.06,2.06,0,0,0-.26-.12,1.77,1.77,0,0,0,0,.32v9.78a3.67,3.67,0,0,0,1.66,2.88l8.47,4.89a1.23,1.23,0,0,0,.26.12c0-.11,0-.22,0-.32v-9.78A3.71,3.71,0,0,0,315.4,242Z" style="fill:#191919"/><path d="M288.86,242l-8.46-4.89a2.21,2.21,0,0,0-.27-.12c0,.11,0,.22,0,.32v9.78a3.7,3.7,0,0,0,1.66,2.88l8.47,4.89a1.23,1.23,0,0,0,.26.12,1.82,1.82,0,0,0,0-.32v-9.78A3.69,3.69,0,0,0,288.86,242Z" style="fill:#191919"/><path d="M249.06,264.67l-8.47-4.88-.26-.13a1.84,1.84,0,0,0,0,.33v9.77a3.77,3.77,0,0,0,1.37,2.68h9.05v-4.88A3.71,3.71,0,0,0,249.06,264.67Z" style="fill:#191919"/><path d="M222.52,264.67l-8.46-4.88-.27-.13c0,.11,0,.22,0,.33v9.77a3.73,3.73,0,0,0,1.37,2.68h9.05v-4.88A3.7,3.7,0,0,0,222.52,264.67Z" style="fill:#191919"/><path d="M262.33,242l-8.47-4.89a2.06,2.06,0,0,0-.26-.12,1.82,1.82,0,0,0,0,.32v9.78a3.68,3.68,0,0,0,1.67,2.88l8.46,4.89a1.31,1.31,0,0,0,.27.12c0-.11,0-.22,0-.32v-9.78A3.71,3.71,0,0,0,262.33,242Z" style="fill:#191919"/><path d="M235.79,242l-8.47-4.89a2.06,2.06,0,0,0-.26-.12c0,.11,0,.22,0,.32v9.78a3.67,3.67,0,0,0,1.66,2.88l8.47,4.89a1.23,1.23,0,0,0,.26.12c0-.11,0-.22,0-.32v-9.78A3.68,3.68,0,0,0,235.79,242Z" style="fill:#191919"/><path d="M196,264.67l-8.47-4.88-.26-.13a1.84,1.84,0,0,0,0,.33v9.77a3.73,3.73,0,0,0,1.37,2.68h9.05v-4.88A3.71,3.71,0,0,0,196,264.67Z" style="fill:#191919"/><path d="M169.45,264.67,161,259.79l-.26-.13a1.84,1.84,0,0,0,0,.33v9.77a3.77,3.77,0,0,0,1.37,2.68h9.05v-4.88A3.71,3.71,0,0,0,169.45,264.67Z" style="fill:#191919"/><path d="M209.25,242l-8.46-4.89a2.21,2.21,0,0,0-.27-.12c0,.11,0,.22,0,.32v9.78a3.7,3.7,0,0,0,1.66,2.88l8.47,4.89a1.23,1.23,0,0,0,.26.12,1.82,1.82,0,0,0,0-.32v-9.78A3.69,3.69,0,0,0,209.25,242Z" style="fill:#191919"/><path d="M182.72,242l-8.47-4.89A2.06,2.06,0,0,0,174,237a1.82,1.82,0,0,0,0,.32v9.78a3.68,3.68,0,0,0,1.67,2.88l8.46,4.89a1.31,1.31,0,0,0,.27.12c0-.11,0-.22,0-.32v-9.78A3.71,3.71,0,0,0,182.72,242Z" style="fill:#191919"/><path d="M142.91,264.67l-8.46-4.88-.27-.13c0,.11,0,.22,0,.33v9.77a3.73,3.73,0,0,0,1.37,2.68h9.05v-4.88A3.7,3.7,0,0,0,142.91,264.67Z" style="fill:#191919"/><path d="M116.38,264.67l-8.47-4.88a1.69,1.69,0,0,0-.27-.13c0,.11,0,.22,0,.33v9.77a3.73,3.73,0,0,0,1.37,2.68H118v-4.88A3.71,3.71,0,0,0,116.38,264.67Z" style="fill:#191919"/><path d="M156.18,242l-8.47-4.89a2.06,2.06,0,0,0-.26-.12c0,.11,0,.22,0,.32v9.78a3.67,3.67,0,0,0,1.66,2.88l8.47,4.89a1.23,1.23,0,0,0,.26.12c0-.11,0-.22,0-.32v-9.78A3.68,3.68,0,0,0,156.18,242Z" style="fill:#191919"/><path d="M129.64,242l-8.46-4.89a2.21,2.21,0,0,0-.27-.12c0,.11,0,.22,0,.32v9.78a3.7,3.7,0,0,0,1.66,2.88l8.47,4.89a1.23,1.23,0,0,0,.26.12,1.82,1.82,0,0,0,0-.32v-9.78A3.69,3.69,0,0,0,129.64,242Z" style="fill:#191919"/><path d="M89.84,264.67l-8.47-4.88-.26-.13a1.84,1.84,0,0,0,0,.33v9.77a3.77,3.77,0,0,0,1.37,2.68h9v-4.88A3.71,3.71,0,0,0,89.84,264.67Z" style="fill:#191919"/><path d="M63.3,264.67l-8.46-4.88-.27-.13c0,.11,0,.22,0,.33v9.77a3.73,3.73,0,0,0,1.37,2.68h9v-4.88A3.7,3.7,0,0,0,63.3,264.67Z" style="fill:#191919"/><path d="M103.11,242l-8.47-4.89a2.06,2.06,0,0,0-.26-.12,1.82,1.82,0,0,0,0,.32v9.78A3.68,3.68,0,0,0,96,249.94l8.46,4.89a1.31,1.31,0,0,0,.27.12c0-.11,0-.22,0-.32v-9.78A3.71,3.71,0,0,0,103.11,242Z" style="fill:#191919"/><path d="M76.57,242l-8.47-4.89a2.06,2.06,0,0,0-.26-.12c0,.11,0,.22,0,.32v9.78a3.67,3.67,0,0,0,1.66,2.88L78,254.83a1.23,1.23,0,0,0,.26.12c0-.11,0-.22,0-.32v-9.78A3.68,3.68,0,0,0,76.57,242Z" style="fill:#191919"/><path d="M36.77,264.67l-8.47-4.88-.26-.13a1.84,1.84,0,0,0,0,.33v9.77a3.73,3.73,0,0,0,1.37,2.68h9.05v-4.88A3.71,3.71,0,0,0,36.77,264.67Z" style="fill:#191919"/><path d="M10.23,264.67l-8.47-4.88-.26-.13a1.84,1.84,0,0,0,0,.33v9.77a3.77,3.77,0,0,0,1.37,2.68h9.05v-4.88A3.71,3.71,0,0,0,10.23,264.67Z" style="fill:#191919"/><path d="M50,242l-8.46-4.89a2.21,2.21,0,0,0-.27-.12c0,.11,0,.22,0,.32v9.78a3.7,3.7,0,0,0,1.66,2.88l8.47,4.89a1.23,1.23,0,0,0,.26.12,1.82,1.82,0,0,0,0-.32v-9.78A3.69,3.69,0,0,0,50,242Z" style="fill:#191919"/><path d="M23.5,242,15,237.08a2.06,2.06,0,0,0-.26-.12,1.82,1.82,0,0,0,0,.32v9.78a3.68,3.68,0,0,0,1.67,2.88l8.46,4.89a1.31,1.31,0,0,0,.27.12c0-.11,0-.22,0-.32v-9.78A3.71,3.71,0,0,0,23.5,242Z" style="fill:#191919"/><path d="M302.13,219.27l-8.46-4.89-.27-.13c0,.11,0,.22,0,.33v9.78a3.73,3.73,0,0,0,1.37,2.68l.29.2,8.47,4.89.26.12a1.84,1.84,0,0,0,0-.33v-9.77A3.68,3.68,0,0,0,302.13,219.27Z" style="fill:#191919"/><path d="M275.6,219.27l-8.47-4.89a1.11,1.11,0,0,0-.27-.12c0,.11,0,.21,0,.32v9.78a3.73,3.73,0,0,0,1.37,2.68l.29.2,8.47,4.89.26.12a1.84,1.84,0,0,0,0-.33v-9.77A3.7,3.7,0,0,0,275.6,219.27Z" style="fill:#191919"/><path d="M315.4,196.56l-8.47-4.89-.26-.12a1.83,1.83,0,0,0,0,.33v9.77a3.65,3.65,0,0,0,1.66,2.88l8.47,4.89.26.13c0-.11,0-.22,0-.33v-9.78A3.71,3.71,0,0,0,315.4,196.56Z" style="fill:#191919"/><path d="M288.86,196.56l-8.46-4.89-.27-.12c0,.11,0,.22,0,.33v9.77a3.68,3.68,0,0,0,1.66,2.88l8.47,4.89a2.1,2.1,0,0,0,.26.13,1.84,1.84,0,0,0,0-.33v-9.78A3.69,3.69,0,0,0,288.86,196.56Z" style="fill:#191919"/><path d="M249.06,219.27l-8.47-4.89-.26-.13a1.84,1.84,0,0,0,0,.33v9.78a3.77,3.77,0,0,0,1.37,2.68l.3.2,8.46,4.89.27.12c0-.11,0-.22,0-.33v-9.77A3.7,3.7,0,0,0,249.06,219.27Z" style="fill:#191919"/><path d="M222.52,219.27l-8.46-4.89-.27-.12c0,.11,0,.21,0,.32v9.78a3.73,3.73,0,0,0,1.37,2.68l.29.2,8.47,4.89.26.12a1.84,1.84,0,0,0,0-.33v-9.77A3.68,3.68,0,0,0,222.52,219.27Z" style="fill:#191919"/><path d="M262.33,196.56l-8.47-4.89-.26-.12a1.84,1.84,0,0,0,0,.33v9.77a3.66,3.66,0,0,0,1.67,2.88l8.46,4.89a2.24,2.24,0,0,0,.27.13c0-.11,0-.22,0-.33v-9.78A3.71,3.71,0,0,0,262.33,196.56Z" style="fill:#191919"/><path d="M235.79,196.56l-8.47-4.89-.26-.12c0,.11,0,.22,0,.33v9.77a3.65,3.65,0,0,0,1.66,2.88l8.47,4.89.26.13c0-.11,0-.22,0-.33v-9.78A3.68,3.68,0,0,0,235.79,196.56Z" style="fill:#191919"/><path d="M196,219.27l-8.47-4.89-.26-.13a1.84,1.84,0,0,0,0,.33v9.78A3.73,3.73,0,0,0,188.6,227l.29.2,8.47,4.89.27.12c0-.11,0-.22,0-.33v-9.77A3.7,3.7,0,0,0,196,219.27Z" style="fill:#191919"/><path d="M169.45,219.27,161,214.38a1.23,1.23,0,0,0-.26-.12,1.73,1.73,0,0,0,0,.32v9.78a3.77,3.77,0,0,0,1.37,2.68l.3.2,8.46,4.89.27.12c0-.11,0-.22,0-.33v-9.77A3.7,3.7,0,0,0,169.45,219.27Z" style="fill:#191919"/><path d="M209.25,196.56l-8.46-4.89-.27-.12c0,.11,0,.22,0,.33v9.77a3.68,3.68,0,0,0,1.66,2.88l8.47,4.89.26.13a1.84,1.84,0,0,0,0-.33v-9.78A3.69,3.69,0,0,0,209.25,196.56Z" style="fill:#191919"/><path d="M182.72,196.56l-8.47-4.89-.26-.12a1.84,1.84,0,0,0,0,.33v9.77a3.66,3.66,0,0,0,1.67,2.88l8.46,4.89a2.24,2.24,0,0,0,.27.13c0-.11,0-.22,0-.33v-9.78A3.71,3.71,0,0,0,182.72,196.56Z" style="fill:#191919"/><path d="M142.91,219.27l-8.46-4.89-.27-.13c0,.11,0,.22,0,.33v9.78a3.73,3.73,0,0,0,1.37,2.68l.29.2,8.47,4.89.26.12a1.84,1.84,0,0,0,0-.33v-9.77A3.68,3.68,0,0,0,142.91,219.27Z" style="fill:#191919"/><path d="M116.38,219.27l-8.47-4.89a1.11,1.11,0,0,0-.27-.12c0,.11,0,.21,0,.32v9.78A3.73,3.73,0,0,0,109,227l.29.2,8.47,4.89.26.12a1.84,1.84,0,0,0,0-.33v-9.77A3.7,3.7,0,0,0,116.38,219.27Z" style="fill:#191919"/><path d="M156.18,196.56l-8.47-4.89-.26-.12c0,.11,0,.22,0,.33v9.77a3.65,3.65,0,0,0,1.66,2.88l8.47,4.89a2.1,2.1,0,0,0,.26.13c0-.11,0-.22,0-.33v-9.78A3.68,3.68,0,0,0,156.18,196.56Z" style="fill:#191919"/><path d="M129.64,196.56l-8.46-4.89-.27-.12c0,.11,0,.22,0,.33v9.77a3.68,3.68,0,0,0,1.66,2.88l8.47,4.89a2.1,2.1,0,0,0,.26.13,1.84,1.84,0,0,0,0-.33v-9.78A3.69,3.69,0,0,0,129.64,196.56Z" style="fill:#191919"/><path d="M89.84,219.27l-8.47-4.89-.26-.13a1.84,1.84,0,0,0,0,.33v9.78A3.77,3.77,0,0,0,82.45,227l.3.2,8.46,4.89.27.12c0-.11,0-.22,0-.33v-9.77A3.7,3.7,0,0,0,89.84,219.27Z" style="fill:#191919"/><path d="M63.3,219.27l-8.46-4.89-.27-.12c0,.11,0,.21,0,.32v9.78A3.73,3.73,0,0,0,55.92,227l.29.2,8.47,4.89.26.12a1.84,1.84,0,0,0,0-.33v-9.77A3.68,3.68,0,0,0,63.3,219.27Z" style="fill:#191919"/><path d="M103.11,196.56l-8.47-4.89-.26-.12a1.84,1.84,0,0,0,0,.33v9.77A3.66,3.66,0,0,0,96,204.53l8.46,4.89a2.24,2.24,0,0,0,.27.13c0-.11,0-.22,0-.33v-9.78A3.71,3.71,0,0,0,103.11,196.56Z" style="fill:#191919"/><path d="M76.57,196.56l-8.47-4.89-.26-.12c0,.11,0,.22,0,.33v9.77a3.65,3.65,0,0,0,1.66,2.88L78,209.42l.26.13c0-.11,0-.22,0-.33v-9.78A3.68,3.68,0,0,0,76.57,196.56Z" style="fill:#191919"/><path d="M36.77,219.27l-8.47-4.89-.26-.13a1.84,1.84,0,0,0,0,.33v9.78A3.73,3.73,0,0,0,29.38,227l.29.2,8.47,4.89.26.12a1.84,1.84,0,0,0,0-.33v-9.77A3.7,3.7,0,0,0,36.77,219.27Z" style="fill:#191919"/><path d="M10.23,219.27l-8.47-4.89a1.23,1.23,0,0,0-.26-.12,1.73,1.73,0,0,0,0,.32v9.78A3.77,3.77,0,0,0,2.84,227l.3.2,8.46,4.89.27.12c0-.11,0-.22,0-.33v-9.77A3.7,3.7,0,0,0,10.23,219.27Z" style="fill:#191919"/><path d="M50,196.56l-8.46-4.89-.27-.12c0,.11,0,.22,0,.33v9.77a3.68,3.68,0,0,0,1.66,2.88l8.47,4.89.26.13a1.84,1.84,0,0,0,0-.33v-9.78A3.69,3.69,0,0,0,50,196.56Z" style="fill:#191919"/><path d="M23.5,196.56,15,191.67l-.26-.12a1.84,1.84,0,0,0,0,.33v9.77a3.66,3.66,0,0,0,1.67,2.88l8.46,4.89a2.24,2.24,0,0,0,.27.13c0-.11,0-.22,0-.33v-9.78A3.71,3.71,0,0,0,23.5,196.56Z" style="fill:#191919"/><path d="M302.13,173.86,293.67,169l-.27-.12c0,.11,0,.22,0,.32V179a3.73,3.73,0,0,0,1.37,2.68l.29.2,8.47,4.89a2.06,2.06,0,0,0,.26.12,1.82,1.82,0,0,0,0-.32v-9.78A3.68,3.68,0,0,0,302.13,173.86Z" style="fill:#191919"/><path d="M275.6,173.86,267.13,169a1.69,1.69,0,0,0-.27-.12c0,.11,0,.22,0,.32V179a3.73,3.73,0,0,0,1.37,2.68l.29.2,8.47,4.89a2.06,2.06,0,0,0,.26.12,1.82,1.82,0,0,0,0-.32v-9.78A3.7,3.7,0,0,0,275.6,173.86Z" style="fill:#191919"/><path d="M315.4,151.16l-8.47-4.89a2.1,2.1,0,0,0-.26-.13,1.83,1.83,0,0,0,0,.33v9.78a3.68,3.68,0,0,0,1.66,2.88l8.47,4.89.26.12c0-.11,0-.22,0-.33V154A3.68,3.68,0,0,0,315.4,151.16Z" style="fill:#191919"/><path d="M288.86,151.16l-8.46-4.89a2.24,2.24,0,0,0-.27-.13c0,.11,0,.22,0,.33v9.78a3.71,3.71,0,0,0,1.66,2.88l8.47,4.89.26.12a1.84,1.84,0,0,0,0-.33V154A3.66,3.66,0,0,0,288.86,151.16Z" style="fill:#191919"/><path d="M249.06,173.86,240.59,169a2.06,2.06,0,0,0-.26-.12,1.82,1.82,0,0,0,0,.32V179a3.77,3.77,0,0,0,1.37,2.68l.3.2,8.46,4.89c.09.05.18.08.27.12,0-.11,0-.22,0-.32v-9.78A3.7,3.7,0,0,0,249.06,173.86Z" style="fill:#191919"/><path d="M222.52,173.86,214.06,169c-.09-.05-.18-.08-.27-.12,0,.11,0,.22,0,.32V179a3.73,3.73,0,0,0,1.37,2.68l.29.2,8.47,4.89a2.06,2.06,0,0,0,.26.12,1.82,1.82,0,0,0,0-.32v-9.78A3.68,3.68,0,0,0,222.52,173.86Z" style="fill:#191919"/><path d="M262.33,151.16l-8.47-4.89-.26-.13a1.84,1.84,0,0,0,0,.33v9.78a3.69,3.69,0,0,0,1.67,2.88L263.7,164l.27.12c0-.11,0-.22,0-.33V154A3.68,3.68,0,0,0,262.33,151.16Z" style="fill:#191919"/><path d="M235.79,151.16l-8.47-4.89a2.1,2.1,0,0,0-.26-.13c0,.11,0,.22,0,.33v9.78a3.68,3.68,0,0,0,1.66,2.88l8.47,4.89.26.12c0-.11,0-.22,0-.33V154A3.65,3.65,0,0,0,235.79,151.16Z" style="fill:#191919"/><path d="M196,173.86,187.52,169a2.06,2.06,0,0,0-.26-.12,1.82,1.82,0,0,0,0,.32V179a3.73,3.73,0,0,0,1.37,2.68l.29.2,8.47,4.89a1.69,1.69,0,0,0,.27.12c0-.11,0-.22,0-.32v-9.78A3.7,3.7,0,0,0,196,173.86Z" style="fill:#191919"/><path d="M169.45,173.86,161,169a2.06,2.06,0,0,0-.26-.12,1.82,1.82,0,0,0,0,.32V179a3.77,3.77,0,0,0,1.37,2.68l.3.2,8.46,4.89c.09.05.18.08.27.12,0-.11,0-.22,0-.32v-9.78A3.7,3.7,0,0,0,169.45,173.86Z" style="fill:#191919"/><path d="M209.25,151.16l-8.46-4.89a2.24,2.24,0,0,0-.27-.13c0,.11,0,.22,0,.33v9.78a3.71,3.71,0,0,0,1.66,2.88l8.47,4.89.26.12a1.84,1.84,0,0,0,0-.33V154A3.66,3.66,0,0,0,209.25,151.16Z" style="fill:#191919"/><path d="M182.72,151.16l-8.47-4.89-.26-.13a1.84,1.84,0,0,0,0,.33v9.78a3.69,3.69,0,0,0,1.67,2.88l8.46,4.89.27.12c0-.11,0-.22,0-.33V154A3.68,3.68,0,0,0,182.72,151.16Z" style="fill:#191919"/><path d="M142.91,173.86,134.45,169c-.09-.05-.18-.08-.27-.12,0,.11,0,.22,0,.32V179a3.73,3.73,0,0,0,1.37,2.68l.29.2,8.47,4.89a2.06,2.06,0,0,0,.26.12,1.82,1.82,0,0,0,0-.32v-9.78A3.68,3.68,0,0,0,142.91,173.86Z" style="fill:#191919"/><path d="M116.38,173.86,107.91,169a1.69,1.69,0,0,0-.27-.12c0,.11,0,.22,0,.32V179a3.73,3.73,0,0,0,1.37,2.68l.29.2,8.47,4.89a2.06,2.06,0,0,0,.26.12,1.82,1.82,0,0,0,0-.32v-9.78A3.7,3.7,0,0,0,116.38,173.86Z" style="fill:#191919"/><path d="M156.18,151.16l-8.47-4.89-.26-.13c0,.11,0,.22,0,.33v9.78a3.68,3.68,0,0,0,1.66,2.88l8.47,4.89.26.12c0-.11,0-.22,0-.33V154A3.65,3.65,0,0,0,156.18,151.16Z" style="fill:#191919"/><path d="M129.64,151.16l-8.46-4.89a2.24,2.24,0,0,0-.27-.13c0,.11,0,.22,0,.33v9.78a3.71,3.71,0,0,0,1.66,2.88L131,164l.26.12a1.84,1.84,0,0,0,0-.33V154A3.66,3.66,0,0,0,129.64,151.16Z" style="fill:#191919"/><path d="M89.84,173.86,81.37,169a2.06,2.06,0,0,0-.26-.12,1.82,1.82,0,0,0,0,.32V179a3.77,3.77,0,0,0,1.37,2.68l.3.2,8.46,4.89c.09.05.18.08.27.12,0-.11,0-.22,0-.32v-9.78A3.7,3.7,0,0,0,89.84,173.86Z" style="fill:#191919"/><path d="M63.3,173.86,54.84,169c-.09-.05-.18-.08-.27-.12,0,.11,0,.22,0,.32V179a3.73,3.73,0,0,0,1.37,2.68l.29.2,8.47,4.89a2.06,2.06,0,0,0,.26.12,1.82,1.82,0,0,0,0-.32v-9.78A3.68,3.68,0,0,0,63.3,173.86Z" style="fill:#191919"/><path d="M103.11,151.16l-8.47-4.89a2.1,2.1,0,0,0-.26-.13,1.84,1.84,0,0,0,0,.33v9.78A3.69,3.69,0,0,0,96,159.13l8.46,4.89.27.12c0-.11,0-.22,0-.33V154A3.68,3.68,0,0,0,103.11,151.16Z" style="fill:#191919"/><path d="M76.57,151.16l-8.47-4.89-.26-.13c0,.11,0,.22,0,.33v9.78a3.68,3.68,0,0,0,1.66,2.88L78,164l.26.12c0-.11,0-.22,0-.33V154A3.65,3.65,0,0,0,76.57,151.16Z" style="fill:#191919"/><path d="M36.77,173.86,28.3,169a2.06,2.06,0,0,0-.26-.12,1.82,1.82,0,0,0,0,.32V179a3.73,3.73,0,0,0,1.37,2.68l.29.2,8.47,4.89a2.06,2.06,0,0,0,.26.12,1.82,1.82,0,0,0,0-.32v-9.78A3.7,3.7,0,0,0,36.77,173.86Z" style="fill:#191919"/><path d="M10.23,173.86,1.76,169a2.06,2.06,0,0,0-.26-.12,1.82,1.82,0,0,0,0,.32V179a3.77,3.77,0,0,0,1.37,2.68l.3.2,8.46,4.89c.09.05.18.08.27.12,0-.11,0-.22,0-.32v-9.78A3.7,3.7,0,0,0,10.23,173.86Z" style="fill:#191919"/><path d="M50,151.16l-8.46-4.89a2.24,2.24,0,0,0-.27-.13c0,.11,0,.22,0,.33v9.78a3.71,3.71,0,0,0,1.66,2.88L51.41,164l.26.12a1.84,1.84,0,0,0,0-.33V154A3.66,3.66,0,0,0,50,151.16Z" style="fill:#191919"/><path d="M23.5,151.16,15,146.27l-.26-.13a1.84,1.84,0,0,0,0,.33v9.78a3.69,3.69,0,0,0,1.67,2.88L24.87,164l.27.12c0-.11,0-.22,0-.33V154A3.68,3.68,0,0,0,23.5,151.16Z" style="fill:#191919"/><path d="M302.13,128.45l-8.46-4.89-.27-.12c0,.11,0,.22,0,.33v9.77a3.73,3.73,0,0,0,1.37,2.68,1.37,1.37,0,0,0,.29.2l8.47,4.89a2.1,2.1,0,0,0,.26.13,1.84,1.84,0,0,0,0-.33v-9.78A3.69,3.69,0,0,0,302.13,128.45Z" style="fill:#191919"/><path d="M275.6,128.45l-8.47-4.89-.27-.12c0,.11,0,.22,0,.33v9.77a3.73,3.73,0,0,0,1.37,2.68,1.68,1.68,0,0,0,.29.2l8.47,4.89a2.1,2.1,0,0,0,.26.13,1.84,1.84,0,0,0,0-.33v-9.78A3.71,3.71,0,0,0,275.6,128.45Z" style="fill:#191919"/><path d="M315.4,105.75l-8.47-4.89a1.23,1.23,0,0,0-.26-.12,1.77,1.77,0,0,0,0,.32v9.78a3.67,3.67,0,0,0,1.66,2.88l8.47,4.89a2.06,2.06,0,0,0,.26.12c0-.11,0-.22,0-.32v-9.78A3.7,3.7,0,0,0,315.4,105.75Z" style="fill:#191919"/><path d="M288.86,105.75l-8.46-4.89a1.31,1.31,0,0,0-.27-.12c0,.11,0,.22,0,.32v9.78a3.7,3.7,0,0,0,1.66,2.88l8.47,4.89a2.06,2.06,0,0,0,.26.12,1.82,1.82,0,0,0,0-.32v-9.78A3.68,3.68,0,0,0,288.86,105.75Z" style="fill:#191919"/><path d="M249.06,128.45l-8.47-4.89-.26-.12a1.84,1.84,0,0,0,0,.33v9.77a3.77,3.77,0,0,0,1.37,2.68,1.74,1.74,0,0,0,.3.2l8.46,4.89.27.13c0-.11,0-.22,0-.33v-9.78A3.71,3.71,0,0,0,249.06,128.45Z" style="fill:#191919"/><path d="M222.52,128.45l-8.46-4.89-.27-.12c0,.11,0,.22,0,.33v9.77a3.73,3.73,0,0,0,1.37,2.68,1.37,1.37,0,0,0,.29.2l8.47,4.89a2.1,2.1,0,0,0,.26.13,1.84,1.84,0,0,0,0-.33v-9.78A3.69,3.69,0,0,0,222.52,128.45Z" style="fill:#191919"/><path d="M262.33,105.75l-8.47-4.89a1.23,1.23,0,0,0-.26-.12,1.82,1.82,0,0,0,0,.32v9.78a3.68,3.68,0,0,0,1.67,2.88l8.46,4.89a2.21,2.21,0,0,0,.27.12c0-.11,0-.22,0-.32v-9.78A3.7,3.7,0,0,0,262.33,105.75Z" style="fill:#191919"/><path d="M235.79,105.75l-8.47-4.89a1.23,1.23,0,0,0-.26-.12c0,.11,0,.22,0,.32v9.78a3.67,3.67,0,0,0,1.66,2.88l8.47,4.89a2.06,2.06,0,0,0,.26.12c0-.11,0-.22,0-.32v-9.78A3.67,3.67,0,0,0,235.79,105.75Z" style="fill:#191919"/><path d="M196,128.45l-8.47-4.89-.26-.12a1.84,1.84,0,0,0,0,.33v9.77a3.73,3.73,0,0,0,1.37,2.68,1.68,1.68,0,0,0,.29.2l8.47,4.89a1.69,1.69,0,0,0,.27.13c0-.11,0-.22,0-.33v-9.78A3.71,3.71,0,0,0,196,128.45Z" style="fill:#191919"/><path d="M169.45,128.45,161,123.56l-.26-.12a1.84,1.84,0,0,0,0,.33v9.77a3.77,3.77,0,0,0,1.37,2.68,1.74,1.74,0,0,0,.3.2l8.46,4.89.27.13c0-.11,0-.22,0-.33v-9.78A3.71,3.71,0,0,0,169.45,128.45Z" style="fill:#191919"/><path d="M209.25,105.75l-8.46-4.89a1.31,1.31,0,0,0-.27-.12c0,.11,0,.22,0,.32v9.78a3.7,3.7,0,0,0,1.66,2.88l8.47,4.89a2.06,2.06,0,0,0,.26.12,1.82,1.82,0,0,0,0-.32v-9.78A3.68,3.68,0,0,0,209.25,105.75Z" style="fill:#191919"/><path d="M182.72,105.75l-8.47-4.89a1.23,1.23,0,0,0-.26-.12,1.82,1.82,0,0,0,0,.32v9.78a3.68,3.68,0,0,0,1.67,2.88l8.46,4.89a2.21,2.21,0,0,0,.27.12c0-.11,0-.22,0-.32v-9.78A3.7,3.7,0,0,0,182.72,105.75Z" style="fill:#191919"/><path d="M142.91,128.45l-8.46-4.89-.27-.12c0,.11,0,.22,0,.33v9.77a3.73,3.73,0,0,0,1.37,2.68,1.37,1.37,0,0,0,.29.2l8.47,4.89a2.1,2.1,0,0,0,.26.13,1.84,1.84,0,0,0,0-.33v-9.78A3.69,3.69,0,0,0,142.91,128.45Z" style="fill:#191919"/><path d="M116.38,128.45l-8.47-4.89-.27-.12c0,.11,0,.22,0,.33v9.77a3.73,3.73,0,0,0,1.37,2.68,1.68,1.68,0,0,0,.29.2l8.47,4.89a2.1,2.1,0,0,0,.26.13,1.84,1.84,0,0,0,0-.33v-9.78A3.71,3.71,0,0,0,116.38,128.45Z" style="fill:#191919"/><path d="M156.18,105.75l-8.47-4.89a1.23,1.23,0,0,0-.26-.12c0,.11,0,.22,0,.32v9.78a3.67,3.67,0,0,0,1.66,2.88l8.47,4.89a2.06,2.06,0,0,0,.26.12c0-.11,0-.22,0-.32v-9.78A3.67,3.67,0,0,0,156.18,105.75Z" style="fill:#191919"/><path d="M129.64,105.75l-8.46-4.89a1.31,1.31,0,0,0-.27-.12c0,.11,0,.22,0,.32v9.78a3.7,3.7,0,0,0,1.66,2.88l8.47,4.89a2.06,2.06,0,0,0,.26.12,1.82,1.82,0,0,0,0-.32v-9.78A3.68,3.68,0,0,0,129.64,105.75Z" style="fill:#191919"/><path d="M89.84,128.45l-8.47-4.89-.26-.12a1.84,1.84,0,0,0,0,.33v9.77a3.77,3.77,0,0,0,1.37,2.68,1.74,1.74,0,0,0,.3.2l8.46,4.89.27.13c0-.11,0-.22,0-.33v-9.78A3.71,3.71,0,0,0,89.84,128.45Z" style="fill:#191919"/><path d="M63.3,128.45l-8.46-4.89-.27-.12c0,.11,0,.22,0,.33v9.77a3.73,3.73,0,0,0,1.37,2.68,1.37,1.37,0,0,0,.29.2l8.47,4.89a2.1,2.1,0,0,0,.26.13,1.84,1.84,0,0,0,0-.33v-9.78A3.69,3.69,0,0,0,63.3,128.45Z" style="fill:#191919"/><path d="M103.11,105.75l-8.47-4.89a1.23,1.23,0,0,0-.26-.12,1.82,1.82,0,0,0,0,.32v9.78A3.68,3.68,0,0,0,96,113.72l8.46,4.89a2.21,2.21,0,0,0,.27.12c0-.11,0-.22,0-.32v-9.78A3.7,3.7,0,0,0,103.11,105.75Z" style="fill:#191919"/><path d="M76.57,105.75l-8.47-4.89a1.23,1.23,0,0,0-.26-.12c0,.11,0,.22,0,.32v9.78a3.67,3.67,0,0,0,1.66,2.88L78,118.61a2.06,2.06,0,0,0,.26.12c0-.11,0-.22,0-.32v-9.78A3.67,3.67,0,0,0,76.57,105.75Z" style="fill:#191919"/><path d="M36.77,128.45l-8.47-4.89-.26-.12a1.84,1.84,0,0,0,0,.33v9.77a3.73,3.73,0,0,0,1.37,2.68,1.68,1.68,0,0,0,.29.2l8.47,4.89a2.1,2.1,0,0,0,.26.13,1.84,1.84,0,0,0,0-.33v-9.78A3.71,3.71,0,0,0,36.77,128.45Z" style="fill:#191919"/><path d="M10.23,128.45l-8.47-4.89-.26-.12a1.84,1.84,0,0,0,0,.33v9.77a3.77,3.77,0,0,0,1.37,2.68,1.74,1.74,0,0,0,.3.2l8.46,4.89.27.13c0-.11,0-.22,0-.33v-9.78A3.71,3.71,0,0,0,10.23,128.45Z" style="fill:#191919"/><path d="M50,105.75l-8.46-4.89a1.31,1.31,0,0,0-.27-.12c0,.11,0,.22,0,.32v9.78a3.7,3.7,0,0,0,1.66,2.88l8.47,4.89a2.06,2.06,0,0,0,.26.12,1.82,1.82,0,0,0,0-.32v-9.78A3.68,3.68,0,0,0,50,105.75Z" style="fill:#191919"/><path d="M23.5,105.75,15,100.86a1.23,1.23,0,0,0-.26-.12,1.82,1.82,0,0,0,0,.32v9.78a3.68,3.68,0,0,0,1.67,2.88l8.46,4.89a2.21,2.21,0,0,0,.27.12c0-.11,0-.22,0-.32v-9.78A3.7,3.7,0,0,0,23.5,105.75Z" style="fill:#191919"/><path d="M302.13,83l-8.46-4.88L293.4,78c0,.11,0,.22,0,.33v9.77a3.7,3.7,0,0,0,1.37,2.68A1.94,1.94,0,0,0,295,91l8.47,4.88a2.1,2.1,0,0,0,.26.13,1.84,1.84,0,0,0,0-.33V85.93A3.7,3.7,0,0,0,302.13,83Z" style="fill:#191919"/><path d="M275.6,83l-8.47-4.88a1.69,1.69,0,0,0-.27-.13c0,.11,0,.22,0,.33v9.77a3.7,3.7,0,0,0,1.37,2.68,2.64,2.64,0,0,0,.29.21L277,95.9a2.1,2.1,0,0,0,.26.13,1.84,1.84,0,0,0,0-.33V85.93A3.71,3.71,0,0,0,275.6,83Z" style="fill:#191919"/><path d="M315.4,60.34l-8.47-4.89-.26-.12a1.83,1.83,0,0,0,0,.33v9.77a3.67,3.67,0,0,0,1.66,2.88l8.47,4.89.26.13c0-.12,0-.22,0-.33V63.22A3.71,3.71,0,0,0,315.4,60.34Z" style="fill:#191919"/><path d="M288.86,60.34l-8.46-4.89-.27-.12c0,.11,0,.22,0,.33v9.77a3.7,3.7,0,0,0,1.66,2.88l8.47,4.89a2.1,2.1,0,0,0,.26.13,1.93,1.93,0,0,0,0-.33V63.22A3.69,3.69,0,0,0,288.86,60.34Z" style="fill:#191919"/><path d="M249.06,83l-8.47-4.88-.26-.13a1.84,1.84,0,0,0,0,.33v9.77a3.73,3.73,0,0,0,1.37,2.68l.3.21,8.46,4.88.27.13c0-.11,0-.22,0-.33V85.93A3.71,3.71,0,0,0,249.06,83Z" style="fill:#191919"/><path d="M222.52,83l-8.46-4.88-.27-.13c0,.11,0,.22,0,.33v9.77a3.7,3.7,0,0,0,1.37,2.68,1.94,1.94,0,0,0,.29.21l8.47,4.88a2.1,2.1,0,0,0,.26.13,1.84,1.84,0,0,0,0-.33V85.93A3.7,3.7,0,0,0,222.52,83Z" style="fill:#191919"/><path d="M262.33,60.34l-8.47-4.89-.26-.12a1.84,1.84,0,0,0,0,.33v9.77a3.68,3.68,0,0,0,1.67,2.88l8.46,4.89a2.24,2.24,0,0,0,.27.13c0-.12,0-.22,0-.33V63.22A3.71,3.71,0,0,0,262.33,60.34Z" style="fill:#191919"/><path d="M235.79,60.34l-8.47-4.89-.26-.12c0,.11,0,.22,0,.33v9.77a3.67,3.67,0,0,0,1.66,2.88l8.47,4.89.26.13c0-.12,0-.22,0-.33V63.22A3.68,3.68,0,0,0,235.79,60.34Z" style="fill:#191919"/><path d="M196,83l-8.47-4.88-.26-.13a1.84,1.84,0,0,0,0,.33v9.77a3.7,3.7,0,0,0,1.37,2.68,2.64,2.64,0,0,0,.29.21l8.47,4.88a1.69,1.69,0,0,0,.27.13c0-.11,0-.22,0-.33V85.93A3.71,3.71,0,0,0,196,83Z" style="fill:#191919"/><path d="M169.45,83,161,78.16a2.1,2.1,0,0,0-.26-.13,1.84,1.84,0,0,0,0,.33v9.77a3.73,3.73,0,0,0,1.37,2.68,2.73,2.73,0,0,0,.3.21l8.46,4.88.27.13c0-.11,0-.22,0-.33V85.93A3.71,3.71,0,0,0,169.45,83Z" style="fill:#191919"/><path d="M209.25,60.34l-8.46-4.89-.27-.12c0,.11,0,.22,0,.33v9.77a3.7,3.7,0,0,0,1.66,2.88l8.47,4.89.26.13a1.93,1.93,0,0,0,0-.33V63.22A3.69,3.69,0,0,0,209.25,60.34Z" style="fill:#191919"/><path d="M182.72,60.34l-8.47-4.89-.26-.12a1.84,1.84,0,0,0,0,.33v9.77a3.68,3.68,0,0,0,1.67,2.88l8.46,4.89a2.24,2.24,0,0,0,.27.13c0-.12,0-.22,0-.33V63.22A3.71,3.71,0,0,0,182.72,60.34Z" style="fill:#191919"/><path d="M142.91,83l-8.46-4.88-.27-.13c0,.11,0,.22,0,.33v9.77a3.7,3.7,0,0,0,1.37,2.68,1.94,1.94,0,0,0,.29.21l8.47,4.88.26.13a1.84,1.84,0,0,0,0-.33V85.93A3.7,3.7,0,0,0,142.91,83Z" style="fill:#191919"/><path d="M116.38,83l-8.47-4.88a1.69,1.69,0,0,0-.27-.13c0,.11,0,.22,0,.33v9.77A3.7,3.7,0,0,0,109,90.81a2.64,2.64,0,0,0,.29.21l8.47,4.88A2.1,2.1,0,0,0,118,96a1.84,1.84,0,0,0,0-.33V85.93A3.71,3.71,0,0,0,116.38,83Z" style="fill:#191919"/><path d="M156.18,60.34l-8.47-4.89-.26-.12c0,.11,0,.22,0,.33v9.77a3.67,3.67,0,0,0,1.66,2.88l8.47,4.89a2.1,2.1,0,0,0,.26.13c0-.12,0-.22,0-.33V63.22A3.68,3.68,0,0,0,156.18,60.34Z" style="fill:#191919"/><path d="M129.64,60.34l-8.46-4.89-.27-.12c0,.11,0,.22,0,.33v9.77a3.7,3.7,0,0,0,1.66,2.88L131,73.2a2.1,2.1,0,0,0,.26.13,1.93,1.93,0,0,0,0-.33V63.22A3.69,3.69,0,0,0,129.64,60.34Z" style="fill:#191919"/><path d="M89.84,83l-8.47-4.88a2.1,2.1,0,0,0-.26-.13,1.84,1.84,0,0,0,0,.33v9.77a3.73,3.73,0,0,0,1.37,2.68,2.73,2.73,0,0,0,.3.21l8.46,4.88.27.13c0-.11,0-.22,0-.33V85.93A3.71,3.71,0,0,0,89.84,83Z" style="fill:#191919"/><path d="M63.3,83l-8.46-4.88L54.57,78c0,.11,0,.22,0,.33v9.77a3.7,3.7,0,0,0,1.37,2.68,1.94,1.94,0,0,0,.29.21l8.47,4.88a2.1,2.1,0,0,0,.26.13,1.84,1.84,0,0,0,0-.33V85.93A3.7,3.7,0,0,0,63.3,83Z" style="fill:#191919"/><path d="M103.11,60.34l-8.47-4.89-.26-.12a1.84,1.84,0,0,0,0,.33v9.77A3.68,3.68,0,0,0,96,68.31l8.46,4.89a2.24,2.24,0,0,0,.27.13c0-.12,0-.22,0-.33V63.22A3.71,3.71,0,0,0,103.11,60.34Z" style="fill:#191919"/><path d="M76.57,60.34,68.1,55.45l-.26-.12c0,.11,0,.22,0,.33v9.77a3.67,3.67,0,0,0,1.66,2.88L78,73.2l.26.13c0-.12,0-.22,0-.33V63.22A3.68,3.68,0,0,0,76.57,60.34Z" style="fill:#191919"/><path d="M36.77,83,28.3,78.16,28,78a1.84,1.84,0,0,0,0,.33v9.77a3.7,3.7,0,0,0,1.37,2.68,2.64,2.64,0,0,0,.29.21l8.47,4.88a2.1,2.1,0,0,0,.26.13,1.84,1.84,0,0,0,0-.33V85.93A3.71,3.71,0,0,0,36.77,83Z" style="fill:#191919"/><path d="M10.23,83,1.76,78.16A2.1,2.1,0,0,0,1.5,78a1.84,1.84,0,0,0,0,.33v9.77a3.73,3.73,0,0,0,1.37,2.68,2.73,2.73,0,0,0,.3.21L11.6,95.9l.27.13c0-.11,0-.22,0-.33V85.93A3.71,3.71,0,0,0,10.23,83Z" style="fill:#191919"/><path d="M50,60.34l-8.46-4.89-.27-.12c0,.11,0,.22,0,.33v9.77a3.7,3.7,0,0,0,1.66,2.88l8.47,4.89.26.13a1.93,1.93,0,0,0,0-.33V63.22A3.69,3.69,0,0,0,50,60.34Z" style="fill:#191919"/><path d="M23.5,60.34,15,55.45l-.26-.12a1.84,1.84,0,0,0,0,.33v9.77a3.68,3.68,0,0,0,1.67,2.88l8.46,4.89a2.24,2.24,0,0,0,.27.13c0-.12,0-.22,0-.33V63.22A3.71,3.71,0,0,0,23.5,60.34Z" style="fill:#191919"/><path d="M302.13,37.64l-8.46-4.89a1.59,1.59,0,0,0-.27-.12c0,.11,0,.21,0,.32v9.78a3.73,3.73,0,0,0,1.37,2.68l.29.2,8.47,4.89.26.12a1.82,1.82,0,0,0,0-.32V40.52A3.68,3.68,0,0,0,302.13,37.64Z" style="fill:#191919"/><path d="M275.6,37.64l-8.47-4.89a1.69,1.69,0,0,0-.27-.12c0,.11,0,.22,0,.32v9.78a3.73,3.73,0,0,0,1.37,2.68l.29.2L277,50.5l.26.12a1.82,1.82,0,0,0,0-.32V40.52A3.7,3.7,0,0,0,275.6,37.64Z" style="fill:#191919"/><path d="M315.4,14.93l-8.47-4.88a2.1,2.1,0,0,0-.26-.13,1.83,1.83,0,0,0,0,.33V20a3.69,3.69,0,0,0,1.66,2.89l8.47,4.88.26.13c0-.11,0-.22,0-.33V17.82A3.71,3.71,0,0,0,315.4,14.93Z" style="fill:#191919"/><path d="M288.86,14.93l-8.46-4.88a2.24,2.24,0,0,0-.27-.13c0,.11,0,.22,0,.33V20a3.71,3.71,0,0,0,1.66,2.89l8.47,4.88a2.1,2.1,0,0,0,.26.13,1.84,1.84,0,0,0,0-.33V17.82A3.7,3.7,0,0,0,288.86,14.93Z" style="fill:#191919"/><path d="M295,.2l8.47,4.89a1.23,1.23,0,0,0,.26.12,1.82,1.82,0,0,0,0-.32V0h-9.05A1.87,1.87,0,0,0,295,.2Z" style="fill:#191919"/><path d="M268.5.2,277,5.09a1.23,1.23,0,0,0,.26.12,1.82,1.82,0,0,0,0-.32V0h-9.05A2.51,2.51,0,0,0,268.5.2Z" style="fill:#191919"/><path d="M249.06,37.64l-8.47-4.89a1.23,1.23,0,0,0-.26-.12,1.73,1.73,0,0,0,0,.32v9.78a3.77,3.77,0,0,0,1.37,2.68l.3.2,8.46,4.89.27.12c0-.11,0-.22,0-.32V40.52A3.7,3.7,0,0,0,249.06,37.64Z" style="fill:#191919"/><path d="M222.52,37.64l-8.46-4.89-.27-.12c0,.11,0,.22,0,.32v9.78a3.73,3.73,0,0,0,1.37,2.68l.29.2,8.47,4.89.26.12a1.82,1.82,0,0,0,0-.32V40.52A3.68,3.68,0,0,0,222.52,37.64Z" style="fill:#191919"/><path d="M262.33,14.93l-8.47-4.88-.26-.13a1.84,1.84,0,0,0,0,.33V20a3.7,3.7,0,0,0,1.67,2.89l8.46,4.88a2.24,2.24,0,0,0,.27.13c0-.11,0-.22,0-.33V17.82A3.71,3.71,0,0,0,262.33,14.93Z" style="fill:#191919"/><path d="M235.79,14.93l-8.47-4.88a2.1,2.1,0,0,0-.26-.13c0,.11,0,.22,0,.33V20a3.69,3.69,0,0,0,1.66,2.89l8.47,4.88.26.13c0-.11,0-.22,0-.33V17.82A3.69,3.69,0,0,0,235.79,14.93Z" style="fill:#191919"/><path d="M242,.2l8.46,4.89.27.12c0-.11,0-.22,0-.32V0h-9.05A2.61,2.61,0,0,0,242,.2Z" style="fill:#191919"/><path d="M215.43.2l8.47,4.89a1.23,1.23,0,0,0,.26.12,1.82,1.82,0,0,0,0-.32V0h-9.05A1.87,1.87,0,0,0,215.43.2Z" style="fill:#191919"/><path d="M196,37.64l-8.47-4.89a1.23,1.23,0,0,0-.26-.12,1.73,1.73,0,0,0,0,.32v9.78a3.73,3.73,0,0,0,1.37,2.68l.29.2,8.47,4.89.27.12c0-.11,0-.22,0-.32V40.52A3.7,3.7,0,0,0,196,37.64Z" style="fill:#191919"/><path d="M169.45,37.64,161,32.75a2.06,2.06,0,0,0-.26-.12,1.82,1.82,0,0,0,0,.32v9.78a3.77,3.77,0,0,0,1.37,2.68l.3.2,8.46,4.89.27.12c0-.11,0-.22,0-.32V40.52A3.7,3.7,0,0,0,169.45,37.64Z" style="fill:#191919"/><path d="M209.25,14.93l-8.46-4.88a2.24,2.24,0,0,0-.27-.13c0,.11,0,.22,0,.33V20a3.71,3.71,0,0,0,1.66,2.89l8.47,4.88.26.13a1.84,1.84,0,0,0,0-.33V17.82A3.7,3.7,0,0,0,209.25,14.93Z" style="fill:#191919"/><path d="M182.72,14.93l-8.47-4.88L174,9.92a1.84,1.84,0,0,0,0,.33V20a3.7,3.7,0,0,0,1.67,2.89l8.46,4.88a2.24,2.24,0,0,0,.27.13c0-.11,0-.22,0-.33V17.82A3.71,3.71,0,0,0,182.72,14.93Z" style="fill:#191919"/><path d="M188.89.2l8.47,4.89a1.11,1.11,0,0,0,.27.12c0-.11,0-.22,0-.32V0H188.6A2.51,2.51,0,0,0,188.89.2Z" style="fill:#191919"/><path d="M162.36.2l8.46,4.89.27.12c0-.11,0-.22,0-.32V0h-9.05A2.61,2.61,0,0,0,162.36.2Z" style="fill:#191919"/><path d="M142.91,37.64l-8.46-4.89a1.59,1.59,0,0,0-.27-.12c0,.11,0,.21,0,.32v9.78a3.73,3.73,0,0,0,1.37,2.68l.29.2,8.47,4.89.26.12a1.82,1.82,0,0,0,0-.32V40.52A3.68,3.68,0,0,0,142.91,37.64Z" style="fill:#191919"/><path d="M116.38,37.64l-8.47-4.89a1.69,1.69,0,0,0-.27-.12c0,.11,0,.22,0,.32v9.78A3.73,3.73,0,0,0,109,45.41l.29.2,8.47,4.89.26.12a1.82,1.82,0,0,0,0-.32V40.52A3.7,3.7,0,0,0,116.38,37.64Z" style="fill:#191919"/><path d="M156.18,14.93l-8.47-4.88-.26-.13c0,.11,0,.22,0,.33V20a3.69,3.69,0,0,0,1.66,2.89l8.47,4.88a2.1,2.1,0,0,0,.26.13c0-.11,0-.22,0-.33V17.82A3.69,3.69,0,0,0,156.18,14.93Z" style="fill:#191919"/><path d="M129.64,14.93l-8.46-4.88a2.24,2.24,0,0,0-.27-.13c0,.11,0,.22,0,.33V20a3.71,3.71,0,0,0,1.66,2.89L131,27.79a2.1,2.1,0,0,0,.26.13,1.84,1.84,0,0,0,0-.33V17.82A3.7,3.7,0,0,0,129.64,14.93Z" style="fill:#191919"/><path d="M135.82.2l8.47,4.89a1.23,1.23,0,0,0,.26.12,1.82,1.82,0,0,0,0-.32V0h-9.05A1.87,1.87,0,0,0,135.82.2Z" style="fill:#191919"/><path d="M109.28.2l8.47,4.89a1.23,1.23,0,0,0,.26.12,1.82,1.82,0,0,0,0-.32V0H109A2.51,2.51,0,0,0,109.28.2Z" style="fill:#191919"/><path d="M89.84,37.64l-8.47-4.89a1.23,1.23,0,0,0-.26-.12,1.73,1.73,0,0,0,0,.32v9.78a3.77,3.77,0,0,0,1.37,2.68l.3.2,8.46,4.89.27.12c0-.11,0-.22,0-.32V40.52A3.7,3.7,0,0,0,89.84,37.64Z" style="fill:#191919"/><path d="M63.3,37.64l-8.46-4.89-.27-.12c0,.11,0,.22,0,.32v9.78a3.73,3.73,0,0,0,1.37,2.68l.29.2,8.47,4.89.26.12a1.82,1.82,0,0,0,0-.32V40.52A3.68,3.68,0,0,0,63.3,37.64Z" style="fill:#191919"/><path d="M103.11,14.93l-8.47-4.88a2.1,2.1,0,0,0-.26-.13,1.84,1.84,0,0,0,0,.33V20A3.7,3.7,0,0,0,96,22.91l8.46,4.88a2.24,2.24,0,0,0,.27.13c0-.11,0-.22,0-.33V17.82A3.71,3.71,0,0,0,103.11,14.93Z" style="fill:#191919"/><path d="M76.57,14.93,68.1,10.05l-.26-.13c0,.11,0,.22,0,.33V20a3.69,3.69,0,0,0,1.66,2.89L78,27.79l.26.13c0-.11,0-.22,0-.33V17.82A3.69,3.69,0,0,0,76.57,14.93Z" style="fill:#191919"/><path d="M82.75.2l8.46,4.89.27.12c0-.11,0-.22,0-.32V0h-9A2.61,2.61,0,0,0,82.75.2Z" style="fill:#191919"/><path d="M56.21.2l8.47,4.89a1.23,1.23,0,0,0,.26.12,1.82,1.82,0,0,0,0-.32V0h-9A1.87,1.87,0,0,0,56.21.2Z" style="fill:#191919"/><path d="M36.77,37.64,28.3,32.75a1.23,1.23,0,0,0-.26-.12A1.73,1.73,0,0,0,28,33v9.78a3.73,3.73,0,0,0,1.37,2.68l.29.2,8.47,4.89.26.12a1.82,1.82,0,0,0,0-.32V40.52A3.7,3.7,0,0,0,36.77,37.64Z" style="fill:#191919"/><path d="M10.23,37.64,1.76,32.75a2.06,2.06,0,0,0-.26-.12,1.82,1.82,0,0,0,0,.32v9.78a3.77,3.77,0,0,0,1.37,2.68l.3.2L11.6,50.5l.27.12c0-.11,0-.22,0-.32V40.52A3.7,3.7,0,0,0,10.23,37.64Z" style="fill:#191919"/><path d="M50,14.93l-8.46-4.88a2.24,2.24,0,0,0-.27-.13c0,.11,0,.22,0,.33V20a3.71,3.71,0,0,0,1.66,2.89l8.47,4.88.26.13a1.84,1.84,0,0,0,0-.33V17.82A3.7,3.7,0,0,0,50,14.93Z" style="fill:#191919"/><path d="M23.5,14.93,15,10.05l-.26-.13a1.84,1.84,0,0,0,0,.33V20a3.7,3.7,0,0,0,1.67,2.89l8.46,4.88a2.24,2.24,0,0,0,.27.13c0-.11,0-.22,0-.33V17.82A3.71,3.71,0,0,0,23.5,14.93Z" style="fill:#191919"/><path d="M29.67.2l8.47,4.89a1.23,1.23,0,0,0,.26.12,1.82,1.82,0,0,0,0-.32V0h-9A2.51,2.51,0,0,0,29.67.2Z" style="fill:#191919"/><path d="M3.14.2,11.6,5.09l.27.12c0-.11,0-.22,0-.32V0h-9A2.61,2.61,0,0,0,3.14.2Z" style="fill:#191919"/></pattern></defs><title>pattern-cubes-dark</title><rect width="1024" height="1024" style="opacity:0.05;fill:url(#a)"/></svg>