<svg xmlns="http://www.w3.org/2000/svg" viewBox="0 0 90 88.99"><path d="M89.61 83.71L74 52.84l13.15-26a3.643 3.643 0 0 0-6.5-3.29L69.9 44.78 48.24 1.98a3.78 3.78 0 0 0-.86-1.1A3.76 3.76 0 0 0 46.9.5l-.17-.11h-.08l-.32-.12-.27-.11a2.7 2.7 0 0 0-.39-.08l-.31-.06h-1.01a3.2 3.2 0 0 0-.42.1l-.24.09a2.37 2.37 0 0 0-.34.13l-.09.06-.16.1a4.27 4.27 0 0 0-.44.3 3.65 3.65 0 0 0-.86 1.1L.39 83.71A3.64 3.64 0 0 0 2 88.6a3.58 3.58 0 0 0 1.64.4 3.63 3.63 0 0 0 3.25-2L22.4 56.36h18.83a3.64 3.64 0 0 0 0-7.28H26.08L45 11.7l20.82 41.14L50.2 83.69a3.64 3.64 0 0 0 1.61 4.89 3.62 3.62 0 0 0 4.89-1.6L69.9 60.9 83.11 87a3.63 3.63 0 0 0 3.25 2 3.58 3.58 0 0 0 1.64-.4 3.64 3.64 0 0 0 1.61-4.89z" fill="#6400fa"/></svg>