<svg xmlns="http://www.w3.org/2000/svg" viewBox="0 0 100 100"><title>big-ideas</title><g style="isolation:isolate"><rect width="100" height="100" style="fill:none"/><path d="M44.41,47.89l11.92-.14a.76.76,0,1,0,0-1.52l-11.92.14a.77.77,0,0,0-.75.77.75.75,0,0,0,.77.75Z" style="fill:#282d33"/><path d="M35.16,17.53a14.84,14.84,0,1,1,29.68-.37c0,.49-.26,7.35-5.77,14.62-1.61,2.2-1.28,6.56-1.27,6.56l-6.49.08-2.11,0-6.52.07s.26-4.37-1.4-6.52C35.59,24.86,35.16,18,35.16,17.53Z" style="fill:#eac715"/><path d="M45.47,36.55c-.12-1.86-.62-5.38-1.8-6.9C38.27,22.86,38,16.39,38,16.32A12.91,12.91,0,0,1,63.77,16a25.39,25.39,0,0,1-5.38,13.42c-1.16,1.57-1.59,5.1-1.68,7Z" style="fill:#ffd917"/><path d="M61.7,18.36a1.16,1.16,0,0,1-1.17-1.15A10.54,10.54,0,0,0,49.87,6.81,1.15,1.15,0,0,1,48.7,5.67a1.16,1.16,0,0,1,1.14-1.18,12.87,12.87,0,0,1,13,12.7A1.15,1.15,0,0,1,61.7,18.36Z" style="fill:#fff"/><polygon points="46.47 39.63 44.36 24.35 45.13 24.11 47.24 39.38 46.47 39.63" style="fill:#484f59"/><polygon points="54.03 39.53 55.77 24.21 54.99 23.99 53.25 39.31 54.03 39.53" style="fill:#484f59"/><path d="M55.16,26.13c-.53,0-.77-.51-.94-.88-.08-.16-.23-.49-.31-.49s-.23.34-.29.49c-.17.38-.39.91-.93.91s-.76-.51-.94-.88a3.29,3.29,0,0,0-.16-.33c-.27.5-.75,1.24-1.36,1.24s-.77-.51-.94-.88c-.07-.16-.22-.49-.31-.49s-.22.33-.29.49c-.16.38-.39.91-.92.91s-.77-.51-1-.88c-.07-.16-.22-.49-.3-.49s-.23.33-.3.49c-.16.38-.39.91-.92.91v-.69c.08,0,.23-.33.3-.49.16-.38.39-.9.92-.91s.77.51.94.89c.08.16.23.48.31.48s.23-.33.29-.49c.17-.38.39-.9.93-.91s.77.51.94.89c.07.16.22.48.3.48s.64-.57.91-1.19a.34.34,0,0,1,.31-.21c.53,0,.77.51.94.89.07.16.23.48.31.48s.22-.33.29-.49c.16-.38.39-.9.92-.91s.77.51,1,.89c.07.16.22.48.3.48Z" style="fill:#484f59"/><path d="M57.82,38.36l.09,7.76a1,1,0,0,1-.95,1l-13.18.16a1,1,0,0,1-1-1l-.09-7.76Z" style="fill:#282d33"/><path d="M58.14,39.86l-15.73.19a.74.74,0,0,1-.76-.75.76.76,0,0,1,.74-.77l15.73-.19a.77.77,0,0,1,.77.75A.75.75,0,0,1,58.14,39.86Z" style="fill:#282d33"/><path d="M51.18,39.56l-8.72.11a.42.42,0,0,1-.43-.42.42.42,0,0,1,.42-.42l8.72-.11a.42.42,0,1,1,0,.84Z" style="fill:#484f59"/><path d="M58.17,42.4l-15.73.19a.76.76,0,0,1,0-1.52l15.72-.19a.76.76,0,1,1,0,1.52Z" style="fill:#282d33"/><path d="M58.2,44.94l-15.72.19a.77.77,0,0,1,0-1.53l15.72-.19a.77.77,0,0,1,.77.76A.76.76,0,0,1,58.2,44.94Z" style="fill:#282d33"/><path d="M51.21,42l-8.72.11a.42.42,0,0,1-.43-.42.43.43,0,0,1,.42-.43l8.72-.1a.42.42,0,1,1,0,.84Z" style="fill:#484f59"/><path d="M51.24,44.55l-8.72.1a.42.42,0,0,1-.43-.41.42.42,0,0,1,.42-.43l8.72-.11a.43.43,0,0,1,.43.42A.44.44,0,0,1,51.24,44.55Z" style="fill:#484f59"/><rect x="44.79" y="39.98" width="7.45" height="0.77" transform="matrix(1, -0.01, 0.01, 1, -0.49, 0.6)" style="fill:#30363d"/><rect x="44.82" y="42.45" width="7.45" height="0.77" transform="translate(-0.52 0.59) rotate(-0.7)" style="fill:#30363d"/><rect x="44.85" y="44.92" width="7.45" height="0.77" transform="translate(-0.55 0.6) rotate(-0.7)" style="fill:#30363d"/><path d="M37.2,89.31c.08.08,0,.32,0,.32a9.09,9.09,0,0,1-1.7.18,2.42,2.42,0,0,1-.47-.18S35,89.52,35,89.5s-.08,0-.13,0l-.2-.12a1.23,1.23,0,0,1,0-.83s1.07-.45,1.29-.22A9.19,9.19,0,0,0,37.2,89.31Z" style="fill:#3c463b"/><path d="M43.47,87.38l.26.94,1-.07s0-.14.12-.15.17.13.27.12l.52,0,2-.15s0-.21,0-.27a.78.78,0,0,0-.31-.11c-.51-.1-2-.43-2.28-.9S43.47,87.38,43.47,87.38Z" style="fill:#3c463b"/><path d="M42,58l6.75,1.41s-4.05-3.11-6.26-3.12S42,58,42,58Z" style="fill:#e9d6b8"/><path d="M47.84,58.86s0-.65.59-.7a6.53,6.53,0,0,1,2,.62s-.31.08-.75.15-1,.09-1,.09Z" style="fill:#e9d6b8"/><path d="M47.31,58.9a24.52,24.52,0,0,0,1.88,2.27l.36-.06L49,60.33l1.22.81.18-.15L49.3,59.92l1,.6.23-.16-1.86-1.53Z" style="fill:#e9d6b8"/><polygon points="38.27 51.83 41.46 55.37 42.27 55.61 42.31 55.52 43.33 56.13 42.77 58.39 41.43 58.17 41.43 58.07 41.07 57.98 40.88 57.97 39.23 56.99 38.31 55.68 38.27 51.83" style="fill:#ffc40e"/><path d="M36.8,70.79s.29-.3,4.5,5.22c2.25,2.95,2.45-.56,2.65-.5S40,66.32,40,66.25s-.55-2.06-.55-2.06l-2.36,0Z" style="fill:#163f59"/><path d="M38.38,63.94S37.27,77.49,37,78.28s-1.37,2.27-1.91,1.54S33.72,73.75,33,69.28s-.14-5.08-.14-5.08Z" style="fill:#194866"/><polygon points="30.61 51.92 38.3 51.8 40.06 65.94 32.02 65.47 30.61 51.92" style="fill:#ffc40e"/><path d="M25.51,48.16l-4.57-4.44s1.93,5,3.07,6S25.51,48.16,25.51,48.16Z" style="fill:#e9d6b8"/><polygon points="32.38 52.23 28.37 50.05 26.58 48.05 25.35 47.19 23.23 49.45 24.34 50.93 24.76 50.52 25.32 49.96 24.73 50.95 26.01 52.51 27.26 52.98 31.51 56.5 32.38 52.23" style="fill:#ffc40e"/><path d="M21.81,44.87s.24-1,.06-1.22-.9-1-.9-1l-.2-.19s-.33.11.16.64.1.4.1.4l-.62-.31-.8-.33-.34-.19s-.18-.12-.25-.11-.11.16-.11.16l1.25.85-1.36-.47s-.19,0-.24,0,0,.1,0,.1l1.41.89L19.25,44s-.18,0-.23,0l-.08.11,2.72,1Z" style="fill:#e9d6b8"/><polygon points="37.17 78.58 36.62 88.46 35.42 88.91 33.91 88.8 33.86 80.48 34.09 75.27 37.25 73.71 37.17 78.58" style="fill:#194866"/><polygon points="43.94 75.47 45.39 87.14 43.27 87.4 40.94 75.52 43.94 75.47" style="fill:#163f59"/><path d="M20,43.75l-1-.28a.72.72,0,0,0-.34-.06.12.12,0,0,0-.12.14l1.43.56Z" style="fill:#e9d6b8"/><path d="M33.87,53.16c1.06.16,2-.36,2.09-.95a.59.59,0,0,0-.07-.39l-3.88,0C32,52.43,32.84,53,33.87,53.16Z" style="fill:#fbe305"/><path d="M35,49.86s-.13,1.72.63,2.07c.37.17-.18.8-.82.89-.87.13-2.32-.43-2.42-.81,0-.18.16-.08.3-.42A8.72,8.72,0,0,0,32.51,49C32.48,48.74,34.88,49.11,35,49.86Z" style="fill:#e9d6b8"/><path d="M35.32,51.74c-.46-.49-.37-1.88-.37-1.88-.06-.62-1.72-1-2.26-1,0,.4.06.79.11,1.05a2,2,0,0,0,1.08,1.26C34.22,51.43,35,51.85,35.32,51.74Z" style="fill:#e2c59c"/><path d="M35.23,46.44l.26,3.4s.06.8-.23.94a2.08,2.08,0,0,1-1.5-.1,2,2,0,0,1-1.08-1.26c-.13-.73-.19-2.47-.19-2.47s.21-.6,1.31-.34S35.23,46.44,35.23,46.44Z" style="fill:#e9d6b8"/><path d="M35.05,45.63a.63.63,0,0,1,.49.37.7.7,0,0,1-.35.74,10,10,0,0,1-1.86.14,1.08,1.08,0,0,1-.71-.36c-.11-.17.41-.6.74-.53C34.21,46.17,34.49,45.52,35.05,45.63Z" style="fill:#194866"/><path d="M33,46.51,33.11,48l0,.78h-.18l-.31,0s-.67-2-.2-2.24S33,46.4,33,46.51Z" style="fill:#194866"/><path d="M32.88,48.92a.24.24,0,0,1-.22.25h-.13a.23.23,0,0,1-.25-.21l0-.54a.23.23,0,0,1,.21-.25h.14a.23.23,0,0,1,.24.21Z" style="fill:#e9d6b8"/><path d="M22.81,67.1l-.23.06v.07l.05.77.2.42.26.29s.06,0,.07,0-.06-.14-.06-.14a.9.9,0,0,1-.13-.19.77.77,0,0,1-.07-.2L22.84,68a3.27,3.27,0,0,1,.05-.57Z" style="fill:#e4eef3"/><path d="M30.6,73.4c-.22-.11-.86.72-1.1,1.43a12.17,12.17,0,0,0-.68,3.67c-.18,2.38-.49,6.18-.57,7.79-.07,1.46-.51,3.2.33,2.9a24.3,24.3,0,0,1,.92-6.63C30.89,77.08,31.26,73.74,30.6,73.4Z" style="fill:#e2c59c"/><path d="M26.58,75q.08-.58.15-1.14c.23-.56.44-.86.62-.83.69.11,1.54,3.11,0,10.53-.08.37-1,6.8-1,6.65A103.55,103.55,0,0,1,26.58,75Z" style="fill:#e9d6b8"/><path d="M26.28,90.67c-.31.77-.73,1.33-.93,1.24s-.12-.77.19-1.54.73-1.32.93-1.24S26.59,89.9,26.28,90.67Z" style="fill:#ad5c49"/><path d="M26.35,90.22c-.14.6-.5,1-.71,1s-.17-.58.09-1.14a2.94,2.94,0,0,0,.44-1.39C26.16,88.19,26.89,88,26.35,90.22Z" style="fill:#e9d6b8"/><path d="M29.27,50.44a2.13,2.13,0,0,1-2,2.28l-.61-1c-1.17.09-2.25-1.6-2.34-2.77l-.06-.79a2.13,2.13,0,0,1,1.95-2.29l.53,0a2.13,2.13,0,0,1,2.28,2Z" style="fill:#ad5c49"/><path d="M24.64,48.14l-.34,0c0,.14.05.28.07.42a2.8,2.8,0,0,1-2.27,2.93,2.82,2.82,0,1,0,2.54-3.4Z" style="fill:#ad5c49"/><path d="M28.12,46.58a4,4,0,0,1,0,.6,2.81,2.81,0,0,1-1.75,2.67,6.47,6.47,0,0,1-.17,1.66,3.31,3.31,0,0,1-.71,1.17c-.08,1,3.26,2.11,3.17,2a9.49,9.49,0,0,1-1.31-2.21,2.1,2.1,0,0,1,.19-1.74A1.75,1.75,0,0,1,28.72,50a.26.26,0,0,0,.17-.09,1.38,1.38,0,0,0,0-.45l-.14-1.75A1.5,1.5,0,0,0,28.12,46.58Z" style="fill:#e9d6b8"/><path d="M28.7,60.57c-.29.91-2.46,1.35-2.89.5l-2.55-6.44c-.43-.85-.09-1.59.74-1.66l1.81-.14.84.35.67-.47,1.4-.1c.84-.07,1.28.62,1,1.52Z" style="fill:#dbdac6"/><path d="M26.43,63c-.6,0-.58.29-.92,1.18a12.72,12.72,0,0,0-.36,6.87A20.77,20.77,0,0,0,28,78.34a20.32,20.32,0,0,0,.65-5.21C28.83,67.07,28.28,63.16,26.43,63Z" style="fill:#e9d6b8"/><path d="M23.67,60.14s-.47,0-.67,2a23.87,23.87,0,0,0-.07,2.67c0,1.13.59-.09.59-.09L24,62.5S24.3,60.73,23.67,60.14Z" style="fill:#dbdac6"/><path d="M23.18,53.46c-.72,1.85.13,8.31.13,8.31s.8,2.37,1.06-6.45C24.44,52.79,23.35,53,23.18,53.46Z" style="fill:#dbdac6"/><path d="M29.77,53.24,31,60.5S29.75,60.42,28.5,55C28,52.71,29.32,53,29.77,53.24Z" style="fill:#dbdac6"/><path d="M23,69l-.26-.29-.2-.42,0-.77a5,5,0,0,1,.18-1.11c.13-.3.22-1.52.27-1.67s.5-.17.5-.17-.15,1.11-.24,1.62a10.69,10.69,0,0,0,0,1.47c0,.15-.07.29-.1.4s-.09.12-.09,0a3.75,3.75,0,0,1,0-.48c0-.15-.15-.09-.15-.09a3.87,3.87,0,0,0-.09.77l.06.15a1.5,1.5,0,0,0,.07.2.9.9,0,0,0,.13.19s.07.09.06.14S23.07,69,23,69Z" style="fill:#e9d6b8"/><polygon points="26.56 53.07 26.19 53.63 25.14 52.95 25.46 52.38 26.56 53.07" style="fill:#c9c8b6"/><polygon points="27.39 52.31 26.83 53 27.29 53.48 27.79 52.64 27.39 52.31" style="fill:#c9c8b6"/><path d="M27.27,60.88l.35-.13A15.73,15.73,0,0,0,26.88,53c-.12,0-.25,0-.36,0A15.77,15.77,0,0,1,27.27,60.88Z" style="fill:#c9c8b6"/><path d="M32.53,78a3.32,3.32,0,0,0,0-.71c-.16-1.41-.21-2.85-.65-5.53A73.28,73.28,0,0,0,29.2,61a6.21,6.21,0,0,0-.48-1.14c-1-.06-2,.7-3,1.08A10.29,10.29,0,0,0,25,63.59a90.78,90.78,0,0,0-1.26,9.71c-.14,2.2,0,4-.11,5.12C26.85,83,29.13,73.85,32.53,78Z" style="fill:#3c463b"/><path d="M32,67.05a7.06,7.06,0,0,1-.11,1c-.05.11-.39.62-.39.62a1.22,1.22,0,0,1,.11-.54A8.57,8.57,0,0,0,32,67.05Z" style="fill:#e2c59c"/><path d="M30.13,59s-.43.1.07,2.42A47.73,47.73,0,0,0,31.94,67l-.69-5.44S30.9,59.51,30.13,59Z" style="fill:#e9d6b8"/><path d="M31.39,65.23a4,4,0,0,1-.29,2.14,6.51,6.51,0,0,1-.23.95c.39-.32.34-.68.44-.89s.05-.14.15.25c.05.22-.23.68-.38,1a.86.86,0,0,0-.11.43,4.4,4.4,0,0,0,.53-.77A5.12,5.12,0,0,0,32,67.1a4.84,4.84,0,0,0-.23-1.51C31.58,65,31.25,64.43,31.39,65.23Z" style="fill:#e9d6b8"/><path d="M31.67,64.12a15.23,15.23,0,0,0-1-4.76c-.18-.56-.37-1.09-.58-1.59-.45.85-.24,3.18.6,5.78.09.29.19.57.29.85C31.2,64.32,31.5,64.22,31.67,64.12Z" style="fill:#dbdac6"/><path d="M30.06,88.8a3.92,3.92,0,0,0-.75-.13c-.32,0-.56,0-.68-.12s-.14-.67-.23-.64c-.44.14-.51,1.2-.24,1.31A7.94,7.94,0,0,0,30,89C30.13,89,30.1,88.77,30.06,88.8Z" style="fill:#e2c59c"/><path d="M29.75,88.73c.11.35-1,.29-1.27.22a2.72,2.72,0,0,0-.45-.08h0v0c0,.2,0,.46.26.44l1.94-.15C31.78,89.05,29.74,88.72,29.75,88.73Z" style="fill:#ad5c49"/><path d="M69.33,61.29l-.4,5.26a16.62,16.62,0,0,1-1.57-4.79C67.2,59.78,69.37,61.21,69.33,61.29Z" style="fill:#e9d6b8"/><path d="M72.2,48.33c0,.6.37,1.12.71,1.15h1c.34,0,.66-.55.71-1.15l.24-3a2.83,2.83,0,0,0-.7-2.13,1.25,1.25,0,0,0-1.47,0,2.83,2.83,0,0,0-.7,2.13Z" style="fill:#e9d6b8"/><path d="M78.73,58.3l-2.58,4.19s3.84-1.84,3.64-3.56S78.73,58.3,78.73,58.3Z" style="fill:#e9d6b8"/><path d="M69.4,49.84s-1.26.82-2,5.85-.26,4.83-.26,4.83l.13,1.15,1.85.19,1.06-4.33Z" style="fill:#b0bfde"/><path d="M76.29,86.24v.5H73.51l-.07-1.35,1.68,0A7.53,7.53,0,0,0,76.29,86.24Z" style="fill:#161711"/><path d="M72.76,63.06s-1.44,8.24-2.94,11.86c-1.34,3.21-2.89-1-2.89-1l2.43-13.82,4-.31S73.64,59.92,72.76,63.06Z" style="fill:#194866"/><path d="M72.42,59.85l-.49,5.32.7.41s.4,7.89.53,8.29c.75,2.29,2.69.92,3,.15a62.68,62.68,0,0,0,.62-10.51l-.08-4.11Z" style="fill:#194866"/><path d="M73.33,71.75a18.27,18.27,0,0,0-.28,4.07c0,1.68.2,6.15.5,9.47,0,.2,1.68,0,1.68,0s1-10.79,1.1-12.87A1.76,1.76,0,0,0,73.33,71.75Z" style="fill:#194866"/><path d="M68.94,49.9l2.92-1.32,1.5.45,1.87-.21,2,.89s.93.89.06,3.75a30.68,30.68,0,0,0-.73,7.59l-7.45.47S69.66,51.49,68.94,49.9Z" style="fill:#d1dbea"/><path d="M76,49.84s1.13-.64,2.26.76a19.86,19.86,0,0,1,3,5.91c.2.58.46,2.29-.33,2.8l-.79.51-1.66-1,.26-.5.14-.32s-.93-2-1.92-3.88A10.32,10.32,0,0,1,76,49.84Z" style="fill:#d1dbea"/><polygon points="73.73 48.97 74.47 49.77 75.2 48.71 74.76 48.06 73.73 48.97" style="fill:#b0bfde"/><polygon points="72.11 48.12 73.53 49.03 72.86 49.84 71.75 48.58 72.11 48.12" style="fill:#b0bfde"/><path d="M67.6,73.77a8.64,8.64,0,0,0,2,.2c1.47.06-1.9,11.91-1.9,11.91l-2.1-.77,1.51-11.93Z" style="fill:#194866"/><path d="M67.49,85.75l-.2,1H63.84v-.38s1.66-.58,2-1.21S67.49,85.75,67.49,85.75Z" style="fill:#161711"/><path d="M74.52,42.93l.22-.65-.27-.09L73.75,42l-.42-.14a.89.89,0,0,0-1.14.58l-.21.65.27.09.71.23.43.14A.9.9,0,0,0,74.52,42.93Z" style="fill:#163f59"/><rect x="70.9" y="43.36" width="5.25" height="3.43" rx="0.8" ry="0.8" transform="translate(7.99 101.13) rotate(-72.05)" style="fill:#e9d6b8"/><path d="M74.79,42.29a.91.91,0,0,1,.59.62l.3.1a.7.7,0,0,1,.45.88l-.54,1.65-.46-.16.21-.66A.49.49,0,0,0,75,44.1L74.75,44,74,43.78l-.43-.14A.92.92,0,0,1,73,42.5l.23-.7Z" style="fill:#163f59"/><path d="M74.84,45.76a.43.43,0,0,1,.54-.27h0a.43.43,0,0,1,.28.54l-.16.49a.43.43,0,0,1-.54.28h0a.44.44,0,0,1-.3-.37" style="fill:#e9d6b8"/><path d="M56.29,58.09s.47.07.21,2.6a51.81,51.81,0,0,1-1.22,6.21L55.39,61S55.53,58.74,56.29,58.09Z" style="fill:#e9d6b8"/><path d="M55.66,64.92a4.46,4.46,0,0,0,.55,2.26,9,9,0,0,0,.36,1c-.45-.31-.44-.7-.58-.9s-.06-.15-.12.27c0,.25.32.71.52,1a1.16,1.16,0,0,1,.17.45,4.9,4.9,0,0,1-.67-.76A6.74,6.74,0,0,1,55.23,67a5.07,5.07,0,0,1,.07-1.65C55.43,64.7,55.72,64.05,55.66,64.92Z" style="fill:#e9d6b8"/><polygon points="56.51 88.52 56.36 91.84 54.27 92.01 53.34 91.9 55.18 91.32 55.39 88.55 56.51 88.52" style="fill:#e9d6b8"/><path d="M56.2,92.27l-.46.06-.08-.13-1.73,0L53.1,92s0-.15,0-.19a4.58,4.58,0,0,1,1.13-.21s-.12.17,0,.24a6.61,6.61,0,0,0,1.53,0c.49-.08.65-.22.66-.18S56.2,92.27,56.2,92.27Z" style="fill:#161711"/><path d="M55.87,64.41,55.59,77l-.86,12.33,1.89.15S58.38,77,58.59,76,61,66.26,60,64.06,55.87,64.41,55.87,64.41Z" style="fill:#194866"/><path d="M63.25,57.42c1,1.27,1.58,6.49,1.58,6.49s-.34,2-2.28-4.71C62,57.19,63,57.11,63.25,57.42Z" style="fill:#e9d6b8"/><path d="M64.39,68.43l.44-.49.23-.47.07-.87A5.72,5.72,0,0,0,65,65.34a13.87,13.87,0,0,1-.16-1.88c-.06-.16-.92-.37-.92-.37s.38,1.42.48,2a11.37,11.37,0,0,1,0,1.67,2.39,2.39,0,0,0,.2.69s0-.61,0-.77.18-.09.18-.09a5.67,5.67,0,0,1,0,1.07,1.52,1.52,0,0,1-.23.4Z" style="fill:#e9d6b8"/><path d="M57.63,54.49,57,61.58V62l-2-.12s.58-5.46.67-5.73a22.27,22.27,0,0,0,.27-3c0-.41.06-2.47,1.41-2.26S57.63,54.49,57.63,54.49Z" style="fill:#f8c44f"/><path d="M62,54.49l.68,7.09V62l2-.12a45.72,45.72,0,0,1-1.15-5.73c0-.28-.06-2.56,0-3a2.28,2.28,0,0,0-1.17-2.26C61.19,50.21,62,54.49,62,54.49Z" style="fill:#f8c44f"/><path d="M59.83,88.14l0,4.26,1.76-.61s.75-.54.11-.47c-.95.1-.75-.3-.78-1.06s.11-2.24.11-2.24Z" style="fill:#e9d6b8"/><path d="M61.86,91.32a4.16,4.16,0,0,1-.41.32,5.28,5.28,0,0,1-1,.47,2.16,2.16,0,0,1-.58,0s-.13.44.16.41a11.27,11.27,0,0,0,2-.82C62.18,91.58,62.21,91.34,61.86,91.32Z" style="fill:#161711"/><path d="M60.22,64.65,60,76.18,59.79,88.4l1.49-.07s1.5-12.31,1.63-13.4,1.93-8.32.72-10.44S60.22,64.65,60.22,64.65Z" style="fill:#194866"/><path d="M59.93,50.36a16.51,16.51,0,0,0-2.86.39c-.55.24-.44,2.94-.08,4.94a11.25,11.25,0,0,1-.32,5.49,22.35,22.35,0,0,0-.9,3.64l8.12-.11s-1.85-5-1.85-6.9.51-6.31.47-6.75S60.44,50.36,59.93,50.36Z" style="fill:#f4da80"/><path d="M61.75,46.86a2,2,0,0,1-2,2l-.51-1a2,2,0,0,1-2-2v-.76a2,2,0,0,1,2-2h.51a2,2,0,0,1,2,2Z" style="fill:#854638"/><path d="M61.49,51.28a2.82,2.82,0,1,1-2.82-2.76A2.79,2.79,0,0,1,61.49,51.28Z" style="fill:#854638"/><path d="M62.89,52.5a2.83,2.83,0,1,1-2.83-2.76A2.8,2.8,0,0,1,62.89,52.5Z" style="fill:#854638"/><path d="M58.56,45.63a2.39,2.39,0,0,0-1.38.44c0,.63.06.79.06,1.21a3.32,3.32,0,0,1-.8,2.29c.5.78,1.11,1.58,2.12,1.58a2.76,2.76,0,1,0,0-5.52Z" style="fill:#854638"/><path d="M61.74,46.81c0-.06,0-.12,0-.18a2.82,2.82,0,0,0-.92-.15A2.76,2.76,0,1,0,63.55,50,3.69,3.69,0,0,1,61.74,46.81Z" style="fill:#854638"/><path d="M64.37,51.51a1.93,1.93,0,1,1-1.93-1.92A1.92,1.92,0,0,1,64.37,51.51Z" style="fill:#854638"/><ellipse cx="50" cy="90.4" rx="37.63" ry="7.1" style="fill:#fafac8;opacity:0.5;mix-blend-mode:multiply"/></g></svg>