<?xml version="1.0" encoding="utf-8"?>
<!-- Generator: Adobe Illustrator 22.1.0, SVG Export Plug-In . SVG Version: 6.00 Build 0)  -->
<svg version="1.1" id="Layer_1" xmlns="http://www.w3.org/2000/svg" xmlns:xlink="http://www.w3.org/1999/xlink" x="0px" y="0px"
	 viewBox="0 0 100 100" style="enable-background:new 0 0 100 100;" xml:space="preserve">
<style type="text/css">
	.st0{fill:none;}
	.st1{fill:#FFFFFF;}
	.st2{fill:#56408B;}
	.st3{fill:url(#SVGID_1_);}
	.st4{opacity:0.1;fill:#191C3C;enable-background:new    ;}
	.st5{fill:#D77EDB;}
	.st6{fill:#5DDAF4;}
	.st7{fill:url(#SVGID_2_);}
	.st8{opacity:0.2;fill:#414042;enable-background:new    ;}
	.st9{opacity:0.2;fill:#525D7A;enable-background:new    ;}
	.st10{fill:url(#SVGID_3_);}
	.st11{fill:url(#SVGID_4_);}
	.st12{opacity:6.000000e-02;fill:#FFFFFF;enable-background:new    ;}
	.st13{opacity:0.1;fill:#525D7A;enable-background:new    ;}
	.st14{fill:#623FE9;}
	.st15{opacity:0.3;fill:#231F20;enable-background:new    ;}
	.st16{fill:#E6E7E8;}
	.st17{fill:#525D7A;}
	.st18{fill:url(#SVGID_5_);}
	.st19{opacity:0.15;fill:#525D7A;enable-background:new    ;}
	.st20{fill:url(#SVGID_6_);}
	.st21{fill:url(#SVGID_7_);}
	.st22{fill:url(#SVGID_8_);}
	.st23{fill:url(#SVGID_9_);}
	.st24{fill:url(#SVGID_10_);}
	.st25{fill:#F5F7F9;}
	.st26{opacity:0.2;fill:#BABECA;enable-background:new    ;}
	.st27{fill:#7866A2;}
	.st28{opacity:0.2;}
	.st29{opacity:0.15;}
	.st30{fill:#9EE9F8;}
	.st31{opacity:0.3;fill:#525D7A;enable-background:new    ;}
	.st32{fill:#7DE1F6;}
	.st33{fill:url(#SVGID_11_);}
	.st34{fill:#F6F6F6;}
</style>
<pattern  y="100" width="72" height="72" patternUnits="userSpaceOnUse" id="k" viewBox="4.2 -74.2 72 72" style="overflow:visible;">
	<g>
		<rect x="4.2" y="-74.2" class="st0" width="72" height="72"/>
		<rect x="4.2" y="-74.2" class="st0" width="72" height="72"/>
		<rect x="4.2" y="-74.2" class="st0" width="72" height="72"/>
		<polygon class="st1" points="71.1,-1.2 70.9,-1.3 72,-4.3 72.2,-4.2 		"/>
		<polygon class="st1" points="66,-1.1 65.4,-4.4 65.7,-4.4 66.3,-1.1 		"/>
		<polygon class="st1" points="51.1,-0.3 50.8,-0.3 50.9,-3.3 51.2,-3.3 		"/>
		<polygon class="st1" points="35.1,-1.8 33.7,-3.8 33.9,-4 35.4,-1.9 		"/>
		<polygon class="st1" points="19.1,-1.6 18.9,-1.8 20.2,-3.8 20.4,-3.6 		"/>
		<polygon class="st1" points="7.8,-0.3 6.1,-2.6 6.4,-2.8 8,-0.5 		"/>
		<polygon class="st1" points="58.6,0 58.4,-0.2 60.4,-3.2 60.6,-3 		"/>
		<rect x="74.8" y="-50.3" class="st1" width="3" height="0.3"/>
		<polygon class="st1" points="74.9,-32.7 74.7,-33 76.7,-34.5 76.9,-34.2 		"/>
		<polygon class="st1" points="6.1,-61.2 5.9,-61.5 8.7,-63.5 8.9,-63.2 		"/>
		<polygon class="st1" points="5.1,-5.2 4.9,-5.5 7.2,-7.2 7.4,-7 		"/>
		<polygon class="st1" points="73.1,-66.2 73,-66.5 76.2,-67.3 76.3,-66.9 		"/>
		<polygon class="st1" points="72.6,-53.5 72.4,-53.7 74.9,-55.5 75.1,-55.2 		"/>
		<rect x="74.8" y="-50.3" class="st1" width="3" height="0.3"/>
		<polygon class="st1" points="74.4,-42.5 71.7,-44.2 71.9,-44.5 74.6,-42.7 		"/>
		<polygon class="st1" points="74.9,-32.7 74.7,-33 76.7,-34.5 76.9,-34.2 		"/>
		<polygon class="st1" points="74.2,-22.2 71.4,-24.5 71.6,-24.7 74.4,-22.5 		"/>
		<polygon class="st1" points="76.3,-11.2 72,-11.9 72.1,-12.3 76.3,-11.5 		"/>
		<polygon class="st1" points="64.4,-11.2 64.2,-11.5 66.4,-13.2 66.6,-13 		"/>
		<rect x="71.8" y="-29.3" class="st1" width="3" height="0.3"/>
		<polygon class="st1" points="60.9,-56.5 59,-59.3 59.3,-59.5 61.1,-56.7 		"/>
		<polygon class="st1" points="30.9,-58 29.3,-60.6 29.5,-60.8 31.1,-58.2 		"/>
		<polygon class="st1" points="46.2,-62.5 45.9,-62.6 47.8,-65.3 48,-65.1 		"/>
		<polygon class="st1" points="71.1,-1.2 70.9,-1.3 72,-4.3 72.2,-4.2 		"/>
		<polygon class="st1" points="66,-1.1 65.4,-4.4 65.7,-4.4 66.3,-1.1 		"/>
		<polygon class="st1" points="59.9,-26 58,-28.8 58.3,-29 60.1,-26.2 		"/>
		<polygon class="st1" points="51.5,-54.5 49.9,-57 50.1,-57.2 51.8,-54.6 		"/>
		<polygon class="st1" points="51.1,-0.3 50.8,-0.3 50.9,-3.3 51.2,-3.3 		"/>
		<polygon class="st1" points="43.7,-3.7 43.4,-3.9 45.3,-6.6 45.5,-6.4 		"/>
		<polygon class="st1" points="35.1,-1.8 33.7,-3.8 33.9,-4 35.4,-1.9 		"/>
		<polygon class="st1" points="53.5,-33.2 53.2,-33.4 55.6,-36.1 55.8,-35.9 		"/>
		<polygon class="st1" points="19.1,-1.6 18.9,-1.8 20.2,-3.8 20.4,-3.6 		"/>
		<polygon class="st1" points="12.4,-3.2 12.1,-3.3 13,-7.5 13.3,-7.4 		"/>
		<polygon class="st1" points="7.8,-0.3 6.1,-2.6 6.4,-2.8 8,-0.5 		"/>
		<polygon class="st1" points="30.2,-4.1 29.9,-4.1 30,-7.1 30.3,-7.1 		"/>
		<polygon class="st1" points="13.7,-67.2 10.2,-68.7 10.3,-69 13.8,-67.5 		"/>
		<polygon class="st1" points="7.7,-53.3 7.4,-53.4 7.6,-56.6 7.9,-56.6 		"/>
		<polygon class="st1" points="12.4,-26.5 10.9,-30.3 11.2,-30.4 12.7,-26.7 		"/>
		<polygon class="st1" points="8.4,-35.8 8.1,-35.9 10.4,-39.7 10.6,-39.5 		"/>
		<polygon class="st1" points="30.1,-67 29.9,-67.2 32.2,-69.7 32.4,-69.5 		"/>
		<polygon class="st1" points="39.7,-66.7 36.4,-69.5 36.6,-69.7 39.9,-67 		"/>
		<polygon class="st1" points="56.5,-67.5 53.2,-69.5 53.3,-69.7 56.6,-67.7 		"/>
		<polygon class="st1" points="53.6,-60.3 53.4,-60.4 55.4,-63.7 55.6,-63.5 		"/>
		<polygon class="st1" points="62.6,-64.7 62.5,-65 67.5,-67.2 67.6,-67 		"/>
		<polygon class="st1" points="67.6,-59.5 67.4,-59.7 69.9,-61.5 70.1,-61.2 		"/>
		<rect x="21.6" y="-69.3" class="st1" width="0.3" height="3"/>
		<polygon class="st1" points="15.5,-63.7 15.5,-64 18.8,-64.5 18.8,-64.2 		"/>
		<polygon class="st1" points="23.4,-56.6 22.9,-59.8 23.2,-59.9 23.7,-56.6 		"/>
		<polygon class="st1" points="24.1,-64.2 24,-64.5 27.5,-65.3 27.6,-65 		"/>
		<polygon class="st1" points="12.4,-52.5 12.2,-52.7 14.9,-54.7 15.1,-54.5 		"/>
		<polygon class="st1" points="10.7,-10.1 10.4,-10.1 10.6,-14.1 10.9,-14.1 		"/>
		<polygon class="st1" points="10.4,-18.3 10.2,-18.5 12.4,-21 12.6,-20.8 		"/>
		<polygon class="st1" points="24.1,-8.3 21.6,-11.8 21.9,-11.9 24.4,-8.4 		"/>
		<polygon class="st1" points="30.4,-43.7 30.2,-44 32.7,-45.7 32.9,-45.5 		"/>
		<polygon class="st1" points="60.7,-40.2 58,-41.7 58.1,-42 60.8,-40.5 		"/>
		<polygon class="st1" points="29.8,-34 26,-34.7 26,-35 29.8,-34.3 		"/>
		<polygon class="st1" points="32.6,-23 32.4,-23.2 34.4,-24.7 34.6,-24.5 		"/>
		<polygon class="st1" points="31.9,-12.5 29.2,-14.7 29.4,-15 32.1,-12.7 		"/>
		<polygon class="st1" points="35.2,-8.2 33.2,-9.5 33.4,-9.7 35.4,-8.5 		"/>
		<rect x="29.5" y="-19.5" class="st1" width="3" height="0.3"/>
		<polygon class="st1" points="40.4,-53.2 40.2,-53.5 42.7,-55.2 42.9,-55 		"/>
		<rect x="42.5" y="-50" class="st1" width="3" height="0.3"/>
		<polygon class="st1" points="42.2,-42.2 39.4,-44 39.6,-44.2 42.4,-42.5 		"/>
		<polygon class="st1" points="40.9,-29.1 40.6,-29.1 41.4,-31.6 41.7,-31.6 		"/>
		<polygon class="st1" points="41.9,-22 39.2,-24.2 39.4,-24.5 42.1,-22.2 		"/>
		<polygon class="st1" points="42.5,-14 40.5,-15.2 40.6,-15.5 42.6,-14.2 		"/>
		<rect x="63" y="-29.7" class="st1" width="3" height="0.3"/>
		<polygon class="st1" points="27.7,-29.2 25.2,-31 25.4,-31.2 27.9,-29.5 		"/>
		<rect x="30" y="-53.8" class="st1" width="3" height="0.3"/>
		<polygon class="st1" points="20.2,-37.5 17.7,-39.2 17.9,-39.5 20.4,-37.7 		"/>
		<rect x="15" y="-34.3" class="st1" width="3" height="0.3"/>
		<polygon class="st1" points="18.4,-26.5 18.2,-26.7 20.9,-28.5 21.1,-28.2 		"/>
		<polygon class="st1" points="50.4,-41 50.2,-41.2 52.6,-42.8 52.7,-42.5 		"/>
		<polygon class="st1" points="52.9,-46.7 50.5,-48.5 50.7,-48.8 53.1,-46.9 		"/>
		<polygon class="st1" points="57.7,-49.6 57.4,-49.6 57.6,-52.6 57.9,-52.6 		"/>
		<polygon class="st1" points="51.4,-8.3 48.3,-8.4 48.4,-8.7 51.4,-8.6 		"/>
		<polygon class="st1" points="51.6,-12.4 49.3,-14.3 49.5,-14.5 51.8,-12.7 		"/>
		<polygon class="st1" points="57.5,-15.3 56.4,-18.3 56.6,-18.4 57.8,-15.4 		"/>
		<polygon class="st1" points="48.9,-28.7 48.7,-29 51.2,-30.7 51.4,-30.5 		"/>
		<polygon class="st1" points="51,-23 47.7,-24 47.8,-24.2 51.1,-23.2 		"/>
		<polygon class="st1" points="59.9,-7.5 57.2,-9.2 57.4,-9.5 60.1,-7.7 		"/>
		<polygon class="st1" points="67.4,-33 64.7,-34.7 64.9,-35 67.6,-33.2 		"/>
		<polygon class="st1" points="63.4,-20.5 63.2,-20.7 65.2,-22.2 65.4,-22 		"/>
		<polygon class="st1" points="25.6,-44.3 22.6,-44.4 22.6,-44.7 25.7,-44.6 		"/>
		<polygon class="st1" points="25.9,-48.4 23.5,-50.3 23.7,-50.5 26.1,-48.7 		"/>
		<polygon class="st1" points="63.5,-44.9 60.8,-45.5 60.8,-45.8 63.5,-45.2 		"/>
		<polygon class="st1" points="18.4,-15.1 17.9,-18.3 18.2,-18.4 18.7,-15.1 		"/>
		<polygon class="st1" points="20.1,-20.2 20,-20.5 23.5,-21.3 23.6,-21 		"/>
		<polygon class="st1" points="39.8,-60.5 35.8,-61.2 35.8,-61.5 39.8,-60.8 		"/>
		<polygon class="st1" points="36.8,-37.1 36.3,-40.6 36.6,-40.6 37.1,-37.1 		"/>
		<polygon class="st1" points="67.5,-51 65,-52.2 65.1,-52.5 67.6,-51.2 		"/>
		<polygon class="st1" points="16.2,-57.7 12.9,-60.5 13.1,-60.7 16.4,-58 		"/>
		<polygon class="st1" points="5.4,-42.7 5.2,-43 7.7,-44.7 7.9,-44.5 		"/>
		<polygon class="st1" points="16.9,-48.5 16.7,-48.7 18.7,-50.2 18.9,-50 		"/>
		<polygon class="st1" points="44.4,-69.2 44.2,-69.4 46,-72.1 46.3,-71.9 		"/>
		<polygon class="st1" points="67.7,-39 67.4,-39.1 69.3,-41.8 69.5,-41.6 		"/>
		<polygon class="st1" points="37,-47.8 36.7,-47.8 37.4,-50.6 37.7,-50.6 		"/>
		<polygon class="st1" points="23.5,-15.3 23.2,-15.3 23.9,-18.1 24.2,-18.1 		"/>
		<polygon class="st1" points="32.9,-29.7 32.7,-30 34.7,-31.5 34.9,-31.2 		"/>
		<rect x="2.8" y="-50.3" class="st1" width="3" height="0.3"/>
		<polygon class="st1" points="2.9,-32.7 2.7,-33 4.7,-34.5 4.9,-34.2 		"/>
		<polygon class="st1" points="71.1,-73.2 70.9,-73.3 72,-76.3 72.2,-76.2 		"/>
		<polygon class="st1" points="66,-73.1 65.4,-76.4 65.7,-76.4 66.3,-73.1 		"/>
		<polygon class="st1" points="51.1,-72.3 50.8,-72.3 50.9,-75.3 51.2,-75.3 		"/>
		<polygon class="st1" points="35.1,-73.8 33.7,-75.8 33.9,-76 35.4,-73.9 		"/>
		<polygon class="st1" points="19.1,-73.6 18.9,-73.8 20.2,-75.8 20.4,-75.6 		"/>
		<polygon class="st1" points="7.8,-72.3 6.1,-74.6 6.4,-74.8 8,-72.5 		"/>
		<polygon class="st1" points="8.3,-22 4.5,-22.7 4.6,-23 8.3,-22.3 		"/>
		<polygon class="st1" points="71.3,-16.7 69.4,-19.5 69.6,-19.7 71.5,-16.8 		"/>
		<polygon class="st1" points="27.1,-38 26.9,-38.1 27.5,-40.9 27.8,-40.8 		"/>
		<polygon class="st1" points="45.9,-35.5 45.7,-35.7 47.7,-37.2 47.9,-37 		"/>
		<polygon class="st1" points="58.6,-72 58.4,-72.2 60.4,-75.2 60.6,-75 		"/>
		<polygon class="st1" points="58.6,0 58.4,-0.2 60.4,-3.2 60.6,-3 		"/>
		<polygon class="st1" points="1.1,-66.2 1,-66.5 4.2,-67.3 4.3,-66.9 		"/>
		<rect x="2.8" y="-50.3" class="st1" width="3" height="0.3"/>
		<polygon class="st1" points="2.9,-32.7 2.7,-33 4.7,-34.5 4.9,-34.2 		"/>
		<polygon class="st1" points="4.3,-11.2 0,-11.9 0.1,-12.3 4.3,-11.5 		"/>
		<polygon class="st1" points="71.1,-73.2 70.9,-73.3 72,-76.3 72.2,-76.2 		"/>
		<polygon class="st1" points="66,-73.1 65.4,-76.4 65.7,-76.4 66.3,-73.1 		"/>
		<polygon class="st1" points="51.1,-72.3 50.8,-72.3 50.9,-75.3 51.2,-75.3 		"/>
		<polygon class="st1" points="35.1,-73.8 33.7,-75.8 33.9,-76 35.4,-73.9 		"/>
		<polygon class="st1" points="19.1,-73.6 18.9,-73.8 20.2,-75.8 20.4,-75.6 		"/>
		<polygon class="st1" points="7.8,-72.3 6.1,-74.6 6.4,-74.8 8,-72.5 		"/>
		<polygon class="st1" points="58.6,-72 58.4,-72.2 60.4,-75.2 60.6,-75 		"/>
	</g>
</pattern>
<title>data</title>
<rect class="st0" width="100" height="100"/>
<path class="st0" d="M100,59.1c0.3,12.8-3.6,32-50,31.8C18.8,90.8,0,82.4,0,59.1S16.4,9,41.1,9S99.5,35.9,100,59.1z"/>
<g>
	<path class="st2" d="M67.1,56.5h24.7c0.3,0,0.5,0.2,0.5,0.5v19.3H66.6V57C66.6,56.7,66.8,56.5,67.1,56.5C67,56.5,67,56.5,67.1,56.5
		L67.1,56.5z"/>
	
		<linearGradient id="SVGID_1_" gradientUnits="userSpaceOnUse" x1="66.56" y1="-562.345" x2="92.28" y2="-562.345" gradientTransform="matrix(1 0 0 1 0 620)">
		<stop  offset="0" style="stop-color:#623FE9"/>
		<stop  offset="1" style="stop-color:#976FE4"/>
	</linearGradient>
	<path class="st3" d="M92.3,58.8V57c0-0.3-0.3-0.6-0.6-0.6H67.1c-0.3,0-0.6,0.3-0.6,0.6v1.9L92.3,58.8z"/>
	<path class="st1" d="M68.5,57.7c0,0.2-0.1,0.3-0.3,0.3c-0.2,0-0.3-0.1-0.3-0.3c0-0.2,0.1-0.3,0.3-0.3
		C68.3,57.4,68.5,57.5,68.5,57.7C68.5,57.7,68.5,57.7,68.5,57.7L68.5,57.7z"/>
	<path class="st1" d="M69.6,57.7c0,0.2-0.1,0.3-0.3,0.3c-0.2,0-0.3-0.1-0.3-0.3c0-0.2,0.1-0.3,0.3-0.3
		C69.4,57.4,69.6,57.5,69.6,57.7C69.6,57.7,69.6,57.7,69.6,57.7L69.6,57.7z"/>
	<path class="st1" d="M70.7,57.7c0,0.2-0.1,0.3-0.3,0.3c-0.2,0-0.3-0.1-0.3-0.3c0-0.2,0.1-0.3,0.3-0.3
		C70.5,57.4,70.7,57.5,70.7,57.7C70.7,57.7,70.7,57.7,70.7,57.7L70.7,57.7z"/>
	<path class="st4" d="M91.1,56.5h-1.5c0.7,0,1.2,0.3,1.2,0.6v19.3h1.6V57C92.3,56.7,91.7,56.5,91.1,56.5z"/>
	<rect x="68.2" y="60.7" class="st1" width="0.8" height="0.3"/>
	<rect x="68.2" y="61.8" class="st1" width="0.8" height="0.3"/>
	<rect x="68.2" y="63" class="st1" width="0.8" height="0.3"/>
	<rect x="68.2" y="64.2" class="st1" width="0.8" height="0.3"/>
	<rect x="68.2" y="65.3" class="st1" width="0.8" height="0.3"/>
	<rect x="68.2" y="66.5" class="st1" width="0.8" height="0.3"/>
	<rect x="68.2" y="67.7" class="st1" width="0.8" height="0.3"/>
	<rect x="68.2" y="68.8" class="st1" width="0.8" height="0.3"/>
	<rect x="68.2" y="70" class="st1" width="0.8" height="0.3"/>
	<rect x="68.2" y="71.1" class="st1" width="0.8" height="0.3"/>
	<rect x="68.2" y="72.3" class="st1" width="0.8" height="0.3"/>
	<rect x="68.2" y="73.4" class="st1" width="0.8" height="0.3"/>
	<rect x="68.2" y="74.6" class="st1" width="0.8" height="0.3"/>
	<rect x="70.7" y="60.7" class="st1" width="10.4" height="0.3"/>
	<rect x="81.6" y="60.7" class="st5" width="1.4" height="0.3"/>
	<rect x="70.7" y="61.8" class="st6" width="1.1" height="0.3"/>
	<rect x="73" y="61.8" class="st1" width="3.1" height="0.3"/>
	<rect x="71.7" y="63" class="st1" width="3.3" height="0.3"/>
	<rect x="75.5" y="63" class="st6" width="2" height="0.3"/>
	<rect x="70.7" y="64.2" class="st1" width="2.7" height="0.3"/>
	<rect x="74.1" y="64.2" class="st1" width="5.5" height="0.3"/>
	<rect x="80.3" y="64.2" class="st5" width="1.5" height="0.3"/>
	<rect x="82.7" y="64.2" class="st1" width="2.1" height="0.3"/>
	<rect x="71.9" y="65.3" class="st1" width="4.6" height="0.3"/>
	<rect x="76.7" y="65.3" class="st6" width="1" height="0.3"/>
	<rect x="78.1" y="65.3" class="st1" width="0.5" height="0.3"/>
	<rect x="79" y="65.3" class="st1" width="2" height="0.3"/>
	<rect x="70.7" y="66.5" class="st1" width="3.5" height="0.3"/>
	<rect x="74.7" y="66.5" class="st5" width="1.4" height="0.3"/>
	<rect x="70.7" y="67.7" class="st1" width="8.3" height="0.3"/>
	<rect x="79.9" y="67.7" class="st1" width="2.1" height="0.3"/>
	<rect x="82.8" y="67.7" class="st1" width="3.7" height="0.3"/>
	<rect x="72.4" y="68.8" class="st6" width="1.8" height="0.3"/>
	<rect x="74.9" y="68.8" class="st1" width="3.2" height="0.3"/>
	<rect x="70.7" y="70" class="st5" width="2.6" height="0.3"/>
	<rect x="74.1" y="70" class="st1" width="9.6" height="0.3"/>
	<rect x="71.9" y="71.1" class="st1" width="7" height="0.3"/>
	<rect x="79.4" y="71.1" class="st6" width="1.7" height="0.3"/>
	<rect x="82" y="71.1" class="st1" width="6.4" height="0.3"/>
	<rect x="70.7" y="72.3" class="st1" width="5" height="0.3"/>
	<rect x="76.5" y="72.3" class="st5" width="3.5" height="0.3"/>
	<rect x="71.7" y="73.4" class="st1" width="6.3" height="0.3"/>
	<rect x="78.4" y="73.4" class="st1" width="5.7" height="0.3"/>
	<rect x="70.7" y="74.6" class="st6" width="1.1" height="0.3"/>
	<rect x="72.7" y="74.6" class="st1" width="4.2" height="0.3"/>
	<rect x="77.5" y="74.6" class="st1" width="3.8" height="0.3"/>
	<path class="st1" d="M28.6,45.8h26.7c0.7,0,1.3,0.6,1.3,1.3l0,0v29.2H27.3V47C27.3,46.3,27.9,45.7,28.6,45.8
		C28.6,45.7,28.6,45.7,28.6,45.8z"/>
	
		<linearGradient id="SVGID_2_" gradientUnits="userSpaceOnUse" x1="27.29" y1="-572.045" x2="56.55" y2="-572.045" gradientTransform="matrix(1 0 0 1 0 620)">
		<stop  offset="0" style="stop-color:#623FE9"/>
		<stop  offset="0.21" style="stop-color:#7853E7"/>
		<stop  offset="0.44" style="stop-color:#8963E5"/>
		<stop  offset="0.7" style="stop-color:#946CE4"/>
		<stop  offset="1" style="stop-color:#976FE4"/>
	</linearGradient>
	<path class="st7" d="M56.5,50.2v-3.4c0-0.6-0.4-1-1-1H28.3c-0.6,0-1,0.4-1,1v3.4H56.5z"/>
	<path class="st2" d="M32.8,51h18.1c0.8,0,1.5,0.7,1.5,1.5v6c0,0.8-0.7,1.5-1.5,1.5H32.8c-0.8,0-1.5-0.7-1.5-1.5v-6
		C31.4,51.6,32,51,32.8,51z"/>
	<path class="st1" d="M30.7,48c0,0.3-0.3,0.6-0.6,0.6s-0.6-0.3-0.6-0.6s0.3-0.6,0.6-0.6c0,0,0,0,0,0l0,0
		C30.4,47.4,30.7,47.7,30.7,48z"/>
	<path class="st1" d="M32.7,48c0,0.3-0.3,0.6-0.6,0.6s-0.6-0.3-0.6-0.6s0.3-0.6,0.6-0.6h0C32.4,47.4,32.7,47.6,32.7,48
		C32.7,48,32.7,48,32.7,48z"/>
	<path class="st1" d="M34.6,48c0,0.3-0.3,0.6-0.6,0.6s-0.6-0.3-0.6-0.6c0-0.3,0.3-0.6,0.6-0.6h0l0,0C34.4,47.4,34.6,47.7,34.6,48z"
		/>
	<path class="st8" d="M55.5,45.8h-1.3c0.6,0,1,0.4,1,1v29.5h1.3V46.8C56.5,46.2,56.1,45.8,55.5,45.8L55.5,45.8z"/>
	<rect x="31.5" y="61.1" class="st2" width="21" height="0.3"/>
	<rect x="31.5" y="63.8" class="st2" width="21" height="0.3"/>
	<rect x="35.5" y="66.5" class="st2" width="7.3" height="0.3"/>
	<rect x="43.9" y="66.5" class="st2" width="8.6" height="0.3"/>
	<rect x="31.5" y="66.5" class="st2" width="3.3" height="0.3"/>
	<rect x="47.1" y="69.2" class="st2" width="5.4" height="0.3"/>
	<rect x="31.5" y="69.2" class="st2" width="13.8" height="0.3"/>
	<rect x="31.5" y="71.8" class="st2" width="14.9" height="0.3"/>
	<rect x="31.5" y="74.5" class="st2" width="13.1" height="0.3"/>
	<path class="st9" d="M68,76.3h0.1c1-0.1,1.8-0.7,2.1-1.7c0.2-0.5,0.3-1,0.3-1.5c0.1-5.2,0-10.3,0-15.5v-1.3h-0.6c0,0-0.1,0-0.1,0.1
		h-2.4c-0.2,0-0.4,0.1-0.5,0.3c-0.1,0.1-0.1,0.2-0.1,0.3v1.9l0,0v17.4H68z"/>
	<path class="st9" d="M50.3,45.8H41c0,0,0-0.1-0.1-0.1v6.8c0,0,0,0.1,0.1,0.1v9.9c0,0-0.1,0-0.1,0.1l0,0v7.6
		c-0.1,1.2-0.1,2.5,0.1,3.7c0,1.2,0.8,2.2,2,2.4l0.2,0.1h8.1V46.8C51.3,46.2,50.9,45.8,50.3,45.8L50.3,45.8z"/>
	
		<linearGradient id="SVGID_3_" gradientUnits="userSpaceOnUse" x1="48.0866" y1="-543.4581" x2="62.9466" y2="-595.8381" gradientTransform="matrix(1 0 0 1 0 620)">
		<stop  offset="0" style="stop-color:#56408B"/>
		<stop  offset="3.000000e-02" style="stop-color:#5A4390"/>
		<stop  offset="0.32" style="stop-color:#7456B4"/>
		<stop  offset="0.58" style="stop-color:#8764CF"/>
		<stop  offset="0.82" style="stop-color:#936CDE"/>
		<stop  offset="1" style="stop-color:#976FE4"/>
	</linearGradient>
	<path class="st10" d="M66.5,76.3H44.7c-1.5,0-2.7-1.3-2.7-2.8c0,0,0,0,0,0v-47c0-1.5,1.2-2.8,2.8-2.8h21.7c1.5,0,2.8,1.2,2.8,2.8
		v47C69.3,75,68,76.3,66.5,76.3C66.5,76.3,66.5,76.3,66.5,76.3z"/>
	
		<linearGradient id="SVGID_4_" gradientUnits="userSpaceOnUse" x1="41.98" y1="-570.61" x2="69.13" y2="-570.61" gradientTransform="matrix(1 0 0 1 0 620)">
		<stop  offset="0" style="stop-color:#623FE9"/>
		<stop  offset="0.17" style="stop-color:#616CEC"/>
		<stop  offset="0.35" style="stop-color:#5F93EF"/>
		<stop  offset="0.52" style="stop-color:#5EB2F1"/>
		<stop  offset="0.69" style="stop-color:#5EC8F3"/>
		<stop  offset="0.85" style="stop-color:#5DD6F4"/>
		<stop  offset="1" style="stop-color:#5DDAF4"/>
	</linearGradient>
	<rect x="42" y="29.8" class="st11" width="27.1" height="39.2"/>
	<path class="st2" d="M57.6,72.4c0,1.1-0.9,2-2,2s-2-0.9-2-2s0.9-2,2-2S57.6,71.3,57.6,72.4z"/>
	<path class="st12" d="M44.5,23.7h2.3c-1.4,0-2.5,1.1-2.5,2.5v47.5c0,1.4,1.1,2.5,2.5,2.5c0,0,0,0,0,0h-2.3c-1.4,0-2.5-1.1-2.5-2.5
		V26.2C42,24.9,43.1,23.8,44.5,23.7z"/>
	<path class="st13" d="M66.7,23.7h-2.3c1.4,0,2.5,1.1,2.5,2.5l0,0v47.6c0,1.4-1.1,2.5-2.4,2.5c0,0,0,0,0,0h2.3
		c1.4,0,2.5-1.1,2.5-2.5l0,0V26.2C69.1,24.9,68,23.8,66.7,23.7L66.7,23.7z"/>
	<rect x="51.7" y="26.7" class="st2" width="5.2" height="0.3"/>
	<rect x="57.5" y="26.7" class="st2" width="1.4" height="0.3"/>
	<path class="st14" d="M22,73.8c0,1.3-1.1,2.4-2.4,2.4c-1.3,0-2.4-1.1-2.4-2.4c0-1.3,1.1-2.4,2.4-2.4l0,0C20.9,71.4,22,72.4,22,73.8
		C22,73.8,22,73.8,22,73.8z"/>
	<polygon class="st1" points="19.4,74.5 18.6,73.8 18.9,73.5 19.4,74 20.4,73 20.6,73.3 	"/>
	<path class="st15" d="M17.2,73.8c0,0.7,0.3,1.4,0.9,1.9c1-0.8,1.2-2.3,0.3-3.4c-0.1-0.1-0.2-0.2-0.3-0.3
		C17.6,72.4,17.2,73.1,17.2,73.8z"/>
	<path class="st6" d="M18.3,74.8c-0.6,1.2-2.1,1.7-3.3,1.2c-1.2-0.6-1.7-2.1-1.2-3.3c0.6-1.2,2.1-1.7,3.3-1.2c0,0,0,0,0,0l0,0
		C18.4,72.2,18.9,73.6,18.3,74.8z"/>
	<path class="st1" d="M16,73.5l0.3-0.5l0.4,0.2l-0.3,0.5L17,74l-0.2,0.4l-0.5-0.3L16,74.7l-0.4-0.2l0.3-0.5l-0.5-0.3l0.2-0.4
		L16,73.5z"/>
	<path class="st15" d="M14.9,71.6c-0.4,0.2-0.8,0.6-1,1.1c-0.5,1.1-0.1,2.5,0.9,3.2c1.2-0.7,1.6-2.2,0.9-3.4
		C15.5,72.1,15.2,71.8,14.9,71.6z"/>
	<path class="st5" d="M15.7,73.7c0,1.4-1.1,2.5-2.5,2.5s-2.5-1.1-2.5-2.5s1.1-2.5,2.5-2.5S15.7,72.3,15.7,73.7z"/>
	<path class="st1" d="M12.4,74.3L12.4,74.3l-0.2,0.2l-0.7-0.7l0,0l0.7-0.7l0.2,0.2l0,0l-0.5,0.4L12.4,74.3z"/>
	<path class="st1" d="M13.9,72.5l-1,2.5h-0.4l1-2.4L13.9,72.5z"/>
	<path class="st1" d="M14.4,73.8L14,73.4l0,0l0.2-0.2l0.7,0.7l0,0l-0.7,0.7L14,74.3l0,0L14.4,73.8z"/>
	<path class="st6" d="M38.8,74.5h0.5c0.1,0,0.2-0.1,0.2-0.2v-0.6c0-0.1-0.1-0.2-0.2-0.2h-0.4c-0.1,0-0.1,0-0.1-0.1v-0.1
		c0,0,0-0.1,0-0.2L39,73c0.1-0.1,0.1-0.2,0-0.2c0,0,0,0,0,0l0,0l-0.4-0.4c-0.1-0.1-0.2-0.1-0.2,0l-0.3,0.3c0,0-0.1,0-0.2,0h-0.1
		c-0.1,0-0.1-0.1-0.1-0.1v-0.4c0-0.1-0.1-0.2-0.2-0.2H37c-0.1,0-0.2,0.1-0.2,0.2v0.4c0,0.1,0,0.1-0.1,0.1h-0.1c0,0-0.1,0-0.2,0
		l-0.3-0.3c-0.1-0.1-0.2-0.1-0.2,0c0,0,0,0,0,0l0,0l-0.4,0.4c-0.1,0.1-0.1,0.2,0,0.2l0.3,0.3c0,0,0,0.1,0,0.2v0.1
		c0,0.1-0.1,0.1-0.1,0.1h-0.4c-0.1,0-0.2,0.1-0.2,0.2v0.6c0,0.1,0.1,0.2,0.2,0.2h0.4c0.1,0,0.1,0,0.1,0.1v0.1c0,0,0,0.1,0,0.2
		l-0.3,0.3c-0.1,0.1-0.1,0.2,0,0.2c0,0,0,0,0,0l0,0l0.4,0.4c0.1,0.1,0.2,0.1,0.2,0c0,0,0,0,0,0l0,0l0.3-0.3c0,0,0.1,0,0.2,0h0.1
		c0.1,0,0.1,0.1,0.1,0.1V76c0,0.1,0.1,0.2,0.2,0.2h0.6c0.1,0,0.2-0.1,0.2-0.2v-0.4c0-0.1,0-0.1,0.1-0.1h0.1c0.1,0,0.1,0,0.2,0
		l0.3,0.3c0.1,0.1,0.2,0.1,0.3,0l0.4-0.4c0.1-0.1,0.1-0.2,0-0.2c0,0,0,0,0,0l0,0l-0.3-0.3c0,0,0-0.1,0-0.2L38.8,74.5z M36.5,73.9
		c0.1-0.5,0.5-0.8,1-0.7h0.1c0.4,0.2,0.6,0.5,0.5,0.9c-0.1,0.5-0.5,0.8-1,0.7C36.7,74.8,36.4,74.3,36.5,73.9L36.5,73.9L36.5,73.9z"
		/>
	<path class="st14" d="M35.9,73.6h0.7c0.1,0,0.3-0.1,0.3-0.3v-0.9c0-0.1-0.1-0.3-0.3-0.3l0,0H36c-0.1,0-0.2-0.1-0.2-0.2
		c0-0.1,0-0.1-0.1-0.2c0-0.1,0-0.2,0-0.3l0.4-0.4c0.1-0.1,0.1-0.3,0-0.4l-0.7-0.7c-0.1-0.1-0.3-0.1-0.4,0l0,0l-0.4,0.4
		c-0.1,0.1-0.2,0.1-0.2,0l-0.2-0.1c-0.1,0-0.1-0.1-0.1-0.2v-0.6c0-0.1-0.1-0.3-0.3-0.3H33c-0.1,0-0.3,0.1-0.3,0.3v0.6
		c0,0.1-0.1,0.2-0.2,0.2l-0.2,0.1c-0.1,0-0.2,0-0.3,0l-0.4-0.4c-0.1-0.1-0.3-0.1-0.4,0l-0.7,0.7c-0.1,0.1-0.1,0.3,0,0.4l0.4,0.4
		c0.1,0.1,0.1,0.2,0,0.2c0,0.1-0.1,0.1-0.1,0.2c0,0.1-0.1,0.1-0.2,0.1h-0.6c-0.1,0-0.3,0.1-0.3,0.3v0.9c0,0.1,0.1,0.3,0.3,0.3h0.6
		c0.1,0,0.2,0.1,0.2,0.2l0.1,0.2c0.1,0.1,0.1,0.2,0,0.3l-0.4,0.4c-0.1,0.1-0.1,0.3,0,0.4l0.7,0.7c0.1,0.1,0.3,0.1,0.4,0l0.4-0.4
		c0.1,0,0.2,0,0.3,0l0.2,0.1c0.1,0,0.1,0.1,0.1,0.2V76c0,0.1,0.1,0.3,0.2,0.3c0,0,0,0,0,0h1c0.1,0,0.2-0.1,0.2-0.3v-0.6
		c0-0.1,0.1-0.2,0.2-0.2l0.2-0.1c0.1,0,0.2,0,0.3,0l0.4,0.4c0.1,0.1,0.3,0.1,0.4,0l0,0l0.7-0.7c0.1-0.1,0.1-0.3,0-0.4l-0.4-0.4
		c-0.1-0.1-0.1-0.2,0-0.2C35.8,73.8,35.8,73.7,35.9,73.6z M32.2,72.6c0.1-0.7,0.8-1.2,1.5-1.1c0,0,0,0,0,0c0.1,0,0.2,0,0.2,0.1
		c0.6,0.2,0.9,0.8,0.8,1.5c-0.1,0.7-0.8,1.2-1.5,1.1C32.5,74,32,73.3,32.2,72.6L32.2,72.6L32.2,72.6z"/>
	<path class="st16" d="M74.5,73.3h16.3c0.2,0,0.3,0.2,0.3,0.3v2.2c0,0.2-0.2,0.3-0.3,0.3H74.5c-0.2,0-0.3-0.2-0.3-0.3v-2.2
		C74.2,73.5,74.4,73.3,74.5,73.3z"/>
	<path class="st1" d="M91.2,73.9v1h-17v-1c0-0.3,0.2-0.5,0.5-0.6h15.9C91,73.3,91.2,73.6,91.2,73.9z"/>
	<rect x="75.2" y="73.3" class="st17" width="0.2" height="0.4"/>
	<rect x="75.9" y="73.3" class="st17" width="0.2" height="0.4"/>
	<rect x="76.7" y="73.3" class="st17" width="0.2" height="0.4"/>
	<rect x="77.4" y="73.3" class="st17" width="0.2" height="0.4"/>
	<rect x="78.2" y="73.3" class="st17" width="0.2" height="0.7"/>
	<rect x="78.9" y="73.3" class="st17" width="0.2" height="0.4"/>
	<rect x="79.7" y="73.3" class="st17" width="0.2" height="0.4"/>
	<rect x="80.4" y="73.3" class="st17" width="0.2" height="0.4"/>
	<rect x="81.2" y="73.3" class="st17" width="0.2" height="0.4"/>
	<rect x="81.9" y="73.3" class="st17" width="0.2" height="0.7"/>
	<rect x="82.7" y="73.3" class="st17" width="0.2" height="0.4"/>
	<rect x="83.5" y="73.3" class="st17" width="0.2" height="0.4"/>
	<rect x="84.2" y="73.3" class="st17" width="0.2" height="0.4"/>
	<rect x="85" y="73.3" class="st17" width="0.2" height="0.4"/>
	<rect x="85.7" y="73.3" class="st17" width="0.2" height="0.7"/>
	<rect x="86.5" y="73.3" class="st17" width="0.2" height="0.4"/>
	<rect x="87.2" y="73.3" class="st17" width="0.2" height="0.4"/>
	<rect x="88" y="73.3" class="st17" width="0.2" height="0.4"/>
	<rect x="88.8" y="73.3" class="st17" width="0.2" height="0.4"/>
	<rect x="89.5" y="73.3" class="st17" width="0.2" height="0.7"/>
	<rect x="90.3" y="73.3" class="st17" width="0.2" height="0.4"/>
	<path class="st9" d="M69.2,42v-8.5h-6.3c-1.1-0.1-2.2-0.1-3.3,0.1l0,0l-0.2,0.1l0,0c-0.2,0.1-0.5,0.3-0.6,0.5l0,0c0,0,0,0.1,0,0.1
		c-0.1,0.1-0.1,0.3-0.2,0.4c-0.2,0.9-0.2,1.7-0.1,2.6v2.8c0,0,0,0.1,0.1,0.1l0,0v0.1c0,0.4,0.1,0.7,0.4,1l0,0c0.3,0.3,0.6,0.5,1,0.5
		c1.4,0.2,2.7,0.2,4.1,0.1L69.2,42L69.2,42L69.2,42z"/>
	
		<linearGradient id="SVGID_5_" gradientUnits="userSpaceOnUse" x1="59.05" y1="-582.745" x2="85.6" y2="-582.745" gradientTransform="matrix(1 0 0 1 0 620)">
		<stop  offset="0" style="stop-color:#D77EDB"/>
		<stop  offset="0.15" style="stop-color:#CD79DC"/>
		<stop  offset="0.42" style="stop-color:#B26ADF"/>
		<stop  offset="0.75" style="stop-color:#8753E5"/>
		<stop  offset="1" style="stop-color:#623FE9"/>
	</linearGradient>
	<path class="st18" d="M61,33h22.6c1.1,0,2,0.9,2,2v4.5c0,1.1-0.9,2-2,2H61c-1.1,0-2-0.9-2-2V35C59,33.9,59.9,33,61,33z"/>
	<path class="st19" d="M84.5,33.2c0.1,0.2,0.2,0.5,0.2,0.7v4.9c0,1-0.8,1.8-1.8,1.8h-23c-0.3,0-0.5-0.1-0.7-0.2
		c0.3,0.6,0.9,1.1,1.6,1.1h23c1,0,1.8-0.8,1.8-1.8l0,0l0,0v-4.9C85.6,34.1,85.2,33.5,84.5,33.2z"/>
	<path class="st1" d="M62.2,34.1h4.3c0.5,0,0.9,0.4,0.9,0.9v4.3c0,0.5-0.4,0.9-0.9,0.9h-4.3c-0.5,0-0.9-0.4-0.9-0.9V35
		C61.3,34.5,61.7,34.1,62.2,34.1z"/>
	<rect x="68.3" y="35.2" class="st1" width="15.2" height="0.3"/>
	<rect x="73.8" y="37.1" class="st1" width="9.7" height="0.3"/>
	<rect x="68.3" y="37.1" class="st1" width="4.3" height="0.3"/>
	<rect x="68.3" y="38.9" class="st1" width="8" height="0.3"/>
	
		<linearGradient id="SVGID_6_" gradientUnits="userSpaceOnUse" x1="42.98" y1="-572.58" x2="68.06" y2="-572.58" gradientTransform="matrix(1 0 0 1 0 620)">
		<stop  offset="0" style="stop-color:#5DDAF4"/>
		<stop  offset="0.15" style="stop-color:#5EBAF2"/>
		<stop  offset="0.44" style="stop-color:#6086EE"/>
		<stop  offset="0.68" style="stop-color:#615FEB"/>
		<stop  offset="0.88" style="stop-color:#6248EA"/>
		<stop  offset="1" style="stop-color:#623FE9"/>
	</linearGradient>
	<path class="st20" d="M45,43.4h21.1c1.1,0,2,0.9,2,2v4c0,1.1-0.9,2-2,2H45c-1.1,0-2-0.9-2-2v-4C43,44.3,43.9,43.4,45,43.4z"/>
	<path class="st19" d="M67.1,43.5c0.1,0.2,0.1,0.5,0.2,0.7v4.6c0,0.9-0.8,1.7-1.7,1.7H43.8c-0.2,0-0.5-0.1-0.7-0.2
		c0.3,0.6,0.9,1,1.5,1h21.7c0.9,0,1.7-0.8,1.7-1.7c0,0,0,0,0,0l0,0V45C68.1,44.3,67.7,43.7,67.1,43.5z"/>
	<path class="st1" d="M46,44.3h4c0.5,0,0.9,0.4,0.9,0.9v4c0,0.5-0.4,0.9-0.9,0.9h-4c-0.5,0-0.9-0.4-0.9-0.9v-4
		C45.1,44.8,45.5,44.3,46,44.3z"/>
	<rect x="51.7" y="45.4" class="st1" width="14.4" height="0.3"/>
	<rect x="56.9" y="47.2" class="st1" width="9.2" height="0.3"/>
	<rect x="51.7" y="47.2" class="st1" width="4" height="0.3"/>
	<rect x="51.7" y="48.9" class="st1" width="7.6" height="0.3"/>
	
		<linearGradient id="SVGID_7_" gradientUnits="userSpaceOnUse" x1="39" y1="-562.415" x2="65.55" y2="-562.415" gradientTransform="matrix(1 0 0 1 0 620)">
		<stop  offset="0" style="stop-color:#623FE9"/>
		<stop  offset="0.31" style="stop-color:#6E4AE8"/>
		<stop  offset="0.88" style="stop-color:#8F68E5"/>
		<stop  offset="1" style="stop-color:#976FE4"/>
	</linearGradient>
	<path class="st21" d="M41,53.3h22.6c1.1,0,2,0.9,2,2v4.5c0,1.1-0.9,2-2,2H41c-1.1,0-2-0.9-2-2v-4.5C39,54.2,39.9,53.3,41,53.3z"/>
	<path class="st19" d="M64.5,53.5c0.1,0.2,0.2,0.5,0.2,0.7v4.9c0,1-0.8,1.8-1.8,1.8l0,0h-23c-0.3,0-0.5-0.1-0.7-0.2
		c0.3,0.6,0.9,1.1,1.6,1.1h23c1,0,1.8-0.8,1.8-1.8v-4.9C65.5,54.4,65.1,53.8,64.5,53.5z"/>
	<path class="st1" d="M42.2,54.4h4.3c0.5,0,0.9,0.4,0.9,0.9v4.3c0,0.5-0.4,0.9-0.9,0.9h-4.3c-0.5,0-0.9-0.4-0.9-0.9v-4.3
		C41.3,54.9,41.7,54.4,42.2,54.4z"/>
	<rect x="48.2" y="55.5" class="st1" width="15.2" height="0.3"/>
	<rect x="53.7" y="57.4" class="st1" width="9.7" height="0.3"/>
	<rect x="48.2" y="57.4" class="st1" width="4.3" height="0.3"/>
	<rect x="48.2" y="59.3" class="st1" width="8" height="0.3"/>
	
		<linearGradient id="SVGID_8_" gradientUnits="userSpaceOnUse" x1="85.6291" y1="-543.7914" x2="94.7091" y2="-549.9514" gradientTransform="matrix(1 0 0 1 0 620)">
		<stop  offset="0" style="stop-color:#623FE9"/>
		<stop  offset="0.31" style="stop-color:#6E4AE8"/>
		<stop  offset="0.88" style="stop-color:#8F68E5"/>
		<stop  offset="1" style="stop-color:#976FE4"/>
	</linearGradient>
	<path class="st22" d="M85.5,70.1h9.2c0.1,0,0.2,0.1,0.2,0.2V76c0,0.1-0.1,0.2-0.2,0.2h-9.2c-0.1,0-0.2-0.1-0.2-0.2v-5.7
		C85.3,70.2,85.4,70.1,85.5,70.1z"/>
	
		<linearGradient id="SVGID_9_" gradientUnits="userSpaceOnUse" x1="85.35" y1="-545.5384" x2="94.94" y2="-545.5384" gradientTransform="matrix(1 0 0 1 0 620)">
		<stop  offset="0" style="stop-color:#623FE9"/>
		<stop  offset="0.49" style="stop-color:#6441E9"/>
		<stop  offset="0.68" style="stop-color:#6B47E8"/>
		<stop  offset="0.82" style="stop-color:#7752E7"/>
		<stop  offset="0.93" style="stop-color:#8861E5"/>
		<stop  offset="1" style="stop-color:#976FE4"/>
	</linearGradient>
	<path class="st23" d="M94.9,76.1l-4.6-3.3c-0.1-0.1-0.3-0.1-0.4,0l-4.6,3.3c0.1,0.1,0.2,0.1,0.3,0.2h9
		C94.7,76.3,94.9,76.2,94.9,76.1z"/>
	
		<linearGradient id="SVGID_10_" gradientUnits="userSpaceOnUse" x1="85.35" y1="-548.168" x2="94.94" y2="-548.168" gradientTransform="matrix(1 0 0 1 0 620)">
		<stop  offset="0" style="stop-color:#623FE9"/>
		<stop  offset="8.000000e-02" style="stop-color:#6945E8"/>
		<stop  offset="0.43" style="stop-color:#825CE6"/>
		<stop  offset="0.75" style="stop-color:#926AE5"/>
		<stop  offset="1" style="stop-color:#976FE4"/>
	</linearGradient>
	<path class="st24" d="M85.3,70.2l4.7,3.3c0.1,0.1,0.3,0.1,0.4,0l4.6-3.3c-0.1-0.1-0.2-0.1-0.3-0.1h-9C85.6,70,85.4,70.1,85.3,70.2z
		"/>
	<path class="st9" d="M31.9,75.5v-5.3c-0.1-0.1-0.1-0.1-0.2-0.2h-0.1c-0.1,0-0.1,0-0.2,0c-0.2,0.1-0.8,0.7-0.8,0.9s0.2,0.2,0.3,0.4
		c0.3,0.9-0.3,0.4-0.6,0.7l-0.1,0.1c-0.1,0-0.1,0.1-0.2,0.2c-0.1,0.2-0.2,0.5-0.1,0.7c0.1,0.3,0.1,0.4,0.1,0.4
		c0.1,0.1,0.1,0.1,0.2,0.1l0.1,0.1c0.3,0.2,0.7-0.5,0.6,0.5c0,0.1-0.3,0.2-0.3,0.3s-0.2,0.2-0.1,0.4c0.2,0.3,0.4,0.6,0.7,0.8
		c0.4,0.1,0,0,0.5,0L31.9,75.5z"/>
	<path class="st25" d="M23.1,69.9h7.3c0.5,0,0.9,0.4,0.9,0.8v4.6c0,0.5-0.4,0.8-0.9,0.8h-7.3c-0.5,0-0.9-0.4-0.9-0.8v-4.6
		C22.3,70.3,22.7,69.9,23.1,69.9z"/>
	<path class="st26" d="M30.7,70h-0.4c0.3,0,0.5,0.2,0.5,0.5v5.3c0,0.3-0.2,0.5-0.5,0.5h0.4c0.3,0,0.5-0.2,0.5-0.5v-5.3
		C31.2,70.2,31,70,30.7,70z"/>
	<path class="st14" d="M28.7,74.1h-4.8c-0.1-1.3,0.9-2.5,2.2-2.5s2.5,0.9,2.5,2.2C28.7,73.9,28.7,74,28.7,74.1z"/>
	<polygon class="st2" points="24.7,75.3 27.3,72.7 29.8,75.3 	"/>
	<polygon class="st27" points="22.6,75.3 25.2,72.7 27.7,75.3 	"/>
	<g class="st28">
		<path class="st17" d="M73.3,63l-0.5,2.9l-1.9,7.9h0.2l-0.1,0.3l-0.3,0.3l-0.3-0.5l-2.8,0.9c-0.3,0.1-0.5,0.4-0.4,0.6v0.7H73v-1.7
			h-0.3l0.2-0.7H73c1-3.3,2.5-5.3,2.5-7.6V65l2.5-5.7l2.2,6.4l1.1,8.1h0.2v0.9H81v1l0.2,0.5h2.1l0.3-0.5v-1h-0.5v-0.9h0.3l-1-8.9
			L82,59v-0.5c0-0.1,0-0.3,0.1-0.4c0-0.1,0-0.3,0-0.4c0-0.3-0.1-0.5-0.1-0.8l-0.1-0.5h-7L73.3,63z"/>
	</g>
	<path class="st6" d="M77.7,43.1c-0.1-0.1-0.3-0.2-0.3-0.3c-0.1-0.2-0.2-0.4-0.2-0.5c-0.1-0.2-0.2-0.4-0.3-0.6
		c0-0.1-0.1-0.2-0.1-0.3c-0.3-0.4-0.8-0.7-1.4-0.7c-0.4,0-1.2-0.2-1.2,0.3c0,0.1,0,0.2,0.1,0.3c0.1,0.3,0.4,0.4,0.4,0.8
		c0,0.2,0,0.4,0.1,0.6c0.1,0.2,0.4,0.3,0.5,0.6c0.1,0.2,0.1,0.5,0.1,0.7c0,0.1,0,0.1,0.1,0.2c0.1,0.1,0.2,0.1,0.3,0.2
		c0.2,0.1,0.4,0.3,0.5,0.6c0.1,0.2,0.2,0.5,0.2,0.7c0.2,0.4,0.4,0.7,0.7,1.1c-0.1-0.2-0.1-0.4,0.1-0.6c0.1-0.1,0.3-0.1,0.4-0.3
		c0.2-0.2,0.2-0.5,0.2-0.8c0-0.4,0-0.8,0-1.2C77.9,43.6,77.9,43.3,77.7,43.1z"/>
	<rect x="80.8" y="73.3" class="st1" width="1.6" height="2"/>
	<polygon class="st1" points="71.9,75 69.5,75.1 70.4,74.1 70.7,73.1 72.3,73.6 	"/>
	<path class="st5" d="M74.5,55.2L72.7,63l-0.5,2.9l-1.9,7.9h2.1c1-3.3,2.5-5.3,2.5-7.6V65l3.1-7.3l0,0c0.3-0.2,0.6-0.6,0.6-1v-1.5
		H74.5z"/>
	<path class="st5" d="M80.9,55.2l0.4,1.7c0.2,0.5,0.2,1.1,0,1.6V59l0.5,6l1,8.9h-2.2l-1.1-8.1l-2.6-7.5v-3.1H80.9z"/>
	<path class="st9" d="M81.8,64.9l-0.5-6v-0.5c0.2-0.5,0.2-1.1,0-1.6l-0.3-1h-0.6l0.1,1c0.2,0.5,0.2,1.1,0,1.6l0.3,0.5l0.5,6l1,8.9
		h0.6L81.8,64.9z"/>
	<path class="st1" d="M83.1,45.8l0.8,0.1L82,42.4l-0.6-0.3l-0.4-0.7h0.6V41l-0.6-1.4c0.1-0.1,0.1-0.1,0.2-0.1l0.7,1.2H82l-0.4-1.5
		c0,0,0.2,0,0.3,0l0.3,1.3h0.1l-0.2-1.3c0.1,0,0.1,0,0.2,0l0.2,1.2h0.1l0.1-0.8c0,0,0.1,0,0.1,0l0.2,1.7v0.8l2.3,3.8
		c0.2,0.4,0.2,0.9-0.2,1.2l0,0c-0.2,0.2-0.4,0.3-0.7,0.3l-1.5,0.1L83.1,45.8z"/>
	<g class="st29">
		<path class="st17" d="M85.4,46c0,0.3-0.1,0.5-0.3,0.7c-0.2,0.2-0.4,0.3-0.7,0.3h-1.4v0.6l1.5-0.1c0.2,0,0.5-0.1,0.7-0.3
			C85.5,46.8,85.6,46.4,85.4,46z"/>
	</g>
	<path class="st1" d="M72.2,45.8l-0.8,0.1l1.8-3.5l0.6-0.3l0.5-0.7h-0.6V41l0.6-1.4c-0.1-0.1-0.1-0.1-0.2-0.1l-0.7,1.2h-0.2l0.4-1.5
		c0,0-0.2,0-0.3,0L73,40.5h-0.2l0.2-1.3h-0.2l-0.2,1.2h-0.1l-0.1-0.8c0,0-0.1,0-0.1,0l-0.2,1.7v0.8L69.8,46
		c-0.2,0.4-0.1,0.9,0.2,1.2l0,0c0.2,0.2,0.4,0.3,0.7,0.3l1.5,0.1L72.2,45.8z"/>
	<g class="st29">
		<path class="st17" d="M71.1,46.8c-0.2,0-0.5-0.1-0.7-0.3c-0.3-0.3-0.4-0.8-0.2-1.2L69.8,46c-0.2,0.4-0.2,0.9,0.2,1.2
			c0.2,0.2,0.4,0.3,0.7,0.3l1.5,0.1v-0.7L71.1,46.8z"/>
	</g>
	<path class="st9" d="M81,55.8l-0.1-0.6h-6.3l-0.3,0.9C76.1,55.8,80.2,55.9,81,55.8z"/>
	<path class="st14" d="M76.7,45l-2.4,2.6l-0.3,0.8C74,48.7,73.9,49,74,49.3l0.4,2.3c0,1.2-0.2,2.4-0.5,3.6c0,0,7.4,0.2,7.3,0
		c-0.6-0.9-0.8-2-0.8-3.1l0.5-4.4L78.5,45L76.7,45z"/>
	<path class="st13" d="M80.4,52l0.5-4.4L78.5,45h-0.7l2.4,2.6L79.7,52c0,1.1,0.3,2.2,0.8,3.1c-0.5,0.1-1,0.2-1.5,0.1
		c0.7,0.1,1.5,0,2.2-0.1C80.6,54.2,80.4,53.1,80.4,52z"/>
	<path class="st14" d="M72.3,74.5v1.7h-5.8v-0.7c0-0.3,0.2-0.5,0.4-0.6l2.8-0.9l0.4,0.6H72.3z"/>
	<rect x="66.5" y="75.7" class="st2" width="5.8" height="0.5"/>
	<polygon class="st14" points="80.5,76.2 82.6,76.2 82.9,75.7 82.9,74.7 80.3,74.7 80.3,75.7 	"/>
	<polygon class="st2" points="82.6,76.2 82.9,75.7 80.4,75.7 80.5,76.2 	"/>
	<polygon class="st14" points="78.5,43.7 80.3,45 83.1,45.6 83.1,47.7 81.4,47.7 79.9,47.4 78.5,45 	"/>
	<polygon class="st14" points="76.7,44.5 74.9,45 72.2,45.6 72.2,47.7 73.8,47.7 75.3,47.4 77.6,44.9 	"/>
	<path class="st9" d="M74.7,55.2c0.3-1.3,0.5-2.7,0.4-4.1l-0.4-2.3c0-0.3,0-0.6,0.1-0.9l0.1-0.4c0.1-0.2,0-0.4-0.2-0.5h-2.5v0.8h1.7
		l0.5-0.1l-0.3,0.8c-0.1,0.3-0.1,0.6-0.1,0.9l0.4,2.3c0,1.2-0.2,2.4-0.5,3.6L74.7,55.2z"/>
	<path class="st1" d="M77.6,45.2L77.6,45.2c-0.5,0-0.9-0.4-0.9-0.9l0,0l0,0v-1.3h1.9v1.4C78.5,44.8,78.1,45.2,77.6,45.2z"/>
	<path class="st1" d="M75,40.5c-0.1,0.4-0.2,0.9-0.2,1.4l0.1,0.3l-0.3,0.5c-0.1,0.1-0.1,0.2,0,0.3c0,0,0.1,0,0.1,0H75v0.9
		c0,0.2,0.2,0.4,0.4,0.4h0.4c0.8,0,1.6-0.4,2-1.1l0.4-0.7l-0.2-2.1C77.1,39.8,75.9,39.8,75,40.5z"/>
	<g class="st29">
		<path class="st17" d="M79.6,49.5c0-0.1,0-0.2,0.1-0.3c0-0.1,0.1-0.2,0.2-0.2c0,0.2,0,0.4,0.1,0.6c0.1-0.4,0.3-0.7,0.5-1
			c0.1-0.1,0.2-0.1,0.2-0.2s0.1-0.3,0.1-0.4l0,0v-0.4L78.5,45h-0.5c0.3-0.2,0.5-0.5,0.5-0.8v-1.3H78l0.2-0.4l-0.2-2.1
			c-0.9-0.7-2.2-0.7-3.1,0c-0.1,0.2-0.1,0.4-0.1,0.6c0.2,0.1,0.4,0.2,0.6,0.3c0.3,0,0.6-0.1,0.8,0.2c0.1,0.2,0.2,0.5,0.1,0.8
			c0,0.1,0,0.3,0,0.4c0.1,0.6,0.8,0.6,0.8,1.2c0,0.2-0.1,0.5-0.1,0.7c0,0.1,0,0.3,0,0.4h0.1h-0.1c0,0.1,0.1,0.2,0.1,0.2
			c0.2,0.1,0.3,0.2,0.5,0.2c0.3,0.1,0.4,0.5,0.3,0.8c0,0.2-0.1,0.3-0.1,0.5c0,0.2,0.1,0.3,0.2,0.5c0.2,0.2,0.6,0.1,0.8,0.3
			c0.2,0.2,0.3,0.5,0.2,0.8c-0.1,0.3-0.1,0.5-0.1,0.8c0,0.2,0.1,0.3,0.1,0.5c0.1,0.2,0,0.4-0.2,0.5C79.2,49.9,79.5,49.8,79.6,49.5z"
			/>
	</g>
	<path class="st6" d="M81.4,46.8c0-0.1-0.1-0.1-0.1-0.2c-0.2-0.2-0.5-0.4-0.5-0.7s0-0.4,0-0.6c0-0.3-0.1-0.5-0.3-0.7
		c-0.1-0.1-0.3-0.2-0.4-0.3c0-0.1,0-0.2,0-0.4c0-0.3-0.1-0.6-0.3-0.8c-0.2-0.3-0.4-0.4-0.4-0.8s0.1-0.5-0.1-0.7s-0.2-0.2-0.3-0.3
		c-0.1-0.1-0.1-0.3-0.1-0.5c-0.3-1.4-1.9-1.4-3-1.3c-0.3,0-0.6,0-0.8,0.1c-0.1,0-0.3,0.1-0.3,0.3c0,0.1,0,0.2,0,0.3
		c0.2,0.5,0.6,0.9,1.2,1c0.3,0,0.6-0.1,0.8,0.2c0.1,0.2,0.2,0.5,0.1,0.8c0,0.1,0,0.3,0,0.4c0.1,0.6,0.8,0.6,0.8,1.2
		c0,0.2-0.1,0.5-0.1,0.7c0,0.2,0,0.5,0.2,0.6c0.2,0.1,0.3,0.2,0.5,0.2c0.3,0.1,0.4,0.5,0.3,0.8c0,0.2-0.1,0.3-0.1,0.5
		c0,0.2,0,0.3,0.2,0.5c0.2,0.2,0.6,0.1,0.8,0.3c0.2,0.2,0.3,0.5,0.2,0.8c-0.1,0.3-0.1,0.5-0.1,0.8c0,0.2,0.1,0.3,0.1,0.5
		c0,0.2,0,0.3-0.1,0.4c0.2,0,0.4-0.2,0.5-0.4c0-0.1,0-0.2,0.1-0.3c0-0.1,0.1-0.2,0.2-0.2c0,0.2,0,0.4,0.1,0.6c0.1-0.4,0.3-0.7,0.5-1
		c0.1-0.1,0.2-0.1,0.2-0.2c0-0.1,0.1-0.3,0.1-0.4C81.5,47.6,81.6,47.1,81.4,46.8z"/>
	<g class="st28">
		<path class="st17" d="M79.7,49.7c0.2-0.1,0.1-0.4,0.1-0.6c0-0.2,0-0.5,0.1-0.6c0.2-0.5,0-1.1-0.5-1.3L79.3,47
			c-0.1-0.1-0.1-0.1-0.1-0.2c-0.1-0.4,0-1-0.3-1.3c-0.2-0.2-0.4-0.3-0.6-0.5c-0.3-0.4,0-1-0.2-1.5s-0.5-0.5-0.7-0.8
			c-0.2-0.3-0.3-0.7-0.2-1.1c0.1-0.2,0.1-0.3,0-0.5c-0.1-0.1-0.2-0.2-0.3-0.2c-0.6-0.2-1.7,0.1-1.8-0.8c0-0.1,0-0.2,0-0.3
			c-0.1,0-0.2,0.1-0.3,0.3c0,0.1,0,0.2,0,0.3c0.2,0.5,0.6,0.9,1.2,1c0.3,0,0.6-0.1,0.8,0.2c0.1,0.2,0.2,0.5,0.1,0.8
			c0,0.1,0,0.3,0,0.4c0.1,0.6,0.8,0.6,0.8,1.2c0,0.2-0.1,0.5-0.1,0.7c0,0.2,0,0.5,0.2,0.6c0.2,0.1,0.3,0.2,0.5,0.2
			c0.3,0.1,0.4,0.5,0.3,0.8c0,0.2-0.1,0.3-0.1,0.5c0,0.2,0,0.3,0.2,0.5c0.2,0.2,0.6,0.1,0.8,0.3c0.2,0.2,0.3,0.5,0.2,0.8
			c-0.1,0.3-0.1,0.5-0.1,0.8c0,0.2,0.1,0.3,0.1,0.5c0,0.2,0,0.3-0.1,0.4c0.2,0,0.4-0.1,0.5-0.3C79.9,49.6,79.8,49.7,79.7,49.7z"/>
		<path class="st17" d="M81,48.5c0,0,0.1-0.1,0.1-0.1L81,48.5z"/>
	</g>
	<path class="st30" d="M80.4,49.6L80.4,49.6c0.1-0.1,0.1-0.3,0.2-0.5C80.5,49.2,80.4,49.4,80.4,49.6z"/>
	<path class="st30" d="M79.9,49.5c0,0.1-0.1,0.1-0.1,0.2C79.9,49.7,79.9,49.6,79.9,49.5l0.1-0.2C80,49.4,79.9,49.4,79.9,49.5z"/>
	<path class="st30" d="M81.4,46.8c0-0.1-0.1-0.1-0.1-0.2c-0.2-0.2-0.5-0.4-0.5-0.7s0-0.4,0-0.6c0-0.3-0.1-0.5-0.3-0.7
		c-0.1-0.1-0.3-0.2-0.4-0.3c0-0.1,0-0.2,0-0.4c0-0.3-0.1-0.6-0.3-0.8c-0.2-0.3-0.4-0.4-0.4-0.8s0.1-0.5-0.1-0.7s-0.2-0.2-0.3-0.3
		c-0.1-0.1-0.1-0.3-0.1-0.5c-0.3-1.4-1.9-1.4-3-1.3c-0.3,0-0.6,0-0.8,0.1c-0.1,0-0.3,0.1-0.3,0.3v0.1c0.1-0.1,0.1-0.1,0.2-0.1
		c0.3-0.1,0.5-0.1,0.8-0.1c1.1-0.1,2.7-0.1,3,1.3c0,0.2,0.1,0.3,0.1,0.5c0.1,0.1,0.2,0.2,0.3,0.3s0,0.4,0,0.7s0.2,0.5,0.4,0.8
		c0.2,0.2,0.3,0.5,0.3,0.8c0,0.1,0,0.2,0,0.4c0.1,0.1,0.3,0.2,0.4,0.3c0.2,0.2,0.3,0.4,0.3,0.7c0,0.2,0,0.4,0,0.6
		c0.1,0.3,0.3,0.5,0.5,0.7l0.1,0.2c0.2,0.4,0.1,0.9-0.2,1.3c0,0.1-0.1,0.2-0.1,0.3c0,0,0.1-0.1,0.1-0.1c0-0.1,0.1-0.3,0.1-0.4
		C81.5,47.7,81.6,47.2,81.4,46.8z"/>
	<g class="st28">
		<path class="st17" d="M38.1,57.3l-1.5,0.1l-3.3,0.6c-1.6,0.4-4.6-0.5-4.6-0.5c-0.2-0.1-0.4-0.2-0.6-0.3c-0.1,0.1-0.2,0.3-0.3,0.4
			l0,0L27.6,58l0,0l-0.3,0.3l0,0c-0.1,0.1-0.2,0.2-0.3,0.3l0,0l-0.3,0.3l0,0l-0.3,0.2l0,0l-0.2,0.2l0,0L26,59.5l0,0l-0.2,0.1l0,0
			l-0.1,0.1l0,0L25.3,60h-0.1c-0.9,0.5-1.8,1.1-2.6,1.7l3.8,3.8c0.2,0.2,0.2,0.5,0.1,0.8l-3.7,7.2l-0.3-0.1l-0.1,0.3l0.3,0.5
			l0.1-0.2l1,1l2.2,0.2v0.6L25.6,76h-3.3v-6.7c0.3-1,0.8-2,1.3-3l-1.3-0.8v-9.9c1.4-1.2,2.6-2.3,2.6-2.3c0.8-0.5,1.9-0.7,2.8-0.3
			l0,0l0.3-0.3h-0.1c0,0-0.1,0-0.1-0.1c0,0,0,0-0.1-0.1c-0.1-0.1-0.1-0.3,0-0.4v-0.4c0-0.1-0.1-0.2-0.1-0.2c0.1-0.1,0.2-0.1,0.3-0.2
			l0,0c0-0.1,0-0.1,0-0.2l0,0v-0.1l0,0c0.1-0.1,0.1-0.1,0.2-0.2l0.1-0.1c0,0,0.1-0.1,0.1-0.2c0.2-0.2,0.3-0.4,0.4-0.7
			c0-0.1,0.1-0.3,0.2-0.4c0.4-0.3,0.8-0.5,1.3-0.5c0.5-0.1,1.1-0.4,1.6-0.2c0.2,0.1,0.3,0.2,0.4,0.3c0.3,0.2,0.6,0.5,0.9,0.8
			c0.1,0.1,0.1,0.3,0.2,0.4c0.1,0.1,0.3,0.1,0.4,0.3l0.1,0.1l0,0v0.3c0,0.2-0.1,0.3-0.1,0.5l-0.3,0.8C33.1,52.2,33,52.2,33,52
			c-0.2,0.1-0.4,0.2-0.6,0.2l-0.1,1.3l-0.4-0.2L31.3,54c-0.4,0.5-1.2,0.5-1.7,0.1l0,0l-0.4-0.3l-0.6,0.6l2.8,1.4l5.9,0.2l0.9-1.1
			l0.7-2.3c0.1,0.2,0.2,0.5,0.2,0.8l-0.2,1.3C38.9,54.6,38.9,56.8,38.1,57.3z"/>
	</g>
	<rect x="26.4" y="52.5" transform="matrix(0.6601 -0.7511 0.7511 0.6601 -30.6619 39.04)" class="st1" width="2.8" height="1.7"/>
	<polygon class="st19" points="27.4,52.6 28.3,54.1 29.4,52.9 28.1,51.8 	"/>
	<path class="st1" d="M27.3,52.7l1.6,1.4c0.5,0.4,1.3,0.4,1.7-0.1l0,0l0.6-0.6l0.4,0.2l0.1-1.3l0,0c0.4,0,0.8-0.2,1-0.6l-0.3-0.3
		l-1.3-1.2c-0.5-0.4-1.3-0.4-1.7,0.1L27.3,52.7z"/>
	<polygon class="st1" points="22.1,72.8 21.7,73.8 22.4,74.9 19.9,74.9 19.9,74 20.6,72.6 	"/>
	<polygon class="st1" points="8.3,72.7 7.5,73.4 7.6,74.6 5.6,73.6 6,72.9 7.2,72 	"/>
	<path class="st2" d="M21.3,61.1l4.4,4.4c0.2,0.2,0.2,0.5,0.1,0.8l-3.7,7.2l-1.8-0.4c0,0,1.6-5.4,2.5-6.7l-5.4-3.5L21.3,61.1z"/>
	<path class="st19" d="M21.5,73.3c0,0,1.6-5.7,2.5-7L18.7,62L17.5,63l5.4,3.5c-0.9,1.3-2.5,6.7-2.5,6.7L21.5,73.3z"/>
	<path class="st2" d="M17.8,58.6c-0.9,0.3-1.7,0.8-2.3,1.6l-0.9,2.2L11,66.8c0,0-2.2,1.1-4.6,5.3l1.5,1.3l4.7-4.7l6-5.2l2.1-2.4
		L17.8,58.6z"/>
	<path class="st27" d="M6.9,72.2c2.4-4.2,4.6-5.3,4.6-5.3l3.6-4.4l0.9-2.2c0.5-0.7,1.2-1.2,2.1-1.5l-0.2-0.2
		c-0.9,0.3-1.7,0.8-2.3,1.6l-0.9,2.2L11,66.8c0,0-2.2,1.1-4.6,5.3l1.5,1.3L8,73.3L6.9,72.2z"/>
	<path class="st1" d="M27.6,54.3l3.2,1.6l5.9,0.2l0.9-1.1l0.7-2.3l0,0c0.2,0.2,0.2,0.5,0.2,0.8l-0.2,1.3L38,56.1L37.4,57l-7,0.5
		l-3-1.2L27.6,54.3z"/>
	<path class="st31" d="M21,62l-0.4,0.3l0,0c-1.8-0.3-3.3-1.5-3.9-3.3c0.4-0.2,1-0.4,1-0.4L21,62z"/>
	<path class="st6" d="M27,53c-0.9-0.3-2-0.2-2.8,0.3c0,0-5,4.7-6.7,5.1c0,0,0.6,3.7,3.7,4c1-0.9,2.1-1.7,3.3-2.4
		c1.9-1.1,3.3-2.9,3.8-5.1L27,53z"/>
	<path class="st32" d="M17.7,58.7c1.7-0.4,6.7-5.1,6.7-5.1c0.8-0.5,1.8-0.6,2.7-0.3L27,53c-0.9-0.3-2-0.2-2.8,0.3c0,0-5,4.7-6.7,5.1
		c0.2,1.2,0.8,2.2,1.6,3.1C18.4,60.6,17.9,59.7,17.7,58.7z"/>
	<path class="st19" d="M27.4,55.1c-0.7,1.9-2.1,3.5-3.8,4.5c-1.3,0.7-2.4,1.5-3.5,2.5c0.4,0.2,0.7,0.2,1.1,0.3
		c1-0.9,2.1-1.7,3.3-2.4c1.7-1,3.1-2.6,3.6-4.5C28.2,55.3,27.5,54.8,27.4,55.1z"/>
	<polygon class="st2" points="20.1,74.3 20.5,74.7 21.5,74.7 22.1,74 23.1,75.1 25.3,75.2 25.3,75.8 24.9,76.1 19.7,76.1 19.7,74.3 
			"/>
	<polygon class="st2" points="7.6,73.6 8,74.7 8.4,75.2 9.4,75.6 9.4,76 8.9,76.2 6.8,76.2 5,74.2 5.9,72.8 6.2,73 6.2,73.4 
		6.8,73.9 	"/>
	<path class="st6" d="M25.4,56.2l2.6,1l0.8-2l-2.6-1c-0.5-0.2-1.2,0-1.4,0.6c0,0,0,0,0,0l0,0l0,0C24.5,55.3,24.8,55.9,25.4,56.2
		C25.4,56.1,25.4,56.1,25.4,56.2z"/>
	<pattern  id="SVGID_11_" xlink:href="#k" patternTransform="matrix(0.33 0 0 0.33 -5444.0459 -5591.4604)">
	</pattern>
	<path class="st33" d="M28.8,55.2L28.3,55l0,0L27,53c-0.9-0.3-2-0.2-2.8,0.3c0,0-5,4.7-6.7,5.1c0,0,0.6,3.7,3.7,4
		c1-0.9,2.1-1.7,3.3-2.4c1.3-0.7,2.3-1.7,3-3l0.5,0.2L28.8,55.2z"/>
	<path class="st19" d="M25.6,55.6c-0.5-0.2-0.7-0.7-0.6-1.2c-0.4,0.4-0.4,1.1,0.1,1.5c0,0,0,0,0,0c0.1,0.1,0.2,0.2,0.3,0.2l2.6,1
		l0.2-0.6L25.6,55.6z"/>
	<path class="st1" d="M28.7,55.4l2.4,0.6h6.3l0.9-1.1l0.7-2.3l0,0c0.1,0.2,0.2,0.5,0.2,0.8l-0.2,1.3L38.7,56c0,0.1,0,0.1-0.1,0.2
		c-0.1,0.3-0.3,0.6-0.5,0.8h-1.6c-0.2,0-0.3,0-0.5,0.1l-3.4,0.6c-1.2,0.1-2.3,0-3.5-0.3L28.1,57L28.7,55.4z"/>
	<path class="st19" d="M38.9,54.2l-0.2,1.3c0,0.1,0,0.1-0.1,0.2c-0.1,0.3-0.3,0.6-0.5,0.8l-1.6,0.1c-0.1,0-0.3,0-0.5,0l-3.4,0.6
		c-1.2,0.1-2.3,0-3.5-0.3l-1-0.3l-0.1,0.4l1.1,0.3c1.1,0.3,2.3,0.4,3.5,0.3l3.4-0.5c0.1,0,0.3,0,0.5,0h1.7c0.2-0.2,0.4-0.5,0.5-0.8
		c0-0.1,0.1-0.1,0.1-0.2l0.2-1.3l0.2-1.3c0-0.1,0-0.2,0-0.3L38.9,54.2z"/>
	<polygon class="st34" points="19.7,75.8 22.2,74.9 22.2,74.9 19.7,74.9 	"/>
	<polygon class="st34" points="5.1,74 5.8,74.7 7.6,74.7 7.6,74.7 6.2,74 5.6,73.3 	"/>
	<g class="st29">
		<path class="st17" d="M32.4,51.4l-1.3-1.2c-0.5-0.4-1.3-0.4-1.7,0.1l-2.1,2.4l0.3,0.3h0.1c0.1-0.1,0.2-0.2,0.2-0.3
			c0.1-0.2,0.2-0.4,0.4-0.6c0.2-0.1,0.4-0.1,0.6-0.1H29c0,0,0.1,0.1,0.1,0c0-0.3,0-0.6,0.3-0.7c0.1,0,0.1,0,0.2,0c0,0,0,0,0.1,0
			l0.1,0.1c0.1,0.1,0.1,0.2,0.1,0.3c0,0.2-0.1,0.3-0.1,0.5s0,0.5-0.1,0.5c0.2,0,0.2-0.3,0.3-0.4s0.4-0.3,0.6-0.5s0.2-0.4,0.5-0.5
			s1,0.3,1.2,0.6l0,0c0.2-0.1,0.3-0.2,0.4-0.4L32.4,51.4z"/>
	</g>
	<path class="st2" d="M27.4,50.9l0.1-0.2c0.2-0.2,0.3-0.4,0.4-0.7c0-0.1,0.1-0.3,0.2-0.4c0.4-0.3,0.8-0.5,1.3-0.5
		c0.5-0.1,1.1-0.4,1.6-0.2c0.2,0.1,0.3,0.2,0.5,0.3c0.3,0.2,0.6,0.5,0.9,0.8c0.1,0.1,0.1,0.3,0.2,0.4c0.1,0.1,0.3,0.1,0.3,0.3
		c0.1,0.3,0.1,0.6,0,0.9l-0.3,0.8c-0.2-0.1-0.3-0.3-0.4-0.5s-0.9-0.8-1.2-0.6s-0.3,0.4-0.5,0.5s-0.5,0.3-0.6,0.5s-0.1,0.4-0.3,0.4
		c0.1,0,0.1-0.5,0.1-0.6c0-0.2,0-0.3,0.1-0.5c0-0.1,0-0.2-0.1-0.3l-0.1-0.1h-0.1c0,0-0.1,0-0.1,0c-0.3,0.1-0.3,0.4-0.3,0.7h-0.3
		c-0.2,0-0.4,0-0.6,0.1c-0.2,0.2-0.3,0.3-0.4,0.6c0,0.1-0.1,0.2-0.2,0.3h-0.4h-0.1c-0.3-0.2,0-0.6,0-0.8c0-0.1-0.1-0.2-0.1-0.2
		c0.1-0.1,0.3-0.1,0.3-0.2s0-0.4-0.1-0.4c0.1,0,0.1-0.1,0.2-0.1L27.4,50.9z"/>
	<path class="st27" d="M29.8,52c0-0.1,0-0.2,0-0.2C29.8,51.9,29.8,52,29.8,52c0,0.2,0,0.6-0.1,0.6c0,0,0.1,0,0.1,0c0,0,0-0.1,0-0.1
		C29.8,52.4,29.8,52.2,29.8,52z"/>
	<path class="st27" d="M27,51.8c0,0.1,0,0.1,0,0.2c0.1,0,0.1-0.1,0.2-0.1c0-0.1,0-0.3,0-0.4c-0.1,0.1-0.2,0.1-0.3,0.2
		C26.9,51.7,27,51.7,27,51.8z"/>
	<path class="st27" d="M27.2,51.4L27.2,51.4l0.2-0.1l0.1-0.2c0.2-0.2,0.3-0.4,0.4-0.7c0-0.1,0.1-0.3,0.2-0.4
		c0.4-0.3,0.8-0.5,1.3-0.5c0.5-0.1,1.1-0.4,1.6-0.2c0.2,0.1,0.3,0.1,0.5,0.3c0.3,0.2,0.6,0.5,0.9,0.8c0.1,0.1,0.1,0.3,0.2,0.4
		c0.1,0.1,0.3,0.1,0.3,0.3c0,0.1,0.1,0.1,0.1,0.2c0.1-0.2,0-0.4-0.1-0.6c-0.1-0.1-0.2-0.2-0.3-0.3c-0.1-0.1-0.2-0.2-0.2-0.4
		c-0.2-0.3-0.5-0.6-0.9-0.8C31.3,49,31.2,49,31,48.9c-0.5-0.2-1.1,0.1-1.6,0.2c-0.5,0.1-0.9,0.2-1.3,0.5c-0.1,0.1-0.2,0.2-0.2,0.4
		c-0.1,0.2-0.2,0.5-0.4,0.7l-0.1,0.2l-0.1,0.1c0,0-0.1,0.1-0.2,0.1C27.2,51,27.3,51.3,27.2,51.4z"/>
	<path class="st27" d="M27,52.2C27,52.2,27,52.1,27,52.2c0,0.1-0.1,0.2,0,0.4C27,52.5,27,52.3,27,52.2z"/>
</g>
</svg>
