<svg xmlns="http://www.w3.org/2000/svg" xmlns:xlink="http://www.w3.org/1999/xlink" viewBox="0 0 100 100"><defs><filter id="b" x="44.01" y="-8626" width="50.99" height="32766" filterUnits="userSpaceOnUse" color-interpolation-filters="sRGB"><feFlood flood-color="#fff" result="bg"/><feBlend in="SourceGraphic" in2="bg"/></filter><mask id="a" x="44.01" y="-8626" width="50.99" height="32766" maskUnits="userSpaceOnUse"><g style="filter:url(#b)"/></mask><linearGradient id="c" x1="-3995.15" y1="-3474.54" x2="-3949.52" y2="-3474.54" gradientTransform="translate(649.95 5297.5) rotate(42.48)" gradientUnits="userSpaceOnUse"><stop offset="0"/><stop offset="1" stop-color="#fff"/></linearGradient><filter id="e" x="80.6" y="-8626" width="11.4" height="32766" filterUnits="userSpaceOnUse" color-interpolation-filters="sRGB"><feFlood flood-color="#fff" result="bg"/><feBlend in="SourceGraphic" in2="bg"/></filter><mask id="d" x="80.6" y="-8626" width="11.4" height="32766" maskUnits="userSpaceOnUse"><g style="filter:url(#e)"/></mask><linearGradient id="f" x1="-5318.78" y1="2483.36" x2="-5304.8" y2="2483.36" gradientTransform="translate(-1327.86 -5618.44) rotate(-78.9)" xlink:href="#c"/><filter id="h" x="5.5" y="-8626" width="64.58" height="32766" filterUnits="userSpaceOnUse" color-interpolation-filters="sRGB"><feFlood flood-color="#fff" result="bg"/><feBlend in="SourceGraphic" in2="bg"/></filter><mask id="g" x="5.5" y="-8626" width="64.58" height="32766" maskUnits="userSpaceOnUse"><g style="filter:url(#h)"/></mask><linearGradient id="i" x1="-6209.72" y1="2873.95" x2="-6149.35" y2="2873.95" gradientTransform="matrix(-0.89, -0.45, 0.45, -0.89, -6776.23, -177.34)" xlink:href="#c"/><filter id="k" x="44.01" y="28.81" width="50.99" height="55.09" filterUnits="userSpaceOnUse" color-interpolation-filters="sRGB"><feFlood flood-color="#fff" result="bg"/><feBlend in="SourceGraphic" in2="bg"/></filter><mask id="j" x="44.01" y="28.81" width="50.99" height="55.09" maskUnits="userSpaceOnUse"><g style="mask:url(#a);filter:url(#k)"><path d="M86.47,63.9c-9.6,8.43-19.73,28.51-30.24,16-5.2-5.69-9.7-16.74-11.42-24.57C43.05,47.07,44.07,42,49,38.5c10-6.67,29.17-16.39,39.27-3C93.46,41.87,95.5,48.9,94.9,53,94.33,57.59,91.12,59.25,86.47,63.9Z" style="mix-blend-mode:multiply;fill:url(#c)"/></g></mask><filter id="m" x="80.6" y="66.01" width="11.4" height="13.05" filterUnits="userSpaceOnUse" color-interpolation-filters="sRGB"><feFlood flood-color="#fff" result="bg"/><feBlend in="SourceGraphic" in2="bg"/></filter><mask id="l" x="80.6" y="66.01" width="11.4" height="13.05" maskUnits="userSpaceOnUse"><g style="mask:url(#d);filter:url(#m)"><path d="M91,66.2c1.11.41,1.09,1.14.84,2.15s-.79,2.3-1.13,3.74a15.37,15.37,0,0,1-1.19,3.74,6.32,6.32,0,0,1-2.91,2.73,4.2,4.2,0,0,1-4.41-.26c-1.27-1-2.09-3.06-1.34-5.58A9.62,9.62,0,0,1,85.78,67,7.28,7.28,0,0,1,91,66.2Z" style="mix-blend-mode:multiply;fill:url(#f)"/></g></mask><linearGradient id="n" x1="-4532.66" y1="2844.95" x2="-4481.45" y2="2844.95" gradientTransform="matrix(-0.11, -1.1, 1.43, -0.14, -4512.88, -4483.09)" gradientUnits="userSpaceOnUse"><stop offset="0" stop-color="#39c2ff"/><stop offset="1" stop-color="#2642d3"/></linearGradient><filter id="p" x="5.5" y="19.05" width="64.58" height="54.44" filterUnits="userSpaceOnUse" color-interpolation-filters="sRGB"><feFlood flood-color="#fff" result="bg"/><feBlend in="SourceGraphic" in2="bg"/></filter><mask id="o" x="5.5" y="19.05" width="64.58" height="54.44" maskUnits="userSpaceOnUse"><g style="mask:url(#g);filter:url(#p)"><path d="M6.36,33.65C8.74,26.17,18,20.54,28.68,19.38c10.7-1.39,22.92,1.69,30.7,6.23C75.72,35,70.58,42.11,62.2,53.94,53.38,65.38,44.55,77.73,33.56,72.07,28.14,69.29,20.74,63,14.49,56S3.45,41.23,6.36,33.65Z" style="mix-blend-mode:multiply;fill:url(#i)"/></g></mask></defs><title>dream-big-alt</title><rect width="100" height="100" style="fill:none"/><path d="M100,59.14c.27,12.8-3.57,32-50,31.84C18.75,90.85,0,82.43,0,59.14S16.41,9,41.11,9,99.5,35.86,100,59.14Z" style="fill:none"/><g style="mask:url(#j)"><path d="M86.47,63.9c-9.6,8.43-19.73,28.51-30.24,16-5.2-5.69-9.7-16.74-11.42-24.57C43.05,47.07,44.07,42,49,38.5c10-6.67,29.17-16.39,39.27-3C93.46,41.87,95.5,48.9,94.9,53,94.33,57.59,91.12,59.25,86.47,63.9Z" style="fill:#3219af"/></g><g style="mask:url(#l)"><path d="M91,66.2c1.11.41,1.09,1.14.84,2.15s-.79,2.3-1.13,3.74a15.37,15.37,0,0,1-1.19,3.74,6.32,6.32,0,0,1-2.91,2.73,4.2,4.2,0,0,1-4.41-.26c-1.27-1-2.09-3.06-1.34-5.58A9.62,9.62,0,0,1,85.78,67,7.28,7.28,0,0,1,91,66.2Z" style="fill:#32007d"/></g><path d="M45.13,23.83c13.47.32,25.62,4.45,33.8,9.4S91.46,44.13,90.87,50,85,61.12,77.86,66.12A90.34,90.34,0,0,1,51.4,78.45c-19.46,5.79-38.87-1.73-45.12-20S17.56,22.63,45.13,23.83Z" style="fill:url(#n)"/><g style="mask:url(#o)"><path d="M6.36,33.65C8.74,26.17,18,20.54,28.68,19.38c10.7-1.39,22.92,1.69,30.7,6.23C75.72,35,70.58,42.11,62.2,53.94,53.38,65.38,44.55,77.73,33.56,72.07,28.14,69.29,20.74,63,14.49,56S3.45,41.23,6.36,33.65Z" style="fill:#00fac8"/></g><path d="M34.11,63.91l12.55-.16a.79.79,0,0,0,.79-.81.8.8,0,0,0-.81-.79l-12.55.15a.81.81,0,1,0,0,1.61Z" style="fill:#282d33"/><path d="M24.36,31.92a15.64,15.64,0,0,1,31.27-.38c0,.51-.28,7.74-6.08,15.4-1.7,2.31-1.36,6.9-1.34,6.9l-6.84.09-2.22,0L32.28,54s.27-4.61-1.47-6.88C24.82,39.65,24.37,32.43,24.36,31.92Z" style="fill:#eac715"/><path d="M35.22,52c-.13-2-.66-5.66-1.89-7.27-5.69-7.15-6-14-6-14a13.6,13.6,0,0,1,27.19-.32c0,.06-.17,6.89-5.66,14.14-1.22,1.66-1.67,5.38-1.77,7.35Z" style="fill:#ffd917"/><path d="M52.32,32.8a1.22,1.22,0,0,1-1.24-1.21A11.1,11.1,0,0,0,39.86,20.64a1.23,1.23,0,1,1,0-2.45,13.56,13.56,0,0,1,13.7,13.37A1.23,1.23,0,0,1,52.32,32.8Z" style="fill:#fff"/><polygon points="36.27 55.2 34.05 39.11 34.86 38.85 37.09 54.94 36.27 55.2" style="fill:#484f59"/><polygon points="44.23 55.1 46.07 38.96 45.25 38.73 43.41 54.87 44.23 55.1" style="fill:#484f59"/><path d="M45.42,41c-.56,0-.81-.54-1-.94-.07-.16-.23-.51-.32-.51s-.24.35-.31.52c-.17.4-.41.95-1,1s-.81-.54-1-.93a2.34,2.34,0,0,0-.18-.35c-.27.53-.79,1.3-1.42,1.31s-.82-.54-1-.93c-.07-.17-.23-.51-.32-.51s-.24.35-.31.51c-.17.4-.41,1-1,1s-.81-.54-1-.93c-.08-.17-.24-.51-.33-.51s-.23.35-.31.52c-.17.4-.41,1-1,1v-.73c.09,0,.24-.34.31-.51.18-.4.41-.95,1-1s.82.54,1,.93c.08.17.23.51.32.51s.24-.35.31-.51c.17-.41.41-1,1-1s.81.53,1,.93c.07.17.23.51.32.51s.67-.6,1-1.25a.36.36,0,0,1,.33-.22c.56,0,.81.53,1,.93.08.17.24.51.32.51s.24-.35.31-.52c.17-.4.41-1,1-1s.81.53,1,.93c.07.17.23.51.32.51Z" style="fill:#484f59"/><path d="M48.22,53.86l.1,8.17a1,1,0,0,1-1,1l-13.88.17a1,1,0,0,1-1-1l-.1-8.18Z" style="fill:#282d33"/><path d="M48.56,55.45,32,55.65a.8.8,0,0,1,0-1.6l16.56-.2a.78.78,0,0,1,.81.79A.8.8,0,0,1,48.56,55.45Z" style="fill:#282d33"/><path d="M41.23,55.13l-9.18.11a.44.44,0,0,1-.45-.44.45.45,0,0,1,.44-.45l9.18-.11a.46.46,0,0,1,.46.44A.45.45,0,0,1,41.23,55.13Z" style="fill:#484f59"/><path d="M48.59,58.12,32,58.32a.8.8,0,1,1,0-1.6l16.56-.2a.8.8,0,1,1,0,1.6Z" style="fill:#282d33"/><path d="M48.63,60.79,32.07,61a.8.8,0,0,1,0-1.6l16.56-.2a.8.8,0,0,1,0,1.6Z" style="fill:#282d33"/><path d="M41.27,57.68l-9.19.11a.44.44,0,0,1-.45-.44.45.45,0,0,1,.44-.45l9.19-.11a.45.45,0,1,1,0,.89Z" style="fill:#484f59"/><path d="M41.3,60.38l-9.19.11a.45.45,0,0,1-.45-.44.46.46,0,0,1,.44-.45l9.19-.11a.45.45,0,1,1,0,.89Z" style="fill:#484f59"/><rect x="34.51" y="55.58" width="7.85" height="0.81" transform="translate(-0.68 0.47) rotate(-0.7)" style="fill:#30363d"/><rect x="34.54" y="58.18" width="7.85" height="0.82" transform="translate(-0.71 0.47) rotate(-0.7)" style="fill:#30363d"/><rect x="34.57" y="60.78" width="7.85" height="0.81" transform="translate(-0.74 0.47) rotate(-0.7)" style="fill:#30363d"/><path d="M24.23,52.11a3.53,3.53,0,1,0,4.08-2.78A3.49,3.49,0,0,0,24.23,52.11Z" style="fill:#194866"/><path d="M27.38,49.13a3.27,3.27,0,1,0,3.78-2.57A3.24,3.24,0,0,0,27.38,49.13Z" style="fill:#194866"/><path d="M28.92,46.52A2.87,2.87,0,1,0,32.27,44,3,3,0,0,0,28.92,46.52Z" style="fill:#194866"/><path d="M28.88,50.58a4,4,0,1,0,4.59-3.12A3.93,3.93,0,0,0,28.88,50.58Z" style="fill:#163f59"/><path d="M25.59,51.82a2.65,2.65,0,1,0,3.07-2.09A2.62,2.62,0,0,0,25.59,51.82Z" style="fill:#163f59"/><path d="M27.9,49.55A2.66,2.66,0,1,0,31,47.46,2.64,2.64,0,0,0,27.9,49.55Z" style="fill:#163f59"/><path d="M31,45.05h.14A3.09,3.09,0,0,0,32.05,47a3.47,3.47,0,0,0,.45.41l-.1.52a1.47,1.47,0,0,1-2.9-.52l.21-1.16A3.22,3.22,0,0,0,31,45.05Z" style="fill:#fff"/><path d="M28.48,51a.55.55,0,0,0-.8-.43c-.57.2-.95.72-1,2.15a15.27,15.27,0,0,1-.59,3.34c-.22.79.79,2.31,1.35,1.38a12.08,12.08,0,0,0,.93-3.91C28.4,52.93,28.5,51.19,28.48,51Z" style="fill:#fff"/><path d="M33.49,48.75s-1.25,4.84-.69,7.87c.4,2.13,1.18.69,1.81.48a11.16,11.16,0,0,1,0-1.27,31.16,31.16,0,0,1,.2-4.08c.22-1.45.22-2.36-.07-2.7A.9.9,0,0,0,33.49,48.75Z" style="fill:#fff"/><path d="M34.35,56.52s0-.39.59,1.84.89,6.1,1.45,6.84.76.29.67.39c-.35.35-.5.69-.86.61s-1.18-1.54-2-4.1S32.83,57.8,33,57,34.28,56.32,34.35,56.52Z" style="fill:#fff"/><path d="M29.62,50.64s1.93-.65,2.19-.8-.71,0,.11-1.61c0,0-1.49-.88-1.62-.91s-.27.33-.27.33A5.06,5.06,0,0,1,29.62,50.64Z" style="fill:#fff"/><path d="M35.41,65.15s.37.91.59,1A2.7,2.7,0,0,0,37.18,66a6.76,6.76,0,0,1,.83-.32c.2,0,1.31.33,1.63.34a1.21,1.21,0,0,0,.61,0c.18-.06.12-.19.12-.19l-.64-.12a8.17,8.17,0,0,1-1.87-.74c-.43-.23-.46-.26-.71-.16a7.69,7.69,0,0,1-1,.28A3.82,3.82,0,0,1,35.41,65.15Z" style="fill:#fff"/><path d="M35.76,65.84a1.32,1.32,0,0,0,.8.67,1.53,1.53,0,0,0,.81.13,1.9,1.9,0,0,0,.32,0s.05-.22-.26-.25-.49-.23-.34-.33S35.76,65.84,35.76,65.84Z" style="fill:#fff"/><path d="M28.13,61.46a17,17,0,0,1-.51-2.92c0-1.06.1-2.93.07-3S27,55,27,54.5a18,18,0,0,1,.81-2.18A11,11,0,0,0,28,50.55a4.72,4.72,0,0,0,2.48-.22,19.56,19.56,0,0,0,3.05-1.58s.91.1.22,4.21-.9,4.34-.93,5.55c-.05,1.77,1,3.76,1.13,5.26S28.48,62,28.13,61.46Z" style="fill:#e45471"/><path d="M29,61.24c-1.94-.78-3.19-.71-7.81-.22a13.36,13.36,0,0,0-4.28.86c-1,.54-1.23,1.95,3.57,2.9,4.38.86,10,1.27,11.5.1S30.94,62,29,61.24Z" style="fill:#aec4db"/><path d="M28,66.67s.2.12.3,0a.65.65,0,0,1,.81-.15c.44.25.57.54,1,.57s1.45-.15,1.75.1A2.39,2.39,0,0,1,32.51,69c-.12.64-.32.71-.52.42a1.66,1.66,0,0,0-.46-.52c-.1-.05-1.21-.46-1.58-.66a9.19,9.19,0,0,0-1-.47c-.15,0-1-.2-1-.2S28,66.67,28,66.67Z" style="fill:#e4eef3"/><path d="M31.87,67.24c-.3-.25-1.33-.08-1.75-.1s-.54-.32-1-.57a.61.61,0,0,0-.81.14s.07,0,.13,0a13,13,0,0,1,1.16.62,9.88,9.88,0,0,1,1.51.54,1.58,1.58,0,0,1,.34,1.07l.06,0a1.66,1.66,0,0,1,.46.52c.2.29.4.22.52-.42A2.39,2.39,0,0,0,31.87,67.24Z" style="fill:#e45471"/><path d="M28.13,67.73s-7.06-1.42-8.65-2-4.08-1-3.44-2.76c.59-1.57,2.35-1.75,4.66-.78a19.17,19.17,0,0,1,4.07,2.09,24.72,24.72,0,0,1,3.46,2.5Z" style="fill:#c4d1e1"/><polygon points="31.71 55.55 31.92 55.76 31.08 57.12 29.8 57.16 29.6 56.89 30.35 55.85 31.71 55.55" style="fill:#163f59"/><path d="M27.57,56.71l1.75-.46.63,0-.28.46.57.35L30.9,57l.37-.3,0,.44a.77.77,0,0,1-.29.32,12.38,12.38,0,0,0-1,.9l-.43-.19-1-.48-.76.3Z" style="fill:#fff"/><path d="M19.26,66a.31.31,0,0,0-.05.37c.12.2.37.35.32.59s-.1.3-.37.49a2.67,2.67,0,0,0-1,1,1.81,1.81,0,0,1-1.3,1.2,2.87,2.87,0,0,1-1.5-.09c-.32-.15-.15-.32.08-.42a2.39,2.39,0,0,0,1-.84c.32-.49.67-.91.89-1.3s.49-.81.71-1.2S19.26,65.71,19.26,66Z" style="fill:#fff"/><path d="M18.36,67.4c-.44.44-.67.94-1.3,1.2a1.21,1.21,0,0,1-.91,0,2.39,2.39,0,0,1-.72.49c-.23.1-.4.27-.08.42a2.87,2.87,0,0,0,1.5.09,1.81,1.81,0,0,0,1.3-1.2,2.67,2.67,0,0,1,1-1c.27-.19.32-.24.37-.49s-.12-.34-.25-.49A9.13,9.13,0,0,1,18.36,67.4Z" style="fill:#e45471"/><path d="M33.71,62.54s-2.6-3.83-4.72-5.06-7.47-5.7-3.63,2.06c2,4,3.34,6.44,5.16,6.88S35.63,66.42,33.71,62.54Z" style="fill:#e4eef3"/><path d="M17.44,66.18s3.29-6.44,4.23-7.87,2.56-4.27,3.24-2.75,1.23,2.66-.19,4.72a18.93,18.93,0,0,1-3.25,3.88,16.88,16.88,0,0,1-2.41,2.17Z" style="fill:#e4eef3"/><polygon points="66.58 62.89 66.82 63.79 65.72 64 65.64 62.98 66.58 62.89" style="fill:#d1dbea"/><path d="M62.84,51l.4-1.55s.72-.08.81.06a4.13,4.13,0,0,0,.88.5l.18,1-.48.43s-.25-.09-.17-.29-.22,0-.33.1S63.18,51.78,62.84,51Z" style="fill:#fff"/><path d="M59.39,59.52l5.28-10.3.22,3.34s1,10.18-2.7,10.11S59.39,59.52,59.39,59.52Z" style="fill:#163f59"/><path d="M63.13,63.2a4.57,4.57,0,0,0,1.48-1.54c.5-1.62-1.86-2.3-3.09-3.48-.07-.07-3.63-.08-3.63-.08l-4.32,3.23a9.61,9.61,0,0,0,6.65,3C61,64.35,61.23,64.23,63.13,63.2Z" style="fill:#194866"/><path d="M66.73,63.17s-1.07.43-1.11.19c-.33-1.79-1.61-6.17-1.54-8.23.1-2.76.14-3.67.14-3.67a5.82,5.82,0,0,1,.48-2.3c.88-1.16,3,.53,3,.53Z" style="fill:#163f59"/><path d="M65.6,63.68l.1.82.68,0,.07-.25a3.75,3.75,0,0,0,.71.29l2.11.13,0-.3s-2.22-.62-2.52-1.09c0,0-.13.17-.27.2A7.17,7.17,0,0,1,65.6,63.68Z" style="fill:#282723"/><path d="M78.88,64.38a1.21,1.21,0,0,1-.53-.88c-.16-.78,0-.8,0-.8L80,64Z" style="fill:#d1dbea"/><path d="M79.28,63.23l-.84.91S72.78,62,71.17,60.65a20.9,20.9,0,0,1-3.3-3.34L69,54.51Z" style="fill:#194866"/><path d="M60.19,58.18,69,54.51l.59,2.83s-7.13,8.5-9.27,5.42A3.79,3.79,0,0,1,60.19,58.18Z" style="fill:#194866"/><path d="M58.79,54.39l4.56-3.86.54-.33a2.18,2.18,0,0,0-.34.47A18,18,0,0,1,61.19,55a12.6,12.6,0,0,1-2.1,1.72Z" style="fill:#fff"/><path d="M52.87,53.26l6,.41.27.37.3-.33,1,2.22-1.5,1.51-8.13-.71a3.78,3.78,0,0,1-2.73-2.91C47.84,52.62,52.38,53.25,52.87,53.26Z" style="fill:#b0bfde"/><path d="M59.22,56.42s-.14-1.67-.24-2.54l.12.16.3-.33.35.77.35,1.17-.39.3-.17-.32Z" style="fill:#d1dbea"/><path d="M78.71,64.25l.12.78.7,0,.06-.24a4.29,4.29,0,0,0,.71.27,2.11,2.11,0,0,0,.41,0,9.15,9.15,0,0,0,1.6-.67v-.3a2.06,2.06,0,0,1-1.58.2,2,2,0,0,1-.86-.5s-.12.17-.27.22C79.23,64.15,78.92,64.17,78.71,64.25Z" style="fill:#282723"/><polygon points="47.53 54.43 47.17 52.25 48.73 50.86 49.59 52.59 49.97 54.17 47.53 54.43" style="fill:#fff"/><path d="M53.4,54.27c2.62,2.53,7,3.54,7,3.54l-2.29,6.58s-10.82-4-11-9C47.11,54.05,49.51,50.52,53.4,54.27Z" style="fill:#bcd0e2"/><path d="M51.5,53.1s5.91,2.13,2.94,7.37a1.42,1.42,0,0,1-.69.44L53,60.39S55.81,55.77,51.5,53.1Z" style="fill:#e45471"/><polygon points="46.99 53.55 47.26 54.3 50.27 52.57 49.52 52.21 46.99 53.55" style="fill:#b0bfde"/><path d="M49.29,47.67a.8.8,0,0,1-.24,1.1l-2.52,1.61a.79.79,0,0,1-1.09-.23h0a.79.79,0,0,1,.24-1.1l2.51-1.62a.8.8,0,0,1,1.1.24Z" style="fill:#163f59"/><path d="M49.57,49.12a1.47,1.47,0,0,1-.44,2L47.82,52a1.46,1.46,0,0,1-2-.44h0a1.46,1.46,0,0,1,.44-2l1.31-.85a1.47,1.47,0,0,1,2,.44Z" style="fill:#163f59"/><path d="M51.82,50.46l-2.47-3.85c-.39-.61-.5.32-1.11.72l-.59.38a1.32,1.32,0,0,0-.4,1.82L49,52.27Z" style="fill:#fff"/><path d="M48.29,50.07a.57.57,0,0,1-.17.8h0a.57.57,0,0,1-.8-.17h0a.58.58,0,0,1,.17-.8h0a.58.58,0,0,1,.8.17Z" style="fill:#fff"/><path d="M50.73,49.46a.33.33,0,0,0,.45.11l.23-.15A.33.33,0,0,0,51.5,49s-1.44-1.14-1.59-1a.55.55,0,0,0,.06.36Z" style="fill:#fff"/><path d="M50.14,51.25c-1.11.71-1.45.45-1.73.08a9.94,9.94,0,0,0,.53,1.48l.23.35a1.69,1.69,0,0,0,2.34.22l1.55-1L52,50.66l-.26-.41Z" style="fill:#163f59"/><path d="M51.23,49.53l-.89.57a.88.88,0,0,0-.26,1.22,1.15,1.15,0,0,0,.14.17l1.6-1Z" style="fill:#163f59"/><path d="M50.58,51.05l.16.24a.15.15,0,0,0,.2.05l.72-.46a.16.16,0,0,0,.05-.21l-.16-.24Z" style="fill:#fff"/><path d="M48.53,46.17l-2.28,1.47a.54.54,0,0,0-.16.73l.57.89,2.72-1.75Z" style="fill:#163f59"/><path d="M50.36,45.93a.79.79,0,0,1-.24,1.1l-1.54,1a.79.79,0,0,1-1.1-.24h0a.79.79,0,0,1,.24-1.1l1.54-1a.79.79,0,0,1,1.1.24Z" style="fill:#163f59"/><rect x="47.19" y="48.41" width="0.73" height="1.93" transform="translate(-19.16 33.58) rotate(-32.76)" style="fill:#163f59"/><rect x="46.91" y="47.18" width="2.15" height="2.27" transform="translate(-18.51 33.65) rotate(-32.76)" style="fill:#163f59"/><path d="M48.13,49.6a1.09,1.09,0,0,1,.33-1.5l.47-.31a1,1,0,0,1,1.37.42h0A1.1,1.1,0,0,1,50,49.72l-.33.21a1.09,1.09,0,0,1-1.51-.33Z" style="fill:#fff"/><path d="M51.75,61.65a6.13,6.13,0,0,0,4.44,2.22c.46,0,.86.37.7.58a2.14,2.14,0,0,1-1.17.6A6.51,6.51,0,0,1,51,64.76c-2.3-1.19-3.1-1.8-3.18-2.72S51.75,61.65,51.75,61.65Z" style="fill:#fff"/><path d="M48.07,54.67s-1.41-1.42-1.61,3.25a9.22,9.22,0,0,0,1.13,4.69l1.49,1.5,3.05-2-.9-1.42-.27,0a.62.62,0,0,1-.23-.53,29.12,29.12,0,0,1,.15-4.32C51,54.64,48.38,54.65,48.07,54.67Z" style="fill:#d1dbea"/><path d="M49.48,60.63l.88-.26.36-.09a.67.67,0,0,0,.24.42l-.7.07-.8.24-1,.63Z" style="fill:#b0bfde"/><path d="M55.87,64,57.07,63s.65.34.64.5a4.07,4.07,0,0,0,.44.91l-.39.9-.63.09s-.16-.22,0-.34-.21-.1-.33-.1S55.69,64.91,55.87,64Z" style="fill:#fff"/><rect x="61.68" y="49.99" width="4.1" height="0.42" transform="translate(-0.77 99.4) rotate(-75.56)" style="fill:#163f59"/></svg>