<svg xmlns="http://www.w3.org/2000/svg" viewBox="0 0 100 100"><g style="isolation:isolate"><path fill="none" d="M0 0h100v100H0z"/><path d="M5 86.31C5 91 25.15 94.8 50 94.8s45-3.8 45-8.49-20.15-8.49-45-8.49-45 3.8-45 8.49z" style="mix-blend-mode:multiply" fill="#d1f0ff" opacity=".5"/><path d="M13.6 82s.86-3.07 2.22-4.12 2.33-2.52 4.12-3.2 2.21-1.9 1.53-2.33-2.89-1.67-5.59 1.16-3.38 5-3.32 7.69.92 2.36 1.04.8z" fill="#3dc7c9"/><path d="M20.49 72.84a16.43 16.43 0 0 0-3.94 1.72c-1.23.92-3.5 3.5-3.62 6" fill="none" stroke="#33a8b5" stroke-miterlimit="10" stroke-width=".329"/><path d="M12.86 83s-1.39-3.93-2-5.16-.49-4.18.41-5.33 2.41-2.87 1.73-5.41-.33-4.1.9-3.12a8.68 8.68 0 0 1 3.44 6.64 8.76 8.76 0 0 1-2.21 6.15A11.77 11.77 0 0 0 12.86 83z" fill="#acd5f4"/><path d="M12.43 82.06s-.73-3.93 0-5.53S14.93 72 15.08 70a8.87 8.87 0 0 0-1.35-4.8" fill="none" stroke="#86c0f0" stroke-miterlimit="10" stroke-width=".329"/><path d="M7.39 77.16c-1.6-.31-1.72-2.15-.49-2.52s3.26-.31 4.24 1a8.54 8.54 0 0 1 1.23 6.09c-.37 1.91 0-.74-.8-2a7.12 7.12 0 0 0-4.18-2.57z" fill="#194866"/><path d="M6.65 75.67a4.6 4.6 0 0 1 3.75 1 7.53 7.53 0 0 1 2.16 4.51" fill="none" stroke="#161711" stroke-miterlimit="10" stroke-width=".246"/><path fill="#2c7eea" d="M15.51 86.73h-4.43l-.74-7.13h5.91l-.74 7.13z"/><path d="M35.72 32.55s.17.6-3.06 1.58A67 67 0 0 1 25 35.79l6.75-2.85s2.77-.94 3.97-.39z" fill="#e9d6b8"/><path d="M26 35.74c-1.72.59-2.27 1.86-2.87 2.34l-1.13.84s.7-1 .9-1.32 0-.46-.46 0-1.62 1.83-1.62 1.83a7.18 7.18 0 0 1 .65-1.37 9.45 9.45 0 0 1 1.35-1.67 7.66 7.66 0 0 1 2.31-.87c1-.22 2.06-.21.87.22z" fill="#e9d6b8"/><path d="M30.06 34.82c.89-.21 1.79-.44 2.6-.69s1.89-.52 2.32-.71c1.35-.59.08-1.1.08-1.1-1.19-.59-3.36.62-3.36.62l-2 .86z" fill="#ad5c49"/><path d="M45.09 22.85l9 .93s-4.34-3.27-7.64-4.14-1.45 3.24-1.36 3.21z" fill="#e9d6b8"/><path d="M25.67 19.88s1.43-1.78 8.2-2c.62 0 1.38.05 2.08.06 8.74.08 8.52 1 8.52 1l1.9.58-.25 3.43-14 .13z" fill="#d1dbea"/><path d="M32.08 23L44 22.93l-1.85-.71s.28-.87-8.43-1.58a33.41 33.41 0 0 0-6.51 0zM44.66 20.2l-.3 2.26v.58l1.63.29-.2-2.72-1.13-.41z" fill="#b0bfde"/><path d="M28 18c-.09 1-.64 1.93-1.23 2h-1.65c-.58-.05-1.14-.94-1.23-2-.13-1.7-.27-3.4-.4-5.11-.1-1 .3-3.07 1.19-3.68a2.19 2.19 0 0 1 2.54 0c.89.61 1.29 2.66 1.2 3.68-.14 1.68-.27 3.38-.42 5.11zM16.75 35.13l4.45 7.23s-6.61-3.18-6.27-6.13 1.82-1.1 1.82-1.1z" fill="#e9d6b8"/><path d="M33.63 17.89l-5 .51-3.15 1-2.65-.57-3.54 1.54s-1.59 1.53-.11 6.46a31.68 31.68 0 0 1 .91 10.62l12.84.82s-.55-17.64.7-20.38z" fill="#d1dbea"/><path d="M21.54 20.57a2.18 2.18 0 0 0-2.18-.25 5.29 5.29 0 0 0-1.69 1.56 33.78 33.78 0 0 0-5.25 10.19c-.34 1-.8 3.94.57 4.81l1.37.88 3-1.71-.62-.92-.22-.55s1.59-3.5 3.3-6.68a17.81 17.81 0 0 0 1.72-7.33z" fill="#d1dbea"/><path fill="#b0bfde" d="M25.31 19.24l-1.27 1.38-1.27-1.82.76-1.13 1.78 1.57zM28.16 17.61l-2.44 1.57 1.15 1.39 1.9-2.17-.61-.79z"/><path fill="#b0bfde" d="M25.04 19.17h1.08v18.57h-1.08z"/><path d="M20.5 83.4c-.14.17 0 .6 0 .6a16.18 16.18 0 0 0 3.18.09 4.4 4.4 0 0 0 .86-.4c.05 0 .14-.22.2-.25s.14 0 .23 0a2.14 2.14 0 0 0 .36-.26 2.28 2.28 0 0 0-.07-1.54s-2-.68-2.42-.21a17.05 17.05 0 0 1-2.34 1.97z" fill="#161711"/><path d="M26.41 43.08S28 57.34 31.19 62.39s4.87-.92 4.87-.92L32.9 37.82l-10-.06s1.99-.08 3.51 5.32z" fill="#3c463b"/><path d="M28.26 37.82s-1.52 23-1.9 24.14c-1.29 3.93-4.64 1.57-5.09.26s-1.22-11-1.07-18.11.15-6.62.15-6.62z" fill="#3c463b"/><path d="M25.83 57.87a28.87 28.87 0 0 1 1 7.55C26.77 68.93 26 76 25.26 81.68c0 .35-2.89 0-2.89 0l-.85-17.07c-.06-1.27-.58-5-.11-6.17.86-2.2 3.01-2.28 4.42-.57z" fill="#3c463b"/><path d="M35.11 62a9.86 9.86 0 0 1-3.64.82c-.51 0 3.68 19.83 3.68 19.83l3.6-1.55L36 61.05z" fill="#323b31"/><path d="M35.43 82.41l.34 1.79h1.83s.1-.25.25-.25.3.25.48.25H43s.08-.38 0-.51a2 2 0 0 0-.56-.24c-.94-.26-3.64-1.09-4.11-2-.62-1.08-2.9.96-2.9.96z" fill="#161711"/><path d="M16.75 35.13s.21 0 .43.42.67.72.38.84a26.07 26.07 0 0 0-2 1.72c-.21.17-1-.11-1-.11s-.53-.27-.49-.39a19.65 19.65 0 0 1 2.68-2.48z" fill="#b0bfde"/><path d="M26.16 8.88V7.72h2.5a1.52 1.52 0 0 1 1.52 1.52v1.16h-2.5a1.52 1.52 0 0 1-1.52-1.52z" fill="#163f59"/><rect x="23.77" y="8.4" width="5.77" height="8.84" rx="1.35" ry="1.35" fill="#e9d6b8"/><path d="M26.06 7.72a1.5 1.5 0 0 0-1.27.69h-.52a1.17 1.17 0 0 0-1.18 1.17v2.92h.83v-1.19a.83.83 0 0 1 .83-.83h2.5A1.52 1.52 0 0 0 28.77 9V7.72z" fill="#163f59"/><path d="M24.18 13.25a.72.72 0 0 0-.72-.72h-.06a.72.72 0 0 0-.72.72v.88a.72.72 0 0 0 .72.72h.06a.73.73 0 0 0 .66-.43M70.39 27.34c-2.2 1.11-6.21 8.36-6.21 8.36s-.8 3.17 6-5.26c2.06-2.53.75-3.37.21-3.1z" fill="#e9d6b8"/><path d="M61.66 42.67l-.31-1v-.87l.51-1.32A9.19 9.19 0 0 1 63 37.72a25.59 25.59 0 0 0 1.56-2.65c.2-.22 1.61.09 1.61.09s-1.56 1.82-2.11 2.6a20.78 20.78 0 0 0-1.18 2.46 4.34 4.34 0 0 1-.78.88s.4-.92.53-1.15-.19-.26-.19-.26a8.82 8.82 0 0 0-.73 1.59 2.45 2.45 0 0 0 .05.75z" fill="#e9d6b8"/><path d="M74.13 23.14l-5.07 10.48-.24.63-3-1.34c3.76-5.83 4.55-7 5-8.13.18-.42 1.55-3.89 1.74-4.53a3.75 3.75 0 0 1 3.1-2.8c2.17-.45-1.53 5.69-1.53 5.69z" fill="#2d8ca4"/><path fill="#163f59" d="M65.32 17.7l5.92 10.45 10.91 3.95.46 4.41-12.3-3.6-5.46-5.11.47-10.1z"/><path d="M81.54 16.33a4.62 4.62 0 1 1-4.62-4.52 4.57 4.57 0 0 1 4.62 4.52z" fill="#282723"/><path d="M77.85 77.19l.05 5.53a19.31 19.31 0 0 1-2.69 2.78c-.72.39-.63 0-.58-.14A13.9 13.9 0 0 0 76.07 83c.2-.78-.24-5.49-.19-5.73s1.97-.08 1.97-.08zM83.05 77.76a39 39 0 0 1 .76 4.24c0 1.06-.14 1.39.15 1.73s2.31 3 2.79 3a.47.47 0 0 0 .48-.48 16.28 16.28 0 0 1-1.83-2.79 45.22 45.22 0 0 1-.29-5.48c0-.5-2.06-.22-2.06-.22zM83.75 29.06s-.78.1-.37 4.25a86.42 86.42 0 0 0 1.94 10.16l-.12-9.66s-.2-3.69-1.45-4.75z" fill="#e9d6b8"/><path d="M77.24 38.91l.32 19.88.65 19-2.83.21s-2-19.24-2.24-20.9S70 42 71.67 38.66s5.57.25 5.57.25z" fill="#194866"/><path d="M71.67 38.66a2.52 2.52 0 0 0-.14.33c1.8 2.81 3.5 5.18 3.9 5.79.22.35 1 1.61 2 3.32l-.15-9.19s-3.95-3.59-5.61-.25z" fill="#163f59"/><path d="M83.78 38.47s.84 8.46.84 14.23.57 22.63.57 22.63v3L83 78.21l-3.38-21.54-2.82-18.2z" fill="#194866"/><path d="M84.81 16.12a4.62 4.62 0 1 1-4.62-4.51 4.57 4.57 0 0 1 4.62 4.51z" fill="#282723"/><path d="M81.6 11.43a4 4 0 1 1-8.07 0 4 4 0 1 1 8.07 0z" fill="#282723"/><path d="M76.86 12.69a8.56 8.56 0 0 1 .06 3c-.32.64-2.5 2.12-2.82 2.57s.64 3.91 3.78 3.4 6-2.5 6-3-.07-1-1.09-1.41-2.7-.64-3.14-1.15a3.8 3.8 0 0 1-.71-3.14c.29-1.42-2.08-.27-2.08-.27z" fill="#e9d6b8"/><path d="M82.28 23.43L83.38 35v.67l3.32-.19s-1-8.94-1.11-9.38a37.55 37.55 0 0 1-.43-4.85c0-.67-.09-4-2.31-3.7s-.57 5.88-.57 5.88z" fill="#2d8ca4"/><path d="M78.57 8.1h-.2a4.36 4.36 0 0 1-1.75 2.47 5.78 5.78 0 0 1-.72.46v.75a2.08 2.08 0 0 0 4.16 0v-1.73a4.4 4.4 0 0 1-1.49-1.95z" fill="#e9d6b8"/><path d="M82.9 39.16H72.56l1.5-8.77-.34-10.27a14.27 14.27 0 0 0 3.6.84 12.33 12.33 0 0 0 3.47-.84z" fill="#ad5c49"/><path d="M85.4 43.59a11.87 11.87 0 0 1-.4 1.82c-.12.19-.8 1-.8 1a2 2 0 0 1 .3-.91 18.85 18.85 0 0 0 .9-1.91z" fill="#e2c59c"/><path d="M73.17 18.91s.32 6.35.13 8.66-2.11 9.61-2.31 11l-.19 1.35a4.85 4.85 0 0 0 1.28.57c.45.07 1.31-.37 1.61-1.92.36-1.92 1.5-8.55 1.73-9.74.32-1.7.06-6.67.32-7.31s1.18-2.73 1.06-3.24a5.21 5.21 0 0 0-1.06-1.44s-2.05.86-2.57 2.07zM81.27 16.6s-1.25.53-1.64.73-.19 2.3 0 2.59.53 6.78.58 8.32.24 7.6.48 8.7.1 2.41 1.25 2.84a8.69 8.69 0 0 0 2.6.43s-.58-3.8-.87-5.09a44.32 44.32 0 0 1-1.3-6.4c-.09-2 .19-4.95.29-6.54a22 22 0 0 1 1.06-4.42c.09-.29-2.07-1.01-2.45-1.16z" fill="#35a3bf"/><path d="M78 82.43a1.22 1.22 0 0 1 .14.69c0 .29-.29 1.13-.29 1.13l-.52.24v-.38a12.92 12.92 0 0 1-1.45 1.49c-.48.34-1.49 1.17-2.06 1a.34.34 0 0 1-.2-.24s.92-1 1.06-1.15.48.14.87-.1a15.22 15.22 0 0 0 1.78-1.63 6.28 6.28 0 0 0 .67-1.05zM83.8 83a1.87 1.87 0 0 0-.06.71 4 4 0 0 0 .27.76l.48.27a12.68 12.68 0 0 0 1.35 1.46c.44.33 1.38 1.17 1.92 1a.37.37 0 0 0 .18-.24s-.85-1-1-1.16-.44.15-.8-.09A12.78 12.78 0 0 1 84.5 84a10.17 10.17 0 0 1-.7-1z" fill="#161711"/><path d="M81 16.41l-1.4.92a1.11 1.11 0 0 1 .58.57 8.47 8.47 0 0 1 .34 1l1.28-2.1s-.8-.53-.8-.39zM75.88 16.56l.23.37.72 1.28s-.16-.4-.71 0a2.4 2.4 0 0 0-.58 1l-.38-2.31z" fill="#2d8ca4"/><path d="M84.59 40.22c.22 2-.58 2.91-.77 3.72a12.23 12.23 0 0 1-.52 1.64c.72-.52.67-1.16.88-1.51s.1-.25.23.45c.07.4-.49 1.17-.79 1.71a1.8 1.8 0 0 0-.25.75 8.26 8.26 0 0 0 1-1.29 10.16 10.16 0 0 0 1-2.12 8.58 8.58 0 0 0-.23-2.68c-.2-1.05-.71-2.09-.55-.67z" fill="#e9d6b8"/><path fill="#194866" d="M51.18 18.04l1.83 4.66-6.15 10.21-3.83-.23.46-3.95 7.69-10.69z"/><path d="M39.69 14.89a4.91 4.91 0 0 0-.86.08 4.91 4.91 0 0 1 .08.86 4.8 4.8 0 0 1-4 4.7 4.87 4.87 0 1 0 4.8-5.64z" fill="#282723"/><path d="M45.85 15.11a3.92 3.92 0 1 0 2.06 3.57 4.71 4.71 0 0 1-2.06-3.57z" fill="#282723"/><path d="M45.85 14.57a3.52 3.52 0 1 1-7 0 3.52 3.52 0 1 1 7 0z" fill="#282723"/><path d="M37.82 20.64s1.66 3.23 3.61 3.68 4.66 0 4.94-.76a3.47 3.47 0 0 0-.85-2.7c-.45-.39-1.9-.78-2.29-1.51a4 4 0 0 1 0-2.51c.22-.83.89-.89.22-1.28s-.39-.78-1.06-.67-1.06-.14-1.06.5c0 1.18.1 2.82-.55 3.57s-1.44 1.09-2.96 1.68z" fill="#e9d6b8"/><path d="M43.66 12.34h-.18A3.77 3.77 0 0 1 42 14.45a4.18 4.18 0 0 1-.63.4v.65a1.82 1.82 0 0 0 3.63 0V14a3.77 3.77 0 0 1-1.34-1.66z" fill="#e9d6b8"/><path d="M41.36 84.22a8.79 8.79 0 0 0-1.36-.35c-.59-.11-1-.1-1.25-.33s-.16-1.25-.33-1.21c-.83.19-1.12 2.15-.64 2.39a14.58 14.58 0 0 0 3.48-.1c.2-.01.17-.45.1-.4z" fill="#e2c59c"/><path d="M43.23 62.36c-.39-.2-1.62.87-2.11 1.85a13.53 13.53 0 0 0-1.48 5.16c-.47 3.41-1.28 8.83-1.52 11.14-.22 2.08-1.15 4.52.43 4.24-.18-2.88 1.25-7.15 2.1-9.39 2.89-7.64 3.77-12.36 2.58-13z" fill="#e2c59c"/><path d="M40.78 84c.16.66-1.86.4-2.38.23a5.44 5.44 0 0 0-.82-.22h-.06c0 .37-.16.85.42.85h3.62c2.95.08-.78-.86-.78-.86z" fill="#ad5c49"/><path d="M44.48 39.88c-.67-.24-.74.36-1.37 1.83a32.73 32.73 0 0 0-2.22 11.88A51.23 51.23 0 0 0 42.2 67a22 22 0 0 0 2.8-8c2.06-10.45 1.56-18.37-.52-19.12z" fill="#e2c59c"/><path d="M43.6 60.13c-.3-.2-.94.71-1.43 1.6-1 1.75-1.43 3.92-2.06 6.92a43.56 43.56 0 0 0-1.06 8.68c.77-1.53 1.45-3.5 2.35-5.55 3.05-7 3.12-11.03 2.2-11.65z" fill="#e2c59c"/><path d="M43.69 34.52c-.36 1.63 0 1.86-1 .48l-6.88-10.89A2 2 0 0 1 37 20.77l8.63-1.57c1.62-.32 2.14 1.26 1.78 2.9zM39.69 39.82c-1-.24-1 .39-1.83 1.94-1.53 3-2 7.55-1.71 12.45.29 4.69.71 10.57 1.2 12.08.24.71 1 1.34 1.3 1.93A41 41 0 0 0 41 58.86c1.75-11.03 1.75-18.31-1.31-19.04z" fill="#e9d6b8"/><path d="M44.69 39.22c-.68-.2-.72.35-1.29 1.7a27.68 27.68 0 0 0-1.79 10.89A44 44 0 0 0 43.35 64a43.78 43.78 0 0 0 1.8-8.18c1.46-9.6 1.61-15.96-.46-16.6z" fill="#e9d6b8"/><path d="M46.15 59.05a8.35 8.35 0 0 0 .2-1.22c.18-4.21 1.24-8.31-1.28-22.79a23.13 23.13 0 0 0-.66-2.64c-1.59-1.2-3.1-.28-4.81-1.21a16.63 16.63 0 0 0-2.9 3.49c-4.39 8.48-2.46 20.75-3 25.29a19.43 19.43 0 0 0 12.45-.92zM36.88 21.24c1.16 4-1.24 11.63-1.24 11.63s-.8.42-1.11-.24c-.38-.84-.26-3.28.19-9 .28-3.48 1.96-3.05 2.16-2.39z" fill="#ad5c49"/><path d="M44.48 32.47c0 .06-.33.1-.73.07l-4.53-.28c-.4 0-.72-.1-.71-.17v-.25c0-.07.33-.11.73-.08l4.53.28c.4 0 .72.1.72.17z" fill="#15100c"/><path d="M47.52 25.43c-.36-1.37-.72-2.74-1.07-4.12a3.59 3.59 0 0 0-.32-.82 45.59 45.59 0 0 1-9.33 1.21 2.58 2.58 0 0 0 0 .39c-.08 1.49 0 3 0 4.45a2.09 2.09 0 0 0 1 1.64 1.45 1.45 0 0 0-.08.36l-.11.73c0 .59.39 2.61.95 2.64l6 .32c.56 0 1.28-1.19 1.31-1.78l.83-2.91a.75.75 0 0 0 0-.15 2.13 2.13 0 0 0 .82-1.96z" fill="#ffc40e"/><path d="M39 20.16s-3.11-.1-3.65 1.39.78 3.66.78 3.66.78 2.76 1 4.26-.73 2.92-.44 2.63a6.13 6.13 0 0 0 1.89-.52c1.12-.53.5-2.57.38-3.23a31 31 0 0 1-.53-4.43c.15-.54.57-3.76.57-3.76zM47.93 21.4s.24-1.25-.27-1.74c-.76-.73-2.58-.63-3.17-.46a7.38 7.38 0 0 0-1 .37s2.06.83 2 5.09A21.53 21.53 0 0 1 45 28a25.75 25.75 0 0 0-.33 3.35s1.22.25 1.28.43A11.29 11.29 0 0 1 47 29c.8-1.38.93-7.6.93-7.6z" fill="#ad5c49"/><path d="M45.22 19.09c1.14 1 1.84 1.77 1.66 6.73 0 .8 0 2.28-.14 3.65.07-.14.42-.78.48-.93 1.11-2.86.71-7.14.71-7.14s.24-1.25-.27-1.74a3.49 3.49 0 0 0-2.44-.57z" fill="#975140"/><path d="M37.33 65.32c.06-.54.12-1.06.19-1.58.34-.79.66-1.22.94-1.21 1.07.06 2.49 4.07.29 14.4-.11.52-1.31 9.42-1.37 9.21-.72-2.51-.97-12.93-.05-20.82z" fill="#e9d6b8"/><path d="M37.37 87c-.5 1.46-1.22 2.54-1.6 2.41s-.3-1.42.2-2.88 1.21-2.54 1.6-2.41.29 1.44-.2 2.88z" fill="#ad5c49"/><path d="M37.47 86.19c-.21 1.11-.85 2-1.23 1.86s-.38-1.07 0-2.13a5.44 5.44 0 0 0 .76-2.64c-.1-.85 1.24-1.28.47 2.91zM59.81 11.45c-.16.52 0 1 .36 1.14.36.11.77-.23.93-.76l.19-.66c.16-.52 0-1-.36-1.14-.36-.1-.77.23-.93.76z" fill="#e9d6b8"/><path d="M56.27 16.27c0 .95.51 1.8 1 1.87l1.54.06c.54 0 1.09-.82 1.21-1.77.2-1.57.39-3.13.59-4.7.12-.94-.16-2.85-1-3.45a2 2 0 0 0-2.35-.1c-.84.52-1.29 2.4-1.25 3.35.15 1.58.2 3.16.26 4.74z" fill="#e2c59c"/><path d="M55.58 13.8c.2.9.56 1.13 1.21 1.26s.76.15 1.38.24 1.36-.78 1.54-1.56c.31-1.3 1.07-2.34 1.37-3.64A1.89 1.89 0 0 0 60 8c-.86-.55-1.85-1.63-2.79-1.34a3 3 0 0 0-1.61 2.65c0 1.34-.02 3.15-.02 4.49z" fill="#e9d6b8"/><path d="M61.6 9.1l-.52 1s-1-1.19-1.64-2.15c-.21-.31-2.52-.44-3.1-.36-.42.06-.49.59-.6.9-.39 1.09.23-1.87.23-1.87a3.15 3.15 0 0 1 2.32-1.42c.82 0 1.17.46 1.45 1.08.07.15-.88-.27-.71-.28a10.71 10.71 0 0 1 1 .94 4.86 4.86 0 0 0 .47.94C61.21 9 61.6 9.1 61.6 9.1z" fill="#163f59"/><path fill="#e2c59c" d="M58.12 9.55l-.64.07.15.39-.51.17-.59 1.94.84.09.18-1.19.53-.58 1.29-.06-1.25-.83z"/><path d="M47 81.47v2.07l-.23 1.74-.65.52-.51.2-.12.3-1.69 1.35a3.17 3.17 0 0 1-2 .29c-.28 0 0-.84.13-1a14.32 14.32 0 0 1 1.31-1.52l1.25-1.84 1.39-2.3zM63.31 83.61l-.37.86-.17 1 .17 1.47h.8l.6-.18.41.24a30 30 0 0 0 3.16.21c1.41-.07 2.17-.28 2.42-.58s-.54-.4-.76-.42a8.17 8.17 0 0 1-2.65-.77l-1.13-1.08-.27-.81z" fill="#161711"/><path d="M51.62 18.52l4.87-2.09 1.66 1 3-.77A37.78 37.78 0 0 0 65 18.75c.35 0-.12 19.5-.12 19.5L56 41l-3.37-2.21z" fill="#d1dbea"/><path fill="#163f59" d="M53.09 37.94L44.08 83.7l3.25-.1 4.99-14.75 1.14-4.42 5.26-17.46 1.33-9.36-6.96.33z"/><path fill="#163f59" d="M62.55 83.91l-.7-18.51-1.54-8.37-1.99-11.5.8-7.89 7.07-.45-.28 13.26.72 11.88.15 4.49-.38 17.75-3.85-.66z"/><path fill="#194866" d="M55.1 39.47l.58-18.53.7-4.39-5.23 1.46-.34 22.56 4.29-1.1zM60.21 16.43l1.35 2.59.85 19.24.12 1.46 5.8-.61-1.97-17.93-1.04-3.64-5.11-1.11z"/><path fill="#163f59" d="M54.64 30.7l-1.51-7.54.93-1.39-.82-3.6.82-1.16 2.43-.82-.81 8.48-.46 11.14-.58-5.11zM60.22 16.36c-.12.35 1.23 2.81 1.23 2.81l.73 14 1.74-10.33-.46-1.84.46-1.16-1.44-2.93z"/><path fill="#ad5c49" d="M58 17.33l-.27.84.24.19.5-.04.23-.19-.25-.81h-.41"/><path fill="#b0bfde" d="M58 17.32l-1.18 1.33-.93-2.25.3-.59L58 17.32zM60.2 15.77l-1.75 1.55 1.16 1.39.97-2.25-.38-.69z"/><path d="M58.17 17.59a2 2 0 0 1 .47.89 32.58 32.58 0 0 1-.49 16 2 2 0 0 1-1 1l-.8-1.14a149.78 149.78 0 0 0 1.56-15.89c.02-.3.26-.58.26-.86z" fill="#ad5c49"/></g></svg>