<svg xmlns="http://www.w3.org/2000/svg" xmlns:xlink="http://www.w3.org/1999/xlink" viewBox="0 0 100 100"><defs><linearGradient id="a" x1="14.09" y1="76.45" x2="51.56" y2="55.35" gradientUnits="userSpaceOnUse"><stop offset="0" stop-color="#68d4fb"/><stop offset="1" stop-color="#f5ffff"/></linearGradient><linearGradient id="b" x1="21.77" y1="58.43" x2="59.24" y2="37.33" xlink:href="#a"/><linearGradient id="c" x1="33.61" y1="76.45" x2="71.09" y2="55.35" xlink:href="#a"/><linearGradient id="d" x1="39.25" y1="34.29" x2="40.94" y2="34.29" gradientUnits="userSpaceOnUse"><stop offset="0" stop-color="#76c7f8"/><stop offset="0.5" stop-color="#54afe4"/><stop offset="1" stop-color="#4c9ecd"/></linearGradient><linearGradient id="e" x1="37.29" y1="33.96" x2="37.66" y2="33.96" xlink:href="#d"/><linearGradient id="f" x1="36.47" y1="32.31" x2="37.42" y2="32.31" xlink:href="#d"/><linearGradient id="g" x1="37.46" y1="32.31" x2="38.37" y2="32.31" xlink:href="#d"/><linearGradient id="h" x1="34.13" y1="36.46" x2="34.88" y2="36.46" xlink:href="#d"/><clipPath id="i"><path d="M46.63,72,47,71a1.4,1.4,0,0,0,0,.86l-.36,1A1.56,1.56,0,0,1,46.63,72Z" style="fill:none"/></clipPath><clipPath id="j"><path d="M50.07,72.06l0,.1c-.06.16-.11.31-.16.46s-.11.31-.16.46a1.56,1.56,0,0,1-1.16,1,1.68,1.68,0,0,1-2-1.21l.36-1a1.67,1.67,0,0,0,2,1.21A1.53,1.53,0,0,0,50.07,72.06Z" style="fill:none"/></clipPath><clipPath id="k"><path d="M44.52,70.43l.36-1a2.92,2.92,0,0,1,.24-.37l-.35,1C44.68,70.18,44.6,70.3,44.52,70.43Z" style="fill:none"/></clipPath><clipPath id="l"><path d="M52.37,72.38l.36-1a4.56,4.56,0,0,1,0,.64l-.35,1A3.42,3.42,0,0,0,52.37,72.38Z" style="fill:none"/></clipPath><clipPath id="m"><path d="M46,69l.35-1a2.93,2.93,0,0,1,.4-.19l-.36,1A2.35,2.35,0,0,0,46,69Z" style="fill:none"/></clipPath><clipPath id="n"><path d="M51.67,70.37l.36-1a4.27,4.27,0,0,1,.3.51l-.36,1A3.25,3.25,0,0,0,51.67,70.37Z" style="fill:none"/></clipPath><clipPath id="o"><path d="M48,68.47l.36-1a3.7,3.7,0,0,1,.47,0l-.36,1A2.43,2.43,0,0,0,48,68.47Z" style="fill:none"/></clipPath><clipPath id="p"><path d="M50.07,69l.36-1a3.35,3.35,0,0,1,.45.27l-.35,1A4.25,4.25,0,0,0,50.07,69Z" style="fill:none"/></clipPath><clipPath id="q"><path d="M52.2,35.25l1.06,1.41a1.1,1.1,0,0,1,.13-1.25,2.19,2.19,0,0,1,.9-.73,1.48,1.48,0,0,1,1-.11.81.81,0,0,1,.39.27l-1.07-1.42a.73.73,0,0,0-.39-.26,1.42,1.42,0,0,0-1,.11,2.18,2.18,0,0,0-.9.73A1.07,1.07,0,0,0,52.2,35.25Z" style="fill:none"/></clipPath><clipPath id="r"><path d="M57.44,33.51,56.37,32.1a1.37,1.37,0,0,1,.13.2l1.07,1.42A1.48,1.48,0,0,0,57.44,33.51Z" style="fill:none"/></clipPath><clipPath id="s"><path d="M50.44,36.57,51.51,38a1.74,1.74,0,0,0,.49.44L50.93,37A1.74,1.74,0,0,1,50.44,36.57Z" style="fill:none"/></clipPath><clipPath id="t"><path d="M56.45,34.46l1.07,1.41a3.07,3.07,0,0,0,.27-1.06L56.73,33.4A3,3,0,0,1,56.45,34.46Z" style="fill:none"/></clipPath><clipPath id="u"><path d="M52.07,37.33l1.07,1.42a4,4,0,0,0,1.16-.15l-1.07-1.42A3.34,3.34,0,0,1,52.07,37.33Z" style="fill:none"/></clipPath><clipPath id="v"><path d="M54.62,36.54,55.69,38a5.48,5.48,0,0,0,1-.86l-1.07-1.41A5.49,5.49,0,0,1,54.62,36.54Z" style="fill:none"/></clipPath><clipPath id="w"><path d="M47.63,29.46,49,31.2c-.17-.21-.16-.57.06-1a6.86,6.86,0,0,1,3.42-2.92c.78-.29,1.34-.25,1.57.05h0l-1.35-1.74c-.23-.3-.79-.34-1.58-.05a6.88,6.88,0,0,0-3.41,2.92C47.47,28.89,47.46,29.25,47.63,29.46Z" style="fill:none"/></clipPath><clipPath id="x"><path d="M43.82,32.78l1.35,1.74a1.6,1.6,0,0,0,.46.27l-1.35-1.74A1.6,1.6,0,0,1,43.82,32.78Z" style="fill:none"/></clipPath><clipPath id="y"><path d="M56.9,24.15l1.35,1.74a3.2,3.2,0,0,0,.09-.49L57,23.66A3.2,3.2,0,0,1,56.9,24.15Z" style="fill:none"/></clipPath><clipPath id="z"><path d="M46,33.15l1.35,1.74a6.36,6.36,0,0,0,.77-.17L46.78,33C46.51,33.05,46.25,33.11,46,33.15Z" style="fill:none"/></clipPath><clipPath id="aa"><path d="M55.51,26.8l1.35,1.74c.15-.2.29-.39.42-.59l-1.35-1.74C55.8,26.41,55.66,26.6,55.51,26.8Z" style="fill:none"/></clipPath><clipPath id="ab"><path d="M49.3,32l1.35,1.74c.27-.14.54-.29.8-.45L50.1,31.52C49.84,31.68,49.57,31.83,49.3,32Z" style="fill:none"/></clipPath><clipPath id="ac"><path d="M52.76,29.64l1.35,1.74c.22-.19.45-.38.66-.58l-1.35-1.74Z" style="fill:none"/></clipPath><linearGradient id="ad" x1="57.86" y1="78.75" x2="95.33" y2="57.64" xlink:href="#a"/><linearGradient id="ae" x1="58.07" y1="78.72" x2="71.6" y2="71.1" gradientUnits="userSpaceOnUse"><stop offset="0" stop-color="#01a3de"/><stop offset="1" stop-color="#7ee6e3"/></linearGradient><linearGradient id="af" x1="60.84" y1="72.17" x2="74.38" y2="64.54" xlink:href="#ae"/><linearGradient id="ag" x1="65.12" y1="78.72" x2="78.66" y2="71.1" xlink:href="#ae"/><linearGradient id="ah" x1="82" y1="55.25" x2="95" y2="55.25" gradientUnits="userSpaceOnUse"><stop offset="0" stop-color="#45beea"/><stop offset="1" stop-color="#cbf2f1"/></linearGradient></defs><title>scalable</title><g style="isolation:isolate"><rect width="100" height="100" style="fill:none"/><rect x="21.08" y="55.83" width="27.14" height="18.09" style="fill:url(#a)"/><rect x="38.23" y="55.83" width="9.98" height="18.09" style="fill:#5ebfe2"/><rect x="28.76" y="37.81" width="27.14" height="18.09" style="fill:url(#b)"/><rect x="45.91" y="37.81" width="9.98" height="18.09" style="fill:#68d4fb"/><rect x="40.61" y="55.83" width="27.14" height="18.09" style="fill:url(#c)"/><rect x="57.76" y="55.83" width="9.98" height="18.09" style="fill:#5ebfe2"/><path d="M51.4,47c-.45.18-1.26.7-1.35,1.44-.13,1.11.61,2.62-.06,4.27-.21.53,4.88.56,4.88.56l.28-5.55a12,12,0,0,0-1.61-1.08A4.1,4.1,0,0,0,51.4,47Z" style="fill:#4967ad"/><path d="M55.16,47.68c.23.41,1,2.94.58,3.61-.05.08.28.15.26.47,0,.06-.06.33-.06.33l-.39.15-1.29-.53.19-.32h.11a.25.25,0,0,0,0-.22,11.72,11.72,0,0,0,.45-2.41A5.48,5.48,0,0,1,55.16,47.68Z" style="fill:#385485"/><path d="M55.14,51.24l-.37,0h-.15a.26.26,0,0,1-.06.18l.28,0,.33,0,.43.17Z" style="fill:#5c99db"/><path d="M54.67,51.64a1,1,0,0,1,.53.08c.19.08.38.3.24.45a3.09,3.09,0,0,1-.39.31S54.42,52.57,54.67,51.64Z" style="fill:#c4d1e1"/><path d="M55.44,52.18h-.18a3.53,3.53,0,0,0-.66.07l-.32.27-.05.06a.27.27,0,0,0,.3-.08c.16-.14.19-.05.19-.05v.16l0,.19v.09s0,0,0,.06a.11.11,0,0,0,.11,0l.14-.33.09.33a.11.11,0,0,0,.09,0h.05l0-.09a.07.07,0,0,0,0,.05.18.18,0,0,0,.11,0l-.06-.35.09.17a.15.15,0,0,0,.09.05h.08Z" style="fill:#e4eef3"/><path d="M52.26,51.18a2.45,2.45,0,0,0,1.6,1.17c.18,0,.31.21.24.28a1,1,0,0,1-.5.16,2.64,2.64,0,0,1-1.83-.43c-.83-.62-1.1-.92-1.07-1.29S52.26,51.18,52.26,51.18Z" style="fill:#ffc4ad"/><path d="M50.15,48A3.43,3.43,0,0,0,50,49.79a8.22,8.22,0,0,0,.87,1.89S51,52,51,52l.67.51,1.1-1L52.32,51l-.11,0a2.15,2.15,0,0,1-.1-.42c0-.12-.55-1.69-.86-2.71C51.08,47.3,50.32,47.65,50.15,48Z" style="fill:#385485"/><path d="M51.63,51.07l.33-.16.14,0a.24.24,0,0,0,.11.15l-.27.07-.3.14-.34.3Z" style="fill:#4967ad"/><path d="M53.78,52.36l.6-.25s.2.21.17.28a2,2,0,0,0,.05.4l-.26.29-.25,0s0-.11,0-.13-.07-.06-.11-.08S53.6,52.66,53.78,52.36Z" style="fill:#ffc4ad"/><rect x="51.94" y="45.91" width="1.7" height="1.12" rx="0.23" ry="0.23" transform="translate(-3.74 88.32) rotate(-77.87)" style="fill:#e4eef3"/><rect x="52.03" y="45.69" width="2.11" height="1.58" rx="0.24" ry="0.24" transform="translate(-0.52 92.37) rotate(-81.77)" style="fill:#ffc4ad"/><path d="M53.93,46.13a1,1,0,0,0,.21-.23.37.37,0,0,0-.11-.32c-.11-.09-.23,0-.23,0s.18.13.18.17A2.66,2.66,0,0,1,53.93,46.13Z" style="fill:#163f59"/><path d="M52.2,46.28a3.4,3.4,0,0,1,0-.82c.06-.18.1-.3.32-.29s.33.09.5,0,.5-.27.6-.28a.33.33,0,0,1,.39.39.33.33,0,0,0,.11.31s-.08,0-.2.08a.93.93,0,0,1-.73,0c-.22-.09-.63-.29-.7-.12s-.13.69-.16.72S52.23,46.31,52.2,46.28Z" style="fill:#194866"/><path d="M52.47,46.81a.1.1,0,0,1-.09.07l-.24,0a.07.07,0,0,1-.06-.09l.06-.43s0-.07.09-.07l.23,0a.07.07,0,0,1,.07.09Z" style="fill:#ffc4ad"/><path d="M53.87,47a.1.1,0,0,1-.1.07l-.23,0a.08.08,0,0,1-.07-.09l.06-.43a.08.08,0,0,1,.1-.06l.23,0a.1.1,0,0,1,.07.09Z" style="fill:#ffc4ad"/><path d="M52.28,46.43l-.12.84c0,.19,0,.62,1.06.78.64.09.69-.38.71-.53a1.7,1.7,0,0,0-.12-.57l0,.26a.51.51,0,0,0-.4-.31c-.49-.07-.64.2-.86.16S52.26,46.74,52.28,46.43Z" style="fill:#194866"/><path d="M53.11,47.28l.33,0a.07.07,0,0,0,.09-.07v0l-.49-.07v0A.07.07,0,0,0,53.11,47.28Z" style="fill:#ffc4ad"/><path d="M59,52.83a7.32,7.32,0,0,1-3.41,2.3L53,55.59c-2.28,0-3.78-3.35-3.78-3.35,0-.88,2.35.11,3.19.4a5.56,5.56,0,0,0,2.12.4c.84,0,1.73-.79,2.78-.94S59.15,52.15,59,52.83Z" style="fill:#1b2a3b"/><path d="M53.2,53.14h0V53l4.53-.65v.11h0v0a.32.32,0,0,1-.27.15l-3.94.57a.34.34,0,0,1-.3-.07Z" style="fill:#b6c2c9"/><path d="M54.3,53h0v0a.09.09,0,0,1-.06.06l-.69.1a.29.29,0,0,1-.28,0h0v-.06l1-.15Z" style="fill:#d8e5ed"/><polygon points="54.91 52.88 57.17 52.55 57.16 52.48 54.9 52.8 54.91 52.88" style="fill:#879ba6"/><path d="M54.3,52.86l.27-2.31a.16.16,0,0,1,.12-.13L57.87,50a.08.08,0,0,1,.09.1l-.26,2.31Z" style="fill:#d9e1e4"/><path d="M55.93,51.43a.16.16,0,0,0,.18.19.29.29,0,0,0,.23-.25.15.15,0,0,0-.18-.18A.3.3,0,0,0,55.93,51.43Z" style="fill:#b6c2c9"/><path d="M52.64,56.22c.32,0,.51-.38.51-.38l.73-.74-.22-.41-1.49.91S52.32,56.21,52.64,56.22Z" style="fill:#ffc4ad"/><path d="M53.15,55.81a.67.67,0,0,1,0,.22c0,.17-.11.24-.18.27-.3.13-.52.11-1.23.34s-1,.16-1.2-.15-.07-.6.28-.67c.51-.11.81-.09,1.07-.16a.81.81,0,0,0,.44-.27c.14-.11.35.44.22.59S53.07,56,53.15,55.81Z" style="fill:#548dc9"/><path d="M53,56.16c-.3.13-.52.11-1.23.34s-.94.15-1.2-.15a.41.41,0,0,1-.1-.4.37.37,0,0,0,0,.54c.25.31.49.39,1.2.15s.93-.21,1.23-.34a.29.29,0,0,0,.15-.17Z" style="fill:#e4eef3"/><path d="M53.15,55.83v0Z" style="fill:#ffc4ad"/><path d="M51.61,56.28s0,0-.07-.1a1.74,1.74,0,0,0-.13-.36c0-.06,0-.11,0-.12s.07,0,.1.08a1.74,1.74,0,0,1,.13.36A.19.19,0,0,1,51.61,56.28Z" style="fill:#e4eef3"/><path d="M51.83,56.21s0,0-.07-.09a2.42,2.42,0,0,0-.12-.35c0-.05,0-.1,0-.11s.07,0,.1.09a1.38,1.38,0,0,1,.12.34A.11.11,0,0,1,51.83,56.21Z" style="fill:#e4eef3"/><path d="M52.06,56.17s-.05,0-.07-.1a1.51,1.51,0,0,0-.14-.35c0-.06,0-.11,0-.11s.08,0,.11.09a2.13,2.13,0,0,1,.14.35C52.1,56.11,52.09,56.16,52.06,56.17Z" style="fill:#e4eef3"/><path d="M52.56,55.17s5.29-3,5.61-3c1.08-.15,1,1,.49,1.56s-5.33,2.41-5.33,2.41Z" style="fill:#303652"/><polygon points="54.83 55.29 53.12 54.04 53.69 53.31 55.57 54.85 54.83 55.29" style="fill:#ffc4ad"/><path d="M55,54.11S50.67,51.05,50.4,51c-.93-.25-1.36.79-1.28,1.13S53.6,55.6,53.6,55.6Z" style="fill:#303b46"/><path d="M57.45,55.07a.7.7,0,0,1,.15.32,9.56,9.56,0,0,1-1.68.72,2.31,2.31,0,0,1-.55,0s-.13-.08-.16-.09-.07.06-.13.05L54.83,56a1.4,1.4,0,0,1-.29-.85s.62.1.5,0,.33-.63.49-.49C56.16,55.14,57.16,54.86,57.45,55.07Z" style="fill:#5c99db"/><path d="M57.54,55.19a12.66,12.66,0,0,1-1.34.67,2.9,2.9,0,0,1-1.51-.15,1.71,1.71,0,0,0,.14.26l.25.06c.06,0,.06-.06.13-.05s.12.09.16.09a2.31,2.31,0,0,0,.55,0,9.56,9.56,0,0,0,1.68-.72A1,1,0,0,0,57.54,55.19Z" style="fill:#e4eef3"/><path d="M56.58,54.92s0,.06-.1.08a2,2,0,0,0-.42.19c-.07,0-.14.05-.15,0s0-.08.1-.12a3,3,0,0,1,.41-.18A.21.21,0,0,1,56.58,54.92Z" style="fill:#e4eef3"/><path d="M56.28,54.86s0,.06-.1.09a2.32,2.32,0,0,0-.41.22c-.06,0-.12.06-.13,0s0-.08.09-.12a1.71,1.71,0,0,1,.4-.21C56.2,54.84,56.26,54.84,56.28,54.86Z" style="fill:#e4eef3"/><path d="M56,54.8s0,.07-.1.1a3.11,3.11,0,0,0-.38.25c-.06.05-.12.07-.13.05s0-.09.08-.14a3,3,0,0,1,.38-.24C55.91,54.78,56,54.78,56,54.8Z" style="fill:#e4eef3"/><polygon points="22.7 75.11 22.32 75.11 31.07 42.46 31.45 42.46 22.7 75.11" style="fill:#2c7eea"/><polygon points="27.85 75.11 27.47 75.11 36.22 42.46 36.6 42.46 27.85 75.11" style="fill:#2c7eea"/><polygon points="30.72 44.48 30.82 44.11 36.09 44.11 35.99 44.48 30.72 44.48" style="fill:#2c7eea"/><polygon points="29.95 47.36 30.05 46.98 35.32 46.98 35.22 47.36 29.95 47.36" style="fill:#2c7eea"/><polygon points="29.18 50.23 29.28 49.85 34.55 49.85 34.45 50.23 29.18 50.23" style="fill:#2c7eea"/><polygon points="28.41 53.1 28.51 52.72 33.78 52.72 33.68 53.1 28.41 53.1" style="fill:#2c7eea"/><polygon points="27.64 55.97 27.74 55.59 33.01 55.59 32.91 55.97 27.64 55.97" style="fill:#2c7eea"/><polygon points="26.87 58.84 26.97 58.47 32.24 58.47 32.14 58.84 26.87 58.84" style="fill:#2c7eea"/><polygon points="26.1 61.71 26.2 61.34 31.48 61.34 31.37 61.71 26.1 61.71" style="fill:#2c7eea"/><polygon points="25.33 64.58 25.43 64.21 30.71 64.21 30.61 64.58 25.33 64.58" style="fill:#2c7eea"/><polygon points="24.56 67.46 24.66 67.08 29.94 67.08 29.84 67.46 24.56 67.46" style="fill:#2c7eea"/><polygon points="23.79 70.33 23.89 69.95 29.17 69.95 29.07 70.33 23.79 70.33" style="fill:#2c7eea"/><polygon points="23.02 73.2 23.13 72.82 28.4 72.82 28.3 73.2 23.02 73.2" style="fill:#2c7eea"/><path d="M30.79,76.5c.05,0,0-.2,0-.2a5.57,5.57,0,0,0-1.06,0,1.58,1.58,0,0,0-.28.15s-.05.08-.07.09-.05,0-.07,0l-.12.1a.76.76,0,0,0,.05.51s.67.17.81,0C30.43,76.83,30.7,76.63,30.79,76.5Z" style="fill:#161711"/><path d="M33.34,76.68l.14.59.61,0s0-.08.08-.08.11.08.17.07h.32l1.22-.06s0-.13,0-.17a.5.5,0,0,0-.19-.07c-.32-.07-1.23-.31-1.4-.6S33.34,76.68,33.34,76.68Z" style="fill:#161711"/><path d="M33.25,56.6l.14-.73s.51,0,.62-.23A2.85,2.85,0,0,0,33.92,54c-.35-.71-.5-2-2.12-1-.61.38.34,2.2.41,2.59a1.7,1.7,0,0,1-.14.85l.38.28Z" style="fill:#ffc4ad"/><path d="M30.36,63.45l-.05,2.28a4,4,0,0,1-.94-2C29.28,62.62,30.31,63.36,30.36,63.45Z" style="fill:#ffc4ad"/><path d="M31.5,68.18s.24.1-.3,3.44c-.39,2.41-.73,4.18-.9,5-.06.31-.15.26-.15.26l-.66.1-.33-.25.69-5.46Z" style="fill:#163f59"/><path d="M35.69,62l-1.37,2.61s2.61-1.88,2.44-2.91S35.69,62,35.69,62Z" style="fill:#ffc4ad"/><path d="M30.35,57.3s-.55.34-1,3.09S29.25,63,29.25,63l.08.62,1,.11.56-2.37Z" style="fill:#678527"/><path d="M32.87,64.4a83.67,83.67,0,0,1-2.27,9.27c-.62,1.69-.79-1.49-.79-1.49L30.46,63l3.17-.31S33.28,62.78,32.87,64.4Z" style="fill:#163f59"/><path d="M31.68,62.77s1.55,8.11,1.69,8.47c.47,1.23,1-.44,1.14-.86a33.73,33.73,0,0,0,.06-5.75l-.15-2.25Z" style="fill:#163f59"/><path d="M33.15,69.2s-.12,1-.21,2.24a35.12,35.12,0,0,0,.32,5.33c0,.11,1.15-.28,1.15-.28s.18-5.09.22-6.24S33.84,68.36,33.15,69.2Z" style="fill:#163f59"/><path d="M30.31,57.31l1.37-.62.37-.36,1.45,0,.25.42,1.12.48s.28.44,0,2a43.4,43.4,0,0,0-.32,4.5l-4.25.2S30.71,58.18,30.31,57.31Z" style="fill:#7fa331"/><path d="M34.51,57.21s.25-.28.87.48A10.46,10.46,0,0,1,37,60.92a1.17,1.17,0,0,1-.18,1.28l-.43.53-.94-.59.15-.28.1-.14s-.5-1.11-1.05-2.12A3.8,3.8,0,0,1,34.51,57.21Z" style="fill:#7fa331"/><path d="M33.46,54.15s-.18-.11-.21,0a.63.63,0,0,0,.15.48c.09,0,.12.41.12.41l-.23.42H32.15s-.35-.15-.38-.41-.31-2-.31-2l.8-.42a5.72,5.72,0,0,1,.72-.3c.45-.13.55.11.54.24s.12.14.3.14.41.14.32.23.14.14.06.28-.45.25-.47.56C33.71,53.91,33.66,54.38,33.46,54.15Z" style="fill:#194866"/><path d="M36.79,37.88s2.85,0,4,0c.76,0,.82-1.07.53-1.23a15.11,15.11,0,0,0-3.75-.75l-1.93,1.77S35.7,37.69,36.79,37.88Z" style="fill:#3c463b"/><path d="M39.48,32.07s.73-.2,1,.75a7.28,7.28,0,0,1,.38,3.1c0,.13-.12.59-.94.6-.33,0-.2-.7-.2-.7a16.2,16.2,0,0,1-.44-1.62A4.58,4.58,0,0,1,39.48,32.07Z" style="fill:url(#d)"/><path d="M40.05,32.16l-1.87-.61-1.42-.1-1.56.48s-.51.35,0,1.47a7.33,7.33,0,0,1,.29,2.9l4,.13s.08-1.64.34-3.27A2.45,2.45,0,0,1,40.05,32.16Z" style="fill:#7ec8ef"/><path d="M37.3,36.35h.21a17,17,0,0,0,0-4.78l-.18.11C37.34,33.29,37.25,34.9,37.3,36.35Z" style="fill:url(#e)"/><path d="M38.1,32a.48.48,0,0,1-.39.42h-.53a.46.46,0,0,1-.39-.42c0-.36-.09-.71-.13-1.07a.8.8,0,0,1,.38-.77,1,1,0,0,1,.81,0,.82.82,0,0,1,.38.77C38.19,31.28,38.14,31.63,38.1,32Z" style="fill:#edeef0"/><polygon points="37.42 32.43 37.09 32.98 36.47 32.21 36.56 31.81 36.77 31.64 36.77 31.95 37.42 32.43" style="fill:url(#f)"/><polygon points="37.46 32.43 37.8 32.98 38.37 32.27 38.28 31.82 38.13 31.64 38.08 32 37.46 32.43" style="fill:url(#g)"/><path d="M37.36,29.47a.39.39,0,0,0-.35.19h-.15a.33.33,0,0,0-.33.33v.81h.23v-.33a.23.23,0,0,1,.24-.23h.06a.42.42,0,0,0,.42-.43v-.34Z" style="fill:#163f59"/><path d="M37,31.1a.2.2,0,0,1-.2.2h0a.2.2,0,0,1-.2-.2v-.24a.2.2,0,0,1,.2-.2h0a.21.21,0,0,1,.19.11" style="fill:#e4eef3"/><path d="M37.18,29.79v-.32h.7a.42.42,0,0,1,.42.42v.32h-.69A.42.42,0,0,1,37.18,29.79Z" style="fill:#163f59"/><path d="M38.24,31.41a.66.66,0,0,1-.34.54A1.22,1.22,0,0,1,37,32a.65.65,0,0,1-.35-.54V30a.35.35,0,0,1,.38-.31h.86a.35.35,0,0,1,.37.31Z" style="fill:#ffc4ad"/><path d="M37.6,29.47a.42.42,0,0,1,.36.19h.14a.33.33,0,0,1,.33.33v.81H38.2v-.33a.23.23,0,0,0-.23-.23h-.3a.42.42,0,0,1-.42-.43v-.34Z" style="fill:#163f59"/><path d="M38,30.86a.2.2,0,0,1,.2-.2h0a.2.2,0,0,1,.2.2v.24a.2.2,0,0,1-.2.2h0a.2.2,0,0,1-.19-.12" style="fill:#ffc4ad"/><path d="M37.25,29.87s0-.05,0-.08v-.32H37a.42.42,0,0,0-.43.42v.32h.39A.43.43,0,0,1,37.25,29.87Z" style="fill:#163f59"/><path d="M33.53,43.32c-.05,0,0,.19,0,.19a5.86,5.86,0,0,0,1,0l.27-.13s.05-.07.06-.08,0,0,.08,0,.11-.07.11-.08a.71.71,0,0,0,0-.49s-.65-.22-.77-.07A6.1,6.1,0,0,1,33.53,43.32Z" style="fill:#161711"/><path d="M40.68,42.93l0,.58.58.06s0-.08.09-.07.09.09.14.09l.32,0,1.16.12s0-.12,0-.17l-.17-.09c-.29-.11-1.12-.46-1.24-.76S40.68,42.93,40.68,42.93Z" style="fill:#161711"/><path d="M39.81,35.61l-2,.8a8.3,8.3,0,0,0,2.25,0C40.69,36.31,39.83,35.59,39.81,35.61Z" style="fill:#ffc4ad"/><path d="M35.36,36.83s-.19,1.79-.16,2.73a20.67,20.67,0,0,1-.15,3.25,4.05,4.05,0,0,1-.92,0s-.32-4.43-.42-5.16S33.89,36.41,35.36,36.83Z" style="fill:#3c463b"/><path d="M41.09,37.26a1.54,1.54,0,0,1-1.1.57c-.29,0,.47,5.19.47,5.19l1.19-.38L41.42,37Z" style="fill:#323b31"/><path d="M37.81,37.83s-1.56.23-2.59.33c-.38,0-.71-1-.76-1.07a.77.77,0,0,0-.54-.26,9.92,9.92,0,0,1,2.61-.76c1.21-.28,1.4-.1,1.4-.1Z" style="fill:#323b31"/><path d="M36.53,36.07a9.92,9.92,0,0,0-2.61.76.77.77,0,0,1,.54.26s.08.36.13.48c-.19-.36,2.66-1.37,3.28-1.63A3,3,0,0,0,36.53,36.07Z" style="fill:#3c463b"/><polygon points="35.19 37.82 35.07 41.3 34.95 42.11 34.94 41.3 34.97 40.8 34.69 40.02 34.54 38.2 34.75 38.28 34.73 37.49 35.19 37.82" style="fill:#323b31"/><path d="M41.05,36.83l.29.08.11,4.18-.61,1.49.29-1L41,39.46s-.42,1-.42,1,.35-2.21.35-2.21-.39.33-.35.31S40.82,37,41.05,36.83Z" style="fill:#3c463b"/><path d="M36.06,31.94s-.62-.49-1.23.42a12.08,12.08,0,0,0-1.43,3.16,1.94,1.94,0,0,0,.32,1.57c.09.09.61,0,.61,0l.35-.24-.14-.28v-.22s.44-1.08,1-2.09A5.73,5.73,0,0,0,36.06,31.94Z" style="fill:#7ec8ef"/><path d="M34.54,36l2,.11s-2,.9-2,.74C34.18,36,34.54,36,34.54,36Z" style="fill:#ffc4ad"/><path d="M35.65,36l.11-.06a.53.53,0,0,0,.26.16h.88a.55.55,0,0,1,.13,0c.07,0,0,.09,0,.09l-.67.1.64.08s.08,0,.08.06,0,0,0,0l-.75.08.33.08s.08,0,.09.07,0,.06,0,.06l-.69-.07S35.53,36,35.65,36Z" style="fill:#ffc4ad"/><path d="M36.39,36.36l.45.09a.27.27,0,0,1,.15,0s0,.08,0,.08l-.69-.06Z" style="fill:#ffc4ad"/><path d="M39.21,36.72h0v-.12h-4v.12h0v0a.35.35,0,0,0,.33.13h3.31a.35.35,0,0,0,.33-.13Z" style="fill:#b6c2c9"/><rect x="35.89" y="36.62" width="2.65" height="0.09" style="fill:#879ba6"/><path d="M39.21,36.6V34a.12.12,0,0,0-.12-.13H35.36a.13.13,0,0,0-.13.13V36.6Z" style="fill:#e4eef3"/><path d="M37.46,35.23a.24.24,0,0,1-.48,0,.24.24,0,0,1,.24-.24A.23.23,0,0,1,37.46,35.23Z" style="fill:#b6c2c9"/><polygon points="34.27 37.03 34.13 36.14 34.36 35.9 34.88 35.98 34.77 36.97 34.27 37.03" style="fill:url(#h)"/><polygon points="40.49 36.39 40.55 36.06 39.9 35.48 39.55 35.64 40.01 36.52 40.49 36.39" style="fill:#7ec8ef"/><g style="isolation:isolate"><polygon points="49.8 76.34 50.16 75.32 50.17 75.85 49.81 76.87 49.8 76.34" style="fill:#abb3b7"/><polygon points="44.11 75.04 44.47 74.03 44.87 73.46 44.52 74.47 44.11 75.04" style="fill:#8d9397"/><polygon points="43.24 72.73 43.59 71.71 44.32 71.4 43.96 72.42 43.24 72.73" style="fill:#8d9397"/><polygon points="51.57 75.04 51.92 74.02 52.21 74.48 51.85 75.5 51.57 75.04" style="fill:#a3aaae"/><g style="isolation:isolate"><g style="clip-path:url(#i)"><g style="isolation:isolate"><path d="M46.63,72,47,71a1.39,1.39,0,0,0,0,.86l-.36,1a1.56,1.56,0,0,1,0-.86" style="fill:#a8b0b4"/><polyline points="46.59 72.87 46.95 71.85 46.95 71.86 46.59 72.87 46.59 72.87" style="fill:#a4abaf"/></g></g></g><g style="isolation:isolate"><g style="clip-path:url(#j)"><g style="isolation:isolate"><path d="M46.59,72.87l.36-1a1.32,1.32,0,0,0,.1.3l-.35,1a1.54,1.54,0,0,1-.11-.3" style="fill:#a4abaf"/><path d="M46.7,73.17l.35-1c0,.08.09.16.14.24l-.36,1a1.71,1.71,0,0,1-.13-.23" style="fill:#9fa6aa"/><path d="M46.83,73.4l.36-1a1.68,1.68,0,0,0,.18.21l-.36,1-.18-.22" style="fill:#9ba1a5"/><path d="M47,73.62l.36-1a1.59,1.59,0,0,0,.24.2l-.35,1a2.43,2.43,0,0,1-.25-.2" style="fill:#969da0"/><path d="M47.26,73.82l.35-1a1.69,1.69,0,0,0,1.3.26,1.53,1.53,0,0,0,1.16-1l-.35,1a1.56,1.56,0,0,1-1.16,1,1.67,1.67,0,0,1-1.3-.26" style="fill:#92989b"/></g></g></g><polygon points="43.67 70.34 44.02 69.32 44.88 69.41 44.52 70.42 43.67 70.34" style="fill:#8d9397"/><polygon points="52.89 73.31 53.24 72.29 52.87 73.5 52.52 74.52 52.89 73.31" style="fill:#a8afb4"/><polygon points="52.37 73.02 52.72 72 53.24 72.29 52.89 73.31 52.37 73.02" style="fill:#959b9f"/><g style="isolation:isolate"><g style="clip-path:url(#k)"><g style="isolation:isolate"><path d="M44.52,70.43l.36-1a2.92,2.92,0,0,1,.24-.37l-.35,1c-.09.12-.17.24-.25.37" style="fill:#92989b"/></g></g></g><g style="isolation:isolate"><g style="clip-path:url(#l)"><g style="isolation:isolate"><path d="M52.37,72.38l.36-1a4.56,4.56,0,0,1,0,.64l-.35,1a3.42,3.42,0,0,0,0-.64" style="fill:#a8b0b4"/></g></g></g><polygon points="44.33 69.36 44.68 68.34 45.64 67.49 45.28 68.51 44.33 69.36" style="fill:#8d9397"/><polygon points="45.28 68.51 45.64 67.49 46.35 67.98 46 69 45.28 68.51" style="fill:#979ea1"/><g style="isolation:isolate"><g style="clip-path:url(#m)"><g style="isolation:isolate"><path d="M46,69l.35-1a2.93,2.93,0,0,1,.4-.19l-.36,1A2.35,2.35,0,0,0,46,69" style="fill:#92989b"/></g></g></g><polygon points="51.97 70.88 52.33 69.86 52.99 69.86 52.63 70.88 51.97 70.88" style="fill:#8d9397"/><polygon points="52.63 70.88 52.99 69.86 53.3 71.11 52.94 72.13 52.63 70.88" style="fill:#aab1b5"/><g style="isolation:isolate"><g style="clip-path:url(#n)"><g style="isolation:isolate"><path d="M51.67,70.37l.36-1a4.27,4.27,0,0,1,.3.51l-.36,1a3.25,3.25,0,0,0-.3-.51" style="fill:#9fa6aa"/></g></g></g><g style="isolation:isolate"><g style="clip-path:url(#o)"><g style="isolation:isolate"><path d="M48,68.47l.36-1a3.7,3.7,0,0,1,.47,0l-.36,1a2.43,2.43,0,0,0-.47,0" style="fill:#92989b"/></g></g></g><g style="isolation:isolate"><g style="clip-path:url(#p)"><g style="isolation:isolate"><path d="M50.07,69l.36-1a3.35,3.35,0,0,1,.45.27l-.35,1a4.25,4.25,0,0,0-.46-.27" style="fill:#92989b"/></g></g></g><polygon points="46.37 67.99 46.72 66.97 48 66.71 47.65 67.73 46.37 67.99" style="fill:#8d9397"/><polygon points="47.65 67.73 48 66.71 48.37 67.45 48.01 68.47 47.65 67.73" style="fill:#a6adb1"/><polygon points="50.53 69.23 50.88 68.21 51.52 67.85 51.16 68.87 50.53 69.23" style="fill:#8d9397"/><polygon points="51.16 68.87 51.52 67.85 52.43 68.8 52.07 69.81 51.16 68.87" style="fill:#9da4a8"/><polygon points="48.48 68.49 48.84 67.47 49.23 66.79 48.87 67.81 48.48 68.49" style="fill:#8d9397"/><polygon points="50.13 68.2 50.49 67.19 50.43 67.94 50.08 68.96 50.13 68.2" style="fill:#abb2b6"/><polygon points="48.87 67.81 49.23 66.79 50.49 67.19 50.13 68.2 48.87 67.81" style="fill:#90969a"/><path d="M48.53,77.13l-.25-.51a4,4,0,0,1-.69-.06l-.28.49-1.26-.4L46.1,76a3.74,3.74,0,0,1-.53-.35L45,76,44.11,75l.41-.56c-.09-.16-.17-.33-.25-.5h-.72l-.31-1.25.72-.32a3.71,3.71,0,0,1,0-.47l-.69-.39.37-1.21.85.09c.08-.13.16-.25.25-.37l-.44-.7,1-.85L46,69a2.35,2.35,0,0,1,.39-.19l0-.82,1.28-.26.36.74a2.43,2.43,0,0,1,.47,0l.39-.68,1.26.39-.06.76a4.25,4.25,0,0,1,.46.27l.63-.36.91.94-.4.56a3.25,3.25,0,0,1,.3.51h.66l.31,1.25-.57.25a3.42,3.42,0,0,1,0,.64l.52.29-.38,1.21-.57-.06a4.38,4.38,0,0,1-.37.58l.28.46-1,.85L50.44,76a4.73,4.73,0,0,1-.64.31v.53Zm-1.94-4.26a1.68,1.68,0,0,0,2,1.21,1.53,1.53,0,0,0,1.2-1.87,1.69,1.69,0,0,0-2-1.21,1.54,1.54,0,0,0-1.2,1.87" style="fill:#edeef0"/></g><path d="M50.31,64a2.53,2.53,0,0,1-.68,3c-.45.33.08.2.58,0a3.28,3.28,0,0,0,1.66-2.6c0-1.32,0-1.83-.43-2.09S50.31,64,50.31,64Z" style="fill:#ffc4ad"/><path d="M46,63.79l5.42,2.35-1.69.22s-5.15.87-5.23-1S46,63.79,46,63.79Z" style="fill:#163f59"/><path d="M42.38,66a2.24,2.24,0,0,0,.23,1.06c.54.67,1.5-.13,2.35-.32,0,0,1.07-1.51,1.07-1.51l.31-.93-3.63.13A5,5,0,0,0,42.38,66Z" style="fill:#194866"/><path d="M44.23,67.65s-.34-.3-.07-.45A13.86,13.86,0,0,1,48.37,66l1.87,0a3,3,0,0,1,1.19.17c.61.41-.18,1.52-.18,1.52Z" style="fill:#163f59"/><path d="M44.13,67.16l-.41.08v.42l.13,0a1.9,1.9,0,0,0-.13.37c0,.08,0,1.08,0,1.08h.15s.25-1.15.48-1.32c0,0-.09-.06-.12-.13A4.49,4.49,0,0,1,44.13,67.16Z" style="fill:#282723"/><path d="M39,76.08a.61.61,0,0,1,.21-.48c.28-.3.34-.23.34-.23l.11.57Z" style="fill:#d1dbea"/><path d="M49.5,59.68s.15-1,1.64.86a4.76,4.76,0,0,1,1,2.27l-.16,1.06L50.06,64,50,63.11l.12-.08a.32.32,0,0,0-.07-.28A15.43,15.43,0,0,0,48.7,61C48.27,60.56,49.36,59.77,49.5,59.68Z" style="fill:#d1dbea"/><path d="M50.71,62.56l-.44.16-.17.07a.38.38,0,0,1,0,.24l.3-.18.41-.14.58,0Z" style="fill:#b0bfde"/><path d="M46.53,65.36a.32.32,0,0,0-.24-.38,3.32,3.32,0,0,0-1,.17l.36.12.47.11Z" style="fill:#ffc4ad"/><path d="M46.51,65.09l-4-.67s1.74-3.35,2.17-3.94a6,6,0,0,1,1.64-1.36,4,4,0,0,1,2.56,0,8,8,0,0,1,1.7,1.13A7.12,7.12,0,0,1,46.51,65.09Z" style="fill:#d1dbea"/><path d="M45.74,64.88l.27.23a18.14,18.14,0,0,0,2.83-5.81l-.29-.07A17.6,17.6,0,0,1,45.74,64.88Z" style="fill:#b0bfde"/><path d="M39.91,75.8l-.69-.25a21.85,21.85,0,0,1,2-3.61A10.15,10.15,0,0,1,43,70.34l1.4.65Z" style="fill:#194866"/><path d="M45.32,66.17l-1,4.82L43,70.4s-1.53-5,.33-5.47A1.44,1.44,0,0,1,45.32,66.17Z" style="fill:#194866"/><path d="M48.25,66.91l1,.63.63,0s0,.08,0,.09a2.57,2.57,0,0,1-.69,0,2.49,2.49,0,0,0-.52-.11c-.14,0-.5.17-.52.14s.1-.1.16-.19a.47.47,0,0,0,0-.31Z" style="fill:#ffc4ad"/><path d="M46.33,64.72l2,2.28.18.27a1.13,1.13,0,0,0-.25-.17A9.12,9.12,0,0,1,46.05,66a6.4,6.4,0,0,1-.91-1Z" style="fill:#ffc4ad"/><path d="M46.89,61.44l-.44,3-.2.12.16.17-1.17.44-.71-.82.68-4.11A1.93,1.93,0,0,1,46.8,59C47.41,58.91,46.92,61.19,46.89,61.44Z" style="fill:#b0bfde"/><path d="M45,64.55l1.3,0-.09,0,.16.17L46,64.9l-.61.13-.14-.21.17-.08Z" style="fill:#d1dbea"/><path d="M49.2,57.52a.37.37,0,0,1-.28.43l-1.32.29a.35.35,0,0,1-.42-.28h0a.35.35,0,0,1,.27-.42l1.32-.29a.36.36,0,0,1,.43.27Z" style="fill:#163f59"/><path d="M49.09,58.18a.67.67,0,0,1-.51.79l-.69.15a.66.66,0,0,1-.78-.51h0a.65.65,0,0,1,.5-.78l.69-.16a.67.67,0,0,1,.79.51Z" style="fill:#163f59"/><path d="M49.83,59.1l-.44-2c-.07-.32-.26.06-.58.13l-.31.07A.59.59,0,0,0,48,58l.32,1.43Z" style="fill:#ffc4ad"/><path d="M48.4,58.38a.26.26,0,0,1-.2.31h0a.26.26,0,0,1-.31-.2h0a.25.25,0,0,1,.2-.31h0a.26.26,0,0,1,.31.2Z" style="fill:#ffc4ad"/><path d="M49.52,58.5a.16.16,0,0,0,.18.12l.12,0a.14.14,0,0,0,.11-.18s-.43-.71-.51-.69a.23.23,0,0,0,0,.16Z" style="fill:#ffc4ad"/><path d="M49,59.17c-.58.13-.68,0-.74-.24a5,5,0,0,0,0,.71l0,.18a.77.77,0,0,0,1,.47l.81-.18-.19-.91,0-.21Z" style="fill:#163f59"/><path d="M49.73,58.61l-.47.11a.39.39,0,0,0-.3.47.32.32,0,0,0,0,.09l.84-.18Z" style="fill:#163f59"/><path d="M49.21,59.15l0,.13a.07.07,0,0,0,.08,0l.38-.08a.07.07,0,0,0,0-.08l0-.13Z" style="fill:#ffc4ad"/><path d="M49.11,56.77,47.92,57a.24.24,0,0,0-.19.28l.11.47,1.42-.32Z" style="fill:#163f59"/><path d="M49.93,57a.36.36,0,0,1-.28.43l-.81.18a.37.37,0,0,1-.43-.28h0a.37.37,0,0,1,.28-.43l.81-.17a.36.36,0,0,1,.43.27Z" style="fill:#163f59"/><rect x="48.03" y="57.53" width="0.33" height="0.87" transform="translate(-11.29 11.65) rotate(-12.35)" style="fill:#163f59"/><rect x="48.06" y="57.08" width="0.97" height="1.02" transform="translate(-11.24 11.77) rotate(-12.4)" style="fill:#163f59"/><path d="M48.4,58.16a.49.49,0,0,1,.38-.59l.25-.06a.44.44,0,0,1,.51.4h0a.49.49,0,0,1-.38.58l-.17,0a.49.49,0,0,1-.59-.37Z" style="fill:#ffc4ad"/><path d="M39,75.78l-.11.39.32.16.08-.1a1.69,1.69,0,0,0,.27.27.84.84,0,0,0,.19.09,4.62,4.62,0,0,0,.89,0l.06-.14a1,1,0,0,1-.77-.23,1.08,1.08,0,0,1-.3-.41s-.09,0-.17,0S39.15,75.79,39,75.78Z" style="fill:#282723"/><path d="M8.68,60s.76.37,1.17.55h-.1l.06.22-.43,0-.59-.15,0-.25h.19Z" style="fill:#c9c8b6"/><path d="M19.64,53l-.16-.43a1.49,1.49,0,0,0-.23-.41.45.45,0,0,0-.62-.09.76.76,0,0,0-.3.24s0,.33.3.38.73.51.81.42A.43.43,0,0,1,19.64,53Z" style="fill:#ffc4ad"/><polygon points="18.34 52.48 18.1 52.03 17.9 51.6 18.01 51.59 18.19 51.88 18.69 52.17 18.57 52.27 18.34 52.48" style="fill:#ffc4ad"/><polygon points="18.36 51.81 18.3 51.4 18.4 51.36 18.54 51.76 18.82 52.11 18.57 52.27 18.36 51.81" style="fill:#ffc4ad"/><polygon points="18.58 51.35 18.61 51.68 18.6 51.91 18.74 52.11 18.97 52.05 18.81 51.83 18.7 51.4 18.58 51.35" style="fill:#ffc4ad"/><polygon points="18.92 51.39 18.87 52 18.98 52.13 19.14 52.1 19.06 51.82 19 51.46 18.92 51.39" style="fill:#ffc4ad"/><path d="M19.52,53.36a.59.59,0,0,0-.4-.3s-.71-.16-.78-.29a1.33,1.33,0,0,0-.35-.31s-.08-.12.21-.06a1.23,1.23,0,0,1,.34.13,1.91,1.91,0,0,1,.54,0c.24.12.52.71.52.71S19.54,53.39,19.52,53.36Z" style="fill:#ffc4ad"/><path d="M14.62,56.86s-.06.83,2.44,1,2.44-.37,2.44-.37l.2-.6-.87-1.66-.82.37v.14a.33.33,0,0,1-.29.08,16.07,16.07,0,0,1-2.3-.33C14.79,55.37,14.63,56.7,14.62,56.86Z" style="fill:#c6d6db"/><path d="M15.42,55.51l.09,0a3.39,3.39,0,0,0-.35.89s-.16.81,2.3,1.31a10.79,10.79,0,0,0,1.1.17,8.54,8.54,0,0,1-1.5,0c-2.5-.19-2.44-1-2.44-1C14.63,56.7,14.79,55.37,15.42,55.51Z" style="fill:#b6c9c9"/><path d="M18.78,55.42a1.88,1.88,0,0,0,.34-2.62c-.32-.45.14-.13.56.21a2.94,2.94,0,0,1,.72,2.72c-.39,1-.62,1.39-1.07,1.43S18.78,55.42,18.78,55.42Z" style="fill:#ffc4ad"/><path d="M17.88,56.5,17.8,56l0-.19a.34.34,0,0,0,.24-.09v.36l.08.41.27.52Z" style="fill:#b6c9c9"/><path d="M15.62,62.15l-2.92-.06L11.48,58s-.78-2.46.73-2.49,3.24,0,3.24,0S16.47,56.38,15.62,62.15Z" style="fill:#c6d6db"/><path d="M13,52.45s1.54,1.43,1.35,1.92a1.16,1.16,0,0,0-.28.49c0,.22.08.35.08.44s.08.22.08.27c0,.26-.09.47-.2.44a7.91,7.91,0,0,1-.78-.3c-.07,0-.13,0-.15-.15a1.75,1.75,0,0,0-.26-.72c-.33-.31-1.26-.62-1-1.53A2.35,2.35,0,0,1,13,52.45Z" style="fill:#ffc4ad"/><path d="M14,56.07a8.27,8.27,0,0,1,.94,4.81.63.63,0,0,1-.26.34l-.33-.29A30.48,30.48,0,0,0,14,56.07Z" style="fill:#163f59"/><polygon points="13.95 56.01 13.88 56.52 12.95 55.74 13.06 55.56 13.95 56.01" style="fill:#b6c9c9"/><polygon points="14.22 55.69 14.2 55.52 14.37 55.81 14.37 56.34 14.01 56.02 14.22 55.69" style="fill:#b6c9c9"/><path d="M14.29,54.35l-.21,0a1.49,1.49,0,0,0-.25.06,1.51,1.51,0,0,1-.42.17,4.76,4.76,0,0,1-.65.07l.32.12a.55.55,0,0,0,.42,0c.5-.16.5-.12.55-.16A2.63,2.63,0,0,1,14.29,54.35Z" style="fill:#e8b29d"/><path d="M13.51,53.11a3.6,3.6,0,0,0,.4.22c.06,0,.14.06.15.09a.86.86,0,0,1,0,.15s0,.18-.14.07A4.82,4.82,0,0,1,13.51,53.11Z" style="fill:#ffc4ad"/><path d="M11.71,53.26a1.4,1.4,0,0,1,1.46-.9.34.34,0,0,1,0,.3,1,1,0,0,0-.84.28c-.36.39.09.35.08.52l0,.29.14.27-.1.1s-.26-.19-.25-.07.19.29.22.32.06.06,0,.08a2.12,2.12,0,0,1,.32.38s-.17,0-.33-.09A1.74,1.74,0,0,1,11.71,53.26Z" style="fill:#163f59"/><path d="M12.18,54a.22.22,0,0,0,0,.3.21.21,0,0,0,.3,0" style="fill:#ffc4ad"/><path d="M13.76,53.67a1.62,1.62,0,0,1,.18-.23s.07,0,.09,0,0,.09,0,.23S14,53.61,13.76,53.67Z" style="fill:#e8b29d"/><rect x="14.79" y="74.7" width="0.75" height="1.15" style="fill:#2162a3"/><rect x="9.45" y="74.7" width="0.61" height="1.15" style="fill:#2162a3"/><path d="M14.83,76.18h.55V76l.23.17H17s0-.23-1-.27c-.24,0-.4-.33-.4-.33s-.12-.11-.3.14c-.05.07-.55-.06-.55-.06A1.12,1.12,0,0,0,14.83,76.18Z" style="fill:#081832"/><path d="M15.52,62.05l.07,6.21L14.27,69a9.12,9.12,0,0,1-.88-3.38C13.29,63.72,15.52,62.05,15.52,62.05Z" style="fill:#163f59"/><path d="M15.52,62.05l-2.89,6.81-.52.73-2,5.65L9.36,75s-.27-3.1.52-4.43,1.18-2,1.18-2l1.74-6.68Z" style="fill:#194866"/><path d="M14.72,75.35C14.49,74.13,14,72,14,71.22a10.72,10.72,0,0,1,.19-2.45l1.45-.51v7.09Z" style="fill:#163f59"/><path d="M10.14,76.39H9.77l-.11-.12L9.6,76l-.11.12-.39-.39a1.28,1.28,0,0,1,.34-.39s.26.45.34.43c.31,0,.31.11.31.11S10,76.21,10.14,76.39Z" style="fill:#081832"/><path d="M9.76,76a.42.42,0,0,0,.28.17c.94,0,1,.26,1,.26H9.76Z" style="fill:#081832"/><path d="M5.3,63.93l3.86-5.24s2.4,0,3.19,0A19.28,19.28,0,0,0,17,57.45L14.53,63A6.13,6.13,0,0,1,11.74,64c-.64.07-2.07-.31-3.17-.33A17.53,17.53,0,0,0,5.3,63.93Z" style="fill:#c4d1e1"/><path d="M5,64.35l2.9-5.78s2.43,0,3.27-.09a18,18,0,0,0,5.19-1.68L14.07,63a52,52,0,0,1-5.68,1A21,21,0,0,0,5,64.35Z" style="fill:#e4eef3"/><path d="M11.68,57.9,10,60.51l-.23,0,.06.22-1.23-.09L8.3,59.6l2.4-3.53a2.52,2.52,0,0,1,2-.51C13.55,55.69,11.81,57.67,11.68,57.9Z" style="fill:#c6d6db"/><path d="M9.75,60.67,11,64.19a.51.51,0,0,1-.43-.06,8.5,8.5,0,0,1-1.46-2,10.1,10.1,0,0,1-.56-1.64Z" style="fill:#ffc4ad"/><polygon points="10.64 64.18 11.6 64.53 11.69 63.83 11.49 63.91 11.25 63.72 10.89 64.05 10.64 64.18" style="fill:#ffc4ad"/><polygon points="62.27 52.38 72.25 52.38 75.26 58.13 65.28 58.13 62.27 52.38" style="fill:#45beea"/><g style="opacity:0.30000000000000004;mix-blend-mode:multiply"><path d="M51.86,42.71c1.71,1.92,5.7,1.15,8.91-1.72s4.42-6.75,2.7-8.66-5.7-1.15-8.91,1.72S50.15,40.8,51.86,42.71Z" style="fill:#fff"/><path d="M51.9,42.68c1.7,1.9,5.67,1.14,8.85-1.71s4.39-6.7,2.69-8.61-5.67-1.14-8.86,1.71S50.2,40.77,51.9,42.68Z" style="fill:#fefefe"/><path d="M51.94,42.64c1.69,1.89,5.63,1.13,8.79-1.7s4.36-6.65,2.67-8.54-5.63-1.13-8.8,1.7S50.25,40.75,51.94,42.64Z" style="fill:#fdfdfe"/><path d="M52,42.61c1.68,1.88,5.59,1.12,8.73-1.69s4.33-6.61,2.65-8.49-5.59-1.12-8.73,1.69S50.3,40.73,52,42.61Z" style="fill:#fcfdfd"/><path d="M52,42.57c1.67,1.87,5.55,1.12,8.67-1.67s4.29-6.57,2.63-8.43-5.55-1.12-8.67,1.67S50.35,40.71,52,42.57Z" style="fill:#fbfcfd"/><path d="M52.06,42.54c1.65,1.85,5.51,1.11,8.61-1.67s4.26-6.52,2.61-8.37-5.51-1.1-8.61,1.67S50.4,40.69,52.06,42.54Z" style="fill:#fafbfc"/><path d="M52.1,42.5c1.64,1.84,5.47,1.1,8.55-1.65s4.23-6.47,2.59-8.31-5.47-1.1-8.55,1.65S50.45,40.66,52.1,42.5Z" style="fill:#f9fafb"/><path d="M52.14,42.47c1.63,1.82,5.43,1.09,8.48-1.64s4.21-6.43,2.58-8.26-5.44-1.09-8.49,1.64S50.5,40.64,52.14,42.47Z" style="fill:#f8f9fb"/><path d="M52.18,42.43c1.62,1.82,5.39,1.09,8.42-1.63s4.18-6.38,2.56-8.19-5.4-1.09-8.43,1.63S50.55,40.62,52.18,42.43Z" style="fill:#f7f9fa"/><path d="M52.21,42.4c1.61,1.8,5.36,1.07,8.37-1.62s4.15-6.34,2.54-8.14-5.36-1.07-8.37,1.62S50.61,40.6,52.21,42.4Z" style="fill:#f6f8f9"/><path d="M52.25,42.36c1.6,1.79,5.32,1.07,8.31-1.6s4.12-6.29,2.52-8.08-5.32-1.07-8.31,1.61S50.66,40.57,52.25,42.36Z" style="fill:#f5f7f9"/><path d="M52.29,42.33c1.59,1.77,5.28,1.06,8.25-1.6s4.09-6.24,2.5-8-5.28-1.06-8.25,1.6S50.71,40.55,52.29,42.33Z" style="fill:#f4f6f8"/><path d="M52.33,42.29c1.58,1.76,5.24,1.05,8.19-1.58s4.06-6.2,2.48-8-5.24-1.05-8.18,1.58S50.76,40.53,52.33,42.29Z" style="fill:#f3f5f8"/><path d="M52.37,42.26c1.57,1.74,5.2,1,8.13-1.58s4-6.15,2.46-7.9-5.2-1-8.12,1.58S50.81,40.51,52.37,42.26Z" style="fill:#f2f4f7"/><path d="M52.41,42.22c1.55,1.74,5.16,1,8.07-1.56s4-6.11,2.44-7.84-5.16-1-8.06,1.56S50.86,40.49,52.41,42.22Z" style="fill:#f1f4f6"/><path d="M52.45,42.19c1.54,1.72,5.13,1,8-1.55s4-6.06,2.42-7.78-5.12-1-8,1.54S50.91,40.46,52.45,42.19Z" style="fill:#f0f3f6"/><path d="M52.49,42.15c1.53,1.71,5.09,1,7.94-1.54s3.94-6,2.41-7.72-5.08-1-7.94,1.54S51,40.44,52.49,42.15Z" style="fill:#eff2f5"/><path d="M52.53,42.12c1.52,1.69,5,1,7.88-1.53s3.91-6,2.39-7.66-5-1-7.88,1.52S51,40.42,52.53,42.12Z" style="fill:#eef1f4"/><path d="M52.57,42.08c1.5,1.68,5,1,7.82-1.51s3.88-5.93,2.38-7.61-5-1-7.83,1.51S51.06,40.4,52.57,42.08Z" style="fill:#edf0f4"/><path d="M52.61,42c1.49,1.67,5,1,7.76-1.5s3.85-5.87,2.36-7.54-5-1-7.77,1.5S51.12,40.37,52.61,42Z" style="fill:#ecf0f3"/><path d="M52.65,42c1.48,1.66,4.93,1,7.7-1.49s3.82-5.83,2.34-7.49S57.76,32,55,34.52,51.17,40.35,52.65,42Z" style="fill:#ebeff3"/><path d="M52.69,42c1.47,1.65,4.89,1,7.64-1.47s3.79-5.79,2.32-7.43-4.9-1-7.64,1.47S51.22,40.33,52.69,42Z" style="fill:#eaeef2"/><path d="M52.73,41.94c1.46,1.63,4.85,1,7.58-1.47s3.76-5.74,2.3-7.37-4.86-1-7.58,1.47S51.27,40.31,52.73,41.94Z" style="fill:#e9edf1"/><path d="M52.77,41.9c1.44,1.62,4.81,1,7.52-1.45s3.72-5.7,2.28-7.31-4.82-1-7.52,1.45S51.32,40.29,52.77,41.9Z" style="fill:#e8ecf1"/><path d="M52.81,41.87c1.43,1.6,4.77,1,7.46-1.44s3.69-5.65,2.26-7.26-4.78-1-7.46,1.45S51.37,40.26,52.81,41.87Z" style="fill:#e7ecf0"/><path d="M52.85,41.83c1.42,1.59,4.73,1,7.39-1.43s3.67-5.6,2.25-7.19-4.74-1-7.4,1.43S51.42,40.24,52.85,41.83Z" style="fill:#e6ebef"/><path d="M52.88,41.8c1.42,1.58,4.7.94,7.34-1.42s3.64-5.56,2.23-7.14-4.7-.94-7.34,1.42S51.47,40.22,52.88,41.8Z" style="fill:#e5eaef"/><path d="M52.92,41.76c1.4,1.57,4.66.94,7.28-1.41s3.61-5.51,2.21-7.07-4.66-.94-7.28,1.41S51.52,40.2,52.92,41.76Z" style="fill:#e4e9ee"/><path d="M53,41.73c1.39,1.55,4.62.93,7.22-1.4s3.58-5.46,2.19-7-4.62-.92-7.22,1.4S51.58,40.17,53,41.73Z" style="fill:#e3e8ee"/><path d="M53,41.69c1.38,1.54,4.58.92,7.16-1.38s3.55-5.42,2.17-7-4.58-.92-7.16,1.38S51.63,40.15,53,41.69Z" style="fill:#e2e7ed"/><path d="M53,41.66c1.37,1.52,4.55.91,7.1-1.38s3.52-5.37,2.15-6.9-4.54-.91-7.09,1.38S51.68,40.13,53,41.66Z" style="fill:#e1e7ec"/><path d="M53.08,41.62c1.36,1.51,4.51.91,7-1.36s3.49-5.33,2.13-6.84-4.5-.91-7,1.36S51.73,40.11,53.08,41.62Z" style="fill:#e0e6ec"/><path d="M53.12,41.59c1.34,1.5,4.47.89,7-1.35s3.46-5.29,2.11-6.79-4.46-.89-7,1.35S51.78,40.09,53.12,41.59Z" style="fill:#dfe5eb"/><path d="M53.16,41.55c1.33,1.49,4.43.89,6.92-1.34S63.5,35,62.17,33.49s-4.42-.89-6.91,1.34S51.83,40.06,53.16,41.55Z" style="fill:#dee4ea"/><path d="M53.2,41.52c1.32,1.47,4.39.88,6.86-1.33s3.39-5.19,2.07-6.66-4.38-.89-6.85,1.32S51.88,40,53.2,41.52Z" style="fill:#dde3ea"/><path d="M53.24,41.48c1.31,1.46,4.35.87,6.79-1.31S63.4,35,62.09,33.56s-4.34-.87-6.79,1.31S51.93,40,53.24,41.48Z" style="fill:#dce3e9"/><path d="M53.28,41.45c1.29,1.44,4.31.86,6.73-1.31s3.34-5.1,2.05-6.54-4.32-.87-6.74,1.3S52,40,53.28,41.45Z" style="fill:#dbe2e9"/><path d="M53.32,41.41c1.28,1.44,4.27.86,6.67-1.29s3.31-5,2-6.49-4.28-.86-6.68,1.29S52,40,53.32,41.41Z" style="fill:#dae1e8"/><path d="M53.36,41.37c1.27,1.43,4.23.85,6.61-1.27s3.28-5,2-6.43-4.24-.85-6.62,1.28S52.09,40,53.36,41.37Z" style="fill:#d9e0e7"/><path d="M53.4,41.34c1.26,1.41,4.19.84,6.55-1.27s3.25-5,2-6.37-4.2-.84-6.56,1.27S52.14,39.93,53.4,41.34Z" style="fill:#d8dfe7"/><path d="M53.44,41.3c1.25,1.4,4.15.84,6.49-1.25s3.22-4.92,2-6.31S57.74,32.9,55.41,35,52.19,39.91,53.44,41.3Z" style="fill:#d7dfe6"/><path d="M53.48,41.27c1.23,1.38,4.11.83,6.43-1.24s3.19-4.87,2-6.26S57.74,33,55.43,35,52.24,39.89,53.48,41.27Z" style="fill:#d6dee5"/><path d="M53.52,41.23c1.22,1.37,4.07.82,6.37-1.23s3.15-4.82,1.93-6.19S57.74,33,55.45,35,52.29,39.86,53.52,41.23Z" style="fill:#d5dde5"/><path d="M53.55,41.2c1.22,1.36,4,.81,6.32-1.22S63,35.2,61.78,33.84s-4-.81-6.31,1.22S52.34,39.84,53.55,41.2Z" style="fill:#d4dce4"/><path d="M53.59,41.16c1.21,1.35,4,.81,6.25-1.21s3.1-4.73,1.9-6.07-4-.81-6.25,1.21S52.39,39.82,53.59,41.16Z" style="fill:#d3dbe4"/><path d="M53.63,41.13c1.19,1.33,4,.79,6.19-1.2s3.07-4.69,1.88-6-4-.79-6.19,1.2S52.44,39.8,53.63,41.13Z" style="fill:#d2dae3"/><path d="M53.67,41.09c1.18,1.32,3.93.79,6.13-1.18s3-4.64,1.86-6-3.92-.79-6.13,1.18S52.49,39.77,53.67,41.09Z" style="fill:#d1dae2"/><path d="M53.71,41.06c1.17,1.3,3.89.78,6.07-1.18s3-4.59,1.84-5.9-3.88-.78-6.07,1.18S52.55,39.75,53.71,41.06Z" style="fill:#d0d9e2"/><path d="M53.75,41c1.16,1.29,3.85.77,6-1.16s3-4.55,1.82-5.84-3.84-.77-6,1.16S52.6,39.73,53.75,41Z" style="fill:#cfd8e1"/><path d="M53.79,41c1.15,1.28,3.81.76,6-1.15s2.95-4.51,1.8-5.79-3.8-.76-5.94,1.15S52.65,39.71,53.79,41Z" style="fill:#ced7e0"/><path d="M53.83,41c1.13,1.27,3.77.76,5.89-1.14s2.92-4.45,1.78-5.72-3.77-.76-5.88,1.14S52.7,39.69,53.83,41Z" style="fill:#cdd6e0"/><path d="M53.87,40.92c1.12,1.25,3.73.75,5.83-1.13s2.88-4.41,1.76-5.67-3.73-.74-5.82,1.13S52.75,39.66,53.87,40.92Z" style="fill:#ccd6df"/><path d="M53.91,40.88c1.11,1.24,3.69.74,5.77-1.11s2.85-4.37,1.74-5.61-3.69-.74-5.76,1.11S52.8,39.64,53.91,40.88Z" style="fill:#cbd5df"/><path d="M54,40.85c1.1,1.22,3.65.73,5.7-1.11s2.83-4.32,1.74-5.54-3.66-.74-5.71,1.1S52.85,39.62,54,40.85Z" style="fill:#cbd4de"/><path d="M54,40.81c1.08,1.21,3.61.73,5.64-1.09s2.8-4.28,1.72-5.49-3.62-.73-5.65,1.09S52.9,39.6,54,40.81Z" style="fill:#cad3dd"/><path d="M54,40.78c1.07,1.2,3.57.71,5.58-1.08s2.77-4.23,1.7-5.43-3.58-.72-5.59,1.08S53,39.57,54,40.78Z" style="fill:#c9d2dd"/><path d="M54.07,40.74c1.06,1.19,3.53.71,5.52-1.07s2.74-4.18,1.68-5.37-3.54-.71-5.53,1.07S53,39.55,54.07,40.74Z" style="fill:#c8d2dc"/><path d="M54.11,40.7c1,1.18,3.49.71,5.46-1.05s2.71-4.14,1.66-5.31-3.5-.71-5.47,1S53.06,39.53,54.11,40.7Z" style="fill:#c7d1dc"/><path d="M54.15,40.67c1,1.16,3.45.69,5.4-1.05s2.68-4.09,1.64-5.25-3.46-.69-5.4,1.05S53.11,39.51,54.15,40.67Z" style="fill:#c6d0db"/><path d="M54.19,40.63c1,1.15,3.42.69,5.34-1s2.65-4,1.62-5.19-3.42-.69-5.34,1S53.16,39.48,54.19,40.63Z" style="fill:#c5cfda"/><path d="M54.22,40.6c1,1.13,3.39.68,5.29-1s2.62-4,1.6-5.14-3.38-.68-5.28,1S53.21,39.46,54.22,40.6Z" style="fill:#c4ceda"/><path d="M54.26,40.56c1,1.13,3.35.67,5.23-1s2.58-3.95,1.58-5.07-3.34-.67-5.22,1S53.26,39.44,54.26,40.56Z" style="fill:#c3ced9"/><path d="M54.3,40.53c1,1.11,3.31.66,5.16-1s2.56-3.91,1.57-5-3.3-.66-5.16,1S53.31,39.42,54.3,40.53Z" style="fill:#c2cdd8"/><path d="M54.34,40.49c1,1.1,3.27.66,5.1-1s2.53-3.87,1.55-5-3.26-.66-5.1,1S53.36,39.4,54.34,40.49Z" style="fill:#c1ccd8"/><path d="M54.38,40.46c1,1.08,3.23.65,5-1s2.5-3.81,1.53-4.9-3.23-.64-5,1S53.41,39.37,54.38,40.46Z" style="fill:#c0cbd7"/><path d="M54.42,40.42c1,1.07,3.19.64,5-1s2.47-3.77,1.51-4.84-3.19-.64-5,1S53.46,39.35,54.42,40.42Z" style="fill:#bfcad7"/><path d="M54.46,40.39c.95,1.06,3.15.63,4.92-1s2.44-3.73,1.49-4.79S57.72,34,56,35.6,53.52,39.33,54.46,40.39Z" style="fill:#bec9d6"/><path d="M54.5,40.35c.94,1,3.11.63,4.86-.94s2.41-3.68,1.47-4.72-3.11-.63-4.85.94S53.57,39.31,54.5,40.35Z" style="fill:#bdc9d5"/><path d="M54.54,40.32c.92,1,3.07.61,4.8-.93s2.38-3.63,1.45-4.67-3.07-.61-4.79.93S53.62,39.28,54.54,40.32Z" style="fill:#bcc8d5"/><path d="M54.58,40.28c.91,1,3,.61,4.74-.91s2.35-3.59,1.43-4.61-3-.61-4.73.92S53.67,39.26,54.58,40.28Z" style="fill:#bbc7d4"/><path d="M54.62,40.25c.9,1,3,.6,4.68-.91s2.31-3.54,1.41-4.55-3-.6-4.67.91S53.72,39.24,54.62,40.25Z" style="fill:#bac6d3"/><path d="M54.66,40.21c.89,1,3,.59,4.62-.89s2.28-3.5,1.4-4.49-3-.59-4.62.89S53.77,39.22,54.66,40.21Z" style="fill:#b9c5d3"/><path d="M54.7,40.18c.87,1,2.91.58,4.55-.89s2.26-3.45,1.39-4.42-2.92-.59-4.56.88S53.82,39.2,54.7,40.18Z" style="fill:#b8c5d2"/><path d="M54.74,40.14c.86,1,2.88.58,4.49-.87s2.23-3.4,1.37-4.37-2.88-.58-4.5.87S53.87,39.17,54.74,40.14Z" style="fill:#b7c4d2"/><path d="M54.78,40.11c.85,1,2.84.57,4.43-.86s2.2-3.36,1.35-4.31-2.84-.57-4.44.85S53.92,39.15,54.78,40.11Z" style="fill:#b6c3d1"/><path d="M54.82,40.07c.84.94,2.8.56,4.37-.85s2.17-3.31,1.33-4.25-2.8-.56-4.38.85S54,39.13,54.82,40.07Z" style="fill:#b5c2d0"/><path d="M54.86,40c.83.93,2.76.56,4.31-.83s2.14-3.27,1.31-4.19-2.76-.56-4.32.83S54,39.11,54.86,40Z" style="fill:#b4c1d0"/><path d="M54.9,40c.81.91,2.72.55,4.25-.82S61.26,36,60.44,35s-2.72-.55-4.25.82S54.08,39.08,54.9,40Z" style="fill:#b3c1cf"/><path d="M54.93,40c.81.91,2.69.54,4.2-.81S61.21,36,60.4,35.08s-2.68-.54-4.19.81S54.13,39.06,54.93,40Z" style="fill:#b2c0ce"/><path d="M55,39.93c.8.89,2.65.53,4.14-.8s2-3.13,1.25-4-2.65-.53-4.13.8S54.18,39,55,39.93Z" style="fill:#b1bfce"/><path d="M55,39.89c.79.88,2.61.53,4.08-.78s2-3.09,1.23-4-2.61-.53-4.07.78S54.23,39,55,39.89Z" style="fill:#b0becd"/><path d="M55.05,39.86c.77.86,2.57.51,4-.78s2-3,1.22-3.9-2.57-.51-4,.78S54.28,39,55.05,39.86Z" style="fill:#afbdcd"/><path d="M55.09,39.82c.76.85,2.53.51,3.95-.76s2-3,1.2-3.84-2.53-.51-4,.76S54.33,39,55.09,39.82Z" style="fill:#aebccc"/><path d="M55.13,39.79c.75.83,2.49.5,3.89-.75S61,36.09,60.2,35.25s-2.49-.5-3.89.76S54.38,39,55.13,39.79Z" style="fill:#adbccb"/><path d="M55.17,39.75c.74.83,2.45.5,3.83-.74s1.9-2.9,1.16-3.72-2.45-.49-3.83.74S54.43,38.93,55.17,39.75Z" style="fill:#acbbcb"/><path d="M55.21,39.72c.73.81,2.41.48,3.77-.73s1.87-2.86,1.14-3.67-2.41-.48-3.77.73S54.49,38.91,55.21,39.72Z" style="fill:#abbaca"/><path d="M55.25,39.68c.71.8,2.37.48,3.71-.72s1.84-2.8,1.12-3.6-2.37-.48-3.7.72S54.54,38.88,55.25,39.68Z" style="fill:#aab9c9"/><path d="M55.29,39.65c.7.78,2.34.47,3.65-.71s1.81-2.76,1.1-3.55-2.33-.46-3.64.71S54.59,38.86,55.29,39.65Z" style="fill:#a9b8c9"/><path d="M55.33,39.61c.69.77,2.3.46,3.59-.69S60.7,36.2,60,35.43s-2.3-.46-3.59.69S54.64,38.84,55.33,39.61Z" style="fill:#a8b8c8"/><path d="M55.37,39.58c.68.75,2.26.45,3.53-.69s1.74-2.67,1.07-3.43-2.26-.45-3.53.69S54.69,38.82,55.37,39.58Z" style="fill:#a7b7c8"/><path d="M55.41,39.54c.66.75,2.22.45,3.46-.67s1.72-2.62,1.06-3.37-2.22-.45-3.47.67S54.74,38.8,55.41,39.54Z" style="fill:#a6b6c7"/><path d="M55.45,39.51c.65.73,2.18.43,3.4-.66s1.69-2.58,1-3.31-2.18-.44-3.41.65S54.79,38.77,55.45,39.51Z" style="fill:#a5b5c6"/><path d="M55.49,39.47c.64.72,2.14.43,3.34-.65s1.66-2.53,1-3.25-2.14-.43-3.35.65S54.84,38.75,55.49,39.47Z" style="fill:#a4b4c6"/><path d="M55.53,39.44c.63.7,2.1.42,3.28-.64s1.63-2.49,1-3.19-2.11-.43-3.29.63S54.89,38.73,55.53,39.44Z" style="fill:#a3b4c5"/><path d="M55.57,39.4c.62.69,2.06.41,3.22-.62s1.6-2.45,1-3.14-2.07-.41-3.23.62S55,38.71,55.57,39.4Z" style="fill:#a2b3c4"/><path d="M55.6,39.37c.61.68,2,.4,3.17-.62s1.57-2.39,1-3.07-2-.41-3.16.61S55,38.68,55.6,39.37Z" style="fill:#a1b2c4"/><path d="M55.64,39.33c.6.67,2,.4,3.11-.6s1.54-2.35.94-3-2-.4-3.1.6S55.05,38.66,55.64,39.33Z" style="fill:#a0b1c3"/><path d="M55.68,39.29c.59.66,2,.4,3-.58s1.51-2.31.92-3-1.95-.39-3,.59S55.1,38.64,55.68,39.29Z" style="fill:#9fb0c3"/><path d="M55.72,39.26c.58.64,1.91.38,3-.58s1.47-2.26.9-2.9-1.91-.38-3,.58S55.15,38.62,55.72,39.26Z" style="fill:#9eafc2"/><path d="M55.76,39.22c.56.63,1.87.38,2.93-.56s1.44-2.21.88-2.84-1.87-.38-2.92.56S55.2,38.6,55.76,39.22Z" style="fill:#9dafc1"/><path d="M55.8,39.19c.55.61,1.83.37,2.86-.56s1.42-2.16.87-2.78-1.83-.37-2.86.56S55.25,38.57,55.8,39.19Z" style="fill:#9caec1"/><path d="M55.84,39.15c.54.61,1.79.36,2.8-.54s1.39-2.12.85-2.72-1.79-.36-2.8.54S55.3,38.55,55.84,39.15Z" style="fill:#9badc0"/><path d="M55.88,39.12c.53.59,1.76.35,2.74-.53s1.36-2.08.83-2.67-1.75-.35-2.74.53S55.35,38.53,55.88,39.12Z" style="fill:#9aacbf"/><path d="M55.92,39.08c.52.58,1.72.35,2.68-.52s1.33-2,.81-2.6-1.71-.35-2.68.52S55.4,38.51,55.92,39.08Z" style="fill:#99abbf"/><path d="M56,39.05c.5.56,1.68.33,2.62-.51s1.3-2,.79-2.55-1.67-.33-2.61.51S55.46,38.48,56,39.05Z" style="fill:#98abbe"/><path d="M56,39c.49.55,1.64.33,2.56-.49s1.27-1.94.77-2.49-1.63-.33-2.55.49S55.51,38.46,56,39Z" style="fill:#97aabe"/><path d="M56,39c.48.53,1.6.32,2.5-.49s1.24-1.89.76-2.43-1.6-.32-2.5.49S55.56,38.44,56,39Z" style="fill:#96a9bd"/></g><g style="isolation:isolate"><polygon points="53.58 31.48 54.65 32.9 54.41 32.08 53.34 30.67 53.58 31.48" style="fill:#8c9497"/><polygon points="49.52 33.85 50.59 35.27 51.42 35.62 50.35 34.21 49.52 33.85" style="fill:#acb6b9"/><polygon points="55.88 31.65 56.94 33.07 57.53 32.1 56.46 30.69 55.88 31.65" style="fill:#99a1a4"/><polygon points="49.19 36.78 50.25 38.2 51.38 37.78 50.31 36.37 49.19 36.78" style="fill:#b5bfc3"/><g style="isolation:isolate"><g style="clip-path:url(#q)"><g style="isolation:isolate"><path d="M52.2,35.25l1.06,1.41a1.1,1.1,0,0,1,.13-1.25l0,0L52.35,34l0,0a1.07,1.07,0,0,0-.12,1.25" style="fill:#92999b"/><path d="M52.35,34l1.07,1.42a1.24,1.24,0,0,1,.18-.22l-1.07-1.41a2,2,0,0,0-.18.21" style="fill:#959ea0"/><path d="M52.53,33.75l1.07,1.41.18-.17-1.07-1.41-.18.17" style="fill:#9aa2a5"/><path d="M52.71,33.58,53.78,35l.2-.14-1.07-1.42-.2.15" style="fill:#9ea7aa"/><path d="M52.91,33.43,54,34.85l.24-.14L53.15,33.3l-.24.13" style="fill:#a3acaf"/><path d="M53.15,33.3l1.07,1.41.07,0,.3-.11-1.07-1.41a1.82,1.82,0,0,0-.3.11l-.07,0" style="fill:#a7b1b4"/><path d="M53.52,33.16l1.07,1.41a1.52,1.52,0,0,1,.47,0L54,33.11a1.54,1.54,0,0,0-.47,0" style="fill:#acb5b9"/><path d="M54,33.11l1.07,1.42.23,0,.08,0L54.3,33.19l-.08,0-.23,0" style="fill:#a7b1b4"/><path d="M54.3,33.19l1.07,1.41a1,1,0,0,1,.17.1l-1.07-1.42a.46.46,0,0,0-.17-.09" style="fill:#a3acaf"/><path d="M54.47,33.28l1.07,1.42a.63.63,0,0,1,.12.11L54.59,33.4a.68.68,0,0,0-.12-.12" style="fill:#9ea7aa"/><path d="M54.59,33.4l1.07,1.41,0,0-1.07-1.42a0,0,0,0,0,0,0" style="fill:#9aa2a5"/></g></g></g><g style="isolation:isolate"><g style="clip-path:url(#r)"><g style="isolation:isolate"><path d="M56.5,32.3l1.07,1.42a1.48,1.48,0,0,0-.13-.21L56.37,32.1a1.37,1.37,0,0,1,.13.2" style="fill:#92999b"/></g></g></g><g style="isolation:isolate"><g style="clip-path:url(#s)"><g style="isolation:isolate"><path d="M50.44,36.57,51.51,38l.05.06-1.07-1.42-.05-.06" style="fill:#9aa2a5"/><path d="M50.49,36.63l1.07,1.42a1.54,1.54,0,0,0,.29.28l-1.06-1.42a1.15,1.15,0,0,1-.3-.28" style="fill:#9ea7aa"/><path d="M50.79,36.91l1.06,1.42.15.1L50.93,37a.71.71,0,0,1-.14-.1" style="fill:#a3acaf"/></g></g></g><polygon points="57.79 32.85 58.86 34.26 58.69 33.3 57.62 31.88 57.79 32.85" style="fill:#8c9497"/><polygon points="56.73 33.4 57.79 34.81 58.86 34.26 57.79 32.85 56.73 33.4" style="fill:#b2bcbf"/><polygon points="50.35 37.98 51.42 39.39 52.39 39.7 51.32 38.28 50.35 37.98" style="fill:#b0b9bd"/><polygon points="51.32 38.28 52.39 39.7 53.14 38.75 52.07 37.33 51.32 38.28" style="fill:#9fa7aa"/><g style="isolation:isolate"><g style="clip-path:url(#t)"><g style="isolation:isolate"><path d="M56.45,34.46l1.07,1.41a3.07,3.07,0,0,0,.27-1.06L56.73,33.4a3,3,0,0,1-.28,1.06" style="fill:#92999b"/></g></g></g><g style="isolation:isolate"><g style="clip-path:url(#u)"><g style="isolation:isolate"><path d="M52.07,37.33l1.07,1.42a3.74,3.74,0,0,0,1-.12l-1.06-1.41a3.48,3.48,0,0,1-1,.11" style="fill:#acb5b9"/><path d="M53.12,37.22l1.06,1.41.12,0-1.07-1.42-.11,0" style="fill:#a7b1b4"/></g></g></g><g style="isolation:isolate"><g style="clip-path:url(#v)"><g style="isolation:isolate"><path d="M54.62,36.54,55.69,38q.24-.16.48-.36L55.1,36.19a5.34,5.34,0,0,1-.48.35" style="fill:#9ea7aa"/><path d="M55.1,36.19l1.07,1.41a4.2,4.2,0,0,0,.44-.41l-1.06-1.41c-.15.14-.29.28-.45.41" style="fill:#9aa2a5"/><path d="M55.55,35.78l1.06,1.41.09-.09-1.07-1.41-.08.09" style="fill:#959ea0"/></g></g></g><polygon points="55.63 35.69 56.7 37.1 57.62 37.29 56.55 35.88 55.63 35.69" style="fill:#b3bcc0"/><polygon points="56.55 35.88 57.62 37.29 58.36 36.23 57.29 34.82 56.55 35.88" style="fill:#9ca4a7"/><path d="M49.19,36.78l1.12-.41a1.65,1.65,0,0,0,.62.64l-.58,1,1,.3.75-1a3.34,3.34,0,0,0,1.16-.15l.24.82,1.21-.53-.06-.93a5.49,5.49,0,0,0,1-.85l.92.19.74-1.06-.84-.36a3,3,0,0,0,.28-1.06l1.06-.55-.17-1-1.12.42a1.75,1.75,0,0,0-.62-.65l.58-1-1-.3-.75.95a3.58,3.58,0,0,0-1.16.14l-.24-.81-1.21.53.06.92a5.54,5.54,0,0,0-1,.86l-.92-.19-.74,1.06.83.36a3.13,3.13,0,0,0-.27,1.06L49,35.82Zm3.4-1.27c-.6-.19-.72-.86-.27-1.51a2.18,2.18,0,0,1,.9-.73,1.42,1.42,0,0,1,1-.11c.6.18.72.86.26,1.51a2.17,2.17,0,0,1-.89.73,1.49,1.49,0,0,1-1,.11" style="fill:#edf9fe"/><polygon points="54.68 37.47 55.75 38.88 55.69 37.96 54.62 36.54 54.68 37.47" style="fill:#8c9497"/><polygon points="53.47 38 54.54 39.42 55.75 38.88 54.68 37.47 53.47 38" style="fill:#b4bec1"/></g><g style="isolation:isolate"><polygon points="44.51 27.84 45.86 29.57 46.27 29.8 44.92 28.06 44.51 27.84" style="fill:#939c9e"/><polygon points="53.89 21.94 55.24 23.68 55.41 22.96 54.06 21.22 53.89 21.94" style="fill:#979fa2"/><polygon points="42.6 31.08 43.95 32.82 44.74 32.65 43.39 30.91 42.6 31.08" style="fill:#b2bcbf"/><polygon points="56.27 22.08 57.62 23.82 58.38 22.82 57.03 21.08 56.27 22.08" style="fill:#b1bbbe"/><g style="isolation:isolate"><g style="clip-path:url(#w)"><g style="isolation:isolate"><path d="M47.63,29.46,49,31.2a.77.77,0,0,1-.06-.73l-1.35-1.75a.79.79,0,0,0,.06.74" style="fill:#92999b"/><path d="M47.57,28.72l1.35,1.75a1.88,1.88,0,0,1,.12-.3l-1.35-1.74a2.24,2.24,0,0,0-.12.29" style="fill:#959ea0"/><path d="M47.69,28.43,49,30.17h0l.14-.25-1.35-1.74a1.57,1.57,0,0,0-.14.25h0" style="fill:#9aa2a5"/><path d="M47.83,28.17l1.35,1.74a2.13,2.13,0,0,1,.16-.25L48,27.92a2.13,2.13,0,0,0-.16.25" style="fill:#9ea7aa"/><path d="M48,27.92l1.35,1.74.18-.25-1.35-1.74a2.27,2.27,0,0,0-.18.25" style="fill:#a3acaf"/><path d="M48.17,27.67l1.35,1.74.22-.26-1.35-1.74-.22.26" style="fill:#a7b1b4"/><path d="M48.39,27.41l1.35,1.74.27-.29-1.35-1.74-.27.29" style="fill:#acb5b9"/><path d="M48.66,27.12,50,28.86l.38-.35L49,26.77l-.38.35" style="fill:#b0babd"/><path d="M49,26.77l1.35,1.74A7.9,7.9,0,0,1,52,27.46L50.6,25.72A7.9,7.9,0,0,0,49,26.77" style="fill:#b5bfc2"/><path d="M50.6,25.72,52,27.46l.42-.19L51,25.53l-.42.19" style="fill:#b0babd"/><path d="M51,25.53l1.35,1.74.09,0,.23-.08-1.35-1.74-.24.08-.08,0" style="fill:#acb5b9"/><path d="M51.34,25.42l1.35,1.74.27-.07-1.35-1.74-.27.07" style="fill:#a7b1b4"/><path d="M51.61,25.35,53,27.09l.24,0-1.35-1.74-.24,0" style="fill:#a3acaf"/><path d="M51.85,25.31l1.35,1.74h.23L52.08,25.3h-.23" style="fill:#9ea7aa"/><path d="M52.08,25.3,53.43,27l.21,0-1.35-1.74-.21,0" style="fill:#9aa2a5"/><path d="M52.29,25.32l1.35,1.74a1,1,0,0,1,.21.08L52.5,25.4a1,1,0,0,0-.21-.08" style="fill:#959ea0"/><path d="M52.5,25.4l1.35,1.74a.54.54,0,0,1,.18.15l-1.35-1.74a.65.65,0,0,0-.18-.15" style="fill:#92999b"/></g></g></g><polygon points="42.77 33.37 44.12 35.11 45.17 34.52 43.82 32.78 42.77 33.37" style="fill:#c1cbcf"/><g style="isolation:isolate"><g style="clip-path:url(#x)"><g style="isolation:isolate"><path d="M43.82,32.78l1.35,1.74a1.27,1.27,0,0,0,.27.18L44.09,33a1.27,1.27,0,0,1-.27-.18" style="fill:#92999b"/><path d="M44.09,33l1.35,1.74.19.09-1.35-1.74L44.09,33" style="fill:#959ea0"/></g></g></g><polygon points="58.21 22.65 59.56 24.39 59.23 23.36 57.88 21.62 58.21 22.65" style="fill:#8c9497"/><polygon points="56.99 23.66 58.34 25.4 59.56 24.39 58.21 22.65 56.99 23.66" style="fill:#c0cace"/><g style="isolation:isolate"><g style="clip-path:url(#y)"><g style="isolation:isolate"><path d="M56.9,24.15l1.35,1.74a3.2,3.2,0,0,0,.09-.49L57,23.66a3.2,3.2,0,0,1-.09.49" style="fill:#92999b"/></g></g></g><polygon points="44.96 34.08 46.31 35.82 47.36 34.89 46.01 33.15 44.96 34.08" style="fill:#bec8cc"/><polygon points="43.62 33.91 44.97 35.66 46.31 35.82 44.96 34.08 43.62 33.91" style="fill:#a0a9ac"/><g style="isolation:isolate"><g style="clip-path:url(#z)"><g style="isolation:isolate"><path d="M46,33.15l1.35,1.74.34-.06-1.35-1.75-.34.07" style="fill:#a3acaf"/><path d="M46.35,33.08l1.35,1.75.43-.11L46.78,33a3.77,3.77,0,0,1-.43.1" style="fill:#a7b1b4"/></g></g></g><g style="isolation:isolate"><g style="clip-path:url(#aa)"><g style="isolation:isolate"><path d="M55.51,26.8l1.35,1.74.26-.36-1.35-1.74-.26.36" style="fill:#a3acaf"/><path d="M55.77,26.44l1.35,1.74.16-.23-1.35-1.74-.16.23" style="fill:#9ea7aa"/></g></g></g><polygon points="57.27 25.53 58.63 27.27 59.39 25.65 58.04 23.91 57.27 25.53" style="fill:#a2abae"/><polygon points="55.93 26.21 57.28 27.95 58.63 27.27 57.27 25.53 55.93 26.21" style="fill:#c0cace"/><g style="isolation:isolate"><g style="clip-path:url(#ab)"><g style="isolation:isolate"><path d="M49.3,32l1.35,1.74c.27-.14.54-.29.8-.45L50.1,31.52c-.26.16-.53.31-.8.45" style="fill:#b5bfc2"/></g></g></g><g style="isolation:isolate"><g style="clip-path:url(#ac)"><g style="isolation:isolate"><path d="M52.76,29.64l1.35,1.74.31-.26-1.36-1.74-.3.26" style="fill:#b5bfc2"/><path d="M53.06,29.38l1.36,1.74.35-.32-1.35-1.74-.36.32" style="fill:#b0babd"/></g></g></g><polygon points="48.59 33.03 49.94 34.77 50.65 33.71 49.3 31.97 48.59 33.03" style="fill:#adb6b9"/><polygon points="46.59 33.77 47.94 35.51 49.94 34.77 48.59 33.03 46.59 33.77" style="fill:#bbc5c8"/><polygon points="50.1 31.52 51.45 33.26 51.92 33.69 50.57 31.95 50.1 31.52" style="fill:#8f979a"/><polygon points="54.48 28.93 55.83 30.67 57.49 28.9 56.14 27.16 54.48 28.93" style="fill:#b9c3c6"/><polygon points="53.42 29.06 54.77 30.8 55.83 30.67 54.48 28.93 53.42 29.06" style="fill:#adb7ba"/><polygon points="50.57 31.95 51.92 33.69 54.03 32.24 52.68 30.5 50.57 31.95" style="fill:#c2ccd0"/><polygon points="52.68 30.5 54.03 32.24 54.11 31.38 52.76 29.64 52.68 30.5" style="fill:#929a9d"/><path d="M42.6,31.08l.79-.17a3.76,3.76,0,0,0-.08.71l-.87.72.33,1,1-.59a1.6,1.6,0,0,0,.46.27l-.66.86,1.34.17,1-.93c.24,0,.5-.1.77-.17l-.19.79,2-.74L49.3,32c.27-.14.54-.29.8-.45l.47.43,2.11-1.45.08-.86.66-.58,1.06-.13,1.66-1.77-.63-.36c.15-.2.29-.39.42-.59l1.34-.68L58,23.91l-1.14.24a3.2,3.2,0,0,0,.09-.49l1.22-1-.33-1-1.27.72a1.46,1.46,0,0,0-.34-.26l.76-1-1.34-.17-1,.91a5.8,5.8,0,0,0-.77.12l.17-.72-2,.74-.56.84c-.36.17-.72.36-1.07.56L50.08,23,48,24.5l0,.57c-.37.29-.72.59-1.06.9l-.69.09-1.66,1.77.41.23a9.29,9.29,0,0,0-.67,1l-.88.44Zm6.6-1.57c-1.36.5-2,0-1.51-1.09A6.88,6.88,0,0,1,51.1,25.5c1.37-.5,2,0,1.52,1.09a6.86,6.86,0,0,1-3.42,2.92" style="fill:#e6f2f6"/></g><polygon points="20.15 46.02 15.01 46.02 15.01 49.68 15.9 49.68 15.9 50.65 16.87 49.68 20.15 49.68 20.15 46.02" style="fill:#194866"/><rect x="26.71" y="36.46" width="5.62" height="3.99" style="fill:#2c7eea"/><rect x="27.61" y="38.98" width="3.83" height="0.24" style="fill:#6ea4ea"/><rect x="27.61" y="38.33" width="3.83" height="0.24" style="fill:#6ea4ea"/><rect x="27.61" y="37.68" width="3.83" height="0.24" style="fill:#6ea4ea"/><polygon points="31.35 35.4 31.35 37.19 29.56 37.19 31.35 35.4" style="fill:#2c7eea"/><path d="M75.5,42.14A10.74,10.74,0,1,0,86.23,52.88,10.75,10.75,0,0,0,75.5,42.14Z" style="fill:#2c7eea"/><path d="M76,42.16a10.73,10.73,0,0,1-4.63,20.41h-.48A10.73,10.73,0,1,0,76,42.16Z" style="fill:#2468c2"/><path d="M85.76,55.8c-.14,0-.32.07-.32.11s-.2.14-.27.17a.7.7,0,0,0-.21.29c0,.06-.19,0-.25.07s-.18.12-.18.18,0,.05-.07,0l-.08.08-.09.1a.8.8,0,0,1-.29.39c-.06,0-.07.31-.07.42a.55.55,0,0,0,.1.32V58l0,.18a.34.34,0,0,0,.1.3,1.55,1.55,0,0,0,.4-.08l.15-.05a11.07,11.07,0,0,0,1.1-2.57Z" style="fill:#73b34f"/><path d="M68,56.07s.18.23.25.29a2,2,0,0,1,.27.5.84.84,0,0,1,0,.32.53.53,0,0,0,0,.17,4.14,4.14,0,0,0,0,.48c0,.12-.14.52-.14.72s.09.45.13.43,0,.18,0,.2-.13.18-.1.19,0,.16,0,.23.06.47.07.57a2.8,2.8,0,0,0,.19.43c0,.09.06.25.07.27a.14.14,0,0,0,0,.05L69,61a.79.79,0,0,0,.34,0c.08,0,0-.08,0-.12s-.06-.21-.1-.23,0-.25,0-.3.17-.14.19-.18,0-.24,0-.27,0-.27,0-.39.21-.24.23-.33.27-.2.33-.25a.57.57,0,0,0,.08-.38c0-.06.09-.11.15-.11a.84.84,0,0,0,.14,0s.08-.12.12-.15.11-.32.17-.37a.44.44,0,0,0,.12-.27.85.85,0,0,1,.13-.25,1.26,1.26,0,0,1,.32-.18,2.09,2.09,0,0,0,.12-.54c0-.14.09-.33.09-.37s.09-.09.1-.1a2.29,2.29,0,0,1,.11-.23.92.92,0,0,0,.17-.25l0-.22v-.24c0-.12-.17-.26-.21-.23s-.18-.1-.25-.13a1.47,1.47,0,0,0-.32-.06s-.21-.13-.29-.15-.26-.06-.3-.09-.08-.3-.23-.39a1.84,1.84,0,0,1-.45-.39c0-.08-.32-.24-.41-.29a.38.38,0,0,0-.25,0s-.13-.15-.19-.2-.23-.09-.24,0-.12,0-.15,0-.12,0-.16,0-.19.24-.26.29-.14-.05-.19-.07a.45.45,0,0,0-.26.07s-.15-.24-.12-.36-.11-.37-.22-.38-.14-.26-.12-.36-.18-.15-.24-.16-.18.13-.2.19-.5-.09-.44-.37a1.24,1.24,0,0,1,.33-.61.79.79,0,0,1,.43,0,.11.11,0,0,0,.14,0,1.21,1.21,0,0,1,.34,0c.07,0,.18.32.25.35s.11-.19.12-.24a.46.46,0,0,0,0-.23.72.72,0,0,1,.24-.44.6.6,0,0,0,.23-.29s.09-.06.12-.08,0-.29,0-.36a1.46,1.46,0,0,1,.33-.22c.07,0,.12-.2.1-.23s.18-.21.28-.24.2.06.18.07a1.51,1.51,0,0,0,.22-.13c.08,0,0-.17,0-.21s0-.2,0-.21.1-.15.09-.17.23,0,.32-.05,0,.17,0,.26a.11.11,0,0,0,.1.17s.09.05.1.08.1,0,.16,0,.1-.09.11-.14-.15-.16-.17-.22a2.74,2.74,0,0,1,0-.5c0-.08-.11-.2-.14-.18s-.1-.19-.15-.24a.28.28,0,0,1-.06-.18s-.18-.22-.22-.31-.1-.07-.1,0-.13.05-.18,0-.1-.2-.1-.27-.23-.09-.26-.15-.19,0-.22-.07a.26.26,0,0,0-.18-.07s0,.55,0,.7-.14.27-.19.26,0,.11,0,.1-.08.15-.1.26-.13,0-.14-.1-.13-.23-.15-.2-.1,0-.13,0-.24-.12-.32-.17-.13-.29-.18-.32,0-.05,0-.09.16-.18.2-.24a3.17,3.17,0,0,1,.3-.34.33.33,0,0,0,.12-.21,2,2,0,0,1,.38-.15c.09,0,.16-.26.17-.33a.3.3,0,0,0-.09-.22s.12,0,.17,0,.21,0,.28,0l.28.17,0,.18,0,.29c-.24.1-.31.28-.23.28a1.88,1.88,0,0,1,.6.25c.11.08.14-.12.17-.18a.41.41,0,0,0,0-.29s.13,0,.17,0,.1,0,.13,0,0-.18.07-.21-.07-.07-.08-.11-.18-.12-.23-.15-.08-.15,0-.17,0-.17,0-.22-.22-.1-.28-.1-.13-.14-.16-.16a.89.89,0,0,0-.33,0c-.06,0-.17-.17-.27-.11s-.2-.07-.24-.1-.28.23-.28.4a.49.49,0,0,0,.13.36s0,.16,0,.2-.14,0-.1-.08-.1-.23-.15-.3-.16-.1-.24-.14l-.14.16a.39.39,0,0,1,0,.21c0,.11-.12.12-.13.08s0,0-.1,0a10.59,10.59,0,0,0-2.41,5.61.56.56,0,0,1,.12.18c0,.09.2.15.23.17s0-.18,0-.23,0-.08,0,0a1.45,1.45,0,0,0,.21.28c0,.06.1.47.15.56a1.86,1.86,0,0,0,.68.3.87.87,0,0,1,.37.25s.23.08.27.1.15.16.19.18a.21.21,0,0,1,.08.14s.27.12.33.19a.15.15,0,0,0,.2,0s.07.14.1.2a.46.46,0,0,1,0,.23,2.68,2.68,0,0,1-.11.35,1.72,1.72,0,0,0-.12.52.75.75,0,0,0,.2.26.06.06,0,0,1,0,.11s0,.38.08.43S68.06,56,68,56.07Z" style="fill:#73b34f"/><path d="M69.3,49.53h0Z" style="fill:#73b34f"/><path d="M68.57,45c.13,0,.34-.06.36-.1a.26.26,0,0,0,0-.15H69s.13-.27.18-.33.34-.16.41-.2.23-.19.29-.21.14-.15.13-.18.2-.16.28-.19.12-.13.09-.13-.47.23-.88.46a11.34,11.34,0,0,0-1.32,1.06Z" style="fill:#73b34f"/><path d="M76.33,58.37a4.82,4.82,0,0,0,.45-.5,1.29,1.29,0,0,0,.15-.39.42.42,0,0,1,.18-.17s.18-.59.3-.71a2.1,2.1,0,0,0,.25-1,3.23,3.23,0,0,1,.11-.74,1,1,0,0,1,.23-.32,7,7,0,0,0,.44-.63,1.41,1.41,0,0,0,.16-.58c0-.08-.22-.14-.26-.1a.7.7,0,0,1-.29.08c-.07,0-.21-.34-.29-.4s-.17-.45-.22-.52-.2-.26-.24-.3,0-.24-.06-.3.09,0,.1.12a3.45,3.45,0,0,0,.32.51c.07.11.25.46.3.57s.46,0,.59,0a.92.92,0,0,0,.31-.21s.22-.14.28-.18.11-.3.15-.34,0-.28-.08-.35a.39.39,0,0,0-.3-.1s-.13-.15-.17-.22-.19-.16-.21-.2,0-.12.07-.14a1.37,1.37,0,0,1,.41.3,3,3,0,0,1,.21.33s.25.06.3,0,.12,0,.14,0l.07,0,.27,0a.56.56,0,0,1,.15.28.27.27,0,0,0,.13.15s.08.18.1.22a3.16,3.16,0,0,1,.2.41,2.13,2.13,0,0,0,.18.37.94.94,0,0,1,.06.27.2.2,0,0,0,.15.13c.06,0,.18-.38.21-.52a.46.46,0,0,1,.15-.26s0-.07,0-.11.15,0,.17-.06.06-.29.11-.32a1.61,1.61,0,0,1,.31-.19c.07,0,.24.13.28.19a.67.67,0,0,1,.06.28s.09.18.18.18.12.11.12.16.13.16.15.22a.36.36,0,0,1,0,.23,1,1,0,0,0,0,.29,2.47,2.47,0,0,0,.4.43c.1.08.15-.18.1-.26s-.24-.27-.28-.33a.84.84,0,0,1,0-.35c0-.06.17,0,.23.08a.49.49,0,0,1,.14.18s.38-.17.39-.4a2.32,2.32,0,0,1,.15-.55.17.17,0,0,0-.07-.15s.06-.17.16-.17.36-.28.42-.39a.91.91,0,0,1,.2-.22,2,2,0,0,0,.11-.39,1,1,0,0,0-.07-.34,1.24,1.24,0,0,0-.12-.23.44.44,0,0,1,0-.22s.11-.06.12-.09.12-.14.11-.19.07.06.12.11.1.31.16.34.31-.29.28-.49a.66.66,0,0,1,.14-.5,1.52,1.52,0,0,0,.24-.3A10.72,10.72,0,0,0,83,45.21h0l-.1,0c-.15,0-.24-.2-.21-.24v-.07l-.27-.23h-.19a.92.92,0,0,1-.33-.1s-.16,0-.16.1-.22.09-.24.14-.13.06-.15,0-.22.07-.31.08a2.53,2.53,0,0,0-.33.11.61.61,0,0,0-.16.16s-.14.12-.18.13,0,.2,0,.22-.09,0-.16-.05-.14.08-.16.11-.08,0-.07-.07-.17-.1-.19-.06-.13,0-.18,0-.25.18-.32.26a.94.94,0,0,1-.5.1c-.07,0-.14.16-.08.17s-.14,0-.25,0a1.71,1.71,0,0,0-.52.2.08.08,0,0,1-.14,0c0-.05-.12-.09-.16-.1s-.1.24-.17.29-.14-.2-.29-.24-.39-.19-.46-.2a.9.9,0,0,1-.23-.2.61.61,0,0,0-.3-.08,1,1,0,0,0-.31.16.34.34,0,0,1-.16.05l-.34.31a2.86,2.86,0,0,0-.3.44.25.25,0,0,1-.15.09s0,.08,0,.11-.26.16-.29.28a3.53,3.53,0,0,0,0,.48c0,.1.09.29.17.29s0,.16,0,.21,0,.09,0,.13-.18.09-.23.11a.39.39,0,0,0-.16.2s-.18.07-.24.12a.43.43,0,0,1,0-.12.21.21,0,0,0,0-.2s0-.33-.09-.4a.92.92,0,0,0-.18-.2s0-.11,0-.14-.15-.06-.19,0-.07.33-.09.42a.28.28,0,0,0,.11.22s0,.16,0,.16-.11.23-.08.28,0,.15-.07.17.22,0,.33,0,.2.05.19.06-.22,0-.25.09-.18.14-.21.18,0,.12.11.11.13.21.17.25,0,.15,0,.18-.3,0-.41,0a.57.57,0,0,0-.25.34,1.61,1.61,0,0,0,0,.39c0,.07.23.11.28.15s.25,0,.3,0,.19-.22.21-.33.26-.31.31-.39.29-.06.35-.1,0,.19,0,.31.27.11.23,0,0-.17,0-.12.24.13.28.2,0,.2,0,.2,0,.15,0,.17.13-.18.18-.21.11-.14.08-.15,0-.12.08-.08a1.29,1.29,0,0,0-.22-.33c-.09-.09,0,0,.15.1l.13.17s0,.13.07.16l0,.05a1,1,0,0,1,0,.27.18.18,0,0,0,.16.13c.05,0,.1,0,.09,0s0,.12.09.12.09-.14,0-.15,0-.22-.06-.31,0-.18.06-.18,0,.2,0,.24a.56.56,0,0,0,.06.2l.06.05.13.1c.2-.06.46,0,.45,0s.14.05.15,0,0,0,0,0S77,50.9,77,51s-.47,0-.67,0a.85.85,0,0,0-.5.1c0,.06-.32-.13-.46-.19s-.24-.27-.27-.29,0-.1,0-.14-.33,0-.42,0-.56.09-.68.14a.58.58,0,0,1-.33,0c-.05,0-.18.15-.24.18s-.14.24-.18.48l-.09.17,0,.11a2.31,2.31,0,0,0-.38.59,3.88,3.88,0,0,0-.09.85,3.14,3.14,0,0,0,.21.71,1.76,1.76,0,0,0,.44.42,1.74,1.74,0,0,0,.51.06.32.32,0,0,0,.26-.22l.15,0h.07c0,.08.23.15.28.18a.42.42,0,0,0,.25,0s.09.38.06.5a2.39,2.39,0,0,0,.11.63c0,.12.17.45.18.57a5.32,5.32,0,0,1-.09.65,2.27,2.27,0,0,0,.22.65,2.07,2.07,0,0,1,.08.48c0,.07.21.47.26.63S76.2,58.45,76.33,58.37Z" style="fill:#73b34f"/><path d="M85.18,53.49s.14-.07.22-.08.13-.22.07-.24-.14-.17-.18-.19-.13.07-.13.13-.14.09-.17.14,0,.09,0,.09S85.17,53.46,85.18,53.49Z" style="fill:#73b34f"/><path d="M85,54.62s0-.22-.08-.24-.3.27-.26.44.09.15.11.12.16,0,.2,0,0,0,0-.08A.34.34,0,0,1,85,54.62Z" style="fill:#73b34f"/><path d="M84.58,54.42c0-.07,0-.3,0-.35s-.12-.17-.19-.2-.29.45-.44.53a.43.43,0,0,0-.17.44c0,.06.36.1.42.15s.12,0,.15,0,0,0,0,0,.12-.14.14-.22S84.58,54.49,84.58,54.42Z" style="fill:#73b34f"/><path d="M83.7,55.2a.26.26,0,0,0-.27.07s.47.13.63.17.25.06.22,0S83.82,55.25,83.7,55.2Z" style="fill:#73b34f"/><path d="M84.68,52.08s-.06-.31-.1-.25,0,.2,0,.26S84.64,52.13,84.68,52.08Z" style="fill:#73b34f"/><path d="M85,52.62c0-.07,0-.14-.14-.16s-.09.29,0,.33S84.94,52.68,85,52.62Z" style="fill:#73b34f"/><path d="M85.51,54.55c.12.09.4.05.41-.12S85.5,54.37,85.51,54.55Z" style="fill:#73b34f"/><path d="M85.44,50.72a.18.18,0,0,0-.06.17h0s0,.16,0,.19.15-.13.21-.17.16-.06.18,0A.51.51,0,0,0,86,50.8a.14.14,0,0,0,.06-.07c0-.12-.05-.24-.08-.36l-.14.11A3.07,3.07,0,0,1,85.44,50.72Z" style="fill:#73b34f"/><path d="M82.6,54Z" style="fill:#73b34f"/><path d="M83.38,54.74a1.4,1.4,0,0,0-.33-.38L83,54.27l0-.09c0-.11-.21-.19-.22-.22s-.06.09-.12.06l.17.12a9,9,0,0,1,.49.85C83.32,55,83.42,54.84,83.38,54.74Z" style="fill:#73b34f"/><path d="M81.16,53.61c0,.08.2.25.23.21a.5.5,0,0,0-.08-.28S81.2,53.53,81.16,53.61Z" style="fill:#73b34f"/><path d="M77.92,57.34c0,.09.18.15.22.14s.19-.27.21-.34a1.48,1.48,0,0,0,0-.26.33.33,0,0,1,0-.13.46.46,0,0,0,.07-.19,5.74,5.74,0,0,0-.1-.62c0-.07-.09,0-.11.12s-.25.24-.3.31a.72.72,0,0,0-.08.33.47.47,0,0,1,0,.23A2.38,2.38,0,0,0,77.92,57.34Z" style="fill:#73b34f"/><path d="M70,60.39h.15C70.18,60.24,70,60.26,70,60.39Z" style="fill:#73b34f"/><path d="M73.94,43.79a.57.57,0,0,1-.25-.06.63.63,0,0,0-.34,0c-.07,0,0-.17.08-.19s0-.16-.09-.16-.36,0-.42,0-.17,0-.22,0a4.51,4.51,0,0,1-.49.08,3.27,3.27,0,0,0-.57,0c-.08,0-.13.17-.12.22s-.34.05-.45.06a3.26,3.26,0,0,0-.86.21c-.16.08-.28.3-.23.3s-.08.13-.16.16-.28,0-.33.09.05.08.07.11.07,0,.12,0,.23,0,.27.06-.14.06-.23.06-.07.19,0,.21.26,0,.28,0,.23,0,.32.05.16.24.19.29a.67.67,0,0,1,0,.28s.16.14.2.11,0,.08,0,.07,0,.2.06.22,0,.15,0,.19,0,.15-.07.19.17.44.17.64.12.36.17.36.22,0,.24.09.1,0,.13-.07a1.7,1.7,0,0,0,.15-.21c0-.09.16-.49.18-.53s.21,0,.25,0l.2-.15s.31-.14.38-.2a3.59,3.59,0,0,0,.25-.33c.06,0,0,0-.1-.08a.08.08,0,0,1,0-.13,1,1,0,0,1,.32.07c.07,0,.22-.08.16-.12s0,0,0,0,.06-.13,0-.16.22-.21.17-.38.07-.35.14-.35,0-.2,0-.21,0,0,0-.07a.37.37,0,0,0,0-.23s.12-.07.15-.11a.68.68,0,0,1,.24-.13C74,43.93,74,43.78,73.94,43.79Z" style="fill:#73b34f"/><path d="M75.33,43.93c-.07,0-.23.06-.21.1S75,44,74.9,44s-.13.24-.09.26.08.17.08.19.2,0,.25,0,0,.14,0,.19,0,.15.07.16.13.14.19.14.15-.22.17-.3.21,0,.3,0,.11-.3,0-.35-.21,0-.25-.06a.31.31,0,0,0-.15-.08S75.41,44,75.33,43.93Z" style="fill:#73b34f"/><path d="M76.09,44.08a.48.48,0,0,0,.35-.14,1.78,1.78,0,0,0-.59-.13c-.17,0-.31,0-.31,0A1.47,1.47,0,0,0,76.09,44.08Z" style="fill:#73b34f"/><path d="M73.32,48.18s-.06.13,0,.19.15.05.21,0a.12.12,0,0,0,.1-.11s-.09-.27-.12-.27S73.36,48.19,73.32,48.18Z" style="fill:#73b34f"/><path d="M73.77,46.44c0-.06-.27,0-.33-.06a.68.68,0,0,1-.27-.1s0,.15-.11.17,0,.06,0,0,0,.1,0,.14.16.06.18.12a.16.16,0,0,0,.17.09c.07,0,.22-.09.27-.09S73.8,46.49,73.77,46.44Z" style="fill:#73b34f"/><path d="M78.76,45.08c.08-.09.42-.2.45-.28s0-.15,0-.15a.15.15,0,0,0-.09.05s-.39.11-.51.16a1.4,1.4,0,0,0-.3.2,3.27,3.27,0,0,0-.16.47s.12.2.19.25a.28.28,0,0,0,.2,0,1.12,1.12,0,0,0-.08-.37C78.38,45.33,78.68,45.16,78.76,45.08Z" style="fill:#73b34f"/><path d="M78.35,44.08c.12.13.19-.06.33,0C78.68,43.79,78.33,43.87,78.35,44.08Z" style="fill:#73b34f"/><path d="M80.81,44.13s.35.08.46.06,0-.18-.18-.17S80.82,44.08,80.81,44.13Z" style="fill:#73b34f"/><path d="M68,46.76S68,47,68,47s.18-.26.27-.21.14.08.13.05a2.69,2.69,0,0,0-.29-.16S68,46.72,68,46.76Z" style="fill:#73b34f"/><path d="M68.88,52.65s.15,0,.18,0,0-.08,0-.08S68.88,52.62,68.88,52.65Z" style="fill:#73b34f"/><path d="M68.19,52.39c.07,0,0,.11.06.15s.19.08.23.11.12-.06.19,0,0-.24-.14-.24-.21-.1-.24-.12a.76.76,0,0,1-.2-.13,1.87,1.87,0,0,0-.45,0,.33.33,0,0,0-.23.13s.16.06.21,0a.54.54,0,0,1,.34.08A.25.25,0,0,0,68.19,52.39Z" style="fill:#73b34f"/><path d="M67.86,52.65s.16,0,.2,0,0,0,0-.06S67.86,52.62,67.86,52.65Z" style="fill:#73b34f"/><path d="M68,51.84s-.08,0-.08.08A.06.06,0,0,0,68,52S68,51.86,68,51.84Z" style="fill:#73b34f"/><path d="M68.3,51.87s-.08-.06-.1-.06,0,.06,0,.12S68.32,51.9,68.3,51.87Z" style="fill:#73b34f"/><path d="M68.54,52.23c.06,0,.07-.1,0-.1s-.1-.11-.15-.12-.07.06-.07.1,0,.06.05,0S68.47,52.26,68.54,52.23Z" style="fill:#73b34f"/><path d="M86,54.68s-.19,0-.21,0-.06.06-.09.08,0,.1,0,.07.18.07.3.14c0-.12,0-.24.07-.36Z" style="fill:#73b34f"/><path d="M68.93,44.79s-.06,0,0,0S69,44.81,68.93,44.79Z" style="fill:#d1ecfb"/><path d="M70.12,48.33s-.06,0,0,0S70.14,48.35,70.12,48.33Z" style="fill:#d1ecfb"/><path d="M71.51,55.92a.92.92,0,0,0,.17-.25l0-.22v-.24c0-.12-.17-.26-.21-.23s-.18-.1-.25-.13a1.47,1.47,0,0,0-.32-.06s-.21-.13-.29-.15-.26-.06-.3-.09-.08-.3-.23-.39a1.84,1.84,0,0,1-.45-.39c0-.08-.32-.24-.41-.29a.38.38,0,0,0-.25,0s-.13-.15-.19-.2-.23-.09-.24,0-.12,0-.15,0-.12,0-.16,0-.19.24-.26.29-.14-.05-.19-.07a.45.45,0,0,0-.26.07s-.15-.24-.12-.36-.11-.37-.22-.38-.14-.26-.12-.36-.18-.15-.24-.16-.18.13-.2.19-.5-.09-.44-.37a1.24,1.24,0,0,1,.33-.61.79.79,0,0,1,.43,0,.11.11,0,0,0,.14,0,1.21,1.21,0,0,1,.34,0c.07,0,.18.32.25.35s.11-.19.12-.24a.46.46,0,0,0,0-.23.72.72,0,0,1,.24-.44.6.6,0,0,0,.23-.29s.09-.06.12-.08,0-.29,0-.36a1.46,1.46,0,0,1,.33-.22c.07,0,.12-.2.1-.23s.18-.21.28-.24.2.06.18.07a1.51,1.51,0,0,0,.22-.13c.08,0,0-.17,0-.21s0-.2,0-.21.1-.15.09-.17.23,0,.32-.05,0,.17,0,.26a.11.11,0,0,0,.1.17s.09.05.1.08.1,0,.16,0,.1-.09.11-.14-.15-.16-.17-.22a2.74,2.74,0,0,1,0-.5c0-.08-.11-.2-.14-.18s-.1-.19-.15-.24a.28.28,0,0,1-.06-.18s-.18-.22-.22-.31-.1-.07-.1,0-.13.05-.18,0-.1-.2-.1-.27-.23-.09-.26-.15-.19,0-.22-.07a.26.26,0,0,0-.18-.07s0,.55,0,.7-.14.27-.19.26,0,.11,0,.1-.08.15-.1.26-.13,0-.14-.1-.13-.23-.15-.2-.1,0-.13,0-.24-.12-.32-.17-.13-.29-.18-.32,0-.05,0-.09.16-.18.2-.24a3.17,3.17,0,0,1,.3-.34.33.33,0,0,0,.12-.21,2,2,0,0,1,.38-.15c.09,0,.16-.26.17-.33a.3.3,0,0,0-.09-.22s.12,0,.17,0,.21,0,.28,0l.28.17,0,.18,0,.29c-.24.1-.31.28-.23.28a1.88,1.88,0,0,1,.6.25c.11.08.14-.12.17-.18a.41.41,0,0,0,0-.29s.13,0,.17,0,.1,0,.13,0,0-.18.07-.21-.07-.07-.08-.11-.18-.12-.23-.15-.08-.15,0-.17,0-.17,0-.22-.22-.1-.28-.1-.13-.14-.16-.16a.89.89,0,0,0-.33,0c-.06,0-.17-.17-.27-.11s-.2-.07-.24-.1-.28.23-.28.4a.49.49,0,0,0,.13.36s0,.16,0,.2-.14,0-.1-.08-.1-.23-.15-.3-.16-.1-.24-.14l-.14.16a.39.39,0,0,1,0,.21c0,.11-.12.12-.13.08s0,0-.1,0a10.59,10.59,0,0,0-2.41,5.61.56.56,0,0,1,.12.18c0,.09.2.15.23.17s0-.18,0-.23,0-.08,0,0a1.45,1.45,0,0,0,.21.28c0,.06.1.47.15.56a1.86,1.86,0,0,0,.68.3.87.87,0,0,1,.37.25s.23.08.27.1.15.16.19.18a.21.21,0,0,1,.08.14s.27.12.33.19a.15.15,0,0,0,.2,0s.07.14.1.2a.46.46,0,0,1,0,.23,2.68,2.68,0,0,1-.11.35,1.72,1.72,0,0,0-.12.52.75.75,0,0,0,.2.26.06.06,0,0,1,0,.11s0,.38.08.43.19.22.17.25.18.23.25.29a2,2,0,0,1,.27.5.84.84,0,0,1,0,.32.53.53,0,0,0,0,.17,4.14,4.14,0,0,0,0,.48c0,.12-.14.52-.14.72s.09.45.13.43,0,.18,0,.2-.13.18-.1.19,0,.16,0,.23.06.47.07.57a2.8,2.8,0,0,0,.19.43c0,.09.06.25.07.27a.14.14,0,0,0,0,.05L69,61a.79.79,0,0,0,.34,0c.08,0,0-.08,0-.12s-.06-.21-.1-.23,0-.25,0-.3.17-.14.19-.18,0-.24,0-.27,0-.27,0-.39.21-.24.23-.33.27-.2.33-.25a.57.57,0,0,0,.08-.38c0-.06.09-.11.15-.11a.84.84,0,0,0,.14,0s.08-.12.12-.15.11-.32.17-.37a.44.44,0,0,0,.12-.27.85.85,0,0,1,.13-.25,1.26,1.26,0,0,1,.32-.18,2.09,2.09,0,0,0,.12-.54c0-.14.09-.33.09-.37s.09-.09.1-.1A2.29,2.29,0,0,1,71.51,55.92Z" style="fill:#a9c769"/><line x1="69.31" y1="49.53" x2="69.3" y2="49.53" style="fill:#a9c769"/><path d="M69.16,44.44c0-.07.34-.16.41-.2s.23-.19.29-.21.14-.15.13-.18.2-.16.28-.19.12-.13.09-.13-.47.23-.88.46a11.34,11.34,0,0,0-1.32,1.06l.41,0c.13,0,.34-.06.36-.1a.26.26,0,0,0,0-.15H69S69.11,44.5,69.16,44.44Z" style="fill:#a9c769"/><path d="M80,45.57h0s-.08,0-.07-.07-.17-.1-.19-.06-.13,0-.18,0-.25.18-.32.26a.94.94,0,0,1-.5.1c-.07,0-.14.16-.08.17s-.14,0-.25,0a1.71,1.71,0,0,0-.52.2.08.08,0,0,1-.14,0c0-.05-.12-.09-.16-.1s-.1.24-.17.29-.14-.2-.29-.24-.39-.19-.46-.2a.9.9,0,0,1-.23-.2.61.61,0,0,0-.3-.08,1,1,0,0,0-.31.16.34.34,0,0,1-.16.05l-.34.31a2.86,2.86,0,0,0-.3.44.25.25,0,0,1-.15.09s0,.08,0,.11-.26.16-.29.28a3.53,3.53,0,0,0,0,.48c0,.1.09.29.17.29s0,.16,0,.21,0,.09,0,.13-.18.09-.23.11a.39.39,0,0,0-.16.2s-.18.07-.24.12a.43.43,0,0,1,0-.12.21.21,0,0,0,0-.2s0-.33-.09-.4a.92.92,0,0,0-.18-.2s0-.11,0-.14-.15-.06-.19,0-.07.33-.09.42a.28.28,0,0,0,.11.22s0,.16,0,.16-.11.23-.08.28,0,.15-.07.17.22,0,.33,0,.2.05.19.06-.22,0-.25.09-.18.14-.21.18,0,.12.11.11.13.21.17.25,0,.15,0,.18-.3,0-.41,0a.57.57,0,0,0-.25.34,1.61,1.61,0,0,0,0,.39c0,.07.23.11.28.15s.25,0,.3,0,.19-.22.21-.33.26-.31.31-.39.29-.06.35-.1,0,.19,0,.31.27.11.23,0,0-.17,0-.12.24.13.28.2,0,.2,0,.2,0,.15,0,.17.13-.18.18-.21.11-.14.08-.15,0-.12.08-.08a1.29,1.29,0,0,0-.22-.33c-.09-.09,0,0,.15.1l.13.17s0,.13.07.16l0,.05a1,1,0,0,1,0,.27.18.18,0,0,0,.16.13c.05,0,.1,0,.09,0s0,.12.09.12.09-.14,0-.15,0-.22-.06-.31,0-.18.06-.18,0,.2,0,.24a.56.56,0,0,0,.06.2l.06.05.13.1c.2-.06.46,0,.45,0s.14.05.15,0,0,0,0,0S77,50.9,77,51s-.47,0-.67,0a.85.85,0,0,0-.5.1c0,.06-.32-.13-.46-.19s-.24-.27-.27-.29,0-.1,0-.14-.33,0-.42,0-.56.09-.68.14a.58.58,0,0,1-.33,0c-.05,0-.18.15-.24.18s-.14.24-.18.48l-.09.17,0,.11a2.31,2.31,0,0,0-.38.59,3.88,3.88,0,0,0-.09.85,3.14,3.14,0,0,0,.21.71,1.76,1.76,0,0,0,.44.42,1.74,1.74,0,0,0,.51.06.32.32,0,0,0,.26-.22l.15,0h.07c0,.08.23.15.28.18a.42.42,0,0,0,.25,0s.09.38.06.5a2.39,2.39,0,0,0,.11.63c0,.12.17.45.18.57a5.32,5.32,0,0,1-.09.65,2.27,2.27,0,0,0,.22.65,2.07,2.07,0,0,1,.08.48c0,.07.21.47.26.63s.56.21.69.13a4.82,4.82,0,0,0,.45-.5,1.29,1.29,0,0,0,.15-.39.42.42,0,0,1,.18-.17s.18-.59.3-.71a2.1,2.1,0,0,0,.25-1,3.23,3.23,0,0,1,.11-.74,1,1,0,0,1,.23-.32,7,7,0,0,0,.44-.63,1.41,1.41,0,0,0,.16-.58c0-.08-.22-.14-.26-.1a.7.7,0,0,1-.29.08c-.07,0-.21-.34-.29-.4s-.17-.45-.22-.52-.2-.26-.24-.3,0-.24-.06-.3.09,0,.1.12a3.45,3.45,0,0,0,.32.51c.07.11.25.46.3.57s.46,0,.59,0a.92.92,0,0,0,.31-.21s.22-.14.28-.18.11-.3.15-.34,0-.28-.08-.35a.39.39,0,0,0-.3-.1s-.13-.15-.17-.22-.19-.16-.21-.2,0-.12.07-.14a1.37,1.37,0,0,1,.41.3,3,3,0,0,1,.21.33s.25.06.3,0,.12,0,.14,0l.07,0,.27,0a.56.56,0,0,1,.15.28.27.27,0,0,0,.13.15s.08.18.1.22a3.16,3.16,0,0,1,.2.41,2.13,2.13,0,0,0,.18.37.94.94,0,0,1,.06.27.2.2,0,0,0,.15.13c.06,0,.18-.38.21-.52a.46.46,0,0,1,.15-.26s0-.07,0-.11.15,0,.17-.06.06-.29.11-.32a1.61,1.61,0,0,1,.31-.19.11.11,0,0,1,.09,0c0-.14,0-.29,0-.44A10.63,10.63,0,0,0,80,45.57Z" style="fill:#a9c769"/><path d="M81.39,53.82a.5.5,0,0,0-.08-.28s-.11,0-.15.07S81.36,53.86,81.39,53.82Z" style="fill:#a9c769"/><path d="M77.92,57.34c0,.09.18.15.22.14s.19-.27.21-.34a1.48,1.48,0,0,0,0-.26.33.33,0,0,1,0-.13.46.46,0,0,0,.07-.19,5.74,5.74,0,0,0-.1-.62c0-.07-.09,0-.11.12s-.25.24-.3.31a.72.72,0,0,0-.08.33.47.47,0,0,1,0,.23A2.38,2.38,0,0,0,77.92,57.34Z" style="fill:#a9c769"/><path d="M70,60.39h.15C70.18,60.24,70,60.26,70,60.39Z" style="fill:#a9c769"/><path d="M71.07,43.68a3.26,3.26,0,0,0-.86.21c-.16.08-.28.3-.23.3s-.08.13-.16.16-.28,0-.33.09.05.08.07.11.07,0,.12,0,.23,0,.27.06-.14.06-.23.06-.07.19,0,.21.26,0,.28,0,.23,0,.32.05.16.24.19.29a.67.67,0,0,1,0,.28s.16.14.2.11,0,.08,0,.07,0,.2.06.22,0,.15,0,.19,0,.15-.07.19.17.44.17.64.12.36.17.36.22,0,.24.09.1,0,.13-.07a1.7,1.7,0,0,0,.15-.21c0-.09.16-.49.18-.53s.21,0,.25,0l.2-.15s.31-.14.38-.2a3.59,3.59,0,0,0,.25-.33c.06,0,0,0-.1-.08a.08.08,0,0,1,0-.13,1,1,0,0,1,.32.07c.07,0,.22-.08.16-.12s0,0,0,0,.06-.13,0-.16.22-.21.17-.38.07-.35.14-.35,0-.2,0-.21,0,0,0-.07a.37.37,0,0,0,0-.23s.12-.07.15-.11a.68.68,0,0,1,.24-.13c.06,0,.09-.16,0-.15a.57.57,0,0,1-.25-.06.63.63,0,0,0-.34,0c-.07,0,0-.17.08-.19s0-.16-.09-.16-.36,0-.42,0-.17,0-.22,0a4.51,4.51,0,0,1-.49.08,3.27,3.27,0,0,0-.57,0c-.08,0-.13.17-.12.22S71.18,43.67,71.07,43.68Z" style="fill:#a9c769"/><path d="M75.21,44.79c.05,0,.13.14.19.14s.15-.22.17-.3.21,0,.3,0,.11-.3,0-.35-.21,0-.25-.06a.31.31,0,0,0-.15-.08s-.08-.2-.16-.22-.23.06-.21.1S75,44,74.9,44s-.13.24-.09.26.08.17.08.19.2,0,.25,0,0,.14,0,.19S75.16,44.78,75.21,44.79Z" style="fill:#a9c769"/><path d="M76.44,43.94a1.78,1.78,0,0,0-.59-.13c-.17,0-.31,0-.31,0a1.47,1.47,0,0,0,.55.22A.48.48,0,0,0,76.44,43.94Z" style="fill:#a9c769"/><path d="M73.32,48.18s-.06.13,0,.19.15.05.21,0a.12.12,0,0,0,.1-.11s-.09-.27-.12-.27S73.36,48.19,73.32,48.18Z" style="fill:#a9c769"/><path d="M73.77,46.44c0-.06-.27,0-.33-.06a.68.68,0,0,1-.27-.1s0,.15-.11.17,0,.06,0,0,0,.1,0,.14.16.06.18.12a.16.16,0,0,0,.17.09c.07,0,.22-.09.27-.09S73.8,46.49,73.77,46.44Z" style="fill:#a9c769"/><path d="M78.26,45.06a3.27,3.27,0,0,0-.16.47s.12.2.19.25a.28.28,0,0,0,.2,0,1.12,1.12,0,0,0-.08-.37c0-.09.27-.26.35-.34s.42-.2.45-.28,0-.15,0-.15a.15.15,0,0,0-.09.05s-.39.11-.51.16A1.4,1.4,0,0,0,78.26,45.06Z" style="fill:#a9c769"/><path d="M78.35,44.08c.12.13.19-.06.33,0v0l-.14-.13A.19.19,0,0,0,78.35,44.08Z" style="fill:#a9c769"/><path d="M68,46.76S68,47,68,47s.18-.26.27-.21.14.08.13.05a2.69,2.69,0,0,0-.29-.16S68,46.72,68,46.76Z" style="fill:#a9c769"/><path d="M68.88,52.65s.15,0,.18,0,0-.08,0-.08S68.88,52.62,68.88,52.65Z" style="fill:#a9c769"/><path d="M68.19,52.39c.07,0,0,.11.06.15s.19.08.23.11.12-.06.19,0,0-.24-.14-.24-.21-.1-.24-.12a.76.76,0,0,1-.2-.13,1.87,1.87,0,0,0-.45,0,.33.33,0,0,0-.23.13s.16.06.21,0a.54.54,0,0,1,.34.08A.25.25,0,0,0,68.19,52.39Z" style="fill:#a9c769"/><path d="M67.86,52.65s.16,0,.2,0,0,0,0-.06S67.86,52.62,67.86,52.65Z" style="fill:#a9c769"/><path d="M68,51.84s-.08,0-.08.08A.06.06,0,0,0,68,52S68,51.86,68,51.84Z" style="fill:#a9c769"/><path d="M68.3,51.87s-.08-.06-.1-.06,0,.06,0,.12S68.32,51.9,68.3,51.87Z" style="fill:#a9c769"/><path d="M68.54,52.23c.06,0,.07-.1,0-.1s-.1-.11-.15-.12-.07.06-.07.1,0,.06.05,0S68.47,52.26,68.54,52.23Z" style="fill:#a9c769"/><path d="M76.2,61l5.25,1.15a.35.35,0,0,0,.41-.26.35.35,0,0,0-.26-.41l-5.25-1.15a.35.35,0,0,0-.41.26.35.35,0,0,0,.26.41Z" style="fill:#282d33"/><path d="M75.23,46.76a6.68,6.68,0,0,1,13.06,2.86,12.05,12.05,0,0,1-4,5.83,5.28,5.28,0,0,0-1.23,2.75l-2.86-.63-.92-.2-2.87-.63a5.46,5.46,0,0,0,0-3A12.13,12.13,0,0,1,75.23,46.76Z" style="fill:#dbe4e9"/><path d="M77.82,56.16A6.82,6.82,0,0,0,77.73,53a11.35,11.35,0,0,1-1.15-6.43A5.81,5.81,0,0,1,87.94,49a11.49,11.49,0,0,1-3.73,5.34,7.09,7.09,0,0,0-1.44,2.89Z" style="fill:#e4eef3"/><path d="M86.79,49.83a.52.52,0,0,1-.4-.62,4.75,4.75,0,0,0-3.61-5.65.52.52,0,0,1-.4-.62.52.52,0,0,1,.62-.4,5.79,5.79,0,0,1,4.42,6.89A.53.53,0,0,1,86.79,49.83Z" style="fill:#fff"/><polygon points="77.95 57.61 78.57 50.69 78.94 50.67 78.31 57.58 77.95 57.61" style="fill:#484f59"/><polygon points="81.27 58.34 83.6 51.79 83.28 51.62 80.95 58.16 81.27 58.34" style="fill:#484f59"/><path d="M83.13,52.58c-.23-.06-.28-.31-.32-.49s0-.24-.09-.24-.13.12-.18.18-.26.36-.49.31-.29-.3-.33-.49a1.1,1.1,0,0,0,0-.16c-.17.2-.46.47-.73.41s-.28-.3-.32-.48,0-.24-.08-.25-.14.12-.18.19-.27.35-.5.3-.29-.3-.32-.48,0-.24-.09-.25-.13.13-.18.19-.26.36-.5.31l.07-.31s.13-.12.18-.18.26-.36.5-.31.28.3.32.48,0,.24.09.25.13-.12.18-.19.26-.35.49-.3.29.3.33.48,0,.24.08.25.34-.19.52-.44a.15.15,0,0,1,.16,0c.23,0,.28.3.32.48s0,.23.08.24.14-.12.18-.18.27-.36.5-.31.29.3.32.49,0,.23.09.24Z" style="fill:#484f59"/><path d="M83.06,58.21l-.75,3.41a.42.42,0,0,1-.52.33L76,60.69a.45.45,0,0,1-.33-.52l.75-3.42Z" style="fill:#282d33"/><path d="M83,58.9l-6.92-1.51a.35.35,0,0,1-.26-.41.35.35,0,0,1,.41-.26l6.92,1.51a.34.34,0,0,1,.26.41A.34.34,0,0,1,83,58.9Z" style="fill:#282d33"/><path d="M80,58.06l-3.84-.84a.19.19,0,0,1,.08-.37l3.84.84a.19.19,0,1,1-.08.37Z" style="fill:#484f59"/><path d="M82.8,60,75.88,58.5a.34.34,0,0,1-.26-.4.34.34,0,0,1,.41-.27L83,59.35a.35.35,0,0,1,.26.41A.35.35,0,0,1,82.8,60Z" style="fill:#282d33"/><path d="M82.55,61.13l-6.91-1.51a.33.33,0,0,1-.26-.41.34.34,0,0,1,.4-.26l6.92,1.51a.34.34,0,0,1,.26.41A.34.34,0,0,1,82.55,61.13Z" style="fill:#282d33"/><path d="M79.79,59.13,76,58.29a.19.19,0,0,1-.14-.23.18.18,0,0,1,.22-.14l3.84.84A.18.18,0,0,1,80,59,.19.19,0,0,1,79.79,59.13Z" style="fill:#484f59"/><path d="M79.54,60.25l-3.84-.84a.18.18,0,0,1-.14-.22.19.19,0,0,1,.22-.15l3.84.84a.2.2,0,0,1,.15.23A.19.19,0,0,1,79.54,60.25Z" style="fill:#484f59"/><rect x="78.6" y="56.47" width="0.35" height="3.36" transform="matrix(0.21, -0.98, 0.98, 0.21, 5.13, 122.67)" style="fill:#30363d"/><rect x="78.36" y="57.56" width="0.35" height="3.36" transform="translate(3.88 123.29) rotate(-77.65)" style="fill:#30363d"/><rect x="78.12" y="58.64" width="0.35" height="3.36" transform="translate(2.64 123.91) rotate(-77.66)" style="fill:#30363d"/><path d="M68.39,51.31" style="fill:none"/><path d="M75.14,43.17a7.94,7.94,0,0,0-14.26-3.44,8,8,0,0,0,1.75,11.09,7.93,7.93,0,0,0,12.51-7.65Zm-6.82,7.61a6.45,6.45,0,1,1,4.2-2.57A6.42,6.42,0,0,1,68.32,50.78Z" style="fill:#30363d"/><path d="M66.29,38.05a6.44,6.44,0,1,0,2,12.71h0a6.44,6.44,0,1,0-2-12.71Z" style="fill:#fff;opacity:0.2"/><path d="M61.94,46.79a6.23,6.23,0,0,1,9.8-6h0a5.92,5.92,0,0,1,1.35,1.34A6.21,6.21,0,0,0,71,39.37h0A6.22,6.22,0,0,0,62.3,48.1,5.91,5.91,0,0,1,61.94,46.79Z" style="fill:#fff;opacity:0.2"/><path d="M63.29,49.92a6.83,6.83,0,0,1-1.51-9.53,6.84,6.84,0,0,1,9.54-1.5h0l.39-.54h0a7.49,7.49,0,0,0-8.81,12.12l.4-.54Z" style="fill:#474f59"/><path d="M69.74,53.44c-.09-.6-.17-1.19-.26-1.79a1,1,0,0,0-.39-.66c-.23.06-.47.11-.7.15s-.49.06-.74.07a1,1,0,0,0-.17.75c.08.6.17,1.2.25,1.8s.56.74,1.13.64h0C69.43,54.31,69.83,54,69.74,53.44Z" style="fill:#30363d"/><rect x="67.9" y="53.43" width="3.24" height="10.12" transform="translate(-8.25 11.51) rotate(-8.94)" style="fill:#678527"/><rect x="69.53" y="53.32" width="1.34" height="10.12" transform="translate(-8.22 11.62) rotate(-8.94)" style="fill:#7fa331"/><rect x="67.17" y="53.49" width="3.24" height="0.78" transform="translate(-7.54 11.34) rotate(-8.94)" style="fill:#e5e8ec"/><rect x="68.68" y="53.57" width="1.43" height="0.53" transform="translate(-7.51 11.41) rotate(-8.92)" style="fill:#cdd5d7"/><path d="M72,64a2.3,2.3,0,0,1-3.21.5l-.12-.77,3.21-.5Z" style="fill:#e5e8ec"/><rect x="70.25" y="63.49" width="1.43" height="0.67" transform="translate(-9.06 11.82) rotate(-8.95)" style="fill:#cdd5d7"/><path d="M69,68.14l.23-.63,1.12.41-.23.63a.14.14,0,0,1-.17.08l-.87-.32A.14.14,0,0,1,69,68.14Z" style="fill:#85a1ff"/><path d="M69.2,68.19l.22-.62.48.17-.23.62a.07.07,0,0,1-.08,0l-.35-.13A.06.06,0,0,1,69.2,68.19Z" style="fill:#a8bdff"/><path d="M70.13,67.83l.26.09-.23.63a.14.14,0,0,1-.17.08l-.14,0Z" style="fill:#6b87e3"/><path d="M70,65.38l7.09-19a.32.32,0,0,1,.17.35l-7,18.76Z" style="fill:#4e5e95"/><path d="M70.92,65.7l-.62-.23,7-18.76h0a.33.33,0,0,1,.41-.14.32.32,0,0,1,.21.37h0Z" style="fill:#5a6cad"/><path d="M77.92,46.94a.32.32,0,0,1,.36-.16l-7.1,19-.26-.1Z" style="fill:#4e5e95"/><path d="M78.28,46.78a.33.33,0,0,0-.36.16h0a.32.32,0,0,0-.21-.37.33.33,0,0,0-.41.14h0a.32.32,0,0,0-.17-.35l1.44-2.14Z" style="fill:#e5e8ec"/><path d="M78.28,46.78a.33.33,0,0,0-.36.16h0c0-.15.65-2.72.65-2.72Z" style="fill:#d7d7d7"/><rect x="69.07" y="66.06" width="2.3" height="1.21" transform="translate(-16.56 109.6) rotate(-69.84)" style="fill:#c87ff0"/><rect x="68.99" y="66.51" width="2.29" height="0.25" transform="translate(-16.53 109.62) rotate(-69.91)" style="fill:#e398f4"/><path d="M78.48,45l-.17,0-.17-.09.43-.64Z" style="fill:#30363d"/><polygon points="69.95 65.95 70.07 65.64 69.99 65.61 69.88 65.92 69.95 65.95" style="fill:#e398f4"/><polygon points="70.12 66.01 70.23 65.7 70.16 65.67 70.05 65.98 70.12 66.01" style="fill:#e398f4"/><rect x="70.14" y="65.87" width="0.33" height="0.08" transform="translate(-15.76 109.26) rotate(-69.88)" style="fill:#c87ff0"/><rect x="70.31" y="65.93" width="0.33" height="0.08" transform="translate(-15.74 109.38) rotate(-69.84)" style="fill:#c87ff0"/><polygon points="70.62 66.19 70.73 65.88 70.66 65.86 70.54 66.17 70.62 66.19" style="fill:#e398f4"/><rect x="70.64" y="66.05" width="0.33" height="0.08" transform="translate(-15.67 109.71) rotate(-69.8)" style="fill:#e398f4"/><polygon points="70.95 66.32 71.06 66.01 70.99 65.98 70.88 66.29 70.95 66.32" style="fill:#e398f4"/><polygon points="69.47 67.27 69.58 66.96 69.51 66.94 69.39 67.25 69.47 67.27" style="fill:#e398f4"/><polygon points="69.63 67.33 69.75 67.02 69.67 67 69.56 67.31 69.63 67.33" style="fill:#e398f4"/><rect x="69.66" y="67.19" width="0.33" height="0.08" transform="translate(-17.33 109.64) rotate(-69.87)" style="fill:#c87ff0"/><polygon points="69.97 67.45 70.08 67.14 70.01 67.12 69.89 67.43 69.97 67.45" style="fill:#c87ff0"/><rect x="69.99" y="67.31" width="0.33" height="0.08" transform="translate(-17.27 109.94) rotate(-69.81)" style="fill:#e398f4"/><polygon points="70.3 67.58 70.41 67.27 70.34 67.24 70.23 67.55 70.3 67.58" style="fill:#e398f4"/><polygon points="70.47 67.64 70.58 67.33 70.51 67.3 70.39 67.61 70.47 67.64" style="fill:#e398f4"/><rect x="64.85" y="58.13" width="27.14" height="18.09" style="fill:url(#ad)"/><rect x="82" y="58.13" width="9.98" height="18.09" style="fill:#68d4fb"/><rect x="60.6" y="71.27" width="9.8" height="6.53" style="fill:url(#ae)"/><rect x="66.79" y="71.27" width="3.61" height="6.53" style="fill:#01a3de"/><rect x="63.37" y="64.72" width="9.8" height="6.53" style="fill:url(#af)"/><rect x="69.57" y="64.72" width="3.61" height="6.53" style="fill:#01a3de"/><rect x="67.65" y="71.27" width="9.8" height="6.53" style="fill:url(#ag)"/><rect x="73.84" y="71.27" width="3.61" height="6.53" style="fill:#01a3de"/><polygon points="86.29 73.11 75.29 73.11 76.35 79.09 87.34 79.09 86.29 73.11" style="fill:#e4eef3"/><polygon points="86.43 73.91 75.43 73.91 75.29 73.11 86.29 73.11 86.43 73.91" style="fill:#cdd5d7"/><line x1="75.62" y1="73.5" x2="75.85" y2="73.5" style="fill:none;stroke:#879ba6;stroke-width:0.27195481179772807px"/><line x1="76.07" y1="73.5" x2="76.3" y2="73.5" style="fill:none;stroke:#879ba6;stroke-width:0.27195481179772807px"/><line x1="76.52" y1="73.5" x2="76.75" y2="73.5" style="fill:none;stroke:#879ba6;stroke-width:0.27195481179772807px"/><polygon points="86.23 78.22 76.93 78.22 76.66 76.69 85.97 76.69 86.23 78.22" style="fill:#fff"/><line x1="77.14" y1="77.46" x2="77.89" y2="77.46" style="fill:#fff"/><polygon points="77.9 77.53 77.15 77.53 77.13 77.38 77.88 77.38 77.9 77.53" style="fill:#a5b6be"/><line x1="77.38" y1="77.78" x2="77.64" y2="77.13" style="fill:#fff"/><polygon points="77.46 77.82 77.31 77.74 77.57 77.1 77.72 77.17 77.46 77.82" style="fill:#a5b6be"/><line x1="77.76" y1="77.78" x2="77.27" y2="77.13" style="fill:#fff"/><polygon points="77.7 77.82 77.21 77.17 77.33 77.1 77.82 77.74 77.7 77.82" style="fill:#a5b6be"/><line x1="78.21" y1="77.46" x2="78.95" y2="77.46" style="fill:#fff"/><polygon points="78.97 77.53 78.22 77.53 78.19 77.38 78.94 77.38 78.97 77.53" style="fill:#a5b6be"/><line x1="78.45" y1="77.78" x2="78.71" y2="77.13" style="fill:#fff"/><polygon points="78.52 77.82 78.38 77.74 78.64 77.1 78.78 77.17 78.52 77.82" style="fill:#a5b6be"/><line x1="78.82" y1="77.78" x2="78.34" y2="77.13" style="fill:#fff"/><polygon points="78.77 77.82 78.28 77.17 78.4 77.1 78.88 77.74 78.77 77.82" style="fill:#a5b6be"/><line x1="79.27" y1="77.46" x2="80.02" y2="77.46" style="fill:#fff"/><polygon points="80.03 77.53 79.29 77.53 79.26 77.38 80.01 77.38 80.03 77.53" style="fill:#a5b6be"/><line x1="79.52" y1="77.78" x2="79.78" y2="77.13" style="fill:#fff"/><polygon points="79.59 77.82 79.44 77.74 79.7 77.1 79.85 77.17 79.59 77.82" style="fill:#a5b6be"/><line x1="79.89" y1="77.78" x2="79.4" y2="77.13" style="fill:#fff"/><polygon points="79.83 77.82 79.34 77.17 79.46 77.1 79.95 77.74 79.83 77.82" style="fill:#a5b6be"/><line x1="80.34" y1="77.46" x2="81.09" y2="77.46" style="fill:#fff"/><polygon points="81.1 77.53 80.35 77.53 80.33 77.38 81.07 77.38 81.1 77.53" style="fill:#a5b6be"/><line x1="80.58" y1="77.78" x2="80.84" y2="77.13" style="fill:#fff"/><polygon points="80.66 77.82 80.51 77.74 80.77 77.1 80.92 77.17 80.66 77.82" style="fill:#a5b6be"/><line x1="80.96" y1="77.78" x2="80.47" y2="77.13" style="fill:#fff"/><polygon points="80.9 77.82 80.41 77.17 80.53 77.1 81.02 77.74 80.9 77.82" style="fill:#a5b6be"/><line x1="81.4" y1="77.46" x2="82.15" y2="77.46" style="fill:#fff"/><polygon points="82.17 77.53 81.42 77.53 81.39 77.38 82.14 77.38 82.17 77.53" style="fill:#a5b6be"/><line x1="81.65" y1="77.78" x2="81.91" y2="77.13" style="fill:#fff"/><polygon points="81.72 77.82 81.58 77.74 81.84 77.1 81.98 77.17 81.72 77.82" style="fill:#a5b6be"/><line x1="82.02" y1="77.78" x2="81.53" y2="77.13" style="fill:#fff"/><polygon points="81.96 77.82 81.47 77.17 81.59 77.1 82.08 77.74 81.96 77.82" style="fill:#a5b6be"/><polygon points="85.87 76.17 76.57 76.17 76.3 74.64 85.61 74.64 85.87 76.17" style="fill:#fff"/><line x1="76.94" y1="75.46" x2="82.71" y2="75.46" style="fill:#fff"/><polygon points="82.72 75.54 76.96 75.54 76.93 75.38 82.69 75.38 82.72 75.54" style="fill:#a5b6be"/><path d="M64.85,64.32h-2a5.48,5.48,0,0,1,.21,1.78,4,4,0,0,1-.66,2.11H65.3a4,4,0,0,1-.66-2.11A5.48,5.48,0,0,1,64.85,64.32Z" style="fill:#eaf3f6"/><path d="M65.5,68.35a.18.18,0,0,1-.19.18H62.4a.18.18,0,0,1-.19-.18h0a.18.18,0,0,1,.19-.19h2.91a.18.18,0,0,1,.19.19Z" style="fill:#d4dcdf"/><path d="M66.5,70.75a.2.2,0,0,1-.19.19H61.4a.2.2,0,0,1-.19-.19h0a.2.2,0,0,1,.19-.19h4.91a.2.2,0,0,1,.19.19Z" style="fill:#d4dcdf"/><path d="M65.15,64.23a.2.2,0,0,1-.19.19H62.75a.2.2,0,0,1-.19-.19h0a.19.19,0,0,1,.19-.19H65a.19.19,0,0,1,.19.19Z" style="fill:#d4dcdf"/><path d="M64.37,61.73a.2.2,0,0,1-.19.19h-.65a.2.2,0,0,1-.19-.19h0a.2.2,0,0,1,.19-.19h.65a.2.2,0,0,1,.19.19Z" style="fill:#d4dcdf"/><path d="M64.89,63.59a.19.19,0,0,1-.19.19H63a.19.19,0,0,1-.19-.19h0A.19.19,0,0,1,63,63.4H64.7a.19.19,0,0,1,.19.19Z" style="fill:#d4dcdf"/><path d="M64.42,68.34a1.79,1.79,0,0,0-.57.09,1.69,1.69,0,0,0-.56-.09,2,2,0,0,0-1.88,2c0,.1,0,.2,0,.3h4.85c0-.1,0-.2,0-.3A2,2,0,0,0,64.42,68.34Z" style="fill:#eaf3f6"/><path d="M64.34,61.15a.49.49,0,1,1-.49-.48A.49.49,0,0,1,64.34,61.15Z" style="fill:#eaf3f6"/><path d="M64.13,60.76a.48.48,0,0,0-.45.48.49.49,0,0,0,.2.39.48.48,0,0,0,.46-.48A.5.5,0,0,0,64.13,60.76Z" style="fill:#d4dcdf"/><path d="M65.63,62.57c0,.2-.79.42-1.78.46s-1.78-.26-1.77-.46a2.05,2.05,0,0,1,1.77-.94A2.08,2.08,0,0,1,65.63,62.57Z" style="fill:#eaf3f6"/><path d="M65.63,62.57c0,.09-.46,1.62-1.78,1.68s-1.77-1.59-1.77-1.68.79-.38,1.77-.46C64.84,62.19,65.68,62.45,65.63,62.57Z" style="fill:#d4dcdf"/><path d="M65,63.93a.18.18,0,0,1-.19.19H62.9a.18.18,0,0,1-.19-.19h0a.18.18,0,0,1,.19-.18h1.91a.18.18,0,0,1,.19.18Z" style="fill:#d4dcdf"/><path d="M64.64,66.1a5.49,5.49,0,0,1,.18-1.68h-1v3.74h1.41A4.17,4.17,0,0,1,64.64,66.1Z" style="fill:#d4dcdf"/><path d="M64.42,68.34a1.78,1.78,0,0,1,.8.19h.09a.18.18,0,0,0,.19-.18.18.18,0,0,0-.19-.19H63.85v.27h0A1.79,1.79,0,0,1,64.42,68.34Z" style="fill:#d4dcdf"/><path d="M66.31,70.56h0a.49.49,0,0,1,0,.12H63.85v.26h2.46a.19.19,0,0,0,0-.38Z" style="fill:#d4dcdf"/><path d="M65,64.42a.2.2,0,0,0,.19-.19A.19.19,0,0,0,65,64a.19.19,0,0,1-.16.08h-.39a1.45,1.45,0,0,1-.57.13h0v.17H65Z" style="fill:#d4dcdf"/><path d="M64.36,61.7a.18.18,0,0,0-.18-.16h0a.47.47,0,0,1-.28.09A2.62,2.62,0,0,1,64.36,61.7Z" style="fill:#d4dcdf"/><path d="M64.42,64.12h.39A.19.19,0,0,0,65,64a.2.2,0,0,0,0-.11.17.17,0,0,0-.07-.14A1.79,1.79,0,0,1,64.42,64.12Z" style="fill:#d4dcdf"/><path d="M66.28,70.68a.49.49,0,0,0,0-.12,1.09,1.09,0,0,0,0-.18,2.07,2.07,0,0,0-1.08-1.85,1.81,1.81,0,0,0-1.37-.1h0v2.25h2.43Z" style="fill:#d4dcdf"/><path d="M65.63,62.54a2,2,0,0,0-1.27-.84,2.62,2.62,0,0,0-.5-.07h0v.48h0A4,4,0,0,1,65.63,62.54Z" style="fill:#d4dcdf"/><path d="M64.42,64.12a1.79,1.79,0,0,0,.51-.33,2.67,2.67,0,0,0,.7-1.22s0,0,0,0a4,4,0,0,0-1.78-.43h0v2.14h0A1.45,1.45,0,0,0,64.42,64.12Z" style="fill:#d4dcdf"/><path d="M65.15,64.23a.2.2,0,0,1-.19.19H62.75a.2.2,0,0,1-.19-.19h0a.19.19,0,0,1,.19-.19H65a.19.19,0,0,1,.19.19Z" style="fill:#eaf3f6"/><path d="M63.76,64.32a.19.19,0,0,0,0,.1H65a.2.2,0,0,0,.19-.19.17.17,0,0,0,0-.1H64A.19.19,0,0,0,63.76,64.32Z" style="fill:#d4dcdf"/><path d="M65.5,68.35a.18.18,0,0,1-.19.18H62.4a.18.18,0,0,1-.19-.18h0a.18.18,0,0,1,.19-.19h2.91a.18.18,0,0,1,.19.19Z" style="fill:#eaf3f6"/><path d="M65.5,68.35a.17.17,0,0,0,0-.1H64a.18.18,0,0,0-.19.19.14.14,0,0,0,0,.09h1.52A.18.18,0,0,0,65.5,68.35Z" style="fill:#d4dcdf"/><path d="M65.5,70.75a.19.19,0,0,0,0-.1H64a.19.19,0,0,0-.19.19.17.17,0,0,0,0,.1h1.52A.19.19,0,0,0,65.5,70.75Z" style="fill:#d4dcdf"/><path d="M63.57,63.88a.07.07,0,0,1-.06.07h-.65a.07.07,0,0,1-.07-.07h0a.07.07,0,0,1,.07-.06h.65a.06.06,0,0,1,.06.06Z" style="fill:#eaf3f6"/><polygon points="95 52.38 85.02 52.38 82 58.13 91.98 58.13 95 52.38" style="fill:url(#ah)"/><rect x="54.59" y="41.2" width="12.72" height="4.18" rx="0.44" ry="0.44" style="fill:#4e99ff"/><rect x="57.23" y="44.43" width="1.61" height="1.61" transform="translate(-14.99 54.28) rotate(-45)" style="fill:#4e99ff"/><path d="M57.52,44.14V44a.66.66,0,0,0-.66-.66H56.2a.67.67,0,0,0-.66.66v.11Z" style="fill:#fff"/><path d="M57,42.6a.44.44,0,0,1-.88,0,.44.44,0,1,1,.88,0Z" style="fill:#fff"/><path d="M58,44.1a.59.59,0,1,1-.58-.59A.58.58,0,0,1,58,44.1Z" style="fill:#ff5931"/><path d="M66.12,40.88a.34.34,0,0,0-.46,0l-.07.08-.08-.08a.33.33,0,0,0-.45,0,.32.32,0,0,0,0,.46l.07.07h0l.46.46.45-.46h0l.08-.07A.34.34,0,0,0,66.12,40.88Z" style="fill:#ff5931"/><path d="M65.34,42.65h-.85a2,2,0,0,0,.1-.28,1.4,1.4,0,0,0,0-.21.2.2,0,0,0-.2-.2h-.1v.31s-.35.41-.35.57v1a.2.2,0,0,0,.2.2h.7a.31.31,0,0,0,.27-.2l.36-1A.13.13,0,0,0,65.34,42.65Z" style="fill:#fff"/><rect x="63.8" y="42.8" width="0.27" height="1.09" style="fill:#fff"/><rect x="63.13" y="42.65" width="0.48" height="1.38" style="fill:#fff"/><path d="M61.44,42h-2a.18.18,0,0,0-.19.19v1.57a.19.19,0,0,0,.19.19h.12v.44L60,44h1.45a.19.19,0,0,0,.18-.19V42.21A.18.18,0,0,0,61.44,42Zm-.19,1.32H59.61v-.13h1.64Zm0-.32H59.61V42.9h1.64Zm0-.31H59.61v-.12h1.64Z" style="fill:#fff"/><circle cx="22.27" cy="41.23" r="2.15" style="fill:#a9c769"/><path d="M21.72,41.17a.46.46,0,0,0,.46-.45.47.47,0,0,0-.46-.46.46.46,0,0,0-.45.46A.45.45,0,0,0,21.72,41.17Zm0-.73a.28.28,0,0,1,.27.28.27.27,0,1,1-.54,0A.28.28,0,0,1,21.72,40.44Z" style="fill:#fff"/><path d="M23.17,41.8a.45.45,0,0,0-.9,0,.45.45,0,1,0,.9,0Zm-.72,0a.27.27,0,0,1,.54,0,.27.27,0,1,1-.54,0Z" style="fill:#fff"/><polygon points="22.45 40.45 22.95 40.45 21.3 42.1 21.42 42.23 23.08 40.57 23.08 41.08 23.26 41.08 23.26 40.26 22.45 40.26 22.45 40.45" style="fill:#fff"/></g></svg>