<svg xmlns="http://www.w3.org/2000/svg" viewBox="0 0 100 100"><title>scalable</title><rect width="100" height="100" style="fill:none"/><path d="M20.48,53.57a2.61,2.61,0,0,1-.61-1.49c0-.3.23-.83.54-.84s.58.37.59.81A2.59,2.59,0,0,1,20.48,53.57Z" style="fill:#d1dbea"/><path d="M20.62,55a2.28,2.28,0,0,1,.6-1.26c.19-.18.67-.32.86-.12a.65.65,0,0,1-.17.86A2.22,2.22,0,0,1,20.62,55Z" style="fill:#d1dbea"/><path d="M20.47,56.57a2.23,2.23,0,0,1,1.06-.91c.24-.08.74,0,.84.24s-.15.59-.51.72A2.28,2.28,0,0,1,20.47,56.57Z" style="fill:#d1dbea"/><path d="M20.6,55a2.46,2.46,0,0,1-1.31-.39c-.21-.14-.48-.55-.35-.74s.5-.15.82.06A2.5,2.5,0,0,1,20.6,55Z" style="fill:#d1dbea"/><path d="M20.57,56.58a2.45,2.45,0,0,1-1.32-.37c-.22-.15-.48-.56-.34-.76s.52-.18.83,0A2.43,2.43,0,0,1,20.57,56.58Z" style="fill:#d1dbea"/><path d="M20.13,58.72a1.59,1.59,0,0,1-1.06-.2c-.17-.11-.34-.46-.21-.66a.52.52,0,0,1,.7-.06A1.62,1.62,0,0,1,20.13,58.72Z" style="fill:#d1dbea"/><path d="M20.22,58.73a2,2,0,0,1,.76-.82c.19-.1.59-.12.68.05s-.06.45-.34.59A1.89,1.89,0,0,1,20.22,58.73Z" style="fill:#d1dbea"/><path d="M20.29,67.54a.81.81,0,0,0,.3,0v-.14a.87.87,0,0,1-.66-.35,3.54,3.54,0,0,1-.6-2.19,22.7,22.7,0,0,1,.82-5.73,14.19,14.19,0,0,0,.43-5.34c0-.27-.05-.49-.05-.69h-.14a6.55,6.55,0,0,0,.05.7,14.2,14.2,0,0,1-.43,5.3c-1.31,5.31-.83,7.31-.19,8.05A1.19,1.19,0,0,0,20.29,67.54Z" style="fill:#d1dbea"/><path d="M76.9,56.51a11.12,11.12,0,0,0,1.52,10.25,11.09,11.09,0,0,0,6.1-17.28A11.14,11.14,0,0,0,76.9,56.51Z" style="fill:#e4efff"/><rect x="73.2" y="58.36" width="16.18" height="0.18" transform="translate(-0.87 115.68) rotate(-70.58)" style="fill:#fff"/><rect x="82.8" y="53.39" width="2.75" height="0.18" transform="translate(-13.71 34.39) rotate(-21.4)" style="fill:#fff"/><rect x="81.86" y="55.87" width="3.39" height="0.18" transform="translate(-14.66 34.34) rotate(-21.4)" style="fill:#fff"/><rect x="80.86" y="58.06" width="5.66" height="0.18" transform="translate(-15.45 34.54) rotate(-21.4)" style="fill:#fff"/><rect x="79.94" y="60.69" width="5.5" height="0.18" transform="translate(-16.47 34.36) rotate(-21.4)" style="fill:#fff"/><rect x="79.11" y="63.73" width="3.07" height="0.18" transform="translate(-17.73 33.82) rotate(-21.4)" style="fill:#fff"/><rect x="82.19" y="51.08" width="0.18" height="2.75" transform="translate(-15.18 47.55) rotate(-29.64)" style="fill:#fff"/><rect x="80.89" y="52.25" width="0.18" height="4.28" transform="translate(-16.3 47.17) rotate(-29.64)" style="fill:#fff"/><rect x="79.7" y="53.84" width="0.18" height="5.36" transform="translate(-17.51 46.85) rotate(-29.64)" style="fill:#fff"/><rect x="78.75" y="56.31" width="0.18" height="5.5" transform="translate(-18.89 46.72) rotate(-29.64)" style="fill:#fff"/><rect x="78.02" y="59.63" width="0.18" height="4.73" transform="translate(-20.44 46.75) rotate(-29.64)" style="fill:#fff"/><path d="M85.49,62.45a10.33,10.33,0,0,0-6.71,6.93A10.32,10.32,0,0,0,95,64.1,10.33,10.33,0,0,0,85.49,62.45Z" style="fill:#d1dbea"/><rect x="79.01" y="66.71" width="15.07" height="0.17" transform="translate(-16.41 30.03) rotate(-18.01)" style="fill:#fff"/><polygon points="92.9 66.83 90.71 65.51 90.8 65.37 92.99 66.69 92.9 66.83" style="fill:#fff"/><polygon points="90.97 67.93 88.27 66.31 88.36 66.16 91.06 67.79 90.97 67.93" style="fill:#fff"/><polygon points="90.34 69.82 85.83 67.1 85.91 66.96 90.42 69.68 90.34 69.82" style="fill:#fff"/><polygon points="87.77 70.54 83.39 67.9 83.47 67.75 87.86 70.4 87.77 70.54" style="fill:#fff"/><polygon points="83.39 70.17 80.94 68.69 81.03 68.55 83.47 70.02 83.39 70.17" style="fill:#fff"/><polygon points="91.11 65.33 90.96 65.27 91.95 62.91 92.11 62.98 91.11 65.33" style="fill:#fff"/><polygon points="88.67 66.13 88.52 66.07 90.06 62.39 90.22 62.46 88.67 66.13" style="fill:#fff"/><polygon points="86.23 66.92 86.07 66.86 88.01 62.26 88.17 62.33 86.23 66.92" style="fill:#fff"/><polygon points="83.79 67.72 83.63 67.66 85.62 62.93 85.78 63 83.79 67.72" style="fill:#fff"/><polygon points="81.34 68.52 81.19 68.45 82.9 64.39 83.05 64.46 81.34 68.52" style="fill:#fff"/><path d="M85.79,54.58A2.25,2.25,0,0,0,87,53.83c.16-.21.25-.71,0-.87s-.59,0-.82.28A2.31,2.31,0,0,0,85.79,54.58Z" style="fill:#194866"/><path d="M85,55.5a2,2,0,0,0,.21-1.2c0-.22-.32-.56-.55-.51a.55.55,0,0,0-.31.69A1.93,1.93,0,0,0,85,55.5Z" style="fill:#194866"/><path d="M84.31,56.72a2,2,0,0,0-.3-1.17c-.13-.18-.52-.39-.72-.25s-.19.49,0,.76A1.94,1.94,0,0,0,84.31,56.72Z" style="fill:#194866"/><path d="M85,55.54a2.2,2.2,0,0,0,1.12.37c.23,0,.62-.15.63-.35s-.29-.36-.62-.37A2.13,2.13,0,0,0,85,55.54Z" style="fill:#194866"/><path d="M84.23,56.68a2.12,2.12,0,0,0,1.12.39c.23,0,.62-.16.63-.37s-.29-.38-.61-.39A2.16,2.16,0,0,0,84.23,56.68Z" style="fill:#194866"/><path d="M83.48,58.42a1.42,1.42,0,0,0,.85.39c.18,0,.48-.16.48-.37a.45.45,0,0,0-.47-.39A1.37,1.37,0,0,0,83.48,58.42Z" style="fill:#194866"/><path d="M83.41,58.38a1.7,1.7,0,0,0-.14-1c-.08-.16-.35-.38-.51-.3s-.17.35-.05.59A1.67,1.67,0,0,0,83.41,58.38Z" style="fill:#194866"/><path d="M79,64.61a.89.89,0,0,1-.24-.11l.08-.1,0,0,0,0a.72.72,0,0,0,.65.08A3.05,3.05,0,0,0,81,63.22a19.28,19.28,0,0,0,2.27-4.48,12.2,12.2,0,0,1,2.36-4l.37-.46.1.07c-.1.14-.23.29-.38.47a12.35,12.35,0,0,0-2.33,4c-1.72,4.43-3,5.61-3.87,5.81A1,1,0,0,1,79,64.61Z" style="fill:#194866"/><path d="M79,62.48a11.35,11.35,0,0,0-3.83,9,11.8,11.8,0,0,0,13.19-12A11.38,11.38,0,0,0,79,62.48Z" style="fill:#3bb6d5"/><polygon points="75.69 71.08 75.6 70.98 87.25 60.34 87.34 60.44 75.69 71.08" style="fill:#0c1153"/><polygon points="87.38 62.78 84.9 62.66 84.91 62.52 87.39 62.63 87.38 62.78" style="fill:#0c1153"/><rect x="84.37" y="62.95" width="0.14" height="3.06" transform="translate(16.21 145.92) rotate(-87.41)" style="fill:#0c1153"/><polygon points="86.03 66.52 80.93 66.29 80.93 66.15 86.04 66.38 86.03 66.52" style="fill:#0c1153"/><polygon points="83.91 68.33 78.94 68.11 78.95 67.97 83.91 68.19 83.91 68.33" style="fill:#0c1153"/><rect x="78.27" y="68.53" width="0.14" height="2.77" transform="translate(4.96 145.01) rotate(-87.41)" style="fill:#0c1153"/><polygon points="85.19 62.35 85.05 62.34 85.16 59.86 85.3 59.87 85.19 62.35" style="fill:#0c1153"/><polygon points="83.2 64.16 83.06 64.16 83.23 60.29 83.38 60.3 83.2 64.16" style="fill:#0c1153"/><polygon points="81.21 65.98 81.07 65.97 81.29 61.14 81.43 61.14 81.21 65.98" style="fill:#0c1153"/><polygon points="79.23 67.79 79.08 67.78 79.31 62.82 79.45 62.83 79.23 67.79" style="fill:#0c1153"/><polygon points="77.24 69.61 77.1 69.6 77.29 65.33 77.43 65.34 77.24 69.61" style="fill:#0c1153"/><path d="M41.88,73.06c.41-.6-.07-1.13-2-1.47a15.63,15.63,0,0,0-5.66.1c3.88-1.73,8.42-4.19,4.36-4.62a13.19,13.19,0,0,0-5.44,1.31c2.49-1.9,3.87-3.47,2.41-3.82s-4.18,1.19-7.2,3.23c1.74-1.73,2.76-3.26,2-4s-1.94,0-3.49,1.26c.1-1.12-.35-1.81-1.43-1.71s-1.87,1.36-2.51,2.9a5.13,5.13,0,0,0-6-3.35c-3.06.77-.81,6.63.46,9.42Z" style="fill:#d1dbea"/><path d="M21.64,78.35c-.09-.41-1.62-3.6-.16-5.69,1.15-1.66.21-2.08-.69-2.12S19,70.86,19,69.73c-.1-3.74-2.59-6.52-3.58-4.18-.54,1.27-2,.42-2-.52-.1-2-1.08-3.31-2-2.18s-1.9,1.36-2.24.54-.14-2.55-1.79-2.11c-.65.18-1.28,1.75-.75,3,.3.73,1.85,2.72-.16,2.57S4.92,68.32,6,68.8c.39.18,3.83,2.11,2.59,2.53-1.46.49-1.13,1.78.78,2.26.86.21,2.89.11,2.65.84s-.35,1.82,1,2.13C15.27,77.09,21.45,77.49,21.64,78.35Z" style="fill:#0c1153"/><path d="M23.45,80.47c-1.88-2.43-3.73-3.84-6.8-6.18-.87-.66-1.87-1.42-3-2.3A20.42,20.42,0,0,1,7,62.52l.17-.05a20.11,20.11,0,0,0,6.58,9.38c1.12.88,2.11,1.64,3,2.3,3.07,2.35,4.93,3.76,6.83,6.22Z" style="fill:#fff"/><path d="M11.1,69.58c-.8-2,.28-4.85.33-5l.16.07s-1.1,2.87-.32,4.84Z" style="fill:#fff"/><path d="M11.48,70a11.07,11.07,0,0,0-5.22-2l0-.17a11.18,11.18,0,0,1,5.3,2Z" style="fill:#fff"/><path d="M15.74,73.42l-.17,0c1.1-5.39.76-6.87.75-6.89l.17,0C16.51,66.51,16.86,68,15.74,73.42Z" style="fill:#fff"/><path d="M8.36,72.47l0-.17c.19,0,4.7-.45,5.8-.14l-.05.17C13,72,8.41,72.47,8.36,72.47Z" style="fill:#fff"/><path d="M18.66,75.85c-2.16-1-5.88-.21-5.91-.21l0-.17c.16,0,3.81-.8,6,.22Z" style="fill:#fff"/><path d="M15.4,69.79a23.5,23.5,0,0,0-4.64-16.47l-.15.12a23.26,23.26,0,0,1,4.6,16.34Z" style="fill:#0c1153"/><path d="M10.87,53.56a2.06,2.06,0,0,0-.48-1.05c-.16-.16-.54-.33-.69-.19s-.07.46.15.69A2,2,0,0,0,10.87,53.56Z" style="fill:#0c1153"/><path d="M11.46,54.43a2,2,0,0,0-.91-.52c-.19,0-.56,0-.6.19s.18.37.46.43A1.91,1.91,0,0,0,11.46,54.43Z" style="fill:#0c1153"/><path d="M12.33,56a1.52,1.52,0,0,0-.83-.38c-.17,0-.47.13-.48.32s.2.34.44.35A1.42,1.42,0,0,0,12.33,56Z" style="fill:#0c1153"/><path d="M11.37,54.41a1.45,1.45,0,0,0,.66-.62c.07-.15.05-.48-.11-.56s-.39.06-.5.28A1.46,1.46,0,0,0,11.37,54.41Z" style="fill:#0c1153"/><path d="M15.29,64.92a1.68,1.68,0,0,0,.89-.38c.14-.12.29-.43.17-.56s-.38-.08-.58.1A1.66,1.66,0,0,0,15.29,64.92Z" style="fill:#0c1153"/><path d="M12.42,55.94a1.9,1.9,0,0,0,.75-.79c.08-.18.09-.57-.08-.65s-.43.09-.55.36A1.91,1.91,0,0,0,12.42,55.94Z" style="fill:#0c1153"/><path d="M13.33,57.63a1.48,1.48,0,0,0,.75-.65c.07-.17,0-.52-.17-.62a.46.46,0,0,0-.57.28A1.45,1.45,0,0,0,13.33,57.63Z" style="fill:#0c1153"/><path d="M13.19,57.66a1.53,1.53,0,0,0-.82-.58c-.18,0-.53.07-.58.28s.15.42.41.48A1.54,1.54,0,0,0,13.19,57.66Z" style="fill:#0c1153"/><path d="M15.24,65a1.55,1.55,0,0,0-.53-.81c-.16-.12-.54-.25-.68-.14s0,.35.18.53A2.4,2.4,0,0,0,15.24,65Z" style="fill:#0c1153"/><path d="M14.54,61.12a1.29,1.29,0,0,0-.77-.25c-.17,0-.53.1-.58.23s.11.23.37.24A2.83,2.83,0,0,0,14.54,61.12Z" style="fill:#0c1153"/><path d="M14.07,59.45a1.09,1.09,0,0,0,.45-.58.69.69,0,0,0,0-.57c-.1-.09-.25,0-.33.25A2.14,2.14,0,0,0,14.07,59.45Z" style="fill:#0c1153"/><path d="M15,63.15a2.16,2.16,0,0,0-.49-.87c-.11-.11-.37-.15-.43,0a.69.69,0,0,0,.21.63A.81.81,0,0,0,15,63.15Z" style="fill:#0c1153"/><path d="M14.52,61.2a2.93,2.93,0,0,0,1-.72c.12-.16.18-.48,0-.52a.82.82,0,0,0-.7.34A1.21,1.21,0,0,0,14.52,61.2Z" style="fill:#0c1153"/><path d="M15,63.22a2.54,2.54,0,0,0,.91-.67c.11-.15.14-.44-.06-.49a.77.77,0,0,0-.67.33A1,1,0,0,0,15,63.22Z" style="fill:#0c1153"/><path d="M6.42,57.42a1.72,1.72,0,0,0,.89-.37c.14-.13.28-.44.17-.57s-.38-.08-.58.1A1.7,1.7,0,0,0,6.42,57.42Z" style="fill:#0c1153"/><path d="M15.35,68.45a1.55,1.55,0,0,0-.53-.81c-.16-.12-.54-.25-.68-.14s-.05.35.17.53A2.47,2.47,0,0,0,15.35,68.45Z" style="fill:#0c1153"/><path d="M15.39,66.74a1.31,1.31,0,0,0-.53-.61c-.15-.09-.51-.18-.63-.1s0,.26.2.39A2.59,2.59,0,0,0,15.39,66.74Z" style="fill:#0c1153"/><path d="M11.89,59.86a2.25,2.25,0,0,0-.74-.61c-.15-.07-.4,0-.39.13a.63.63,0,0,0,.4.47A.88.88,0,0,0,11.89,59.86Z" style="fill:#0c1153"/><path d="M15.38,68.52a2.93,2.93,0,0,0,1.08-.58c.15-.15.25-.45.06-.53a.85.85,0,0,0-.75.26A1.25,1.25,0,0,0,15.38,68.52Z" style="fill:#0c1153"/><path d="M15.41,66.77a2.25,2.25,0,0,0,.93-.52c.12-.13.16-.4,0-.46a.73.73,0,0,0-.67.23A.91.91,0,0,0,15.41,66.77Z" style="fill:#0c1153"/><path d="M14.05,59.58a2,2,0,0,0-.83-.59c-.2-.07-.63-.11-.72,0s.08.31.38.42A3.05,3.05,0,0,0,14.05,59.58Z" style="fill:#0c1153"/><path d="M19.69,68.87a1.93,1.93,0,0,0,.54,0,5.21,5.21,0,0,1-1.65-1,6,6,0,0,1-.78-.82l.18-.29a7.19,7.19,0,0,0,.4-.69,2.72,2.72,0,0,0,1.19,1,3.39,3.39,0,0,1-1-1.38c.53-1,1.15-2.45,1.62-3.37a2.44,2.44,0,0,0,1.72,1h.18a3,3,0,0,1-1.64-1.56l0-.06c.22-.39.49-.92.78-1.49a2.85,2.85,0,0,1,.48.13,3.62,3.62,0,0,0-.41-.27c.22-.44.46-.9.69-1.31a2.71,2.71,0,0,0,1.87,1.43A3.64,3.64,0,0,1,22.51,58c.12-.17.23-.31.33-.43A6.38,6.38,0,0,1,26,56.19c.08.47.6.64,1.41,2.66a8.29,8.29,0,0,1,.41,1.37,3.16,3.16,0,0,1-2.05.64,3.59,3.59,0,0,0,1,.23A3.34,3.34,0,0,0,27.94,61a11.32,11.32,0,0,1,0,2.1,2.68,2.68,0,0,1-1.44.25l-.25,0a2.83,2.83,0,0,0,1.3.44l.33,0c-.06.47-.13.93-.22,1.4a7.63,7.63,0,0,1-.44,1.41l-.08,0c-.16-.09-.32-.18-.48-.25a3.67,3.67,0,0,1,.46.54c-.18.43-.4.89-.64,1.37A4.36,4.36,0,0,1,25,67.75a7.61,7.61,0,0,0,1.29,1c-.31.57-.64,1.17-1,1.77a6.53,6.53,0,0,1-1-.83,2.93,2.93,0,0,0,.83,1.17c-.51.87-1.05,1.73-1.55,2.52a4.88,4.88,0,0,1-1-1,2,2,0,0,0,.78,1.4l-.27.42c-1.8,2.78-4.62.84-4.62.84A19.64,19.64,0,0,1,16.53,71a9.71,9.71,0,0,1,1.13-3.7A2.66,2.66,0,0,0,19.69,68.87Z" style="fill:#b0bfde"/><path d="M18.38,75A19.64,19.64,0,0,1,16.53,71a9.71,9.71,0,0,1,1.13-3.7,2.66,2.66,0,0,0,2,1.54,1.93,1.93,0,0,0,.54,0,5.21,5.21,0,0,1-1.65-1,6,6,0,0,1-.78-.82l.18-.29a7.19,7.19,0,0,0,.4-.69,2.72,2.72,0,0,0,1.19,1,3.39,3.39,0,0,1-1-1.38c.53-1,1.15-2.45,1.62-3.37a2.44,2.44,0,0,0,1.72,1h.18a3,3,0,0,1-1.64-1.56l0-.06c.22-.39.49-.92.78-1.49a2.85,2.85,0,0,1,.48.13,3.62,3.62,0,0,0-.41-.27c.22-.44.46-.9.69-1.31a2.71,2.71,0,0,0,1.87,1.43A3.64,3.64,0,0,1,22.51,58c.12-.17.23-.31.33-.43A6.75,6.75,0,0,1,26,56.17C24.55,64,21.84,70.64,18.44,75Z" style="fill:#d1dbea"/><path d="M16.12,69.65a9.84,9.84,0,0,0,5.43,6.54,10.22,10.22,0,0,0-4-14.93A9.84,9.84,0,0,0,16.12,69.65Z" style="fill:#3d7aa8"/><polygon points="21.3 75.65 17.74 62.47 17.86 62.44 21.41 75.62 21.3 75.65" style="fill:#0c1153"/><rect x="18.01" y="64.18" width="2.15" height="0.12" transform="translate(-46.13 48.8) rotate(-60.14)" style="fill:#0c1153"/><rect x="18.49" y="66.21" width="2.64" height="0.12" transform="translate(-47.52 50.46) rotate(-60.14)" style="fill:#0c1153"/><rect x="18.65" y="67.69" width="4.42" height="0.12" transform="translate(-48.28 52.11) rotate(-60.14)" style="fill:#0c1153"/><rect x="19.29" y="69.99" width="4.3" height="0.12" transform="translate(-49.98 53.76) rotate(-60.14)" style="fill:#0c1153"/><rect x="20.37" y="73.06" width="2.39" height="0.12" transform="translate(-52.58 55.42) rotate(-60.14)" style="fill:#0c1153"/><rect x="17.45" y="63.3" width="0.12" height="2.15" transform="translate(-47.02 47.44) rotate(-60.09)" style="fill:#0c1153"/><rect x="17.53" y="64.65" width="0.12" height="3.35" transform="translate(-48.67 48.51) rotate(-60.1)" style="fill:#0c1153"/><rect x="17.77" y="66.26" width="0.12" height="4.19" transform="translate(-50.31 49.74) rotate(-60.1)" style="fill:#0c1153"/><rect x="18.33" y="68.43" width="0.12" height="4.3" transform="translate(-51.96 51.35) rotate(-60.11)" style="fill:#0c1153"/><rect x="19.2" y="71.13" width="0.12" height="3.7" transform="translate(-53.6 53.29) rotate(-60.09)" style="fill:#0c1153"/><path d="M12.29,74.3a9.82,9.82,0,0,0,8.11,2.56A9.87,9.87,0,0,0,17,69.05a9.82,9.82,0,0,0-8.11-2.56A9.87,9.87,0,0,0,12.29,74.3Z" style="fill:#3bb6d5"/><polygon points="19.89 76.54 9.77 67.38 9.85 67.29 19.97 76.45 19.89 76.54" style="fill:#0c1153"/><polygon points="11.85 69.22 11.74 67.08 11.86 67.07 11.97 69.21 11.85 69.22" style="fill:#0c1153"/><polygon points="13.57 70.78 13.44 68.14 13.56 68.13 13.69 70.78 13.57 70.78" style="fill:#0c1153"/><polygon points="15.3 72.34 15.08 67.93 15.2 67.92 15.42 72.34 15.3 72.34" style="fill:#0c1153"/><polygon points="17.02 73.91 16.81 69.61 16.93 69.61 17.15 73.9 17.02 73.91" style="fill:#0c1153"/><polygon points="18.75 75.47 18.63 73.08 18.75 73.07 18.87 75.46 18.75 75.47" style="fill:#0c1153"/><polygon points="9.54 69.22 9.53 69.1 11.67 68.99 11.68 69.11 9.54 69.22" style="fill:#0c1153"/><polygon points="10.06 70.84 10.06 70.72 13.4 70.56 13.4 70.68 10.06 70.84" style="fill:#0c1153"/><polygon points="10.95 72.45 10.94 72.33 15.12 72.12 15.13 72.24 10.95 72.45" style="fill:#0c1153"/><polygon points="12.56 74.02 12.55 73.89 16.85 73.68 16.86 73.8 12.56 74.02" style="fill:#0c1153"/><polygon points="14.89 75.55 14.89 75.43 18.58 75.24 18.58 75.36 14.89 75.55" style="fill:#0c1153"/><path d="M11.41,80l.08,1a10.37,10.37,0,0,1-2.14.72,8.65,8.65,0,0,1-.55-2c-.47-3.48,4.12-6.64,8.14-4.36a8.49,8.49,0,0,1-3.39,4.47,11.79,11.79,0,0,1-1.46.91Z" style="fill:#3bb6d5"/><path d="M9.41,81.66l-.12,0c0-.06,1.36-6.1,7.65-6.44v.12C10.75,75.65,9.43,81.6,9.41,81.66Z" style="fill:#fff"/><rect x="8.87" y="79.93" width="1.17" height="0.13" transform="translate(-17.83 4.21) rotate(-13.06)" style="fill:#fff"/><polygon points="8.8 79.03 8.78 78.9 10.67 78.66 10.69 78.78 8.8 79.03" style="fill:#fff"/><polygon points="9.02 77.88 9.02 77.75 11.49 77.63 11.5 77.75 9.02 77.88" style="fill:#fff"/><rect x="10.99" y="75.36" width="0.12" height="2.73" transform="translate(-66.42 79.29) rotate(-83.7)" style="fill:#fff"/><rect x="11.89" y="74.62" width="0.12" height="2.7" transform="translate(-64.74 70.3) rotate(-76.83)" style="fill:#fff"/><rect x="13.2" y="73.97" width="0.12" height="2.66" transform="translate(-62.41 64.32) rotate(-71.76)" style="fill:#fff"/><polygon points="15.76 75.45 13.54 74.56 13.59 74.45 15.81 75.33 15.76 75.45" style="fill:#fff"/><rect x="10.2" y="79.83" width="0.12" height="1.53" transform="translate(-28.4 9.14) rotate(-21.16)" style="fill:#fff"/><polygon points="11.33 81 10.62 78.74 10.74 78.7 11.45 80.96 11.33 81" style="fill:#fff"/><polygon points="12.49 80.39 11.44 77.71 11.55 77.67 12.6 80.34 12.49 80.39" style="fill:#fff"/><rect x="12.98" y="76.73" width="0.12" height="3.04" transform="translate(-31.35 12.5) rotate(-24.56)" style="fill:#fff"/><rect x="13.86" y="76.12" width="0.12" height="2.91" transform="translate(-33.18 14.38) rotate(-26.52)" style="fill:#fff"/><rect x="14.96" y="75.61" width="0.12" height="2.39" transform="translate(-30.51 13.15) rotate(-24.51)" style="fill:#fff"/><rect x="15.97" y="75.35" width="0.13" height="1.49" transform="translate(-24 9.43) rotate(-19.09)" style="fill:#fff"/><path d="M88.36,73.37l.51,1.4a15.35,15.35,0,0,0,3.4-.36,12.76,12.76,0,0,0-.54-3.15c-1.56-5.1-9.87-6.53-14-.85a12.86,12.86,0,0,0,7.49,4,18.35,18.35,0,0,0,2.6.34Z" style="fill:#0c1153"/><path d="M92.19,74.46c-.06-.07-5.66-7.42-14.38-4l-.07-.17c8.86-3.52,14.54,4,14.6,4Z" style="fill:#3bb6d5"/><rect x="90.18" y="72.1" width="1.78" height="0.19" transform="translate(-12.66 19.79) rotate(-11.6)" style="fill:#3bb6d5"/><polygon points="88.61 71.31 88.56 71.13 91.31 70.27 91.36 70.45 88.61 71.31" style="fill:#3bb6d5"/><rect x="86.67" y="69.53" width="3.76" height="0.19" transform="translate(-19.52 37.87) rotate(-21.8)" style="fill:#3bb6d5"/><rect x="84.74" y="68.61" width="4.13" height="0.19" transform="translate(-23 54.65) rotate(-31.07)" style="fill:#3bb6d5"/><rect x="83.04" y="68.15" width="4.09" height="0.19" transform="translate(-23.97 66.62) rotate(-37.87)" style="fill:#3bb6d5"/><rect x="80.85" y="68.06" width="4.04" height="0.19" transform="translate(-24.23 74.66) rotate(-42.91)" style="fill:#3bb6d5"/><polygon points="79.52 69.94 79.38 69.81 81.88 67.19 82.02 67.32 79.52 69.94" style="fill:#3bb6d5"/><rect x="90.24" y="72.38" width="0.19" height="2.31" transform="translate(-4.41 5.77) rotate(-3.57)" style="fill:#3bb6d5"/><polygon points="88.95 74.79 88.49 71.23 88.68 71.2 89.14 74.76 88.95 74.79" style="fill:#3bb6d5"/><rect x="86.84" y="70.32" width="0.19" height="4.35" transform="translate(-3.97 5.04) rotate(-3.25)" style="fill:#3bb6d5"/><polygon points="84.95 74.38 84.94 69.77 85.13 69.77 85.14 74.38 84.95 74.38" style="fill:#3bb6d5"/><rect x="81.2" y="71.61" width="4.41" height="0.19" transform="translate(9.16 152.85) rotate(-88.23)" style="fill:#3bb6d5"/><rect x="81.31" y="69.53" width="0.19" height="3.63" transform="translate(-0.3 0.34) rotate(-0.24)" style="fill:#3bb6d5"/><rect x="79.46" y="69.87" width="0.19" height="2.26" transform="translate(-6.6 8.17) rotate(-5.64)" style="fill:#3bb6d5"/><polygon points="81.85 48.2 81.67 73.7 65.42 75.46 65.6 49.97 81.85 48.2" style="fill:#d1dbea"/><polygon points="65.42 75.46 60.65 71.82 60.83 46.32 65.6 49.97 65.42 75.46" style="fill:#aebddc"/><polygon points="65.6 49.97 60.83 46.32 77.08 44.56 81.85 48.2 65.6 49.97" style="fill:#e4efff"/><path d="M73.89,76c.36-.52,0-1-1.68-1.28a13.49,13.49,0,0,0-4.9.09c3.36-1.5,7.29-3.63,3.77-4A11.38,11.38,0,0,0,66.38,72c2.15-1.64,3.34-3,2.08-3.3s-3.62,1-6.23,2.79C63.73,70,64.62,68.64,64,68s-1.68,0-3,1.08c.09-1-.3-1.57-1.23-1.48s-1.62,1.19-2.17,2.52a4.42,4.42,0,0,0-5.2-2.9c-2.65.66-.7,5.73.4,8.15Z" style="fill:#3bb6d5"/><path d="M61,73.93l-.11-.05C65,64.39,69.88,61,69.93,61l.07.1S65.05,64.48,61,73.93Z" style="fill:#3bb6d5"/><path d="M60.47,72.75l-.12,0a29.15,29.15,0,0,1,4.79-10.62l.1.07A29.23,29.23,0,0,0,60.47,72.75Z" style="fill:#3bb6d5"/><path d="M62.63,73.57l-.12,0a8.51,8.51,0,0,1,5.32-6.65l0,.13A8.34,8.34,0,0,0,62.63,73.57Z" style="fill:#3bb6d5"/><path d="M70.61,60.31c.74.67,1.13,1.45.86,1.76s-1.1,0-1.84-.67S68.5,60,68.77,59.65,69.86,59.64,70.61,60.31Z" style="fill:#3bb6d5"/><path d="M70.27,60.68c.24.22.36.47.27.56s-.34,0-.58-.21-.36-.46-.27-.56S70,60.47,70.27,60.68Z" style="fill:#0c1153"/><path d="M65.46,61.85c.31.27.47.6.35.73s-.45,0-.76-.28-.47-.6-.36-.73S65.15,61.57,65.46,61.85Z" style="fill:#3bb6d5"/><path d="M65.32,62c.09.09.15.19.11.23s-.14,0-.24-.08-.15-.2-.12-.24S65.22,61.91,65.32,62Z" style="fill:#0c1153"/><path d="M68.18,66.75c.29.45.38.91.2,1s-.57-.15-.86-.6-.38-.91-.2-1S67.89,66.3,68.18,66.75Z" style="fill:#3bb6d5"/><path d="M68,66.9c.1.14.12.29.07.32s-.18,0-.28-.19-.12-.29-.06-.32S67.86,66.75,68,66.9Z" style="fill:#0c1153"/><path d="M64.17,72.16l0,0h0c-.2-.08-.32-.23-.28-.33s.24-.11.43,0l.05,0v0c0-.21,0-.39.15-.41s.22.15.24.36a.11.11,0,0,1,0,.05h0c.17-.13.36-.16.42-.07s0,.26-.18.39l0,0h0c.2.08.32.23.28.33s-.24.12-.43,0l0,0v0c0,.21,0,.39-.15.41s-.22-.15-.24-.36a.09.09,0,0,1,0,0h0c-.17.13-.36.16-.42.07S64,72.29,64.17,72.16Zm.47.16a.21.21,0,1,0-.23-.18A.21.21,0,0,0,64.64,72.32Z" style="fill:#fff"/><polygon points="59.32 60.61 59.28 76.87 43.03 78.63 43.07 62.37 59.32 60.61" style="fill:#d1dbea"/><polygon points="43.03 78.63 38.26 74.99 38.3 58.73 43.07 62.37 43.03 78.63" style="fill:#aebddc"/><polygon points="43.07 62.37 38.3 58.73 54.55 56.97 59.32 60.61 43.07 62.37" style="fill:#e4efff"/><polygon points="36.87 71.95 36.97 79.65 20.72 81.41 20.62 73.71 36.87 71.95" style="fill:#d1dbea"/><polygon points="20.72 81.41 15.95 77.77 15.85 70.07 20.62 73.71 20.72 81.41" style="fill:#aebddc"/><polygon points="20.62 73.71 15.85 70.07 32.1 68.3 36.87 71.95 20.62 73.71" style="fill:#e4efff"/><path d="M78.63,45.78v.71l.07.6.22.18.18.07,0,.1.57.47a1.08,1.08,0,0,0,.68.11c.1,0,0-.29,0-.33a4.89,4.89,0,0,0-.44-.53l-.42-.63-.47-.8Z" style="fill:#161711"/><path d="M73.05,46.45l.12.29,0,.33-.06.5-.28,0-.2-.07-.14.08a10.39,10.39,0,0,1-1.08.06c-.48,0-.74-.1-.83-.21s.19-.13.26-.14a2.72,2.72,0,0,0,.91-.25l.39-.37.1-.27Z" style="fill:#161711"/><path d="M72.62,21l.29-3.54s1,2.49.65,3.57S72.62,21,72.62,21Z" style="fill:#e9d6b8"/><polygon points="75.55 24.14 73.92 22 73.82 21.28 74 21.3 73.81 20.6 72.44 20.59 72.32 21.7 72.51 21.74 72.54 22.4 72.79 22.56 73.72 25.76 75.55 24.14" style="fill:#b0bfde"/><path d="M78.67,24.48l-3.48-.75s-3,.44-3.07,6.54c0,0,4.58,1.5,4.6.35A15.18,15.18,0,0,1,78.67,24.48Z" style="fill:#d1dbea"/><path d="M81.49,23.22l2.9-1.63a13.77,13.77,0,0,1-2.31,2.61C81.37,24.58,81.49,23.22,81.49,23.22Z" style="fill:#e9d6b8"/><polygon points="77.68 24.6 80.89 23.11 80.82 22.98 81.62 22.79 82.6 24.16 81.72 24.73 81.6 24.49 81.37 24.14 81.56 24.56 80.72 25.32 80.01 25.4 77.36 27.25 77.68 24.6" style="fill:#d1dbea"/><polygon points="76.74 30.55 79.69 46.53 78.56 46.48 76.88 41.32 76.5 39.77 74.51 33.67 74.32 30.4 76.74 30.55" style="fill:#163f59"/><polygon points="73.25 46.52 73.58 40.08 74.15 37.17 74.89 33.17 74.64 30.42 72.16 30.25 72.22 34.85 71.92 38.99 71.85 40.55 71.91 46.73 73.25 46.52" style="fill:#163f59"/><path d="M83.83,22s-.18-.58-.08-.72l.49-.64.11-.11s.2.05-.07.38,0,.24,0,.24l.36-.21.46-.22.19-.13s.1-.08.14-.08.07.1.07.1l-.7.54.79-.33s.1,0,.14,0,0,.06,0,.06l-.8.58.42-.12s.11,0,.14,0l0,.06-1.56.7Z" style="fill:#e9d6b8"/><path d="M84.86,21.22l.57-.2a.44.44,0,0,1,.19-.05.08.08,0,0,1,.08.08l-.82.38Z" style="fill:#e9d6b8"/><path d="M73,18.23s.5-.34.51-.51,0-.81,0-.81l0-.16s-.19-.08-.18.34-.11.22-.11.22l-.15-.39-.23-.45-.07-.22a.38.38,0,0,0-.07-.15c-.09-.06-.11,0-.11,0l.22.86-.42-.74s-.07-.08-.12-.07,0,.05,0,.05l.27.95-.25-.36s-.07-.09-.13-.07l-.07,0,.79,1.51Z" style="fill:#e9d6b8"/><path d="M72.66,17l-.32-.51a.52.52,0,0,0-.12-.16.09.09,0,0,0-.12,0l.41.81Z" style="fill:#e9d6b8"/><path d="M76.28,22.91A5.86,5.86,0,0,0,76,24.15c.09.38,1.14.3,1.15.08A5.73,5.73,0,0,1,77.65,23C77.73,22.88,76.39,22.45,76.28,22.91Z" style="fill:#e9d6b8"/><path d="M77,22.72a2.37,2.37,0,0,1,.62.2l-.35.57a1.29,1.29,0,0,1-1,.42.69.69,0,0,1-.2,0,9.77,9.77,0,0,1,.23-1C76.33,22.7,76.64,22.68,77,22.72Z" style="fill:#e2c59c"/><path d="M76.79,20.81l-1.08,1.87s-.26.44-.13.61a1.3,1.3,0,0,0,.88.35,1.26,1.26,0,0,0,1-.43c.27-.37.79-1.36.79-1.36s0-.39-.66-.55S76.79,20.81,76.79,20.81Z" style="fill:#e9d6b8"/><path d="M77.12,20.4a.37.37,0,0,0-.38.08.42.42,0,0,0,0,.51,5.34,5.34,0,0,0,1,.6.72.72,0,0,0,.5,0c.11-.07-.07-.46-.28-.51C77.45,20.94,77.47,20.49,77.12,20.4Z" style="fill:#194866"/><path d="M78.05,21.47l-.47.8-.18.47.09.05.18.1s.92-.94.73-1.22S78.1,21.41,78.05,21.47Z" style="fill:#194866"/><path d="M77.46,22.88a.14.14,0,0,0,.05.2l.07,0a.15.15,0,0,0,.2-.05l.17-.3a.15.15,0,0,0,0-.2l-.07,0a.15.15,0,0,0-.2,0Z" style="fill:#e9d6b8"/><path d="M76.14,24.33a11.18,11.18,0,0,0-2.63,5.06.69.69,0,0,0,.12.47l.41-.22A43.75,43.75,0,0,1,76.14,24.33Z" style="fill:#3bb6d5"/><polygon points="76.17 24.32 76.08 24.82 77.21 24.33 77.19 24.19 76.17 24.32" style="fill:#b0bfde"/><polygon points="76.02 24 75.7 24.5 76.16 24.31 76.02 24" style="fill:#b0bfde"/><polygon points="31.02 80.11 31.38 78.01 32.29 78.2 31.75 80.58 31.02 80.11" style="fill:#e9d6b8"/><path d="M32.39,82.37c0,.12-.22.27-.22.27a9.5,9.5,0,0,1-1.4-1.19,2.38,2.38,0,0,1-.21-.51s0-.15,0-.18-.08,0-.1-.09a2.08,2.08,0,0,1-.06-.26c.34-.55.63-.63.63-.63s.19.59.25.43c.11-.34.71,0,.66.22C31.75,81.24,32.45,82,32.39,82.37Z" style="fill:#f0ca67"/><path d="M32.33,82.5a12.27,12.27,0,0,1-1.2-.9,2.88,2.88,0,0,1-.55-1.43l-.17.24a2.08,2.08,0,0,0,.06.26s.08,0,.1.09,0,.15,0,.18a2.38,2.38,0,0,0,.21.51,9.5,9.5,0,0,0,1.4,1.19A.65.65,0,0,0,32.33,82.5Z" style="fill:#fff"/><path d="M32.13,81.52s-.06,0-.11-.06a2.6,2.6,0,0,0-.36-.3c-.06,0-.1-.09-.09-.11s.08,0,.15,0a3.27,3.27,0,0,1,.35.3C32.12,81.43,32.15,81.49,32.13,81.52Z" style="fill:#fff"/><path d="M32.06,81.21s-.07,0-.13,0a3.47,3.47,0,0,0-.37-.26c-.07,0-.11-.08-.1-.1s.09,0,.15,0a2.68,2.68,0,0,1,.37.26C32,81.13,32.07,81.19,32.06,81.21Z" style="fill:#fff"/><path d="M32,80.93s-.08,0-.14,0a1.9,1.9,0,0,0-.39-.23c-.07,0-.12-.08-.1-.1a.18.18,0,0,1,.16,0,2.55,2.55,0,0,1,.39.24C32,80.85,32,80.91,32,80.93Z" style="fill:#fff"/><path d="M20.59,81.24c0-.38.45-.61.45-.61l.87-.88.49.26L21.34,81.8S20.61,81.63,20.59,81.24Z" style="fill:#e9d6b8"/><path d="M21.07,80.63a.83.83,0,0,0-.26,0,.41.41,0,0,0-.32.22c-.15.35-.12.62-.39,1.47s-.17,1.12.2,1.42.71.08.79-.34c.12-.61.09-1,.18-1.28a1,1,0,0,1,.31-.52c.13-.17-.52-.42-.7-.26S20.8,80.73,21.07,80.63Z" style="fill:#f0ca67"/><path d="M20.66,80.77c-.15.35-.13.62-.39,1.47s-.18,1.12.2,1.42a.46.46,0,0,0,.47.11.42.42,0,0,1-.64,0c-.37-.3-.47-.57-.2-1.42s.24-1.12.39-1.47a.33.33,0,0,1,.2-.18Z" style="fill:#fff"/><path d="M21.05,80.63h0Z" style="fill:#e9d6b8"/><path d="M20.54,82.47s0,.06.11.08a1.84,1.84,0,0,1,.43.15c.07,0,.14,0,.15,0s0-.09-.11-.12a2.16,2.16,0,0,0-.43-.14C20.62,82.43,20.55,82.44,20.54,82.47Z" style="fill:#fff"/><path d="M20.62,82.21s0,.06.1.08a2,2,0,0,1,.41.14c.07,0,.13,0,.14,0a.17.17,0,0,0-.11-.12,2.12,2.12,0,0,0-.4-.14C20.69,82.16,20.63,82.18,20.62,82.21Z" style="fill:#fff"/><path d="M20.66,81.93s0,.06.12.08a2.47,2.47,0,0,1,.42.17c.06,0,.12,0,.13,0s0-.09-.11-.13a2.41,2.41,0,0,0-.42-.16C20.73,81.88,20.67,81.9,20.66,81.93Z" style="fill:#fff"/><path d="M26.5,66.8l7.21,3.5-.31,1.84a9.88,9.88,0,0,1-4.29-.67C27,70.58,26.5,66.8,26.5,66.8Z" style="fill:#163f59"/><path d="M33.41,70.33,26.5,66.8a7.63,7.63,0,0,0,.17.9,5.47,5.47,0,0,0,3,2.33,10.91,10.91,0,0,0,3.37.39Z" style="fill:#194866"/><path d="M31,79.67a53.06,53.06,0,0,1,0-5.32,13.32,13.32,0,0,1,.77-2.94l1.86-.31L32,79.86Z" style="fill:#163f59"/><path d="M27.65,65.19l1.19,3-1.05,5.7L25,75s.38-2.75.53-5.14A9.88,9.88,0,0,1,27.65,65.19Z" style="fill:#194866"/><path d="M20.8,80.54c.91-1.64,2.49-4.76,3.22-5.7,1.35-1.74,1.71-1.6,1.71-1.6l2.05.68-6,7.39Z" style="fill:#194866"/><path d="M36.42,54.35l-.19-.53a2.27,2.27,0,0,0-.28-.51.56.56,0,0,0-.76-.12.8.8,0,0,0-.37.3s0,.4.35.47.9.63,1,.53A.64.64,0,0,1,36.42,54.35Z" style="fill:#e9d6b8"/><polygon points="34.83 53.66 34.54 53.1 34.3 52.56 34.43 52.55 34.65 52.91 35.26 53.28 35.12 53.4 34.83 53.66" style="fill:#e9d6b8"/><polygon points="34.87 52.83 34.8 52.32 34.92 52.27 35.08 52.77 35.42 53.21 35.12 53.4 34.87 52.83" style="fill:#e9d6b8"/><polygon points="35.15 52.26 35.17 52.67 35.16 52.95 35.32 53.21 35.61 53.13 35.42 52.86 35.29 52.32 35.15 52.26" style="fill:#e9d6b8"/><polygon points="35.56 52.32 35.48 53.07 35.61 53.24 35.81 53.2 35.72 52.85 35.65 52.41 35.56 52.32" style="fill:#e9d6b8"/><path d="M36.26,54.76a.74.74,0,0,0-.49-.38s-.86-.2-1-.37a1.39,1.39,0,0,0-.42-.38s-.09-.15.26-.08a1.7,1.7,0,0,1,.41.17,2.23,2.23,0,0,1,.68,0c.29.15.62.88.62.88S36.28,54.79,36.26,54.76Z" style="fill:#e9d6b8"/><path d="M35,57.08a2.32,2.32,0,0,0,.86-3.14c-.32-.6.19-.13.64.36a3.54,3.54,0,0,1,.42,3.43c-.64,1.2-1,1.6-1.55,1.57S35,57.08,35,57.08Z" style="fill:#e9d6b8"/><path d="M31.64,60.84s.37.67,3.15-.47c1.74-.72,1.87-1.6,1.87-1.6l.39-.81-2-1.13-.63.83.08.13a.42.42,0,0,1-.26.26,11.17,11.17,0,0,0-2.54,1.22C30,60.3,31.56,60.69,31.64,60.84Z" style="fill:#f0ca67"/><path d="M34.88,58.65l-.38-.44L34.36,58a.47.47,0,0,0,.19-.25l.22.38.34.4.62.37Z" style="fill:#f4da80"/><path d="M29.41,68.71l-4-.41,2.3-5.77s1.19-2.62,2.91-2.9a2.2,2.2,0,0,1,1.81.71s1.13,1.37-2.09,6C29.91,67,30.05,68,29.41,68.71Z" style="fill:#f4da80"/><path d="M40.33,60.84c.15-.13.18-.78.18-.78l-.59-.32L39.5,60l.09.35.37.53S40.23,60.93,40.33,60.84Z" style="fill:#e9d6b8"/><path d="M32.46,61.36l3.62,1.31.1.27.24-.14.24,1.51-1.21.63-4.91-1.88a3.12,3.12,0,0,1-1.16-2.22C29.28,59.74,32.16,61.27,32.46,61.36Z" style="fill:#f0ca67"/><path d="M36.33,62.9l3.87-2.51a.66.66,0,0,1,0,.54,10.15,10.15,0,0,1-2,2.31,11.54,11.54,0,0,1-1.8,1.13Z" style="fill:#e9d6b8"/><path d="M35.81,64.38s.23-1,.32-1.56l0,.12.24-.14.08.52v.76l-.29.11L36.15,64Z" style="fill:#f4da80"/><path d="M32.09,58.62a2.79,2.79,0,0,1,.23,1.75c-.13,0-1.12-.17-1.14-.4a5.35,5.35,0,0,0-.49-1.24C30.6,58.6,31.88,58.18,32.09,58.62Z" style="fill:#e9d6b8"/><path d="M31.41,58.43a2.8,2.8,0,0,0-.64.21,6.4,6.4,0,0,0,.37.57,1.26,1.26,0,0,0,1,.43.77.77,0,0,0,.21,0c0-.15-.1-.44-.25-1C32,58.4,31.72,58.38,31.41,58.43Z" style="fill:#e9d6b8"/><path d="M31.54,56.48l1.13,1.89s.27.46.14.62a1.32,1.32,0,0,1-.9.37,1.25,1.25,0,0,1-1-.42,15.36,15.36,0,0,1-.83-1.39s-.05-.4.67-.56S31.54,56.48,31.54,56.48Z" style="fill:#e9d6b8"/><path d="M31.21,56.05a.42.42,0,0,1,.39.08.45.45,0,0,1,0,.53,5.6,5.6,0,0,1-1,.62.75.75,0,0,1-.51,0c-.12-.07.06-.47.28-.52C30.87,56.61,30.85,56.15,31.21,56.05Z" style="fill:#194866"/><path d="M30.26,57.16l.49.82.2.47-.1.06-.18.1s-1-1-.76-1.24S30.21,57.1,30.26,57.16Z" style="fill:#194866"/><rect x="30.44" y="58.22" width="0.39" height="0.65" rx="0.15" ry="0.15" transform="translate(-25.75 24.1) rotate(-30.96)" style="fill:#e9d6b8"/><polygon points="32.27 60.34 32.03 60.83 30.77 59.78 31.04 59.48 32.27 60.34" style="fill:#f0ca67"/><polygon points="32.57 60.07 32.66 59.94 32.67 60.36 32.48 60.82 32.27 60.34 32.57 60.07" style="fill:#f0ca67"/><path d="M46,38.77l1.93-4,1.34-.14-2.17,4.82s-.23,1.25-.42,1.32C45.14,41.35,46,38.77,46,38.77Z" style="fill:#163f59"/><path d="M55.79,34.7,59,31.58s.9-.06-2.53,3.76C55.78,36.15,55.79,34.7,55.79,34.7Z" style="fill:#e9d6b8"/><path d="M58.42,32.39s-.17-.7,0-.86.64-.73.64-.73l.14-.13s.24.08-.11.45-.08.28-.08.28l.45-.21L60,31l.24-.13s.13-.09.18-.08.07.11.07.11l-.88.59,1-.32s.13,0,.16,0,0,.08,0,.08l-1,.62.51-.11s.13,0,.17,0l.05.08-1.93.71Z" style="fill:#e9d6b8"/><path d="M59.78,31.43l.69-.19a.54.54,0,0,1,.24,0c.1,0,.08.1.08.1l-1,.39Z" style="fill:#e9d6b8"/><polygon points="52.37 34.84 52.13 37.01 56.64 36.06 57.58 34.75 58.63 33.06 58.13 32.22 55.86 34.72 52.37 34.84" style="fill:#194866"/><path d="M49.89,32.6c0,.18,0,.37-.13.4h0c-.13,0-.28-.08-.33-.27l-.07-.23c-.06-.19,0-.37.13-.41h0c.13,0,.27.08.33.27Z" style="fill:#e9d6b8"/><path d="M51.15,34.32c0,.34-.18.64-.37.66l-.55,0c-.2,0-.39-.3-.44-.63-.07-.56-.13-1.12-.2-1.68a1.6,1.6,0,0,1,.34-1.24.72.72,0,0,1,.84,0,1.59,1.59,0,0,1,.44,1.19Z" style="fill:#e2c59c"/><path d="M51.4,33.44c-.08.32-.2.4-.43.44l-.5.09c-.23,0-.48-.28-.55-.56-.11-.46-.38-.83-.49-1.3a.7.7,0,0,1,.38-.75c.3-.19.65-.58,1-.48a1.09,1.09,0,0,1,.59.95C51.39,32.31,51.4,33,51.4,33.44Z" style="fill:#e9d6b8"/><path d="M49.25,31.76l.18.35s.35-.42.59-.77a2.86,2.86,0,0,1,1.1-.12c.15,0,.18.21.22.32.14.39-.08-.67-.08-.67a1.12,1.12,0,0,0-.83-.51c-.29,0-.42.17-.52.39,0,.05.32-.1.26-.1a3.61,3.61,0,0,0-.35.33,1.8,1.8,0,0,1-.17.34C49.39,31.71,49.25,31.76,49.25,31.76Z" style="fill:#163f59"/><polygon points="50.49 31.92 50.72 31.94 50.66 32.08 50.85 32.14 51.06 32.83 50.76 32.87 50.69 32.44 50.5 32.24 50.04 32.21 50.49 31.92" style="fill:#e2c59c"/><path d="M54.46,57.6v.74l.08.62.23.18.18.07,0,.11.61.48a1.15,1.15,0,0,0,.71.11c.1,0,0-.3-.05-.35a4.37,4.37,0,0,0-.47-.54l-.44-.66-.5-.82Z" style="fill:#161711"/><path d="M48.64,58.36l.13.31.06.34-.06.52-.29,0-.21-.06-.15.08s-.82.09-1.12.08c-.51,0-.78-.1-.87-.21s.19-.15.27-.15a3,3,0,0,0,1-.28l.4-.38.1-.29Z" style="fill:#161711"/><path d="M52.81,35.12l-1.74-.75-.59.36-1.07-.27a13.91,13.91,0,0,1-1.36.74c-.13,0,0,7,0,7l3.15,1,1.2-.79Z" style="fill:#d1dbea"/><polygon points="52.29 42.05 55.5 58.39 54.34 58.36 52.56 53.09 52.16 51.51 50.28 45.28 49.8 41.94 52.29 42.05" style="fill:#163f59"/><polygon points="48.91 58.47 49.16 51.86 49.71 48.87 50.42 44.76 50.13 41.95 47.61 41.79 47.71 46.52 47.45 50.76 47.4 52.37 47.53 58.7 48.91 58.47" style="fill:#163f59"/><polygon points="51.57 42.6 51.36 35.98 51.11 34.42 52.98 34.94 53.1 42.99 51.57 42.6" style="fill:#194866"/><polygon points="49.74 34.37 49.26 35.3 48.96 42.17 48.92 42.69 46.84 42.47 47.55 36.07 47.92 34.77 49.74 34.37" style="fill:#194866"/><polygon points="51.73 39.47 52.27 36.78 51.94 36.28 52.23 34.99 51.94 34.58 51.07 34.29 51.36 37.31 51.53 41.29 51.73 39.47" style="fill:#163f59"/><path d="M49.74,34.35a4.68,4.68,0,0,1-.44,1l-.26,5-.62-3.69.16-.66-.16-.42.52-1Z" style="fill:#163f59"/><polyline points="50.53 34.7 50.63 34.99 50.55 35.06 50.37 35.05 50.28 34.98 50.37 34.69 50.52 34.69" style="fill:#3bb6d5"/><polygon points="50.53 34.69 50.96 35.17 51.29 34.36 51.18 34.15 50.53 34.69" style="fill:#b0bfde"/><polygon points="49.75 34.14 50.37 34.69 49.96 35.19 49.61 34.39 49.75 34.14" style="fill:#b0bfde"/><path d="M50.47,34.79a.71.71,0,0,0-.16.32,11.54,11.54,0,0,0,.17,5.7.71.71,0,0,0,.35.36l.29-.4a52.93,52.93,0,0,1-.56-5.68C50.56,35,50.47,34.89,50.47,34.79Z" style="fill:#3bb6d5"/><path d="M50.44,38.74s-.15-.59,0-.73l.51-.62.11-.11s.2.06-.08.38,0,.24,0,.24l.36-.2.46-.21.2-.11s.1-.08.14-.08.07.1.07.1l-.72.52.8-.3s.11,0,.14,0,0,.06,0,.06l-.81.55.43-.11s.1,0,.13,0l0,.06-1.58.65Z" style="fill:#e9d6b8"/><path d="M51.5,38l.57-.18a.44.44,0,0,1,.19,0,.08.08,0,0,1,.08.09l-.83.35Z" style="fill:#e9d6b8"/><polygon points="46.37 39.19 50.3 37.81 50.9 39.16 46.62 40.78 46.37 39.19" style="fill:#163f59"/><path d="M67.77,24.05c0,.82-1.66,11.8-7,6.34-2.77-2.81,3.57-2.47,3.82-4.92.08-.82.59-3.78,1.6-1.49C66.49,24.79,67.77,23.23,67.77,24.05Z" style="fill:#ad5c49"/><path d="M64,24.23s.24-.12-.43-1.34A28.53,28.53,0,0,0,61.63,20L62.91,23S63.45,24.06,64,24.23Z" style="fill:#e9d6b8"/><path d="M65.18,25.78l-1.85-3.42-.08-.2-1,.46s1.46,2.62,1.56,2.74a11.91,11.91,0,0,1,.76,1.43c.07.21.55,1.22,1.22.85S65.18,25.78,65.18,25.78Z" style="fill:#f0ca67"/><path d="M62.28,20.92a2.23,2.23,0,0,1-.23-1.23,4.53,4.53,0,0,1,0-.57c-.17.25-.07.44-.09.57s0,.09-.13-.11,0-.42,0-.62a.66.66,0,0,0,0-.26,2.37,2.37,0,0,0-.17.52,3.11,3.11,0,0,0-.06.77,3,3,0,0,0,.42.8C62.22,21.08,62.51,21.34,62.28,20.92Z" style="fill:#e9d6b8"/><path d="M69.15,24.07s-.23-.13.43-1.35a27.89,27.89,0,0,1,1.92-2.87l-1.27,2.94S69.69,23.89,69.15,24.07Z" style="fill:#e9d6b8"/><path d="M68,25.61,69.8,22.2l.08-.21,1.05.46s-1.46,2.62-1.56,2.74-.64,1.24-.76,1.43c-.39.64-.39,1-.48.91C67.59,27,68,25.61,68,25.61Z" style="fill:#f0ca67"/><path d="M70.85,20.75a2.22,2.22,0,0,0,.23-1.23,3,3,0,0,0,0-.56c.17.24.07.43.1.56s0,.09.12-.11,0-.41,0-.61a.51.51,0,0,1,0-.26,2.69,2.69,0,0,1,.16.52,3.08,3.08,0,0,1,.06.77,2.67,2.67,0,0,1-.42.79C70.92,20.91,70.62,21.17,70.85,20.75Z" style="fill:#e9d6b8"/><path d="M65.63,45.47l-.06,1.83a7.64,7.64,0,0,1-1,.9c-.26.12-.22,0-.2-.06a4.71,4.71,0,0,0,.53-.76c.08-.25,0-1.81,0-1.89S65.63,45.47,65.63,45.47Z" style="fill:#e9d6b8"/><path d="M68.63,45.63A13.24,13.24,0,0,1,68.94,47c0,.35,0,.46.07.57s.82,1,1,1a.16.16,0,0,0,.16-.17,5.37,5.37,0,0,1-.66-.9,13.48,13.48,0,0,1-.15-1.8C69.35,45.51,68.63,45.63,68.63,45.63Z" style="fill:#e9d6b8"/><path d="M66.75,32.71l-.43,6.6-.58,6.38-1,0s.11-6.45,0-7-.61-5,0-6.13S66.75,32.71,66.75,32.71Z" style="fill:#3bb6d5"/><path d="M66.36,33.93s-.89-1.14-1.47-.67c-.06.27-.11.59-.16.94.38,3.54.7,3.81,1.38,4.2l.23-2Z" style="fill:#35a3bf"/><path d="M68.17,32a43.25,43.25,0,0,1,.76,5.41c.06,1.9.42,7.45.42,7.45l0,1h-.75l-1.39-7.06-1.32-6.5Z" style="fill:#3bb6d5"/><path d="M67.76,23.85a1.4,1.4,0,1,1-1.4-1.42A1.4,1.4,0,0,1,67.76,23.85Z" style="fill:#ad5c49"/><path d="M66.12,24.27a2.7,2.7,0,0,1,0,1c-.11.21-.87.7-1,.85a1.11,1.11,0,0,0,1.31,1.12c1.09-.17,1.54-.7,1.54-.87s.51-.46.15-.59-.93-.21-1.09-.38a1.24,1.24,0,0,1-.24-1C66.94,23.89,66.12,24.27,66.12,24.27Z" style="fill:#e9d6b8"/><path d="M66.71,22.76l-.07,0a1.43,1.43,0,0,1-.61.81l-.25.16V24a.7.7,0,0,0,.73.66.69.69,0,0,0,.72-.66V23.4A1.48,1.48,0,0,1,66.71,22.76Z" style="fill:#e9d6b8"/><path d="M67.94,32.07,64.63,33l.52-2.89L65,26.71a5,5,0,0,0,1.25.28,4.19,4.19,0,0,0,1.2-.28Z" style="fill:#194866"/><path d="M64.57,26.52s.27,1.89.31,2.65c.08,1.37-1.19,2.75-1.26,3.19s.4.86.4.86a1.77,1.77,0,0,0,.44.19c.16,0,.45-.12.56-.63s.52-2.82.6-3.21c.11-.56,0-2.2.11-2.41a3.84,3.84,0,0,0,.37-1.06,1.84,1.84,0,0,0-.37-.48S64.75,26.11,64.57,26.52Z" style="fill:#f0ca67"/><path d="M67.65,25.56s-.44.17-.57.24-.07.76,0,.85.18,2.23.2,2.74.08,2.5.17,2.87,0,.79.43.93S69,32.66,69,32.66a10.55,10.55,0,0,1-.65-1.49A7.93,7.93,0,0,1,68,29.55a9.51,9.51,0,0,1,.23-2.15c.14-.58.2-1.37.24-1.46S67.78,25.61,67.65,25.56Z" style="fill:#f0ca67"/><path d="M65.59,47.2a.43.43,0,0,1,0,.23c0,.1-.12.37-.12.37l-.19.08v-.13a3.83,3.83,0,0,1-.52.48c-.17.11-.53.38-.73.3a.11.11,0,0,1-.06-.08l.38-.37s.16.05.3,0a5.46,5.46,0,0,0,.64-.53A1.85,1.85,0,0,0,65.59,47.2Z" style="fill:#3bb6d5"/><path d="M68.94,47.33a.63.63,0,0,0,0,.23,1.2,1.2,0,0,0,.1.25l.17.08a3.57,3.57,0,0,0,.48.47c.16.11.49.38.68.3s.06-.08.06-.08l-.36-.37s-.15,0-.28,0a4.86,4.86,0,0,1-.58-.53A3.37,3.37,0,0,1,68.94,47.33Z" style="fill:#3bb6d5"/><polygon points="43 57.6 43.26 59.73 41.91 60.06 41.19 60.07 42.59 59.4 42.24 57.58 43 57.6" style="fill:#e9d6b8"/><path d="M43.79,47.18S41,52.18,41,52.52s1.15,5.34,1.15,5.34l1,.14a48.49,48.49,0,0,1-.47-4.84c.15-.59,3.62-4.63,3.12-5.88S43.79,47.18,43.79,47.18Z" style="fill:#854638"/><path d="M43.28,60.08l-.29,0-.15-.2-1.2.34-.76,0a.64.64,0,0,1,.11-.16,4.32,4.32,0,0,1,.69-.31s0,.17.07.2a7.13,7.13,0,0,0,1.12-.27,3.24,3.24,0,0,0,.44-.22A1.92,1.92,0,0,1,43.28,60.08Z" style="fill:#163f59"/><path d="M36.24,51.47s-.06-.06-.11,0a1.14,1.14,0,0,0-.16.36,4.72,4.72,0,0,0-.08.48A.51.51,0,0,0,36,52,2.07,2.07,0,0,1,36.24,51.47Z" style="fill:#e2c59c"/><path d="M36.22,51.52a.61.61,0,0,0-.07.51.35.35,0,0,1,0,.3,2.21,2.21,0,0,1-.06-.45.81.81,0,0,1,0-.27C36.13,51.35,36.48,51.22,36.22,51.52Z" style="fill:#e2c59c"/><path d="M39.3,47.92c-.22.83-2.26,2.64-2.26,2.64s-.94.46,1.3-2.39C39,47.32,39.35,47.72,39.3,47.92Z" style="fill:#e9d6b8"/><path d="M36.18,51.68l0,0,0-.27a3.22,3.22,0,0,1,.37-.55,7.65,7.65,0,0,0,.54-.84c.06-.07.47,0,.47,0s-.49.57-.67.82a6.53,6.53,0,0,0-.38.78l-.16.26s-.08-.07.08-.35c0-.07-.06-.08-.06-.08Z" style="fill:#e9d6b8"/><path d="M36.25,51.36a.91.91,0,0,0-.13.33c0,.08.1.48.1.48a.44.44,0,0,0,0-.29A1.6,1.6,0,0,1,36.25,51.36Z" style="fill:#e9d6b8"/><path d="M37.48,49l.79-1.23s.85-3.09,1.21-3.27a4.7,4.7,0,0,1,1.17-.28l-1.08,3.74-.69,1.51Z" style="fill:#b0bfde"/><polygon points="47.79 58.44 48.33 60.71 46.98 61.04 46.26 61.06 47.66 60.38 46.96 58.3 47.79 58.44" style="fill:#e9d6b8"/><path d="M48.35,61.06l-.28,0-.15-.2-1.09.29-.92,0a.14.14,0,0,1,0-.1,4,4,0,0,1,.81-.31s0,.21.06.23a7.45,7.45,0,0,0,1.12-.29c.34-.13.42-.23.44-.21A1.85,1.85,0,0,1,48.35,61.06Z" style="fill:#163f59"/><path d="M46.54,47.31c.54,1.52-.45,6.4-.45,6.4a15.5,15.5,0,0,1,.94,2.1c.34,1.22,1,2.8,1,2.8l-1.13,0s-2.45-4.46-2.55-5.06-.51-5.57.18-6.76S46.32,46.7,46.54,47.31Z" style="fill:#ad5c49"/><path d="M38.73,44.23a1.5,1.5,0,1,0-.43-2A1.48,1.48,0,0,0,38.73,44.23Z" style="fill:#163f59"/><path d="M40.44,45.35a1.56,1.56,0,0,0,2.14-.5A1.54,1.54,0,1,0,40,43.2,1.56,1.56,0,0,0,40.44,45.35Z" style="fill:#163f59"/><path d="M37.18,44.63a1.13,1.13,0,0,0,1.56-.35l-.3-.52a1.13,1.13,0,0,0-.35-1.56L37.74,42a1.14,1.14,0,0,0-1.56.34l-.15.24a1.13,1.13,0,0,0,.34,1.56Z" style="fill:#163f59"/><path d="M36,43.35a1.59,1.59,0,0,0,.29.15A1.49,1.49,0,0,0,38,43.35a3.11,3.11,0,0,0,.82.34,1.67,1.67,0,0,0,.72,0c.47.2.17,2.05.12,2a5,5,0,0,0-.7-1.16,1.09,1.09,0,0,0-.86-.35.92.92,0,0,0-.62.39.15.15,0,0,1-.09.06,1.07,1.07,0,0,1-.22-.1l-.78-.5A.8.8,0,0,1,36,43.35Z" style="fill:#e9d6b8"/><path d="M44.41,49.13s-1.13.43-1.44.24-.32-1-1-1.63a4,4,0,0,0-1.19-.86c-.26-.11-.61-.17-.77-.49a3.42,3.42,0,0,1-.42-1,1.35,1.35,0,0,0,0-.6C39.6,44.73,44.41,49.13,44.41,49.13Z" style="fill:#7dccd0"/><path d="M44.57,49.57S43,48.08,42.14,47.35s-2.31-2.25-2.51-2.43a1.15,1.15,0,0,1-.27-.44s-.17-.7.18-.83A2,2,0,0,1,41,43.48c2.25.42,5.63,3.21,5.58,3.79a4.87,4.87,0,0,1-.59.24S44.55,48.43,44.57,49.57Z" style="fill:#d1dbea"/><polygon points="39.34 43.6 39.31 43.98 39.3 44.52 39.73 44.74 39.62 43.61 39.34 43.6" style="fill:#b0bfde"/><path d="M40.21,51a2.55,2.55,0,0,1-.72,1.13,4.57,4.57,0,0,1-.37.47c.3-.08.36-.3.47-.39s.07-.06,0,.18-.3.32-.47.46a.54.54,0,0,0-.17.22,3.14,3.14,0,0,0,.5-.3,3.21,3.21,0,0,0,.59-.57,2.79,2.79,0,0,0,.26-.9C40.37,51,40.33,50.55,40.21,51Z" style="fill:#e9d6b8"/><path d="M41.21,47s-.26-.05-.58,1.38a29.93,29.93,0,0,0-.47,3.59l1-3.23S41.51,47.45,41.21,47Z" style="fill:#e9d6b8"/><path d="M40.42,47.87s.3-1.33,1-1.12c.4.12.49.45.39.85-.18.74-.42,1.58-.42,1.58l-1.19.2Z" style="fill:#b0bfde"/><path d="M40.48,47.12l-.76-2.84s0-.38.29-.48.61-.08.75.11c.27.4.2.17.67,1.79s.63,2.1-.07,2.34S40.48,47.12,40.48,47.12Z" style="fill:#b0bfde"/><path d="M39.89,52.41a3.84,3.84,0,0,1-.36.54l-.39.22a.67.67,0,0,1,.21-.26A6,6,0,0,0,39.89,52.41Z" style="fill:#e2c59c"/></svg>