<svg id="Layer_1" xmlns="http://www.w3.org/2000/svg" xmlns:xlink="http://www.w3.org/1999/xlink" viewBox="0 0 100 100"><style>.st0{fill:#e9d6b8}.st1{fill:#163f59}.st2{fill:#edeef0}.st3{fill:#b0bfde}.st4{fill:#081832}.st5{fill:#194866}.st7{fill:#484f59}.st8{fill:#b7bec0}.st9{fill:#cdd5d7}.st10{fill:#e5e8ec}.st11{fill:#2c7eea}.st12{fill:#2366bd}.st13{fill:#f4da80}.st14{fill:#f99b0f}.st15{fill:#b91e2d}.st16{fill:#e2c59c}.st17{fill:#ffab01}.st21{fill:#eed2ce}.st22{fill:#c49189}.st23{fill:#ffebe8}.st24{fill:#e0b6af}.st26{fill:#3c463b}.st27{fill:#2771d1}.st28{fill:#161711}.st29{fill:#323b31}.st30{fill:#b6c2c9}.st33{fill:#ff8b5d}.st34{fill:#fff}.st35{fill:#ef8357}.st36{fill:#d5e1f2}.st37{fill:#ffc910}.st38{fill:#ffca10}.st39{fill:#282723}.st40{fill:#d1dbea}</style><path class="st0" d="M13.3 45.3l.9-1.3 1.5.1-.4 1.3-.6 1z"/><path class="st1" d="M16.9 42.4c0 .3-.3.6-.6.5l-2.2-.1c-.3 0-.6-.3-.5-.6 0-.3.3-.6.6-.5l2.2.1c.3.1.5.3.5.6z"/><path class="st1" d="M16.5 43.4c0 .6-.5 1-1.1 1l-1.1-.1c-.6 0-1-.5-1-1.1.1-.6.5-1 1.1-1l1.1.1c.6.1 1 .5 1 1.1z"/><path class="st0" d="M17.2 45.1l.2-3.2c0-.5-.4 0-.9 0H16c-.5-.1-.9.3-1 .8v.1l-.1 2.3h2.3z"/><path class="st0" d="M15.3 43.4c0 .2-.2.4-.4.4s-.4-.2-.4-.4.2-.4.4-.4c.3 0 .4.2.4.4zM17 44.1c0 .1.1.2.2.2h.2c.1 0 .2-.1.3-.2 0 0-.4-1.3-.5-1.3-.1.1-.1.1-.1.2l-.1 1.1z"/><path class="st1" d="M15.9 44.9c-1 0-1-.3-1.1-.7-.1.4-.2.7-.3 1.1v.3c.1.6.6 1.1 1.3 1.1l1.3.1.1-1.5V45l-1.3-.1z"/><path class="st1" d="M17.3 44.3h-.7c-.3 0-.6.2-.7.6v.2l1.4.1v-.9z"/><path class="st0" d="M16.3 45v.2s0 .1.1.1h.6c.1 0 .1 0 .1-.1V45h-.8z"/><path class="st1" d="M17.1 41.3l-1.9-.1c-.2 0-.4.1-.4.3v.8l2.3.1v-1.1z"/><path class="st1" d="M18.3 41.9c0 .3-.3.6-.6.5l-1.3-.1c-.3 0-.5-.3-.5-.6s.3-.5.6-.5l1.3.1c.2 0 .5.3.5.6z"/><path transform="rotate(-86.58 15.189 42.754) scale(.99998)" class="st1" d="M14.5 42.5h1.4v.5h-1.4z"/><path transform="rotate(-86.57 15.856 42.255) scale(.99999)" class="st1" d="M15.1 41.5h1.6V43h-1.6z"/><path class="st0" d="M15.4 43.1c0-.4.4-.8.8-.7h.4c.4 0 .6.4.6.8s-.4.8-.8.7h-.3c-.3 0-.7-.4-.7-.8.1 0 .1 0 0 0z"/><path class="st2" d="M20.1 53c.3.1.5.2.8.4v.5c0 .1-.2-.2-.3.1-.1.2-.1.4 0 .6l.5.4h.3l.3-.2.1-.6-.1-1-1-.8-.7.1.1.5z"/><path class="st2" d="M20.5 51.9l1.1.8s.3.4.4.7c.1.2.2.4.3.5 0 .3-.1.5-.2.7-.1.1-.4 0-.4 0h-.6s-.2-.1 0-.3c.2-.1.4-.2.6-.2v-.4c-.1-.3-.3-.5-.5-.8l-.9-.5.2-.5z"/><path class="st3" d="M17.3 49.4l3.4 2.3-.6 1.5-2.5-.5z"/><path class="st4" d="M8.5 72.4c-.4.1-.7.2-1.1.2-.3 0-.6-.1-.9-.3-.3-.1-.5-.3-.7-.5-.2-.5-.3-1-.4-1.5l-.2.1-.2-.7s.5-1.1.8-1.1 1.3 1.2 1.3 1.2l.1 1.4.5.8s.5.1.6.2c.1 0 .2.2.2.2zM19.9 71.7l.7 1.4 1.2-.5-.1-.4.6-.2.8-.1 2.4-1.8s-.1-.3-.2-.3c-.3-.2-1.3.5-1.3.5l-1.9.3-2.2 1.1z"/><path class="st1" d="M14 60.6l-.9 2.4-5.5 7.3-1.9-1.7 4.6-7.1.8-5.9z"/><path class="st5" d="M13.6 52.7s3.3 9.8 4.3 12c1 2.3 4.7 5.7 4.7 5.7L19.3 72s-4.7-7.6-5.7-10.3c-.8-1.9-1.9-3.8-3.1-5.5-1.3-.9-1.9-2.6-1.4-4.1.7-2.6 4.5.6 4.5.6z"/><path d="M16 47l-1.5 7.7L9 51.8l3.7-6.8s1.3-1.3 3.3 2z" fill="#bcd0e2"/><path class="st7" d="M40.3 70.6c0 .7-.5 1.2-1.2 1.2-.7.1-1.3-.4-1.3-1.1s.4-1.3 1.1-1.3h.2c.7 0 1.2.6 1.2 1.2z"/><path class="st8" d="M39.8 70.6c0 .4-.3.7-.7.7s-.7-.3-.7-.7c0-.4.3-.7.7-.7.4 0 .7.3.7.7z"/><path class="st9" d="M39.7 70.6c0 .4-.3.6-.6.6-.4 0-.6-.3-.6-.6s.3-.6.6-.6c.4 0 .6.3.6.6z"/><path class="st9" d="M39.4 70.3c0 .4-.2.5-.5.2l-1-1.1c-.2-.3-.1-.5.2-.5h.5c.4 0 .7.3.7.7l.1.7z"/><path class="st8" d="M38 69.6h.7c.4 0 .7.3.7.6v-.5c0-.4-.3-.7-.7-.7h-.5c-.4 0-.5.2-.2.6z"/><path class="st7" d="M31 70.6c0 .7-.5 1.2-1.2 1.2s-1.2-.5-1.2-1.2.5-1.2 1.2-1.2c.7.1 1.2.6 1.2 1.2z"/><path class="st8" d="M30.5 70.6c0 .4-.3.7-.7.7-.4 0-.7-.3-.7-.7 0-.4.3-.7.7-.7.4 0 .7.3.7.7z"/><path class="st9" d="M30.5 70.6c0 .3-.3.6-.6.6-.4 0-.6-.3-.6-.6s.3-.6.6-.6.6.3.6.6z"/><path class="st9" d="M30.1 70.3c0 .4-.2.5-.5.2l-1-1.1c-.2-.3-.1-.5.2-.5h.6c.4 0 .7.3.7.7v.7z"/><path class="st8" d="M28.8 69.6h.7c.4 0 .7.3.7.6v-.5c0-.4-.3-.7-.7-.7H29c-.5 0-.6.2-.2.6z"/><path transform="rotate(-83.719 33.836 60.309)" class="st9" d="M33.5 52.6h.7v15.5h-.7z"/><path transform="scale(.99998) rotate(-86.49 34.43 62.805)" class="st9" d="M34.1 55.7h.7V70h-.7z"/><path class="st8" d="M40.6 69.2L29 69.1c-.3 0-.7-.1-.9-.4-.3-.5-.3-1.1-.1-1.7.2-1.1.4-1.7.4-1.7 0-.2.2-.3.4-.3h7c.2 0 .3.1.4.3 0 .2-.1.3-.3.4h-6.8c-.1.3-.2.8-.3 1.4-.1.3-.2.9-.1 1.1.1.1.3.1.4.1l11.7.1c.2 0 .4.1.4.3 0 .2-.1.4-.3.4-.2.1-.2.1-.3.1z"/><path class="st9" d="M28.9 68.9c-.3 0-.6-.1-.8-.3-.3-.3-.2-.9 0-1.5.2-1.1.4-1.7.4-1.7 0-.1.1-.1.2-.1h7.1c.1 0 .2.1.2.2v.1s-.1 0-.1.1H29v.1l-.5 1.5c-.2.7-.2 1.1 0 1.2s.3.1.5.1l11.8.1c.1 0 .2.1.2.2s-.1.2-.2.2l-11.9-.2zM29.9 64.9c-.1 0-.3-.1-.3-.2l-2.2-7.2c-.1-.2.1-.4.2-.4.2-.1.4 0 .4.2l2.2 7.2c.1.2 0 .4-.2.4h-.1zM31.5 64.9c-.2 0-.3-.1-.3-.3l-1.8-7c-.1-.2 0-.4.2-.4.2-.1.4 0 .4.2v.1l1.7 6.9c.2.3 0 .4-.2.5zM33.2 64.9c-.2 0-.3-.1-.3-.3L31.6 58c0-.2.2-.4.3-.4.1 0 .3.1.3.2l1.3 6.7c.1.2 0 .4-.3.4zM34.9 64.9c-.2 0-.3-.1-.3-.3l-.8-6.4c0-.2.1-.4.3-.4.2 0 .3.1.4.3l.8 6.4c0 .2-.1.4-.4.4.1 0 .1 0 0 0zM36.6 64.9c-.2 0-.3-.1-.3-.3l-.4-6.1c0-.2.1-.4.3-.4s.4.1.4.3l.4 6.1c0 .2-.2.4-.4.4zM38.3 64.9c-.2 0-.3-.2-.3-.3v-5.8c0-.2.2-.3.3-.3.2 0 .3.2.3.3v5.8c0 .2-.1.3-.3.3zM40 64.9c-.2 0-.3-.2-.3-.4l.5-5.5c0-.2.2-.3.3-.3.2 0 .3.2.3.4l-.5 5.5c0 .2-.2.3-.3.3z"/><path class="st9" d="M41.2 65.1H28.4c-.1 0-.3-.1-.3-.2l-3.6-8.8s-.2-.3-1-.6c-1-.3-2.3-.9-2.3-.9-.2 0-.3-.2-.2-.4.1-.2.2-.3.4-.2l.1.1s1.2.6 2.2.9c.6.1 1.1.5 1.4 1l.3.8L42.1 59c.1 0 .2.1.2.1.1.1.1.2.1.3l-.9 5.6s-.2.1-.3.1zm-12.6-.7h12.3l.8-4.9-15.9-2.1 2.8 7z"/><path class="st9" d="M41.2 65.1H28.4c-.1 0-.3-.1-.3-.2l-3.6-8.8s-.2-.3-1-.6c-1-.3-2.3-.9-2.3-.9-.2 0-.3-.2-.2-.4.1-.2.2-.3.4-.2l.1.1s1.2.6 2.2.9c.6.1 1.1.5 1.4 1l.3.8L42.1 59c.1 0 .2.1.2.1.1.1.1.2.1.3l-.9 5.6s-.2.1-.3.1zm-12.6-.7h12.3l.8-4.9-15.9-2.1 2.8 7z"/><path class="st8" d="M41.1 64.2l.8-5-16-2.1.1.3 15.7 2.1-.8 4.7z"/><path class="st8" d="M41.3 64.8H28.6c-.1 0-.3-.1-.3-.2l-3.6-8.8s-.2-.3-1-.6c-1-.4-2.3-.9-2.3-.9-.1-.1-.2-.2-.2-.4-.2.1-.2.3-.1.5 0 .1.1.1.1.1.1 0 1.3.6 2.3.9.8.3 1 .6 1 .6l3.6 8.8c.1.1.2.2.3.2h12.8c.2 0 .3-.1.3-.3-.1.1-.1.1-.2.1z"/><path class="st10" d="M28.6 64.7c-.1 0-.1 0-.1-.1l-3.6-8.9c-.3-.3-.6-.5-1-.6-1-.3-2.2-.9-2.3-.9l-.1-.1V54c0-.1.1-.1.1-.1h.1s1.3.6 2.3.9c1 .3 1.3.8 1.3.9l.4.9 16.8 2.2h.1v.1l-.9 5.6c0 .1-.1.1-.1.1l-13 .1zm0-.3h12.6l.9-5.3-16.5-2.2 3 7.5z"/><path class="st7" d="M23.7 54.7l-2.2-.9c-.2-.1-.5 0-.6.3-.1.2 0 .5.3.6l2.3.9.2-.9z"/><path class="st10" d="M31.6 64.6c-.1 0-.1 0-.1-.1l-.5-2-1.5-.1.6 2c0 .1 0 .1-.1.2-.1 0-.1 0-.1-.1l-.6-2.2-1.6-.1V62l1.5.1-.7-2.5-2-.2v-.3l1.9.2-.6-2.2c0-.1 0-.1.1-.2.1 0 .1 0 .1.1l.7 2.3 1.7.2-.5-2.1v-.1l.1-.1c.1 0 .1 0 .1.1l.5 2.2 1.7.2-.4-2c0-.1 0-.1.1-.2.1 0 .1 0 .1.1l.4 2.2 1.8.2-.3-2c0-.1 0-.1.1-.1s.1 0 .2.1l.3 2 1.7.2-.1-1.9v-.1h.1c.1 0 .1 0 .1.1l.1 1.9 1.7.2v-1.9c0-.1.1-.1.1-.1.1 0 .1.1.1.1v1.8l1.7.2.2-1.8c0-.1.1-.1.1-.1h.1v.1l-.2 1.8 1 .1v.4l-.9-.1-.2 1.9 1.2.1v.3l-1.2-.1-.1 1.4c0 .1-.1.1-.1.1s-.1 0-.1-.1v-.1L40 63h-1.4v1.5c0 .1-.1.1-.1.1-.1 0-.1 0-.2-.1V63l-1.6-.1.1 1.6v.1h-.1c-.1 0-.1 0-.1-.1l-.1-1.6-1.6-.1.3 1.6c0 .1 0 .1-.1.2-.1 0-.1 0-.1-.1l-.2-1.8h-1.6l.3 1.8c0 .1 0 .1-.1.2-.1 0-.1 0-.1-.1l-.4-1.8-1.6-.1.5 1.9c0 .1 0 .1-.1.1l-.1-.1zm7-1.9l1.6.1.2-1.9-1.7-.2-.1 2zm-1.8-.1l1.6.1v-2l-1.7-.2.1 2.1zm-1.9-.1l1.6.1-.1-2.2-1.7-.2.2 2.3zm-1.8-.1l1.6.1-.3-2.2-1.7-.2.4 2.3zm-1.8-.1l1.6.1-.5-2.4-1.8-.1.7 2.4zm-1.9-.1l1.6.1-.7-2.4-1.7-.2.8 2.5z"/><path class="st3" d="M17.8 50.3s-1.2-2.5-1.6-3.2c-.4-.6-.9-1.1-1.4-1.7 0 0-.8.5-.9.9-.2.9-.1 1.9.3 2.8l3.4 3.6.7-.8-.5-1.6z"/><path class="st3" d="M13.9 44.4l-.5.4 2 1.5.1-.6z"/><path class="st10" d="M56 49.3h26.4c.8 0 1.5.7 1.5 1.5v15.4c0 .8-.7 1.5-1.5 1.5H56c-.8 0-1.5-.7-1.5-1.5V50.8c-.1-.8.6-1.5 1.5-1.5z"/><path class="st11" d="M56 49.1h26.4c.8 0 1.5.7 1.5 1.5V66c0 .8-.7 1.5-1.5 1.5H56c-.8 0-1.5-.7-1.5-1.5V50.6c-.1-.8.6-1.5 1.5-1.5z"/><path class="st12" d="M66.7 53.4s0-.1 0 0c.2-.1.3 0 .4 0s-.1-.1-.1-.1l.2.1c0-.1 0-.1-.1-.2.2 0 .2-.3.1-.5h.3c0-.1-.2-.1-.2-.2.1 0 .1-.1.2 0s0-.1 0-.2.1-.1.2-.1.3.1.2-.1-.1 0-.2-.1c0-.1-.1-.1-.2-.1s-.3.1-.3.1c-.1 0 .3-.1.3-.2s-.2-.1-.4-.1-.2-.1-.3 0c-.1.1-.1 0-.1-.1-.1-.1-.4 0-.5.1s-.3 0-.4.1.1.2 0 .2h-.5c-.3 0-.4.3-.7.3 0 .1.1 0 .1.1s-.2.1-.3.2h-.2c.1 0 .1 0 .2.1s.2-.1.2 0 .2-.1.2 0-.3 0-.4 0 .1.1.2.2.1-.1.2-.1c.1.1.2.1.4.1 0 .1 0 .2.1.3v.2c.1.1.1-.1.2 0s-.2 0-.3 0c-.1 0 .2.1.3.2-.1 0-.1.1-.2.2.1 0-.1.1-.1.2.2.1 0 .5.2.7h.2c.1 0 .1.1.2.1s.1-.1.1-.2c0-.2.2-.2.1-.5.1 0 0-.1.1-.1s.1-.1.2 0l.1-.1c.1 0 .2-.2.4-.2s.3-.2.2-.3c-.1.1-.3 0-.3 0zm.3-.1v-.2h.1s-.1.1-.1.2zm.2-1.5c0 .1-.1.1-.1.2-.1-.1-.3-.1-.4-.1.1-.2.3-.1.5-.1z"/><path class="st12" d="M63 52.2v.2h.2c.1 0 .2-.3.3-.2s-.2 0-.1.1c0 .1-.1 0-.1.1s.1 0 .1.1-.1 0-.2 0-.1.1 0 .2.3 0 .4.1c-.2.1-.4-.1-.5-.1s.2.1.2.2c.2 0 .5.1.6-.1.1 0 .1 0 .1-.1s-.1 0-.1-.1h.2c0-.2.2-.2.1-.3.2 0 .2-.2.4-.1 0-.1.1-.1.2-.1 0-.1-.1-.2 0-.2s.3 0 .4-.2-.1 0-.1-.1c-.6 0-1.1 0-1.7.1 0 .2.1.2.2.3-.2 0-.1-.2-.4-.2v.2c0 .1-.1 0-.1.1-.1.1-.2.1-.1.1zM70.3 52.2c0-.1.2 0 .1-.2-.3 0-.5-.1-.8-.1v.1c.2.2.5.2.7.2z"/><path class="st12" d="M69.1 52.3c0 .1-.1.1 0 .2s.1-.1.3-.1c.1 0-.1.1-.1.3.1.1.1.1.2.1 0 .1.1.1.1.1s0-.2.1-.4c.1.1.1.2.3.2 0-.2-.2-.3-.2-.4 0 .1-.1 0-.1 0-.1 0-.1 0-.1-.1.1-.1 0-.2-.2-.2s0 .2 0 .2c-.1-.2-.4-.3-.4 0l.1.1zM72.2 52.1c0-.2-.3-.1-.3 0s.2 0 .3 0zM73.8 52.3c.2 0 .5.1.5-.1-.1-.1-.3-.2-.5-.1v.2zM79.9 54.2c.1 0 .1-.1.2-.1s.1.2.3.2c.2 0 0-.2 0-.3s-.2-.2-.3-.1v-.2c-.2 0-.3-.2-.5-.2 0-.1-.1-.1-.2-.1 0-.1-.2-.1-.4-.1 0 .1.1.2 0 .2s-.1-.1-.2-.2c-.1 0-.3 0-.4.1-.2.1-.1-.3-.3-.2 0 0 0 .1-.1.1l-.4-.2s0 .1-.1.1c0-.1-.1-.1-.2-.1.1-.1 0-.1 0-.1h-.4s.1.1 0 .1h-.8c-.2 0-.1-.1-.2-.1s-.2 0-.3-.1h-.1c-.1-.1-.2-.1-.3-.1 0-.1.1-.1.1-.2s-.1-.1-.2-.2h-.4c-.1 0-.1-.1-.2-.1s-.1.1-.1.2c-.2-.1-.1.1-.2.1s0-.1-.1-.1c-.1.1-.2.2-.4.1 0 .1-.1.1-.2.1s0 .2-.1.2-.2-.1-.2.1.2 0 .1.2c-.1 0-.1-.1-.3-.1 0-.1 0 .1-.2.1s0-.2-.2-.1l-.3.3c-.1 0-.3 0-.4-.1 0 .2.2.1.1.2h-.4c-.1.1-.2.2-.4.2v-.2H71c0 .2 0 .3-.2.3 0 .1-.1.1-.2.1s0 .1 0 .1c-.1-.1-.1-.2-.2-.3h.4c.1-.2-.2-.3-.4-.3-.1-.1-.1-.1-.2-.1 0-.1-.1-.1-.1-.2h-.3l.2.3h-.1c-.1.1-.2.2-.4.3 0 .1-.1.3-.2.4h-.1v.1c-.2 0-.2.2-.3.4.1.1.1.2.1.4 0 .1.2 0 .2.1.1.1-.1.1-.1.2v.2h-.3c0 .1-.1.1-.1.2-.2 0-.1.2-.2.2v.1c-.1 0-.2.1-.2.1-.1 0-.2 0-.1.1s.1 0 .2 0 .1.1.1.3c0 .1 0 .1-.1.1H68c0 .1.1.4-.1.4-.1 0 .1.1.1.3.1 0 .2 0 .3.1.1.1.1-.1.2 0 .1-.1.1-.3.1-.4.1 0 .1-.2.3-.3h.3c-.1.1-.1.3 0 .5.2 0 .1-.2.1-.3.1 0 .1.1.1.1.1 0 .2.1.3.2 0 .1-.1.1-.2 0l.2.2c0-.1.1-.2.1-.2.1 0 0-.1 0-.1s.1.1.2 0-.7-.2-.6-.4c.1.1.2.2.4.3v.1l.1.1v.3h.2c.1 0 0-.3 0-.4h.1v.3c0 .1 0 .1.1.1.1.1.3.1.5 0 .1 0-.1.2 0 .2s0-.2.2-.2v.2c-.1 0 0 .3-.2.3-.2-.1-.5-.1-.8-.1-.1 0-.1.1-.1.2-.1-.2-.4-.2-.5-.3-.1-.2 0-.1-.1-.2s.1-.1 0-.1c-.2 0-.3 0-.5.1-.2 0-.4 0-.6.1 0-.1-.1-.1-.2-.1 0 .1-.1.1-.2.2s0 .4-.1.5l-.3.3c0 .1 0 .3-.1.4v.8c.1.1.2.3.2.5.1.1.2.2.4.2h.4c.1 0 .1-.2.2-.2s0 .1.1.1h.3c.1.1.1-.1.2 0 0 .2-.1.4-.1.6 0 .2.2.3.2.5.1.1.1.3.1.4-.1.2-.1.4-.1.5.1.1.2.3.3.5v.3c.1.2.1.5.3.6.3 0 .4-.2.7-.2 0-.2.1-.3.3-.4v-.3c0-.1.1-.1.2-.1 0-.3.1-.6.4-.7v-.9c.1-.1.1-.3.2-.4l.2-.2c.1-.2.3-.5.4-.7s.1-.3 0-.4c-.1-.1-.1.1-.2.1h-.2c0-.2-.2-.3-.3-.4-.1-.1-.2-.2-.1-.4s-.1-.1-.2-.2v-.3s.2.2.1.3.2.3.3.4.1.3.2.5l.6-.3s0-.1.1-.1.2-.2.3-.2.1-.1.1-.3c0-.1-.2-.1-.2-.3-.1 0-.2 0-.2.1 0-.1-.1-.2-.1-.3-.1 0-.1-.1-.2-.1 0 0 .1 0 .1-.1.2.1.1.5.4.4 0 0 .1 0 0 .2.2 0 .2-.1.3-.1s0 .1.1.1.3.1.4.2 0 0 0 .1.1 0 .2.1v.2c.1.1.2.3.2.4l.2.2v.2h.2c.1-.2.1-.4.1-.6h.1V59c.1 0 .1-.1.2-.1s.1-.2.2-.3.2-.1.3-.1c.1.1.1.3.2.3s0 .1 0 .2.2 0 .3.1c.1.1 0 .1 0 .2.1 0 .1.1.2.2 0 .1-.1.1-.1.2s.1.1.1.2l.4.4c0-.2-.1-.2-.1-.4-.1-.1-.2-.1-.2-.2s0-.3.1-.3.1.2.2.2v.1c.3 0 .4-.3.3-.7 0 0-.1 0-.1-.1s-.1-.1 0-.2.1.1.2.1.2-.1.3-.1c.1-.1.2-.3.3-.5H77c.1 0 0-.4.1-.4-.1 0-.1-.1-.1-.2s-.1-.1-.1-.2v-.2c0-.1.1 0 .1-.1s-.1-.2 0-.2.1.1.2.2c0 .1 0 .2.2.3.2-.1 0-.5.1-.7.1-.1.2-.1.2-.1.1-.1.1-.3.2-.4v-.7c0 .2.1.2.1.3s0 .4.1.4c.1.1 0-.1 0-.2s0 .1.1 0-.1-.1-.1-.2-.1-.2-.1-.2 0-.3-.1-.3 0 .1-.1.1c0-.2-.3.1-.3-.1s.1-.1.1-.2 0-.3.1-.3h.1c.1 0 .3.1.4.1v.1h.2c.1 0 0-.1 0-.2s.1-.1.1-.1c.1 0 .1.1.1.1.1 0 .1-.2.1-.1l-.3.6c0 .1.1.1.1.2s0 .2.1.3c.1 0 .1-.2.2-.2.1-.1.1-.1 0-.3-.1-.1.1-.1.1-.1 0-.1-.1 0-.1-.1 0-.3.2-.2.5-.2 0 0 0-.1.1-.2s.3-.1.4-.1c.3-.1.1-.3.1-.4zm-10.1.3c.1.1.1.1.2.1v.4c-.1 0 0-.2-.1-.1s0 .3-.1.4h-.2c-.1 0-.1.1-.2.1s-.1-.1-.1 0-.1-.1 0-.1c-.1-.1-.1-.2-.1-.3.1 0 .1.4.4.3.1-.1.1-.3.2-.4v-.2c0-.3.2-.4.3-.6h.1c-.2.2-.4.2-.4.4zm.3.3c0-.1.1-.1.2-.1.1-.1 0 .1-.2.1zM71 58c-.1 0-.1 0 0 0zm2.1-4.4s-.1 0 0 0c-.1-.2-.1-.2 0 0-.1 0 .1-.1 0 0zM75 53zm.1 0zm0 0zm1.4 4s.1-.1.2-.1 0 .1 0 .1c-.1-.1-.1-.1-.2 0zM65.9 60.7c-.2 0-.3-.1-.4-.2h-.2c-.1-.1-.3 0-.3-.2s-.2 0-.2-.1-.1-.5-.4-.4c-.1-.1-.2-.2-.2-.3-.2 0-.3-.1-.4-.2-.2-.1 0 .1-.1.1s-.2-.1-.2-.3c0-.1 0 .1-.1.1s-.1-.1-.1-.1c-.1 0 0 .1-.2.1s-.2.2-.2.3c0-.1 0-.2-.1-.2s-.1.1-.2.1c-.1-.2 0-.3 0-.5s-.3-.1-.4-.1c-.1-.1.1-.2.1-.4H62c0 .1 0 .2-.1.2-.4 0-.2-.5-.2-.8.1 0 .2-.1.3-.1s.2.1.4.1 0-.1 0-.1.3 0 .4.1c0 .1.1.3.2.3v-.3s-.1-.1-.1-.2c0-.2.2-.3.4-.4V57h.2c-.1-.2.1-.1.1-.3l.3-.1c0-.1-.1-.1-.1-.2.1-.1.3-.1.4-.2 0 .1-.1.1-.1.1.1 0 .2-.1.3-.2-.1 0-.2 0-.2-.2s.1-.1.2-.1 0-.1 0-.2c.2.1.3-.1.4-.1-.1.2-.2.3-.3.4h.2c.1 0 0 .1 0 .1h.2c.1 0-.1-.2 0-.2-.1 0-.1-.1-.2-.2v-.4c-.1-.1-.1 0-.2 0s-.2-.2-.2-.3v-.1c-.1-.1-.1-.3-.3-.3-.2 0 0 .2 0 .2v-.3c-.2.1-.1-.1-.3-.1h-.2c0 .3-.1.5 0 .7 0 0-.2-.1-.2 0s.1 0 .1.1-.1.3-.2.4c-.1-.1-.1-.3-.1-.4 0-.1 0 0-.1 0h-.1c-.1-.1-.2-.2-.3-.2 0-.2-.1-.1-.1-.2s.1 0 .1-.1.1-.2.2-.2c.1-.1.1-.2.3-.3.2 0 0-.1 0-.1.2 0 .3-.1.5-.1v-.3s-.1 0-.1-.1c.1 0 .2 0 .3.1 0-.1.1 0 .2 0 0 .2.1.1.1.2s-.4.2-.4.4c.1.1.2.1.3.1.1 0 .3.3.5.3-.1-.2.1-.2 0-.4s-.1-.1-.1-.2.2.1.2.1c.1 0 0-.2.1-.1.1 0 0-.1 0-.2s-.1-.1-.1-.1c-.1 0-.2-.1-.3-.1 0-.1.1-.1.1-.1s-.1-.1-.1-.2H64c0-.1-.1-.1-.1-.2h-.3c0-.2-.2-.1-.3 0 0-.1 0-.2-.1-.2s-.3.4-.1.6h.1c0 .1-.1.2-.1.2-.1-.1.1-.1 0-.2s-.2-.2-.2-.3c-.1 0-.1-.1-.2-.1s0 .1 0 .1c0 .1.1.3 0 .4s-.1-.1 0-.2-.2.1-.3.1-.2-.1-.3-.2h.3c.1 0 0-.1 0-.2s.2-.2.4-.2c0-.1-.1-.2-.1-.3h-.4c-.2.4-.3.4-.3.6l-.1-.2c-.1 0-.2 0-.2-.1.2.1.5-.1.7-.2 0 .1.3.1.3 0s0-.2-.1-.2c-.2 0-.3.2-.4.2v-.2h-.1v.1h-.4c0 .2-.1.1-.2.2s.1 0 .1 0l-.1.1c-.1-.2-.3-.2-.5-.2 0 .1-.1.2-.2.3 0 .1.1.1 0 .2.1 0 .2 0 .3-.1-.1.2.2 0 .2.1s-.1 0-.1.1.3 0 .3.2c.1-.1.1 0 .3 0 0 0 .1-.1.1 0s0 0-.1 0 .1.2 0 .2 0-.1 0-.1c-.3 0-.4-.2-.7-.2-.1 0-.1-.1-.2-.2-.1 0-.1.1-.2.1v-.2c-.1 0-.1.1-.2.1h-.2c-.1 0 0 .1-.1.1s0 0 0-.1-.1 0-.2 0c-.3 0-.7-.1-1-.2-.2.1-.4.1-.7.2-.1.1 0 .1.1.2s.2 0 .2.1-.1.1-.1.1-.1-.1-.2-.1c-.2 0-.4.1-.5.2.2 0 .2.1.2.2h.4c-.2.3-.8 0-.7.5.1.1.1.1.1.3h.2c.1 0 0 .1 0 .1s0 .1.1.1c0-.1.1-.1.2-.1h.1c-.1.1-.2.3-.3.4-.2.1-.2.2-.4.2v.2c0 .1.2-.1.3 0s.1-.1.2-.1c.1-.2.3-.4.5-.5h.1s0-.1.1-.1c0 0-.1.2-.1.3.2 0 .3-.1.5-.2v-.4c.1 0 .1-.1.3-.1.1.1.2.1.2.2.2 0 .4.2.3.4.2 0 0-.2.1-.2 0 .2 0 .5.1.7-.1.1 0 .1 0 .2s-.1 0-.1.1v.9c.1 0 .1.1.2.2s.1.3.2.4c.1.1 0 .1 0 .1s.2.2.2.3c.1.1.1.1.2 0s0-.1 0-.3c.1 0 0 0 0 .1.1.1.2.2.2.3 0 .2 0 .3.1.5.3.1.4.2.7.2 0 .1.1.2.1.2h.2c0 .1.1.1.1.2v.1c.2 0 .2.2.4.2s0-.1.1-.1c0 .1 0 .2.1.3 0 .1-.1 0-.1.1s-.1.2-.1.3.1.3 0 .4c-.1.1.2.1.2.1.1.1-.1 0-.1.1 0 .2.1.4.3.4v.2c0 .1.2.3.3.3.1.1.1.3.2.4V62.1c-.1.1 0 .3 0 .5s-.1.4-.2.7c-.1.2.1 0 .2 0 0 .1-.1.2-.2.2 0 .1.1 0 .1.1v.2c0 .1.1.3.1.5-.1.2.1.2.2.3.1.1 0 .1 0 .1.1 0 .1 0 .2.1.1 0 .3 0 .3-.1-.1.1-.3 0-.4-.1 0-.1-.1 0-.1-.2s.1-.2.1-.3.1 0 .1-.1-.1.5-.1.4.2-.4 0-.4c.2 0 .2-.1.2-.2s.2-.1.3-.1c.1 0 0-.2-.1-.3h.3c.1 0 0-.2.1-.2 0-.2.1-.2.2-.3v-.1c.1 0 .1-.1.1-.2.1 0 .2-.1.3-.1 0-.2.2-.4.1-.6 0 0 .1-.1.1-.2h.1s.1-.1.1-.2 0-.2.1-.2 0-.1 0-.2c.1-.2.1-.3 0-.4zM62.3 53c.1 0 0 .1 0 0 0 .2-.1 0 0 0zm-.1.2c.1 0 .1.1.2 0s-.1.1-.2 0zm-1.6 4.6c.1 0 .1.1 0 0 .2.1 0 .1 0 0z"/><path class="st12" d="M72 53.5c0-.1-.2-.2-.2-.4.2 0 .3-.2.4-.3.2-.1.3-.1.3-.2h-.1v.1c-.2 0-.4.1-.6.2 0 .2-.1.1-.1.3s-.1.1-.1.2c.2 0 .3.1.4.1zM77 52.9c.1 0 .1-.1.2-.2-.1 0-.1-.1-.3-.1-.1 0 0 .1 0 .1h-.2c0 .2.2.1.3.2zM67.5 54.3c0-.1.1 0 .2-.1 0-.1-.1-.2-.1-.3h-.3c-.1 0-.1-.1-.2-.1s-.1.1-.1.2.1 0 .2 0-.2.1-.2.2c.2 0 .1.1.2.1h.3zM63.4 54.3c-.1 0 0-.1-.1-.2s-.1-.1-.2 0 0 .2-.1.2.1.1.2.1c-.1-.2.2.1.2-.1zM68.7 55.5c-.1 0-.1 0 0 0-.1-.2-.3-.3-.2-.5s-.1-.1-.1-.1.1 0 .1-.1c-.1 0-.2 0-.2.1v.4l.1.1c0 .1-.1.2-.1.1 0 .1 0 .2.1.3-.1 0-.2 0-.2.1h.5c-.1-.3-.2-.4 0-.4zM67.9 55.6c.1 0 .2 0 .2-.1.1-.1 0-.1 0-.3h-.2c0 .1-.1 0-.1.1s0 .2.1.3zM78.1 56.5c.1 0 0 .1 0 0 .2.1.1-.1.3-.2-.2 0-.2-.1-.4-.1l.1.3c-.1.1-.1 0 0 0zM77.4 57.5c0 .1.1.1.1.2 0-.1.1-.2.2-.2h.1c.1-.1.3-.1.4-.3.1-.1-.1-.4-.1-.6H78v.5c-.1.1-.2.1-.3.2-.1-.1-.3-.1-.3.2 0 .1.2-.1 0 0zM70.1 57.2c0 .1.1 0 .2.1 0-.1 0-.1-.2-.1-.1 0 0 0 0 0zM76.8 58.3c0 .1.1.1.1.2.1 0 .1-.2.1-.3s-.2 0-.2.1zM63 58.2zM63.3 58.4c-.2-.1-.1 0 0 0zM63.3 58.3v.2h.1c0-.1 0-.1-.1-.2zM63.2 58.8c.1 0 .2 0 .2.1s.1 0 .2-.1c0-.2-.2-.2-.4-.2 0-.1-.1-.1-.1-.1s-.2 0-.2-.1h-.4c0 .1-.1.1 0 .2s.1-.1.3-.1.1.2.3.2c.1 0 .2 0 .1.1.2-.1 0 0 0 0zM63.6 58.5c-.2 0 0 .1 0 0zM76.9 58.8c0 .1.1.1.2.2 0-.1.1-.1.1-.3 0-.1-.3 0-.3.1zM76.2 58.9c.1 0 .1-.1.1-.2h-.1c-.1.1-.1.1 0 .2zM62.9 58.8l.2.1c.1 0-.1-.1-.2-.1zM63.7 58.9c.1 0 .2 0 .2-.1l-.2.1zM66.9 58.9c0 .1-.1 0 0 0zM77.2 59.4c.1.1.1 0 .2 0s-.1.1 0 .2c0-.1.2-.2.3-.1 0-.1-.1-.1-.2-.2s0-.2-.1-.2 0 .1 0 .2c-.1.1-.2 0-.2.1zM74.2 59.5c0 .2-.1.2 0 .3s.1-.1.2-.1l-.2-.2zM76.2 60.4c0 .1.2.2.1.3.2 0 .2.1.4.1 0-.1.1 0 .1-.1s-.1 0-.1 0 0-.2.2-.3c-.1-.1 0-.2 0-.3.1 0 .1-.1.1-.1-.1-.1-.2-.1-.3-.1-.1.2-.5.2-.5.5zM75.6 60.1c0-.1-.1-.1-.1-.2s-.1-.1-.1-.1h-.2c0 .4.4.3.4.7.1 0 .2.2.3.2s0-.3 0-.4c-.1 0-.2-.1-.3-.2z"/><path class="st12" d="M77.3 60.4c0-.1-.2-.1-.2-.2-.2.1-.3.5 0 .6 0-.1 0-.2.1-.2s.1.2.2.1-.1-.2-.1-.3c-.1 0-.1 0 0 0zM77.9 60.3c-.1-.1-.3-.1-.3.1 0 .1.3 0 .3-.1z"/><path class="st12" d="M78.3 60.4H78s0 .1-.1.1 0-.1-.2-.1-.1 0-.1.1.1 0 .1 0c.2.1.3.2.4.3v.2c.2-.1.2.1.3.1.1 0 .1-.2.2-.1.1 0 .2.2.3.1.1.1.1 0 .1-.1s-.2-.1-.2-.2v-.1c-.3-.1-.4-.3-.5-.3zM76.7 61.1c0-.1-.1-.1-.1-.2-.2 0-.4-.1-.6-.1 0 .1-.1.1-.1.2.3 0 .4.2.8.1zM78.9 62.4V62c0-.2-.1-.1-.1-.1 0-.2-.2-.3-.2-.6h-.1c-.1 0 0 .5-.1.5-.1.1 0-.1-.2-.1s-.1 0-.1-.2.1 0 .1-.1-.4 0-.6-.1 0 .1 0 .1c-.1 0-.2.1-.3.1 0 .1 0 .3-.1.3H77c-.1 0 0 .2-.1.2s0-.1-.1 0 0 .3-.2.3-.2 0-.2.1c.1.2.1.3 0 .5 0 0 .1.1.1.2v.4c.1 0 .1.1.2.1s.2-.2.4-.1c.2-.1.4-.2.6-.1.1.1.2.2.2.3.1-.1.1.1.2 0s0 .2 0 .2c.2.1.4.1.6.1l.2-.2c0-.2.2-.1.1-.3.1 0 .1-.1.2-.1s.1-.2.1-.3c0-.2 0-.4-.1-.6-.2-.2-.3-.1-.3-.1zM71.9 61.3c-.1.1-.1.2-.1.3-.1 0-.2.1-.3.2v.2c0 .1 0 .1-.1.2.1.1 0 .3.1.4.1.1.1 0 .3 0s0-.2.1-.3v-.2c0-.2 0-.3.1-.5 0 0 0-.3-.1-.3zM80.5 63.5c0-.1 0-.2-.1-.2l.1.2c-.1.2-.2.2-.2.3.2 0 .1.1 0 .2.2 0 .2-.2.3-.3.1-.1.1-.1.2-.1s-.1-.1-.3-.1z"/><path class="st12" d="M80.2 63.9c0 .1-.1.1-.1.2H80c0 .1-.1.2-.2.2-.1.1-.2.2-.2.3.1-.1.2 0 .3 0s.1-.1.1-.2h.2c0-.2.2-.1.2-.3 0-.3-.1-.2-.2-.2zM78.2 64s.1.2.1.3c0 .1.2-.1.2-.3-.1 0-.3-.1-.3 0zM64.6 64.9c.2-.1 0-.1 0 0z"/><path class="st10" d="M81 54.2c1.1.1 2.1-.8 2.2-1.9.1-1.1-.8-2.1-1.9-2.2h-2.8c-1.1.1-2 1-1.9 2.2.1 1 .9 1.8 1.9 1.9H81z"/><path class="st12" d="M78.6 54c-.5 0-.9-.2-1.2-.5-.3-.3-.5-.8-.5-1.3 0-1 .8-1.8 1.8-1.8s1.8.8 1.8 1.8c-.1 1-.9 1.8-1.9 1.8zm0-3.3c-.8.1-1.4.8-1.4 1.6.1.7.6 1.3 1.4 1.4.8-.1 1.4-.8 1.3-1.6-.1-.7-.6-1.3-1.3-1.4z"/><path class="st12" d="M80.9 54c-1 0-1.7-.8-1.7-1.8s.8-1.7 1.8-1.7 1.7.8 1.7 1.8c-.1.9-.8 1.7-1.8 1.7zm0-3.3c-.8.1-1.4.8-1.3 1.6.1.7.6 1.2 1.3 1.3.8-.1 1.4-.8 1.3-1.6 0-.6-.6-1.2-1.3-1.3z"/><path class="st12" d="M78.6 53.9c-.1 0-.3-.1-.4-.2-.3-.5-.5-1-.4-1.6 0-1 .4-1.7.8-1.7s.8.7.8 1.7c0 1.1-.3 1.8-.8 1.8zm0-3.1c-.2 0-.5.5-.5 1.4 0 .5.1 1 .4 1.4 0 0 .1.1.2.1.2 0 .5-.5.5-1.4-.1-1-.4-1.5-.6-1.5z"/><path class="st12" d="M80.2 52.4H77v-.3h3.2zM79.9 51.6h-2.6v-.3h2.6zM79.9 53.1h-2.6v-.3h2.6z"/><path class="st10" d="M64.3 51.6h10.9v1.5H64.3z"/><path class="st7" d="M57.6 53.1H61c.3 0 .5.2.5.5v3c0 .3-.2.5-.5.5h-3.3c-.3 0-.5-.2-.5-.5v-3c-.1-.3.2-.5.4-.5z"/><path class="st13" d="M61 53.2h-.6v.8h1.1v-.4c-.1-.2-.3-.4-.5-.4zM58.7 55.6v-.5h-1.5v.9h1.1c.2 0 .4-.1.4-.4zM58.3 54.1h-1.1v.9h1.5v-.5c0-.2-.1-.4-.4-.4z"/><path class="st13" d="M58.8 54.5h1c0-.2.2-.4.4-.5v-.9h-1.9v.9c.3.1.5.3.5.5zM58.8 54.6h1v1h-1zM59.8 55.7h-1c0 .2-.2.4-.4.4v1h1.9v-1c-.3 0-.4-.2-.5-.4z"/><path class="st13" d="M59.9 55.6c0 .2.2.4.4.4h1.1v-.9h-1.5v.5zM60.3 54.1c-.2 0-.4.2-.4.4v.5h1.5v-.9h-1.1zM58.3 53.2h-.7c-.2 0-.4.2-.4.4v.4h1.1v-.8zM57.2 56.6c0 .2.2.4.4.4h.7v-1h-1.1v.6zM60.3 57.1h.7c.2 0 .4-.2.4-.4v-.5h-1.1v.9z"/><path transform="rotate(-.14 67.246 63.19)" class="st10" d="M62.7 62.9h9.1v.6h-9.1z"/><path transform="matrix(1 -.00593 .00593 1 -.365 .4)" class="st10" d="M64.6 61.5H70v.3h-5.4z"/><path class="st10" d="M56.7 60.7h1.6v.3h-1.6zM56.7 65.5h13v.6h-13zM63.3 59.3h5.8v.6h-5.8zM56.7 59.3h5.8v.6h-5.8zM69.9 59.3h5.8v.6h-5.8zM76.5 59.3h5.8v.6h-5.8z"/><path class="st9" d="M40.1 29.6H56c1.5 0 2.6 1.2 2.6 2.6v37.5c0 1.5-1.2 2.6-2.6 2.6H40.1c-1.5 0-2.6-1.2-2.6-2.6V32.3c0-1.5 1.2-2.7 2.6-2.7z"/><path class="st10" d="M40.5 30h15c1.5 0 2.6 1.2 2.6 2.6v36.6c0 1.5-1.2 2.6-2.6 2.6h-15c-1.5 0-2.6-1.2-2.6-2.6V32.7c0-1.5 1.2-2.7 2.6-2.7z"/><path class="st9" d="M49.4 32.2c0 .1-.1.2-.2.2h-2.4c-.1 0-.2-.1-.2-.2s.1-.2.2-.2h2.4c.1 0 .2.1.2.2zM47 69.2h2.2c.2 0 .3.1.3.3v.6c0 .2-.1.3-.3.3H47c-.2 0-.3-.1-.3-.3v-.6c0-.2.1-.3.3-.3zM37.9 36.3h-.5v-1.6h.5zM37.9 40.6h-.5v-2.8h.5zM37.9 43.8h-.5v-2.6h.5z"/><path class="st14" d="M38.8 34.5h18.5v32.9H38.8z"/><path class="st15" d="M68.6 36.6c0 .8.6 1.4 1.4 1.4l.4-.7c.8 0 1.4-1.2 1.4-1.9v-.5c0-.8-.6-1.4-1.4-1.4H70c-.8 0-1.4.6-1.4 1.4v1.7z"/><path class="st15" d="M71.4 34.9h.3v.4c.2 1.2 1.2 2 2.4 2 0 1.3-1 2.4-2.4 2.4-1.3 0-2.4-1-2.4-2.4.1-1.3 1-2.3 2.1-2.4z"/><path class="st0" d="M69.1 34v.4c0 .8.6 1.5 1.3 1.7 0 .4.1.7.2 1.1.1.7.9.8.9.8.1.6-2.4 1.5-2.3 1.4.3-.5.6-1 .7-1.5.1-.4 0-.8-.2-1.1-.2-.2-.5-.4-.8-.4h-.1v-1.5c0-.4.1-.7.3-.9z"/><path class="st5" d="M67.6 46.9c.2-1 .5-1.9.9-2.8.4-.6.8-1.1 1.3-1.5.7.4 1.5.2 2.2.7.1.3.2.6.2.9.1.6.2 1.1.3 1.7 1.1.1 3.7.3 4.7.5.3 0 .5.2.7.5 0 .9-.8 1.5-1.3 2.3-.1.1-6.3 0-7.4.1 0-.1-2.3-.1-1.6-2.4z"/><path class="st16" d="M77.4 48.2c.2-.2.3-.4.4-.7.1-.4.1-.7 0-.8-.5-.4-2 .4-6 6.4-.9 1.3-2.7 3.8-2.2 3.5.9-.6 1.1-1.3 1.7-1.9 4.8-5 5.3-5.6 6.1-6.5z"/><path class="st1" d="M69.4 56.3l.7-1.1c.1-.1.2-.2.3-.2l-.6 1c-.1.1-.1.4 0 .5h.1l-.2.3c-.1.1-.2.2-.4.1-.1-.2-.1-.4.1-.6-.1 0 0 0 0 0z"/><path class="st0" d="M69.3 41.6l-1.1-1.9c-.3-.4-.3-.9.1-1.3.1-.1.2-.1.3-.2l3.4-.8c.6 0 1 .6 1 1.1l-.7 2.3-3 .8z"/><path class="st1" d="M72.6 37.8c-.5 2.2.7 5.9.7 5.9s.7.1.8-.2c.1-.4-.3-1.5-.5-4.5-.2-1.8-.9-1.5-1-1.2zM68 38.7c-.3 2.6-1.1 5.9-1.1 5.9s.7.6.9.3c.2-.3.6-1.9.9-4.8.3-1.8-.7-1.8-.7-1.4z"/><path class="st17" d="M72.1 42.4c0 .3-.2.9-.4.9l-2-.2c-.2 0-.7-.2-.7-.4v-.9c0-.2.1-.5.4-.5l2.5-.7c.2 0 .4.2.4.5l-.2 1.3z"/><path d="M71.9 43.3h-.3l-1.9-.1c-.2 0-.3 0-.3-.1V43h.3l1.9.1c.1 0 .2 0 .3.1v.1z" fill="#15100c"/><path class="st17" d="M72.6 38.4c0-.1-.1-.2-.2-.3-1.1.9-2.6 1.2-4 .7v.2c0 .6.1 1.3.1 1.9s.7.9 1.1.9c.9 0 1.9-.1 2.8-.5.3-.1.9-.7.8-1.1s-.4-1.2-.6-1.8z"/><path class="st5" d="M69.4 38s-1.2 0-1.4.7c-.1.5 0 1.1.3 1.6 0 0 .4 1.2.5 1.8 0 .4 0 .7-.1 1.1.3 0 .5-.1.8-.2.5-.3.2-1.1.1-1.4-.1-.6-.2-1.3-.3-1.9-.1-.3.1-1.7.1-1.7zM73.3 38.3s.1-.5-.2-.7c-.5-.2-1-.3-1.6-.2-.2 0-.3.1-.5.2 0 0 1.1.3 1.1 2.2 0 .5-.1 1-.2 1.4-.1.5-.1 1-.1 1.4 0 0 .6.1.6.2.1-.4.2-.8.4-1.2.4-1.1.5-2.2.5-3.3z"/><path class="st1" d="M72.1 37.3c.5.4.8.7.8 2.9 0 .4-.1 1-.1 1.6l.3-.4c.2-1 .3-2 .3-3 0-.2-.1-.5-.2-.7-.4-.3-.8-.4-1.1-.4z"/><path class="st0" d="M76.3 48.6c.1-.2.2-.5.3-.7.1-.3 0-.6-.2-.8-.5-.5-1.7.4-3.6 4.3-1 2-1.7 3.8-3 4.9-.2.2-.2.2-.3.4-.1.4-.2.8-.1 1.2.3-.3.8-1.1 1.5-2 1.9-2.3 3.7-4.8 5.4-7.3z"/><path class="st5" d="M69 57.5l.6-1.2c0-.1.2-.2.3-.2l-.5.9c-.1.2 0 .4.1.5h.2l-.1.3c-.1.2-.2.2-.4.2-.2-.2-.3-.4-.2-.5z"/><path class="st16" d="M64.1 48.7c-.1.1-.2.2-.2.4v.6c.1-.1.1-.2.1-.3 0-.3 0-.5.1-.7z"/><path class="st16" d="M64 49c-.1.2-.2.4-.2.6 0 .1 0 .3-.1.3v-.8c.1-.4.7-.4.3-.1z"/><path class="st0" d="M64.3 48.5c0 .1-.1.3-.1.4 0 .1.1.2.2.3-.3.1-.4-.3-.6-.3s.5-.7.5-.4z"/><path class="st0" d="M65.3 47.3c-.4.2-.7.6-1 .9-.2.3-.1.6-.4.8v.1c-.1 0-.1.1-.1.1l-.1.1c0-.3.1-.6.2-.9.4-.5.8-.9 1.2-1.3.4-.4.7-.2.2.2z"/><path class="st0" d="M64 49c-.1-.1-.1-.1 0 0-.1 0-.1 0 0 0-.2.1-.3.2-.4.4s-.1.4-.2.5c.1-.1.2-.2.2-.3.1-.2.2-.4.4-.6zM65.6 46.5c.3 0 1.1-.5 1.2-.4-.8.8-1.7 1.5-2.7 2.1l1.5-1.7z"/><path class="st1" d="M65.4 46.9c.1 0 .2.2.2.3.6-.4 2.2-1.7 2.3-2.5 0-.3-.4-.9-1.2 0-.6.6-1.1 1.4-1.5 2.2h.2z"/><path class="st16" d="M75.2 39.4c.1-.2.1-.3.1-.5 0-.1-.1-.6-.1-.6v.4c.1.2 0 .4 0 .7z"/><path class="st16" d="M75.2 39.3c.1-.2 0-.4-.1-.6-.1-.1-.1-.2 0-.4.1.2.2.3.2.5 0 .1.1.2.1.3 0 .3-.4.6-.2.2z"/><path class="st0" d="M73.5 43.3c.2-1 .7-1.9 1.2-2.7 0 0 .7-.6-.4 2.2-.4.9-.8.6-.8.5z"/><path class="st0" d="M75.2 39.1l.2.3c0 .3-.1.5-.2.8-.1.4-.3.8-.3 1.2 0 .1-.5.1-.5.1s.4-.8.5-1.2.1-.7.2-1.1c0-.1.1-.2.1-.4 0-.1.1.1 0 .3 0 .2.1.2.1.2l-.1-.2z"/><path class="st0" d="M75.2 39.5v-.4c-.1-.2-.2-.4-.3-.5 0 .1 0 .2.1.3.1.2.2.4.2.6z"/><path class="st16" d="M75.1 39.4l-.1.5c0-.1 0-.2.1-.3v-.2z"/><path class="st16" d="M75 39.4V39c0 .1 0 .2-.1.3v.3c.1.1.1.1.1.2 0-.1.1-.2 0-.4.1-.1 0 0 0 0z"/><path class="st1" d="M74.5 42.3c0-.1-.5-.2-.6-.1l-.1.1s-.7 1.1-.1 1.4c-.1 0 .5.1.8-1.4z"/><path class="st9" d="M70.8 46.3h6v.1h-6z"/><path class="st9" d="M73.5 46.3c0 .1.1.2.2.2h3.1c.1 0 .2 0 .3-.3l1.5-2.8c0-.1-.1-.2-.2-.2l-3.1.1c-.1 0-.2.1-.2.2l-1.6 2.8z"/><path class="st8" d="M73.8 46.4h-3c.2.1.3.1.5.1h5c.2 0 .3 0 .5-.1h-3z"/><g opacity=".6"><defs><path id="SVGID_1_" d="M38.8 34.5h18.5v32.9H38.8z"/></defs><clipPath id="SVGID_2_"><use xlink:href="#SVGID_1_" overflow="visible"/></clipPath><g clip-path="url(#SVGID_2_)"><path class="st21" d="M36.7 44.5h1.4v.5h-1.4zM36.7 51h1.4v.5h-1.4z"/><path class="st21" d="M38 41.6h31.9v24.5H38z"/><path class="st22" d="M38 41.5h31.9v.8H38z"/><path class="st23" d="M63.1 44.6h4.7v5.3h-4.7zM57.4 44.6h4.7v5.3h-4.7zM51.6 44.6h4.7v5.3h-4.7zM45.9 44.6h4.7v5.3h-4.7zM40.1 44.6h4.7v5.3h-4.7zM61.3 52.7h6.5v11.1H57.4V52.7z"/><path class="st21" d="M62.1 52.7h5.7v2.1H57.4v-2.1h3.9z"/><path class="st22" d="M61.3 52.7h6.8v.5H57v-.5z"/><path class="st24" d="M61.3 63.3h6.8v.5H57v-.5z"/><path class="st23" d="M44.1 52.7h6.5v11.1H40.1V52.7z"/><path class="st21" d="M44.9 52.7h5.7v2.1H40.1v-2.1h4z"/><path class="st22" d="M44.1 52.7h6.8v.5H39.8v-.5z"/><path class="st24" d="M44.1 63.3h6.8v.5H39.8v-.5z"/><path fill="#ededed" d="M35.1 43.7H37v8.6H33.9v-8.6z"/><path class="st24" d="M51.6 52.7h4.7v12.7h-4.7z"/><path class="st22" d="M52.1 60.2h3.8v.3h-3.8zM52.1 61h3.8v.3h-3.8z"/><path class="st23" d="M50.6 65.4h6.8v1h-6.8z"/><path class="st22" d="M51.6 52.7h4.7v2.1h-4.7z"/><path class="st24" d="M37.2 66.1h33.6v1.5H37.2zM37.2 40.2h33.6v1.5H37.2z"/></g></g><path class="st26" d="M46.4 67.5h6.3c1.2 0 1.3-1.7.8-2-1.4-.8-5.9-1.2-5.9-1.2l-3.1 2.8 1.9.4z"/><path class="st27" d="M50.6 58.2s1.2-.3 1.7 1.2c.6 1.6.8 3.3.6 5 0 .2-.2.9-1.5 1-.5 0-.3-1.1-.3-1.1-.3-.8-.5-1.7-.7-2.6-.2-1.2-.1-2.3.2-3.5z"/><path class="st11" d="M51.5 58.4l-3-1-2.3-.2-2.4.8s-.8.5-.1 2.3c.5 1.5.6 3.1.5 4.6l6.4.2c.1-1.7.3-3.5.5-5.2.1-.5.2-1 .4-1.5z"/><path class="st27" d="M47.2 65h.3c.4-2.5.4-5 0-7.6l-.3.2c0 2.6-.1 5.1 0 7.4z"/><path class="st16" d="M48.4 58.1c0 .3-.3.6-.6.7H47c-.3-.1-.6-.3-.6-.7-.1-.6-.1-1.1-.2-1.7 0-.5.2-.9.6-1.2.4-.2.9-.2 1.3 0 .4.3.6.7.6 1.2-.1.6-.2 1.2-.3 1.7z"/><path class="st27" d="M47.4 58.8l-.6.9-1-1.2.2-.7.3-.2v.5zM47.4 58.8l.6.9.9-1.1-.2-.7-.2-.3-.1.5z"/><path class="st1" d="M47.3 54.1c-.2 0-.4.2-.5.4h-.3c-.3 0-.5.2-.5.5v1.3h.4v-.5c0-.2.2-.4.4-.4h.1c.4 0 .7-.3.7-.7v-.5l-.3-.1z"/><path class="st16" d="M46.6 56.7c0 .2-.1.3-.3.3-.2 0-.3-.1-.3-.3v-.4c0-.2.1-.3.3-.3.1 0 .2.1.3.2"/><path class="st1" d="M47 54.6v-.5h1.1c.4 0 .7.3.7.7v.5h-1.1c-.4 0-.7-.3-.7-.7z"/><path class="st0" d="M48.7 57.2c0 .4-.2.7-.5.9-.5.2-1 .2-1.5 0-.3-.2-.5-.5-.5-.9v-2.3c.1-.3.3-.5.6-.5h1.4c.3 0 .6.2.6.5l-.1 2.3z"/><path class="st1" d="M47.6 54.1c.2 0 .4.1.6.3h.2c.3 0 .5.2.5.5v1.3h-.4v-.5c0-.2-.2-.4-.4-.4h-.4c-.4 0-.7-.3-.7-.7v-.5h.6z"/><path class="st0" d="M48.3 56.3c0-.2.1-.3.3-.3.2 0 .3.1.3.3v.4c0 .2-.1.3-.3.3-.1 0-.2-.1-.3-.2"/><path class="st1" d="M47.1 54.8v-.6h-.5c-.4 0-.7.3-.7.7v.5h.6c.1-.4.3-.6.6-.6z"/><path class="st28" d="M41.2 76.1c-.1.1 0 .3 0 .3.5.1 1.1.1 1.6 0 .2-.1.3-.1.4-.2l.1-.1h.1l.2-.1c.1-.3.1-.5 0-.8 0 0-1.1-.3-1.2-.1-.4.4-.8.7-1.2 1zM52.5 75.5l.1.9.9.1.1-.1c.1 0 .1.1.2.2h.5l1.8.2s.1-.2 0-.3c-.1-.1-.2-.1-.3-.1-.5-.2-1.8-.7-2-1.2 0-.6-1.3.3-1.3.3z"/><path class="st0" d="M51.1 63.9L48 65.1c1.2.2 2.4.2 3.6 0 .9-.1-.4-1.3-.5-1.2z"/><path class="st26" d="M44.1 65.8s-.3 2.8-.3 4.3c.1 1.7 0 3.4-.2 5.1-.5.1-1 .1-1.5 0 0 0-.5-7-.7-8.2-.1-1.1.4-1.9 2.7-1.2z"/><path class="st29" d="M53.2 66.5c-.4.5-1.1.9-1.7.9-.5.1.7 8.2.7 8.2l1.9-.6-.4-9-.5.5zM48 67.4s-2.5.4-4.1.5c-.6.1-1.1-1.6-1.2-1.7-.2-.2-.6-.4-.9-.4.4-.4 2.2-.7 4.1-1.2 2-.5 2.3-.2 2.3-.2l-.2 3z"/><path class="st26" d="M45.9 64.6c-1.9.5-3.8.8-4.1 1.2.3 0 .7.2.9.4 0 0 .1.6.2.8-.3-.6 4.2-2.2 5.2-2.6-.7-.1-1.5 0-2.2.2z"/><path class="st29" d="M43.8 67.4l-.2 5.5-.2 1.3v-1.3l.1-.8-.5-1.2-.2-2.9.3.1v-1.3z"/><path class="st26" d="M53.1 65.8l.5.1.2 6.6-1 2.4.5-1.6-.2-3.3s-.7 1.6-.7 1.5.6-3.5.6-3.5c-.2.2-.4.3-.6.5.1-.9.4-1.8.7-2.7z"/><path class="st11" d="M45.2 58s-1-.8-2 .7c-1 1.6-1.7 3.2-2.2 5-.2.9 0 1.8.5 2.5.1.1 1 0 1 0l.5-.4-.2-.4V65s.7-1.7 1.6-3.3c.5-1.1.8-2.4.8-3.7z"/><path class="st0" d="M42.8 64.5l3.2.2s-3.1 1.4-3.2 1.2c-.6-1.4 0-1.4 0-1.4z"/><path class="st0" d="M44.6 64.4l.2-.1c.1.1.3.2.4.2h1.6v.1l-1.1.2 1.1.1s.1 0 .1.1v.1l-1.2.2.5.1s.1 0 .1.1v.1l-1.1-.1s-.8-1-.6-1.1z"/><path class="st0" d="M45.7 65.1l.7.1c.1 0 .2 0 .3.1v.1l-1.1-.1.1-.2z"/><path class="st30" d="M50.2 65.6v-.2h-6.3v.2c.1.2.3.2.5.2h5.2c.2.1.4 0 .6-.2z"/><path fill="#879ba6" d="M44.9 65.5h4.2v.1h-4.2z"/><path d="M50.2 65.4v-4.2c0-.1-.1-.2-.2-.2h-5.9c-.1 0-.2.1-.2.2v4.2h6.3z" fill="#e4eef3"/><path class="st30" d="M47.4 63.3c0 .2-.2.4-.4.3-.2 0-.3-.2-.3-.3 0-.2.2-.4.4-.4.1 0 .3.1.3.4 0-.1 0-.1 0 0z"/><path class="st27" d="M42.4 66.1l-.3-1.4.4-.4.8.2-.2 1.5z"/><path class="st11" d="M52.2 65.1l.1-.5-1-.9-.6.2.8 1.4z"/><path class="st33" d="M32.8 39.3V42c0 .7.8 1.3 1.9 1.3s1.9-.6 1.9-1.3v-2.7h-3.8z"/><path class="st34" d="M36.6 39.3V42c0 .7.9 1.3 1.9 1.3s1.9-.6 1.9-1.3v-2.7h-3.8z"/><path class="st33" d="M40.4 39.3V42c0 .7.8 1.3 1.9 1.3s1.9-.6 1.9-1.3v-2.7h-3.8z"/><path class="st34" d="M44.1 39.3V42c0 .7.8 1.3 1.9 1.3 1 0 1.9-.6 1.9-1.3v-2.7h-3.8z"/><path class="st33" d="M47.9 39.3V42c0 .7.9 1.3 1.9 1.3s1.9-.6 1.9-1.3v-2.7h-3.8z"/><path class="st34" d="M51.7 39.3V42c0 .7.8 1.3 1.9 1.3s1.9-.6 1.9-1.3v-2.7h-3.8z"/><path class="st33" d="M55.4 39.3V42c0 .7.8 1.3 1.9 1.3s1.9-.6 1.9-1.3v-2.7h-3.8z"/><path class="st34" d="M59.2 39.3V42c0 .7.8 1.3 1.9 1.3 1 0 1.9-.6 1.9-1.3v-2.7h-3.8z"/><path class="st35" d="M38.3 35.1l-5.5 4.2h3.8c1.4-1.4 2.7-2.8 4.1-4.2h-2.4z"/><path class="st36" d="M40.7 35.1c-1.4 1.4-2.7 2.8-4.1 4.2h3.8l2.7-4.2h-2.4z"/><path class="st35" d="M43.1 35.1l-2.7 4.2h3.8c.5-1.4.9-2.8 1.4-4.2h-2.5z"/><path class="st36" d="M45.5 35.1c-.5 1.4-.9 2.8-1.4 4.2h3.8v-4.2h-2.4z"/><path class="st35" d="M47.9 35.1v4.2h3.8c-.5-1.4-.9-2.8-1.4-4.2h-2.4z"/><path class="st36" d="M50.3 35.1c.4 1.4.9 2.8 1.4 4.2h3.8l-2.7-4.2h-2.5z"/><path class="st35" d="M52.7 35.1l2.7 4.2h3.8l-4.1-4.2h-2.4z"/><path class="st36" d="M59.2 39.3H63l-5.5-4.2h-2.4l4.1 4.2z"/><path class="st35" d="M38.3 34.2h2.4v.9h-2.4z"/><path class="st34" d="M40.7 34.2h2.4v.9h-2.4z"/><path class="st35" d="M43.1 34.2h2.4v.9h-2.4z"/><path class="st34" d="M45.5 34.2h2.4v.9h-2.4z"/><path class="st35" d="M47.9 34.2h2.4v.9h-2.4z"/><path class="st34" d="M50.3 34.2h2.4v.9h-2.4z"/><path class="st35" d="M52.7 34.2h2.4v.9h-2.4z"/><path class="st34" d="M55.1 34.2h2.4v.9h-2.4z"/><path class="st37" d="M84.5 74.4z"/><path class="st17" d="M94.5 72.7V74c0 .4-.4.7-1.4 1.1-2.5.7-5.2.8-7.8.4-1.2-.3-1.9-.6-1.9-1v-1.3c0 .4.6.8 1.9 1 2.6.4 5.2.2 7.8-.5 1-.3 1.4-.7 1.4-1z"/><path class="st37" d="M92.6 71.7c2.3.5 2.5 1.4.5 2-2.5.7-5.2.8-7.8.4-2.3-.4-2.5-1.3-.5-2 2.6-.7 5.2-.8 7.8-.4zM86 73.9c2.2.4 4.4.2 6.5-.4 1.7-.6 1.5-1.3-.4-1.7-2.2-.4-4.4-.2-6.5.3-1.7.7-1.5 1.4.4 1.8"/><path class="st17" d="M92 71.9c1.9.4 2.1 1.1.4 1.7-2.1.6-4.3.7-6.5.3-1.9-.4-2.1-1.1-.4-1.7 2.1-.6 4.4-.7 6.5-.3z"/><path class="st14" d="M85.5 72.4c2.1-.6 4.3-.7 6.5-.3.9.2 1.5.5 1.6.8.1-.4-.4-.7-1.6-.9-2.2-.4-4.4-.2-6.5.4-.8.2-1.2.5-1.1.8.1-.3.4-.6 1.1-.8z"/><path class="st14" d="M90.1 73.2c.2.1 0 .3-.3.4-.6.2-1.1.2-1.7.2-.2 0-.4 0-.6-.1h-.3l-.4-.1.2-.1h-.5l-.5-.1h.2-.4l.4-.1h.3l1.3-.4.4-.1 1.1-.4-.3-.1.4-.1h.4l.5.1-.2.1h.5l.5.1H91c.6.1.7.4.1.5-.3.1-.6.2-1 .2zm-1.8.4c.3 0 .7 0 1-.1s.3-.3-.1-.3l-.9-.2-1.2.4.9.2h.3m1.5-1.1l-1 .3.8.2h.3c.3 0 .6 0 .9-.1s.3-.2-.1-.3l-.9-.1"/><path class="st38" d="M90.1 73c.2.1 0 .3-.3.4-.6.2-1.1.2-1.7.2-.2 0-.4 0-.6-.1h-.3l-.4-.1.2-.1h-1l.2-.1-.3-.1.4-.1h.3l1.3-.4.5-.2 1.1-.4-.3-.1.4-.1h.5l.5.1-.2.1h.4l.5.1H91c.6.1.7.4.1.6-.2.2-.6.3-1 .3zm-1.8.4c.3 0 .7 0 1-.1s.3-.3-.1-.4l-.9-.2-1.2.4.9.2.3.1m1.5-1.1l-1.1.3.8.2h.3c.3 0 .6 0 .9-.1s.3-.2-.1-.3l-.8-.1"/><path class="st14" d="M84 73.7V75c.4.2.9.4 1.4.5.7.1 1.4.2 2.1.2v-1.4c-.7 0-1.4-.1-2.2-.2-.5-.1-.9-.2-1.3-.4z"/><path class="st37" d="M85 72.8z"/><path class="st17" d="M95 71.1v1.3c0 .5-.4.7-1.4 1-2.5.7-5.2.8-7.8.4-1.2-.2-1.9-.6-1.9-1v-1.3c0 .4.6.8 1.9 1 2.6.4 5.3.3 7.8-.4 1-.3 1.4-.7 1.4-1z"/><path class="st37" d="M93.1 70.1c2.3.4 2.5 1.4.5 2-2.5.7-5.2.8-7.8.4-2.3-.4-2.5-1.3-.5-2 2.5-.7 5.2-.8 7.8-.4zm-6.7 2.2c2.2.4 4.4.2 6.5-.3 1.7-.5 1.5-1.3-.4-1.7-2.2-.4-4.4-.2-6.5.3-1.6.6-1.4 1.4.4 1.7"/><path class="st17" d="M92.5 70.3c1.9.4 2.1 1.1.4 1.7-2.1.6-4.3.7-6.5.3-1.9-.4-2.1-1.1-.4-1.7 2.1-.5 4.3-.7 6.5-.3z"/><path class="st14" d="M86 70.8c2.1-.6 4.3-.7 6.5-.3 1 .2 1.5.5 1.6.8.1-.4-.4-.7-1.6-.9-2.2-.4-4.4-.2-6.5.4-.8.2-1.2.5-1.1.8.1-.3.5-.6 1.1-.8z"/><path class="st14" d="M90.7 71.6c.1.1 0 .3-.3.4-.6.2-1.1.2-1.7.2-.2 0-.4 0-.6-.1h-.3l-.5-.1h.2H86.9l-.4-.1.2-.1-.3-.1.4-.1h.3l1.3-.4.4-.2 1.1-.4h-.3l.4-.1h.4l.5.1h.3l.5.1h-.2c.6.1.7.4.1.5-.2.3-.6.4-.9.4zm-1.9.4c.3 0 .7 0 1-.1.4-.1.3-.3-.1-.3l-.9-.2-1.2.4.9.2h.3m1.5-1.2l-1.1.4.8.2h.3c.3 0 .6 0 .9-.1s.3-.2-.1-.3l-.8-.2"/><path class="st38" d="M90.7 71.4c.1.1 0 .3-.3.4-.6.2-1.1.2-1.7.2-.2 0-.4 0-.6-.1h-.3l-.4-.1.2-.1H87l-.4-.1h.2l-.3-.1.4-.1h.1l1.3-.4.5-.1 1.1-.3-.3-.1.4-.1h.4l.5.1-.2.1h.5l.5.1-.2.1c.6.1.7.4.1.5-.2.1-.6.1-.9.1zm-1.9.4c.4 0 .7 0 1.1-.1s.3-.3-.1-.3l-1-.2-1.2.4.9.2h.3m1.5-1.1l-1.1.3.8.2h.3c.3 0 .6 0 .9-.1s.3-.2-.1-.3l-.8-.1"/><path class="st14" d="M84.5 72.1v1.3c.4.2.9.4 1.4.5.7.1 1.4.2 2.1.2v-1.3c-.7 0-1.4-.1-2.2-.2-.5-.1-.9-.3-1.3-.5z"/><path class="st37" d="M84.5 71z"/><path class="st17" d="M94.5 69.2v1.3c0 .5-.4.7-1.4 1-2.5.7-5.2.8-7.8.4-1.2-.2-1.9-.6-1.9-1v-1.3c0 .4.6.8 1.9 1 2.6.4 5.2.3 7.8-.4 1-.3 1.4-.6 1.4-1z"/><path class="st37" d="M92.6 68.2c2.3.5 2.5 1.4.5 2-2.5.7-5.2.8-7.8.4-2.3-.4-2.5-1.3-.5-2 2.6-.7 5.2-.8 7.8-.4zM86 70.5c2.2.4 4.4.2 6.5-.3 1.6-.6 1.4-1.3-.4-1.6-2.2-.4-4.4-.2-6.5.3-1.7.5-1.5 1.2.4 1.6"/><path class="st17" d="M92 68.5c1.9.4 2.1 1.1.4 1.7-2.1.6-4.3.7-6.5.3-1.9-.4-2.1-1.1-.4-1.7 2.1-.6 4.4-.7 6.5-.3z"/><path class="st14" d="M85.5 69c2.1-.6 4.3-.7 6.5-.3.9.2 1.5.5 1.6.8.1-.4-.4-.7-1.6-.9-2.2-.4-4.4-.2-6.5.4-.8.2-1.2.5-1.1.8.1-.4.4-.6 1.1-.8z"/><path class="st14" d="M90.1 69.7c.2.1 0 .3-.3.4-.6.2-1.1.2-1.7.2-.2 0-.4 0-.6-.1h-.3l-.4-.1h.2l-.3-.1H86l.2-.1-.3-.1.4-.1h.3l1.3-.4.5-.2 1.1-.4-.3-.1.4-.1h.5l.5.1h.3l.5.1H91c.6.1.7.4.1.5-.2.3-.6.5-1 .5zm-1.8.5c.3 0 .7 0 1-.1s.3-.3-.1-.3l-.9-.1-1.2.3.9.2h.3m1.5-1.1l-1.1.4.8.1h.3c.3 0 .6 0 .9-.1s.3-.2-.1-.3l-.8-.1"/><path class="st38" d="M90.1 69.6c.2.1 0 .3-.3.4-.6.2-1.1.2-1.7.2-.2 0-.4 0-.6-.1h-.4l-.4-.1.2-.1h-.5l-.4-.1h.2l-.3-.1.4-.1h.3l1.3-.4.4-.2 1.1-.4-.4.1.4-.1h.4l.5.1-.2.1h.5l.5.1-.1-.1c.6.1.7.4.1.5-.3.2-.6.2-1 .3zm-1.8.4c.3 0 .7 0 1-.1s.3-.3-.1-.3l-.9-.2-1.2.5.9.1h.3m1.5-1.2l-1.1.3.8.2h.3c.3 0 .6 0 .9-.1s.3-.2-.1-.3l-.8-.1"/><path class="st14" d="M84 70.2v1.3c.4.2.9.4 1.4.5.7.1 1.4.2 2.1.2v-1.3c-.7 0-1.4-.1-2.2-.2-.5-.1-.9-.2-1.3-.5z"/><path class="st37" d="M85 69.4z"/><path class="st17" d="M95 67.7V69c0 .4-.4.7-1.4 1-2.5.7-5.2.8-7.8.4-1.2-.2-1.9-.6-1.9-1v-1.3c0 .4.6.8 1.9 1 2.6.4 5.3.3 7.8-.4 1-.3 1.4-.7 1.4-1z"/><path class="st37" d="M93.1 66.7c2.3.4 2.5 1.3.5 2-2.5.7-5.2.8-7.8.4-2.3-.4-2.5-1.3-.5-2 2.5-.7 5.2-.9 7.8-.4zm-6.7 2.2c2.2.4 4.4.2 6.5-.3 1.7-.6 1.5-1.3-.4-1.7-2.2-.4-4.4-.2-6.5.3-1.6.6-1.4 1.3.4 1.7"/><path class="st17" d="M92.5 66.9c1.9.4 2.1 1.1.4 1.7-2.1.6-4.3.7-6.5.4-1.9-.4-2.1-1.1-.4-1.7 2.1-.7 4.3-.8 6.5-.4z"/><path class="st14" d="M86 67.4c2.1-.6 4.3-.7 6.5-.3 1 .2 1.5.5 1.6.8.1-.4-.4-.7-1.6-.9-2.1-.4-4.4-.3-6.5.4-.8.2-1.2.5-1 .8 0-.3.4-.6 1-.8z"/><path class="st14" d="M90.7 68.2c.1.1 0 .3-.3.4-.6.2-1.1.2-1.7.2-.2 0-.4 0-.6-.1h-.3l-.4-.1.2-.1H87l-.4-.1.2-.1-.3-.1.4-.1h.1l1.3-.4.4-.2 1.1-.4-.3-.1.4-.1h.4l.5.1-.2.1h.5l.5.1h-.2c.6.1.7.4.1.5-.2.3-.5.4-.8.5zm-1.9.4c.4 0 .7 0 1.1-.1s.3-.3-.1-.4l-1-.2-1.2.4.9.2.3.1m1.5-1.2l-1.1.4.8.2h.3c.3 0 .6 0 .9-.1s.3-.2-.1-.3l-.8-.2"/><path class="st38" d="M90.7 68c.1.1 0 .3-.3.4-.6.2-1.1.2-1.7.2-.2 0-.4-.1-.6-.1h-.3l-.4-.1h.2l-.3-.1-.3.1h-.1l-.4-.1h.2l-.3-.1.4-.1h.3l1.3-.4.5-.2 1.1-.4-.2-.1H90.4l.5.1h.1l.1-.1.5.1-.2.1c.6.1.7.4.1.5-.1.2-.5.3-.8.3zm-1.9.4c.3 0 .7 0 1-.1.4-.1.3-.3-.1-.3l-.9-.2-1.2.4.9.2h.3m1.5-1.2l-1.1.4.8.2h.3c.3 0 .6 0 .9-.1s.3-.2-.1-.3l-.8-.2"/><path class="st14" d="M84.5 68.7V70c.4.2.9.4 1.4.5.7.1 1.4.2 2.1.2v-1.3c-.7 0-1.4-.1-2.2-.2-.5-.2-.9-.3-1.3-.5z"/><path class="st39" d="M86 59c.4 1 1.5 1.4 2.5 1s1.4-1.5 1-2.5c-.4-.9-1.4-1.4-2.3-1.1-.1 0-.2.1-.3.2-.9.4-1.3 1.5-.9 2.4z"/><path class="st39" d="M85 61.3c.5 1.2 1.9 1.7 3.1 1.1 1.2-.5 1.7-1.9 1.1-3.1-.5-1.2-1.9-1.7-3.1-1.1-1.1.5-1.6 1.9-1.1 3.1z"/><path class="st16" d="M87 63.8s.1.3-1.4.7c-1.2.3-2.4.5-3.7.6l3.2-1.2c0-.1 1.4-.5 1.9-.1z"/><path class="st16" d="M83.1 64.8c-.4.2-.8.4-1.1.8-.2.1-.3.3-.5.4.1-.3.3-.4.4-.5s.1-.1-.2 0c-.2.1-.3.3-.5.5l-.2.2.3-.6c.2-.2.3-.5.5-.7l.9-.3c.4 0 .9.1.4.2z"/><path class="st16" d="M81.9 65c-.2.1-.4.2-.6.4-.1.2-.1.3-.2.4.1-.1.2-.1.3-.2.1-.2.3-.4.5-.6z"/><path class="st3" d="M86.2 63.3s1.3-.3 1.5.5c.1.3-.1.7-.5.8h-.1c-.8.2-1.6.3-1.6.3l-.7-1.1 1.4-.5z"/><path class="st3" d="M86.1 62.7l.4-3.7s0-1 .3-.9c.3 0 .6.9.6 1.2.2.8.2 1.6.2 2.4v2.7c0 .4-.5 0-.9-.1-.8-.2-.6-1.6-.6-1.6z"/><path class="st0" d="M78 73l-1.3 2.7-1.7.1-.9-.2 1.9-.5 1-2.5z"/><path class="st5" d="M76.5 76.1h-.2l-.1-.3h-1.4l-1.1-.2s0-.1.1-.1c.4-.1.7-.1 1.1-.2 0 0-.1.2 0 .3.5 0 1 0 1.4-.1.4 0 .7-.2.6-.1-.1.3-.2.5-.4.7zM84.8 67.6l-4-.1-3 6.6-1.3-.5 2.9-7.9s.2-.5 1.4-.5 6-.1 6.5 0c1.5.3-2.7 1.3-2.5 2.4z"/><path class="st39" d="M87.7 56.6c.4.9 1.5 1.3 2.4.9.9-.4 1.3-1.5.9-2.4s-1.5-1.3-2.5-.9c-.8.4-1.2 1.4-.8 2.4z"/><path class="st39" d="M85.8 56c.3.7 1.1.9 1.8.6v-.7c.7-.3 1-1.2.6-1.9l-.2-.5c-.3-.7-1.2-1-1.9-.6l-.3.2c-.7.3-1 1.2-.7 1.8l.7 1.1z"/><path class="st0" d="M85.4 54c.1.1.1.2.2.3.4.7 1.1 1 1.9.9l.6.9c.2.2.5.3.8.4.4.7.1 1.7-.7 2-.1.1-.3.1-.4.1-.8.1-.6-.7-.4-1.2.1-.2.2-.4.2-.7s-.3-.6-.5-.7c-.3-.1-.6-.1-.9 0h-.1c-.1 0-.1-.1-.2-.2l-.5-1c-.1-.3-.1-.6 0-.8z"/><path class="st5" d="M89.5 66.3s-.6.1-.7.2h-.9s-.1-3.2-.2-4.3-.4-1.4-.4-1.8c0-.4 0-.7.2-1.1.1-.4-.2-1-.1-.9.4.3.9.3 1.2-.1l.1-.1c-.1-.1.8 8.1.8 8.1z"/><path class="st40" d="M87.4 57.1s-.8.8-.8 1.1c0 .9 0 1.7.1 2.6.2.8.3 1.6.4 2.3-.1.7-.1 1.4-.1 2.1 0 .5.1 1.1.2 1.6.2.1.5 0 .7-.2.3-.3.2-3.2.1-3.9-.2-1-.4-2.1-.5-3.1 0-.6.1-1.3.3-1.9.1-.4-.4-.6-.4-.6z"/><path class="st3" d="M87.4 57c.2.2.3.2.3.3 0 0-.2-.1-.2 0-.1.2-.1.4-.1.6 0 0-.3-.5-.2-.6 0-.1.1-.2.2-.3z"/><path class="st39" d="M88.5 59c.3 1 1.3 1.6 2.4 1.4 1-.3 1.6-1.3 1.4-2.4-.3-1-1.3-1.6-2.4-1.4h-.1c-1 .3-1.6 1.4-1.3 2.4z"/><path class="st0" d="M81.9 73.6v1.9l-.4.5-1 .5-.8-.1 1.4-1 .1-2z"/><path d="M81.8 75.9l-.4.3-.1-.1-.9.6s-.9.2-1.1 0 .1-.2.3-.3c.1-.1.2-.1.2-.2 0 0 0 .1.4.2.4-.2.7-.3 1-.5.2-.1.4-.3.6-.5.2.1 0 .5 0 .5z" fill="#19486d"/><path d="M90 63.7l-.5 1.2-.9.1-6.8.4s-.6-.2-1 .8c-.5 1.4.2 8.2.2 8.2h1l.5-6.5s6.5 1.1 8.4.6c.7-.2 1.3-1.5 1.2-2.8-.1-.7-.3-1.4-.7-1.9l-1.4-.1z" fill="#265880"/><path class="st40" d="M89 66.1s-.3-2.8-.5-4.1c-.1-1.3-.2-2.6-.2-3.9 0-.3-.1-.5-.2-.8 0 0 .3-.7.8-.7.7.1 1.5.4 2.2.6.4.2.2 4.7.2 4.9.2.9.5 1.7.8 2.5.2.4.3.9.4 1.3-1.2 0-2.3 0-3.5.2z"/><path class="st3" d="M88.8 56.3l-.3.4s-.4.6-.3.5.4.5.4.5l.6-1.2-.4-.2z"/><path class="st0" d="M91.4 63.2s.5.4-1.4.6c-1.6.1-3.1.1-4.7 0l4.3-.8c.7-.2 1.3-.1 1.8.2z"/><path class="st0" d="M86.9 63.8c-.6.1-1.1.4-1.5.7-.2.1-.4.3-.7.4.1-.4.4-.4.6-.5s.1-.1-.2 0c-.3.1-.5.3-.7.5-.1.1-.2.1-.3.2.1-.2.3-.4.5-.6.2-.3.5-.5.8-.7.4-.1.8-.2 1.2-.2s.9.1.3.2z"/><path class="st16" d="M85.4 63.8c-.3.1-.5.2-.8.3l-.4.4c.1 0 .3-.1.4-.2.2-.1.5-.3.8-.5z"/><path class="st3" d="M90.3 62.7l-.6-4.1c.1-.4.2-.8.4-1.1.2-.2.6-.3.9-.2 0 0 .7.6.7 3.8 0 2.2.2 3.2-.7 3.2-1 .1-1.9.1-1.9.1l-.7-1.3 1.9-.4z"/><path class="st9" d="M79.3 64.9h5.9v.1h-5.9z"/><path class="st9" d="M82.6 64.9c0 .1-.1.2-.2.2h-3c-.1 0-.2-.1-.3-.3L77.7 62c0-.1.1-.2.2-.2l3.1.1c.1 0 .2.1.2.2l1.4 2.8z"/><path class="st8" d="M82.3 65h3c-.1.1-.3.1-.5.1h-5c-.2 0-.3 0-.5-.1h3z"/></svg>