<svg xmlns="http://www.w3.org/2000/svg" xmlns:xlink="http://www.w3.org/1999/xlink" viewBox="0 0 100 100"><defs><clipPath id="a"><rect x="37.63" y="37.47" width="17.18" height="30.49" style="fill:none"/></clipPath><linearGradient id="b" x1="19.33" y1="31.5" x2="19.33" y2="32.55" gradientUnits="userSpaceOnUse"><stop offset="0" stop-color="#e04037"/><stop offset="1" stop-color="#f95830"/></linearGradient><linearGradient id="c" x1="19.33" y1="27.8" x2="19.33" y2="30.04" xlink:href="#b"/></defs><title>shopping</title><rect width="100" height="100" style="fill:none"/><path d="M15.61,57.91c4.46.9,8.46-1.95,13.17.32,4.92,2.37,4.14,17.4,14.6,24.68,8.13,5.66,27.34,10.32,41.64-7.1s12.72-42.08-1.45-46.68C73.3,25.8,64.23,28,55.67,25.73,47.73,23.63,41.2,14.35,33.8,12.5c-11.94-3-20.58,6.93-25.12,15.21C4.35,35.61,2.45,55.24,15.61,57.91Z" style="fill:#4b00c8"/><path d="M22.45,67.54a13.51,13.51,0,0,1,6.49-1.62c1.84.06,3.1.63,3.55,1.65s.07,2.39-.66,3.89A17.07,17.07,0,0,1,28.59,76c-2.69,2.78-6.62,3.36-9.36.92S17.76,69.93,22.45,67.54Z" style="fill:#4b00c8"/><path d="M19.32,66.32c4.5-.12,7.7-3.61,12.75-2.52C37.35,64.94,40,79,51.75,83.47,60.86,87,80.41,87.16,90.22,68s2.68-41.55-12-42.78c-10.65-.88-18.88,3.08-27.63,2.82-8.13-.25-16.53-7.42-24.08-7.54C14.33,20.32,8.27,31.3,5.78,39.92,3.41,48.13,6,66.67,19.32,66.32Z" style="fill:#6400fa"/><path d="M88.05,20.34a1.85,1.85,0,0,1,1.2,2,3.93,3.93,0,0,1-1.39,2.46c-1.45,1.23-2.18.73-3.39-.1S82,23,83,22.13a9.58,9.58,0,0,1,2.29-1.38A3.84,3.84,0,0,1,88.05,20.34Z" style="fill:#4b00c8"/><rect x="9.37" y="27.04" width="12.79" height="7.46" style="fill:#fbbc3e"/><rect x="9.37" y="34.6" width="12.79" height="7.45" style="fill:#fff"/><rect x="10.58" y="35.64" width="7.34" height="0.49" style="fill:#e59e0e"/><rect x="10.58" y="36.69" width="8.37" height="0.37" style="fill:#fbbc3e"/><rect x="10.55" y="37.55" width="7.31" height="0.37" style="fill:#fbbc3e"/><rect x="10.46" y="39" width="4.78" height="1.31" style="fill:#e59e0e"/><rect x="11.55" y="39.47" width="2.62" height="0.37" style="fill:#fff"/><g style="opacity:0.6000000000000001"><rect x="23.77" y="27.04" width="12.79" height="7.46" style="fill:#fbbc3e"/><rect x="23.77" y="34.6" width="12.79" height="7.45" style="fill:#fff"/><rect x="24.98" y="35.64" width="7.34" height="0.49" style="fill:#e59e0e"/><rect x="24.98" y="36.69" width="8.37" height="0.37" style="fill:#fbbc3e"/><rect x="24.94" y="37.55" width="7.31" height="0.37" style="fill:#fbbc3e"/><rect x="24.86" y="39" width="4.78" height="1.31" style="fill:#e59e0e"/><rect x="25.94" y="39.47" width="2.62" height="0.37" style="fill:#fff"/></g><polygon points="14.04 47.55 14.85 46.32 16.24 46.35 15.88 47.57 15.35 48.52 14.04 47.55" style="fill:#e9d6b8"/><path d="M17.38,44.86a.54.54,0,0,1-.56.5l-2-.12a.54.54,0,0,1-.5-.56h0a.53.53,0,0,1,.56-.49l2,.12a.51.51,0,0,1,.49.55Z" style="fill:#163f59"/><path d="M17,45.75a1,1,0,0,1-1,.92l-1-.07a1,1,0,0,1-.91-1h0a1,1,0,0,1,1-.91l1,.06a1,1,0,0,1,.91,1Z" style="fill:#163f59"/><path d="M17.65,47.35l.18-3c0-.49-.39,0-.88,0l-.46,0a.87.87,0,0,0-.93.82l-.13,2.16Z" style="fill:#e9d6b8"/><path d="M15.9,45.76a.37.37,0,0,1-.4.36h0a.38.38,0,0,1-.37-.4h0a.4.4,0,0,1,.41-.37h0a.39.39,0,0,1,.36.41Z" style="fill:#e9d6b8"/><path d="M17.45,46.39a.21.21,0,0,0,.2.23l.18,0a.23.23,0,0,0,.23-.22s-.32-1.17-.44-1.18a.35.35,0,0,0-.11.22Z" style="fill:#e9d6b8"/><path d="M16.43,47.11c-.88,0-.95-.32-1-.63a5.85,5.85,0,0,0-.29,1l0,.28a1.13,1.13,0,0,0,1.17,1l1.23.07.08-1.36,0-.32Z" style="fill:#163f59"/><path d="M17.69,46.62l-.7,0a.59.59,0,0,0-.62.55.76.76,0,0,0,0,.15l1.27.07Z" style="fill:#163f59"/><path d="M16.75,47.18v.2a.09.09,0,0,0,.09.1l.57,0a.1.1,0,0,0,.1-.1v-.19Z" style="fill:#e9d6b8"/><path d="M17.56,43.76l-1.8-.11a.35.35,0,0,0-.37.33l0,.7,2.15.13Z" style="fill:#163f59"/><path d="M18.64,44.35a.53.53,0,0,1-.56.5l-1.22-.08a.51.51,0,0,1-.49-.56h0a.52.52,0,0,1,.56-.49l1.21.07a.53.53,0,0,1,.5.56Z" style="fill:#163f59"/><rect x="15.14" y="44.85" width="1.28" height="0.49" transform="translate(-30.18 58.16) rotate(-86.58)" style="fill:#163f59"/><rect x="15.67" y="43.98" width="1.51" height="1.43" transform="translate(-29.17 58.42) rotate(-86.57)" style="fill:#163f59"/><path d="M16,45.45a.73.73,0,0,1,.77-.68l.37,0c.4,0,.59.36.57.76h0a.73.73,0,0,1-.77.68l-.26,0a.72.72,0,0,1-.68-.76Z" style="fill:#e9d6b8"/><path d="M20.32,54.63a6.38,6.38,0,0,1,.74.33s0,.33,0,.42-.18-.19-.26.1a1,1,0,0,0,0,.58l.51.33.28,0,.24-.15.05-.54-.09-.92-.95-.7-.59.1Z" style="fill:#edeef0"/><path d="M20.71,53.63l1.05.73s.23.36.4.67a2.06,2.06,0,0,1,.23.5,2.45,2.45,0,0,1-.19.68c-.11.11-.38,0-.38,0l-.55,0s-.2-.07,0-.25.54-.14.54-.14,0-.3,0-.41a3.33,3.33,0,0,0-.44-.72l-.84-.43Z" style="fill:#edeef0"/><polygon points="17.76 51.35 20.87 53.43 20.34 54.8 18.04 54.37 17.76 51.35" style="fill:#b0bfde"/><path d="M9.61,72.68a7.3,7.3,0,0,1-1,.22,1.88,1.88,0,0,1-.86-.26,1.22,1.22,0,0,1-.58-.5,12.07,12.07,0,0,1-.35-1.41l-.2.13-.3-.75s.45-1,.76-1,1.25,1.12,1.25,1.12l.07,1.31.44.69s.45.11.56.16S9.61,72.68,9.61,72.68Z" style="fill:#081832"/><path d="M20.14,71.94l.65,1.28,1.13-.46-.06-.36.54-.17.76-.12,2.2-1.7s-.07-.24-.18-.26c-.34-.07-1.27.55-1.27.55l-1.78.24Z" style="fill:#081832"/><polygon points="14.69 61.73 13.81 63.93 8.71 70.7 7.01 69.11 11.26 62.53 11.97 57.07 14.69 61.73" style="fill:#163f59"/><path d="M14.34,54.35s3.08,9.06,4,11.17,4.31,5.27,4.31,5.27l-3.07,1.5s-4.31-7-5.28-9.5a27.42,27.42,0,0,0-2.9-5.1,3.48,3.48,0,0,1-1.32-3.78C10.74,51.36,14.34,54.35,14.34,54.35Z" style="fill:#194866"/><path d="M16.48,49.11l-1.36,7.1L10,53.56l3.42-6.3S14.62,46,16.48,49.11Z" style="fill:#bcd0e2"/><path d="M39.05,71a1.13,1.13,0,1,1-1.12-1.12A1.12,1.12,0,0,1,39.05,71Z" style="fill:#484f59"/><path d="M38.6,71a.68.68,0,1,1-.67-.67A.67.67,0,0,1,38.6,71Z" style="fill:#b7bec0"/><path d="M38.52,71a.59.59,0,0,1-.59.6.6.6,0,1,1,0-1.2A.59.59,0,0,1,38.52,71Z" style="fill:#cdd5d7"/><path d="M38.18,70.73c0,.35-.2.43-.44.17l-.89-1c-.23-.26-.14-.48.21-.48h.49a.64.64,0,0,1,.64.64Z" style="fill:#cdd5d7"/><path d="M36.93,70h.62a.63.63,0,0,1,.63.58v-.49a.64.64,0,0,0-.64-.64h-.49c-.35,0-.44.22-.21.48Z" style="fill:#b7bec0"/><path d="M30.47,71a1.13,1.13,0,1,1-1.12-1.12A1.12,1.12,0,0,1,30.47,71Z" style="fill:#484f59"/><path d="M30,71a.68.68,0,1,1-.67-.67A.67.67,0,0,1,30,71Z" style="fill:#b7bec0"/><path d="M29.94,71a.59.59,0,0,1-.59.6.6.6,0,1,1,0-1.2A.59.59,0,0,1,29.94,71Z" style="fill:#cdd5d7"/><path d="M29.6,70.73c0,.35-.2.43-.44.17l-.89-1c-.23-.26-.14-.48.21-.48H29a.64.64,0,0,1,.64.64Z" style="fill:#cdd5d7"/><path d="M28.35,70H29a.63.63,0,0,1,.63.58v-.49a.64.64,0,0,0-.64-.64h-.49c-.35,0-.44.22-.21.48Z" style="fill:#b7bec0"/><rect x="32.78" y="54.18" width="0.63" height="14.4" transform="translate(-31.53 87.56) rotate(-83.72)" style="fill:#cdd5d7"/><rect x="33.33" y="57.07" width="0.63" height="13.22" transform="translate(-31.97 93.37) rotate(-86.49)" style="fill:#cdd5d7"/><path d="M39.32,69.7h0l-10.8-.1a1.07,1.07,0,0,1-.87-.33,1.87,1.87,0,0,1-.07-1.53c.21-1,.33-1.58.33-1.58a.32.32,0,0,1,.32-.25c2,0,5.94,0,6.43,0a.3.3,0,0,1,.34.29.31.31,0,0,1-.29.34c-.56,0-5.08,0-6.23,0-.05.27-.15.74-.28,1.33-.05.24-.18.86-.06,1a.6.6,0,0,0,.38.08l10.81.11a.32.32,0,1,1,0,.63Z" style="fill:#b7bec0"/><path d="M28.48,69.39a1,1,0,0,1-.77-.27c-.25-.31-.16-.85,0-1.43.21-1,.34-1.59.34-1.6a.18.18,0,0,1,.16-.13l4.56,0c1.13,0,1.79,0,2,0h0a.18.18,0,0,1,.18.15.2.2,0,0,1,0,.13.16.16,0,0,1-.11.05c-.2,0-.88,0-2,0l-4.27,0h-.13l0,.12L28,67.76c-.14.67-.15,1,0,1.15s.25.14.51.14l10.94.11a.16.16,0,0,1,.16.17.17.17,0,0,1-.16.17Z" style="fill:#cdd5d7"/><path d="M29.38,65.71a.32.32,0,0,1-.3-.23l-2-6.71a.32.32,0,0,1,.22-.39.31.31,0,0,1,.39.21l2,6.71a.32.32,0,0,1-.21.39Z" style="fill:#cdd5d7"/><path d="M30.94,65.71a.31.31,0,0,1-.3-.24L29,59a.33.33,0,0,1,.23-.39.32.32,0,0,1,.38.23l1.6,6.44a.33.33,0,0,1-.23.39Z" style="fill:#cdd5d7"/><path d="M32.5,65.71a.32.32,0,0,1-.31-.26L31,59.28a.32.32,0,0,1,.62-.12l1.19,6.17a.31.31,0,0,1-.25.37Z" style="fill:#cdd5d7"/><path d="M34.06,65.71a.31.31,0,0,1-.31-.28L33,59.53a.31.31,0,0,1,.28-.35.3.3,0,0,1,.35.27l.78,5.9a.31.31,0,0,1-.27.35Z" style="fill:#cdd5d7"/><path d="M35.62,65.71a.32.32,0,0,1-.32-.3l-.37-5.63a.32.32,0,0,1,.29-.34.32.32,0,0,1,.34.3l.37,5.63a.31.31,0,0,1-.29.33Z" style="fill:#cdd5d7"/><path d="M37.18,65.71h0a.33.33,0,0,1-.32-.32l0-5.36a.32.32,0,0,1,.32-.32h0a.32.32,0,0,1,.32.32l0,5.36A.32.32,0,0,1,37.18,65.71Z" style="fill:#cdd5d7"/><path d="M38.74,65.71h0a.31.31,0,0,1-.29-.34l.44-5.09A.33.33,0,0,1,39.2,60a.31.31,0,0,1,.29.34l-.44,5.1A.32.32,0,0,1,38.74,65.71Z" style="fill:#cdd5d7"/><path d="M39.85,65.86H28a.33.33,0,0,1-.3-.2l-3.31-8.17h0s-.17-.3-.92-.55c-.95-.32-2.09-.84-2.14-.86a.32.32,0,1,1,.27-.57s1.15.52,2.07.83,1.27.83,1.3.92l.32.78,15.45,2a.32.32,0,0,1,.21.13.34.34,0,0,1,.06.24l-.85,5.16A.31.31,0,0,1,39.85,65.86Zm-11.64-.64H39.58l.75-4.57L25.56,58.71Z" style="fill:#cdd5d7"/><path d="M39.85,65.86H28a.33.33,0,0,1-.3-.2l-3.31-8.17h0s-.17-.3-.92-.55c-.95-.32-2.09-.84-2.14-.86a.32.32,0,1,1,.27-.57s1.15.52,2.07.83,1.27.83,1.3.92l.32.78,15.45,2a.32.32,0,0,1,.21.13.34.34,0,0,1,.06.24l-.85,5.16A.31.31,0,0,1,39.85,65.86Zm-11.64-.64H39.58l.75-4.57L25.56,58.71Z" style="fill:#cdd5d7"/><polygon points="39.75 65 40.49 60.42 25.73 58.48 25.83 58.74 40.33 60.65 39.62 65 39.75 65" style="fill:#b7bec0"/><path d="M40,65.63H28.16a.31.31,0,0,1-.29-.2l-3.32-8.17s-.16-.3-.92-.55c-.95-.32-2.09-.84-2.13-.86a.29.29,0,0,1-.18-.33.32.32,0,0,0-.14.14.31.31,0,0,0,.15.42c.05,0,1.19.54,2.14.86.75.25.91.55.91.55l3.32,8.17a.33.33,0,0,0,.3.2H39.85a.31.31,0,0,0,.31-.27h0A.25.25,0,0,1,40,65.63Z" style="fill:#b7bec0"/><path d="M28.16,65.46a.12.12,0,0,1-.11-.07L24.68,57.1h0a2.23,2.23,0,0,0-.95-.55c-.95-.31-2.07-.82-2.12-.84l-.07-.07a.1.1,0,0,1,0-.09.11.11,0,0,1,.11-.07h.05s1.16.53,2.09.84,1.17.76,1.18.81l.36.88,15.56,2a.14.14,0,0,1,.08,0,.16.16,0,0,1,0,.09l-.85,5.16a.12.12,0,0,1-.12.1Zm.08-.24H39.91l.81-4.94-15.3-2Z" style="fill:#e5e8ec"/><path d="M23.7,56.22l-2-.84a.44.44,0,0,0-.57.24.43.43,0,0,0,.24.56l2.1.86Z" style="fill:#484f59"/><path d="M31,65.43a.12.12,0,0,1-.12-.1l-.46-1.84L29,63.4l.56,1.87a.12.12,0,0,1-.08.15h0a.14.14,0,0,1-.12-.09l-.58-2-1.48-.09v-.24l1.39.08-.7-2.36-1.83-.2,0-.25,1.73.2-.6-2a.13.13,0,0,1,.09-.15h0a.12.12,0,0,1,.12.08l.62,2.09,1.62.18-.48-1.93a.1.1,0,0,1,0-.09.11.11,0,0,1,.07-.06h0a.12.12,0,0,1,.12.09l.5,2,1.62.18-.36-1.87a.12.12,0,0,1,.1-.14s0,0,0,0a.12.12,0,0,1,.12.1l.37,2,1.63.18-.24-1.82a.11.11,0,0,1,.1-.13h0a.13.13,0,0,1,.14.1l.25,1.87,1.62.18-.12-1.75a.16.16,0,0,1,0-.09.18.18,0,0,1,.09,0h0a.13.13,0,0,1,.13.11l.12,1.8,1.62.18V59.86a.13.13,0,0,1,.13-.13.13.13,0,0,1,.12.13v1.71l1.62.18.14-1.63a.13.13,0,0,1,.12-.11.13.13,0,0,1,.1,0,.16.16,0,0,1,0,.09l-.15,1.64.94.1,0,.25L39.33,62l-.15,1.76,1.09.06v.25L39.16,64l-.11,1.3a.13.13,0,0,1-.12.11s-.08,0-.1-.05a.12.12,0,0,1,0-.09L38.92,64l-1.45-.09v1.39a.12.12,0,0,1-.12.12.12.12,0,0,1-.12-.13V63.9l-1.45-.09.1,1.49a.16.16,0,0,1,0,.09l-.08,0h0a.12.12,0,0,1-.13-.12l-.1-1.51-1.45-.09.2,1.58a.12.12,0,0,1-.1.14h0a.13.13,0,0,1-.14-.11l-.21-1.63-1.45-.08.32,1.67a.12.12,0,0,1-.1.14h0a.12.12,0,0,1-.12-.1l-.34-1.74-1.45-.09.44,1.78a.11.11,0,0,1-.08.14Zm6.46-1.76,1.47.09L39.09,62l-1.6-.18Zm-1.71-.1,1.47.09V61.79l-1.61-.17Zm-1.71-.11,1.47.09-.13-2-1.61-.18Zm-1.71-.1,1.46.09-.27-2.07-1.61-.17Zm-1.72-.11,1.47.09-.42-2.16L30.06,61Zm-1.72-.1,1.47.09L29.8,61l-1.6-.17Z" style="fill:#e5e8ec"/><path d="M18.18,52.18s-1.09-2.28-1.52-3a16.56,16.56,0,0,0-1.28-1.54s-.71.42-.84.84a3.92,3.92,0,0,0,.3,2.59L18,54.37l.66-.7Z" style="fill:#b0bfde"/><polygon points="14.54 46.68 14.15 47.04 15.99 48.44 16.02 47.88 14.54 46.68" style="fill:#b0bfde"/><rect x="52.17" y="51.2" width="27.32" height="17.08" rx="1.4" ry="1.4" style="fill:#e5e8ec"/><rect x="52.17" y="51.05" width="27.32" height="17.08" rx="1.4" ry="1.4" style="fill:#2c7eea"/><path d="M63.49,55s0-.08.11-.06.16.13.31.12-.14-.13-.06-.17L64,55c0-.1,0-.12-.05-.17.22,0,.15-.31.11-.47a.45.45,0,0,1,.24,0c0-.13-.14-.12-.21-.18.08,0,.06-.08.16,0s0-.09,0-.18.07-.11.17-.09.24.06.22-.06-.12,0-.14-.09-.05-.1-.14-.08-.24.1-.3.06.24-.08.27-.21-.17-.1-.33-.09-.2-.07-.25,0-.08,0-.13-.06-.39,0-.5.06-.28,0-.34.06.08.19,0,.2a4.1,4.1,0,0,1-.5,0c-.27,0-.4.23-.69.26,0,.11.12,0,.11.12s-.23.07-.3.15a.13.13,0,0,0-.2.08c.09,0,.09,0,.14.06s.14-.08.14,0,.19-.13.19,0-.28,0-.36,0,.13.13.22.18.06-.09.14-.06a.4.4,0,0,0,.34.08.32.32,0,0,0,.05.27.6.6,0,0,0,0,.2c.11.06.13-.13.2,0S62.1,55,62,55s.21.09.25.21a1.33,1.33,0,0,0-.19.14c.07,0-.09.06-.06.15.2.14,0,.48.19.67h.2c.08,0,.05.13.14.12s.05-.12.11-.15c0-.22.14-.22.11-.43.07,0,0-.12.11-.12s.11-.07.22,0l.14-.12c.13,0,.19-.15.33-.17s.25-.14.17-.24C63.68,55.15,63.57,55,63.49,55Zm.28-.11c-.08-.06,0-.2.08-.18S63.78,54.83,63.77,54.91ZM64,53.5c0,.08-.06.11-.11.14a.65.65,0,0,0-.36-.06C63.58,53.47,63.84,53.52,64,53.5Z" style="fill:#2366bd"/><path d="M60.05,53.94v.17c.09,0,.1,0,.17,0s.18-.26.28-.2-.15,0-.14.09-.1,0-.09.11.1,0,.09.09-.08,0-.17,0-.09.06,0,.18.28,0,.36.09c-.22.05-.37-.12-.5-.06s.17.05.16.17c.21,0,.5.13.56-.09.07,0,.12,0,.11-.08s-.13,0-.11-.06h.19c0-.16.17-.14.14-.32.14,0,.16-.15.34-.12a.18.18,0,0,1,.19-.12c0-.07-.06-.14,0-.15s.28,0,.33-.14-.08,0-.08-.06a6,6,0,0,0-1.56.12c0,.17.12.15.14.26-.18,0-.12-.22-.33-.18,0,0,0,.06,0,.12s-.09,0-.08.06S60,53.88,60.05,53.94Zm.59.53s0,0,0,0S60.63,54.46,60.64,54.47Z" style="fill:#2366bd"/><path d="M66.87,53.88c0-.08.15,0,.11-.18a6.16,6.16,0,0,0-.72-.06.17.17,0,0,0,0,.12A1.11,1.11,0,0,0,66.87,53.88Z" style="fill:#2366bd"/><path d="M65.79,54c0,.07-.05.09,0,.14s.12-.13.25-.11-.14.13-.14.26a.21.21,0,0,0,.2.06c0,.09.05.09.13.09s0-.22.09-.33c.07.08.11.19.3.15,0-.22-.14-.24-.22-.35,0,.07-.07,0-.11,0a.16.16,0,0,1-.14-.06c.07-.08,0-.17-.14-.15s0,.16,0,.18c-.07-.14-.33-.28-.34,0C65.66,54,65.77,54,65.79,54Z" style="fill:#2366bd"/><path d="M68.59,53.82c0-.18-.26-.12-.25,0S68.49,53.81,68.59,53.82Z" style="fill:#2366bd"/><path d="M70.14,54c.22,0,.45.1.5-.09a.43.43,0,0,0-.47-.09C70.11,53.83,70.16,53.94,70.14,54Z" style="fill:#2366bd"/><path d="M75.74,55.76c.07,0,.05-.11.14-.09s.12.18.3.14,0-.14,0-.23-.18-.19-.25-.06a.18.18,0,0,0,0-.15c-.15,0-.23-.18-.47-.14,0-.06-.1-.06-.14-.12s-.22-.1-.41-.06c0,.09.08.15,0,.18s-.07-.13-.14-.15-.23,0-.39.06-.09-.25-.3-.21c0,0,0,.09-.06.09l-.33-.17a.12.12,0,0,1-.06.06c0-.12-.06-.09-.14-.09.07-.07,0-.07,0-.12s-.12,0-.25,0-.07,0-.11,0,.08.1,0,.12c-.24,0-.54,0-.75,0s-.1-.11-.16-.09a.51.51,0,0,1-.31-.06s-.08,0-.11,0-.12-.09-.28-.06c0-.07.08-.09.08-.17s-.12-.12-.16-.21a.84.84,0,0,1-.33,0c-.07,0-.06-.13-.17-.12s-.09.11-.08.21c-.14-.05-.09.1-.2.09s0-.12-.11-.09a.37.37,0,0,1-.33.12s-.08.09-.17.08,0,.15-.08.15-.19-.05-.16.06.16,0,.13.17c-.1,0-.13-.13-.28-.11,0,.08,0,.17,0,.17s0-.1,0-.17,0,.13-.16.09,0-.16-.17-.12a2.79,2.79,0,0,1-.28.32c-.18,0-.16,0-.36-.06,0,.15.15.05.11.18a2.77,2.77,0,0,0-.41,0c-.13.05-.2.16-.34.2v-.17c-.06,0-.13,0-.16,0,0,.16,0,.31-.17.29,0,.11-.1.09-.16.12s0,.09,0,.12-.17-.22-.17-.27a1,1,0,0,1,.36,0c.08-.18-.15-.28-.33-.29a.27.27,0,0,0-.22-.12.62.62,0,0,0-.14-.18h-.25l-.22.18s0,0-.09,0a3.11,3.11,0,0,1-.33.29.73.73,0,0,1-.16.33s0,0-.09,0v.11c-.17,0-.19.19-.25.33a.43.43,0,0,1,.06.32c0,.08.17,0,.22.09s-.11.11-.11.2,0,0,0,.09a.94.94,0,0,0-.24.06c0,.05-.08.07-.06.17-.16,0-.06.17-.19.15a.06.06,0,0,1,0,.06c-.12,0-.15.08-.22.12s-.15,0-.14.11.12,0,.19,0,.13.1.11.24,0,.11-.08.11-.24,0-.42,0c0,.1.07.32-.05.33s.08.12.05.26c.13,0,.17,0,.25.06s.12-.06.23,0a.63.63,0,0,0,.13-.41c.13,0,.1-.23.25-.24s.17,0,.28,0a.53.53,0,0,0,0,.43c.18,0,.07-.16.08-.32,0,0,0,0,0-.06V58c.06,0,.06.08.09.12a.23.23,0,0,1,.25.18c0,.06-.07.06-.14,0s.09.1.14.15c0-.13.07-.16.13-.2s0-.05,0-.09.09.1.14,0S66,58,66.1,57.78c.08.13.23.19.33.32l0,.12s.07.07.06.11v.18s.12,0,.19,0,0-.25,0-.35h.08c0,.11,0,.11,0,.23s0,.09.08.12a.38.38,0,0,0,.36,0c.08,0-.07.15,0,.15s0-.19.14-.15v.17c-.08,0,0,.25-.14.27a2.21,2.21,0,0,0-.72-.12c-.08,0-.06.14-.13.18-.13-.14-.38-.15-.5-.3s0-.12-.06-.17.07-.08,0-.12a.9.9,0,0,0-.42.09.6.6,0,0,0-.52.12.16.16,0,0,0-.17-.09c0,.1-.12.12-.19.17s0,.32-.11.44-.19.16-.26.24a.62.62,0,0,1-.13.38v.76a1,1,0,0,1,.22.41c.13.08.21.21.39.23a1.59,1.59,0,0,1,.39,0c.05,0,.05-.16.16-.15s0,.1.06.12.18,0,.27.05.08-.08.17-.05c0,.22-.06.33-.06.52s.22.27.17.47a1.23,1.23,0,0,1,.11.41c-.07.14-.05.36-.11.5a.89.89,0,0,1,.25.47v.26c.13.16.12.44.25.59.27,0,.4-.18.64-.23a.57.57,0,0,1,.25-.36c0-.11,0-.14,0-.26s.08-.08.17-.06a.69.69,0,0,1,.33-.67,2.82,2.82,0,0,0,0-.82,1.57,1.57,0,0,0,.14-.38,1.49,1.49,0,0,1,.2-.15c.13-.2.25-.42.38-.61s.06-.26,0-.33-.11.1-.21.09H68c0-.2-.15-.27-.24-.38s-.17-.16-.11-.38-.14-.1-.17-.18,0-.22,0-.23.14.2.11.26.19.29.3.41.06.31.2.41a2.45,2.45,0,0,1,.55-.23s0-.12.06-.12S68.9,60,69,60s.09-.13.09-.23-.19-.11-.17-.29a.22.22,0,0,0-.22.05c0-.11-.13-.14-.11-.29-.09,0-.08-.09-.14-.12a.6.6,0,0,0,.11-.06c.15.11.11.42.39.39,0,0,.08,0,0,.14.14,0,.16-.09.28-.08s0,.06.09.05.24.1.35.15,0,0,0,.06.13,0,.17.09,0,.1,0,.2a1,1,0,0,1,.17.38.43.43,0,0,1,.14.21v.18s.12,0,.19,0a1.28,1.28,0,0,0,.11-.55h.11v-.12c.11,0,.06-.08.14-.06s.1-.15.14-.23a.53.53,0,0,1,.25-.12c.07.08.07.23.17.26s0,.07,0,.15.22,0,.28.09,0,.08,0,.17a.24.24,0,0,1,.14.18c0,.05-.08.05-.06.15s.09.1.06.23a2.71,2.71,0,0,0,.41.35c0-.19-.13-.23-.13-.41a.55.55,0,0,1-.2-.2c0-.1,0-.26.06-.27s.1.19.22.21a.18.18,0,0,1,0,.11c.26,0,.33-.29.3-.64,0,0-.1,0-.14-.06s-.13-.12,0-.2.07.09.19.06.16-.13.31-.12a1.69,1.69,0,0,0,.25-.44s0,0,.08,0,0-.34.08-.41c-.06,0-.08-.09-.08-.18s-.11-.06-.11-.14,0-.07,0-.15.08,0,.08-.06-.13-.17,0-.17.13.11.17.2,0,.2.14.24c.17-.13,0-.45.08-.68a1.14,1.14,0,0,1,.22-.12,1.57,1.57,0,0,1,.22-.38c0-.23-.06-.48,0-.64,0,.17.07.19.09.29s0,.36.14.41,0-.07,0-.17,0,.05.11,0-.08-.1-.06-.21S74,57.07,74,57s0-.25-.09-.27,0,.13-.08.12c0-.22-.23.13-.31-.09s.07-.1.11-.15,0-.23.12-.26,0,0,.13,0a1.37,1.37,0,0,0,.42.06c0,.05,0,.06,0,.06s.13,0,.2,0,0-.1,0-.21.06-.07.11-.08.06.08.11.08.09-.16.11-.08a1.81,1.81,0,0,0-.24.58c0,.08.07.11.11.18s0,.22.11.26.11-.18.19-.23.09-.13,0-.24.07-.06.08-.11-.12,0-.11-.12c0-.26.21-.2.42-.18,0,0,0-.13.08-.17s.28-.1.39-.09S75.74,55.88,75.74,55.76Zm-9.31.32a.31.31,0,0,0,.22.11v.3c-.06,0,0-.17-.11-.12s0,.31-.11.38h-.22c-.08,0-.1.09-.17.09s-.08-.1-.08,0-.07-.08,0-.09a.38.38,0,0,1-.11-.29c.14,0,.08.41.33.29.06-.12.1-.26.16-.38a1,1,0,0,0,0-.18c0-.27.21-.36.3-.55,0,0,0,0,.06,0C66.63,55.84,66.4,55.83,66.43,56.08Zm.3.2c0-.09.1-.07.17-.09S66.82,56.28,66.73,56.28ZM67,55.14s0,0,0,0S67,55.15,67,55.14Zm.5,4.22s0,0,0,0S67.46,59.37,67.45,59.36Zm0-3.63s0,0,0,0S67.49,55.74,67.48,55.73Zm2-.47s-.12,0-.11-.09,0-.12,0,0S69.56,55.16,69.53,55.26Zm1.72-.53s0,0,0,0S71.26,54.74,71.25,54.73Zm.08,0s0,0,0,0S71.34,54.71,71.33,54.7Zm.09-.06s0,0,0,0S71.42,54.65,71.42,54.64Zm1.24,3.69s.06-.13.17-.11,0,.11,0,.11S72.74,58.31,72.66,58.33Z" style="fill:#2366bd"/><path d="M62.82,61.79s-.08,0-.13,0-.15-.13-.25-.18h-.2c-.05-.08-.23,0-.25-.14s-.16,0-.16-.06-.08-.51-.34-.38a.33.33,0,0,1-.16-.27c-.15,0-.25-.12-.39-.17s0,.05-.08.06-.17-.11-.2-.24,0,.08-.11.09-.07-.1-.14-.12,0,.11-.14.09-.15.17-.22.27c0-.1,0-.15-.11-.15s-.1.1-.19.12c-.07-.15,0-.28,0-.47s-.24-.06-.33-.12.1-.2.08-.38a.66.66,0,0,1-.28,0c0,.06,0,.21-.11.23-.37,0-.14-.5-.22-.73.1,0,.15-.09.25-.11s.19.09.33.08,0-.08,0-.08.31,0,.33.08.06.25.19.27a.75.75,0,0,1,0-.3.27.27,0,0,1-.08-.15.46.46,0,0,1,.36-.35.17.17,0,0,0,0-.17.18.18,0,0,0,.14,0c-.07-.16.09-.13.06-.32l.27-.12c0-.09-.08-.07-.05-.18a1.39,1.39,0,0,1,.39-.17c0,.08-.06.06-.06.11a.73.73,0,0,0,.31-.17c-.07,0-.21,0-.2-.15s.11-.08.17-.11,0-.07,0-.15c.14.1.29-.14.39-.09-.06.16-.2.24-.25.41.1,0,.12,0,.22,0s0,.11,0,.12.11,0,.19,0-.05-.15,0-.21c-.1,0-.12-.1-.16-.17a2.41,2.41,0,0,0,0-.38c-.06-.06-.07,0-.14,0s-.13-.14-.14-.27a.16.16,0,0,0,0-.11c-.11-.07-.07-.29-.23-.3s0,.15,0,.15-.18,0-.2,0v-.29c-.14.07-.12-.07-.25-.09s-.06,0-.13,0-.06,0-.14,0c0,.29-.08.46,0,.67,0,0-.14-.08-.17,0s.09,0,.11.06-.09.23-.14.36a1.89,1.89,0,0,1-.11-.36c0-.06,0,0-.11,0s0,0-.11,0a.64.64,0,0,0-.3-.2c0-.15-.1-.1-.09-.21s.06,0,.06-.09.13-.15.22-.2.11-.22.25-.23,0-.07,0-.12a2.42,2.42,0,0,0,.42-.12.65.65,0,0,1,0-.29s-.11,0-.14-.09a.28.28,0,0,1,.25.06c0-.09.13,0,.22,0,0,.15.13.08.11.2s-.33.14-.36.36c.05.06.16.06.28.05s.24.28.47.3c-.06-.16.05-.15,0-.33s-.09-.08-.09-.17.14.09.22.12,0-.15.09-.12,0-.11,0-.18-.06-.06-.09-.09a1.21,1.21,0,0,1-.25-.08c0-.06.08-.06.09-.12s-.12-.09-.12-.21H61c0-.09-.07-.07-.08-.14a.77.77,0,0,0-.27,0c0-.18-.22-.13-.25,0q0-.16-.12-.18c-.14.09-.3.39-.13.56,0,0,.14,0,.13,0a.69.69,0,0,1-.13.2c-.07-.07.06-.06,0-.17a.54.54,0,0,1-.22-.27c-.1,0-.09-.1-.22-.05s0,.06,0,.14.06.27,0,.32-.06-.07,0-.14-.14.11-.25.11a.53.53,0,0,1-.28-.17c.12,0,.17,0,.28,0s0-.09,0-.18.21-.16.36-.2a.77.77,0,0,1-.06-.24h-.41c-.06.09-.2.09-.22.21a1.33,1.33,0,0,1-.06-.12c-.07,0-.17,0-.14-.09.21.05.45-.1.64-.17,0,.13.24.1.28,0a1.29,1.29,0,0,0-.06-.21c-.16,0-.24.14-.41.15V54.2a.1.1,0,0,0-.09.18,2.17,2.17,0,0,1-.38,0c0,.15-.13.08-.14.17s.08,0,.11,0a.11.11,0,0,1-.11.06c-.05-.17-.27-.15-.48-.14a.4.4,0,0,1-.16.29c0,.09.07.1,0,.2a.71.71,0,0,0,.31-.08c-.06.15.15,0,.16.11s-.13,0-.11.06.31,0,.25.21c.11-.07.14,0,.25,0h0s.08-.1.08,0,0,0-.08,0,.12.16,0,.2,0-.05,0-.09c-.24,0-.37-.17-.66-.14-.09,0-.09-.14-.2-.15s-.08.1-.16.12a.22.22,0,0,0,0-.15c-.11,0-.11.13-.22.12s-.13,0-.22,0,0,.06-.06.06,0,0,0-.06-.1,0-.19,0-.65-.08-.89-.21a2.07,2.07,0,0,1-.61.15c-.06.11,0,.12.08.21s.18,0,.2.08-.1.06-.14.09-.07-.07-.14-.09-.36.08-.44.21c.15,0,.21.09.22.23.15-.05.26,0,.39,0-.14.26-.71,0-.67.5.09.07.12.08.09.24.05,0,.05,0,.11,0s0,.11,0,.11,0,.12.09.09a.15.15,0,0,1,.25-.06c-.12.1-.16.28-.31.36s-.17.17-.33.17c0,.09,0,.09,0,.15s.17-.06.3,0,.12-.11.22-.12a2,2,0,0,1,.45-.47h.05s0-.1.08-.09,0,0,0,0,0,0,0,0-.07.16-.11.24c.23,0,.28-.13.48-.15a1.51,1.51,0,0,0,0-.32c.12,0,.13-.07.25-.06a1,1,0,0,1,.19.21.34.34,0,0,1,.3.41c.14,0,0-.17.12-.18a1.5,1.5,0,0,0,.08.67c-.09.08,0,.11,0,.21s-.08,0-.06.12a6,6,0,0,0,0,.85c.08,0,.13.12.2.17s.07.32.16.41,0,.06,0,.09.14.18.19.29.08.06.16,0,0-.1,0-.26c0,0,0,0,0,0v0c.06,0,0,0,0,.09a.84.84,0,0,1,.23.23.7.7,0,0,0,.11.44c.23.06.36.21.64.15a.78.78,0,0,0,.11.2c.1,0,.13,0,.22,0a.29.29,0,0,0,.14.15v.09c.16,0,.19.16.33.2s0-.11.08-.11a2,2,0,0,0,.08.26c0,.06-.07,0-.05.11s-.09.18-.11.3.11.31,0,.41c0,.05.14.07.19.12s-.09,0-.13.06a.34.34,0,0,0,.24.38c0,.07,0,.06,0,.14s.14.24.3.27a1,1,0,0,1,.14.41s0,.1,0,.14a.14.14,0,0,1,0,.12c-.08.13,0,.28,0,.47s-.08.42-.14.61.12,0,.14,0-.1.14-.14.21.09,0,.06.12,0,.14,0,.23.12.3.06.47.07.23.16.29,0,.06,0,.12a.32.32,0,0,1,.16.09c.11,0,.29,0,.31-.06A.27.27,0,0,1,61,66c0-.1-.11,0-.08-.15s.08-.15.08-.26.11,0,.11-.12-.09-.07-.08-.17.19-.38,0-.41c.19,0,.18-.1.22-.21s.2-.08.31-.11,0-.19-.06-.3h.22s0,0,.06,0,0-.15.11-.14c0-.17.11-.2.17-.3v-.2c.05,0,.08-.13.13-.18a1.2,1.2,0,0,0,.25-.09c0-.18.15-.35.06-.55a.18.18,0,0,0,.06-.15s.05,0,.08,0,.08-.13.11-.2,0-.14.08-.18,0-.11,0-.18A.71.71,0,0,0,62.82,61.79Zm-1.27-4.86s0,0,0,0S61.54,56.92,61.55,56.93Zm-2.13-2.29c.08,0,0,.08,0,.12S59.4,54.66,59.42,54.64Zm-.11.15c.08,0,.09.05.19,0s-.11.12-.19.14Zm-.86.06s0,0,0,0S58.45,54.85,58.45,54.85Zm-.59,4.21s0,0,0,0S57.86,59.08,57.86,59.06Zm0,.06c.07,0,.06.1.11.12S57.87,59.21,57.89,59.12Z" style="fill:#2366bd"/><path d="M68.48,55.08c0-.13-.17-.17-.14-.38.2,0,.27-.16.42-.23s.26-.06.27-.21H68.9s0,.06,0,.06a1.65,1.65,0,0,0-.53.17c0,.16-.13.14-.11.3s-.11.08-.11.17a2.53,2.53,0,0,0,.27.18A.09.09,0,0,1,68.48,55.08Z" style="fill:#2366bd"/><path d="M73.11,54.55c.06,0,.1-.13.17-.17-.11,0-.13-.14-.23-.12s0,.07,0,.06h-.17C72.79,54.53,73,54.46,73.11,54.55Z" style="fill:#2366bd"/><path d="M64.26,55.87c0-.07.11,0,.14-.09s-.06-.16-.05-.29c-.12,0-.16,0-.28,0s-.07-.12-.16-.12-.12.1-.12.21.08,0,.14,0-.1.06-.08.18c.14,0,.11.1.2.11S64.24,55.84,64.26,55.87Z" style="fill:#2366bd"/><path d="M60.47,55.87c-.11,0,0-.07-.11-.14s-.08-.06-.17,0,0,.18-.14.14.1.12.2.12C60.24,55.73,60.44,56.06,60.47,55.87Z" style="fill:#2366bd"/><path d="M65.35,56.93s-.09,0-.11-.09-.19-.2-.09-.35-.08-.05-.11-.09.09,0,.09-.12a.48.48,0,0,0-.23.06c0,.16,0,.23,0,.38a.45.45,0,0,0,.13.06c0,.1-.09.16-.13.12a.34.34,0,0,0,.05.26c-.05,0-.15,0-.14.09a2.12,2.12,0,0,1,.45,0C65.26,57.09,65.24,57,65.35,56.93Z" style="fill:#2366bd"/><path d="M64.6,57.05c.06,0,.17,0,.22-.06s0-.13,0-.27h-.14c0,.13-.06,0-.11.09S64.56,57,64.6,57.05Z" style="fill:#2366bd"/><path d="M74.1,57.89c.06,0,0,.1.09.09s0-.22.16-.23c-.14,0-.23-.1-.38-.12a2.91,2.91,0,0,1,0,.32C74,58,74,57.88,74.1,57.89Z" style="fill:#2366bd"/><path d="M73.47,58.8c0,.11.06.13.11.18a.27.27,0,0,1,.16-.21.19.19,0,0,1,.09,0c.08-.11.27-.12.36-.23s-.06-.37-.06-.59H74c0,.14,0,.21,0,.35a.06.06,0,0,0,0,.06.78.78,0,0,0-.25.18c-.1,0-.27,0-.28.17s.16,0,.14.06Z" style="fill:#2366bd"/><path d="M66.7,58.57c0,.08.1,0,.17.09,0-.11,0-.13-.14-.12S66.72,58.57,66.7,58.57Z" style="fill:#2366bd"/><path d="M72.89,59.56a.37.37,0,0,1,.08.18c.11,0,.1-.14.11-.26S72.91,59.5,72.89,59.56Z" style="fill:#2366bd"/><path d="M60.05,59.48v.11h.11A.1.1,0,0,0,60.05,59.48Z" style="fill:#2366bd"/><path d="M60.36,59.62a.2.2,0,0,0,0-.14h-.08C60.24,59.58,60.25,59.64,60.36,59.62Z" style="fill:#2366bd"/><path d="M60.39,59.59v.15s.07,0,.11,0A.12.12,0,0,0,60.39,59.59Z" style="fill:#2366bd"/><path d="M60.33,60.06c.1,0,.14,0,.2.06s.11,0,.19-.06c0-.19-.19-.16-.36-.17,0-.08-.06-.06-.06-.12s-.15,0-.16-.12h-.42c0,.06-.06.08,0,.15s.11-.1.25-.06.12.16.24.18.21,0,.23,0S60.32,60,60.33,60.06Z" style="fill:#2366bd"/><path d="M60.61,59.74s-.07,0-.11,0S60.64,59.84,60.61,59.74Z" style="fill:#2366bd"/><path d="M73,60.06a.55.55,0,0,0,.16.18c0-.09.13-.12.12-.27S73,59.92,73,60.06Z" style="fill:#2366bd"/><path d="M72.33,60.15c.08,0,.08-.11.11-.18a.12.12,0,0,0-.11,0C72.28,60.06,72.29,60,72.33,60.15Z" style="fill:#2366bd"/><path d="M60,60v.12c.1,0,.1,0,.2,0S60.12,60,60,60Z" style="fill:#2366bd"/><path d="M60.77,60.12c.1,0,.2,0,.17-.12h-.17Z" style="fill:#2366bd"/><path d="M63.68,60.12c0,.06-.07,0,0,.12h.11Q63.76,60.14,63.68,60.12Z" style="fill:#2366bd"/><path d="M73.22,60.59c.06.06.08,0,.16,0s-.06.13,0,.15a.22.22,0,0,1,.25-.12c0-.13-.09-.12-.14-.18s0-.14-.11-.14,0,.12,0,.2S73.26,60.52,73.22,60.59Z" style="fill:#2366bd"/><path d="M70.47,60.68c0,.17-.1.21,0,.29s.08-.08.14-.09A.37.37,0,0,0,70.47,60.68Z" style="fill:#2366bd"/><path d="M72.3,61.47c0,.12.15.14.14.29.18,0,.15.13.33.09,0-.07.08,0,.09-.09s-.06,0-.06,0,0-.22.14-.26c-.06-.1,0-.2,0-.27a.12.12,0,0,0,.09-.14c-.07-.06-.12-.13-.25-.12C72.72,61.25,72.35,61.19,72.3,61.47Z" style="fill:#2366bd"/><path d="M71.78,61.26c0-.06-.13-.11-.11-.2s-.06-.06-.12-.06-.06,0-.13,0c0,.34.39.27.33.67.14,0,.17.21.3.15s0-.24,0-.38A.74.74,0,0,1,71.78,61.26Z" style="fill:#2366bd"/><path d="M73.33,61.5c0-.13-.18-.09-.22-.18-.15.12-.24.45,0,.56q0-.14.06-.18c.06.06.06.15.16.09s-.11-.16-.11-.29A.1.1,0,0,0,73.33,61.5Z" style="fill:#2366bd"/><path d="M73.94,61.38c-.09-.06-.31-.05-.31.09S73.93,61.5,73.94,61.38Z" style="fill:#2366bd"/><path d="M74.24,61.5h-.19s0,.09-.11.09,0-.09-.14-.06-.11,0-.08.11.07,0,.13,0a2.37,2.37,0,0,1,.39.3v.17c.15-.09.2.06.31.09s.07-.14.19-.11.14.22.25.11c-.06,0-.08-.09-.08-.17s-.18-.11-.22-.21v-.09C74.47,61.72,74.42,61.55,74.24,61.5Z" style="fill:#2366bd"/><path d="M72.77,62.17c0-.1-.09-.07-.08-.17a1.49,1.49,0,0,1-.55-.12s-.08.08-.06.17C72.35,62.06,72.47,62.21,72.77,62.17Z" style="fill:#2366bd"/><path d="M74.82,63.32c0-.14,0-.21,0-.36s-.07-.08-.11-.11c0-.23-.2-.26-.17-.53,0,0-.06,0-.11,0s0,.42-.09.5,0-.1-.16-.06-.13,0-.11-.15.14,0,.11-.11-.38,0-.53-.09,0,.14,0,.14a1.15,1.15,0,0,0-.28.09c0,.09,0,.25-.11.27s-.14,0-.22,0,0,.16-.06.17,0-.09-.11,0,0,.26-.14.3-.18,0-.22.08a.66.66,0,0,1,0,.44s.07.08.08.15,0,.18,0,.32c.09,0,.09.07.17.06s.19-.16.39-.12a.57.57,0,0,1,.52-.14.43.43,0,0,1,.17.26c.11-.05.08.07.2,0s0,.17,0,.21a.92.92,0,0,0,.55.11.71.71,0,0,1,.22-.15c0-.14.14-.13.11-.29.1,0,.08-.14.17-.14s.05-.17.06-.27a2.18,2.18,0,0,0-.09-.52C74.89,63.28,74.85,63.4,74.82,63.32Z" style="fill:#2366bd"/><path d="M68.37,62.38a.76.76,0,0,0-.11.29.47.47,0,0,0-.25.21c0,.1,0,.11,0,.2a.58.58,0,0,1-.08.18c.06.13,0,.25.08.35s.12,0,.23,0,0-.19.11-.32v-.15s0,0,0-.06,0-.25.06-.47C68.38,62.58,68.48,62.36,68.37,62.38Z" style="fill:#2366bd"/><path d="M76.35,64.37c0-.08,0-.16-.08-.15v.24c0,.08-.14.08-.11.2.18,0,.06.09,0,.18.17,0,.18-.2.25-.32s.12-.06.14-.12S76.48,64.38,76.35,64.37Z" style="fill:#2366bd"/><path d="M76,64.72c0,.06-.08.09-.08.18a.1.1,0,0,0-.11,0c0,.06-.06.14-.14.17s-.15.18-.19.3c.09-.05.15,0,.25,0s.11-.08.08-.21H76c0-.17.22-.12.22-.29S76.1,64.77,76,64.72Z" style="fill:#2366bd"/><path d="M74.16,64.81s.09.18.11.26.22-.07.19-.26C74.35,64.83,74.21,64.77,74.16,64.81Z" style="fill:#2366bd"/><path d="M61.61,65.72h.11C61.74,65.6,61.6,65.62,61.61,65.72Z" style="fill:#2366bd"/><path d="M76.75,55.79a1.89,1.89,0,1,0,0-3.77H74.42a1.89,1.89,0,0,0,0,3.77Z" style="fill:#e5e8ec"/><path d="M74.55,55.56h0a1.62,1.62,0,0,1-1.15-.48,1.68,1.68,0,0,1-.47-1.16,1.63,1.63,0,1,1,1.62,1.64Zm0-3a1.37,1.37,0,0,0,0,2.74v0a1.38,1.38,0,0,0,0-2.75Z" style="fill:#2366bd"/><path d="M76.71,55.56h0a1.64,1.64,0,0,1-1.62-1.65,1.62,1.62,0,1,1,1.62,1.64Zm0-3a1.38,1.38,0,0,0,0,2.75v0a1.38,1.38,0,0,0,0-2.75Z" style="fill:#2366bd"/><path d="M74.55,55.52h0a.51.51,0,0,1-.34-.16,2.19,2.19,0,0,1-.41-1.44c0-.91.33-1.6.76-1.6s.75.69.75,1.6S75,55.52,74.55,55.52Zm0-2.93c-.21,0-.49.5-.49,1.33a1.9,1.9,0,0,0,.33,1.26.21.21,0,0,0,.15.07h0c.2,0,.49-.5.49-1.33S74.76,52.59,74.56,52.59Z" style="fill:#2366bd"/><polygon points="76.04 54.06 73.06 54.05 73.06 53.78 76.04 53.79 76.04 54.06" style="fill:#2366bd"/><polygon points="75.8 53.35 73.31 53.35 73.31 53.08 75.8 53.09 75.8 53.35" style="fill:#2366bd"/><polygon points="75.79 54.76 73.31 54.75 73.31 54.49 75.79 54.49 75.79 54.76" style="fill:#2366bd"/><rect x="61.29" y="53.32" width="10.11" height="1.42" style="fill:#e5e8ec"/><rect x="54.66" y="54.76" width="4.01" height="3.73" rx="0.46" ry="0.46" style="fill:#484f59"/><path d="M58.21,54.83h-.59v.78h1v-.39A.39.39,0,0,0,58.21,54.83Z" style="fill:#f4da80"/><path d="M56.15,57.06v-.44H54.72v.84h1A.4.4,0,0,0,56.15,57.06Z" style="fill:#f4da80"/><path d="M55.75,55.69h-1v.85h1.43v-.45A.4.4,0,0,0,55.75,55.69Z" style="fill:#f4da80"/><path d="M56.23,56.06h.92a.46.46,0,0,1,.4-.44v-.79H55.82v.79A.48.48,0,0,1,56.23,56.06Z" style="fill:#f4da80"/><rect x="56.23" y="56.14" width="0.92" height="0.92" style="fill:#f4da80"/><path d="M57.15,57.13h-.93a.45.45,0,0,1-.4.4v.9h1.73v-.9A.47.47,0,0,1,57.15,57.13Z" style="fill:#f4da80"/><path d="M57.22,57.06a.4.4,0,0,0,.4.4h1v-.84H57.22Z" style="fill:#f4da80"/><path d="M57.62,55.69h0a.4.4,0,0,0-.4.4v.45h1.39v-.85Z" style="fill:#f4da80"/><path d="M55.74,54.83h-.62a.39.39,0,0,0-.4.39v.39h1Z" style="fill:#f4da80"/><path d="M54.72,58a.4.4,0,0,0,.4.4h.62v-.89h-1Z" style="fill:#f4da80"/><path d="M57.62,58.43h.59a.4.4,0,0,0,.4-.4v-.49h-1Z" style="fill:#f4da80"/><rect x="59.84" y="63.8" width="8.47" height="0.52" transform="translate(-0.15 0.15) rotate(-0.14)" style="fill:#e5e8ec"/><rect x="61.55" y="62.48" width="5.05" height="0.26" transform="translate(-0.37 0.39) rotate(-0.34)" style="fill:#e5e8ec"/><rect x="54.26" y="61.78" width="1.52" height="0.26" style="fill:#e5e8ec"/><rect x="54.26" y="66.22" width="12.06" height="0.52" style="fill:#e5e8ec"/><rect x="60.39" y="60.52" width="5.34" height="0.52" style="fill:#e5e8ec"/><rect x="54.26" y="60.52" width="5.34" height="0.52" style="fill:#e5e8ec"/><rect x="66.51" y="60.52" width="5.35" height="0.52" style="fill:#e5e8ec"/><rect x="72.64" y="60.52" width="5.35" height="0.52" style="fill:#e5e8ec"/><rect x="36.45" y="32.97" width="19.57" height="39.64" rx="2.45" ry="2.45" style="fill:#cdd5d7"/><rect x="36.83" y="33.35" width="18.82" height="38.89" rx="2.45" ry="2.45" style="fill:#e5e8ec"/><path d="M47.51,35.37a.16.16,0,0,1-.16.15H45.09a.16.16,0,0,1-.16-.15h0a.16.16,0,0,1,.16-.16h2.26a.16.16,0,0,1,.16.16Z" style="fill:#cdd5d7"/><rect x="44.95" y="69.66" width="2.64" height="1.13" rx="0.28" ry="0.28" style="fill:#cdd5d7"/><polygon points="36.81 39.15 36.81 39.15 36.35 39.15 36.35 39.15 36.35 37.64 36.35 37.64 36.81 37.64 36.81 37.64 36.81 39.15" style="fill:#cdd5d7"/><polygon points="36.81 43.11 36.81 43.11 36.35 43.11 36.35 43.11 36.35 40.56 36.35 40.56 36.81 40.56 36.81 40.56 36.81 43.11" style="fill:#cdd5d7"/><polygon points="36.81 46.13 36.81 46.13 36.35 46.13 36.35 46.13 36.35 43.7 36.35 43.7 36.81 43.7 36.81 43.7 36.81 46.13" style="fill:#cdd5d7"/><rect x="37.63" y="37.47" width="17.18" height="30.49" style="fill:#f99b0f"/><path d="M35.59,32.3l-1.67-1.72,1.67-1.74h3.84V32.3Zm-.06-2.08a.35.35,0,0,0,0,.7.35.35,0,0,0,0-.7Z" style="fill:#2c7eea"/><polygon points="37.5 29.67 37.22 30.24 36.6 30.33 37.05 30.78 36.95 31.41 37.5 31.11 38.05 31.41 37.94 30.78 38.39 30.33 37.77 30.24 37.5 29.67" style="fill:#fff"/><path d="M65.25,39.47a1.3,1.3,0,0,0,1.3,1.3l.33-.62c.72,0,1.3-1.08,1.3-1.8v-.48a1.3,1.3,0,0,0-1.3-1.3h-.33a1.3,1.3,0,0,0-1.3,1.3Z" style="fill:#b91e2d"/><path d="M67.92,37.83a1.23,1.23,0,0,1,.27,0,1.83,1.83,0,0,0,0,.33A2.18,2.18,0,0,0,70.44,40a2.21,2.21,0,1,1-2.52-2.17Z" style="fill:#b91e2d"/><path d="M65.77,37.06a2.4,2.4,0,0,0,0,.37A1.72,1.72,0,0,0,67,39c0,.38.15.71.18,1,.07.66.8.73.8.73.09.58-2.2,1.39-2.15,1.29a6,6,0,0,0,.69-1.41,1.27,1.27,0,0,0-.2-1.05,1.09,1.09,0,0,0-.76-.36.16.16,0,0,1-.11,0,1.1,1.1,0,0,1,0-.27V37.79A.91.91,0,0,1,65.77,37.06Z" style="fill:#e9d6b8"/><path d="M64.36,49v0h0a9.46,9.46,0,0,1,.87-2.63A6.33,6.33,0,0,1,66.39,45c.68.37,1.35.19,2,.67a5.17,5.17,0,0,1,.2.86c.1.55.18,1.06.25,1.55,1,.09,3.41.27,4.33.45a.89.89,0,0,1,.65.41c0,.88-.76,1.38-1.2,2.09-.07.12-5.88,0-6.88.06C65.86,51.14,63.76,51.16,64.36,49Z" style="fill:#194866"/><path d="M73.43,50.17a3.56,3.56,0,0,0,.36-.62c.1-.4.1-.66,0-.75-.43-.36-1.89.38-5.57,5.9-.81,1.2-2.47,3.53-2,3.21.85-.54,1.06-1.2,1.6-1.76C72.24,51.57,72.71,51,73.43,50.17Z" style="fill:#e2c59c"/><path d="M66,57.74l.65-1a.26.26,0,0,1,.26-.15l-.5.8a.37.37,0,0,0,0,.47.27.27,0,0,0,.14,0l-.15.24a.27.27,0,0,1-.4.1A.36.36,0,0,1,66,57.74Z" style="fill:#163f59"/><path d="M65.9,44.09l-1-1.8a.85.85,0,0,1,.41-1.37l3.17-.74a1,1,0,0,1,.91,1.12l-.65,2.16Z" style="fill:#e9d6b8"/><path d="M69,40.56c-.43,2,.63,5.45.63,5.45s.61.13.72-.2-.23-1.43-.46-4.16C69.72,40,69.05,40.23,69,40.56Z" style="fill:#163f59"/><path d="M64.69,41.36c-.27,2.4-.93,5.47-.93,5.47s.66.53.87.24.52-1.77.81-4.42C65.62,41,64.73,41,64.69,41.36Z" style="fill:#163f59"/><path d="M68.49,44.78c0,.24-.18.8-.36.81l-1.88-.15c-.19,0-.65-.16-.66-.4v-.83a.41.41,0,0,1,.33-.46l2.33-.65a.42.42,0,0,1,.35.44Z" style="fill:#ffab01"/><path d="M68.34,45.62a.53.53,0,0,1-.29,0l-1.8-.11c-.16,0-.29,0-.29-.07v-.1s.13,0,.29,0l1.8.12a.6.6,0,0,1,.29.06Z" style="fill:#15100c"/><path d="M69,41.1a1.34,1.34,0,0,0-.14-.32,3.78,3.78,0,0,1-3.69.62c0,.05,0,.11,0,.16,0,.59.06,1.18.06,1.77s.67.86,1,.86a6.52,6.52,0,0,0,2.58-.43c.3-.09.84-.61.71-1S69.14,41.64,69,41.1Z" style="fill:#ffab01"/><path d="M66,40.76s-1.11,0-1.31.61a2.34,2.34,0,0,0,.24,1.44s.36,1.09.47,1.68-.25,1.17-.13,1a2.44,2.44,0,0,0,.74-.23c.43-.23.16-1,.1-1.29a12.83,12.83,0,0,1-.28-1.76C65.88,42.05,66,40.76,66,40.76Z" style="fill:#194866"/><path d="M69.61,41s.09-.5-.15-.69A2.1,2.1,0,0,0,68,40.18a2.59,2.59,0,0,0-.44.16s1,.29,1,2a8.52,8.52,0,0,1-.15,1.34,8.51,8.51,0,0,0-.1,1.34s.56.08.59.15a4.09,4.09,0,0,1,.4-1.11A10.34,10.34,0,0,0,69.61,41Z" style="fill:#194866"/><path d="M68.5,40.12c.47.36.76.67.77,2.65,0,.32-.09.9-.13,1.45l.24-.4A10.13,10.13,0,0,0,69.62,41s0-.45-.18-.64A1.27,1.27,0,0,0,68.5,40.12Z" style="fill:#163f59"/><path d="M72.41,50.58a3.71,3.71,0,0,0,.24-.66,1,1,0,0,0-.16-.73c-.49-.45-1.58.38-3.34,4-.89,1.82-1.6,3.52-2.8,4.5-.18.14-.22.16-.28.33A2.27,2.27,0,0,0,66,59.16c.26-.24.75-1,1.39-1.85A76.48,76.48,0,0,0,72.41,50.58Z" style="fill:#e9d6b8"/><path d="M65.65,58.78l.57-1.09a.28.28,0,0,1,.25-.17l-.44.84a.37.37,0,0,0,.09.46.3.3,0,0,0,.15,0l-.13.25a.28.28,0,0,1-.4.13A.39.39,0,0,1,65.65,58.78Z" style="fill:#194866"/><path d="M61.13,50.65a.85.85,0,0,0-.22.32c0,.09,0,.54,0,.54a.52.52,0,0,0,.12-.3A1.61,1.61,0,0,1,61.13,50.65Z" style="fill:#e2c59c"/><path d="M61,50.94a.64.64,0,0,0-.18.53.36.36,0,0,1-.12.31,3.09,3.09,0,0,1,0-.49c0-.1,0-.2,0-.3C60.85,50.68,61.36,50.67,61,50.94Z" style="fill:#e2c59c"/><path d="M61.31,50.45c0,.12-.09.31-.05.38a.71.71,0,0,0,.21.26c-.24.07-.38-.25-.52-.32S61.26,50.15,61.31,50.45Z" style="fill:#e9d6b8"/><path d="M62.24,49.4a4,4,0,0,0-.89.81c-.18.32-.13.57-.33.73L61,51c-.05,0-.12.1-.14.13s-.07.11-.06.07a3.26,3.26,0,0,1,.21-.88,10.32,10.32,0,0,1,1.11-1.2C62.44,48.84,62.71,49,62.24,49.4Z" style="fill:#e9d6b8"/><path d="M61,50.91s-.06-.07-.12,0a1.33,1.33,0,0,0-.25.35c0,.08-.18.51-.18.51a.56.56,0,0,0,.2-.26A2.2,2.2,0,0,1,61,50.91Z" style="fill:#e9d6b8"/><path d="M62.51,48.59c.3,0,1-.47,1.1-.32a12.23,12.23,0,0,1-2.53,1.92Z" style="fill:#e9d6b8"/><path d="M62.33,49a.29.29,0,0,1,.18.29c.53-.4,2-1.55,2.16-2.3,0-.23-.4-.81-1.09,0a9.51,9.51,0,0,0-1.41,2A.42.42,0,0,1,62.33,49Z" style="fill:#163f59"/><path d="M71.4,42a.09.09,0,0,0,.12,0,1.33,1.33,0,0,0,0-.43c0-.09-.08-.54-.08-.54a.57.57,0,0,0,0,.33A2.12,2.12,0,0,1,71.4,42Z" style="fill:#e2c59c"/><path d="M71.4,41.92a.66.66,0,0,0-.09-.56.39.39,0,0,1,0-.33,2.15,2.15,0,0,1,.22.45.73.73,0,0,1,.07.29C71.56,42.07,71.23,42.32,71.4,41.92Z" style="fill:#e2c59c"/><path d="M69.86,45.62A7.55,7.55,0,0,1,71,43.16s.62-.54-.41,2.08C70.25,46,69.87,45.78,69.86,45.62Z" style="fill:#e9d6b8"/><path d="M71.39,41.73l.08,0,.06.29a3.18,3.18,0,0,1-.21.7A10,10,0,0,0,71,43.84c0,.09-.51.11-.51.11s.33-.77.44-1.09a7.23,7.23,0,0,0,.14-1,3.34,3.34,0,0,0,.08-.33s.11.05,0,.4c0,.09.09.06.09.06Z" style="fill:#e9d6b8"/><path d="M71.43,42.1a.86.86,0,0,0,0-.39c0-.09-.26-.48-.26-.48a.52.52,0,0,0,.06.32A1.62,1.62,0,0,1,71.43,42.1Z" style="fill:#e9d6b8"/><path d="M71.3,42s-.07,0-.1,0,0,.05,0,.07,0,.35,0,.35a2.22,2.22,0,0,1,.08-.28,1.93,1.93,0,0,0,0-.2v0Z" style="fill:#e2c59c"/><path d="M71.21,42a.51.51,0,0,0,0-.37s0,.14-.07.26a1.2,1.2,0,0,0,0,.25.35.35,0,0,1,.12.22s.06-.17.06-.29S71.2,42.05,71.21,42Z" style="fill:#e2c59c"/><path d="M70.72,44.74c0-.09-.51-.22-.6-.06l-.08.11s-.66,1-.13,1.26C69.91,46.05,70.53,46.11,70.72,44.74Z" style="fill:#163f59"/><rect x="67.37" y="48.42" width="5.54" height="0.11" style="fill:#cdd5d7"/><path d="M69.81,48.41a.16.16,0,0,0,.14.16h2.84c.08,0,.19,0,.28-.28l1.4-2.56c0-.11-.08-.18-.16-.16l-2.91.09a.27.27,0,0,0-.19.19Z" style="fill:#cdd5d7"/><path d="M70.16,48.54H67.35a1.12,1.12,0,0,0,.46.08h4.67a1.1,1.1,0,0,0,.45-.08Z" style="fill:#b7bec0"/><g style="opacity:0.6000000000000001"><g style="clip-path:url(#a)"><rect x="35.74" y="46.76" width="1.33" height="0.43" style="fill:#eed2ce"/><rect x="35.74" y="52.81" width="1.33" height="0.43" style="fill:#eed2ce"/><rect x="36.95" y="44.1" width="29.56" height="22.7" style="fill:#eed2ce"/><rect x="36.95" y="43.99" width="29.56" height="0.75" style="fill:#c49189"/><rect x="60.18" y="46.89" width="4.37" height="4.95" style="fill:#ffebe8"/><rect x="54.86" y="46.89" width="4.37" height="4.95" style="fill:#ffebe8"/><rect x="49.54" y="46.89" width="4.37" height="4.95" style="fill:#ffebe8"/><rect x="44.22" y="46.89" width="4.37" height="4.95" style="fill:#ffebe8"/><rect x="38.89" y="46.89" width="4.37" height="4.95" style="fill:#ffebe8"/><polygon points="58.57 54.39 59.23 54.39 64.55 54.39 64.55 64.65 59.23 64.65 58.57 64.65 54.86 64.65 54.86 54.39 58.57 54.39" style="fill:#ffebe8"/><polygon points="59.23 54.39 64.55 54.39 64.55 56.33 54.86 56.33 54.86 54.39 58.57 54.39 59.23 54.39" style="fill:#eed2ce"/><polygon points="58.5 54.39 59.2 54.39 64.86 54.39 64.86 54.87 59.2 54.87 58.5 54.87 54.56 54.87 54.56 54.39 58.5 54.39" style="fill:#c49189"/><polygon points="58.5 64.16 59.2 64.16 64.86 64.16 64.86 64.65 59.2 64.65 58.5 64.65 54.56 64.65 54.56 64.16 58.5 64.16" style="fill:#e0b6af"/><polygon points="42.6 54.39 43.27 54.39 48.59 54.39 48.59 64.65 43.27 64.65 42.6 64.65 38.89 64.65 38.89 54.39 42.6 54.39" style="fill:#ffebe8"/><polygon points="43.27 54.39 48.59 54.39 48.59 56.33 38.89 56.33 38.89 54.39 42.6 54.39 43.27 54.39" style="fill:#eed2ce"/><polygon points="42.53 54.39 43.24 54.39 48.89 54.39 48.89 54.87 43.24 54.87 42.53 54.87 38.59 54.87 38.59 54.39 42.53 54.39" style="fill:#c49189"/><polygon points="42.53 64.16 43.24 64.16 48.89 64.16 48.89 64.65 43.24 64.65 42.53 64.65 38.59 64.65 38.59 64.16 42.53 64.16" style="fill:#e0b6af"/><polygon points="34.24 46 34.44 46 36.04 46 36.04 54 34.44 54 34.24 54 33.12 54 33.12 46 34.24 46" style="fill:#ededed"/><rect x="49.54" y="54.39" width="4.37" height="11.76" style="fill:#e0b6af"/><rect x="49.97" y="61.34" width="3.52" height="0.24" style="fill:#c49189"/><rect x="49.97" y="62.04" width="3.52" height="0.24" style="fill:#c49189"/><rect x="48.59" y="66.17" width="6.27" height="0.94" style="fill:#ffebe8"/><rect x="49.54" y="54.39" width="4.37" height="1.94" style="fill:#c49189"/><rect x="36.15" y="66.8" width="31.16" height="1.4" style="fill:#e0b6af"/><rect x="36.15" y="42.8" width="31.16" height="1.4" style="fill:#e0b6af"/></g></g><path d="M44.67,68.06s4.18,0,5.8,0c1.12,0,1.22-1.58.78-1.82-1.34-.72-5.52-1.1-5.52-1.1l-2.84,2.61S43.05,67.78,44.67,68.06Z" style="fill:#3c463b"/><path d="M48.62,59.51s1.07-.3,1.54,1.11a10.78,10.78,0,0,1,.56,4.56c0,.19-.19.86-1.39.89-.49,0-.29-1-.29-1a21.34,21.34,0,0,1-.65-2.39A6.66,6.66,0,0,1,48.62,59.51Z" style="fill:#2771d1"/><path d="M49.47,59.64l-2.76-.9-2.09-.14-2.29.7s-.75.51-.06,2.17a10.6,10.6,0,0,1,.43,4.26l5.91.19a48.2,48.2,0,0,1,.5-4.81A3.49,3.49,0,0,1,49.47,59.64Z" style="fill:#2c7eea"/><path d="M45.42,65.81h.3a25.08,25.08,0,0,0,0-7l-.27.16C45.47,61.3,45.34,63.67,45.42,65.81Z" style="fill:#2771d1"/><path d="M46.59,59.39A.68.68,0,0,1,46,60h-.78a.68.68,0,0,1-.57-.61c-.07-.52-.13-1-.19-1.58A1.19,1.19,0,0,1,45,56.68a1.45,1.45,0,0,1,1.19,0,1.21,1.21,0,0,1,.56,1.13C46.72,58.34,46.65,58.87,46.59,59.39Z" style="fill:#e2c59c"/><polygon points="45.59 60.04 45.1 60.85 44.19 59.72 44.33 59.12 44.63 58.88 44.63 59.33 45.59 60.04" style="fill:#2771d1"/><polygon points="45.65 60.04 46.15 60.85 46.99 59.8 46.85 59.15 46.64 58.88 46.56 59.41 45.65 60.04" style="fill:#2771d1"/><path d="M45.5,55.68A.63.63,0,0,0,45,56h-.21a.48.48,0,0,0-.49.48v1.2h.34v-.49a.34.34,0,0,1,.34-.34h.1a.62.62,0,0,0,.62-.62v-.51Z" style="fill:#163f59"/><path d="M44.9,58.08a.29.29,0,0,1-.29.3h0a.3.3,0,0,1-.3-.3v-.36a.3.3,0,0,1,.3-.29h0a.3.3,0,0,1,.27.17" style="fill:#e2c59c"/><path d="M45.24,56.15v-.47h1a.63.63,0,0,1,.63.62v.47h-1A.62.62,0,0,1,45.24,56.15Z" style="fill:#163f59"/><path d="M46.8,58.54a1,1,0,0,1-.5.8,1.88,1.88,0,0,1-1.36,0,1,1,0,0,1-.51-.8V56.42A.52.52,0,0,1,45,56h1.26a.52.52,0,0,1,.55.46Z" style="fill:#e9d6b8"/><path d="M45.86,55.68a.61.61,0,0,1,.52.28h.22a.48.48,0,0,1,.48.48v1.2h-.34v-.49a.34.34,0,0,0-.34-.34H46a.62.62,0,0,1-.62-.62v-.51Z" style="fill:#163f59"/><path d="M46.47,57.72a.29.29,0,0,1,.29-.29h0a.29.29,0,0,1,.29.29v.36a.29.29,0,0,1-.29.3h0a.29.29,0,0,1-.27-.18" style="fill:#e9d6b8"/><path d="M45.34,56.27a.49.49,0,0,0,0-.12v-.47h-.44a.63.63,0,0,0-.63.62v.47h.57A.65.65,0,0,1,45.34,56.27Z" style="fill:#163f59"/><path d="M39.86,76.06c-.07.08,0,.29,0,.29a8,8,0,0,0,1.49,0,2.26,2.26,0,0,0,.4-.19s.07-.1.1-.12.07,0,.11,0l.17-.12a1,1,0,0,0,0-.73s-1-.32-1.14-.09A7.59,7.59,0,0,1,39.86,76.06Z" style="fill:#161711"/><path d="M50.39,75.5l.08.85.85.09s.06-.12.13-.11.13.13.21.14l.46,0,1.71.17s.06-.17,0-.24a.88.88,0,0,0-.26-.13c-.42-.17-1.65-.68-1.82-1.12S50.39,75.5,50.39,75.5Z" style="fill:#161711"/><path d="M49.1,64.72,46.22,65.9a12.46,12.46,0,0,0,3.32,0C50.41,65.75,49.14,64.69,49.1,64.72Z" style="fill:#e9d6b8"/><path d="M42.56,66.52s-.28,2.63-.24,4a30,30,0,0,1-.21,4.77,5.65,5.65,0,0,1-1.36,0s-.48-6.52-.62-7.6S40.4,65.89,42.56,66.52Z" style="fill:#3c463b"/><path d="M51,67.15a2.26,2.26,0,0,1-1.62.84c-.42.06.69,7.64.69,7.64l1.76-.56-.34-8.38Z" style="fill:#323b31"/><path d="M46.16,68s-2.29.33-3.81.49c-.56.06-1.05-1.51-1.11-1.58a1.25,1.25,0,0,0-.8-.39c.33-.35,2-.69,3.83-1.11s2.07-.15,2.07-.15Z" style="fill:#323b31"/><path d="M44.27,65.4c-1.79.42-3.5.76-3.83,1.11a1.25,1.25,0,0,1,.8.39s.12.52.19.7c-.29-.52,3.92-2,4.83-2.39A4.55,4.55,0,0,0,44.27,65.4Z" style="fill:#3c463b"/><polygon points="42.31 67.97 42.13 73.09 41.96 74.28 41.94 73.09 41.98 72.36 41.57 71.21 41.35 68.54 41.66 68.66 41.63 67.49 42.31 67.97" style="fill:#323b31"/><path d="M50.93,66.51l.43.12.16,6.15-.9,2.2.43-1.5-.18-3.09s-.62,1.5-.62,1.42.53-3.25.53-3.25a6.71,6.71,0,0,0-.53.47A12,12,0,0,1,50.93,66.51Z" style="fill:#3c463b"/><path d="M43.59,59.32s-.92-.72-1.82.62a18,18,0,0,0-2.1,4.65,2.88,2.88,0,0,0,.47,2.31c.13.13.91,0,.91,0l.51-.35-.22-.41v-.33s.66-1.57,1.46-3.07A8.39,8.39,0,0,0,43.59,59.32Z" style="fill:#2c7eea"/><path d="M41.34,65.31l3,.16s-2.88,1.32-3,1.09C40.82,65.27,41.34,65.31,41.34,65.31Z" style="fill:#e9d6b8"/><path d="M43,65.22l.16-.08a.69.69,0,0,0,.39.22c.11,0,.48,0,.48,0l.55,0,.26,0s.14,0,.18,0,0,.13,0,.13l-1,.14,1,.11s.12,0,.12.1,0,.06,0,.06l-1.1.12.48.12s.11,0,.12.09a.35.35,0,0,0,0,.09l-1-.1S42.81,65.31,43,65.22Z" style="fill:#e9d6b8"/><path d="M44.08,65.83l.66.12A.55.55,0,0,1,45,66a.09.09,0,0,1,0,.13l-1-.09Z" style="fill:#e9d6b8"/><path d="M48.23,66.35h0v-.19H42.35v.19h0l0,0a.51.51,0,0,0,.48.19h4.88a.51.51,0,0,0,.48-.19Z" style="fill:#b6c2c9"/><rect x="43.34" y="66.2" width="3.9" height="0.13" style="fill:#879ba6"/><path d="M48.23,66.18V62.32a.18.18,0,0,0-.18-.18H42.55a.18.18,0,0,0-.18.18l0,3.86Z" style="fill:#e4eef3"/><path d="M45.65,64.16a.36.36,0,0,1-.71,0,.36.36,0,0,1,.36-.36A.34.34,0,0,1,45.65,64.16Z" style="fill:#b6c2c9"/><polygon points="40.96 66.81 40.75 65.5 41.09 65.15 41.84 65.27 41.69 66.72 40.96 66.81" style="fill:#2771d1"/><polygon points="50.11 65.87 50.19 65.39 49.24 64.53 48.72 64.76 49.4 66.05 50.11 65.87" style="fill:#2c7eea"/><path d="M32.06,42v2.47c0,.66.78,1.2,1.75,1.2s1.76-.54,1.76-1.2V42Z" style="fill:#ff8b5d"/><path d="M35.57,42v2.47c0,.66.79,1.2,1.76,1.2s1.76-.54,1.76-1.2V42Z" style="fill:#fff"/><path d="M39.09,42v2.47c0,.66.78,1.2,1.75,1.2s1.76-.54,1.76-1.2V42Z" style="fill:#ff8b5d"/><path d="M42.6,42v2.47c0,.66.79,1.2,1.76,1.2s1.75-.54,1.75-1.2V42Z" style="fill:#fff"/><path d="M46.11,42v2.47c0,.66.79,1.2,1.76,1.2s1.76-.54,1.76-1.2V42Z" style="fill:#ff8b5d"/><path d="M49.63,42v2.47c0,.66.78,1.2,1.76,1.2s1.75-.54,1.75-1.2V42Z" style="fill:#fff"/><path d="M53.14,42v2.47c0,.66.79,1.2,1.76,1.2s1.76-.54,1.76-1.2V42Z" style="fill:#ff8b5d"/><path d="M56.66,42v2.47c0,.66.78,1.2,1.75,1.2s1.76-.54,1.76-1.2V42Z" style="fill:#fff"/><path d="M37.13,38.07,32.06,42h3.51q1.91-2,3.8-3.92Z" style="fill:#ef8357"/><path d="M39.37,38.07q-1.89,2-3.8,3.92h3.52l2.53-3.92Z" style="fill:#d5e1f2"/><path d="M41.62,38.07,39.09,42H42.6c.42-1.3.85-2.61,1.27-3.92Z" style="fill:#ef8357"/><path d="M43.87,38.07C43.45,39.38,43,40.69,42.6,42h3.51V38.07Z" style="fill:#d5e1f2"/><path d="M46.11,38.07V42h3.52c-.42-1.3-.85-2.61-1.27-3.92Z" style="fill:#ef8357"/><path d="M48.36,38.07c.42,1.31.85,2.62,1.27,3.92h3.51l-2.53-3.92Z" style="fill:#d5e1f2"/><path d="M50.61,38.07,53.14,42h3.52l-3.81-3.92Z" style="fill:#ef8357"/><path d="M56.66,42h3.51L55.1,38.07H52.85Z" style="fill:#d5e1f2"/><rect x="37.11" y="37.26" width="2.25" height="0.81" style="fill:#ef8357"/><rect x="39.36" y="37.26" width="2.25" height="0.81" style="fill:#fff"/><rect x="41.61" y="37.26" width="2.25" height="0.81" style="fill:#ef8357"/><rect x="43.86" y="37.26" width="2.25" height="0.81" style="fill:#fff"/><rect x="46.11" y="37.26" width="2.25" height="0.81" style="fill:#ef8357"/><rect x="48.37" y="37.26" width="2.25" height="0.81" style="fill:#fff"/><rect x="50.62" y="37.26" width="2.25" height="0.81" style="fill:#ef8357"/><rect x="52.87" y="37.26" width="2.25" height="0.81" style="fill:#fff"/><g style="isolation:isolate"><path d="M80,74.5c0-.34,0-.79,0-1.13,0,.23,0,.86,0,1.1Z" style="fill:#ffc910"/><path d="M89.29,72.9c0,.41,0,.83,0,1.24s-.4.66-1.26,1a16.9,16.9,0,0,1-7.22.38c-1.14-.23-1.73-.57-1.75-.94l0-1.24c0,.36.6.71,1.74.93A16.9,16.9,0,0,0,88,73.84C88.89,73.55,89.31,73.22,89.29,72.9Z" style="fill:#ffab01"/><path d="M87.55,72c2.12.42,2.34,1.26.48,1.88a16.9,16.9,0,0,1-7.22.38c-2.12-.41-2.34-1.25-.48-1.88A16.9,16.9,0,0,1,87.55,72ZM81.39,74a13.89,13.89,0,0,0,6-.32c1.54-.52,1.36-1.21-.4-1.55a13.89,13.89,0,0,0-6,.31c-1.54.52-1.36,1.21.4,1.56" style="fill:#ffc910"/><path d="M87,72.16c1.76.34,1.94,1,.4,1.55a13.89,13.89,0,0,1-6,.32c-1.76-.35-1.94-1-.4-1.56A13.89,13.89,0,0,1,87,72.16Z" style="fill:#ffab01"/><path d="M81,72.63a13.89,13.89,0,0,1,6-.32c.88.17,1.36.43,1.44.71.08-.34-.4-.66-1.44-.86a13.89,13.89,0,0,0-6,.31c-.77.26-1.11.57-1,.85C80,73.08,80.36,72.84,81,72.63Z" style="fill:#f99b0f"/><path d="M85.27,73.36c.14.12,0,.26-.31.37a4.84,4.84,0,0,1-1.58.18,4.58,4.58,0,0,1-.56-.06l-.09,0h0l-.14,0h-.07l-.4-.08.17-.05L82,73.68h0l-.13,0-.08,0-.4-.08.17,0-.29-.06.38-.12,0,0,.2,0h.08l1.16-.39.42-.14,1-.33-.28-.06.38-.12,0,0,.21,0,.08,0,.13,0,0,0,.48.1-.17.05.21,0,.08,0,.13,0h0l.48.09-.17.06c.57.11.63.34.13.51A3.86,3.86,0,0,1,85.27,73.36Zm-1.73.38a2.74,2.74,0,0,0,.94-.1c.32-.1.29-.25-.08-.32l-.85-.17h0l-1.12.38.85.17a1.39,1.39,0,0,0,.3,0m1.38-1L84,73l.76.15a1,1,0,0,0,.25,0,2.36,2.36,0,0,0,.82-.08c.27-.1.24-.22-.07-.28L85,72.68h0" style="fill:#f99b0f"/><path d="M85.27,73.2c.14.12,0,.26-.31.38a4.85,4.85,0,0,1-1.58.17,4.58,4.58,0,0,1-.56-.06l-.09,0,0,0-.14,0-.07,0-.4-.07.17-.06-.29,0h0l-.13,0h-.08l-.4-.08.17-.06-.29-.05.38-.13h0l.2,0,.08,0,1.16-.39.42-.14,1-.34-.28-.05.38-.13h0l.21,0h.08l.13,0h0l.48.09-.17.06.21,0h.08l.13,0h0l.48.09-.17,0c.57.12.63.34.13.51A3.86,3.86,0,0,1,85.27,73.2Zm-1.73.39a3,3,0,0,0,.94-.1c.32-.11.29-.25-.08-.33L83.55,73h0l-1.12.38.85.16.3,0m1.38-1-1,.32.76.15L85,73a2.61,2.61,0,0,0,.82-.09c.27-.09.24-.22-.07-.28L85,72.53h0" style="fill:#ffca10"/><path d="M79.56,73.83v1.22a4.81,4.81,0,0,0,1.3.42,12,12,0,0,0,1.9.2V74.43a14,14,0,0,1-2-.21A5,5,0,0,1,79.56,73.83Z" style="fill:#f99b0f"/></g><g style="isolation:isolate"><path d="M80.46,73c0-.34,0-.79,0-1.13,0,.24,0,.86,0,1.1Z" style="fill:#ffc910"/><path d="M89.77,71.43c0,.42,0,.83,0,1.25s-.4.65-1.26.94a16.9,16.9,0,0,1-7.22.38c-1.14-.22-1.73-.57-1.74-.94l0-1.24c0,.37.6.71,1.74.93a16.74,16.74,0,0,0,7.22-.38C89.36,72.08,89.78,71.75,89.77,71.43Z" style="fill:#ffab01"/><path d="M88,70.5c2.13.41,2.34,1.25.48,1.87a16.74,16.74,0,0,1-7.22.38c-2.12-.41-2.34-1.25-.48-1.87A16.59,16.59,0,0,1,88,70.5Zm-6.16,2.06a13.89,13.89,0,0,0,6-.32c1.54-.51,1.36-1.21-.4-1.55a14.06,14.06,0,0,0-6,.31c-1.54.52-1.36,1.22.4,1.56" style="fill:#ffc910"/><path d="M87.44,70.69c1.76.34,1.94,1,.4,1.55a13.89,13.89,0,0,1-6,.32c-1.76-.34-1.94-1-.4-1.56A14.06,14.06,0,0,1,87.44,70.69Z" style="fill:#ffab01"/><path d="M81.46,71.16a13.9,13.9,0,0,1,6-.32c.88.17,1.36.43,1.44.71.09-.34-.4-.66-1.44-.86a14.06,14.06,0,0,0-6,.31c-.77.26-1.11.57-1,.85C80.49,71.61,80.83,71.37,81.46,71.16Z" style="fill:#f99b0f"/><path d="M85.75,71.89c.13.12,0,.26-.32.38a5.11,5.11,0,0,1-1.58.17,4.21,4.21,0,0,1-.55-.06l-.1,0h0l-.13,0-.08,0-.4-.08.17,0-.29-.06h0l-.13,0-.08,0-.4-.07.17-.06-.28-.05.38-.13h0l.21,0h.07l1.17-.39.41-.14,1-.33-.28-.05.38-.13h0l.2,0h.08l.13,0h0L86,71l-.17,0,.21,0,.08,0,.13,0,0,0,.48.1-.17,0c.58.11.63.34.13.51A3.86,3.86,0,0,1,85.75,71.89ZM84,72.28a2.73,2.73,0,0,0,.94-.11c.33-.1.29-.25-.08-.32L84,71.69h0l-1.13.37.85.17.3,0m1.38-1.06-1,.33.76.14a1,1,0,0,0,.25,0,2.36,2.36,0,0,0,.82-.08c.27-.09.24-.22-.07-.28l-.76-.15h0" style="fill:#f99b0f"/><path d="M85.75,71.73c.13.12,0,.27-.32.38a4.81,4.81,0,0,1-1.58.18,2.94,2.94,0,0,1-.55-.07h-.13l-.13,0H83l-.4-.08.17-.06-.29,0h0l-.13,0H82.2L81.8,72,82,72l-.28-.06.38-.13h0l.21,0,.07,0,1.17-.39L84,71.3,85,71l-.28-.06.38-.13h0l.2,0,.08,0,.13,0h0l.47.09-.17.06.21,0h.08l.13,0h0l.48.09-.17.06c.58.11.63.34.13.5A3.46,3.46,0,0,1,85.75,71.73ZM84,72.12A2.74,2.74,0,0,0,85,72c.33-.11.29-.25-.08-.32L84,71.53h0l-1.13.38.85.17.3,0m1.38-1.05-1,.32.76.15.25,0a2.61,2.61,0,0,0,.82-.09c.27-.09.24-.21-.07-.27l-.76-.15h0" style="fill:#ffca10"/><path d="M80,72.36v1.22a4.48,4.48,0,0,0,1.3.42,13.29,13.29,0,0,0,1.9.21V73a12.66,12.66,0,0,1-2-.21A4.62,4.62,0,0,1,80,72.36Z" style="fill:#f99b0f"/></g><g style="isolation:isolate"><path d="M80,71.31c0-.34,0-.79,0-1.13,0,.24,0,.86,0,1.1Z" style="fill:#ffc910"/><path d="M89.29,69.71c0,.42,0,.83,0,1.25s-.4.65-1.26.94a16.9,16.9,0,0,1-7.22.38c-1.14-.22-1.73-.57-1.75-.94l0-1.24c0,.36.6.71,1.74.93A16.9,16.9,0,0,0,88,70.65C88.89,70.36,89.31,70,89.29,69.71Z" style="fill:#ffab01"/><path d="M87.55,68.77c2.12.42,2.34,1.26.48,1.88a16.9,16.9,0,0,1-7.22.38c-2.12-.41-2.34-1.25-.48-1.87A16.74,16.74,0,0,1,87.55,68.77Zm-6.16,2.07a13.89,13.89,0,0,0,6-.32C88.91,70,88.73,69.31,87,69a14,14,0,0,0-6,.31c-1.54.52-1.36,1.22.4,1.56" style="fill:#ffc910"/><path d="M87,69c1.76.34,1.94,1,.4,1.55a13.89,13.89,0,0,1-6,.32c-1.76-.34-1.94-1-.4-1.56A14,14,0,0,1,87,69Z" style="fill:#ffab01"/><path d="M81,69.44a13.89,13.89,0,0,1,6-.32c.88.17,1.36.43,1.44.71.08-.34-.4-.66-1.44-.86a14,14,0,0,0-6,.31c-.77.26-1.11.57-1,.85C80,69.89,80.36,69.65,81,69.44Z" style="fill:#f99b0f"/><path d="M85.27,70.17c.14.12,0,.26-.31.38a5.14,5.14,0,0,1-1.58.17,4.58,4.58,0,0,1-.56-.06l-.09,0h0l-.14,0-.07,0-.4-.08.17,0L82,70.49h0l-.13,0-.08,0-.4-.07.17-.06-.29-.05.38-.13h0l.2,0h.08l1.16-.39.42-.14,1-.33-.28-.05.38-.13h0l.21,0h.08l.13,0h0l.48.09-.17,0,.21,0,.08,0,.13,0h0l.48.1-.17,0c.57.11.63.34.13.51A3.86,3.86,0,0,1,85.27,70.17Zm-1.73.38a2.74,2.74,0,0,0,.94-.1c.32-.1.29-.25-.08-.32L83.55,70l0,0-1.12.37.85.17a1.39,1.39,0,0,0,.3,0m1.38-1-1,.33.76.14A1,1,0,0,0,85,70a2.36,2.36,0,0,0,.82-.08c.27-.09.24-.22-.07-.28L85,69.49h0" style="fill:#f99b0f"/><path d="M85.27,70c.14.12,0,.26-.31.38a4.84,4.84,0,0,1-1.58.18,3.17,3.17,0,0,1-.56-.07H82.7l-.14,0h-.07l-.4-.08.17-.06-.29,0h0l-.13,0h-.08l-.4-.08.17,0-.29-.06.38-.13h0l.2,0,.08,0,1.16-.39.42-.14,1-.33-.28-.06.38-.13h0l.21,0,.08,0,.13,0h0l.48.09-.17.06.21,0h.08l.13,0h0l.48.09-.17.06c.57.11.63.34.13.5A3.47,3.47,0,0,1,85.27,70Zm-1.73.39a2.74,2.74,0,0,0,.94-.1c.32-.11.29-.25-.08-.32l-.85-.17h0l-1.12.38.85.16.3,0m1.38-1.05-1,.32.76.15.25,0a2.61,2.61,0,0,0,.82-.09c.27-.09.24-.21-.07-.28L85,69.34h0" style="fill:#ffca10"/><path d="M79.56,70.64v1.22a4.48,4.48,0,0,0,1.3.42,13.29,13.29,0,0,0,1.9.21V71.24a14,14,0,0,1-2-.21A4.62,4.62,0,0,1,79.56,70.64Z" style="fill:#f99b0f"/></g><g style="isolation:isolate"><path d="M80.46,69.84c0-.34,0-.79,0-1.12,0,.23,0,.86,0,1.1Z" style="fill:#ffc910"/><path d="M89.77,68.24c0,.42,0,.83,0,1.25s-.4.65-1.26.94a16.9,16.9,0,0,1-7.22.38c-1.14-.22-1.73-.57-1.74-.94l0-1.24c0,.37.6.71,1.74.93a16.59,16.59,0,0,0,7.22-.38C89.36,68.9,89.78,68.56,89.77,68.24Z" style="fill:#ffab01"/><path d="M88,67.31c2.13.41,2.34,1.25.48,1.87a16.59,16.59,0,0,1-7.22.38c-2.12-.41-2.34-1.25-.48-1.87A16.59,16.59,0,0,1,88,67.31Zm-6.16,2.06a14,14,0,0,0,6-.31c1.54-.52,1.36-1.22-.4-1.56a13.9,13.9,0,0,0-6,.32c-1.54.51-1.36,1.21.4,1.55" style="fill:#ffc910"/><path d="M87.44,67.5c1.76.34,1.94,1,.4,1.56a14,14,0,0,1-6,.31c-1.76-.34-1.94-1-.4-1.55A13.9,13.9,0,0,1,87.44,67.5Z" style="fill:#ffab01"/><path d="M81.46,68a13.75,13.75,0,0,1,6-.31c.88.17,1.36.42,1.44.7.09-.33-.4-.66-1.44-.86a13.9,13.9,0,0,0-6,.32c-.77.26-1.11.56-1,.84C80.49,68.43,80.83,68.18,81.46,68Z" style="fill:#f99b0f"/><path d="M85.75,68.7c.13.12,0,.26-.32.38a4.82,4.82,0,0,1-1.58.17,4.21,4.21,0,0,1-.55-.06l-.1,0h0l-.13,0-.08,0-.4-.07.17-.06-.29,0h0l-.13,0H82.2L81.8,69l.17-.06-.28-.05.38-.13h0l.21,0h.07l1.17-.38.41-.14,1-.34-.28-.05.38-.13h0l.2,0h.08l.13,0h0l.47.09-.17.06.21,0h.08l.13,0h0l.48.09-.17,0c.58.12.63.34.13.51A3.86,3.86,0,0,1,85.75,68.7ZM84,69.09A3,3,0,0,0,85,69c.33-.11.29-.26-.08-.33L84,68.5h0l-1.13.38.85.16.3,0m1.38-1-1,.32.76.15.25,0a2.61,2.61,0,0,0,.82-.09c.27-.09.24-.22-.07-.28L85.43,68h0" style="fill:#f99b0f"/><path d="M85.75,68.54c.13.12,0,.27-.32.38a4.81,4.81,0,0,1-1.58.18A4.21,4.21,0,0,1,83.3,69l-.1,0h0l-.13,0H83l-.4-.08.17,0-.29-.06h0l-.13.05-.08,0-.4-.08.17,0-.28-.06.38-.12,0,0,.21,0,.07,0,1.17-.39.41-.14,1-.33-.28-.06.38-.12,0,0,.2,0,.08,0,.13,0h0l.47.1-.17,0,.21,0,.08,0,.13-.05h0l.48.09-.17.06c.58.11.63.34.13.51A3.88,3.88,0,0,1,85.75,68.54ZM84,68.93a2.74,2.74,0,0,0,.94-.1c.33-.11.29-.25-.08-.32L84,68.34h0l-1.13.38.85.17a2.53,2.53,0,0,0,.3,0m1.38-1.05-1,.32.76.15a1,1,0,0,0,.25,0,2.35,2.35,0,0,0,.82-.09c.27-.09.24-.21-.07-.27l-.76-.15h0" style="fill:#ffca10"/><path d="M80,69.17v1.22a4.48,4.48,0,0,0,1.3.42,13.29,13.29,0,0,0,1.9.21V69.77a11.53,11.53,0,0,1-2-.21A4.62,4.62,0,0,1,80,69.17Z" style="fill:#f99b0f"/></g><path d="M81.39,60.18a1.7,1.7,0,0,0,2.28.75,1.68,1.68,0,1,0-1.47-3A1.7,1.7,0,0,0,81.39,60.18Z" style="fill:#282723"/><path d="M80.53,62.32a2.17,2.17,0,1,0,1-2.86A2.13,2.13,0,0,0,80.53,62.32Z" style="fill:#282723"/><path d="M82.33,64.64s.07.28-1.29.62a25.39,25.39,0,0,1-3.42.52l3-1.09S81.85,64.33,82.33,64.64Z" style="fill:#e2c59c"/><path d="M78.71,65.61a2.26,2.26,0,0,0-1,.75,4,4,0,0,0-.44.39c.07-.31.27-.38.35-.5s.06-.06-.17,0-.29.32-.42.49a.48.48,0,0,1-.2.18,3.09,3.09,0,0,1,.26-.52,4.12,4.12,0,0,1,.51-.63,2.91,2.91,0,0,1,.86-.27C78.78,65.44,79.17,65.47,78.71,65.61Z" style="fill:#e2c59c"/><path d="M77.6,65.77a3.63,3.63,0,0,0-.52.35c0,.06-.22.4-.22.4a.66.66,0,0,0,.25-.22C77.19,66.18,77.6,65.77,77.6,65.77Z" style="fill:#e2c59c"/><path d="M81.58,64.23S82.83,64,83,64.7a.6.6,0,0,1-.55.74c-.71.14-1.52.27-1.52.27l-.68-1Z" style="fill:#b0bfde"/><path d="M81.51,63.6l.35-3.43s0-.9.3-.88.55.8.59,1.08a9.73,9.73,0,0,1,.2,2.22c0,.88,0,1.87,0,2.47,0,.41-.44,0-.86-.09C81.32,64.9,81.51,63.6,81.51,63.6Z" style="fill:#b0bfde"/><polygon points="73.97 73.22 72.82 75.71 71.23 75.75 70.43 75.58 72.16 75.17 73.08 72.86 73.97 73.22" style="fill:#e9d6b8"/><path d="M72.65,76.1l-.21,0-.12-.25-1.29,0-1-.19s0-.08.07-.1a4.56,4.56,0,0,1,1-.15s-.09.22,0,.27a6.87,6.87,0,0,0,1.32-.05c.41,0,.62-.16.6-.1A6.3,6.3,0,0,1,72.65,76.1Z" style="fill:#194866"/><path d="M80.32,68.17l-3.75-.1-2.79,6.11-1.16-.45,2.73-7.36s.21-.47,1.34-.47,5.56-.12,6.06,0C84,66.25,80.12,67.15,80.32,68.17Z" style="fill:#194866"/><path d="M83,58a1.71,1.71,0,1,0,.81-2.26A1.7,1.7,0,0,0,83,58Z" style="fill:#282723"/><path d="M81.24,57.46a1.28,1.28,0,0,0,1.72.59l0-.69a1.29,1.29,0,0,0,.59-1.72l-.21-.43a1.3,1.3,0,0,0-1.73-.6l-.28.14a1.29,1.29,0,0,0-.6,1.72Z" style="fill:#282723"/><path d="M80.87,55.53a3.21,3.21,0,0,0,.19.31,1.71,1.71,0,0,0,1.74.86,3.55,3.55,0,0,0,.6.82,1.89,1.89,0,0,0,.73.39,1.4,1.4,0,0,1-1.06,2c-.73.08-.58-.68-.33-1.15a1.26,1.26,0,0,0,.21-.61.78.78,0,0,0-.51-.65,1,1,0,0,0-.83,0,.17.17,0,0,1-.12,0,1.14,1.14,0,0,1-.15-.23l-.47-.95A.92.92,0,0,1,80.87,55.53Z" style="fill:#e9d6b8"/><path d="M84.65,67s-.55.12-.7.18a2.76,2.76,0,0,1-.8,0s-.08-3-.22-4-.41-1.31-.41-1.63a3.17,3.17,0,0,1,.14-1c.09-.4-.18-.93-.09-.83a.81.81,0,0,0,1.2-.15C83.86,59.4,84.65,67,84.65,67Z" style="fill:#194866"/><path d="M82.7,58.44s-.75.76-.72,1a19.1,19.1,0,0,0,.13,2.39A17.55,17.55,0,0,1,82.45,64c0,.81-.16,1-.09,2,0,.78.17,1.47.17,1.47a.65.65,0,0,0,.62-.19c.27-.29.17-3,.07-3.66s-.49-2.41-.46-2.88A9.27,9.27,0,0,1,83,59C83.22,58.67,82.76,58.48,82.7,58.44Z" style="fill:#d1dbea"/><path d="M82.7,58.38a.51.51,0,0,0,.09.1,1.19,1.19,0,0,1,.22.2s-.15-.08-.21,0a2.51,2.51,0,0,0-.11.52s-.28-.46-.21-.6S82.7,58.38,82.7,58.38Z" style="fill:#b0bfde"/><path d="M83.72,60.17A1.79,1.79,0,1,0,84.91,58,1.77,1.77,0,0,0,83.72,60.17Z" style="fill:#282723"/><polygon points="77.67 73.77 77.61 75.51 77.26 75.93 76.31 76.47 75.61 76.34 76.85 75.42 76.94 73.6 77.67 73.77" style="fill:#e9d6b8"/><path d="M77.56,75.89l-.32.23-.1-.08-.87.56s-.8.2-1,0,.08-.15.26-.28a1.23,1.23,0,0,1,.23-.15s0,.14.35.19a6.1,6.1,0,0,0,.94-.51,2.61,2.61,0,0,0,.56-.43C77.7,75.5,77.56,75.89,77.56,75.89Z" style="fill:#19486d"/><path d="M85.09,64.58l-.45,1.07-.78.09-6.27.4s-.56-.17-.92.72c-.51,1.26.15,7.58.15,7.58h.93l.51-6s6,1,7.77.52c.66-.2,1.17-1.38,1.08-2.57a4.15,4.15,0,0,0-.7-1.79Z" style="fill:#265880"/><path d="M84.24,66.83S84,64.19,83.78,63s-.13-3.34-.16-3.64a4.29,4.29,0,0,0-.2-.73s.3-.68.7-.65a10.2,10.2,0,0,1,2,.6c.37.15.18,4.34.21,4.56a11.47,11.47,0,0,0,.76,2.34,10,10,0,0,1,.36,1.25A9.73,9.73,0,0,0,84.24,66.83Z" style="fill:#d1dbea"/><path d="M84.05,57.72l-.3.33s-.41.57-.28.49.37.5.37.5l.55-1.13Z" style="fill:#b0bfde"/><path d="M86.45,64.11s.46.33-1.27.51a35.57,35.57,0,0,1-4.33,0l4-.75A2.42,2.42,0,0,1,86.45,64.11Z" style="fill:#e9d6b8"/><path d="M82.23,64.64a3.07,3.07,0,0,0-1.43.69,4.45,4.45,0,0,0-.61.38c.13-.35.4-.39.52-.51s.09-.07-.21,0-.42.32-.61.49a.81.81,0,0,1-.28.18,3.53,3.53,0,0,1,.42-.55,4,4,0,0,1,.76-.62,3.26,3.26,0,0,1,1.11-.18C82.35,64.46,82.82,64.57,82.23,64.64Z" style="fill:#e9d6b8"/><path d="M80.83,64.66a4.65,4.65,0,0,0-.71.31c-.07.07-.35.41-.35.41a.8.8,0,0,0,.35-.2A7.44,7.44,0,0,1,80.83,64.66Z" style="fill:#e2c59c"/><path d="M85.43,63.62l-.57-3.82a2.88,2.88,0,0,1,.39-1.06,1,1,0,0,1,.84-.22s.64.53.69,3.55c0,2.07.22,2.93-.67,3s-1.78.13-1.78.13L83.69,64Z" style="fill:#b0bfde"/><rect x="75.24" y="65.69" width="5.48" height="0.11" style="fill:#cdd5d7"/><path d="M78.3,65.68a.15.15,0,0,1-.14.16H75.35c-.07,0-.18-.06-.27-.28L73.69,63c0-.11.09-.18.16-.16l2.88.09c.08,0,.14.07.19.19Z" style="fill:#cdd5d7"/><path d="M78,65.8h2.77a1,1,0,0,1-.45.09H75.67a1,1,0,0,1-.45-.09Z" style="fill:#b7bec0"/><polygon points="20.36 32.5 19.33 31.8 18.31 32.5 18.31 30.33 19.33 30.33 20.36 30.33 20.36 32.5" style="fill:url(#b)"/><path d="M20.88,29.51A1.55,1.55,0,1,1,19.33,28,1.54,1.54,0,0,1,20.88,29.51Z" style="fill:url(#c)"/><polygon points="19.33 28.58 19.63 28.94 20.09 28.95 20 29.4 20.28 29.77 19.86 29.98 19.76 30.43 19.33 30.23 18.91 30.43 18.8 29.98 18.39 29.77 18.67 29.4 18.57 28.95 19.04 28.94 19.33 28.58" style="fill:#fff"/><path d="M68.92,34.65A2.08,2.08,0,0,1,71,32.57h8.32a2.08,2.08,0,0,1,0,4.16H72.58l-1.71,1.71V36.72A2.07,2.07,0,0,1,68.92,34.65Z" style="fill:#fff"/><path d="M71.08,33.87a.56.56,0,0,1,.81,0L72,34l.13-.13a.57.57,0,0,1,.82,0,.58.58,0,0,1,0,.81l-.14.14h0l-.81.81-.82-.81h0l-.13-.14A.56.56,0,0,1,71.08,33.87Z" style="fill:#ff5931"/><path d="M74.19,33.87a.56.56,0,0,1,.81,0l.13.13.14-.13a.57.57,0,0,1,.81.81l-.13.14h0l-.82.81-.81-.81h0l-.13-.14A.56.56,0,0,1,74.19,33.87Z" style="fill:#ff5931"/><path d="M77.29,33.87a.57.57,0,0,1,.82,0l.13.13.14-.13a.56.56,0,0,1,.81,0,.58.58,0,0,1,0,.81l-.14.14h0l-.81.81-.81-.81h0l-.14-.14A.58.58,0,0,1,77.29,33.87Z" style="fill:#ff5931"/><path d="M29,38.76H24.83a2.08,2.08,0,0,0-.13,4.15v1.72l1.72-1.72H29a2.08,2.08,0,1,0,0-4.15Z" style="fill:#4e99ff"/><path d="M28.08,40.22h-1a2,2,0,0,0,.12-.33,1.83,1.83,0,0,0,0-.24.24.24,0,0,0-.24-.24h-.11v.37s-.42.48-.42.67V41.6a.24.24,0,0,0,.24.24h.82a.39.39,0,0,0,.33-.24l.41-1.15A.15.15,0,0,0,28.08,40.22Z" style="fill:#fff"/><rect x="26.27" y="40.4" width="0.31" height="1.29" style="fill:#fff"/><rect x="25.35" y="40.22" width="0.56" height="1.62" style="fill:#fff"/></svg>