<svg xmlns="http://www.w3.org/2000/svg" xmlns:xlink="http://www.w3.org/1999/xlink" viewBox="0 0 100 100"><defs><filter id="b" x="40.4" y="-8626" width="30.27" height="32766" filterUnits="userSpaceOnUse" color-interpolation-filters="sRGB"><feFlood flood-color="#fff" result="bg"/><feBlend in="SourceGraphic" in2="bg"/></filter><mask id="a" x="40.4" y="-8626" width="30.27" height="32766" maskUnits="userSpaceOnUse"><g style="filter:url(#b)"/></mask><linearGradient id="c" x1="55.41" y1="421.69" x2="55.41" y2="430.81" gradientTransform="matrix(1, 0.27, 0, 1, 0.12, -417.74)" gradientUnits="userSpaceOnUse"><stop offset="0" stop-color="#fff"/><stop offset="0.12" stop-color="#fbfbfb"/><stop offset="0.24" stop-color="#eee"/><stop offset="0.37" stop-color="#d9d9d9"/><stop offset="0.5" stop-color="#bcbcbc"/><stop offset="0.63" stop-color="#969696"/><stop offset="0.76" stop-color="#686868"/><stop offset="0.89" stop-color="#323232"/><stop offset="1"/></linearGradient><linearGradient id="d" x1="96.08" y1="11.29" x2="-110.8" y2="142.43" gradientUnits="userSpaceOnUse"><stop offset="0" stop-color="#ccbfde"/><stop offset="1" stop-color="#efe8fa"/></linearGradient><filter id="f" x="40.4" y="17.85" width="30.27" height="14.12" filterUnits="userSpaceOnUse" color-interpolation-filters="sRGB"><feFlood flood-color="#fff" result="bg"/><feBlend in="SourceGraphic" in2="bg"/></filter><mask id="e" x="40.4" y="17.85" width="30.27" height="14.12" maskUnits="userSpaceOnUse"><g style="mask:url(#a);filter:url(#f)"><path d="M41.32,21.77c1.44.41,3-3.08,4.62-2.67s3,3.8,4.62,4.25,2.62-6,4.62-5.47,2.87,6,4.62,6.46,2.91,0,4.62.38,2.66,2.84,4.62,3.35l1.63.44V32L40.4,23.85V21.53Z" style="mix-blend-mode:multiply;fill:url(#c)"/></g></mask><linearGradient id="g" x1="55.41" y1="421.69" x2="55.41" y2="430.81" gradientTransform="matrix(1, 0.27, 0, 1, 0.12, -417.74)" gradientUnits="userSpaceOnUse"><stop offset="0" stop-color="#b19ece"/><stop offset="0.2" stop-color="#b4a2d0"/><stop offset="0.4" stop-color="#beafd6"/><stop offset="0.61" stop-color="#cfc4e1"/><stop offset="0.82" stop-color="#e7e1f0"/><stop offset="1" stop-color="#fff"/></linearGradient><linearGradient id="h" x1="55.41" y1="428.21" x2="55.41" y2="420.7" gradientTransform="matrix(1, 0.27, 0, 1, 0.12, -417.74)" gradientUnits="userSpaceOnUse"><stop offset="0" stop-color="#a37de3"/><stop offset="1" stop-color="#3219af"/></linearGradient><linearGradient id="i" x1="81.16" y1="420.16" x2="83.23" y2="424.32" xlink:href="#h"/><linearGradient id="j" x1="74.19" y1="430.32" x2="84.64" y2="430.32" xlink:href="#h"/><linearGradient id="m" x1="74.19" y1="430.32" x2="84.64" y2="430.32" xlink:href="#h"/><linearGradient id="o" x1="74.19" y1="430.32" x2="84.64" y2="430.32" xlink:href="#h"/><linearGradient id="ad" x1="74.19" y1="430.32" x2="84.64" y2="430.32" xlink:href="#h"/><linearGradient id="af" x1="74.19" y1="430.32" x2="84.64" y2="430.32" xlink:href="#h"/><linearGradient id="ah" x1="39.72" y1="845.31" x2="58.85" y2="845.31" gradientTransform="matrix(1, 0.54, 0, 1, 0.25, -834.74)" xlink:href="#h"/><linearGradient id="ai" x1="39.72" y1="849.75" x2="58.85" y2="849.75" gradientTransform="matrix(1, 0.54, 0, 1, 0.25, -834.74)" xlink:href="#h"/><linearGradient id="aj" x1="39.72" y1="853.22" x2="58.85" y2="853.22" gradientTransform="matrix(1, 0.54, 0, 1, 0.25, -834.74)" xlink:href="#h"/><linearGradient id="ak" x1="39.72" y1="856.42" x2="58.85" y2="856.42" gradientTransform="matrix(1, 0.54, 0, 1, 0.25, -834.74)" xlink:href="#h"/><linearGradient id="al" x1="53.76" y1="443.53" x2="66.84" y2="443.53" xlink:href="#h"/><linearGradient id="an" x1="53.76" y1="445.41" x2="66.84" y2="445.41" xlink:href="#h"/><linearGradient id="ap" x1="53.76" y1="447.29" x2="66.84" y2="447.29" xlink:href="#h"/><linearGradient id="as" x1="53.76" y1="449.17" x2="66.84" y2="449.17" xlink:href="#h"/><linearGradient id="au" x1="71.41" y1="847.56" x2="71.41" y2="839.2" gradientTransform="matrix(1, 0.54, 0, 1, 0.25, -834.74)" xlink:href="#h"/><linearGradient id="av" x1="74.27" y1="846.76" x2="74.27" y2="838.43" gradientTransform="matrix(1, 0.54, 0, 1, 0.25, -834.74)" xlink:href="#h"/><linearGradient id="aw" x1="80" y1="845.24" x2="80" y2="836.9" gradientTransform="matrix(1, 0.54, 0, 1, 0.25, -834.74)" xlink:href="#h"/><linearGradient id="ax" x1="82.86" y1="844.49" x2="82.86" y2="836.1" gradientTransform="matrix(1, 0.54, 0, 1, 0.25, -834.74)" xlink:href="#h"/><linearGradient id="ay" x1="77.13" y1="845.99" x2="77.13" y2="837.67" gradientTransform="matrix(1, 0.54, 0, 1, 0.25, -834.74)" xlink:href="#h"/><linearGradient id="az" x1="92.56" y1="50.47" x2="99.59" y2="10.76" gradientUnits="userSpaceOnUse"><stop offset="0" stop-color="#3219af"/><stop offset="0.15" stop-color="#361db1"/><stop offset="0.3" stop-color="#4229b6"/><stop offset="0.45" stop-color="#553dbf"/><stop offset="0.6" stop-color="#715acc"/><stop offset="0.76" stop-color="#957edc"/><stop offset="0.91" stop-color="#c0aaf0"/><stop offset="1" stop-color="#dec9fe"/></linearGradient><linearGradient id="ba" x1="75.41" y1="43.15" x2="122.47" y2="116.04" gradientUnits="userSpaceOnUse"><stop offset="0" stop-color="#a37de3"/><stop offset="1" stop-color="#5b17cd"/></linearGradient><linearGradient id="bb" x1="75.51" y1="74.23" x2="125.35" y2="50.37" xlink:href="#ba"/><linearGradient id="bc" x1="2387.88" y1="46.92" x2="2394.91" y2="7.21" gradientTransform="matrix(-1, 0, 0, 1, 2482.91, -2.42)" xlink:href="#az"/><linearGradient id="bd" x1="22.89" y1="66.21" x2="22.61" y2="60.31" xlink:href="#d"/><linearGradient id="be" x1="23.56" y1="72.96" x2="21.29" y2="26.21" gradientTransform="matrix(1, 0, 0, 1, 0, 0)" xlink:href="#h"/><linearGradient id="bf" x1="24.5" y1="91.94" x2="18.49" y2="54.56" gradientUnits="userSpaceOnUse"><stop offset="0" stop-color="#a37de3"/><stop offset="0.62" stop-color="#5b17cd"/></linearGradient><linearGradient id="bg" x1="43.62" y1="95.25" x2="21.8" y2="70.41" xlink:href="#ba"/><linearGradient id="bh" x1="9.04" y1="40.16" x2="19.28" y2="54.54" xlink:href="#ba"/><linearGradient id="bi" x1="7.86" y1="37.08" x2="7.86" y2="61.4" xlink:href="#ba"/><linearGradient id="bj" x1="35.3" y1="64.52" x2="54.82" y2="83.08" gradientUnits="userSpaceOnUse"><stop offset="0" stop-color="#a37de3"/><stop offset="1" stop-color="#d5c4f2"/></linearGradient><linearGradient id="bk" x1="2226.5" y1="601.61" x2="2272.91" y2="602.43" gradientTransform="matrix(-0.1, -0.26, -3.82, -0.05, 2537.39, 676.29)" xlink:href="#h"/><linearGradient id="bl" x1="2226.5" y1="601.4" x2="2272.91" y2="602.22" gradientTransform="matrix(-0.1, -0.26, -3.82, -0.05, 2537.39, 676.29)" xlink:href="#h"/><linearGradient id="bm" x1="2226.5" y1="601.19" x2="2272.92" y2="602.01" gradientTransform="matrix(-0.1, -0.26, -3.82, -0.05, 2537.39, 676.29)" xlink:href="#h"/><linearGradient id="bn" x1="2226.51" y1="600.99" x2="2272.92" y2="601.8" gradientTransform="matrix(-0.1, -0.26, -3.82, -0.05, 2537.39, 676.29)" xlink:href="#h"/><linearGradient id="bo" x1="2226.51" y1="600.78" x2="2272.92" y2="601.6" gradientTransform="matrix(-0.1, -0.26, -3.82, -0.05, 2537.39, 676.29)" xlink:href="#h"/><linearGradient id="bp" x1="2226.52" y1="600.57" x2="2272.93" y2="601.39" gradientTransform="matrix(-0.1, -0.26, -3.82, -0.05, 2537.39, 676.29)" xlink:href="#h"/><linearGradient id="bq" x1="2226.52" y1="600.36" x2="2272.93" y2="601.18" gradientTransform="matrix(-0.1, -0.26, -3.82, -0.05, 2537.39, 676.29)" xlink:href="#h"/><linearGradient id="br" x1="2226.52" y1="600.15" x2="2272.94" y2="600.97" gradientTransform="matrix(-0.1, -0.26, -3.82, -0.05, 2537.39, 676.29)" xlink:href="#h"/><linearGradient id="bs" x1="2226.53" y1="599.95" x2="2272.94" y2="600.76" gradientTransform="matrix(-0.1, -0.26, -3.82, -0.05, 2537.39, 676.29)" xlink:href="#h"/><linearGradient id="bt" x1="2226.53" y1="599.74" x2="2272.94" y2="600.56" gradientTransform="matrix(-0.1, -0.26, -3.82, -0.05, 2537.39, 676.29)" xlink:href="#h"/><linearGradient id="bu" x1="2226.53" y1="599.53" x2="2272.95" y2="600.35" gradientTransform="matrix(-0.1, -0.26, -3.82, -0.05, 2537.39, 676.29)" xlink:href="#h"/><linearGradient id="bv" x1="2226.54" y1="599.32" x2="2272.95" y2="600.14" gradientTransform="matrix(-0.1, -0.26, -3.82, -0.05, 2537.39, 676.29)" xlink:href="#h"/><linearGradient id="bw" x1="2226.54" y1="599.11" x2="2272.95" y2="599.93" gradientTransform="matrix(-0.1, -0.26, -3.82, -0.05, 2537.39, 676.29)" xlink:href="#h"/><linearGradient id="bx" x1="2226.55" y1="598.91" x2="2272.96" y2="599.72" gradientTransform="matrix(-0.1, -0.26, -3.82, -0.05, 2537.39, 676.29)" xlink:href="#h"/><linearGradient id="by" x1="2226.5" y1="601.76" x2="2272.91" y2="602.57" gradientTransform="matrix(-0.1, -0.26, -3.82, -0.05, 2537.39, 676.29)" xlink:href="#h"/><linearGradient id="bz" x1="2226.5" y1="601.55" x2="2272.91" y2="602.37" gradientTransform="matrix(-0.1, -0.26, -3.82, -0.05, 2537.39, 676.29)" xlink:href="#h"/><linearGradient id="ca" x1="2226.5" y1="601.34" x2="2272.91" y2="602.16" gradientTransform="matrix(-0.1, -0.26, -3.82, -0.05, 2537.39, 676.29)" xlink:href="#h"/><linearGradient id="cb" x1="2226.51" y1="601.13" x2="2272.92" y2="601.95" gradientTransform="matrix(-0.1, -0.26, -3.82, -0.05, 2537.39, 676.29)" xlink:href="#h"/><linearGradient id="cc" x1="2226.51" y1="600.93" x2="2272.92" y2="601.74" gradientTransform="matrix(-0.1, -0.26, -3.82, -0.05, 2537.39, 676.29)" xlink:href="#h"/><linearGradient id="cd" x1="2226.51" y1="600.72" x2="2272.93" y2="601.53" gradientTransform="matrix(-0.1, -0.26, -3.82, -0.05, 2537.39, 676.29)" xlink:href="#h"/><linearGradient id="ce" x1="2226.52" y1="600.51" x2="2272.93" y2="601.33" gradientTransform="matrix(-0.1, -0.26, -3.82, -0.05, 2537.39, 676.29)" xlink:href="#h"/><linearGradient id="cf" x1="2226.52" y1="600.3" x2="2272.93" y2="601.12" gradientTransform="matrix(-0.1, -0.26, -3.82, -0.05, 2537.39, 676.29)" xlink:href="#h"/><linearGradient id="cg" x1="2226.52" y1="600.09" x2="2272.94" y2="600.91" gradientTransform="matrix(-0.1, -0.26, -3.82, -0.05, 2537.39, 676.29)" xlink:href="#h"/><linearGradient id="ch" x1="2226.53" y1="599.88" x2="2272.94" y2="600.7" gradientTransform="matrix(-0.1, -0.26, -3.82, -0.05, 2537.39, 676.29)" xlink:href="#h"/><linearGradient id="ci" x1="2226.53" y1="599.68" x2="2272.94" y2="600.49" gradientTransform="matrix(-0.1, -0.26, -3.82, -0.05, 2537.39, 676.29)" xlink:href="#h"/><linearGradient id="cj" x1="2226.54" y1="599.47" x2="2272.95" y2="600.29" gradientTransform="matrix(-0.1, -0.26, -3.82, -0.05, 2537.39, 676.29)" xlink:href="#h"/><linearGradient id="ck" x1="2226.54" y1="599.16" x2="2272.95" y2="599.97" gradientTransform="matrix(-0.1, -0.26, -3.82, -0.05, 2537.39, 676.29)" xlink:href="#h"/><linearGradient id="cl" x1="2226.49" y1="601.89" x2="2272.91" y2="602.71" gradientTransform="matrix(-0.1, -0.26, -3.82, -0.05, 2537.39, 676.29)" xlink:href="#h"/><linearGradient id="cm" x1="2226.5" y1="601.65" x2="2272.91" y2="602.47" gradientTransform="matrix(-0.1, -0.26, -3.82, -0.05, 2537.39, 676.29)" xlink:href="#h"/><linearGradient id="cn" x1="2226.5" y1="601.44" x2="2272.91" y2="602.26" gradientTransform="matrix(-0.1, -0.26, -3.82, -0.05, 2537.39, 676.29)" xlink:href="#h"/><linearGradient id="co" x1="2226.5" y1="601.23" x2="2272.92" y2="602.05" gradientTransform="matrix(-0.1, -0.26, -3.82, -0.05, 2537.39, 676.29)" xlink:href="#h"/><linearGradient id="cp" x1="2226.51" y1="601.03" x2="2272.92" y2="601.84" gradientTransform="matrix(-0.1, -0.26, -3.82, -0.05, 2537.39, 676.29)" xlink:href="#h"/><linearGradient id="cq" x1="2226.51" y1="600.82" x2="2272.92" y2="601.64" gradientTransform="matrix(-0.1, -0.26, -3.82, -0.05, 2537.39, 676.29)" xlink:href="#h"/><linearGradient id="cr" x1="2226.51" y1="600.61" x2="2272.93" y2="601.43" gradientTransform="matrix(-0.1, -0.26, -3.82, -0.05, 2537.39, 676.29)" xlink:href="#h"/><linearGradient id="cs" x1="2226.52" y1="600.4" x2="2272.93" y2="601.22" gradientTransform="matrix(-0.1, -0.26, -3.82, -0.05, 2537.39, 676.29)" xlink:href="#h"/><linearGradient id="ct" x1="2226.52" y1="600.19" x2="2272.93" y2="601.01" gradientTransform="matrix(-0.1, -0.26, -3.82, -0.05, 2537.39, 676.29)" xlink:href="#h"/><linearGradient id="cu" x1="2226.53" y1="599.99" x2="2272.94" y2="600.8" gradientTransform="matrix(-0.1, -0.26, -3.82, -0.05, 2537.39, 676.29)" xlink:href="#h"/><linearGradient id="cv" x1="2226.53" y1="599.78" x2="2272.94" y2="600.6" gradientTransform="matrix(-0.1, -0.26, -3.82, -0.05, 2537.39, 676.29)" xlink:href="#h"/><linearGradient id="cw" x1="2226.53" y1="599.57" x2="2272.95" y2="600.39" gradientTransform="matrix(-0.1, -0.26, -3.82, -0.05, 2537.39, 676.29)" xlink:href="#h"/><linearGradient id="cx" x1="2226.54" y1="599.29" x2="2272.95" y2="600.11" gradientTransform="matrix(-0.1, -0.26, -3.82, -0.05, 2537.39, 676.29)" xlink:href="#h"/><linearGradient id="cy" x1="2226.49" y1="602" x2="2272.9" y2="602.82" gradientTransform="matrix(-0.1, -0.26, -3.82, -0.05, 2537.39, 676.29)" xlink:href="#h"/><linearGradient id="cz" x1="2226.5" y1="601.69" x2="2272.91" y2="602.5" gradientTransform="matrix(-0.1, -0.26, -3.82, -0.05, 2537.39, 676.29)" xlink:href="#h"/><linearGradient id="da" x1="2226.5" y1="601.48" x2="2272.91" y2="602.3" gradientTransform="matrix(-0.1, -0.26, -3.82, -0.05, 2537.39, 676.29)" xlink:href="#h"/><linearGradient id="db" x1="2226.5" y1="601.27" x2="2272.92" y2="602.09" gradientTransform="matrix(-0.1, -0.26, -3.82, -0.05, 2537.39, 676.29)" xlink:href="#h"/><linearGradient id="dc" x1="2226.51" y1="601.06" x2="2272.92" y2="601.88" gradientTransform="matrix(-0.1, -0.26, -3.82, -0.05, 2537.39, 676.29)" xlink:href="#h"/><linearGradient id="dd" x1="2226.51" y1="600.85" x2="2272.92" y2="601.67" gradientTransform="matrix(-0.1, -0.26, -3.82, -0.05, 2537.39, 676.29)" xlink:href="#h"/><linearGradient id="de" x1="2226.51" y1="600.65" x2="2272.93" y2="601.46" gradientTransform="matrix(-0.1, -0.26, -3.82, -0.05, 2537.39, 676.29)" xlink:href="#h"/><linearGradient id="df" x1="2226.52" y1="600.44" x2="2272.93" y2="601.26" gradientTransform="matrix(-0.1, -0.26, -3.82, -0.05, 2537.39, 676.29)" xlink:href="#h"/><linearGradient id="dg" x1="2226.52" y1="600.23" x2="2272.93" y2="601.05" gradientTransform="matrix(-0.1, -0.26, -3.82, -0.05, 2537.39, 676.29)" xlink:href="#h"/><linearGradient id="dh" x1="2226.53" y1="600.02" x2="2272.94" y2="600.84" gradientTransform="matrix(-0.1, -0.26, -3.82, -0.05, 2537.39, 676.29)" xlink:href="#h"/><linearGradient id="di" x1="2226.53" y1="599.81" x2="2272.94" y2="600.63" gradientTransform="matrix(-0.1, -0.26, -3.82, -0.05, 2537.39, 676.29)" xlink:href="#h"/><linearGradient id="dj" x1="2226.53" y1="599.51" x2="2272.95" y2="600.33" gradientTransform="matrix(-0.1, -0.26, -3.82, -0.05, 2537.39, 676.29)" xlink:href="#h"/><linearGradient id="dk" x1="2226.49" y1="602.26" x2="2272.9" y2="603.08" gradientTransform="matrix(-0.1, -0.26, -3.82, -0.05, 2537.39, 676.29)" xlink:href="#h"/><linearGradient id="dl" x1="2226.49" y1="602.02" x2="2272.9" y2="602.84" gradientTransform="matrix(-0.1, -0.26, -3.82, -0.05, 2537.39, 676.29)" xlink:href="#h"/><linearGradient id="dm" x1="2226.49" y1="601.81" x2="2272.91" y2="602.63" gradientTransform="matrix(-0.1, -0.26, -3.82, -0.05, 2537.39, 676.29)" xlink:href="#h"/><linearGradient id="dn" x1="2226.5" y1="601.61" x2="2272.91" y2="602.42" gradientTransform="matrix(-0.1, -0.26, -3.82, -0.05, 2537.39, 676.29)" xlink:href="#h"/><linearGradient id="do" x1="2226.51" y1="600.98" x2="2272.92" y2="601.8" gradientTransform="matrix(-0.1, -0.26, -3.82, -0.05, 2537.39, 676.29)" xlink:href="#h"/><linearGradient id="dp" x1="2226.52" y1="600.36" x2="2272.93" y2="601.17" gradientTransform="matrix(-0.1, -0.26, -3.82, -0.05, 2537.39, 676.29)" xlink:href="#h"/><linearGradient id="dq" x1="2226.52" y1="600.15" x2="2272.94" y2="600.97" gradientTransform="matrix(-0.1, -0.26, -3.82, -0.05, 2537.39, 676.29)" xlink:href="#h"/><linearGradient id="dr" x1="2226.53" y1="599.94" x2="2272.94" y2="600.76" gradientTransform="matrix(-0.1, -0.26, -3.82, -0.05, 2537.39, 676.29)" xlink:href="#h"/><linearGradient id="ds" x1="2226.53" y1="599.66" x2="2272.94" y2="600.48" gradientTransform="matrix(-0.1, -0.26, -3.82, -0.05, 2537.39, 676.29)" xlink:href="#h"/><linearGradient id="dt" x1="8.14" y1="55.49" x2="54.55" y2="56.31" gradientTransform="matrix(1, 0, 0, 1, 0, 0)" xlink:href="#h"/><linearGradient id="du" x1="81.01" y1="71.38" x2="38.3" y2="89.14" xlink:href="#d"/><linearGradient id="dv" x1="26.98" y1="50.67" x2="51.99" y2="64.78" xlink:href="#d"/><linearGradient id="dw" x1="11.6" y1="38.34" x2="21.84" y2="52.72" xlink:href="#ba"/><linearGradient id="dx" x1="19.19" y1="60.06" x2="23.29" y2="60.06" gradientUnits="userSpaceOnUse"><stop offset="0" stop-color="#dbccf4"/><stop offset="1" stop-color="#ccbfde"/></linearGradient><linearGradient id="dy" x1="12.91" y1="36.35" x2="12.91" y2="63.13" xlink:href="#ba"/><linearGradient id="dz" x1="48.63" y1="65.95" x2="62.15" y2="66.03" gradientUnits="userSpaceOnUse"><stop offset="0" stop-color="#3219af"/><stop offset="1" stop-color="#dec9fe"/></linearGradient><linearGradient id="ea" x1="49.94" y1="78.78" x2="57.75" y2="88.18" xlink:href="#bj"/><linearGradient id="eb" x1="38.56" y1="66.16" x2="58.12" y2="84.75" xlink:href="#bj"/><linearGradient id="ec" x1="3028.83" y1="74.86" x2="2986.13" y2="92.62" gradientTransform="matrix(-1, 0, 0, 1, 3066, 0)" xlink:href="#d"/><linearGradient id="ed" x1="32.84" y1="63.4" x2="59.39" y2="88.64" xlink:href="#bj"/><linearGradient id="ee" x1="36.8" y1="64.72" x2="58.61" y2="102.35" xlink:href="#ba"/><linearGradient id="ef" x1="41.98" y1="67.18" x2="38.71" y2="47.65" xlink:href="#dz"/></defs><title>teamwork</title><rect width="100" height="100" style="fill:none"/><path d="M100,59.14c.27,12.8-3.57,32-50,31.84C18.75,90.85,0,82.43,0,59.14S16.41,9,41.11,9,99.5,35.86,100,59.14Z" style="fill:none"/><polygon points="87.46 62.42 33.97 48.09 33.97 5 87.46 19.33 87.46 62.42" style="fill:url(#d)"/><polygon points="85.41 39.36 37.92 26.64 37.92 8.43 85.41 21.15 85.41 39.36" style="fill:#fff"/><polygon points="67.88 54.71 37.92 46.68 37.92 28.47 67.88 36.5 67.88 54.71" style="fill:#fff"/><g style="mask:url(#e)"><path d="M41.32,21.77c1.44.41,3-3.08,4.62-2.67s3,3.8,4.62,4.25,2.62-6,4.62-5.47,2.87,6,4.62,6.46,2.91,0,4.62.38,2.66,2.84,4.62,3.35l1.63.44V32L40.4,23.85V21.53Z" style="fill:url(#g)"/></g><path d="M41.32,24.21a.11.11,0,0,1-.11-.11V20.4a.11.11,0,0,1,.11-.11.11.11,0,0,1,.12.11v3.7A.11.11,0,0,1,41.32,24.21Z" style="fill:#dbccf4"/><polygon points="42.09 25.44 40.56 25.04 40.56 25.77 42.09 26.18 42.09 25.44" style="fill:#32007d"/><path d="M45.94,25.45a.11.11,0,0,1-.11-.11v-9a.11.11,0,0,1,.11-.12.12.12,0,0,1,.12.12v9.05A.11.11,0,0,1,45.94,25.45Z" style="fill:#dbccf4"/><polygon points="46.71 26.68 45.18 26.27 45.18 27 46.71 27.41 46.71 26.68" style="fill:#32007d"/><path d="M50.56,26.69a.11.11,0,0,1-.11-.12V22.88a.11.11,0,1,1,.22,0v3.69A.11.11,0,0,1,50.56,26.69Z" style="fill:#dbccf4"/><polygon points="51.33 27.92 49.8 27.51 49.8 28.24 51.33 28.65 51.33 27.92" style="fill:#32007d"/><path d="M55.18,27.92a.11.11,0,0,1-.11-.11v-9a.11.11,0,1,1,.22,0v9A.11.11,0,0,1,55.18,27.92Z" style="fill:#dbccf4"/><polygon points="55.95 29.16 54.42 28.75 54.42 29.48 55.95 29.89 55.95 29.16" style="fill:#32007d"/><path d="M59.8,29.16a.11.11,0,0,1-.11-.11v-3.7a.11.11,0,1,1,.22,0v3.7A.11.11,0,0,1,59.8,29.16Z" style="fill:#dbccf4"/><polygon points="60.56 30.39 59.04 29.98 59.04 30.72 60.56 31.13 60.56 30.39" style="fill:#32007d"/><path d="M64.42,30.4a.11.11,0,0,1-.11-.11v-9a.11.11,0,1,1,.22,0v9.05A.11.11,0,0,1,64.42,30.4Z" style="fill:#dbccf4"/><polygon points="65.18 31.63 63.66 31.22 63.66 31.95 65.18 32.36 65.18 31.63" style="fill:#32007d"/><path d="M69,31.64a.11.11,0,0,1-.11-.12V27.83a.11.11,0,1,1,.22,0v3.69A.11.11,0,0,1,69,31.64Z" style="fill:#dbccf4"/><polygon points="69.8 32.87 68.27 32.46 68.27 33.19 69.8 33.6 69.8 32.87" style="fill:#32007d"/><path d="M40.4,21.53a.25.25,0,0,1-.16-.24c0-.11.07-.17.16-.15l.92.24h0c.62.16,1.33-.55,2-1.25s1.66-1.66,2.58-1.43h0c.88.24,1.65,1.23,2.4,2.2s1.43,1.84,2.19,2,1.32-1.17,1.93-2.49c.76-1.62,1.54-3.29,2.69-3s1.89,2,2.62,3.54c.64,1.4,1.24,2.72,2,2.92h0a7.83,7.83,0,0,0,2.34.2,8.73,8.73,0,0,1,2.27.18A5,5,0,0,1,66.67,26,5.58,5.58,0,0,0,69,27.68h0l1.63.44a.25.25,0,0,1,.17.24.14.14,0,0,1-.17.15L69,28.07h0a5.78,5.78,0,0,1-2.53-1.82,4.61,4.61,0,0,0-2.06-1.52,8.46,8.46,0,0,0-2.2-.17,8.43,8.43,0,0,1-2.42-.21h0c-.94-.25-1.59-1.68-2.28-3.18s-1.39-3-2.33-3.28-1.71,1.39-2.38,2.84-1.34,2.87-2.24,2.63-1.66-1.24-2.41-2.2-1.42-1.84-2.18-2h0c-.78-.19-1.58.6-2.34,1.37s-1.5,1.51-2.27,1.3h0l-.92-.24Z" style="fill:url(#h)"/><polygon points="85.41 41.19 69.63 36.97 69.63 55.17 85.41 59.4 85.41 41.19" style="fill:#fff"/><polygon points="77.54 24.9 74.52 24.09 74.52 24.48 77.54 25.29 77.54 24.9" style="fill:#32007d"/><polygon points="77.54 25.98 74.52 25.16 74.52 25.55 77.54 26.36 77.54 25.98" style="fill:#32007d"/><polygon points="77.54 23.82 74.52 23.02 74.52 23.4 77.54 24.21 77.54 23.82" style="fill:#32007d"/><polygon points="75.59 26.53 74.52 26.24 74.52 26.63 75.59 26.92 75.59 26.53" style="fill:#32007d"/><path d="M79,27.94a.11.11,0,0,1-.11-.12V24.21a.11.11,0,1,1,.22,0v3.61A.11.11,0,0,1,79,27.94Z" style="fill:#dbccf4"/><path d="M81.62,24.92a1.26,1.26,0,0,0-1.57,1.38,2.38,2.38,0,0,0,1.57,2.23c.86.23,1.57-.39,1.57-1.39A2.37,2.37,0,0,0,81.62,24.92Zm0,3.19a1.82,1.82,0,0,1-1.2-1.71c0-.76.54-1.24,1.2-1.06a1.82,1.82,0,0,1,1.2,1.71C82.82,27.81,82.28,28.29,81.62,28.11Z" style="fill:#32007d"/><path d="M83.19,30.46h0l-8.67-2.33a.11.11,0,0,1-.08-.13.11.11,0,0,1,.14-.08l8.66,2.32a.11.11,0,0,1,.08.14A.1.1,0,0,1,83.19,30.46Z" style="fill:#dbccf4"/><path d="M82.82,27.05a1.08,1.08,0,0,1-.48,1,.19.19,0,0,0,0,.25v0c.06.12.18.19.26.13a1.4,1.4,0,0,0,.64-1.28A2.4,2.4,0,0,0,81.82,25c-.11,0-.2,0-.2.14v0a.27.27,0,0,0,.16.24A1.87,1.87,0,0,1,82.82,27.05Z" style="fill:url(#i)"/><polygon points="74.75 33.05 74.59 33.01 74.59 32.05 74.75 32.09 74.75 33.05" style="fill:url(#j)"/><polygon points="75.03 33.13 74.86 33.08 74.86 32.12 75.03 32.16 75.03 33.13" style="fill:url(#j)"/><polygon points="75.3 33.2 75.13 33.16 75.13 32.19 75.3 32.24 75.3 33.2" style="fill:url(#j)"/><polygon points="75.57 33.27 75.41 33.23 75.41 32.27 75.57 32.31 75.57 33.27" style="fill:url(#m)"/><polygon points="75.84 33.35 75.68 33.3 75.68 32.34 75.84 32.38 75.84 33.35" style="fill:url(#m)"/><polygon points="76.11 33.42 75.95 33.38 75.95 32.41 76.11 32.46 76.11 33.42" style="fill:url(#o)"/><polygon points="76.39 33.49 76.22 33.45 76.22 32.48 76.39 32.53 76.39 33.49" style="fill:url(#o)"/><polygon points="76.66 33.56 76.49 33.52 76.49 32.56 76.66 32.6 76.66 33.56" style="fill:url(#o)"/><polygon points="76.93 33.64 76.77 33.59 76.77 32.63 76.93 32.67 76.93 33.64" style="fill:url(#o)"/><polygon points="77.2 33.71 77.04 33.67 77.04 32.7 77.2 32.75 77.2 33.71" style="fill:url(#m)"/><polygon points="77.47 33.78 77.31 33.74 77.31 32.78 77.47 32.82 77.47 33.78" style="fill:url(#m)"/><polygon points="77.75 33.86 77.58 33.81 77.58 32.85 77.75 32.89 77.75 33.86" style="fill:url(#m)"/><polygon points="78.02 33.93 77.85 33.89 77.85 32.92 78.02 32.97 78.02 33.93" style="fill:url(#m)"/><polygon points="78.29 34 78.13 33.96 78.13 32.99 78.29 33.04 78.29 34" style="fill:url(#m)"/><polygon points="78.56 34.08 78.4 34.03 78.4 33.07 78.56 33.11 78.56 34.08" style="fill:url(#m)"/><polygon points="78.83 34.15 78.67 34.1 78.67 33.14 78.83 33.18 78.83 34.15" style="fill:url(#m)"/><polygon points="79.11 34.22 78.94 34.18 78.94 33.21 79.11 33.26 79.11 34.22" style="fill:url(#m)"/><polygon points="79.38 34.29 79.21 34.25 79.21 33.29 79.38 33.33 79.38 34.29" style="fill:url(#m)"/><polygon points="79.65 34.37 79.49 34.32 79.49 33.36 79.65 33.4 79.65 34.37" style="fill:url(#m)"/><polygon points="79.92 34.44 79.76 34.4 79.76 33.43 79.92 33.48 79.92 34.44" style="fill:url(#m)"/><polygon points="80.19 34.51 80.03 34.47 80.03 33.51 80.19 33.55 80.19 34.51" style="fill:url(#ad)"/><polygon points="80.47 34.59 80.3 34.54 80.3 33.58 80.47 33.62 80.47 34.59" style="fill:url(#ad)"/><polygon points="80.74 34.66 80.57 34.62 80.57 33.65 80.74 33.69 80.74 34.66" style="fill:url(#af)"/><polygon points="81.01 34.73 80.85 34.69 80.85 33.72 81.01 33.77 81.01 34.73" style="fill:url(#af)"/><polygon points="81.28 34.8 81.12 34.76 81.12 33.8 81.28 33.84 81.28 34.8" style="fill:#32007d"/><polygon points="81.55 34.88 81.39 34.83 81.39 33.87 81.55 33.91 81.55 34.88" style="fill:#32007d"/><polygon points="81.83 34.95 81.66 34.91 81.66 33.94 81.83 33.99 81.83 34.95" style="fill:#32007d"/><polygon points="82.1 35.02 81.93 34.98 81.93 34.02 82.1 34.06 82.1 35.02" style="fill:#32007d"/><polygon points="82.37 35.1 82.21 35.05 82.21 34.09 82.37 34.13 82.37 35.1" style="fill:#32007d"/><polygon points="82.64 35.17 82.48 35.13 82.48 34.16 82.64 34.2 82.64 35.17" style="fill:#32007d"/><polygon points="82.91 35.24 82.75 35.2 82.75 34.23 82.91 34.28 82.91 35.24" style="fill:#32007d"/><polygon points="83.19 35.31 83.02 35.27 83.02 34.31 83.19 34.35 83.19 35.31" style="fill:#32007d"/><polygon points="81.14 35.82 80.93 35.16 80.71 35.71 80.16 35.56 80.16 36.8 81.69 37.2 81.69 35.97 81.14 35.82" style="fill:#3219af"/><path d="M50.84,35.9h0l-4.28-1.15a.11.11,0,0,1-.08-.14.11.11,0,0,1,.13-.08l4.28,1.15a.11.11,0,0,1,.08.14A.11.11,0,0,1,50.84,35.9Z" style="fill:#dbccf4"/><path d="M50.84,39.67h0l-9.37-2.51a.12.12,0,0,1-.08-.14.12.12,0,0,1,.14-.08l9.36,2.51a.11.11,0,0,1,.08.14A.11.11,0,0,1,50.84,39.67Z" style="fill:#dbccf4"/><path d="M50.84,43.45h0l-7-1.86a.12.12,0,0,1-.08-.14.11.11,0,0,1,.14-.08l7,1.87a.1.1,0,0,1,.08.13A.11.11,0,0,1,50.84,43.45Z" style="fill:#dbccf4"/><path d="M50.84,47.22h0l-4.28-1.15a.11.11,0,0,1-.08-.14.09.09,0,0,1,.13-.07L50.87,47a.11.11,0,0,1,.08.14A.11.11,0,0,1,50.84,47.22Z" style="fill:#dbccf4"/><path d="M36.34,23.94a.56.56,0,0,0-.37-.52c-.2-.06-.37.09-.37.32a.57.57,0,0,0,.37.53A.3.3,0,0,0,36.34,23.94Z" style="fill:#32007d"/><ellipse cx="35.97" cy="19.29" rx="0.34" ry="0.46" transform="translate(-4.83 18.05) rotate(-26.47)" style="fill:#32007d"/><path d="M36.34,14.83a.57.57,0,0,0-.37-.52.3.3,0,0,0-.37.33.56.56,0,0,0,.37.52C36.17,15.22,36.34,15.07,36.34,14.83Z" style="fill:#32007d"/><polygon points="33.97 11.93 34.31 12.01 34.31 7.46 33.97 7.37 33.97 11.93" style="fill:#a37de3"/><path d="M36.34,10.28A.56.56,0,0,0,36,9.76c-.2-.06-.37.09-.37.32a.57.57,0,0,0,.37.53A.3.3,0,0,0,36.34,10.28Z" style="fill:#a37de3"/><path d="M36.34,10.28A.56.56,0,0,0,36,9.76c-.2-.06-.37.09-.37.32a.57.57,0,0,0,.37.53A.3.3,0,0,0,36.34,10.28Z" style="fill:#a37de3"/><path d="M47.05,35,40.43,33.2a.28.28,0,0,1-.19-.25h0a.15.15,0,0,1,.19-.15l6.62,1.77a.29.29,0,0,1,.2.25h0A.15.15,0,0,1,47.05,35Z" style="fill:url(#ah)"/><path d="M42.11,37.42,40.43,37a.28.28,0,0,1-.19-.25h0a.15.15,0,0,1,.19-.15l1.68.45a.29.29,0,0,1,.2.26h0A.15.15,0,0,1,42.11,37.42Z" style="fill:url(#ai)"/><path d="M44.38,41.8l-4-1a.29.29,0,0,1-.19-.26h0a.14.14,0,0,1,.19-.14l4,1.06a.27.27,0,0,1,.2.25h0A.15.15,0,0,1,44.38,41.8Z" style="fill:url(#aj)"/><path d="M48.68,46.73l-8.25-2.21a.28.28,0,0,1-.19-.25h0a.15.15,0,0,1,.19-.15l8.25,2.21a.28.28,0,0,1,.2.25h0A.15.15,0,0,1,48.68,46.73Z" style="fill:url(#ak)"/><polygon points="43.2 32.05 40.24 31.26 40.24 31.99 43.2 32.79 43.2 32.05" style="fill:#32007d"/><polygon points="77.51 30.23 74.55 29.44 74.55 30.17 77.51 30.97 77.51 30.23" style="fill:#32007d"/><polygon points="43.2 35.83 40.24 35.04 40.24 35.77 43.2 36.56 43.2 35.83" style="fill:#32007d"/><polygon points="43.2 39.6 40.24 38.81 40.24 39.54 43.2 40.33 43.2 39.6" style="fill:#32007d"/><polygon points="43.2 43.38 40.24 42.58 40.24 43.31 43.2 44.11 43.2 43.38" style="fill:#32007d"/><path d="M53.17,48.19a.11.11,0,0,1-.11-.12V34.7a.11.11,0,0,1,.22,0V48.07A.11.11,0,0,1,53.17,48.19Z" style="fill:#dbccf4"/><polygon points="60.14 42.23 60.78 42.4 60.78 41.67 60.14 41.5 60.14 42.23" style="fill:#32007d"/><polygon points="61.78 42.67 62.41 42.84 62.41 42.11 61.78 41.94 61.78 42.67" style="fill:#32007d"/><polygon points="63.42 43.11 64.05 43.28 64.05 42.55 63.42 42.38 63.42 43.11" style="fill:url(#al)"/><polygon points="65.06 43.55 65.69 43.72 65.69 42.98 65.06 42.82 65.06 43.55" style="fill:url(#al)"/><polygon points="55.23 42.8 55.86 42.97 55.86 42.23 55.23 42.06 55.23 42.8" style="fill:#32007d"/><polygon points="56.87 43.23 57.5 43.41 57.5 42.67 56.87 42.5 56.87 43.23" style="fill:#32007d"/><polygon points="58.51 43.67 59.14 43.84 59.14 43.11 58.51 42.94 58.51 43.67" style="fill:#32007d"/><polygon points="60.14 44.11 60.78 44.28 60.78 43.55 60.14 43.38 60.14 44.11" style="fill:#32007d"/><polygon points="61.78 44.55 62.41 44.72 62.41 43.99 61.78 43.82 61.78 44.55" style="fill:#32007d"/><polygon points="63.42 44.99 64.05 45.16 64.05 44.43 63.42 44.26 63.42 44.99" style="fill:url(#an)"/><polygon points="65.06 45.43 65.69 45.6 65.69 44.87 65.06 44.7 65.06 45.43" style="fill:url(#an)"/><polygon points="55.23 44.68 55.86 44.85 55.86 44.12 55.23 43.95 55.23 44.68" style="fill:#32007d"/><polygon points="56.87 45.12 57.5 45.29 57.5 44.56 56.87 44.39 56.87 45.12" style="fill:url(#ap)"/><polygon points="58.51 45.56 59.14 45.73 59.14 44.99 58.51 44.83 58.51 45.56" style="fill:#32007d"/><polygon points="60.14 45.99 60.78 46.16 60.78 45.43 60.14 45.26 60.14 45.99" style="fill:#32007d"/><polygon points="61.78 46.43 62.41 46.6 62.41 45.87 61.78 45.7 61.78 46.43" style="fill:#32007d"/><polygon points="63.42 46.87 64.05 47.04 64.05 46.31 63.42 46.14 63.42 46.87" style="fill:url(#ap)"/><polygon points="65.06 47.31 65.69 47.48 65.69 46.75 65.06 46.58 65.06 47.31" style="fill:url(#ap)"/><polygon points="55.23 46.56 55.86 46.73 55.86 46 55.23 45.83 55.23 46.56" style="fill:#32007d"/><polygon points="56.87 47 57.5 47.17 57.5 46.44 56.87 46.27 56.87 47" style="fill:#32007d"/><polygon points="58.51 47.44 59.14 47.61 59.14 46.88 58.51 46.71 58.51 47.44" style="fill:#32007d"/><polygon points="60.14 47.88 60.78 48.05 60.78 47.31 60.14 47.15 60.14 47.88" style="fill:#32007d"/><polygon points="61.78 48.31 62.41 48.48 62.41 47.75 61.78 47.58 61.78 48.31" style="fill:#32007d"/><polygon points="63.42 48.75 64.05 48.92 64.05 48.19 63.42 48.02 63.42 48.75" style="fill:url(#as)"/><polygon points="65.06 49.19 65.69 49.36 65.69 48.63 65.06 48.46 65.06 49.19" style="fill:url(#as)"/><polygon points="55.23 48.44 55.86 48.61 55.86 47.88 55.23 47.71 55.23 48.44" style="fill:#32007d"/><polygon points="56.87 48.88 57.5 49.05 57.5 48.32 56.87 48.15 56.87 48.88" style="fill:#32007d"/><polygon points="58.51 49.32 59.14 49.49 59.14 48.76 58.51 48.59 58.51 49.32" style="fill:#32007d"/><polygon points="60.14 49.76 60.78 49.93 60.78 49.2 60.14 49.03 60.14 49.76" style="fill:#32007d"/><polygon points="61.78 50.2 62.41 50.37 62.41 49.64 61.78 49.47 61.78 50.2" style="fill:#32007d"/><polygon points="58.25 36.02 55.23 35.21 55.23 35.6 58.25 36.41 58.25 36.02" style="fill:#32007d"/><polygon points="58.25 37.09 55.23 36.28 55.23 36.67 58.25 37.48 58.25 37.09" style="fill:#32007d"/><polygon points="56.3 37.64 55.23 37.36 55.23 37.75 56.3 38.03 56.3 37.64" style="fill:#32007d"/><polygon points="74.61 40.47 71.48 39.63 71.48 40.36 74.61 41.2 74.61 40.47" style="fill:#32007d"/><polygon points="71.83 52.89 71.48 52.8 71.48 42.72 71.83 42.81 71.83 52.89" style="fill:#ccbfde"/><polygon points="74.69 53.66 74.34 53.56 74.34 43.49 74.69 43.58 74.69 53.66" style="fill:#ccbfde"/><polygon points="77.55 54.42 77.21 54.33 77.21 44.25 77.55 44.34 77.55 54.42" style="fill:#ccbfde"/><polygon points="80.41 55.19 80.07 55.1 80.07 45.02 80.41 45.11 80.41 55.19" style="fill:#ccbfde"/><polygon points="83.28 55.95 82.93 55.86 82.93 45.79 83.28 45.88 83.28 55.95" style="fill:#ccbfde"/><path d="M71.4,45.76V43.93a.19.19,0,0,1,.25-.19h0a.36.36,0,0,1,.26.33v1.82a.19.19,0,0,1-.26.19h0A.35.35,0,0,1,71.4,45.76Z" style="fill:url(#au)"/><path d="M74.26,51V47.57a.19.19,0,0,1,.26-.19h0a.35.35,0,0,1,.25.32v3.39a.19.19,0,0,1-.25.19h0A.36.36,0,0,1,74.26,51Z" style="fill:url(#av)"/><rect x="79.98" y="47.31" width="0.52" height="2.98" rx="0.26" ry="0.26" style="fill:url(#aw)"/><path d="M82.85,50.73v-1a.19.19,0,0,1,.25-.19h0a.36.36,0,0,1,.26.33v1a.19.19,0,0,1-.26.19h0A.36.36,0,0,1,82.85,50.73Z" style="fill:url(#ax)"/><path d="M77.12,52.39V45.6a.19.19,0,0,1,.26-.18h0a.35.35,0,0,1,.26.32v6.79a.2.2,0,0,1-.26.19h0A.37.37,0,0,1,77.12,52.39Z" style="fill:url(#ay)"/><polygon points="54.97 16.51 55.18 17.17 55.4 16.62 55.95 16.77 55.95 15.53 54.42 15.13 54.42 16.36 54.97 16.51" style="fill:#3219af"/><polygon points="68.82 26.13 69.04 26.79 69.25 26.24 69.8 26.39 69.8 25.15 68.27 24.74 68.27 25.98 68.82 26.13" style="fill:#a37de3"/><path d="M94.58,79.53a1.68,1.68,0,0,1-.56,2.7c-1,.62-3.47,2.75-4.26,2.15-.29-.22.47-.65.85-1.15a11.41,11.41,0,0,0,1.5-2.41c.23-.74.42-1.28.42-1.28Z" style="fill:#e9e0f8"/><path d="M92,83.49c.19,1.14.28,2.16-.71,2.81s-3.72,2.42-4.87,1.23c-.7-.71,2.37-1.81,2.6-2.55a2.49,2.49,0,0,0,0-1.38Z" style="fill:#e9e0f8"/><path d="M90.05,31.34c-.48,2,1.07-2.84,3.63-.23,1.28,1.3,2.12.73,2.17,2.86s1.19,1.52,1.54,3.27S96.78,38.84,97,40s1.35,1.48,1.11,3.13c-.16,1.07-.75,1.27-1,2.42-.51,2.13.69,2.37,1.19,4.44.75,3-2.8,5.86-4.87,2.81s0-10.16,0-10.16Z" style="fill:url(#az)"/><path d="M85.1,53.82c.13,9.11-.23,12.51,2,15.71,1.93,2.81,4.82,12.18,4.82,12.18l4-2.14S91.94,67.3,92.1,64.51s-2.77-12.84-2.77-12.84l-4.08-2.28S85.09,52.71,85.1,53.82Z" style="fill:url(#ba)"/><path d="M86.88,51.26c.3,4.75-1,15.25-.61,18.54s1.87,14.37,1.87,14.37l4.56-.31s-.26-11.43-.7-14.17c-.2-1.21,2.38-8.29,2.47-11.63.14-5.06-1.36-4.52-1.25-8S86.88,51.26,86.88,51.26Z" style="fill:url(#bb)"/><path d="M88.09,38.08c1.37.3,1.92.36,2.18-.15s-.43-1.17-.43-1.17,1.65.33,3,.44c0,0-.35,1.88.12,2.34a15.08,15.08,0,0,0,1.83,1.26l-2,1.05-4.65-1.62Z" style="fill:#c199fd"/><path d="M85.26,42.68c0-1.07-.05-1.19-.34-1.22s-6.13-1.15-6.59-1.94-3.4-7.6-3.76-7.93-1.22-1.39-1.2-1.76.62.49.87.49c0,0-.25-.82-.35-1.36-.2-1,.54-1.95,1.24-.36A4.5,4.5,0,0,1,75.68,31c0,.86,4,7.25,4,7.25l7.3-.38.18,3.38Z" style="fill:#c199fd"/><path d="M87,37.82a11.43,11.43,0,0,1-1.93,4.89A66,66,0,0,0,84.65,50c-.06,1.73,1.83,2.18,3.76,1.42S92.78,53,94,51.58s3.41-8.65,1.82-10.1l-1.1-.68s-4,.33-5.64-1a3.35,3.35,0,0,1-1-1.69Z" style="fill:#fff"/><path d="M86.88,48.34a.19.19,0,0,0-.19-.2.2.2,0,0,0-.2.18.19.19,0,0,0,.19.2A.18.18,0,0,0,86.88,48.34Z" style="fill:#b99cea;opacity:0.2"/><polygon points="82.27 43.66 84.51 51.87 89.52 53.97 87.68 46.06 82.27 43.66" style="fill:#540dcb"/><path d="M95.75,46.13A7.6,7.6,0,0,0,96,41.81s-.26-.35-1.46.72A5.85,5.85,0,0,0,93,45.3s-1.4,4.82-2,4.64c-3.43-1.07-5.82-1.19-6.28-1.73s-1.15-.37-1.45-.64l-.29-1.06a2.63,2.63,0,0,0-.45.37c-.57.64.45,2.6,1.23,2.85s1,.05,1.49.27c2.23,1,6.18,2.49,6.83,2.34C94,51.9,95.75,46.13,95.75,46.13Z" style="fill:#c199fd"/><path d="M83.9,47.86c-.22-.47-.46-1.15-.29-1.34s.36.39.65.86.83,1.15.83,1.15Z" style="fill:#c199fd"/><path d="M88.68,41.53a.19.19,0,0,0-.19-.2.18.18,0,0,0-.2.18.19.19,0,0,0,.19.2A.2.2,0,0,0,88.68,41.53Z" style="fill:#32007d"/><path d="M87.59,43a.2.2,0,0,0-.19-.2.2.2,0,0,0,0,.39A.2.2,0,0,0,87.59,43Z" style="fill:#32007d"/><path d="M87.05,44.81a.19.19,0,0,0-.18-.2.19.19,0,1,0,.18.2Z" style="fill:#32007d"/><path d="M89.53,32.36a2.15,2.15,0,0,0-.34,1.5,1.52,1.52,0,0,1-.11,1c-.32.57-.06.53,0,.85s-.17,1.26.57,1.63a5.92,5.92,0,0,0,3,.1,3.92,3.92,0,0,0,1.91-4.06C94.29,31.35,91.12,29.87,89.53,32.36Z" style="fill:#c199fd"/><path d="M90.78,31c-1.42.24-1.83.75-1.86,1.84s1.42.89,2.38,1.34c.51.25.52.74.78.95.63.51.69,2.28.69,2.28l1.59-.11,1.09-4L93.36,31.1Z" style="fill:url(#bc)"/><path d="M91.57,35.13c.67-.73,1.21-.67,1.44-.21s-.7,1-.7,1Z" style="fill:#c199fd"/><polygon points="74.8 32.12 75.04 32.65 76.13 32.1 75.87 31.59 74.8 32.12" style="fill:#540dcb"/><path d="M76.13,31.81c.09.22.05.45-.1.5s-.32-.08-.41-.3,0-.45.1-.51S76.05,31.58,76.13,31.81Z" style="fill:#a37de3"/><path d="M87.72,86.54a.11.11,0,0,1-.07,0c-.22-.2-.49-.58-.38-.81,0-.06.1-.15.29-.13a3,3,0,0,1,.62.2,4,4,0,0,0,1,.3.7.7,0,0,0-.09-.17c-.42-.61-.58-.84-.46-1s.27-.08.75.13a.11.11,0,0,1,.06.15.12.12,0,0,1-.15.06,1.92,1.92,0,0,0-.46-.17,5,5,0,0,0,.45.69c.08.13.18.31.08.44s-.59,0-1.29-.23a4,4,0,0,0-.57-.19s-.06,0-.06,0,.09.34.33.55a.11.11,0,0,1-.08.2Z" style="fill:#4b00c8"/><path d="M93.56,56l-.07,0a21.58,21.58,0,0,1-3.41-2.8.11.11,0,0,1,0-.16.11.11,0,0,1,.15,0,21.8,21.8,0,0,0,3.36,2.75.11.11,0,0,1,0,.15A.12.12,0,0,1,93.56,56Z" style="fill:#4b00c8"/><path d="M87.52,45.58h0a.13.13,0,0,1-.1-.13A6.13,6.13,0,0,1,89,41.92a3.13,3.13,0,0,0,.36-.46c.14-.27-.45-.89-.93-1.4a5.73,5.73,0,0,1-.78-.94.11.11,0,0,1,0-.15.12.12,0,0,1,.16,0,5.51,5.51,0,0,0,.75.9c.6.64,1.17,1.25,1,1.66a2.62,2.62,0,0,1-.38.49,6,6,0,0,0-1.58,3.42A.12.12,0,0,1,87.52,45.58Z" style="fill:#dbccf4"/><path d="M12,79.11a2.46,2.46,0,0,1-.6-.07L3.6,77a.7.7,0,0,1-.51-.67.68.68,0,0,1,.51-.66l6.57-1.76a6.43,6.43,0,0,1,3.26,0h0V69.58a2.78,2.78,0,0,0-2.06-2.68L4.93,65.16a1.3,1.3,0,0,1,0-2.49L12,60.45a.36.36,0,0,1,.27,0L21,64.25a3.58,3.58,0,0,1,2.57,3.43l0,6.7a2.28,2.28,0,0,1-2.84,2.19l-6.45-1.69v2A2.27,2.27,0,0,1,12,79.11ZM4.17,76.28l7.44,2A1.48,1.48,0,0,0,12.89,78a1.46,1.46,0,0,0,.58-1.17V74.67l-.24-.06a5.62,5.62,0,0,0-2.85,0Zm10.09-2.21,6.65,1.74a1.48,1.48,0,0,0,1.27-.26,1.46,1.46,0,0,0,.58-1.17l0-6.7a2.77,2.77,0,0,0-2-2.68l-.05,0-8.6-3.74-7,2.18a.51.51,0,0,0,0,1h0l6.48,1.74a3.56,3.56,0,0,1,2.65,3.44Z" style="fill:#e9e0f8"/><path d="M18.25,60c-2.33-.62-4.56-1.13-4.13-3.86,0,0,.49-3.53.56-4.68a70,70,0,0,0-.9-8.6h0a2,2,0,0,0-1-1.58l-.7-.28L4.29,42.89,3.12,44.06l.18,5.71.76,5.57L3,59.87l1,3.17,8.72,2.59,10.43-2.84a.73.73,0,0,0,0-1.4Z" style="fill:#fff"/><polygon points="22.96 65.35 22.96 65.35 22.75 65.41 22.96 65.35" style="fill:url(#bd)"/><path d="M23.74,64.33V62.64l-.52.14h0l-.7,2.68.23-.06.22-.06A1.05,1.05,0,0,0,23.74,64.33Z" style="fill:url(#be)"/><path d="M23.21,62.78l-6.89,1.84a9,9,0,0,1-4.73,0l-5.3-1.41A3.68,3.68,0,0,1,3.7,58.93c.2-1.16.49-3.53.56-4.68a70,70,0,0,0-.9-8.6h0A2.38,2.38,0,0,1,5.09,42.9l6.38-1.73a1.82,1.82,0,0,1,1.56.3,2.33,2.33,0,0,0-2.18-.54l-.72.2L4.81,42.55a3.29,3.29,0,0,0-2.31,3h0S3.3,51.89,3,54a35,35,0,0,1-1.05,4.24,5.62,5.62,0,0,0,3.75,7.27l5.87,1.62a9.16,9.16,0,0,0,4.79,0l6.39-1.71.22-.06a1.05,1.05,0,0,0,.78-1V62.08A.72.72,0,0,1,23.21,62.78Z" style="fill:#e9e0f8"/><path d="M15.68,43.48l-.39-.28a1.19,1.19,0,0,0,.07.55s.32.53.32.51Z" style="fill:#e1d4f6"/><path d="M33,84c-1.22.79-5.91.25-5.91.25-2.47,0-2.81-.19-3-1.19A4.28,4.28,0,0,1,24,82c0-.38.05-.67.05-.67l3.65.28s3.2.83,4,1C33.54,83,33.85,83.45,33,84Z" style="fill:#540dcb"/><path d="M27,81c.46.5,1.16.79,1,.83-.62.14-3.89.1-3.84-.77.09-1.81-.42-1.83-.43-1.68Z" style="fill:#fff"/><path d="M23.56,80.5c-1.72,0-7.47-3.1-6.88-4.88.23-.68,1.54-1.33,1.54-1.33l2.38,2.29s1.81,2.13,2.58,2.38S26.73,80.52,23.56,80.5Z" style="fill:#540dcb"/><path d="M20.72,74.87a1.55,1.55,0,0,0,.09,1.95c.44.58-3.28-1.79-2.45-2.57.16-.14.68-.53.68-.53Z" style="fill:#fff"/><path d="M17,37.31c-.28,1.33,0,2.58-.36,3.74-.19.7-.19,1.4-1.35,1.33a3.35,3.35,0,0,1-2.56-1A2.38,2.38,0,0,1,12.31,38c1.14-1.61,4.41-1.78,4.41-1.78Z" style="fill:#c199fd"/><path d="M15.68,42a5.57,5.57,0,0,0,0,2.18c.2.51-.83,1.87-2.6,1.26A2,2,0,0,1,12,42.85l1-1.75Z" style="fill:#c199fd"/><path d="M16.85,36.21c1.2,0,.8,1.72-.1,1.67-1.59-.1-1.61,1.23-2.78,1.47s-1.08,2.18-1.08,2.18-.52.94-.84.63a8.61,8.61,0,0,1-1.46-3.52,3.31,3.31,0,0,1,.53-1.8c.12-.2.27-.12.29-.2.19-1,1.24-1.33,2.57-1.35C15.73,35.26,15.56,36.2,16.85,36.21Z" style="fill:#540dcb"/><path d="M15.46,56c3.29.82,10.85,2,11.62,4.47s-4,12.94-5.49,15c0,0-1.84-1.07-3.21-1.75L21.71,63,11.43,58.26l1.27-3.54A18.18,18.18,0,0,0,15.46,56Z" style="fill:url(#bf)"/><path d="M13,58.07s9.6,3.41,10.8,4.86,3.59,18,3.59,18l-4.29.6s-3.73-12.88-4-14c-.55-2.43-8.1-3.52-10.32-4.45a3.83,3.83,0,0,1-2.47-2.74L11.56,58Z" style="fill:url(#bg)"/><path d="M13.32,40c-.27-.61-.65-.65-.92-.27s.48,1.34.48,1.34Z" style="fill:#c199fd"/><path d="M15.91,44.1l.59.5s-1.49,4.55-1,7.75,2.46,4.2.42,5.74-2.45,0-3.73.55a6.06,6.06,0,0,1-4,.17c-1.6-.36,3-14.71,3-14.71l2.66,1.42Z" style="fill:#fff"/><path d="M14.18,45.76l.15-.7.74,1.37S14.55,46,14.18,45.76Z" style="fill:#e1d4f6"/><polygon points="13.44 45.04 13.33 45.8 11.95 46.27 13.44 45.04" style="fill:#e1d4f6"/><path d="M14.49,45.39c-.06-.11-.26-.29-.36-.26-.62.19-.76,0-1,.11s-.14.71,0,1a.22.22,0,0,0,.1.11c.3.08.67.2.75.12S14.6,45.55,14.49,45.39Z" style="fill:#3219af"/><path d="M13.44,45,12,46.27a3.87,3.87,0,0,1-.74-1.35,3,3,0,0,1,0-2.24l.79-.36s.16.4.48,1.16A4.4,4.4,0,0,0,13.44,45Z" style="fill:#fff"/><path d="M14.33,45.06l.74,1.37s1.27-1.51,1.18-2.26l-.57-.69C15.78,44.15,15,44.68,14.33,45.06Z" style="fill:#fff"/><path d="M15.36,46.33c-.75,2.25-1.4,5.32-.9,7.69s5.95,5.27,5.95,5.27a12.31,12.31,0,0,0-2.14-2.83c-.64-.43-2-.33-2-4a21.83,21.83,0,0,1,1.31-5.74l-.44-1.89-.94-.78S15.53,45.8,15.36,46.33Z" style="fill:url(#bh)"/><path d="M11.55,47.19C11.12,55.31,9.44,66.8,9.44,66.8s-4.71-2.06-5.2-4.16S5.71,47.16,7.42,45a5.78,5.78,0,0,1,3.79-2.31A29.72,29.72,0,0,1,11.55,47.19Z" style="fill:url(#bi)"/><path d="M13.28,46.2a22.39,22.39,0,0,0-.9,8.64S13.54,56.1,13.51,56s.6-1.79.6-1.79A26.57,26.57,0,0,1,14,46.43Z" style="fill:#3219af"/><path d="M37.75,75.69c.37,1.61,1,3.06,5,1.49a54.32,54.32,0,0,0,6.9-3.3L53,71.58a5.49,5.49,0,0,0-1.89-1.08c-1.35-.5-2.59-.13-4.41.36s-7.41,1.76-7.41,1.76Z" style="fill:url(#bj)"/><path d="M76.1,63.09,34.52,52a3.88,3.88,0,0,0-2,0L8.74,58.31l-1.45-.48v1.32h0a.58.58,0,0,0,.43.57L50.56,71.19a3.88,3.88,0,0,0,2,0l25.26-6.76a.44.44,0,0,0,.33-.44h0V62.67Z" style="fill:#e9e0f8"/><path d="M50.56,70,7.72,58.48a.58.58,0,0,1,0-1.13l24.77-6.64a3.88,3.88,0,0,1,2,0L77.85,62.32a.45.45,0,0,1,0,.87L52.59,70A4.1,4.1,0,0,1,50.56,70Z" style="fill:#fff"/><path d="M35.46,56.61v-.54l-.42.17-5.49-1.47a3.29,3.29,0,0,0-1.76,0l-9.11,2.44h0l-.2-.23v.49h0a.29.29,0,0,0,.22.29l5.69,1.53a3.54,3.54,0,0,0,1.77,0l9.1-2.44a.28.28,0,0,0,.22-.25Z" style="fill:#e9e0f8"/><path d="M18.68,57.26l5.69,1.53a3.54,3.54,0,0,0,1.77,0l9.1-2.44a.3.3,0,0,0,0-.57l-5.69-1.52a3.29,3.29,0,0,0-1.76,0L18.68,56.7A.29.29,0,0,0,18.68,57.26Z" style="fill:#fff"/><path d="M24.33,58.57l-.08,0c-.1,0-.11,0,0-.07l.31-.09a.66.66,0,0,1,.24,0l.08,0c.1,0,.11,0,0,.07l-.31.09A.66.66,0,0,1,24.33,58.57Z" style="fill:url(#bk)"/><path d="M25,58.39l-.09,0c-.1,0-.11,0,0-.08l.3-.08h.24l.09,0c.1,0,.11,0,0,.07l-.3.08A.49.49,0,0,1,25,58.39Z" style="fill:url(#bl)"/><path d="M25.68,58.21l-.08,0c-.1,0-.11-.06,0-.08l.31-.08h.24l.08,0c.1,0,.11.06,0,.08l-.31.08A.64.64,0,0,1,25.68,58.21Z" style="fill:url(#bm)"/><path d="M26.36,58l-.08,0c-.11,0-.12-.06,0-.08l.3-.08a.65.65,0,0,1,.24,0l.09,0c.1,0,.11.05,0,.08L26.6,58Z" style="fill:url(#bn)"/><path d="M27,57.84l-.09,0c-.1,0-.11,0,0-.07l.31-.09a.66.66,0,0,1,.24,0l.08,0c.1,0,.12.05,0,.07l-.3.09A.65.65,0,0,1,27,57.84Z" style="fill:url(#bo)"/><path d="M27.71,57.66l-.08,0c-.1,0-.11,0,0-.08l.31-.08h.24l.08,0c.1,0,.11.05,0,.07l-.31.08A.49.49,0,0,1,27.71,57.66Z" style="fill:url(#bp)"/><path d="M28.39,57.48l-.09,0c-.1,0-.11-.06,0-.08l.3-.08h.24l.09,0c.1,0,.11.06,0,.08l-.3.08A.65.65,0,0,1,28.39,57.48Z" style="fill:url(#bq)"/><path d="M29.06,57.3l-.08,0c-.1,0-.11-.06,0-.08l.31-.08a.65.65,0,0,1,.24,0l.08,0c.1,0,.11,0,0,.08l-.31.08A1,1,0,0,1,29.06,57.3Z" style="fill:url(#br)"/><path d="M29.74,57.11l-.08,0c-.11,0-.12-.05,0-.07l.3-.09a.65.65,0,0,1,.24,0l.09,0c.1,0,.11,0,0,.07l-.31.09A.66.66,0,0,1,29.74,57.11Z" style="fill:url(#bs)"/><path d="M30.42,56.93l-.09,0c-.1,0-.11,0,0-.08l.31-.08a.66.66,0,0,1,.24,0l.08,0c.11,0,.12,0,0,.07l-.3.09A.65.65,0,0,1,30.42,56.93Z" style="fill:url(#bt)"/><path d="M31.09,56.75l-.08,0c-.1,0-.11-.06,0-.08l.31-.08h.24l.08,0c.1,0,.11.06,0,.08l-.31.08A.65.65,0,0,1,31.09,56.75Z" style="fill:url(#bu)"/><path d="M31.77,56.57l-.09,0c-.1,0-.11-.06,0-.08l.3-.08a.65.65,0,0,1,.24,0l.09,0c.1,0,.11.06,0,.08l-.3.08Z" style="fill:url(#bv)"/><path d="M32.44,56.38l-.08,0c-.1,0-.11,0,0-.07l.31-.09a.66.66,0,0,1,.24,0l.08,0c.1,0,.11.05,0,.08l-.31.08A.66.66,0,0,1,32.44,56.38Z" style="fill:url(#bw)"/><path d="M33.12,56.2l-.08,0c-.1,0-.12,0,0-.07l.3-.09a.65.65,0,0,1,.24,0l.09,0c.1,0,.11.05,0,.07l-.31.09A.66.66,0,0,1,33.12,56.2Z" style="fill:url(#bx)"/><path d="M23.82,58.45l-.37-.09c-.1,0-.11-.06,0-.08l.31-.08a1,1,0,0,1,.24,0l.37.09c.1,0,.11.06,0,.08l-.31.08Z" style="fill:url(#by)"/><path d="M24.5,58.27l-.37-.1c-.1,0-.11-.05,0-.07l.31-.08a.49.49,0,0,1,.24,0l.36.09c.11,0,.12,0,0,.08l-.3.08Z" style="fill:url(#bz)"/><path d="M25.17,58.08,24.8,58c-.1,0-.11-.05,0-.07l.3-.09a.66.66,0,0,1,.24,0l.37.09c.1,0,.11,0,0,.07l-.31.09A.66.66,0,0,1,25.17,58.08Z" style="fill:url(#ca)"/><path d="M25.85,57.9l-.37-.09c-.1,0-.11-.05,0-.08l.31-.08H26l.37.09c.1,0,.11.06,0,.08l-.3.08A.49.49,0,0,1,25.85,57.9Z" style="fill:url(#cb)"/><path d="M26.52,57.72l-.36-.09c-.11,0-.12-.06,0-.08l.3-.08h.24l.37.09c.1,0,.11.06,0,.08l-.31.08Z" style="fill:url(#cc)"/><path d="M27.2,57.54l-.37-.09c-.1,0-.11-.06,0-.08l.31-.08a.49.49,0,0,1,.24,0l.37.09c.1,0,.11,0,0,.08l-.31.08Z" style="fill:url(#cd)"/><path d="M27.88,57.35l-.37-.09c-.1,0-.11,0,0-.07l.31-.09a.66.66,0,0,1,.24,0l.36.09c.11,0,.12,0,0,.07l-.3.09A.65.65,0,0,1,27.88,57.35Z" style="fill:url(#ce)"/><path d="M28.55,57.17l-.37-.09c-.1,0-.11,0,0-.08l.3-.08a1,1,0,0,1,.24,0l.37.09c.1,0,.11.06,0,.08l-.31.08A.49.49,0,0,1,28.55,57.17Z" style="fill:url(#cf)"/><path d="M29.23,57l-.37-.09c-.1,0-.11-.06,0-.08l.31-.08a1,1,0,0,1,.24,0l.37.09c.1,0,.11.06,0,.08l-.3.08Z" style="fill:url(#cg)"/><path d="M29.9,56.81l-.36-.09c-.1,0-.12-.06,0-.08l.3-.08a.49.49,0,0,1,.24,0l.37.09c.1,0,.11.05,0,.08l-.31.08Z" style="fill:url(#ch)"/><path d="M30.58,56.62l-.37-.09c-.1,0-.11-.05,0-.07l.31-.09a.66.66,0,0,1,.24,0l.37.09c.1,0,.11.05,0,.07l-.31.09A.66.66,0,0,1,30.58,56.62Z" style="fill:url(#ci)"/><path d="M31.26,56.44l-.37-.09c-.1,0-.11-.05,0-.08l.31-.08h.24l.36.1c.11,0,.12.05,0,.07l-.3.08A.49.49,0,0,1,31.26,56.44Z" style="fill:url(#cj)"/><path d="M31.94,56.26l-.37-.09c-.1,0-.11-.06,0-.08l1-.26a.65.65,0,0,1,.24,0l.37.09c.1,0,.11,0,0,.08l-1,.26A1,1,0,0,1,31.94,56.26Z" style="fill:url(#ck)"/><path d="M23,58.23l-.37-.09c-.1,0-.11-.06,0-.08l.53-.14a.65.65,0,0,1,.24,0l.37.09c.1,0,.11.05,0,.08l-.53.14A1,1,0,0,1,23,58.23Z" style="fill:url(#cl)"/><path d="M23.94,58l-.37-.09c-.1,0-.11,0,0-.07l.31-.09a.66.66,0,0,1,.24,0l.37.09c.1,0,.11.05,0,.07l-.3.09A.66.66,0,0,1,23.94,58Z" style="fill:url(#cm)"/><path d="M24.61,57.8l-.36-.09c-.11,0-.12-.05,0-.08l.3-.08h.24l.37.1c.1,0,.11.05,0,.07l-.31.08A.49.49,0,0,1,24.61,57.8Z" style="fill:url(#cn)"/><path d="M25.29,57.62l-.37-.09c-.1,0-.11-.06,0-.08l.31-.08h.24l.37.09c.1,0,.11.06,0,.08l-.31.08A.65.65,0,0,1,25.29,57.62Z" style="fill:url(#co)"/><path d="M26,57.44l-.37-.09c-.1,0-.11-.06,0-.08l.31-.08a.64.64,0,0,1,.24,0l.36.09c.11,0,.12,0,0,.08l-.3.08A1,1,0,0,1,26,57.44Z" style="fill:url(#cp)"/><path d="M26.64,57.25l-.37-.09c-.1,0-.11,0,0-.07l.3-.09a.66.66,0,0,1,.24,0l.37.09c.1,0,.11,0,0,.07l-.31.09A.66.66,0,0,1,26.64,57.25Z" style="fill:url(#cq)"/><path d="M27.32,57.07,27,57c-.1,0-.11,0,0-.08l.31-.08a.66.66,0,0,1,.24,0l.37.09c.1,0,.11,0,0,.07l-.3.09A.66.66,0,0,1,27.32,57.07Z" style="fill:url(#cr)"/><path d="M28,56.89l-.36-.09c-.1,0-.12-.06,0-.08l.3-.08h.24l.37.09c.1,0,.11.06,0,.08l-.3.08A.7.7,0,0,1,28,56.89Z" style="fill:url(#cs)"/><path d="M28.67,56.71l-.37-.09c-.1,0-.11-.06,0-.08l.31-.08a.65.65,0,0,1,.24,0l.37.09c.1,0,.11.06,0,.08l-.31.08Z" style="fill:url(#ct)"/><path d="M29.35,56.52,29,56.43c-.1,0-.11,0,0-.07l.31-.09a.66.66,0,0,1,.24,0l.37.09c.1,0,.11.05,0,.08l-.3.08A.66.66,0,0,1,29.35,56.52Z" style="fill:url(#cu)"/><path d="M30,56.34l-.37-.09c-.1,0-.11,0,0-.08l.3-.08a.66.66,0,0,1,.24,0l.37.09c.1,0,.11.05,0,.07l-.31.09A.66.66,0,0,1,30,56.34Z" style="fill:url(#cv)"/><path d="M30.7,56.16l-.37-.09c-.1,0-.11,0,0-.08l.31-.08h.24l.37.09c.1,0,.11.06,0,.08l-.31.08A.65.65,0,0,1,30.7,56.16Z" style="fill:url(#cw)"/><path d="M31.38,56l-.37-.1c-.1,0-.11-.05,0-.07l.74-.2a.65.65,0,0,1,.24,0l.37.09c.1,0,.11,0,0,.08l-.75.2A1,1,0,0,1,31.38,56Z" style="fill:url(#cx)"/><path d="M22.21,58l-.37-.09c-.1,0-.11,0,0-.07l1-.28a.66.66,0,0,1,.24,0l.37.09c.1,0,.11,0,0,.07l-1,.28A.65.65,0,0,1,22.21,58Z" style="fill:url(#cy)"/><path d="M23.59,57.65l-.36-.09c-.11,0-.12-.06,0-.08l.3-.08h.24l.37.09c.1,0,.11.06,0,.08l-.31.08A.64.64,0,0,1,23.59,57.65Z" style="fill:url(#cz)"/><path d="M24.27,57.47l-.37-.09c-.1,0-.11-.06,0-.08l.31-.08a.65.65,0,0,1,.24,0l.37.09c.1,0,.11,0,0,.08l-.31.08Z" style="fill:url(#da)"/><path d="M25,57.28l-.37-.09c-.1,0-.11,0,0-.07l.31-.09a.66.66,0,0,1,.24,0l.36.09c.11,0,.12,0,0,.08l-.3.08A.65.65,0,0,1,25,57.28Z" style="fill:url(#db)"/><path d="M25.62,57.1,25.25,57c-.1,0-.11,0,0-.08l.3-.08a.66.66,0,0,1,.24,0l.37.09c.1,0,.11,0,0,.07l-.31.09A.66.66,0,0,1,25.62,57.1Z" style="fill:url(#dc)"/><path d="M26.3,56.92l-.37-.09c-.1,0-.11,0,0-.08l.31-.08a1,1,0,0,1,.24,0l.37.09c.1,0,.11.06,0,.08l-.3.08A.65.65,0,0,1,26.3,56.92Z" style="fill:url(#dd)"/><path d="M27,56.74l-.36-.09c-.11,0-.12-.06,0-.08l.3-.08a.65.65,0,0,1,.24,0l.37.09c.1,0,.11.06,0,.08l-.31.08Z" style="fill:url(#de)"/><path d="M27.65,56.55l-.37-.09c-.1,0-.11-.05,0-.07l.31-.08a.49.49,0,0,1,.24,0l.37.09c.1,0,.11.05,0,.08l-.31.08A.66.66,0,0,1,27.65,56.55Z" style="fill:url(#df)"/><path d="M28.33,56.37,28,56.28c-.1,0-.11-.05,0-.07l.31-.09a.66.66,0,0,1,.24,0l.36.09c.11,0,.12.05,0,.07l-.3.09A.65.65,0,0,1,28.33,56.37Z" style="fill:url(#dg)"/><path d="M29,56.19l-.37-.09c-.1,0-.11-.05,0-.08l.3-.08h.24l.37.09c.1,0,.11.06,0,.08l-.31.08A.65.65,0,0,1,29,56.19Z" style="fill:url(#dh)"/><path d="M29.68,56l-.37-.09c-.1,0-.11-.06,0-.08l.31-.08a.65.65,0,0,1,.24,0l.37.09c.1,0,.11.06,0,.08l-.3.08A1,1,0,0,1,29.68,56Z" style="fill:url(#di)"/><path d="M30.35,55.83l-.37-.1c-.1,0-.11,0,0-.07l.94-.26a.65.65,0,0,1,.24,0l.37.09c.1,0,.11,0,0,.07l-.95.26A1,1,0,0,1,30.35,55.83Z" style="fill:url(#dj)"/><path d="M21.38,57.82,21,57.73c-.1,0-.11,0,0-.08l.53-.14h.24l.37.09c.1,0,.11.06,0,.08l-.53.14A.65.65,0,0,1,21.38,57.82Z" style="fill:url(#dk)"/><path d="M22.28,57.58l-.37-.09c-.1,0-.11-.06,0-.08l.31-.08a.49.49,0,0,1,.24,0l.37.09c.1,0,.11,0,0,.08l-.31.08A1,1,0,0,1,22.28,57.58Z" style="fill:url(#dl)"/><path d="M23,57.39l-.37-.09c-.1,0-.11,0,0-.07l.31-.09a.66.66,0,0,1,.24,0l.36.09c.11,0,.12,0,0,.07l-.3.09A.66.66,0,0,1,23,57.39Z" style="fill:url(#dm)"/><path d="M23.63,57.21l-.37-.09c-.1,0-.11,0,0-.08l.3-.08h.24l.37.1c.1,0,.11,0,0,.07l-.31.08A.49.49,0,0,1,23.63,57.21Z" style="fill:url(#dn)"/><path d="M24.31,57l-.37-.09c-.1,0-.11-.06,0-.08l3-.81h.24l.37.09c.1,0,.11.06,0,.08l-3,.81Z" style="fill:url(#do)"/><path d="M27.69,56.12,27.32,56c-.1,0-.11-.06,0-.08l.31-.08a.65.65,0,0,1,.24,0l.37.09c.1,0,.11,0,0,.08l-.31.08A1,1,0,0,1,27.69,56.12Z" style="fill:url(#dp)"/><path d="M28.37,55.93,28,55.84c-.1,0-.11-.05,0-.07l.3-.09a.65.65,0,0,1,.24,0l.37.09c.1,0,.12,0,0,.07l-.3.09A.65.65,0,0,1,28.37,55.93Z" style="fill:url(#dq)"/><path d="M29,55.75l-.37-.09c-.1,0-.11,0,0-.08L29,55.5a.66.66,0,0,1,.24,0l.37.09c.1,0,.11,0,0,.07l-.31.08A.49.49,0,0,1,29,55.75Z" style="fill:url(#dr)"/><path d="M29.73,55.57l-.37-.09c-.1,0-.11-.06,0-.08l.75-.2a1,1,0,0,1,.24,0l.36.09c.11,0,.12.06,0,.08l-.74.2Z" style="fill:url(#ds)"/><path d="M23,56l1.19.31a1.31,1.31,0,0,0,.68,0l2.25-.6a.11.11,0,0,0,0-.21l-1.18-.32a1.34,1.34,0,0,0-.69,0l-2.25.6A.11.11,0,0,0,23,56Z" style="fill:url(#dt)"/><path d="M75.11,61.7h0l-27.9-7.47a.11.11,0,0,1-.08-.14.12.12,0,0,1,.14-.08l27.9,7.48a.11.11,0,0,1,.08.13A.13.13,0,0,1,75.11,61.7Z" style="fill:#e9e0f8"/><path d="M75.8,91.08a7.48,7.48,0,0,1-1.94-.25l-5.47-1.47a3.94,3.94,0,0,1-2.91-3.8v-6.8a2.2,2.2,0,0,1,2.78-2.14l6.85,1.84a2.83,2.83,0,0,0,.87.08V76a2.2,2.2,0,0,1,2.78-2.14l7,2a.51.51,0,0,1,0,1l-9,2.45v3.54a3.15,3.15,0,0,0,2.34,3l5.65,1.51a.86.86,0,0,1,.63.83.84.84,0,0,1-.63.82l-7,1.88A7.56,7.56,0,0,1,75.8,91.08ZM67.69,77.33a1.39,1.39,0,0,0-.87.3,1.42,1.42,0,0,0-.56,1.13v6.8a3.14,3.14,0,0,0,2.34,3l5.46,1.47a6.84,6.84,0,0,0,3.48,0l7-1.88s0,0,0-.06a.08.08,0,0,0,0-.07L78.9,86.55A3.94,3.94,0,0,1,76,82.75V79.33a3.29,3.29,0,0,1-1.08-.12l-6.84-1.83A1.57,1.57,0,0,0,67.69,77.33Zm10.5-2.81A1.42,1.42,0,0,0,76.76,76v2.44l7.87-2.13-6.07-1.69A1.18,1.18,0,0,0,78.19,74.52ZM85.59,76Z" style="fill:#e9e0f8"/><path d="M72.65,70.88,65.6,72.77a1.14,1.14,0,0,0,0,2.2L77.08,78l.17-7-.57-.16A7.87,7.87,0,0,0,72.65,70.88Z" style="fill:url(#du)"/><path d="M87.88,57.15h0l-.06,0a.65.65,0,0,0-.34,0l-.28.07-5.64,1.51a4.25,4.25,0,0,0-2.94,2.82,58.56,58.56,0,0,0-2.14,8.29v0c0,.57.21,4.65.32,5.67a1.73,1.73,0,0,1-2.18,1.85L68.33,75.7,66,75.07,65.6,75a1.12,1.12,0,0,1-.84-1.1v2.41h0a1.26,1.26,0,0,0,.08.43,1.13,1.13,0,0,0,.76.66L75,79.91h0a2.77,2.77,0,0,0,2-.25,3.12,3.12,0,0,0,.59-.44,2.73,2.73,0,0,0,.81-2.47,41.75,41.75,0,0,1-.78-6.6,53.77,53.77,0,0,1,1.68-8.26,4.21,4.21,0,0,1,3-3l6.11-1.56Z" style="fill:#e9e0f8"/><path d="M78.91,60.83Z" style="fill:#32007d"/><path d="M89.28,59.24c.38-1.47-.58-2.07-1.11-1.93l-5.79,1.55a4.19,4.19,0,0,0-3,3,53.77,53.77,0,0,0-1.68,8.26,41.75,41.75,0,0,0,.78,6.6,2.78,2.78,0,0,1-1.4,2.91,2.87,2.87,0,0,1-.57.24l9.77-2.62h0A2.68,2.68,0,0,0,87,77a2.77,2.77,0,0,0,1.4-2.9,41.87,41.87,0,0,1-.78-6.6A53.63,53.63,0,0,1,89.28,59.24Z" style="fill:#fff"/><path d="M78.54,72.65a.13.13,0,0,1-.11-.09.12.12,0,0,1,.08-.14l8.81-2.36a.12.12,0,0,1,.14.08.11.11,0,0,1-.08.14l-8.81,2.36Z" style="fill:#e9e0f8"/><path d="M25.9,52.59a15,15,0,0,1,2.67-.07c.57.14,1.87,1.9,1.62,2.72s-1.9-.62-2.36-.87.54.53.58.78-.33.4-.8.07A13.39,13.39,0,0,0,25,54.11Z" style="fill:#c199fd"/><path d="M25.14,52.09l1.46.44c-.42.23-.6,1.61-.6,1.61h-.56l.53.17v.37l-1.62-.19-.41-1.79Z" style="fill:#fff"/><path d="M25.87,53.74a.14.14,0,0,0-.18-.1.16.16,0,0,0-.1.19.15.15,0,1,0,.28-.09Z" style="fill:#5d1ace"/><path d="M28.22,51.93l-2.58,6.74a.24.24,0,0,0,.29.32L36,56.3a1.12,1.12,0,0,0,.77-.7l2.58-6.73a.24.24,0,0,0-.29-.32L29,51.23A1.17,1.17,0,0,0,28.22,51.93Z" style="fill:url(#dv)"/><path d="M26.13,58.68h0a.12.12,0,0,1-.06-.14l2.45-6.38a1.2,1.2,0,0,1,.81-.74.11.11,0,0,1,.13.08.11.11,0,0,1-.08.14,1,1,0,0,0-.65.6l-2.45,6.38A.12.12,0,0,1,26.13,58.68Z" style="fill:#dbccf4"/><path d="M17.13,44.88c1.05,1.54,3.54,5.43,4.31,5.86a28.82,28.82,0,0,0,3.95,1.41,2.34,2.34,0,0,0-.77,2.5s-3.77-.6-4.26-.74C19,53.55,16,50.09,16,50.09l.65-2.88Z" style="fill:url(#dw)"/><path d="M11,49.86a.11.11,0,0,1-.11-.08l-.26-1.06a.1.1,0,0,1,0-.09l.24-.38-.25-.94s0,0,0,0a18.12,18.12,0,0,0,0-4.06.11.11,0,0,1,.1-.13.11.11,0,0,1,.12.1,18.4,18.4,0,0,1,0,4.09l.26,1a.11.11,0,0,1,0,.08l-.24.39.25,1a.12.12,0,0,1-.08.14Z" style="fill:#4b00c8"/><path d="M19.64,59.62c-1,.59-.26.82,1,1.17s2.85.2,2.65-.32a3.73,3.73,0,0,0-2.6-1.31A2.07,2.07,0,0,0,19.64,59.62Z" style="fill:url(#dx)"/><path d="M16.5,58.16S17.35,59.81,18,60c.83.22,1.49,1.09,2.53.32.42-.31.69.42.69.6s1.26.5,1.35-.39a1.64,1.64,0,0,0-.41-1.32,2.12,2.12,0,0,0-1.57-.59c-1.52,0-1.63.12-1.93,0s-.75-.47-.75-.47Z" style="fill:#c199fd"/><path d="M17.13,60.22l1.14.31.13-.68-.81-.47.95,0a2.48,2.48,0,0,1,.86-.78l-.63-.24L18,58.3l-.95,1v.92Z" style="fill:#fff"/><path d="M9,44.45c1.3,1.29,1.82,7.71,3.57,8.94,1,.73,6.41,5.08,6.41,5.08a1,1,0,0,0-1,.23,2.52,2.52,0,0,0-.89,1.59s-6.3-2.63-7.58-4.14a11.74,11.74,0,0,1-2.39-9.42C7.6,44.45,8.49,44,9,44.45Z" style="fill:url(#dy)"/><path d="M21.82,58.92a3.17,3.17,0,0,1,1.15.94c.2.28.21.51,0,.52s-.83-.47-.83-.47Z" style="fill:#c199fd"/><path d="M10.49,57.23s-.58-.42-1.12-.84A9,9,0,0,1,7,51l.22,0a8.69,8.69,0,0,0,2.31,5.28c.54.42,1.1.83,1.11.83Z" style="fill:#fff"/><path d="M14.78,52.2a.11.11,0,0,1-.11-.11,15,15,0,0,1,.89-2.92l-.18-.57a.12.12,0,0,1,.06-.14l.46-.22.49-3.65a.1.1,0,0,1,.12-.1.11.11,0,0,1,.1.13l-.49,3.71a.13.13,0,0,1-.07.09l-.43.2.17.52a.11.11,0,0,1,0,.08,14.7,14.7,0,0,0-.9,2.86.11.11,0,0,1-.11.12Z" style="fill:#4b00c8"/><path d="M21.37,79.35a.09.09,0,0,1-.07,0,.11.11,0,0,1,0-.16s.36-.4.13-.69a.77.77,0,0,0-.37-.19c-.14,0-.26-.08-.27-.2s.12-.22.62-.47a.12.12,0,0,1,.15,0,.12.12,0,0,1-.05.15,3.11,3.11,0,0,0-.44.24h.05a1,1,0,0,1,.49.27.77.77,0,0,1-.15,1A.09.09,0,0,1,21.37,79.35Z" style="fill:#fff"/><path d="M28.66,83.12a.48.48,0,0,1-.21-.06.79.79,0,0,1-.36-.63,1.77,1.77,0,0,0-.13.17.12.12,0,0,1-.16,0,.1.1,0,0,1,0-.15c.21-.27.29-.35.4-.32s.11.13.13.24a.59.59,0,0,0,.25.48c.14.08.22,0,.38-.28s.23-.38.42-.41a.47.47,0,0,1,.37.17.1.1,0,0,1,0,.16.12.12,0,0,1-.16,0c-.05,0-.13-.11-.18-.1s-.17.16-.25.29S28.89,83.12,28.66,83.12Z" style="fill:#fff"/><polygon points="51.58 63.38 45.48 61.75 52.89 59.76 59.01 61.4 51.58 63.38" style="fill:#3219af"/><path d="M52.34,60.26,48,62.31a26.3,26.3,0,0,0,5.29.85c.16,0,4.26-2,4.26-2Z" style="fill:#fff"/><path d="M55,64.18l.31,3.39c0,.14.39.25.88.25s.88-.11.88-.25l.31-3.39Z" style="fill:url(#dz)"/><path d="M57.25,63.91V64a3.12,3.12,0,0,0-1-.15,2.71,2.71,0,0,0-1.13.19v-.09h-.16v.27c0,.21.57.38,1.29.38s1.29-.17,1.29-.38v-.27Z" style="fill:#3219af"/><path d="M57.51,63.91c0-.21-.58-.37-1.29-.37s-1.29.16-1.29.37.57.38,1.29.38S57.51,64.12,57.51,63.91Z" style="fill:#dec9fe"/><path d="M57.32,63.86l-.24-.23h-.41a3.39,3.39,0,0,0-.9,0h-.42l-.17.18,0,0h0a.13.13,0,0,0,0,.06c0,.17.49.32,1.1.32s1.1-.15,1.1-.32a.14.14,0,0,0,0-.06Z" style="fill:#3219af"/><path d="M57.12,63.7c0-.15-.4-.26-.9-.26a1.64,1.64,0,0,0-.85.17.12.12,0,0,0,0,.09c0,.14.4.26.9.26S57.12,63.84,57.12,63.7Z" style="fill:#dec9fe"/><path d="M56.81,63.6c0,.07-.17.12-.38.12s-.38,0-.38-.12.17-.13.38-.13S56.81,63.53,56.81,63.6Z" style="fill:#3219af"/><path d="M52.63,88.32c0,.87-.29,1-.37,2s1.86.58,2.79.58,3,0,2.75-.83-2.32-.63-2.89-1.28c-.88-1-.5-1.24-.5-1.24Z" style="fill:#a37de3"/><path d="M48.75,87.18c-.09.93-.26,2.11.08,2.35s4.12-.44,4.69-1.39-.54-.89-1.1-.81a6.87,6.87,0,0,1-2.11-.53Z" style="fill:#a37de3"/><path d="M47.81,82a37.29,37.29,0,0,0,.57,5.43s2.82-.07,4.27-1.18c0,0,1.9-10.76,1.9-11.8C54.55,71.07,47.53,75.28,47.81,82Z" style="fill:url(#ea)"/><path d="M52.71,76.62c0,1.69-.4,12.56-.4,12.56s3.21-.31,4.49-1.61c0,0,1.88-10.76,0-13.86C54.68,70.36,52.71,74.89,52.71,76.62Z" style="fill:url(#eb)"/><path d="M42.37,95a7.49,7.49,0,0,1-1.94-.26l-7-1.87a.85.85,0,0,1,0-1.65l5.65-1.51a3.16,3.16,0,0,0,2.33-3V83.12l-9-2.45h0a.51.51,0,0,1,0-1l7-2a2.14,2.14,0,0,1,1.92.38,2.19,2.19,0,0,1,.87,1.75v2.6a2.58,2.58,0,0,0,.87-.09l6.84-1.83a2.22,2.22,0,0,1,2.79,2.14v6.8a3.94,3.94,0,0,1-2.92,3.8l-5.46,1.46A7.57,7.57,0,0,1,42.37,95ZM42.2,83.25v3.42a4,4,0,0,1-2.92,3.8L33.63,92s-.05,0-.05.06,0,.06.05.07l7,1.87a6.63,6.63,0,0,0,3.48,0l5.47-1.46a3.16,3.16,0,0,0,2.33-3v-6.8a1.43,1.43,0,0,0-.56-1.14,1.39,1.39,0,0,0-1.23-.24l-6.85,1.83A3.86,3.86,0,0,1,42.2,83.25Zm-8.65-3.08,7.86,2.14V79.86a1.41,1.41,0,0,0-.56-1.13,1.44,1.44,0,0,0-1.24-.25Z" style="fill:#e9e0f8"/><path d="M45.53,74.37l7,1.88a1.14,1.14,0,0,1,0,2.2L41.1,81.53l-.18-7,.58-.15A7.65,7.65,0,0,1,45.53,74.37Z" style="fill:url(#ec)"/><path d="M40.15,65.28c5-.82,8-1.71,9.05-2.39a4.78,4.78,0,0,1,3.22-1c.85,0,1.61.81,1.46,1s-.77-.11-1.18,0-.77.87-1.64,1-1.05,0-1.38.1-6.08,3-8,3.21S40.15,65.28,40.15,65.28Z" style="fill:#6400fa"/><path d="M35.07,77.81c.37,1.62,5.34,4,11,2a73.22,73.22,0,0,0,7.3-3.07L56.22,73a5.39,5.39,0,0,0-1.89-1.07c-1.35-.51-2.59-.14-4.41.36s-7.19,2.93-7.19,2.93Z" style="fill:url(#ed)"/><path d="M37,58.55c-3.06,1.63-.46,9.59-2.46,13.13-3.64,6.48,5,8.38,6.41,7.65s1.62-3.62,3.9-4c.55-.07,3.22-.57,2-1.14-2.5-1.12-2.19-2.34-2.25-2.72-.44-2.9.89-7.26.19-9.43a3.28,3.28,0,0,0-2-2l-5.44-1.46Z" style="fill:url(#ee)"/><path d="M37.24,58.67c-.28,2,3.29.74,5.44,1.44a1.66,1.66,0,0,1-1.47-2c.14-1.23-2-2-2-2s-.31,2.1-.79,2.34A2,2,0,0,1,37.24,58.67Z" style="fill:#6400fa"/><path d="M38,54.39c.38,2.8,2.66,3.9,3.59,3.65.5-.14,1.07-1,1.27-2.2a4.37,4.37,0,0,0-.1-.86c0-.1.11-.67.1-.77a2.62,2.62,0,0,0-.56-1.43C40.75,50.41,37.7,52.34,38,54.39Z" style="fill:#6400fa"/><path d="M44,75.5h0a.11.11,0,0,1-.05-.15,2.17,2.17,0,0,0,0-1.61.49.49,0,0,0-.47-.21,20,20,0,0,1-9.14-2.65.12.12,0,1,1,.13-.19,19.8,19.8,0,0,0,9,2.62.73.73,0,0,1,.67.31,2.37,2.37,0,0,1,0,1.82A.12.12,0,0,1,44,75.5Z" style="fill:#fff"/><path d="M44.46,77.9l-.07,0c-.62-.43-.51-1-.35-1.58,0-.12.07-.25.11-.38a6.38,6.38,0,0,0,.36-1.7,1.22,1.22,0,0,0-.24-.85c-.13.22-.3.44-.46.47a.42.42,0,0,1-.43-.25.44.44,0,0,1,.17-.53.61.61,0,0,1,.64,0h0a2,2,0,0,0,.3-1.21.1.1,0,0,1,.06-.14.11.11,0,0,1,.15.06,2.28,2.28,0,0,1-.33,1.43,1.37,1.37,0,0,1,.36,1A6.57,6.57,0,0,1,44.37,76c0,.14-.08.26-.12.38-.15.53-.23,1,.27,1.34a.1.1,0,0,1,0,.15A.12.12,0,0,1,44.46,77.9Zm-.58-4.72a.34.34,0,0,0-.2.06.21.21,0,0,0-.09.26.17.17,0,0,0,.19.11s.15-.12.31-.38h0A.37.37,0,0,0,43.88,73.18Z" style="fill:#fff"/><path d="M51.63,63.4c.95-.26,1.48-.39,1.47,0S51,64,50.68,64,51.63,63.4,51.63,63.4Z" style="fill:#6400fa"/><path d="M30.29,60.63h0l.07,0a.91.91,0,0,1,.33,0l.29.08,5.63,1.51A4.21,4.21,0,0,1,39.55,65,58.29,58.29,0,0,1,41.7,73.3v0c0,.57-.2,4.66-.31,5.68a1.73,1.73,0,0,0,2.17,1.85l6.28-1.68,2.35-.63.39-.11a1.11,1.11,0,0,0,.84-1.1v2.43a1.11,1.11,0,0,1-.09.43,1.08,1.08,0,0,1-.75.65l-9.45,2.53h0a2.76,2.76,0,0,1-2.05-.24,2.59,2.59,0,0,1-.59-.44,2.74,2.74,0,0,1-.81-2.47,43,43,0,0,0,.78-6.6,54.85,54.85,0,0,0-1.68-8.27,4.26,4.26,0,0,0-3-3l-6.11-1.56Z" style="fill:#e9e0f8"/><path d="M39.26,64.32Z" style="fill:#32007d"/><path d="M28.9,62.72c-.39-1.47.57-2.07,1.11-1.93l5.79,1.55a4.25,4.25,0,0,1,3,3,54.85,54.85,0,0,1,1.68,8.27,43,43,0,0,1-.78,6.6,2.78,2.78,0,0,0,1.4,2.91,3.57,3.57,0,0,0,.57.23l-9.78-2.62h0a3,3,0,0,1-.67-.26,2.77,2.77,0,0,1-1.4-2.91,43,43,0,0,0,.78-6.6A55.34,55.34,0,0,0,28.9,62.72Z" style="fill:#fff"/><path d="M39.85,83h0l-8-2.14a2.75,2.75,0,0,1-.69-.27,2.9,2.9,0,0,1-1.46-3A41.08,41.08,0,0,0,30.47,71a56.65,56.65,0,0,0-1.68-8.24.1.1,0,0,1,.08-.13.11.11,0,0,1,.14.08A53.88,53.88,0,0,1,30.69,71a43.65,43.65,0,0,1-.78,6.62,2.67,2.67,0,0,0,1.34,2.79,2.57,2.57,0,0,0,.65.25l8,2.14a.11.11,0,0,1,.08.14A.11.11,0,0,1,39.85,83Z" style="fill:#e9e0f8"/><path d="M39.64,76.13h0l-8.82-2.36a.12.12,0,0,1-.08-.14.11.11,0,0,1,.14-.08l8.81,2.36a.11.11,0,0,1,.08.14A.11.11,0,0,1,39.64,76.13Z" style="fill:#e9e0f8"/><path d="M38.63,50.25c-.6.91-1.39,0-1.82,1.24s-.6.73-1.31,1.42,0,1.78.82,2,1,.66.77,1.3,1,1.21,1.28,1.16,1.34-.28,1.78.14,1.11-1,1-1.34.1-1.29.76-1.39a3,3,0,0,0,1.33-.71,1.48,1.48,0,0,0,0-2.57,6.12,6.12,0,0,1-1.69-1.26C41.05,49.66,39.16,49.43,38.63,50.25Z" style="fill:url(#ef)"/><path d="M41.2,55c-.34.3-.5.89-.13,1.15.13.1.44-.16.44-.16s.44-.82.33-1S41.28,54.89,41.2,55Z" style="fill:#6400fa"/><path d="M57.67,66c-.16-.89-.66.33-2.23-.1,0,0-.21-.05-.27-.14h0s0-.35,0-.49l-.28.17c-.29.18-.56,1-.56,1h0l-.1.12-.1.14-6.19,1s-2.8-4.73-3.67-6-2.07,2.47-1.55,3.24c1.08,1.62,2.61,5.21,4.28,5.07a65.58,65.58,0,0,0,8-2.35,3.56,3.56,0,0,1,.8.08c.92,0,1.43-.24,1.69-.65A1.24,1.24,0,0,0,57.67,66Z" style="fill:#6400fa"/><path d="M53.16,75.87A.16.16,0,0,1,53,75.8c-.11-.13,0-.4.28-1l0,0a.69.69,0,0,0,0-.17,6.42,6.42,0,0,0-.76,1.11.11.11,0,0,1-.19-.11c.77-1.3,1-1.34,1.09-1.27s0,.54,0,.54l0,0a2.89,2.89,0,0,0-.31.75,8.58,8.58,0,0,0,1.13-.55.13.13,0,0,1,.16,0,.11.11,0,0,1,0,.15,8.58,8.58,0,0,1-1.21.59Z" style="fill:#a37de3"/></svg>