<svg xmlns="http://www.w3.org/2000/svg" viewBox="0 0 100 100"><defs><clipPath id="a"><path fill="none" d="M15.42 54.94h41.1v.9h-41.1z"/></clipPath></defs><path fill="none" d="M0 0h100v100H0z"/><path d="M74.67 64.52c-6.31 0-25.88-.27-37.75-1-22-1.38-40 1-28.17 3.66 3.3.74-6.21 5.25 17.09 6.22 20.45.85 41.3-1.09 51.39-1.93s14.75-2.3 16.91-3c1.86-.55 2.59-3.78-19.47-3.95z" fill="#e4efff"/><path fill="#edf4fc" d="M39.47 26.4h51.79v20.78H39.47z"/><path fill="#aebddc" d="M78.78 26.4h12.48v20.78H78.78z"/><path fill="#d9e1e4" d="M42.13 28.64h8.32v.34h-8.32zM42.13 27.91h2.69v.34h-2.69zM59.61 28.64h8.32v.34h-8.32z"/><path fill="#ffc40e" d="M59.61 40.78h.42v.34h-.42z"/><path fill="#d9e1e4" d="M59.61 41.6h7v.34h-7zM59.61 42.43h5.13v.34h-5.13z"/><path fill="#3bb6d5" d="M68.99 40.78h.42v.34h-.42z"/><path fill="#d9e1e4" d="M68.99 41.6h7v.34h-7zM68.99 42.43h5.13v.34h-5.13zM59.61 27.91h2.69v.34h-2.69z"/><path fill="#cfd9e8" d="M80.81 28.64h8.32v.34h-8.32zM80.81 27.91h2.69v.34h-2.69z"/><path d="M55.46 44.43h-13V29.69h13zm-13 0h13V29.7h-13z" fill="#bac2c6"/><path fill="#bac2c6" d="M42.46 42.31h12.99v.02H42.46zM42.46 40.21h12.99v.02H42.46zM42.46 38.1h12.99v.02H42.46zM42.46 36h12.99v.02H42.46zM42.46 33.89h12.99v.02H42.46zM42.46 31.79h12.99v.02H42.46z"/><path fill="#bac2c6" d="M51.11 29.69h.02v14.73h-.02zM46.78 29.69h.02v14.73h-.02zM41.778 30.356l.672-.671.014.014-.672.671zM41.79 32.468l.672-.671.014.014-.672.671zM41.785 34.563l.672-.671.014.014-.672.671zM41.78 36.668l.672-.672.014.015-.672.671zM41.782 38.78l.672-.672.014.015-.672.671zM41.787 40.875l.672-.672.014.015-.672.671zM41.782 42.98l.672-.672.014.014-.672.672zM41.19 43.05h-.07.09v.38h-.05zM41.63 43.19c0 .13 0 .2-.13.2s-.12-.07-.13-.2.06-.2.14-.2.12.07.12.2zm-.2 0c0 .1 0 .16.07.16s.08-.06.08-.16 0-.16-.08-.16-.07.06-.07.16zM41.08 41.29c.1-.09.14-.14.14-.2a.06.06 0 0 0-.07-.07.12.12 0 0 0-.09 0 .16.16 0 0 1 .11 0 .1.1 0 0 1 .11.11c0 .08-.05.13-.13.21h.17zM41.63 41.1c0 .13 0 .2-.13.2s-.12-.07-.13-.2.06-.2.14-.2.12.1.12.2zm-.2 0c0 .1 0 .16.07.16s.08-.06.08-.16 0-.16-.08-.16-.07.06-.07.16zM41.09 39.14a.19.19 0 0 0 .09 0 .07.07 0 0 0 .08-.08c0-.05 0-.07-.1-.07s.09 0 .09-.07 0 0-.07 0h-.07a.24.24 0 0 1 .1 0 .1.1 0 0 1 .11.1.09.09 0 0 1-.07.09c.05 0 .09 0 .09.09s0 .12-.14.12a.13.13 0 0 1-.1 0zM41.63 39c0 .13 0 .2-.13.2s-.12-.07-.13-.2.06-.2.14-.2.12.09.12.2zm-.2 0c0 .1 0 .16.07.16s.08-.06.08-.16 0-.16-.08-.16-.07.07-.07.16zM41.24 37.11V37h-.18l.17-.25h.06V37h.05-.05v.1zm0-.14v-.19.06l-.1.13h.13zM41.63 36.92c0 .13 0 .2-.13.2s-.12-.07-.13-.2.06-.19.14-.19.12.07.12.19zm-.2 0c0 .09 0 .15.07.15s.08-.06.08-.16 0-.15-.08-.15-.07.06-.07.17zM41.31 34.69h-.15v.1h.08a.11.11 0 0 1 .05.1.13.13 0 0 1-.14.13h-.09.08a.08.08 0 0 0 .09-.08s0-.09-.11-.09v-.19h.19zM41.63 34.83c0 .13 0 .2-.13.2s-.12-.07-.13-.19.06-.2.14-.2.12.07.12.19zm-.2 0c0 .1 0 .15.07.15s.08-.06.08-.16 0-.15-.08-.15-.07.06-.07.17zM41.3 32.59a.18.18 0 0 0-.14.14.11.11 0 0 1 .09 0c.07 0 .11 0 .11.12a.12.12 0 0 1-.12.13.14.14 0 0 1-.14-.16.24.24 0 0 1 .07-.17.23.23 0 0 1 .12-.06zm0 .22a.08.08 0 0 0-.08-.09.08.08 0 0 0-.07.05c0 .07 0 .11.09.11s.04-.01.04-.07zM41.63 32.74c0 .13 0 .2-.13.2s-.12-.07-.13-.19.06-.2.14-.2.12.07.12.19zm-.2 0c0 .1 0 .15.07.15s.08-.06.08-.16 0-.15-.08-.15-.07.06-.07.17zM41.33 30.47l-.17.35.16-.34h-.18zM41.63 30.65c0 .13 0 .2-.13.2s-.12-.07-.13-.19.06-.2.14-.2.12.07.12.19zm-.2 0c0 .1 0 .15.07.15s.08-.06.08-.15 0-.16-.08-.16-.07.06-.07.17zM43.83 45.2c.09-.1.14-.15.14-.2a.07.07 0 0 0-.08-.08.19.19 0 0 0-.08 0 .15.15 0 0 1 .1 0 .11.11 0 0 1 .12.11c0 .07-.05.13-.13.21h.17v.05zM44.38 45c0 .13-.05.2-.13.2s-.13-.07-.13-.19.06-.2.14-.2.12.07.12.19zm-.21 0c0 .1 0 .15.08.15s.08-.06.08-.16 0-.15-.08-.15-.08.06-.08.16zM44.54 44.86h-.07.09v.38h-.05zM45 44.82l-.17.35h-.05l.16-.34h-.18zM48.24 45.2c.1-.1.15-.15.15-.2a.07.07 0 0 0-.08-.08.19.19 0 0 0-.08 0 .21.21 0 0 1 .11 0 .11.11 0 0 1 .12.11c0 .07 0 .13-.13.21h.17v.05zM48.8 45c0 .13 0 .2-.13.2s-.13-.07-.13-.19.06-.2.13-.2.13.07.13.19zm-.21 0c0 .1 0 .15.08.15s.08-.06.08-.16 0-.15-.08-.15-.08.06-.08.16zM49 44.86h-.07.08v.38zM49.14 45.1a.11.11 0 0 1 .08-.1.11.11 0 0 1-.06-.09c0-.06.05-.1.12-.1a.1.1 0 0 1 .11.09.09.09 0 0 1-.07.09.11.11 0 0 1 .08.1.12.12 0 0 1-.13.11c-.08 0-.13-.04-.13-.1zm.21 0c0-.05 0-.07-.09-.09a.09.09 0 0 0-.06.08.07.07 0 0 0 .07.08.07.07 0 0 0 .08-.07zm-.14-.19s0 .06.07.07a.09.09 0 0 0 .06-.07s0-.06-.07-.06a.05.05 0 0 0-.06.06zM52.66 45.2c.1-.1.14-.15.14-.2a.07.07 0 0 0-.07-.08.12.12 0 0 0-.08 0 .18.18 0 0 1 .11 0 .11.11 0 0 1 .12.11c0 .07-.06.13-.14.21h.17v.05zM53.22 45c0 .13 0 .2-.14.2S53 45.13 53 45s0-.2.13-.2.09.08.09.2zM53 45c0 .1 0 .15.08.15s.07-.06.07-.16 0-.15-.07-.15-.08.06-.08.16zM53.38 44.86h-.06.08v.38zM53.6 45.16h.08a.19.19 0 0 0 .05-.1.12.12 0 0 1-.09 0 .12.12 0 0 1-.12-.12.13.13 0 0 1 .13-.13c.08 0 .13.06.13.16a.25.25 0 0 1-.07.18.16.16 0 0 1-.11.05zm0-.22a.07.07 0 0 0 .08.08.07.07 0 0 0 .07 0s0-.11-.08-.11a.08.08 0 0 0-.06.03z"/><path fill="#fff" d="M42.46 31.8h12.99v2.1H42.46zM42.46 36.01h12.99v2.1H42.46zM42.46 40.21h12.99v2.1H42.46z" opacity=".34"/><path fill="#ffc40e" d="M42.46 31.8h5.84v.34h-5.84z"/><path fill="#165670" d="M42.46 32.68h10.03v.34H42.46z"/><path fill="#3bb6d5" d="M42.46 33.57h3.57v.34h-3.57z"/><path fill="#ffc40e" d="M42.46 36.01H53v.34H42.46z"/><path fill="#165670" d="M42.46 36.89h4.33v.34h-4.33z"/><path fill="#3bb6d5" d="M42.46 37.77h8.66v.34h-8.66z"/><path fill="#ffc40e" d="M42.46 40.24h4.33v.34h-4.33z"/><path fill="#165670" d="M42.46 41.12h8.66v.34h-8.66z"/><path fill="#3bb6d5" d="M42.46 42.01h7.15v.34h-7.15z"/><path fill="#cfd9e8" d="M80.81 30.3h.44v.44h-.44zM82.07 30.3h.44v.44h-.44zM83.32 30.3h.44v.44h-.44z"/><path fill="#fff" d="M84.58 30.3h.44v.44h-.44zM85.84 30.3h.44v.44h-.44z"/><path fill="#cfd9e8" d="M87.1 30.3h.44v.44h-.44zM88.36 30.3h.44v.44h-.44z"/><path fill="#fff" d="M80.81 31.41h.44v.44h-.44zM82.07 31.41h.44v.44h-.44zM83.32 31.41h.44v.44h-.44z"/><path fill="#3bb6d5" d="M84.58 31.41h.44v.44h-.44z"/><path fill="#fff" d="M85.84 31.41h.44v.44h-.44z"/><path fill="#cfd9e8" d="M87.1 31.41h.44v.44h-.44zM88.36 31.41h.44v.44h-.44z"/><path fill="#fff" d="M80.81 32.52h.44v.44h-.44zM82.07 32.52h.44v.44h-.44zM83.32 32.52h.44v.44h-.44zM84.58 32.52h.44v.44h-.44z"/><path fill="#165670" d="M85.84 32.52h.44v.44h-.44z"/><path fill="#cfd9e8" d="M87.1 32.52h.44v.44h-.44zM88.36 32.52h.44v.44h-.44z"/><path fill="#fff" d="M80.81 33.63h.44v.44h-.44z"/><path fill="#3bb6d5" d="M82.07 33.63h.44v.44h-.44zM83.32 33.63h.44v.44h-.44z"/><path fill="#165670" d="M84.58 33.63h.44v.44h-.44z"/><path fill="#fff" d="M85.84 33.63h.44v.44h-.44z"/><path fill="#cfd9e8" d="M87.1 33.63h.44v.44h-.44zM88.36 33.63h.44v.44h-.44z"/><path fill="#fff" d="M80.81 34.74h.44v.44h-.44zM82.07 34.74h.44v.44h-.44zM83.32 34.74h.44v.44h-.44zM84.58 34.74h.44v.44h-.44zM85.84 34.74h.44v.44h-.44z"/><path fill="#cfd9e8" d="M87.1 34.74h.44v.44h-.44zM88.36 34.74h.44v.44h-.44z"/><path fill="#fece40" d="M80.81 35.85h.44v.44h-.44z"/><path fill="#fff" d="M82.07 35.85h.44v.44h-.44zM83.32 35.85h.44v.44h-.44zM84.58 35.85h.44v.44h-.44zM85.84 35.85h.44v.44h-.44z"/><path fill="#cfd9e8" d="M87.1 35.85h.44v.44h-.44zM88.36 35.85h.44v.44h-.44z"/><path fill="#bac2c6" d="M72.85 29.64h.02v8.06h-.02zM69.57 29.64h.02v8.06h-.02zM66.29 29.64h.02v8.06h-.02zM63 29.64h.02v8.06H63z"/><path fill="#fff" d="M66.29 29.64h6.57v8.06h-6.57z" opacity=".34"/><path d="M76.16 37.71H59.72v-8.08h16.44zm-16.43 0h16.41v-8H59.73z" fill="#bac2c6"/><path fill="#bac2c6" d="M59.73 36.35h16.42v.02H59.73zM59.73 35.01h16.42v.02H59.73zM59.73 33.66h16.42v.02H59.73zM59.73 32.32h16.42v.02H59.73zM59.73 30.98h16.42V31H59.73zM59.45 37.63q0 .18-.12.18c-.07 0-.12-.06-.12-.18s0-.18.12-.18.12.07.12.18zm-.19 0c0 .09 0 .15.07.15s.07-.06.07-.15 0-.14-.07-.14-.07.05-.07.14zM59.05 36.15h-.06.08v.35zM59.45 36.28q0 .18-.12.18c-.07 0-.12-.06-.12-.17s0-.19.12-.19.12.07.12.18zm-.19 0c0 .09 0 .14.07.14s.07-.06.07-.15 0-.14-.07-.14-.07.06-.07.16zM58.94 35.11c.09-.09.13-.13.13-.19s0-.06-.07-.06h-.07a.17.17 0 0 1 .1 0 .1.1 0 0 1 .11.1c0 .06 0 .11-.12.19h.16zM59.45 34.93c0 .12 0 .19-.12.19s-.12-.07-.12-.18 0-.18.12-.18.12.06.12.17zm-.19 0c0 .09 0 .14.07.14s.07-.06.07-.15 0-.14-.07-.14-.07.06-.07.16zM59 33.71h.08a.07.07 0 0 0 .08-.07s0-.07-.09-.07.08 0 .08-.06 0 0-.06 0h-.07a.15.15 0 0 1 .1 0 .09.09 0 0 1 .1.08.08.08 0 0 1-.07.08.09.09 0 0 1 .08.08c0 .06 0 .11-.13.11h-.09z"/><path d="M59.45 33.59c0 .11 0 .18-.12.18s-.12-.06-.12-.18 0-.18.12-.18.12.06.12.18zm-.19 0c0 .09 0 .14.07.14s.07 0 .07-.14 0-.14-.07-.14-.07.05-.07.14zM59.09 32.42v-.1h-.16l.15-.22h.05v.31zm0-.14v-.17l-.09.12h.12zM59.45 32.24q0 .18-.12.18c-.07 0-.12-.06-.12-.18s0-.18.12-.18.12.07.12.18zm-.19 0c0 .09 0 .15.07.15s.07-.06.07-.15 0-.14-.07-.14-.07.05-.07.14zM59.15 30.76H59v.09a.11.11 0 0 1 .08 0v.09a.12.12 0 0 1-.13.11h-.09L59 31a.08.08 0 0 0 .08-.08s0-.08-.1-.08v-.17h.17zM59.45 30.89q0 .18-.12.18c-.07 0-.12-.06-.12-.17s0-.19.12-.19.12.07.12.18zm-.19 0c0 .09 0 .14.07.14s.07-.06.07-.15 0-.14-.07-.14-.07.06-.07.16zM61.32 38.15h-.06.07v.33zM64.51 38.43c.08-.08.12-.12.12-.17a.05.05 0 0 0-.06-.06h-.07a.17.17 0 0 1 .1 0 .09.09 0 0 1 .1.09c0 .06 0 .11-.12.18h.14zM67.8 38.38h.07c.06 0 .08 0 .08-.06s0-.07-.09-.07.08 0 .08-.06a.06.06 0 0 0-.06 0 .15.15 0 0 0-.07 0h.09a.08.08 0 0 1 .09.08.07.07 0 0 1-.06.07.09.09 0 0 1 .07.09.11.11 0 0 1-.12.1h-.08zM71.21 38.43v-.09h-.15l.15-.21v.3zm0-.12v-.16.05l-.08.11h.11zM74.55 38.14h-.12v.09h.07a.09.09 0 0 1 0 .09.11.11 0 0 1-.12.11h-.08.07a.08.08 0 0 0 .08-.07s0-.07-.1-.07v-.16h.15z" fill="#bac2c6"/><path fill="#ffc40e" d="M59.74 37.8l-.03-.09 3.28-1.34 3.29-1.44 3.29-1.33h3.31l3.25-1.31.04.09-3.27 1.32h-3.31l-3.28 1.32-3.28 1.44-3.29 1.34z"/><path fill="#3bb6d5" d="M66.29 36.41l-3.28-1.34-3.27 1.33-.03-.09 3.3-1.35 3.29 1.35 3.25-1.24 3.28-4.04.01-.01 3.29-1.42.04.09-3.28 1.42-3.28 4.04-.01.01-3.31 1.25z"/><path d="M73.05 31.07a.19.19 0 0 1-.19.19.19.19 0 1 1 0-.38.19.19 0 0 1 .19.19z" fill="#fff"/><path d="M72.86 31.31a.24.24 0 0 1 0-.48.24.24 0 0 1 0 .48zm0-.38a.14.14 0 1 0 0 .28.14.14 0 1 0 0-.28z" fill="#3bb6d5"/><path d="M69.77 35.11a.19.19 0 0 1-.19.19.18.18 0 0 1-.19-.19.19.19 0 0 1 .19-.19.2.2 0 0 1 .19.19z" fill="#fff"/><path d="M69.58 35.35a.24.24 0 1 1 .24-.24.24.24 0 0 1-.24.24zm0-.38a.14.14 0 0 0 0 .28.14.14 0 0 0 0-.28z" fill="#3bb6d5"/><path d="M66.48 36.36a.19.19 0 1 1-.37 0 .18.18 0 0 1 .18-.19.18.18 0 0 1 .19.19z" fill="#fff"/><path d="M66.29 36.6a.24.24 0 1 1 .24-.24.23.23 0 0 1-.24.24zm0-.38a.14.14 0 0 0 0 .28.14.14 0 0 0 0-.28z" fill="#3bb6d5"/><path d="M63.2 35a.19.19 0 1 1-.19-.19.19.19 0 0 1 .19.19z" fill="#fff"/><path d="M63 35.25a.24.24 0 1 1 .24-.23.23.23 0 0 1-.24.23zm0-.37a.14.14 0 0 0-.14.14.14.14 0 0 0 .28 0 .14.14 0 0 0-.14-.14z" fill="#3bb6d5"/><path d="M69.69 33.67a.18.18 0 0 1-.19.18.18.18 0 0 1-.18-.18.18.18 0 0 1 .18-.19.18.18 0 0 1 .19.19z" fill="#fff"/><path d="M69.5 33.9a.23.23 0 0 1-.23-.23.23.23 0 0 1 .23-.24.24.24 0 1 1 0 .47zm0-.37a.14.14 0 0 0-.14.14.14.14 0 0 0 .14.13.13.13 0 0 0 .14-.13.14.14 0 0 0-.14-.14z" fill="#ffc40e"/><path d="M73.05 33.67a.19.19 0 1 1-.19-.19.19.19 0 0 1 .19.19z" fill="#fff"/><path d="M72.86 33.9a.24.24 0 1 1 .24-.23.23.23 0 0 1-.24.23zm0-.37a.14.14 0 0 0-.14.14.14.14 0 0 0 .28 0 .14.14 0 0 0-.14-.14z" fill="#ffc40e"/><path d="M75.2 37.28l.13-1.68a1.27 1.27 0 0 1 1.07-.51 1.71 1.71 0 0 1 1.26 2c-.08 1-.78 1.83-1.56 1.77a1.46 1.46 0 0 1-1.17-1.12.61.61 0 0 0 .27-.46z" fill="#163f59"/><path d="M78.32 38.05c0 .26-.22.53-.59.6l-.86.15c-.37.06-.71-.1-.76-.36L75.68 36c0-.26.22-.53.6-.6l.85-.15a.62.62 0 0 1 .76.36z" fill="#163f59"/><path d="M76.15 39.24c-.5.25-.75.2-.35.34a4.81 4.81 0 0 0 2.67-.58s-1-.13-1-.16a3 3 0 0 1-.05-1.28.07.07 0 0 0-.07-.06l-.54.05s-.38.1-.29.27c.11.47.15 1.18-.37 1.42z" fill="#e9d6b8"/><path d="M75.89 37.84v-.11a.14.14 0 0 1 0-.06v-.15a4.37 4.37 0 0 1 .08-1.39.13.13 0 0 1 .13-.08c.42 0 1.7-.13 1.44 1.06a1.25 1.25 0 0 1 0 .15v.27c-.15.56-.44 1-.78 1a.69.69 0 0 1-.53-.36z" fill="#e9d6b8"/><path d="M71.28 39.35h-.13a1.37 1.37 0 0 1-.12-.45v-.59a.58.58 0 0 1 .1.34 2.3 2.3 0 0 0 .15.7z" fill="#e2c59c"/><path d="M71.26 39.29a.7.7 0 0 1 0-.61.44.44 0 0 0 0-.36 3.12 3.12 0 0 0-.17.51.69.69 0 0 0 0 .32c.03.32.41.55.17.14z" fill="#e2c59c"/><path d="M76.13 66.53a4.11 4.11 0 0 1 .71-.18c.31-.06.55-.06.66-.17s.06-.8.15-.78c.44.1.6 1.14.35 1.27a8.78 8.78 0 0 1-1.81.07c-.12-.01-.1-.24-.06-.21zM79.29 55l-.18-.76c-.21-.37-.4-.56-.53-.54-.53.09-1 2.13.67 7.06.09.25 1.19 4.53 1.2 4.43.21-1.28-.26-6.39-1.16-10.19z" fill="#e9d6b8"/><path d="M78.75 47.52c-.42-.07-.42.17-.71.78a8.82 8.82 0 0 0-.61 4.76A14.48 14.48 0 0 0 79 58.29a14.39 14.39 0 0 0 .74-3.59c.47-4.21.26-6.97-.99-7.18z" fill="#e9d6b8"/><path d="M78.33 52.35a6.12 6.12 0 0 1 1.67-.19c0 .71-.1 1.49-.19 2.33a1.63 1.63 0 0 0-2.09 0c-.09-.47-.18-1-.24-1.46 0-.15 0-.29-.05-.43a9.5 9.5 0 0 1 .9-.25z" fill="#e2c59c"/><path d="M81.16 41.92C80.54 42.48 80 45 80 45s.08 1 1.45-2.19c.39-.92-.14-1.03-.29-.89zM74.82 41.09a6.82 6.82 0 0 0-1 2.39 1.46 1.46 0 0 0-.07.76s.22 1 1.25-1.83c.21-.71 0-1.41-.18-1.32z" fill="#e9d6b8"/><path d="M74.08 44.17C74 43.15 72 40.59 72 40.59s-1-.75 1 3.08c.61 1.15 1.1.75 1.08.5z" fill="#e9d6b8"/><path d="M71.26 39.09h-.08v.32a3.42 3.42 0 0 0 .31.72 11.81 11.81 0 0 1 .45 1.11c.06.09.56.06.56.06s-.46-.79-.61-1.11a6.46 6.46 0 0 1-.27-1 2.25 2.25 0 0 1-.13-.34s-.11.07 0 .43c0 .09-.09.08-.09.08zM76.21 49.18a10.18 10.18 0 0 1 .86 4.4 15.8 15.8 0 0 1-.75 5 22 22 0 0 1-.85-3.29c-.87-3.85.47-6.65.74-6.11z" fill="#e9d6b8"/><path d="M75.35 53.29a3 3 0 0 1 .36-2.23c.1-.12.15-.05.33 0a1.76 1.76 0 0 1 .95 1v2.13a2.87 2.87 0 0 0-1.64-.9z" fill="#e2c59c"/><path d="M76.32 55.36c.21-.1.58.15.83.66a10.61 10.61 0 0 1 .76 4.07c.09 1.8.09 3.14.07 4.24s.43 2.62-.39 2.48a14.16 14.16 0 0 0-.59-4.9c-1.51-3.98-1.3-6.23-.68-6.55z" fill="#e9d6b8"/><path fill="#3bb6d5" d="M75.8 42.77l3.18-.23.16-3.67-3.76.6.42 3.3z"/><path d="M80.4 53.49L74.94 53a57.16 57.16 0 0 0 .85-10.31l3.21-.22c-.16 1.36 2.7 3.62 1.4 11.02zM80.76 42.45L79 40.27l-.45-1a.43.43 0 0 1 .18-.24h.06a.51.51 0 0 1 .71.12l2 2.79zM74.58 43.74l1-2.4.34-1.66a.53.53 0 0 0-.25-.17h-.07a.51.51 0 0 0-.64.34l-1.11 3.3z" fill="#3bb6d5"/><path d="M80 45.73a.11.11 0 0 0 .14.07h.14a.11.11 0 0 0 .07-.14l-.22-.66a.12.12 0 0 0-.14-.08h-.14a.1.1 0 0 0-.07.13z" fill="#e9d6b8"/><path d="M80.51 65.61c.33.69.74 1.18.92 1.09s.06-.71-.26-1.4-.74-1.17-.92-1.08-.07.71.26 1.39z" fill="#3bb6d5"/><path d="M80.41 65.21c.17.54.53.92.71.84s.12-.55-.14-1a2.6 2.6 0 0 1-.48-1.25c-.03-.46-.71-.6-.09 1.41zM77.94 65.94z" fill="#e9d6b8"/><path d="M76.43 66.44c-.09.34 1 .2 1.24.11a4 4 0 0 1 .43-.11c0 .19.09.44-.21.44H76c-1.52.02.43-.45.43-.44z" fill="#3bb6d5"/><path d="M71.26 39.48a.88.88 0 0 1-.07-.41 5.81 5.81 0 0 1 .22-.54.55.55 0 0 1 0 .35 2 2 0 0 0-.15.6z" fill="#e9d6b8"/><path d="M71.39 39.41h.1c.02 0 0 .05 0 .07s.05.38.05.38a2.28 2.28 0 0 0-.12-.29s0-.14-.08-.22v-.05z" fill="#e2c59c"/><path d="M71.48 39.33c-.09-.24-.07-.35 0-.4a2 2 0 0 0 .1.28 2.33 2.33 0 0 1 .07.25.44.44 0 0 0-.1.25s-.09-.17-.11-.3.06-.01.04-.08z" fill="#e2c59c"/><path d="M76.66 37.46a.61.61 0 0 0 .26-.45l.14-1.69a.62.62 0 0 1 .76.36l.43 2.42a.54.54 0 0 1-.36.52h-.13a1.43 1.43 0 0 1-1.1-1.16z" fill="#163f59"/><path d="M19.23 62.16a1.44 1.44 0 0 1-.93-.34 2.51 2.51 0 0 1-.6-2.14 7.82 7.82 0 0 1 .6-2.12 8.15 8.15 0 0 0 .75-4.49l.53-.08a8.83 8.83 0 0 1-.78 4.77 7 7 0 0 0-.56 2 2 2 0 0 0 .41 1.7.83.83 0 0 0 .71.2l.11.53a1.5 1.5 0 0 1-.24-.03z" fill="#367082"/><path d="M23.34 66.41l.52.8-4.38 1.4s-.3-.28.78-.84c1.25-.66 3.08-1.36 3.08-1.36z" fill="#88bdda"/><path d="M24.12 66.41l-.52.8 4.4 1.4s.3-.28-.78-.84c-1.22-.66-3.1-1.36-3.1-1.36z" fill="#88bdda"/><path fill="#88bdda" d="M23.27 64.04h.92v3.26h-.92z"/><path d="M23.28 66.58l.45.76L20 68.68s-.26-.27.67-.81 2.61-1.29 2.61-1.29zM24.18 66.58l-.45.76 3.76 1.34s.25-.27-.67-.81c-1.08-.62-2.64-1.29-2.64-1.29z" fill="#91e2f6"/><path d="M20.4 69a.32.32 0 0 1-.32.32.32.32 0 0 1-.32-.32.33.33 0 0 1 .32-.32.32.32 0 0 1 .32.32zM27.67 69a.32.32 0 1 1-.67 0 .32.32 0 1 1 .63 0z" fill="#001f46"/><path d="M19.63 69a.32.32 0 0 1-.32.32A.32.32 0 0 1 19 69a.33.33 0 0 1 .32-.32.32.32 0 0 1 .31.32zM28.44 69a.32.32 0 1 1-.63 0 .32.32 0 1 1 .63 0zM23.38 62.85h.67v1.17h-.67z" fill="#367082"/><path d="M24.56 62.23a.66.66 0 0 1-.66.65h-.37a.65.65 0 0 1-.65-.65.66.66 0 0 1 .65-.66h.37a.67.67 0 0 1 .66.66z" fill="#367082"/><path d="M28.7 61.63v-.64A.88.88 0 0 0 28 60h-8.53a.88.88 0 0 0-.76 1v.64z" fill="#3dc7c9"/><path d="M18.63 61.89c0 .16.1.29.21.29h9.75c.12 0 .21-.13.21-.29 0-.16-.09-.29-.21-.29h-9.75c-.11 0-.21.13-.21.29z" fill="#367082"/><path d="M19.11 56.73h1.77c1.45 0 2.71-.26 2.78-.62a12.43 12.43 0 0 0 0-4.51c-.06-.36-1.34-.63-2.83-.61h-1.8a12.3 12.3 0 0 1 .08 5.74z" fill="#3dc7c9"/><path d="M18.91 51.07c-.17 0-.28.08-.26.17a12 12 0 0 1 .05 5.31c0 .1.09.18.25.18s.31-.07.33-.17a12.09 12.09 0 0 0 0-5.32c0-.1-.17-.17-.33-.17z" fill="#367082"/><path d="M18.84 56.72a2.47 2.47 0 0 0 .39 0 .77.77 0 0 0 .7-.63 12.05 12.05 0 0 0 0-4.44.76.76 0 0 0-.72-.63h-.39a12.12 12.12 0 0 1 .02 5.7z" fill="#33a8b5"/><path d="M21.68 43.43H21v.37a.89.89 0 0 1 .68-.37z" fill="#dce5ea"/><path d="M23.63 45.65s-1.24.44-.05 4 2 3.13 2 3.13l1-.1 1.89-2.24-1-.89-.21.08a.5.5 0 0 1-.29-.35c0-.25-.44-.86-1.25-2.82a1.72 1.72 0 0 0-2.09-.81z" fill="#aebddc"/><path d="M28.11 50.62A43.5 43.5 0 0 0 31.43 54c.65.56 1.17.37.39.63a17.08 17.08 0 0 1-4.58-1.79c-1-.57-.71-1.26-.14-1.63s1.01-.59 1.01-.59z" fill="#e2c59c"/><path d="M26.07 49.91l.62-.4.26-.14a.53.53 0 0 0 .27.26l-.51.22-.57.36-.58.7z" fill="#cfd9e8"/><path d="M25.93 55.87l-4.65-.1s-1.82-4.77-1.93-6.46c-.06-1 .53-3.12 1.52-3.61a5.24 5.24 0 0 1 1.25-.4 7.83 7.83 0 0 1 3.27.42s1.89.99.54 10.15z" fill="#cfd9e8"/><path d="M33.57 69.59s-.45.7-.68.27c-.7-1.28-1.32-5.32-1.36-7a76.99 76.99 0 0 0-.15-3.56l2.22-.81z" fill="#163f59"/><path d="M25.76 55.83l7.85 2.68-2.06 1.15s-8.09 1.42-8.24-1.58c-.12-2.53 2.45-2.25 2.45-2.25z" fill="#163f59"/><path d="M30.78 69.66s-.41.37-.64-.06a20.05 20.05 0 0 1-1.87-6.34 16.12 16.12 0 0 1 .32-3.75l2.27-.79z" fill="#194866"/><path d="M23.33 55.91l7.48 2.83-2 1.11s-7.6 1.42-7.74-1.58 2.26-2.36 2.26-2.36z" fill="#194866"/><path d="M20.88 58.44a2.37 2.37 0 0 0 .34 1.17c.71.86 2.38.57 3.72.57a5.84 5.84 0 0 0 .45-1l.61-3.46-4.7.08a25.15 25.15 0 0 0-.42 2.64z" fill="#194866"/><path d="M28.51 53.73l1.72-.31s.27 0 .28.16 0 1 0 1l-.31-.19-.44.27-.54-.66a1.43 1.43 0 0 1-.49 0c-.07 0-.22-.27-.22-.27z" fill="#e9d6b8"/><path d="M24.29 53.25l4.55.5A12.55 12.55 0 0 1 25.28 55a10.6 10.6 0 0 1-2.16-.25z" fill="#e9d6b8"/><path d="M22.05 48.53l2.27 4.3-.13.35.35.06-1.06 1.69-1.67-.38-2-4.8a3.32 3.32 0 0 1 .74-3.37c.35-.38 1.3 1.8 1.5 2.15z" fill="#aebddc"/><path d="M22.63 54.3s1.07-.82 1.62-1.27l-.06.15.35.06-.37.59-.64.75-.37-.14.14-.26z" fill="#cfd9e8"/><path d="M31.51 70.34a.5.5 0 0 1 0 .24 3.45 3.45 0 0 1-.93 0 .84.84 0 0 1-.25-.16s0-.08-.06-.09 0 0-.06 0a.36.36 0 0 1-.11-.1 1.14 1.14 0 0 1 0-.61s.6-.28.71-.09a4.38 4.38 0 0 0 .7.81z" fill="#194866"/><path d="M32.81 69.79l.1.64h.53s0-.09.08-.09.08.09.13.09H35v-.18a.4.4 0 0 0-.16-.09c-.28-.09-1.11-.3-1.29-.59s-.74.22-.74.22z" fill="#163f59"/><path fill="#aebddc" d="M21.79 45.434l.33-.75 1.062.466-.33.75z"/><path d="M24 42.17a.57.57 0 0 1-.47.65l-2.09.33a.57.57 0 0 1-.65-.47.56.56 0 0 1 .47-.64l2.1-.33a.56.56 0 0 1 .64.46z" fill="#163f59"/><path d="M23.73 43.2a1 1 0 0 1-.87 1.19l-1.09.17a1 1 0 0 1-1.19-.87 1 1 0 0 1 .87-1.18l1.09-.18a1 1 0 0 1 1.19.87z" fill="#163f59"/><path d="M24.81 44.71l-.5-3.21c-.08-.51-.42.07-.93.15l-.49.08a.94.94 0 0 0-.78 1.07l.36 2.28z" fill="#e9d6b8"/><path d="M22.63 43.45a.42.42 0 0 1-.34.47.4.4 0 0 1-.47-.34.4.4 0 0 1 .34-.47.41.41 0 0 1 .47.34zM24.39 43.75a.23.23 0 0 0 .26.2h.19a.23.23 0 0 0 .19-.27s-.61-1.16-.73-1.14a.42.42 0 0 0-.07.26z" fill="#e9d6b8"/><path d="M23.49 44.74c-.93.15-1.07-.12-1.15-.44a6 6 0 0 0-.07 1.11v.29a1.2 1.2 0 0 0 1.46.82l1.3-.2-.23-1.44-.06-.34z" fill="#163f59"/><path d="M24.69 43.94l-.74.12a.62.62 0 0 0-.52.71.53.53 0 0 0 .05.15l1.33-.21z" fill="#163f59"/><path d="M23.84 44.74v.21A.1.1 0 0 0 24 45l.6-.09a.12.12 0 0 0 .09-.12v-.21z" fill="#e9d6b8"/><path d="M23.9 41l-1.9.3a.37.37 0 0 0-.31.43l.11.74 2.27-.36z" fill="#163f59"/><path d="M25.16 41.35a.57.57 0 0 1-.47.65l-1.28.2a.57.57 0 0 1-.65-.47.57.57 0 0 1 .47-.65l1.28-.2a.57.57 0 0 1 .65.47zM21.987 42.146l.514-.081.213 1.353-.513.081z" fill="#163f59"/><path fill="#163f59" d="M22.052 41.537l1.512-.238.25 1.59-1.511.238z"/><path d="M22.66 43.1a.78.78 0 0 1 .64-.89l.4-.06a.68.68 0 0 1 .76.66.77.77 0 0 1-.64.89h-.28a.76.76 0 0 1-.88-.64z" fill="#e9d6b8"/><path d="M28.58 54.67v-.22h9.22v.22a.61.61 0 0 1-.57.23h-8a.61.61 0 0 1-.57-.23z" fill="#b4c0c7"/><path d="M30.8 54.71a.53.53 0 0 1-.14.12h-1.4a.61.61 0 0 1-.55-.19v-.11h2.09z" fill="#d6e3eb"/><path fill="#8599a4" d="M32.04 54.49h4.61v.16h-4.61z"/><path d="M30.85 54.43L32 49.9a.32.32 0 0 1 .28-.22h6.47a.16.16 0 0 1 .16.22l-1.2 4.53z" fill="#d7dfe2"/><path d="M34.51 52.06a.3.3 0 0 0 .31.41.59.59 0 0 0 .53-.41.31.31 0 0 0-.31-.42.57.57 0 0 0-.53.42z" fill="#b4c0c7"/><path d="M71.18 62.38a1.22 1.22 0 0 0 .84-.3 2.26 2.26 0 0 0 .55-1.94 6.6 6.6 0 0 0-.57-1.91 7.45 7.45 0 0 1-.67-4.07l-.48-.08a8 8 0 0 0 .7 4.32 6 6 0 0 1 .51 1.77 1.9 1.9 0 0 1-.37 1.54.8.8 0 0 1-.64.18l-.1.48z" fill="#367082"/><path d="M67.46 66.23L67 67l4 1.27s.27-.25-.71-.76-2.83-1.28-2.83-1.28z" fill="#88bdda"/><path d="M66.76 66.23l.47.72-4 1.27S63 68 64 67.46c1.11-.59 2.76-1.23 2.76-1.23z" fill="#88bdda"/><path fill="#88bdda" d="M66.7 64.09h.83v2.95h-.83z"/><path d="M67.52 66.38l-.41.69 3.4 1.22s.23-.25-.61-.73a26.53 26.53 0 0 0-2.38-1.18zM66.71 66.38l.4.69-3.4 1.22s-.22-.25.61-.73a26.12 26.12 0 0 1 2.39-1.18z" fill="#91e2f6"/><path d="M70.13 68.56a.28.28 0 0 0 .28.29.29.29 0 1 0 0-.58.28.28 0 0 0-.28.29zM63.54 68.56a.29.29 0 1 0 .29-.29.29.29 0 0 0-.29.29z" fill="#001f46"/><path d="M70.82 68.56a.29.29 0 1 0 .29-.29.29.29 0 0 0-.29.29zM62.85 68.56a.28.28 0 0 0 .28.29.29.29 0 1 0 0-.58.28.28 0 0 0-.28.29zM66.82 63.01h.61v1.06h-.61z" fill="#367082"/><path d="M66.36 62.45A.6.6 0 0 0 67 63h.33a.59.59 0 0 0 .59-.59.58.58 0 0 0-.59-.59H67a.59.59 0 0 0-.6.59z" fill="#367082"/><path d="M62.61 61.91v-.59a.79.79 0 0 1 .69-.86H71a.79.79 0 0 1 .69.86v.59z" fill="#3dc7c9"/><path d="M71.72 62.14c0 .15-.08.26-.19.26h-8.82c-.1 0-.19-.11-.19-.26 0-.15.09-.26.19-.26h8.82c.11 0 .19.11.19.26z" fill="#367082"/><path d="M71.29 57.47h-1.6c-1.32 0-2.45-.23-2.51-.56a11.19 11.19 0 0 1 0-4.08c.06-.33 1.21-.57 2.56-.56h1.63a11.21 11.21 0 0 0-.08 5.2z" fill="#3dc7c9"/><path d="M71.48 52.35c.14 0 .25.07.23.16a11 11 0 0 0 0 4.8c0 .09-.08.16-.22.16-.15 0-.28-.07-.3-.15a11.19 11.19 0 0 1 0-4.82c0-.08.16-.15.31-.15z" fill="#367082"/><path d="M71.53 57.47h-.34a.7.7 0 0 1-.64-.57 11.09 11.09 0 0 1 0-4 .71.71 0 0 1 .65-.57h.35a11.21 11.21 0 0 0-.02 5.14z" fill="#33a8b5"/><path d="M63.54 53.62s0 .34-1.64.34a30.69 30.69 0 0 1-4-.4l3.76-.35s1.42-.07 1.88.41z" fill="#e2c59c"/><path d="M59.16 53.68a2.66 2.66 0 0 0-1.39.55 6.82 6.82 0 0 0-.61.32c.16-.33.41-.35.54-.46s.09-.06-.19-.07-.42.28-.62.44a.68.68 0 0 1-.27.15 3.16 3.16 0 0 1 .44-.52 4.08 4.08 0 0 1 .76-.56 3.22 3.22 0 0 1 1-.07c.47.05.9.2.34.22z" fill="#e2c59c"/><path d="M57.86 53.55a3.75 3.75 0 0 0-.69.25c-.07.05-.36.38-.36.38a.76.76 0 0 0 .35-.17 6.66 6.66 0 0 1 .7-.46z" fill="#e2c59c"/><path d="M62.8 52.94s1.5 0 1.43.93a.7.7 0 0 1-.83.68c-.84 0-1.8-.13-1.8-.13l-.47-1.37z" fill="#b0bfde"/><path d="M63.12 53.05l1.31-4.62s.19-.68.55-.57c.53.17.29.72.26 1a10.84 10.84 0 0 1-.42 2.57c-.26 1-.47 2.14-.71 2.79-.16.46-.48-.17-.94-.34-.85-.25-.05-.83-.05-.83z" fill="#b0bfde"/><path d="M65.66 46.93a1.91 1.91 0 1 0 1.46-2.24 1.89 1.89 0 0 0-1.46 2.24z" fill="#194866"/><path d="M63.91 45.9a1.44 1.44 0 0 0 1.71 1.1l.2-.75a1.44 1.44 0 0 0 1.09-1.71l-.12-.54a1.43 1.43 0 0 0-1.71-1.08l-.35.08a1.43 1.43 0 0 0-1.09 1.71z" fill="#194866"/><path d="M64 43.72a3.43 3.43 0 0 0 .13.38 1.89 1.89 0 0 0 1.65 1.38 4.34 4.34 0 0 0 .45 1 2.15 2.15 0 0 0 .69.61c.24.61-2.18 2.63-2.29 2.58s.18-1.57.57-2a1.35 1.35 0 0 0 .38-.6.87.87 0 0 0-.38-.84 1.22 1.22 0 0 0-.91-.2.19.19 0 0 1-.13 0 1.45 1.45 0 0 1-.11-.29l-.26-1.15a1 1 0 0 1 .21-.87z" fill="#e9d6b8"/><path d="M66.52 56.59a4.79 4.79 0 0 1-.8.61 2.26 2.26 0 0 1-.89-.21s.18-2.92.12-4.07-.34-1.49-.31-1.85c0-.57-.41-.86-.28-1.29a14 14 0 0 1 .51-1.78c.2 1.85.91.42 1 .2s.65 8.39.65 8.39z" fill="#fece40"/><path d="M65.22 47.5s-.82.61-.81.88a6.5 6.5 0 0 0-.25 2.34A17.42 17.42 0 0 1 64.4 54c0 .9-.46 1.68-.47 2.78 0 .87.18 1 .18 1a.73.73 0 0 0 .71-.16c.32-.29.26-3.26.22-4s-.29-2.51-.34-3a5.09 5.09 0 0 1 .07-1.45 6.21 6.21 0 0 1 .34-1.25s.23-.21.24-.24-.06-.25-.13-.18z" fill="#d1dbea"/><path d="M65.44 47.2s.17 0 0 .16a.37.37 0 0 0-.08.2s-.07-.08-.19 0a3 3 0 0 1-.26.22s.11-.29.13-.31z" fill="#b0bfde"/><path d="M66.21 49.47a2 2 0 1 0 1.51-2.34 2 2 0 0 0-1.51 2.34z" fill="#194866"/><path fill="#e9d6b8" d="M62.11 66.56l.37 2.86-1.61.74-.89.19 1.58-1.19-.52-2.58 1.07-.02z"/><path d="M62.58 69.85l-.34.09-.24-.21-1.29.62-1.14.26a.2.2 0 0 1 0-.13 5.17 5.17 0 0 1 .94-.59s0 .27.13.28a9.15 9.15 0 0 0 1.36-.64c.4-.24.47-.39.5-.37s.08.69.08.69z" fill="#161711"/><path fill="#e9d6b8" d="M58.22 62.59l-1.28 2.43-1.77-.08-.88-.25 1.95-.32 1.07-2.08.91.3z"/><path d="M56.84 65.45l-.36-.08-.11-.29h-1.58l-.95-.21a.8.8 0 0 1 .18-.15 5 5 0 0 1 1-.13s-.08.21 0 .26a8 8 0 0 0 1.46.08c.46 0 .59-.13.61-.1s-.25.62-.25.62z" fill="#161711"/><path d="M67.57 55.31l-1 .41L66.2 57l-6.14-1s-.63-.19-1 .8c-.56 1.41-2 5.78-2 5.78l.92.95 2.86-4.94s5.87 2.76 7.81 2.16c.74-.23 1.31-1.54 1.2-2.86a16.55 16.55 0 0 0-.29-2z" fill="#194866"/><path d="M66.74 60.67L62 60.33l.4 7.25h-1.38l-1-8.48s.27-1.27 1.17-1.08 3.09 1.9 5.55 2.65z" fill="#163f59"/><path d="M66.14 57.15S66 54.2 66 52.8s-.07-4.1-.09-4.43a4.2 4.2 0 0 1 .07-.82s.43-.72.9-.66a5.25 5.25 0 0 1 1.46.91c.4.26.35 5.19.37 5.44a8.41 8.41 0 0 0 1 2.64A4.85 4.85 0 0 1 70 57.3a12.51 12.51 0 0 0-3.86-.15z" fill="#d1dbea"/><path fill="#b0bfde" d="M66.68 46.66l-.33.33-.48.51.24.58.84-1.18-.27-.24z"/><path d="M67.33 54.37s0 .36-2 .14a39 39 0 0 1-4.71-1l4.49.12s1.73.15 2.22.74z" fill="#e9d6b8"/><path d="M62.13 53.85a3.46 3.46 0 0 0-1.72.41 4.79 4.79 0 0 0-.75.27c.23-.34.53-.33.68-.43s.12-.05-.21-.1-.53.24-.78.39a.78.78 0 0 1-.35.13 3.23 3.23 0 0 1 .59-.5 4.6 4.6 0 0 1 1-.51 4.06 4.06 0 0 1 1.25.07c.46.1.95.33.29.27z" fill="#e9d6b8"/><path d="M60.61 53.54a5.73 5.73 0 0 0-.85.17l-.48.37a1 1 0 0 0 .43-.13 7.45 7.45 0 0 1 .9-.41z" fill="#e9d6b8"/><path d="M66.53 53.53l.22-4.53s.24-.95.6-1.17 1 .22 1 .22.3.71.1 4.08c-.13 2.25-.34 3.41-1.41 3.25S64.93 55 64.93 55l-.4-1.54z" fill="#b0bfde"/><path d="M62.7 54.67v-.23h-9.37v.23a.61.61 0 0 0 .58.23h8.16a.61.61 0 0 0 .58-.23z" fill="#d0dee6"/><path d="M60.44 54.71a.38.38 0 0 0 .14.11H62a.63.63 0 0 0 .56-.19v-.11h-2.12zM54.49 54.49h4.68v.16h-4.68z" fill="#b6c2c9"/><path d="M60.39 54.43l-1.22-4.61a.31.31 0 0 0-.28-.22h-6.57a.16.16 0 0 0-.16.22l1.21 4.61z" fill="#f1f0f6"/><path d="M56.67 52a.32.32 0 0 1-.32.43.58.58 0 0 1-.53-.43.31.31 0 0 1 .31-.42.59.59 0 0 1 .54.42z" fill="#b6c2c9"/><path fill="#acd5f4" d="M26.01 70.76h.96l-1.58-15.33H24l2.01 15.33z"/><path fill="#86bbd8" d="M24.09 56.14l1.86 4.73-.52-5.09-.04-.35h-1.21l-.09.71z"/><path fill="#acd5f4" d="M15.95 70.76h-.96l1.58-15.33h1.39l-2.01 15.33z"/><path fill="#86bbd8" d="M17.87 56.14l-.61 4.64-.73-5 .04-.35h1.21l.09.71z"/><path fill="#acd5f4" d="M56.76 70.76h-.96l1.59-15.33h1.39l-2.02 15.33z"/><path fill="#86bbd8" d="M58.68 56.14l-.61 4.64-.72-5 .04-.35h1.21l.08.71z"/><path fill="#acd5f4" d="M66.83 70.76h.96l-1.58-15.33h-1.39l2.01 15.33z"/><path fill="#86bbd8" d="M64.91 56.14l1.86 4.73-.53-5.09-.03-.35h-1.22l-.08.71z"/><path fill="#367082" d="M38.09 54.94h29.46v.9H38.09z"/><g clip-path="url(#a)"><path fill="#5dcfca" d="M15.42 54.94h41.1v.9h-41.1z"/><path d="M54 54.87h-2.07v-.25l-.15.42c-.1.28-.21.56-.32.84-.05.13-.11.27-.16.41v-.39H15.35v-1z" fill="#5dcfca"/><path d="M53.68 54.87h-2.06v-.36l-.15.42c-.1.27-.2.55-.31.83s-.11.27-.17.41v-.27H15.35v-1z" fill="#5ecfca"/><path d="M53.35 54.87h-2.18v-.06c-.1.28-.21.55-.32.83s-.1.27-.16.4v-.14H15.35v-1z" fill="#5fd0cb"/><path d="M53 54.87h-2.14v-.17c-.2.55-.41 1.09-.64 1.62v-.42H15.35v-1z" fill="#60d0cb"/><path d="M52.7 54.87h-2.15v-.28c-.2.54-.41 1.08-.63 1.6v-.29H15.35v-1z" fill="#61d0cb"/><path d="M52.37 54.87h-2.12v-.39q-.3.8-.63 1.59v-.17H15.35v-1z" fill="#62d1cc"/><path d="M52 54.87h-2.21v-.11l-.15.4-.32.78h-34v-1z" fill="#63d1cc"/><path d="M51.72 54.87h-2.23v-.22c-.05.13-.1.26-.16.39s-.2.52-.31.77l-.17.39v-.3h-33.5v-1z" fill="#64d2cc"/><path d="M51.39 54.87h-2.21v-.34l-.15.39c-.1.26-.21.51-.31.77s-.11.25-.17.38v-.17h-33.2v-1z" fill="#65d2cd"/><path d="M51.06 54.87h-2.33v-.07l-.31.76-.33.75v-.41H15.35v-1z" fill="#66d2cd"/><path d="M50.74 54.87h-2.32v-.19l-.3.75-.33.75v-.28H15.35v-1z" fill="#67d3ce"/><path d="M50.41 54.87h-2.29v-.31c-.1.25-.2.5-.31.74s-.21.5-.32.74v-.14H15.35v-1z" fill="#68d3ce"/><path d="M50.08 54.87h-2.27v-.43c-.09.25-.19.49-.3.74l-.32.73H15.35v-1z" fill="#69d3ce"/><path d="M49.76 54.87h-2.4v-.18l-.15.36-.31.72-.17.36v-.23H15.35v-1z" fill="#6ad4cf"/><path d="M49.43 54.87h-2.37v-.31l-.15.36c-.2.48-.42 1-.64 1.42v-.44H15.35v-1z" fill="#6bd4cf"/><path d="M49.1 54.87h-2.49v-.07c-.2.47-.41.94-.63 1.4v-.3H15.35v-1z" fill="#6cd4cf"/><path d="M48.78 54.87h-2.47v-.2c-.2.47-.41.93-.63 1.39v-.16H15.35v-1z" fill="#6dd5d0"/><path d="M48.45 54.87H46v-.33c-.2.47-.41.93-.62 1.38h-30v-1z" fill="#6ed5d0"/><path d="M48.12 54.87h-2.41v-.46c-.2.46-.4.92-.62 1.37l-.16.33v-.21H15.35v-1z" fill="#6fd5d0"/><path d="M47.8 54.87h-2.54v-.24l-.15.34c-.1.22-.21.44-.31.67l-.33.66v-.4H15.35v-1z" fill="#70d6d1"/><path d="M47.47 54.87h-2.66c-.1.22-.2.44-.31.66s-.21.44-.32.66v-.29H15.35v-1z" fill="#71d6d1"/><path d="M47.15 54.87h-2.64v-.17c-.09.22-.2.44-.3.65l-.32.65v-.1H15.35v-1z" fill="#72d7d1"/><path d="M46.82 54.87h-2.6v-.31c-.1.22-.2.44-.31.65s-.2.43-.31.64l-.17.32v-.27H15.35v-1z" fill="#73d7d2"/><path d="M46.49 54.87h-2.57v-.44l-.3.64c-.2.42-.42.84-.64 1.25v-.42H15.35v-1z" fill="#74d7d2"/><path d="M46.17 54.87h-2.69v-.26l-.15.32c-.21.42-.42.83-.64 1.24v-.27H15.35v-1z" fill="#75d8d2"/><path d="M45.84 54.87H43v-.08c-.2.41-.41.82-.63 1.22v-.11h-27v-1z" fill="#76d8d3"/><path d="M45.51 54.87h-2.77v-.23c-.2.41-.41.82-.62 1.22l-.17.3v-.26h-26.6v-1z" fill="#77d8d3"/><path d="M45.19 54.87h-2.75v-.37c-.19.41-.4.81-.61 1.2l-.33.59v-.39H15.35v-1z" fill="#78d9d3"/><path d="M44.86 54.87H42v-.21l-.15.3-.31.59-.32.58v-.23H15.35v-1z" fill="#79d9d4"/><path d="M44.53 54.87h-3v-.06c-.1.19-.2.39-.31.58s-.21.38-.32.57v-.06H15.35v-1z" fill="#7ad9d4"/><path d="M44.21 54.87h-2.94v-.21l-.3.57c-.21.39-.42.76-.65 1.13v-.46h-25v-1z" fill="#7bdad5"/><path d="M43.88 54.87H41v-.36l-.3.57c-.2.37-.42.75-.64 1.11v-.29H15.35v-1z" fill="#7cdad5"/><path d="M43.55 54.87h-3v-.23l-.15.28c-.2.37-.41.74-.63 1.1v-.12H15.35v-1z" fill="#7ddbd5"/><path d="M43.23 54.87h-3.12v-.1c-.2.36-.41.73-.63 1.08-.1.18-.21.35-.33.53v-.48h-23.8v-1z" fill="#7edbd6"/><path d="M42.9 54.87h-3.08v-.26c-.2.36-.4.72-.62 1.07-.1.18-.21.35-.32.52v-.3H15.35v-1z" fill="#7fdbd6"/><path d="M42.57 54.87h-3v-.41c-.19.35-.4.71-.61 1-.1.18-.21.35-.32.52v-.08H15.35v-1z" fill="#80dcd6"/><path d="M42.25 54.87H39l-.3.51c-.21.34-.43.68-.65 1v-.48h-22.7v-1z" fill="#81dcd7"/><path d="M41.92 54.87h-3.25v-.21l-.3.51c-.21.34-.42.67-.64 1v-.27H15.35v-1z" fill="#82dcd7"/><path d="M41.59 54.87h-3.21v-.37c-.09.17-.19.34-.29.5-.21.34-.42.66-.63 1v-.1H15.35v-1z" fill="#83ddd7"/><path d="M41.27 54.87h-3.46c-.2.33-.41.66-.62 1l-.33.48v-.45H15.35v-1z" fill="#84ddd8"/><path d="M40.94 54.87h-3.41v-.2c-.2.32-.4.64-.61.95l-.33.47v-.19H15.35v-1z" fill="#85ddd8"/><path d="M40.61 54.87h-3.36v-.37A29.615 29.615 0 0 1 36 56.35v-.45H15.35v-1z" fill="#86ded8"/><path d="M40.29 54.87h-3.61v-.07l-.31.46c-.2.3-.42.6-.64.9v-.26H15.35v-1z" fill="#87ded9"/><path d="M40 54.87h-3.6v-.25l-.3.45c-.2.3-.41.6-.63.89v-.06H15.35v-1z" fill="#88ded9"/><path d="M39.63 54.87h-3.5v-.43l-.3.45c-.2.3-.41.59-.62.87l-.32.43v-.29H15.35v-1z" fill="#89dfd9"/><path d="M39.31 54.87h-3.75v-.16c-.2.29-.4.58-.61.86l-.32.42v-.09H15.35v-1z" fill="#8adfda"/><path d="M39 54.87h-3.71v-.34c-.39.57-.8 1.13-1.24 1.66v-.29h-18.7v-1z" fill="#8be0da"/><path d="M38.65 54.87h-3.92v-.11l-.3.42c-.21.27-.42.54-.64.8v-.08H15.35v-1z" fill="#8ce0db"/><path d="M38.33 54.87h-3.87v-.29l-.3.4c-.2.27-.4.54-.62.79l-.32.39v-.26H15.35v-1z" fill="#8de0db"/><path d="M38 54.87h-4.1v-.08l-.61.78-.65.75v-.42H15.35v-1z" fill="#8ee1db"/><path d="M37.67 54.87h-4v-.28c-.19.26-.39.52-.6.77s-.42.5-.64.74v-.2h-17v-1z" fill="#8fe1dc"/><path d="M37.35 54.87h-4v-.47l-.59.75-.63.73-.33.35v-.33H15.35v-1z" fill="#90e1dc"/><path d="M37 54.87h-4.17v-.29l-.3.36c-.4.49-.82 1-1.26 1.4v-.44H15.35v-1z" fill="#91e2dc"/><path d="M36.7 54.87h-4.42v-.13c-.39.47-.81.93-1.24 1.37v-.21H15.35v-1z" fill="#92e2dd"/><path d="M36.37 54.87H32v-.34q-.59.7-1.23 1.35l-.32.32v-.3h-15.1v-1z" fill="#93e2dd"/><path d="M36 54.87h-4.51v-.21l-.3.34c-.2.22-.41.44-.62.65s-.42.41-.65.61v-.36H15.35v-1z" fill="#94e3dd"/><path d="M35.72 54.87H31v-.09c-.2.22-.4.43-.61.64l-.63.6v-.12H15.35v-1z" fill="#96e3de"/><path d="M35.39 54.87h-4.68v-.31c-.2.21-.39.42-.6.62-.41.41-.83.8-1.28 1.17v-.45H15.35v-1z" fill="#97e4de"/><path d="M35.06 54.87h-4.88v-.22l-.3.3c-.4.4-.82.78-1.26 1.15v-.2H15.35v-1z" fill="#98e4de"/><path d="M34.74 54.87h-5.09v-.15a14.45 14.45 0 0 1-1.23 1.12l-.66.52v-.46H15.35v-1z" fill="#99e4df"/><path d="M34.41 54.87h-5v-.38c-.39.39-.79.75-1.21 1.1-.21.18-.43.34-.65.51v-.2h-12.2v-1z" fill="#9ae5df"/><path d="M34.08 54.87h-5.47v-.06c-.2.18-.4.36-.61.53a15.41 15.41 0 0 1-1.29 1v-.4H15.35v-1z" fill="#9be5df"/><path d="M33.76 54.87h-5.37v-.3c-.2.18-.39.35-.6.52a14.73 14.73 0 0 1-1.26.94v-.13H15.35v-1z" fill="#9ce5e0"/><path d="M33.43 54.87h-5.84c-.4.32-.81.63-1.24.92l-.65.42v-.31H15.35v-1z" fill="#9de6e0"/><path d="M33.1 54.87h-5.72v-.29a15.29 15.29 0 0 1-2.51 1.7v-.38h-9.52v-1z" fill="#9ee6e0"/><path d="M32.78 54.87h-6.19v-.08l-.61.43a14.79 14.79 0 0 1-1.27.77v-.09h-9.36v-1z" fill="#9fe6e1"/><path d="M32.45 54.87h-6.06v-.34l-.59.47a15.05 15.05 0 0 1-2.56 1.39v-.49h-7.89v-1z" fill="#a0e7e1"/><path d="M32.12 54.87h-6.5v-.19A15.17 15.17 0 0 1 23.11 56v-.1h-7.76v-1z" fill="#a1e7e2"/><path d="M31.8 54.87h-6.36v-.46A15.64 15.64 0 0 1 23 55.74c-.44.18-.88.34-1.33.48v-.32h-6.32v-1z" fill="#a2e8e2"/><path d="M31.47 54.87h-7.38q-.6.33-1.23.6a14.56 14.56 0 0 1-2.65.82v-.39h-4.86v-1z" fill="#a3e8e2"/><path d="M31.14 54.87h-7.2v-.32a11.18 11.18 0 0 1-1.21.58 13.69 13.69 0 0 1-5.36 1.09v-.32h-2v-1z" fill="#a4e8e3"/><path d="M30.82 54.87H22.6a13.35 13.35 0 0 1-5.23 1.06 12.44 12.44 0 0 1-1.37-.11l-.68-.08v-.87z" fill="#a5e9e3"/><path d="M30.49 54.87h-8v-.34a13 13 0 0 1-5.11 1c-.45 0-.9 0-1.34-.06-.22 0-.44 0-.66-.09h-.32.3v-.49z" fill="#a6e9e3"/><path d="M30.16 54.87h-9v-.21A12.12 12.12 0 0 1 20 55a12.9 12.9 0 0 1-2.58.26c-.44 0-.88 0-1.31-.07l-.64-.08-.36-.11h.24v-.17z" fill="#a7e9e4"/><path d="M29.84 54.87h-10v-.21a13 13 0 0 1-2.51.25c-.43 0-.86 0-1.27-.06z" fill="#a8eae4"/><path d="M29.51 54.87z" fill="#a9eae4"/><path d="M29.18 54.87z" fill="#aaeae5"/><path d="M28.86 54.87z" fill="#abebe5"/><path d="M28.53 54.87z" fill="#acebe5"/><path d="M28.2 54.87z" fill="#adebe6"/><path d="M27.88 54.87z" fill="#aeece6"/><path d="M27.55 54.87z" fill="#afece6"/><path d="M27.22 54.87z" fill="#b0ede7"/><path d="M26.9 54.87z" fill="#b1ede7"/><path d="M26.57 54.87z" fill="#b2ede8"/><path d="M26.25 54.87z" fill="#b3eee8"/><path d="M25.92 54.87z" fill="#b4eee8"/><path d="M25.59 54.87z" fill="#b5eee9"/><path d="M25.27 54.87z" fill="#b6efe9"/><path d="M24.94 54.87z" fill="#b7efe9"/><path d="M24.61 54.87z" fill="#b8efea"/><path d="M24.29 54.87z" fill="#b9f0ea"/><path d="M24 54.87z" fill="#baf0ea"/><path d="M23.63 54.87z" fill="#bbf1eb"/><path d="M23.31 54.87z" fill="#bcf1eb"/><path d="M23 54.87z" fill="#bdf1eb"/><path d="M22.65 54.87z" fill="#bef2ec"/><path d="M22.33 54.87z" fill="#bff2ec"/><path d="M22 54.87z" fill="#c0f2ec"/><path d="M21.67 54.87z" fill="#c1f3ed"/><path d="M21.35 54.87z" fill="#c2f3ed"/><path d="M21 54.87z" fill="#c3f3ed"/><path d="M20.69 54.87z" fill="#c4f4ee"/><path d="M20.37 54.87z" fill="#c5f4ee"/><path d="M20 54.87z" fill="#c6f4ef"/><path d="M19.71 54.87z" fill="#c7f5ef"/><path d="M19.39 54.87z" fill="#c8f5ef"/><path d="M19.06 54.87z" fill="#c9f6f0"/><path d="M18.73 54.87z" fill="#caf6f0"/><path d="M18.41 54.87z" fill="#cbf6f0"/><path d="M18.08 54.87z" fill="#ccf7f1"/><path d="M17.75 54.87z" fill="#cdf7f1"/></g><path d="M43.63 68.1l-.16.8h-.82s0-.11-.11-.11-.13.11-.21.11h-2.09v-.22a.66.66 0 0 1 .25-.11c.42-.12 1.64-.49 1.85-.9s1.29.43 1.29.43z" fill="#161711"/><path d="M43.4 58s.23 1.31.42 3a47.54 47.54 0 0 1-.07 7.2c0 .15-1.57-.31-1.57-.31s-.57-6.84-.7-8.37.98-2.44 1.92-1.52z" fill="#163f59"/><path d="M46 66.65c-.06-.07 0-.27 0-.27a7.29 7.29 0 0 1 1.42 0 1.81 1.81 0 0 1 .39.18 1.06 1.06 0 0 0 .09.11h.1l.17.11a1.09 1.09 0 0 1 0 .7s-.89.27-1.09.09c-.55-.5-.93-.76-1.08-.92z" fill="#161711"/><path d="M46.09 59.18s-.86-.51-.64.84c.53 3.25 1 5.64 1.24 6.72.09.42.23.35.23.35l1 .16.49-.34-.92-7.35z" fill="#163f59"/><path d="M42.17 59.39a51.71 51.71 0 0 0 4.76 2.4h3.64c.2 0 1.68-.21 2-1.19a7.46 7.46 0 0 0 0-2.85.37.37 0 0 0-.37-.39h-4.53c-.2 0-.61.17-.61.39l-4.4-.14a1.06 1.06 0 0 0-.49 1.78z" fill="#194866"/><path d="M50.55 60.48h-4.17s-3.64-1-3.68-1l.44 1.4a20.22 20.22 0 0 0 3.79.91h3.64c.2 0 1.68-.21 2-1.19a3.38 3.38 0 0 0 .15-1.09 3.22 3.22 0 0 1-2.17.97z" fill="#163f59"/><path d="M49 47.35l-.19-.88s-.7 0-.83-.3a3.15 3.15 0 0 1 .12-2.07c.47-.87.66-2.39 2.84-1.18.83.46-.45 2.69-.54 3.17a1.83 1.83 0 0 0 .19 1l-.51.35zM45.4 53.45l3.74 1.33s-4.41.32-4.42.06c-.1-1.41.68-1.39.68-1.39z" fill="#e9d6b8"/><path d="M52.9 48.22s.75.35 1.28 3.22.2 2.75.2 2.75l-.1.66-1.39.15-.75-2.47z" fill="#fec12f"/><path d="M53 48.23l-1.83-.76-.56-.47h-2l-.34.51-1.51.6s-.37.53-.05 2.51a55 55 0 0 1 0 7.88l6.16.09s-.46-9.3.13-10.36z" fill="#fece40"/><path d="M47.3 48.1s-.34-.34-1.17.59a12.73 12.73 0 0 0-2.24 4 2 2 0 0 0 .26 2 .8.8 0 0 0 .87.31l1.35-1.06-.43-.22h-.3s.68-1.36 1.41-2.6a4.3 4.3 0 0 0 .25-3.02z" fill="#fece40"/><path d="M48.71 44.35s.25-.13.29 0a.74.74 0 0 1-.21.59c-.11 0-.15.5-.15.5l.3.52h1.54s.47-.19.51-.5.42-2.51.42-2.51l-1.08-.52a7.17 7.17 0 0 0-1-.36c-.61-.16-.74.13-.72.29s-.17.17-.42.17-.55.18-.42.28-.19.18-.09.34.61.32.64.7c.05.21.13.78.39.5z" fill="#194866"/><path d="M44.21 63.17v-.58a.8.8 0 0 1 .69-.87h7.68a.8.8 0 0 1 .69.87v.58z" fill="#36afb1"/><path d="M53.32 63.4c0 .15-.08.27-.19.27h-8.82c-.11 0-.19-.12-.19-.27 0-.14.08-.26.19-.26h8.82c.11 0 .19.12.19.26z" fill="#2c5b6a"/><path d="M49.74 67.5l-.48.72 4 1.27s.27-.26-.71-.76a30.36 30.36 0 0 0-2.81-1.23z" fill="#88bdda"/><path d="M49 67.5l.47.72-4 1.27s-.26-.26.71-.76c1.2-.6 2.82-1.23 2.82-1.23z" fill="#88bdda"/><path fill="#88bdda" d="M48.97 65.35h.83v2.95h-.83z"/><path d="M49.79 67.65l-.41.69 3.4 1.21s.23-.24-.61-.73-2.38-1.17-2.38-1.17z" fill="#91e2f6"/><path d="M49 67.65l.4.69-3.4 1.21s-.22-.24.61-.73S49 67.65 49 67.65z" fill="#91e2f6"/><path d="M52.4 69.82a.29.29 0 1 0 .28-.29.29.29 0 0 0-.28.29zM45.81 69.82a.29.29 0 1 0 .29-.29.29.29 0 0 0-.29.29z" fill="#001f46"/><path d="M53.09 69.82a.29.29 0 1 0 .29-.29.29.29 0 0 0-.29.29zM45.12 69.82a.29.29 0 1 0 .29-.29.29.29 0 0 0-.29.29z" fill="#367082"/><path fill="#2c5b6a" d="M49.09 64.27h.61v1.06h-.61z"/><path d="M48.64 63.71a.58.58 0 0 0 .59.59h.33a.58.58 0 0 0 .59-.59.58.58 0 0 0-.59-.59h-.33a.58.58 0 0 0-.59.59z" fill="#2c5b6a"/><path d="M45.46 63.17v-.58a.8.8 0 0 1 .69-.87h7.68a.8.8 0 0 1 .69.87v.58z" fill="#3dc7c9"/><path d="M54.57 63.4c0 .15-.08.27-.19.27h-8.82c-.1 0-.19-.12-.19-.27 0-.14.09-.26.19-.26h8.82c.11 0 .19.12.19.26z" fill="#367082"/><path d="M53.62 56.11a.37.37 0 0 1-.38.38H46a.49.49 0 0 1-.46-.38 14 14 0 0 1 0-4.74A.49.49 0 0 1 46 51h7.26a.37.37 0 0 1 .38.38q-.03 2.36-.02 4.73z" fill="#33a8b5"/><path d="M54.05 56.11a.39.39 0 0 1-.39.38H46.4a.47.47 0 0 1-.45-.38 14 14 0 0 1 0-4.74.47.47 0 0 1 .45-.37h7.26a.39.39 0 0 1 .39.38z" fill="#3dc7c9"/><path d="M47.43 63.69c1.12-4-1-8-.1-12.06a.29.29 0 0 0-.29-.39h-.13a.53.53 0 0 0-.48.39c-.92 4 1.22 8 .1 12.06zM53.79 63.69c1.12-4-1-8-.1-12.06a.29.29 0 0 0-.29-.39h-.13a.53.53 0 0 0-.48.39c-.92 4 1.21 8 .1 12.06z" fill="#367082"/><path fill="#b0bfde" d="M83.86 65.13h7.17v.96h-7.17z"/><path fill="#b0bfde" d="M82.99 57.06h8.92v8.28h-8.92z"/><path fill="#cfd9e8" d="M82.99 57.81h8.92v7.32h-8.92z"/><path fill="#e4efff" d="M84.42 58.02h6.05v2.55h-6.05z"/><path fill="#fff" d="M86.53 58.44h1.83v.43h-1.83z"/><path fill="#e4efff" d="M84.42 61.31h6.05v2.55h-6.05z"/><path fill="#fff" d="M86.53 61.73h1.83v.43h-1.83z"/><path fill="#cfd9e8" d="M82.51 56.11h9.87v.96h-9.87z"/><path d="M87.15 53.76a5.06 5.06 0 0 1 1.13-2.1A8.5 8.5 0 0 1 90.37 50c.91-.34 1.13-1 .79-1.19s-1.48-.84-2.85.6a5 5 0 0 0-1.69 3.91c.03 1.38.47 1.22.53.44z" fill="#3bb6d5"/><path d="M86.89 53h-.17a5 5 0 0 1 1.88-3.13 8.47 8.47 0 0 1 2-.89l.05.16a8.59 8.59 0 0 0-2 .87A4.78 4.78 0 0 0 86.89 53z" fill="#3096af"/><path d="M86.77 54.26s-.71-2-1-2.63a3.44 3.44 0 0 1 .23-2.72 3 3 0 0 0 .88-2.75c-.34-1.29-.17-2.09.46-1.59a4.47 4.47 0 0 1 .62 6.52 6 6 0 0 0-1.19 3.17z" fill="#f8c44f"/><path d="M86.47 53.79a6.89 6.89 0 0 1 0-2.87c.09-.18.2-.41.33-.65a8.87 8.87 0 0 0 1-2.63 4.39 4.39 0 0 0-.68-2.39l.14-.1a4.52 4.52 0 0 1 .7 2.5 8.19 8.19 0 0 1-1 2.69l-.32.66a6.6 6.6 0 0 0 0 2.76z" fill="#f4da80"/><path d="M84 51.28c-.82-.15-.88-1.09-.25-1.28a2.08 2.08 0 0 1 2.16.5 4.33 4.33 0 0 1 .62 3.1c-.18 1 0-.38-.4-1A3.62 3.62 0 0 0 84 51.28z" fill="#194866"/><path d="M86.56 53.36a3.83 3.83 0 0 0-1.08-2.26 2.32 2.32 0 0 0-1.86-.52v-.12a2.35 2.35 0 0 1 2 .55 3.86 3.86 0 0 1 1.12 2.33z" fill="#161711"/><path fill="#b0bfde" d="M88.12 56.16h-2.25l-.38-3.64h3.01l-.38 3.64z"/><path fill="#cfd9e8" d="M85.71 52.52l.22 2.9h1.61l.22-2.9h-2.05z"/></svg>