<svg xmlns="http://www.w3.org/2000/svg" xmlns:xlink="http://www.w3.org/1999/xlink" viewBox="0 0 100 100"><defs><linearGradient id="a" x1="31.3" y1="88.62" x2="61.23" y2="88.62" gradientUnits="userSpaceOnUse"><stop offset="0" stop-color="#e2d6f6"/><stop offset="1" stop-color="#9075b9" stop-opacity="0"/></linearGradient><linearGradient id="b" x1="43.66" y1="82.3" x2="92.59" y2="81.35" gradientUnits="userSpaceOnUse"><stop offset="0" stop-color="#e2d6f6"/><stop offset="1" stop-color="#fff" stop-opacity="0"/></linearGradient><linearGradient id="c" x1="62.88" y1="11.56" x2="72.68" y2="42.41" xlink:href="#a"/><linearGradient id="d" x1="26.39" y1="47.61" x2="29.03" y2="52.09" gradientUnits="userSpaceOnUse"><stop offset="0" stop-color="#fff"/><stop offset="1" stop-color="#d5bcfa"/></linearGradient><linearGradient id="e" x1="20.68" y1="48.89" x2="29.38" y2="49.33" gradientUnits="userSpaceOnUse"><stop offset="0" stop-color="#e2d6f6"/><stop offset="1" stop-color="#9075b9"/></linearGradient><linearGradient id="f" x1="-141.95" y1="-22.39" x2="-133.16" y2="-64.23" gradientTransform="matrix(-1, 0, 0, 1, -134, 0)" gradientUnits="userSpaceOnUse"><stop offset="0" stop-color="#7f4ad8"/><stop offset="1" stop-color="#3219af"/></linearGradient><linearGradient id="g" x1="31.13" y1="42.04" x2="52.75" y2="42.04" xlink:href="#e"/></defs><title>jacob</title><rect width="100" height="100" style="fill:none"/><path d="M100,59.14c.27,12.8-3.57,32-50,31.84C18.75,90.85,0,82.43,0,59.14S16.41,9,41.11,9,99.5,35.86,100,59.14Z" style="fill:none"/><path d="M30.61,88.72c-.6.37,5.3,2.93,6.08,3s-.42-1.64,0-1.94S67,91,67,91L65.6,85.55s-30.22,2-32.18,2.46S30.61,88.72,30.61,88.72Z" style="fill:url(#a)"/><path d="M79,81.78l-3-1c4.4,0,20.81-.78,20.81-.78v-3.1s-52.4.64-50.39,3.41c.26.36,13,.45,23.47.47L74.35,82c-6.86.42-12.2,1.08-11.43,2.15.45.61,37.08,1.39,37.08,1.39V82S88,82,79,81.78Z" style="fill:url(#b)"/><path d="M77.56,43,81.48,42s-7.69-29.9-9.17-29.44c-.7.21.33,6.5,1.68,13.4L61.54,23.28c-2.1-7.38-4.37-14.65-5.11-14.43C55,9.29,63,41,64.13,46.34L67,44.49l-1.56-6.14L77,40.44C77.24,41.52,77.43,42.41,77.56,43Zm-12.68-7.5c-.62-2.37-1.59-6-2.66-9.82l12.25,2.67c.65,3.21,1.32,6.42,1.9,9.09Z" style="fill:url(#c)"/><path d="M47.06,80.76H47a.72.72,0,0,1-.62-.81L55.52,8.88a.72.72,0,0,1,.8-.63.73.73,0,0,1,.63.81L47.77,80.13A.73.73,0,0,1,47.06,80.76Z" style="fill:#e2d6f6"/><path d="M63.13,84.33H63a.72.72,0,0,1-.63-.81l9.18-71.06a.73.73,0,0,1,1.44.18L63.85,83.7A.73.73,0,0,1,63.13,84.33Z" style="fill:#e2d6f6"/><path d="M71.09,23l-.15,0L54.86,19.38a.74.74,0,0,1-.55-.87.72.72,0,0,1,.86-.54l16.08,3.56A.72.72,0,0,1,71.09,23Z" style="fill:#e2d6f6"/><path d="M69.72,33.56h-.16L53.49,30a.72.72,0,0,1,.31-1.41l16.08,3.57a.72.72,0,0,1,.55.86A.74.74,0,0,1,69.72,33.56Z" style="fill:#e2d6f6"/><path d="M68.35,44.17l-.16,0L52.12,40.58a.72.72,0,0,1-.55-.86.72.72,0,0,1,.86-.55l16.08,3.57a.72.72,0,0,1-.16,1.43Z" style="fill:#e2d6f6"/><path d="M67,54.77a.44.44,0,0,1-.16,0L50.74,51.19a.72.72,0,0,1,.32-1.41l16.07,3.56A.72.72,0,0,1,67,54.77Z" style="fill:#e2d6f6"/><path d="M65.61,65.37h-.16L49.37,61.79a.72.72,0,0,1,.31-1.41L65.76,64a.72.72,0,0,1,.55.86A.71.71,0,0,1,65.61,65.37Z" style="fill:#e2d6f6"/><path d="M64.23,76l-.15,0L48,72.39a.72.72,0,0,1-.55-.86.73.73,0,0,1,.86-.55l16.08,3.57A.72.72,0,0,1,64.23,76Z" style="fill:#e2d6f6"/><path d="M35,89.41c1.42,1.19,1.72,1.07,1.9,1.89s-2.09.34-3.16-.06a3.58,3.58,0,0,1-1.33-.92c-.45-.59-.89-.29-1.74-.59s-.94-1.1-.58-2.39,2.82,0,3.35.39A16.28,16.28,0,0,1,35,89.41Z" style="fill:#4b00c8"/><path d="M34.42,22.92c.7-1.53,1.41-.52,1.79-2.39s-.37-4.33-3.07-6.12-4.42.36-4.72,3.5A8.34,8.34,0,0,0,30,23.38l2.53.86Z" style="fill:#d5bcfa"/><path d="M49.72,71a5.85,5.85,0,0,0,.91,2.15c.28.36,2.15-.13,2.32-.46s.56,0,.74.17,3.72-.38,3.72-.8c0-1.65-1-.22-3.3-1.06-4.06-1.45-2.69-2.09-2.69-2.09Z" style="fill:#4b00c8"/><path d="M52.54,70.27c-2.63-16.72-1.65-18.4-4-19.87s-10.93-5.86-10.93-5.86l-2.52,8S44.71,57,45,58c1.07,3,1.17,4,2.21,6.88,1.29,3.62,2,5.49,2.39,6.53S52.75,71.59,52.54,70.27Z" style="fill:#5108ca"/><path d="M57.63,31.15c1.27.09,1.84.71,2.43.76s.58-.27.58-.27-1.25-.52-1.29-1.19.41-.62.68-.56c.44.09,2.3.55,2.3.55a2.81,2.81,0,0,0-.67-2.38c-1-1.09-2.61-1-5,.33S57.63,31.15,57.63,31.15Z" style="fill:#d5bcfa"/><path d="M37.86,53.49c-1,7.11-2.09,10.51-2.63,15.94S34,83.38,33.35,86.52c-.43,2.09-3.3,1.87-3.12,0s-.36-14.14-.77-17.41-1-17.33-1-17.33l9.17-7.24Z" style="fill:#5108ca"/><path d="M19.8,44s3.35-13.13,6.61-15.54l2.12-1.92A8.48,8.48,0,0,0,30,23.38a7.66,7.66,0,0,0,4.46-.46s-.43,1.29,0,1.83h0c3.2.63,8.2,4.11,10.4,4.58,2.54.54,6.94-.08,11.83-.94.68-.11,1.46,2.55.84,2.85-5.27,2.63-7.43,4.08-11.89,3.29s-5.62-.48-6.65,1,.79,7.12,2.71,10.47c1.67,2.93-3.3,3.28-5.26,4s-2.79,7.33-7,8c-1.91.29-3.23-9.62-4.24-14.87l-2,3.48Z" style="fill:#7f4ad8"/><path d="M42.83,46.21,17,61.12a4.66,4.66,0,0,1-6.37-1.7h0A4.67,4.67,0,0,1,12.33,53L38.16,38.13a4.67,4.67,0,0,1,6.38,1.71h0A4.66,4.66,0,0,1,42.83,46.21Z" style="fill:url(#d)"/><path d="M35.86,17.51c-1,.28-1.12,1.12-1.5,2.13s-1.29.62-2-.25-.41-1.33-.88-1.88-.93-.72-.58-1.28,1.12-.07,1.65-.56,1.33-.74,1.55-.54l.76.77s.38-.87-.91-1.94a4,4,0,0,0-4.73-.15,8.5,8.5,0,0,0-2.5,3.62c-1,2.52,2.05,4.77,2.73,5.14.53.28,1.21-.64,1.45-1.67s.1-.9-.49-1.24-.86-1.41-.23-1.65.88-.15,1.23.4.94,3.14,1.43,3.56,1.56-.76,2.4-.79a4,4,0,0,1,.53,0,.18.18,0,0,1,.13.26l-.1.16C37.5,21.34,37.06,17.19,35.86,17.51Z" style="fill:#4b00c8"/><path d="M16.31,56.13c1,1.74.66,3.8-.76,4.62s-3.37.08-4.37-1.65-.66-3.8.75-4.62S15.31,54.4,16.31,56.13Z" style="fill:#e2d6f6"/><path d="M24.17,46.21c1.81.17,4.78,4.19,5.89,4.27s-1.62,1.66-1.62,1.66l-7.06-4.29S23.37,46.13,24.17,46.21Z" style="fill:url(#e)"/><path d="M27.72,50.09c1.83.68,3.55-.62,3.82-.09s-1.5,1-1.37,1.18,1.16.24,2.5.36.66,2.28-1.53,2.46-2.93-.83-4.29-1S27.72,50.09,27.72,50.09Z" style="fill:#d5bcfa"/><path d="M20.29,42.24c-2.94,7.29-2.46,9.68,2.61,10.61,3.1.57,4.16.68,4.16.68a14.74,14.74,0,0,1,.66-3.44,36.23,36.23,0,0,1-4.41-3.37A50.25,50.25,0,0,1,20.29,42.24Z" style="fill:url(#f)"/><path d="M44.54,39.84a4.67,4.67,0,0,0-6.38-1.71l-12.06,7c3.75-1.37,6.91,1.24,10.67,1.47a16.5,16.5,0,0,0,7.64-1.87A4.66,4.66,0,0,0,44.54,39.84Z" style="fill:url(#g)"/></svg>